<?xml version="1.0" encoding="UTF-8"?>
<!DOCTYPE svg PUBLIC "-//W3C//DTD SVG 1.1 Tiny//EN" "http://www.w3.org/Graphics/SVG/1.1/DTD/svg11-tiny.dtd">
<svg baseProfile="tiny" version="1.1" xmlns="http://www.w3.org/2000/svg" xmlns:xlink="http://www.w3.org/1999/xlink">
<path d="M25.824,21.015V8.411h-9.979l-1.025,1.6L8.354,3.545L3.651,8.242l6.797,6.795H4.931v15.818h6.671l4.24,6.625h9.982v-7.067  l7.902,7.905l4.697-4.703L25.824,21.015z M19.179,30.336L15.26,24.21h-3.682v-2.524h3.682l0.715-1.121l3.204,3.203V30.336z"/>
<rect fill="#FFFFFF" height="2.648" transform="matrix(-0.7071 -0.7071 0.7071 -0.7071 21.1169 50.6082)" width="38.533" x="1.773" y="19.607"/>
<polygon fill="#FFFFFF" points="21.179,32.835 18.403,32.835 14.166,26.209 9.578,26.209 9.578,19.685 14.166,19.685 14.463,19.219   12.279,17.037 6.931,17.037 6.931,28.855 12.695,28.855 16.937,35.48 23.824,35.48 23.824,28.579 21.179,25.936 "/>
<polygon fill="#FFFFFF" points="18.403,13.06 21.179,13.06 21.179,16.202 23.824,18.847 23.824,10.412 16.937,10.412 16.332,11.355   18.259,13.284 "/>
</svg>
