<?xml version="1.0" encoding="UTF-8"?>
<!DOCTYPE svg PUBLIC "-//W3C//DTD SVG 1.1 Tiny//EN" "http://www.w3.org/Graphics/SVG/1.1/DTD/svg11-tiny.dtd">
<svg baseProfile="tiny" version="1.1" xmlns="http://www.w3.org/2000/svg" xmlns:xlink="http://www.w3.org/1999/xlink">
<path d="M34.951,38.12l-5.054-4.302l1.282-1.521c0.877-1.04,8.324-10.39,0.111-18.605l-1.414-1.413l4.697-4.701l1.413,1.415  c12.695,12.699,0.386,27.46,0.259,27.606L34.951,38.12L34.951,38.12z"/>
<path d="M30.761,14.545l-1.414-1.412l-3.521,3.521V8.411h-9.981l-4.24,6.624H4.93v15.82h6.674l4.24,6.625h9.981v-8.201l3.855,3.287  l1.298-1.521C33.574,28.005,36.864,20.643,30.761,14.545z M19.18,30.335l-3.921-6.128h-3.682v-2.522h3.682l3.921-6.128V30.335z   M25.918,26.742l-0.094,0.109v-7.844l0.237,0.236C29.324,22.505,26.277,26.318,25.918,26.742z"/>
<path d="M27.476,17.83c4.622,4.622,0.158,9.979-0.031,10.203l2.014,1.714c2.181-2.554,4.957-8.725-0.11-13.788  L27.476,17.83z" fill="#FFFFFF"/>
<path d="M34.576,10.406l-1.873,1.871c9.664,9.663,0.404,20.838,0.006,21.309l2.017,1.717  C34.838,35.17,45.974,21.811,34.576,10.406z" fill="#FFFFFF"/>
<path d="M16.937,10.411l-4.242,6.625H6.931v11.819h5.764l4.242,6.625h6.887V10.411H16.937z M21.179,32.834h-2.776  l-4.237-6.626H9.578v-6.524h4.588l4.237-6.625h2.776V32.834z" fill="#FFFFFF"/>
</svg>
