<?xml version="1.0" encoding="UTF-8" standalone="no"?>
<!-- Created with Inkscape (http://www.inkscape.org/) -->
<svg
   xmlns:dc="http://purl.org/dc/elements/1.1/"
   xmlns:cc="http://web.resource.org/cc/"
   xmlns:rdf="http://www.w3.org/1999/02/22-rdf-syntax-ns#"
   xmlns:svg="http://www.w3.org/2000/svg"
   xmlns="http://www.w3.org/2000/svg"
   xmlns:sodipodi="http://inkscape.sourceforge.net/DTD/sodipodi-0.dtd"
   xmlns:inkscape="http://www.inkscape.org/namespaces/inkscape"
   width="640"
   height="480"
   id="svg2"
   sodipodi:version="0.32"
   inkscape:version="0.43"
   version="1.0"
   sodipodi:docbase="c:\"
   sodipodi:docname="SVG_640x480.svg">
  <defs
     id="defs4" />
  <sodipodi:namedview
     id="base"
     pagecolor="#ffffff"
     bordercolor="#666666"
     borderopacity="1.0"
     inkscape:pageopacity="0.0"
     inkscape:pageshadow="2"
     inkscape:zoom="0.98994949"
     inkscape:cx="308.77594"
     inkscape:cy="313.99918"
     inkscape:document-units="px"
     inkscape:current-layer="layer1"
     inkscape:window-width="812"
     inkscape:window-height="793"
     inkscape:window-x="195"
     inkscape:window-y="44" />
  <metadata
     id="metadata7">
    <rdf:RDF>
      <cc:Work
         rdf:about="">
        <dc:format>image/svg+xml</dc:format>
        <dc:type
           rdf:resource="http://purl.org/dc/dcmitype/StillImage" />
      </cc:Work>
    </rdf:RDF>
  </metadata>
  <g
     inkscape:label="Layer 1"
     inkscape:groupmode="layer"
     id="layer1">
    <rect
       style="opacity:1;color:#000000;fill:#fe8f00;fill-opacity:1;fill-rule:nonzero;stroke:none;stroke-width:12;stroke-linecap:square;stroke-linejoin:round;marker:none;marker-start:none;marker-mid:none;marker-end:none;stroke-miterlimit:4;stroke-dasharray:12, 36;stroke-dashoffset:0;stroke-opacity:1;visibility:visible;display:inline;overflow:visible"
       id="rect1308"
       width="640"
       height="480"
       x="0"
       y="-1.5258789e-005" />
    <rect
       style="opacity:1;color:#000000;fill:#000000;fill-opacity:0.35185188;fill-rule:nonzero;stroke:#000000;stroke-width:12;stroke-linecap:square;stroke-linejoin:round;marker:none;marker-start:none;marker-mid:none;marker-end:none;stroke-miterlimit:4;stroke-dasharray:12, 36;stroke-dashoffset:0;stroke-opacity:1;visibility:visible;display:inline;overflow:visible"
       id="rect2190"
       width="600"
       height="400"
       x="28.284269"
       y="30.482117"
       rx="40"
       ry="40" />
    <path
       style="font-size:199.21853638px;font-style:normal;font-weight:normal;line-height:125%;fill:#000000;fill-opacity:1;stroke:none;stroke-width:1px;stroke-linecap:butt;stroke-linejoin:miter;stroke-opacity:1;font-family:Bitstream Vera Sans"
       d="M 122.70914,300.73115 C 114.39836,300.73115 104.3021,299.07946 92.420334,295.77611 L 92.420334,280.42518 C 104.69167,283.92288 114.07372,285.67172 120.56652,285.6717 C 128.81231,285.67172 134.98044,283.8581 139.07095,280.23087 C 143.22627,276.60367 145.30396,271.16284 145.30401,263.90837 C 145.30396,257.23692 143.71323,251.79609 140.53182,247.58587 C 137.41524,243.37576 131.01985,238.35595 121.34566,232.52643 C 110.89226,226.04931 103.62036,219.60453 99.529927,213.19204 C 95.439462,206.77972 93.394244,199.49289 93.394244,191.33154 C 93.394244,178.24776 97.517148,168.7587 105.763,162.86433 C 114.07372,156.90546 124.98158,153.92597 138.4866,153.92582 C 147.57643,153.92597 156.7637,155.18902 166.04844,157.71497 L 166.04844,172.77442 C 157.21819,170.31322 149.49179,169.08256 142.86922,169.08243 C 135.14277,169.08256 129.36419,170.53993 125.5335,173.45453 C 121.70273,176.36938 119.78736,180.74147 119.7874,186.57081 C 119.78736,191.2345 120.98852,195.37989 123.39089,199.00701 C 125.79317,202.63432 131.37696,207.23312 140.14225,212.8034 C 147.60889,217.66138 153.41992,221.90392 157.57536,225.53107 C 161.79559,229.09359 165.17184,233.46568 167.70409,238.64736 C 170.30112,243.76439 171.59968,250.07963 171.59976,257.59312 C 171.59968,271.97249 167.50924,282.75699 159.32841,289.94665 C 151.21238,297.13631 139.00597,300.73115 122.70914,300.73115 M 205.39468,299.56526 L 178.80675,154.8974 L 206.75816,154.8974 L 222.7304,259.53627 L 243.08526,154.8974 L 263.6349,154.8974 L 232.66434,299.56526 L 205.39468,299.56526 M 312.33074,300.34251 C 301.3579,300.34251 293.11209,297.00677 287.59325,290.33527 C 282.07437,283.59901 278.50334,275.08154 276.88016,264.78279 C 275.25696,254.41934 274.44537,241.59453 274.44538,226.30833 C 274.44537,209.14389 276.0361,195.31512 279.21757,184.82198 C 282.46394,174.32907 287.65815,166.55646 294.80023,161.50412 C 302.00718,156.45207 312.10345,153.92597 325.08905,153.92582 C 334.30873,153.92597 343.36614,155.25379 352.26133,157.90929 L 352.26133,173.26021 C 341.74295,169.76266 333.10756,168.01383 326.35514,168.0137 C 316.03157,168.01383 309.27908,172.4183 306.09767,181.22714 C 302.98109,189.97145 301.42283,204.09169 301.42287,223.58791 C 301.42283,248.39557 302.2669,265.04191 303.95505,273.52699 C 305.64313,282.01211 309.70112,286.25466 316.12901,286.25465 C 320.6739,286.25466 324.08261,284.73252 326.35514,281.68823 C 328.62755,278.57921 329.76379,273.91564 329.76385,267.69752 L 329.76385,232.91505 L 316.51858,232.91505 L 316.51858,219.79876 L 356.0596,219.79876 L 356.0596,299.56526 L 342.91172,299.56526 L 339.30823,287.22623 C 336.38641,291.63072 332.65307,294.93407 328.10819,297.13631 C 323.62811,299.27378 318.36896,300.34251 312.33074,300.34251"
       id="text2192" />
    <path
       id="path2203"
       d="M 114.62791,292.64992 C 106.31714,292.64992 96.220883,290.99824 84.339113,287.69489 L 84.339113,272.34396 C 96.610453,275.84165 105.9925,277.5905 112.4853,277.59048 C 120.73109,277.5905 126.89922,275.77688 130.98972,272.14965 C 135.14505,268.52245 137.22273,263.08162 137.22278,255.82715 C 137.22273,249.1557 135.632,243.71486 132.4506,239.50465 C 129.33401,235.29454 122.93863,230.27473 113.26444,224.4452 C 102.81104,217.96809 95.539143,211.52331 91.448703,205.11081 C 87.358243,198.6985 85.313023,191.41167 85.313023,183.25032 C 85.313023,170.16654 89.435923,160.67748 97.681773,154.78311 C 105.9925,148.82424 116.90035,145.84475 130.40537,145.8446 C 139.4952,145.84475 148.68247,147.1078 157.96722,149.63375 L 157.96722,164.69319 C 149.13697,162.232 141.41056,161.00134 134.788,161.00121 C 127.06154,161.00134 121.28297,162.4587 117.45228,165.3733 C 113.6215,168.28816 111.70613,172.66025 111.70617,178.48959 C 111.70613,183.15328 112.9073,187.29867 115.30966,190.92578 C 117.71195,194.5531 123.29574,199.15189 132.06103,204.72218 C 139.52766,209.58015 145.33869,213.8227 149.49414,217.44984 C 153.71437,221.01237 157.09062,225.38445 159.62287,230.56614 C 162.2199,235.68317 163.51846,241.99841 163.51854,249.5119 C 163.51846,263.89126 159.42801,274.67577 151.24718,281.86542 C 143.13115,289.05509 130.92475,292.64992 114.62791,292.64992 M 197.31346,291.48404 L 170.72553,146.81618 L 198.67693,146.81618 L 214.64917,251.45505 L 235.00403,146.81618 L 255.55367,146.81618 L 224.58312,291.48404 L 197.31346,291.48404 M 304.24951,292.26129 C 293.27668,292.26129 285.03086,288.92555 279.51203,282.25404 C 273.99315,275.51779 270.42212,267.00031 268.79894,256.70157 C 267.17574,246.33812 266.36414,233.51331 266.36415,218.22711 C 266.36414,201.06266 267.95487,187.2339 271.13635,176.74075 C 274.38272,166.24784 279.57693,158.47524 286.71901,153.4229 C 293.92596,148.37085 304.02222,145.84475 317.00782,145.8446 C 326.2275,145.84475 335.28492,147.17257 344.1801,149.82806 L 344.1801,165.17899 C 333.66173,161.68144 325.02634,159.9326 318.27392,159.93247 C 307.95034,159.9326 301.19786,164.33708 298.01645,173.14592 C 294.89987,181.89023 293.34161,196.01046 293.34165,215.50669 C 293.34161,240.31435 294.18567,256.96068 295.87383,265.44576 C 297.56191,273.93089 301.6199,278.17344 308.04779,278.17343 C 312.59268,278.17344 316.00139,276.6513 318.27392,273.60701 C 320.54633,270.49798 321.68256,265.83442 321.68262,259.6163 L 321.68262,224.83383 L 308.43736,224.83383 L 308.43736,211.71754 L 347.97838,211.71754 L 347.97838,291.48404 L 334.8305,291.48404 L 331.22701,279.14501 C 328.30519,283.5495 324.57184,286.85285 320.02696,289.05509 C 315.54689,291.19256 310.28774,292.26129 304.24951,292.26129"
       style="font-size:199.21853638px;font-style:normal;font-weight:normal;line-height:125%;fill:#ffffff;fill-opacity:1;stroke:none;stroke-width:1px;stroke-linecap:butt;stroke-linejoin:miter;stroke-opacity:1;font-family:Bitstream Vera Sans" />
    <path
       sodipodi:type="star"
       style="opacity:1;color:#000000;fill:#ffe500;fill-opacity:1;fill-rule:nonzero;stroke:#000000;stroke-width:12;stroke-linecap:square;stroke-linejoin:round;marker:none;marker-start:none;marker-mid:none;marker-end:none;stroke-miterlimit:4;stroke-dasharray:12, 36;stroke-dashoffset:0;stroke-opacity:1;visibility:visible;display:inline;overflow:visible"
       id="path3080"
       sodipodi:sides="5"
       sodipodi:cx="284.86301"
       sodipodi:cy="134.52783"
       sodipodi:r1="183.79225"
       sodipodi:r2="91.896126"
       sodipodi:arg1="0.58190512"
       sodipodi:arg2="1.2102236"
       inkscape:flatsided="false"
       inkscape:rounded="0"
       inkscape:randomized="0"
       d="M 438.40619,235.54309 L 317.2849,220.51457 L 236.23924,311.77151 L 213.10367,191.93424 L 101.26868,143.05519 L 208.09141,84.020209 L 220.01924,-37.445646 L 309.17488,45.905992 L 428.38168,19.715014 L 376.66017,130.26415 L 438.40619,235.54309 z "
       transform="matrix(0.62966,0,0,0.608487,301.9621,151.6859)" />
  </g>
</svg>
