<?xml version="1.0" encoding="utf-8"?>
<!-- Generator: Adobe Illustrator 12.0.1, SVG Export Plug-In . SVG Version: 6.00 Build 51448)  -->
<!DOCTYPE svg PUBLIC "-//W3C//DTD SVG 1.1//EN" "http://www.w3.org/Graphics/SVG/1.1/DTD/svg11.dtd" [
	<!ENTITY ns_svg "http://www.w3.org/2000/svg">
	<!ENTITY ns_xlink "http://www.w3.org/1999/xlink">
]>
<svg  version="1.1" id="Layer_1" xmlns="&ns_svg;" xmlns:xlink="&ns_xlink;" width="26" height="26" viewBox="0 0 26 26"
	 overflow="visible" enable-background="new 0 0 26 26" xml:space="preserve">
<g>
	<rect x="12.995" y="22.003" width="1" height="0.984"/>
	<rect x="12.995" y="20.003" width="1" height="0.984"/>
	<rect x="12.995" y="18.003" width="1" height="0.984"/>
	<rect x="12.995" y="16.003" width="1" height="0.984"/>
	<rect x="12.995" y="14.003" width="1" height="0.984"/>
	<rect x="13.995" y="13.004" width="1" height="0.983"/>
	<rect x="14.995" y="22.003" width="1" height="0.984"/>
	<rect x="15.995" y="13.004" width="1" height="0.983"/>
	<rect x="16.995" y="22.003" width="1" height="0.984"/>
	<rect x="17.995" y="13.004" width="1" height="0.983"/>
	<rect x="18.995" y="22.003" width="1" height="0.984"/>
	<rect x="19.995" y="13.004" width="1" height="0.983"/>
	<rect x="20.995" y="22.003" width="1" height="0.984"/>
	<rect x="21.995" y="21.003" width="1" height="0.984"/>
	<rect x="21.995" y="19.003" width="1" height="0.984"/>
	<rect x="21.995" y="17.003" width="1" height="0.984"/>
	<rect x="21.995" y="15.003" width="1" height="0.984"/>
	<rect x="21.995" y="13.004" width="1" height="0.983"/>
</g>
</svg>
