<?xml version="1.0" encoding="utf-8"?>
<!-- Generator: Adobe Illustrator 12.0.1, SVG Export Plug-In . SVG Version: 6.00 Build 51448)  -->
<!DOCTYPE svg PUBLIC "-//W3C//DTD SVG 1.1//EN" "http://www.w3.org/Graphics/SVG/1.1/DTD/svg11.dtd" [
	<!ENTITY ns_svg "http://www.w3.org/2000/svg">
	<!ENTITY ns_xlink "http://www.w3.org/1999/xlink">
]>
<svg  version="1.1" id="Layer_1" xmlns="&ns_svg;" xmlns:xlink="&ns_xlink;" width="26" height="26" viewBox="0 0 26 26"
	 overflow="visible" enable-background="new 0 0 26 26" xml:space="preserve">
<rect x="2.881" y="3.016" width="0.984" height="1"/>
<rect x="4.881" y="3.016" width="0.984" height="1"/>
<rect x="6.881" y="3.016" width="0.984" height="1"/>
<rect x="8.881" y="3.016" width="0.984" height="1"/>
<rect x="10.881" y="3.016" width="0.984" height="1"/>
<rect x="3.881" y="4.016" width="0.984" height="1"/>
<rect x="5.881" y="4.016" width="0.984" height="1"/>
<rect x="7.881" y="4.016" width="0.984" height="1"/>
<rect x="9.881" y="4.016" width="0.984" height="1"/>
<rect x="11.881" y="4.016" width="0.984" height="1"/>
<rect x="2.881" y="5.016" width="0.984" height="1"/>
<rect x="4.881" y="5.016" width="0.984" height="1"/>
<rect x="6.881" y="5.016" width="0.984" height="1"/>
<rect x="8.881" y="5.016" width="0.984" height="1"/>
<rect x="10.881" y="5.016" width="0.984" height="1"/>
<rect x="3.881" y="6.016" width="0.984" height="1"/>
<rect x="5.881" y="6.016" width="0.984" height="1"/>
<rect x="7.881" y="6.016" width="0.984" height="1"/>
<rect x="9.881" y="6.016" width="0.984" height="1"/>
<rect x="11.881" y="6.016" width="0.984" height="1"/>
<rect x="2.881" y="7.016" width="0.984" height="1"/>
<rect x="4.881" y="7.016" width="0.984" height="1"/>
<rect x="6.881" y="7.016" width="0.984" height="1"/>
<rect x="8.881" y="7.016" width="0.984" height="1"/>
<rect x="10.881" y="7.016" width="0.984" height="1"/>
<rect x="3.881" y="8.016" width="0.984" height="1"/>
<rect x="5.881" y="8.016" width="0.984" height="1"/>
<rect x="7.881" y="8.016" width="0.984" height="1"/>
<rect x="9.881" y="8.016" width="0.984" height="1"/>
<rect x="11.881" y="8.016" width="0.984" height="1"/>
<rect x="2.881" y="9.016" width="0.984" height="1"/>
<rect x="4.881" y="9.016" width="0.984" height="1"/>
<rect x="6.881" y="9.016" width="0.984" height="1"/>
<rect x="8.881" y="9.016" width="0.984" height="1"/>
<rect x="10.881" y="9.016" width="0.984" height="1"/>
<rect x="3.881" y="10.016" width="0.984" height="1"/>
<rect x="5.881" y="10.016" width="0.984" height="1"/>
<rect x="7.881" y="10.016" width="0.984" height="1"/>
<rect x="9.881" y="10.016" width="0.984" height="1"/>
<rect x="11.881" y="10.016" width="0.984" height="1"/>
<rect x="2.881" y="11.016" width="0.984" height="1"/>
<rect x="4.881" y="11.016" width="0.984" height="1"/>
<rect x="6.881" y="11.016" width="0.984" height="1"/>
<rect x="8.881" y="11.016" width="0.984" height="1"/>
<rect x="10.881" y="11.016" width="0.984" height="1"/>
<rect x="3.881" y="12.016" width="0.984" height="1"/>
<rect x="5.881" y="12.016" width="0.984" height="1"/>
<rect x="7.881" y="12.016" width="0.984" height="1"/>
<rect x="9.881" y="12.016" width="0.984" height="1"/>
<rect x="11.881" y="12.016" width="0.984" height="1"/>
</svg>
