<?xml version="1.0" encoding="UTF-8"?>
<!DOCTYPE svg PUBLIC "-//W3C//DTD SVG 1.1 Tiny//EN" "http://www.w3.org/Graphics/SVG/1.1/DTD/svg11-tiny.dtd">
<svg baseProfile="tiny" version="1.0" xmlns="http://www.w3.org/2000/svg" xmlns:xlink="http://www.w3.org/1999/xlink" width="100%" height="100%" viewBox="0 0 21 21">
<g>
<g>
<g>
<g>
<linearGradient id="XMLID_5_" gradientUnits="userSpaceOnUse" x1="9.5977" y1="19.4063" x2="16.245" y2="1.0969" gradientTransform="matrix(1 0 0 -1 0.1377 18.3613)">
<stop offset="0" style="stop-color:#999999"/>
<stop offset="0.2458" style="stop-color:#FFFFFF"/>
<stop offset="0.2682" style="stop-color:#FFFFFF"/>
<stop offset="1" style="stop-color:#4D4D4D"/>
</linearGradient>
<path fill="url(#XMLID_5_)" d="M4.216,1.155L4.216,1.155L4.216,1.155C4.215,1.154,4.851,0.717,5.652,0.708l10.332,0.69      c0,0,0.665,0.051,0.996,0.363c0.304,0.287,0.275,0.728,0.275,0.728l-0.119,16.136c0,0,0.002,0.564-0.347,0.75      c-0.007,0.005-0.013,0.006-0.017,0.008c-0.129,0.08-1.397,0.669-1.381,0.66L4.216,1.155z"/>
<path fill="#FFFFFF" d="M4.933,0.983c0,0-0.53,0.009-0.831,0.246c-0.338,0.27-0.345,0.864-0.345,0.864L3.635,16.149      c0,0-0.034,0.54,0.211,0.924c0.199,0.309,0.633,0.495,0.633,0.495l9.98,2.504c0,0,0.607,0.162,0.957-0.029      c0.349-0.19,0.346-0.767,0.346-0.767l0.096-16.451c0,0,0.03-0.45-0.274-0.742c-0.331-0.317-0.996-0.37-0.996-0.37L4.933,0.983z"/>
<radialGradient id="XMLID_6_" cx="-394.0942" cy="-371.0908" r="49.8949" gradientTransform="matrix(0.3466 0 0 -0.3466 141.5339 -125.5953)" gradientUnits="userSpaceOnUse">
<stop offset="0" style="stop-color:#F3F3F3"/>
<stop offset="0.0056" style="stop-color:#F3F3F3"/>
<stop offset="0.1878" style="stop-color:#EAEAEA"/>
<stop offset="0.4819" style="stop-color:#D2D2D2"/>
<stop offset="0.8493" style="stop-color:#ACACAC"/>
<stop offset="1" style="stop-color:#9A9A9A"/>
</radialGradient>
<path fill="url(#XMLID_6_)" d="M4.405,17.102c0,0-0.332-0.098-0.429-0.292c-0.097-0.195-0.135-0.488-0.135-0.488L3.892,2.408      c0,0,0-0.351,0.195-0.466c0.195-0.118,0.571-0.078,0.571-0.078l9.416,0.858c0,0,0.439,0.042,0.604,0.235      c0.17,0.196,0.174,0.505,0.174,0.505l-0.143,15.298c0,0,0.026,0.356-0.229,0.473c-0.252,0.115-0.604,0.088-0.604,0.088      L4.405,17.102z"/>
</g>
<g>
<polygon fill="#595959" points="5.827,11.979 4.94,11.813 4.94,12.297 5.824,12.469     "/>
<polygon fill="#595959" points="7.219,12.238 7.215,12.738 13.16,13.891 13.169,13.346     "/>
<polygon fill="#595959" points="5.808,14.279 4.985,14.104 4.985,14.654 5.805,14.835     "/>
<polygon fill="#595959" points="7.199,14.574 7.195,15.144 13.16,16.46 13.169,15.848     "/>
</g>
</g>
<g>
<linearGradient id="XMLID_7_" gradientUnits="userSpaceOnUse" x1="-28.0317" y1="57.3115" x2="-22.5111" y2="62.2823" gradientTransform="matrix(1.1364 0 0 -1.1364 39.6908 76.7883)">
<stop offset="0" style="stop-color:#68D70B"/>
<stop offset="1" style="stop-color:#2B7D00"/>
</linearGradient>
<path fill="url(#XMLID_7_)" d="M12.762,4.87c3.252,1.848,1.006,4.406-2.225,5.592l0.065,1.06l-3.935-1.164l3.692-2.349     l0.054,1.029C12.882,8.075,14.248,6.424,12.762,4.87z"/>
<linearGradient id="XMLID_8_" gradientUnits="userSpaceOnUse" x1="-598.2876" y1="856.3398" x2="-600.27" y2="850.5827" gradientTransform="matrix(-1.1364 0 0 1.1364 -673.3051 -963.2581)">
<stop offset="0" style="stop-color:#3CB4FF"/>
<stop offset="0.2589" style="stop-color:#3AB1FC"/>
<stop offset="0.4438" style="stop-color:#35A9F3"/>
<stop offset="0.6057" style="stop-color:#2C9CE3"/>
<stop offset="0.7543" style="stop-color:#2088CD"/>
<stop offset="0.8926" style="stop-color:#106FB1"/>
<stop offset="1" style="stop-color:#005795"/>
</linearGradient>
<path fill="url(#XMLID_8_)" d="M5.81,9.621C2.672,7.84,4.84,5.371,7.956,4.228L7.895,3.205l3.797,1.124L8.129,6.595L8.077,5.601     C5.694,6.531,4.377,8.124,5.81,9.621z"/>
</g>
</g>
<rect fill="none" width="21" height="21"/>
</g>
</svg>
