<?xml version="1.0" encoding="UTF-8"?>
<!DOCTYPE svg PUBLIC "-//W3C//DTD SVG 1.1 Tiny//EN" "http://www.w3.org/Graphics/SVG/1.1/DTD/svg11-tiny.dtd">
<svg baseProfile="tiny" version="1.0" xmlns="http://www.w3.org/2000/svg" xmlns:xlink="http://www.w3.org/1999/xlink" width="100%" height="100%" viewBox="0 0 57 49.149">
<g>
<rect fill="none" width="57" height="49.149"/>
<g>
<g>
<g>
<path fill="#FFFFFF" d="M14.651,3.971c0,0,3.824,0,6.286,0.197c2.465,0.203,7.881,0.183,8.849,2.417      c1.156,2.666,1.059,10.963,0.753,16.995c-0.301,6.036,0,13.479-1.458,15.587c-1.457,2.114-4.27,1.309-9.101,0.102      c-4.83-1.207-6.788-1.459-7.593-3.32c-0.801-1.857-1.659-10.354-1.708-15.333c-0.049-4.98-0.1-14.284,1.258-15.488      C13.292,3.917,13.947,3.971,14.651,3.971z"/>
</g>
<g>
<g>
<linearGradient id="XMLID_6_" gradientUnits="userSpaceOnUse" x1="-357.2109" y1="311.2661" x2="-351.6226" y2="290.8394" gradientTransform="matrix(1 0 0 -1 379.667 315.0029)">
<stop offset="0" style="stop-color:#222221"/>
<stop offset="0.1461" style="stop-color:#BEBEBF"/>
<stop offset="0.1685" style="stop-color:#FFFFFF"/>
<stop offset="0.3202" style="stop-color:#FFFFFF"/>
<stop offset="0.5169" style="stop-color:#E8E8E8"/>
<stop offset="0.5615" style="stop-color:#D6D6D6"/>
<stop offset="0.775" style="stop-color:#848484"/>
<stop offset="0.9262" style="stop-color:#515151"/>
<stop offset="1" style="stop-color:#3D3D3D"/>
</linearGradient>
<path fill="url(#XMLID_6_)" d="M13.96,4.002c-0.048,0.008-0.101,0.017-0.149,0.031 M32.961,12.668       c-0.1-2.007-0.353-4.826-1.457-6.94c-1.105-2.109-6.79-1.908-8.851-2.012c-2.061-0.1-5.784-0.251-6.938-0.199       c-0.324,0.014-0.982,0.211-1.758,0.486c0.247-0.036,0.474-0.032,0.7-0.032c0,0,3.823,0,6.288,0.197       c2.464,0.203,7.879,0.183,8.845,2.417c1.161,2.666,1.061,10.963,0.76,16.995c-0.302,6.036,0,13.479-1.46,15.587       c-0.256,0.372-0.554,0.646-0.897,0.851c1.661-0.915,2.863-1.626,3.056-1.852c0.706-0.809,1.407-3.799,1.459-6.386       C32.762,29.263,33.185,17.135,32.961,12.668z"/>
</g>
</g>
<g>
<path fill="#183268" d="M28.396,7.211c-0.927-1.557-5.94-1.567-8.049-1.714c-2.096-0.144-5.551-0.313-5.994-0.313      c-0.372,0-0.971,0.217-1.141,0.283c-0.005,0-0.005,0-0.005,0c0.385-0.083,0.786-0.055,1.373-0.018c0,0,4.438,0.2,7.204,0.472      c2.595,0.255,5.37,0.296,6.13,1.573c0.818,1.375,0.703,2.112,0.703,3.635c0,1.515,0,9.866,0.054,12.903      c0.056,3.041-0.272,12.814-0.538,13.469c-0.199,0.467-0.82,1.002-1.573,1.313c0,0,0,0,0.003,0l0.009,0.02      c0,0,0.986-0.188,1.443-0.501c0.457-0.317,0.715-0.698,0.948-1.862c0.073-0.357,0.228-8.082,0.276-12.511      c0.044-4.427-0.011-12.02-0.011-13.43C29.224,9.144,29.166,8.483,28.396,7.211z"/>
</g>
<g>
<radialGradient id="XMLID_7_" cx="-367.2915" cy="307.1909" r="33.1479" gradientTransform="matrix(1 0 0 -1 379.667 315.0029)" gradientUnits="userSpaceOnUse">
<stop offset="0" style="stop-color:#3CB4FF"/>
<stop offset="0.1461" style="stop-color:#3CB4FF"/>
<stop offset="0.7697" style="stop-color:#004A91"/>
<stop offset="1" style="stop-color:#002B5D"/>
</radialGradient>
<path fill="url(#XMLID_7_)" d="M14.581,5.451c0,0,4.453,0.207,7.225,0.419c2.65,0.207,5.238,0.051,6.109,1.623      c0.869,1.574,0.703,2.117,0.703,3.635c0,1.517,0,9.866,0.054,12.906c0.056,3.042-0.272,12.813-0.538,13.468      c-0.274,0.649-1.371,1.442-2.509,1.552c-1.138,0.109-3.818-0.453-6.529-1.215c-2.708-0.76-4.994-1.113-5.934-2.309      c-1.008-1.283-1.687-11.696-1.687-14.841c0-3.143-0.271-11.951,0-13.039c0.272-1.085,0.417-1.542,1.167-1.973      C13.235,5.336,13.713,5.397,14.581,5.451z"/>
</g>
<g>
<radialGradient id="XMLID_8_" cx="-366.1353" cy="306.8081" r="24.3761" gradientTransform="matrix(1 0 0 -1 379.667 315.0029)" gradientUnits="userSpaceOnUse">
<stop offset="0" style="stop-color:#C5FDFD"/>
<stop offset="0.0337" style="stop-color:#C5FDFD"/>
<stop offset="1" style="stop-color:#65C7FD"/>
</radialGradient>
<polygon fill="url(#XMLID_8_)" points="13.245,8.114 26.701,9.329 26.701,28.921 13.275,26.208     "/>
</g>
<path fill="#183268" d="M16.397,31.634c-0.107-0.519-0.418-1.059-0.926-1.635c-0.404-0.46-1.689-1.749-2.096-1.832     c-0.193-0.037-0.616,0.049-0.616,0.049s0.008,0.013,0.009,0.016c0.045-0.007,0.091-0.016,0.144-0.012     c0.55,0.066,1.906,1.393,2.263,1.846c0.354,0.45,0.677,0.695,0.838,1.22c0.171,0.56,0.278,0.772,0.156,1.304     c-0.045,0.188-0.106,0.283-0.183,0.346c0.255-0.049,0.332-0.153,0.401-0.288C16.457,32.5,16.468,31.962,16.397,31.634z      M12.768,28.229L12.768,28.229L12.768,28.229L12.768,28.229z"/>
<g>
<path fill="#8799C1" d="M15.593,33.001c0,0-1.067-0.289-1.874-0.646c-0.807-0.352-1.066-0.42-1.325-0.869      c-0.255-0.453-0.291-1.164-0.226-1.873c0.063-0.712,0.192-1.459,0.742-1.393c0.548,0.065,1.907,1.389,2.261,1.842      c0.357,0.454,0.677,0.695,0.841,1.224c0.17,0.56,0.275,0.772,0.156,1.303C16.072,33.008,15.901,33.018,15.593,33.001z"/>
</g>
<path fill="#183268" d="M20.261,36.253v0.01c0,0,0.016-0.012,0.02-0.012c0.086-0.021,0.173-0.031,0.253-0.061     c-0.087,0.031-0.182,0.044-0.276,0.063C20.257,36.253,20.257,36.253,20.261,36.253z M22.24,32.484     c-0.559-2.124-2.354-2.697-2.647-2.726c-0.291-0.028-0.995,0.119-0.995,0.119l0.012,0.046c1.232-0.2,2.588,0.738,3.166,2.287     c0.514,1.375,0.24,2.791-0.578,3.555c0.275-0.158,0.535-0.325,0.67-0.449C22.229,34.984,22.626,33.945,22.24,32.484z"/>
<g>
<circle fill="#8799C1" cx="19.382" cy="33.103" r="2.555"/>
</g>
</g>
<g>
<linearGradient id="XMLID_9_" gradientUnits="userSpaceOnUse" x1="10.4346" y1="74.394" x2="-3.7653" y2="65.0754" gradientTransform="matrix(1.1364 0 0 -1.1364 37.1615 107.208)">
<stop offset="0" style="stop-color:#36FF4E"/>
<stop offset="0.1352" style="stop-color:#35FC4E"/>
<stop offset="0.2426" style="stop-color:#32F24D"/>
<stop offset="0.3405" style="stop-color:#2DE14C"/>
<stop offset="0.4327" style="stop-color:#25C94B"/>
<stop offset="0.521" style="stop-color:#1CAB49"/>
<stop offset="0.6063" style="stop-color:#108547"/>
<stop offset="0.6877" style="stop-color:#035A45"/>
<stop offset="0.7042" style="stop-color:#005044"/>
<stop offset="0.7352" style="stop-color:#004F3E"/>
<stop offset="0.777" style="stop-color:#004B2D"/>
<stop offset="0.7859" style="stop-color:#004A28"/>
<stop offset="0.8535" style="stop-color:#004A26"/>
<stop offset="1" style="stop-color:#004200"/>
</linearGradient>
<path fill="url(#XMLID_9_)" d="M45.639,19.939c0,0-11.557,13.287-11.57,13.363c0.209,1.613,0.352,2.463,0.438,2.701     C34.681,35.958,49.336,31.967,45.639,19.939z"/>
<polygon fill="#005447" points="34.556,35.967 34.069,33.302 34.088,36.15 34.534,39.104    "/>
<polygon fill="#005447" points="34.274,36.519 34.524,39.175 22.125,35.274 21.856,32.846    "/>
<linearGradient id="XMLID_10_" gradientUnits="userSpaceOnUse" x1="-10.2061" y1="61.7827" x2="7.21" y2="77.4642" gradientTransform="matrix(1.1364 0 0 -1.1364 37.1615 107.208)">
<stop offset="0" style="stop-color:#68D70B"/>
<stop offset="1" style="stop-color:#2B7D00"/>
</linearGradient>
<path fill="url(#XMLID_10_)" d="M41.1,15.587c10.262,5.827,3.173,13.897-7.018,17.639l0.205,3.344l-12.417-3.676l11.648-7.408     l0.171,3.246C41.48,25.695,45.792,20.487,41.1,15.587z"/>
</g>
</g>
</g>
</svg>
