<?xml version="1.0" encoding="UTF-8"?>
<!DOCTYPE svg PUBLIC "-//W3C//DTD SVG 1.1 Tiny//EN" "http://www.w3.org/Graphics/SVG/1.1/DTD/svg11-tiny.dtd">
<svg xmlns="http://www.w3.org/2000/svg" xmlns:xlink="http://www.w3.org/1999/xlink" baseProfile="tiny" height="72" version="1.1" viewBox="0 0 84 72" width="84">
<rect fill="none" height="72" width="84"/>
<path d="M21.352,50.69c-1.078-14.984-1.703-29.984-1.109-40.953c0.112-2.064,1.538-3.394,3.085-3.478  c2.089-0.352,24.657,0.893,24.657,0.893l10.534,13.654l-0.302,39.861c-2.881,0.883-2.363,1.607-6.084,0.789  c-7.25-1.594-14.594-3.328-28.516-6.922C21.647,54.025,21.446,52.001,21.352,50.69z" fill="#FFFFFF"/>
<path d="M47.539,10.646c-0.353-0.398-18.582-1.806-23.296-1.782c-0.306,0-1.197,0.399-1.197,0.399l30.181,49.99  c1.453-0.625,1.895-1.19,2-2.344c0.118-1.287,0.479-35.658,0.479-35.986C55.706,20.618,48.197,11.398,47.539,10.646z" fill="#573A1C"/>
<radialGradient cx="22.8672" cy="9.4873" gradientUnits="userSpaceOnUse" id="XMLID_6_" r="58.2734">
<stop offset="0.2022" stop-color="#FEF700"/>
<stop offset="0.334" stop-color="#FDF300"/>
<stop offset="0.4772" stop-color="#F8E600"/>
<stop offset="0.6258" stop-color="#F1D000"/>
<stop offset="0.7781" stop-color="#E7B100"/>
<stop offset="0.9318" stop-color="#DA8B00"/>
<stop offset="1" stop-color="#D37700"/>
</radialGradient>
<path d="M46.907,11.022l8.14,10.276c0.05,0.563-0.238,33.931-0.537,36.037  c-0.299,2.104-1.877,2.246-2.955,2.012c-7.25-1.578-16.375-3.641-26.328-6.156c-1.708-0.45-2.687-1.69-2.797-3.375  c-0.641-10.875-1-20.625-0.797-38.109c0.047-1.877,0.827-2.606,2.633-2.584C29.943,9.356,42.52,10.412,46.907,11.022z" fill="url(#XMLID_6_)"/>
<path d="M44.831,18.426c0.212,0.658-0.402,2.708,10.221,3.882l-0.005-1.01L44.831,18.426z"/>
<linearGradient gradientUnits="userSpaceOnUse" id="XMLID_7_" x1="45" x2="55" y1="16" y2="16">
<stop offset="0" stop-color="#B88B5C"/>
<stop offset="1" stop-color="#573A1C"/>
</linearGradient>
<path d="M55.133,21.298l-8.188-10.276c-1.732,1.361-2.505,6.499-2.081,7.507  C45.711,20.455,53.585,21.204,55.133,21.298z" fill="url(#XMLID_7_)"/>
<linearGradient gradientUnits="userSpaceOnUse" id="XMLID_8_" x1="40.4" x2="52.1" y1="2.7" y2="58.4">
<stop offset="0" stop-color="#222221"/>
<stop offset="0.0929" stop-color="#BFBFC0"/>
<stop offset="0.1264" stop-color="#FFFFFF"/>
<stop offset="0.197" stop-color="#FFFFFF"/>
<stop offset="0.3034" stop-color="#E9E9E9"/>
<stop offset="0.4781" stop-color="#AFAFAF"/>
<stop offset="0.6495" stop-color="#7E7E7E"/>
<stop offset="0.7991" stop-color="#5B5B5B"/>
<stop offset="0.921" stop-color="#454545"/>
<stop offset="1" stop-color="#3D3D3D"/>
</linearGradient>
<path d="M23.421,6.236c4.74,0.047,22.922,1.079,24.306,1.877c2.159,1.243,9.806,11.074,10.228,13.255  c0.402,2.065-0.165,32.728-0.586,38.173c-0.027,0.348-0.127,1.541-1.358,1.97c0,0,1.899-0.68,2.906-1.125  c0.987-0.423,1.646-0.729,1.971-1.784c0.949-3.834,1.224-35.398,0.963-38.431c-0.188-2.182-8.213-11.801-9.712-12.787  c-1.831-1.218-18.51-1.829-23.907-2.087C26.963,5.274,24.688,5.861,23.421,6.236z" fill="url(#XMLID_8_)"/>
<path d="M41.137,43.794l0.787,0.484c0,0-0.143-15.878-0.143-16.041l2.76,3.654l0.626-0.164  c0,0,0.048-3.967-0.073-4.579c-0.134-0.676-1.839-3.943-2.712-5.505c-0.874-1.562-2.204-4.182-2.526-4.182  c-0.279,0-0.948,0.08-1.123,0.099L41.137,43.794z" fill="#741103"/>
<linearGradient gradientUnits="userSpaceOnUse" id="XMLID_9_" x1="35.6177" x2="43.6063" y1="30.9414" y2="32.6394">
<stop offset="0" stop-color="#FF7800"/>
<stop offset="0.4" stop-color="#FF3300"/>
<stop offset="1" stop-color="#8B1700"/>
</linearGradient>
<path d="M44.541,31.891l-3.492-4.32l0.185,18.61l-2.94-3.445l0.046-24.447c0,0,0-0.735,0.367-0.735  c0.617,0,2.756,3.952,3.583,5.515c0.827,1.562,1.93,3.401,2.161,4.502C44.617,28.383,44.541,31.891,44.541,31.891z" fill="url(#XMLID_9_)"/>
<radialGradient cx="33.6167" cy="43.0811" gradientUnits="userSpaceOnUse" id="XMLID_10_" r="7.3882">
<stop offset="0" stop-color="#FF9900"/>
<stop offset="0.1598" stop-color="#FF7800"/>
<stop offset="0.4433" stop-color="#FF3300"/>
<stop offset="0.8" stop-color="#C50F00"/>
<stop offset="1" stop-color="#721700"/>
</radialGradient>
<path d="M41.911,43.67c0.485,2.423-1.918,4.944-5.37,5.635c-3.452,0.689-6.641-0.716-7.124-3.139  c-0.485-2.422,1.92-4.945,5.37-5.634C38.237,39.843,41.426,41.249,41.911,43.67z" fill="url(#XMLID_10_)"/>
</svg>
