<?xml version="1.0" encoding="UTF-8"?>
<!DOCTYPE svg PUBLIC "-//W3C//DTD SVG 1.1 Tiny//EN" "http://www.w3.org/Graphics/SVG/1.1/DTD/svg11-tiny.dtd">
<svg baseProfile="tiny" version="1.0" xmlns="http://www.w3.org/2000/svg" xmlns:xlink="http://www.w3.org/1999/xlink" width="100%" height="100%" viewBox="0 0 16 16">
<g>
<rect fill="none" width="16" height="16"/>
<g>
<g>
<path stroke="#000000" stroke-width="0.25" d="M8.956,1.967c-0.29-0.039-3.052-0.43-3.585-0.5c0,0-0.152-0.024-0.345-0.01     c-0.193,0.015-2.67,0.534-2.889,0.566C1.864,2.058,1.7,2.202,1.654,2.271C1.607,2.328,1.568,2.42,1.568,2.586     C1.565,3.102,1.572,9,1.568,9.865c-0.002,0.486,0.27,0.472,0.27,0.472s3.129,1.052,3.818,1.052c0.687,0,3.308-1.85,3.308-1.85     c0.288-0.143,0.322-0.66,0.322-0.66l0.038-6.393C9.325,2.486,9.311,2.013,8.956,1.967z M1.808,2.195c-0.001,0-0.003,0-0.005,0     C1.804,2.195,1.807,2.195,1.808,2.195z M1.763,2.202c0.002,0,0.003-0.003,0.007-0.003C1.767,2.199,1.765,2.202,1.763,2.202z      M1.716,2.219c-0.002,0-0.004,0.004-0.007,0.005C1.712,2.223,1.714,2.219,1.716,2.219z"/>
<polygon fill="#FFFFFF" stroke="#FFFFFF" stroke-width="0.5" stroke-linecap="round" stroke-linejoin="round" points="     2.612,3.976 4.969,4.376 4.969,5.146 2.611,4.693    "/>
</g>
<g>
<g>
<path fill="#FFFFFF" stroke="#000000" stroke-width="0.5" d="M13.987,4.342c-0.29-0.036-3.052-0.427-3.585-0.499      c0,0-0.152-0.023-0.346-0.008C9.864,3.848,7.386,4.37,7.168,4.4C6.896,4.435,6.599,4.797,6.599,4.964      c-0.002,0.515,0.005,6.415,0,7.276c0,0.489,0.272,0.474,0.272,0.474s3.128,1.053,3.816,1.053c0.688,0,3.31-1.853,3.31-1.853      c0.287-0.144,0.321-0.657,0.321-0.657l0.039-6.395C14.357,4.862,14.342,4.389,13.987,4.342z M6.838,4.569c0,0-0.002,0-0.004,0      C6.835,4.569,6.837,4.569,6.838,4.569z M6.793,4.577c0.002,0,0.004,0,0.008-0.004C6.799,4.577,6.796,4.577,6.793,4.577z       M6.748,4.596c-0.002,0-0.005,0.003-0.008,0.003C6.742,4.599,6.745,4.596,6.748,4.596z"/>
<polygon stroke="#000000" stroke-width="0.5" stroke-linecap="round" stroke-linejoin="round" points="7.644,6.354 10,6.75       10,7.523 7.643,7.068     "/>
<path fill="#FFFFFF" stroke="#000000" stroke-width="0.25" d="M14.294,5.729"/>
<polyline fill="#FFFFFF" stroke="#000000" stroke-width="0.5" points="11.166,13.481 11.186,5.506 11.186,5.663 14.242,4.862           "/>
<path fill="none" stroke="#000000" stroke-width="0.5" d="M11.186,6.019c0.063-0.624-0.298-0.645-0.298-0.645      S7.625,4.952,6.834,4.899c0,0-0.27-0.033-0.27,0.382"/>
</g>
<polygon points="11.107,13.876 6.734,12.66 6.734,9.539 11.22,10.589    "/>
<polygon points="14.242,11.593 11.199,13.672 11.22,10.561 14.188,8.794    "/>
</g>
<g>
<path stroke="#FFFFFF" stroke-width="0.5" d="M2.888,14.174c-3.552-2.016-1.097-4.809,2.43-6.104L5.247,6.912l4.297,1.272     l-4.031,2.564L5.452,9.624C2.758,10.676,1.266,12.48,2.888,14.174z"/>
</g>
</g>
</g>
</svg>
