<?xml version="1.0" encoding="UTF-8"?>
<!DOCTYPE svg PUBLIC "-//W3C//DTD SVG 1.1 Tiny//EN" "http://www.w3.org/Graphics/SVG/1.1/DTD/svg11-tiny.dtd">
<svg baseProfile="tiny" version="1.0" xmlns="http://www.w3.org/2000/svg" xmlns:xlink="http://www.w3.org/1999/xlink" width="100%" height="100%" viewBox="0 0 57 49.15">
<g>
<rect fill="none" width="57" height="49.15"/>
<g>
<g>
<g>
<g>
<linearGradient id="XMLID_7_" gradientUnits="userSpaceOnUse" x1="19.8398" y1="5.0996" x2="32.4802" y2="38.0288">
<stop offset="0" style="stop-color:#E9E9E9"/>
<stop offset="0.0056" style="stop-color:#E9E9E9"/>
<stop offset="0.1191" style="stop-color:#E2E2E2"/>
<stop offset="0.2885" style="stop-color:#CDCDCD"/>
<stop offset="0.4927" style="stop-color:#ACACAC"/>
<stop offset="0.724" style="stop-color:#7E7E7E"/>
<stop offset="0.9752" style="stop-color:#434343"/>
<stop offset="1" style="stop-color:#3D3D3D"/>
</linearGradient>
<path fill="url(#XMLID_7_)" d="M32.766,10.875L20.448,8.928c0,0-0.539-0.08-0.543,0.904c-0.005,1.52,0.005,22.824,0,23.663       c-0.002,0.801,0.393,0.906,0.393,0.906l12.413,3.481c0,0,0.42,0.141,0.422-0.763c0.006-1.225,0.145-23.08,0.15-25.07       C33.289,10.876,32.766,10.875,32.766,10.875z"/>
<polygon fill="#3D3D3D" points="20.753,12.527 32.2,14.604 32.2,16.579 20.746,14.537      "/>
<linearGradient id="XMLID_8_" gradientUnits="userSpaceOnUse" x1="31.2534" y1="-1.1582" x2="40.3683" y2="38.3228">
<stop offset="0" style="stop-color:#000000"/>
<stop offset="0.0056" style="stop-color:#000000"/>
<stop offset="0.1404" style="stop-color:#3D3D3D"/>
<stop offset="0.2303" style="stop-color:#FFFFFF"/>
<stop offset="0.2865" style="stop-color:#FFFFFF"/>
<stop offset="0.5112" style="stop-color:#E9E9E9"/>
<stop offset="0.567" style="stop-color:#E2E2E2"/>
<stop offset="0.6503" style="stop-color:#CDCDCD"/>
<stop offset="0.7506" style="stop-color:#ACACAC"/>
<stop offset="0.8643" style="stop-color:#7E7E7E"/>
<stop offset="0.9878" style="stop-color:#434343"/>
<stop offset="1" style="stop-color:#3D3D3D"/>
</linearGradient>
<path fill="url(#XMLID_8_)" d="M45.121,5.334c-1.007-0.136-10.598-0.98-12.45-1.24c0,0-0.528-0.091-1.198-0.036       c-0.67,0.048-9.275,1.374-10.032,1.491c-0.951,0.13-1.524,0.665-1.68,0.921c0.255-0.327,0.584-0.29,0.584-0.29       c2.583,0.194,13.259,1.799,13.259,1.799s1.617-0.178,1.689,2.196v0.017c0,0,0,25.17,0,27.588c0,0.862-0.211,1.428-0.479,1.814       c2.553-1.488,10.338-6.122,10.338-6.122c0.997-0.524,1.119-2.44,1.119-2.44l0.133-23.767       C46.404,7.265,46.353,5.504,45.121,5.334z"/>
<path fill="#FFFFFF" d="M33.603,7.979c0,0-10.676-1.604-13.259-1.799c0,0-0.878-0.113-0.878,1.459       c-0.009,1.92,0.012,23.852,0,27.057c-0.008,1.817,0.938,1.754,0.938,1.754l13.256,3.91c0,0,1.633-0.163,1.633-2.58       c0-2.418,0-27.588,0-27.588v-0.017C35.22,7.801,33.603,7.979,33.603,7.979z M33.132,37.12       c-0.002,0.903-0.422,0.763-0.422,0.763l-12.413-3.481c0,0-0.396-0.105-0.393-0.906c0.005-0.839-0.005-22.144,0-23.663       c0.005-0.984,0.543-0.904,0.543-0.904l12.318,1.947c0,0,0.522,0.001,0.517,1.175C33.277,14.04,33.138,35.896,33.132,37.12z"/>
<path fill="#3D3D3D" d="M33.969,12.002c0-1.573-0.888-1.788-0.888-1.788L21.293,8.441c0,0-0.442,0.061-0.553,0.123       c-0.273,0.15-0.748,0.44-0.748,0.647c0,0.014,0.01,0.035,0.011,0.044c0.155-0.363,0.445-0.328,0.445-0.328l12.318,1.947       c0,0,0.522,0.001,0.517,1.175c-0.006,1.99-0.145,23.846-0.15,25.07c0,0.11-0.006,0.21-0.016,0.285       c-0.007,0.047-0.018,0.083-0.029,0.126c-0.004,0.02-0.012,0.051-0.02,0.076c-0.014,0.048-0.033,0.081-0.051,0.116       c-0.005,0.006-0.005,0.011-0.012,0.021c-0.023,0.035-0.048,0.062-0.071,0.082l0,0c0.155-0.063,1.063-0.443,1.063-0.831       C33.998,36.576,33.969,13.388,33.969,12.002z"/>
</g>
<polygon fill="#3D3D3D" points="20.686,16.096 32.132,18.171 32.132,20.146 20.679,18.104     "/>
</g>
<g>
<linearGradient id="XMLID_9_" gradientUnits="userSpaceOnUse" x1="-32.8345" y1="58.9082" x2="-15.1077" y2="77.2649" gradientTransform="matrix(1.1364 0 0 -1.1364 37.1877 105.3043)">
<stop offset="0" style="stop-color:#E9E9E9"/>
<stop offset="0.0056" style="stop-color:#E9E9E9"/>
<stop offset="0.1765" style="stop-color:#B6B6B6"/>
<stop offset="0.3865" style="stop-color:#7E7E7E"/>
<stop offset="0.5814" style="stop-color:#515151"/>
<stop offset="0.7548" style="stop-color:#313131"/>
<stop offset="0.9002" style="stop-color:#1E1E1E"/>
<stop offset="1" style="stop-color:#171717"/>
</linearGradient>
<path fill="url(#XMLID_9_)" d="M11.981,30.168c-2.578-6.449,4.578-9.505,8.333-10.967c-0.473-1.145-0.312-1.293-0.784-2.439      C11.149,20.03,8.05,24.799,11.981,30.168"/>
<polygon fill="#3D3D3D" points="30.99,12.861 30.67,14.995 20.003,22.43 19.67,20.017     "/>
<path fill="#3D3D3D" d="M12.362,29.785c-1.564-0.726-4.986-6.736-4.986-6.736c-0.181,3.104,2.297,7.261,5.191,8.689      L12.362,29.785z"/>
<linearGradient id="XMLID_10_" gradientUnits="userSpaceOnUse" x1="-570.9175" y1="876.1758" x2="-577.2448" y2="857.8" gradientTransform="matrix(-1.1364 0 0 1.1364 -634.0999 -965.0787)">
<stop offset="0" style="stop-color:#E9E9E9"/>
<stop offset="0.0056" style="stop-color:#E9E9E9"/>
<stop offset="0.1328" style="stop-color:#E4E4E4"/>
<stop offset="0.2878" style="stop-color:#D5D5D5"/>
<stop offset="0.4573" style="stop-color:#BCBCBC"/>
<stop offset="0.6372" style="stop-color:#9A9A9A"/>
<stop offset="0.8231" style="stop-color:#6E6E6E"/>
<stop offset="1" style="stop-color:#3D3D3D"/>
</linearGradient>
<path fill="url(#XMLID_10_)" d="M12.208,29.756C2.19,24.069,9.113,16.191,19.06,12.537l-0.2-3.265l12.122,3.589L19.61,20.094      l-0.169-3.173C11.84,19.889,7.632,24.977,12.208,29.756z"/>
</g>
</g>
<g>
<polygon fill="#102F02" points="25.143,28.639 25.404,28.522 26.863,28.747 26.863,30.363 26.696,30.455 25.454,29.341    "/>
<linearGradient id="XMLID_11_" gradientUnits="userSpaceOnUse" x1="25.2202" y1="16.2852" x2="26.6843" y2="14.259" gradientTransform="matrix(1 0 0 -1 0.1377 45.0566)">
<stop offset="0" style="stop-color:#E9E9E9"/>
<stop offset="0.0056" style="stop-color:#E9E9E9"/>
<stop offset="0.0522" style="stop-color:#D3D3D3"/>
<stop offset="0.1506" style="stop-color:#ACACAC"/>
<stop offset="0.2558" style="stop-color:#898989"/>
<stop offset="0.3671" style="stop-color:#6E6E6E"/>
<stop offset="0.4867" style="stop-color:#585858"/>
<stop offset="0.6186" style="stop-color:#494949"/>
<stop offset="0.7723" style="stop-color:#404040"/>
<stop offset="1" style="stop-color:#3D3D3D"/>
</linearGradient>
<polygon fill="url(#XMLID_11_)" points="26.696,30.455 25.143,30.208 25.143,28.639 26.696,28.887    "/>
</g>
<g>
<polygon fill="#102F02" points="25.23,25.823 25.491,25.707 26.951,25.933 26.951,27.547 26.784,27.64 25.541,26.524    "/>
<linearGradient id="XMLID_12_" gradientUnits="userSpaceOnUse" x1="25.3081" y1="19.1016" x2="26.7721" y2="17.0756" gradientTransform="matrix(1 0 0 -1 0.1377 45.0566)">
<stop offset="0" style="stop-color:#E9E9E9"/>
<stop offset="0.0056" style="stop-color:#E9E9E9"/>
<stop offset="0.6317" style="stop-color:#7A7A7A"/>
<stop offset="1" style="stop-color:#3D3D3D"/>
</linearGradient>
<polygon fill="url(#XMLID_12_)" points="26.784,27.64 25.23,27.391 25.23,25.823 26.784,26.071    "/>
</g>
</g>
</g>
</svg>
