<?xml version="1.0" encoding="UTF-8"?>
<!DOCTYPE svg PUBLIC "-//W3C//DTD SVG 1.1 Tiny//EN" "http://www.w3.org/Graphics/SVG/1.1/DTD/svg11-tiny.dtd">
<svg baseProfile="tiny" version="1.0" xmlns="http://www.w3.org/2000/svg" xmlns:xlink="http://www.w3.org/1999/xlink" width="100%" height="100%" viewBox="0 0 57 49">
<g>
<rect fill="none" width="57" height="49"/>
<g>
<g>
<linearGradient id="XMLID_8_" gradientUnits="userSpaceOnUse" x1="-29.9404" y1="67.2036" x2="-13.5654" y2="84.1604" gradientTransform="matrix(1.1364 0 0 -1.1364 37.2653 105.8394)">
<stop offset="0" style="stop-color:#B2DCFF"/>
<stop offset="0.1338" style="stop-color:#AFDAFD"/>
<stop offset="0.2458" style="stop-color:#A4D4F9"/>
<stop offset="0.35" style="stop-color:#93C9F3"/>
<stop offset="0.4494" style="stop-color:#7CBAEB"/>
<stop offset="0.4857" style="stop-color:#62A5D9"/>
<stop offset="0.5369" style="stop-color:#448DC4"/>
<stop offset="0.5936" style="stop-color:#2B79B3"/>
<stop offset="0.6569" style="stop-color:#186AA5"/>
<stop offset="0.7304" style="stop-color:#0A5F9C"/>
<stop offset="0.8234" style="stop-color:#025997"/>
<stop offset="1" style="stop-color:#005795"/>
</linearGradient>
<path fill="url(#XMLID_8_)" d="M14.354,21.833c-2.518-5.763,4.479-8.498,8.152-9.806c-0.46-1.02-0.304-1.158-0.767-2.179     C13.542,12.767,10.51,17.036,14.354,21.833"/>
<polygon fill="#005795" points="32.95,6.36 32.638,8.265 22.202,14.914 21.878,12.757    "/>
<path fill="#005795" d="M14.728,21.493c-1.531-0.65-4.878-6.024-4.878-6.024c-0.177,2.774,2.248,6.491,5.081,7.768L14.728,21.493     z"/>
<linearGradient id="XMLID_9_" gradientUnits="userSpaceOnUse" x1="-574.3096" y1="868.9937" x2="-580.1138" y2="852.1368" gradientTransform="matrix(-1.1364 0 0 1.1364 -635.3151 -965.1128)">
<stop offset="0" style="stop-color:#3CB4FF"/>
<stop offset="0.2589" style="stop-color:#3AB1FC"/>
<stop offset="0.4438" style="stop-color:#35A9F3"/>
<stop offset="0.6057" style="stop-color:#2C9CE3"/>
<stop offset="0.7543" style="stop-color:#2088CD"/>
<stop offset="0.8926" style="stop-color:#106FB1"/>
<stop offset="1" style="stop-color:#005795"/>
</linearGradient>
<path fill="url(#XMLID_9_)" d="M14.576,21.465C4.779,16.384,11.55,9.337,21.28,6.071l-0.195-2.917l11.858,3.208l-11.125,6.464     l-0.163-2.835C14.216,12.645,10.1,17.192,14.576,21.465z"/>
</g>
<g>
<linearGradient id="XMLID_10_" gradientUnits="userSpaceOnUse" x1="41.3232" y1="20.1992" x2="41.3232" y2="34.6598">
<stop offset="0" style="stop-color:#FAFAFA"/>
<stop offset="0.0056" style="stop-color:#FAFAFA"/>
<stop offset="0.1601" style="stop-color:#F6F6F6"/>
<stop offset="0.3124" style="stop-color:#EAEAEA"/>
<stop offset="0.4639" style="stop-color:#D6D7D7"/>
<stop offset="0.615" style="stop-color:#BBBBBB"/>
<stop offset="0.7657" style="stop-color:#979797"/>
<stop offset="0.9142" style="stop-color:#6D6D6D"/>
<stop offset="1" style="stop-color:#505151"/>
</linearGradient>
<path fill="url(#XMLID_10_)" d="M41.15,23.792c0,0-0.245-0.188-0.3-0.231c0,4.018,0,11.631,0,11.631     c0,0.963-0.809,1.509-1.307,1.591c0,0,2.592-0.7,2.967-1.011s0.591-0.771,0.591-1.258c0,0,0-6.548,0-10.564l-0.69,0.161     C41.964,24.183,41.508,24.068,41.15,23.792z"/>
<linearGradient id="XMLID_11_" gradientUnits="userSpaceOnUse" x1="28.6187" y1="8.8052" x2="45.5698" y2="22.4999">
<stop offset="0" style="stop-color:#FAFAFA"/>
<stop offset="0.0056" style="stop-color:#FAFAFA"/>
<stop offset="0.1353" style="stop-color:#F3F3F3"/>
<stop offset="0.3231" style="stop-color:#E0E0E0"/>
<stop offset="0.5464" style="stop-color:#C0C1C1"/>
<stop offset="0.7948" style="stop-color:#959696"/>
<stop offset="0.9101" style="stop-color:#7E7F7F"/>
<stop offset="0.9247" style="stop-color:#6E6F6F"/>
<stop offset="0.9465" style="stop-color:#5D5E5E"/>
<stop offset="0.9703" style="stop-color:#535454"/>
<stop offset="1" style="stop-color:#505151"/>
</linearGradient>
<path fill="url(#XMLID_11_)" d="M46.103,19.31L31.948,7.594c-0.689-0.544-1.511-0.37-1.838-0.28l-1.784,0.51     c0.558-0.238,1.208-0.152,1.683,0.241l14.154,11.712c0.643,0.534,0.781,1.468,0.316,2.163l-0.977,1.464     c-0.203,0.307-0.506,0.526-0.852,0.639c0,0,1.314-0.249,1.7-0.402c0.419-0.167,0.841-0.33,1.092-0.705l0.977-1.464     C46.884,20.776,46.746,19.842,46.103,19.31z"/>
<path fill="#FFFFFF" d="M28.175,7.894l-13.178,7.323c-0.687,0.381-1.005,1.198-0.756,1.942l0.488,1.465     c0.151,0.451,0.49,0.814,0.932,0.994c0.44,0.181,0.937,0.16,1.36-0.058c0,0,0.061-0.031,0.065-0.034c0,3.547,0,11.76,0,11.76     c0,0.782,0.556,1.456,1.327,1.603l20.499,3.904c0.477,0.092,0.971-0.034,1.345-0.347c0.375-0.31,0.593-0.77,0.593-1.255     c0,0,0-7.613,0-11.631c0.055,0.043,0.3,0.231,0.3,0.231c0.357,0.277,0.813,0.392,1.261,0.318     c0.446-0.073,0.842-0.329,1.092-0.706l0.977-1.464c0.465-0.694,0.326-1.628-0.316-2.163L30.009,8.065     C29.489,7.636,28.763,7.569,28.175,7.894z"/>
<path fill="#9D0A00" d="M28.968,9.321L15.79,16.643l0.488,1.464l2.441-1.25v14.428l19.546,4.449l0.953-0.544V20.242l1.977,2.802     l0.951-0.544l0.977-1.465L28.968,9.321z M31.897,32.75l-6.834-1.205V21.523l6.834,0.977V32.75z"/>
<linearGradient id="XMLID_12_" gradientUnits="userSpaceOnUse" x1="42.4961" y1="10.9146" x2="16.4225" y2="36.3367">
<stop offset="0" style="stop-color:#FF0000"/>
<stop offset="0.0056" style="stop-color:#FF0000"/>
<stop offset="0.3111" style="stop-color:#FC0000"/>
<stop offset="0.5001" style="stop-color:#F40000"/>
<stop offset="0.6575" style="stop-color:#E50000"/>
<stop offset="0.7974" style="stop-color:#D10000"/>
<stop offset="0.9246" style="stop-color:#B70000"/>
<stop offset="1" style="stop-color:#A30000"/>
</linearGradient>
<path fill="url(#XMLID_12_)" d="M28.016,9.865l-13.179,7.323l0.49,1.464l2.438-1.25V31.83l20.499,3.905V20.786l2.93,2.258     l0.977-1.465L28.016,9.865z M30.945,33.293l-6.834-1.206V22.067l6.834,0.977V33.293z"/>
</g>
<g>
<polygon fill="#005447" points="36.776,38.982 36.333,36.628 36.351,39.142 36.757,41.748    "/>
<g>
<linearGradient id="XMLID_13_" gradientUnits="userSpaceOnUse" x1="11.0664" y1="69.1978" x2="-1.6647" y2="60.843" gradientTransform="matrix(1.1364 0 0 -1.1364 37.2653 105.8394)">
<stop offset="0" style="stop-color:#36FF4E"/>
<stop offset="0.1352" style="stop-color:#35FC4E"/>
<stop offset="0.2426" style="stop-color:#32F24D"/>
<stop offset="0.3405" style="stop-color:#2DE14C"/>
<stop offset="0.4327" style="stop-color:#25C94B"/>
<stop offset="0.521" style="stop-color:#1CAB49"/>
<stop offset="0.6063" style="stop-color:#108547"/>
<stop offset="0.6877" style="stop-color:#035A45"/>
<stop offset="0.7042" style="stop-color:#005044"/>
<stop offset="0.7352" style="stop-color:#004F3E"/>
<stop offset="0.777" style="stop-color:#004B2D"/>
<stop offset="0.7859" style="stop-color:#004A28"/>
<stop offset="0.8535" style="stop-color:#004A26"/>
<stop offset="1" style="stop-color:#004200"/>
</linearGradient>
<path fill="url(#XMLID_13_)" d="M46.864,24.841c0,0-10.52,11.723-10.531,11.787c0.191,1.425,0.32,2.172,0.399,2.385      C36.892,38.974,50.229,35.454,46.864,24.841z"/>
<polygon fill="#005447" points="36.52,39.466 36.749,41.812 25.464,38.37 25.219,36.226     "/>
</g>
<linearGradient id="XMLID_14_" gradientUnits="userSpaceOnUse" x1="-7.6543" y1="57.9595" x2="8.0163" y2="72.0694" gradientTransform="matrix(1.1364 0 0 -1.1364 37.2653 105.8394)">
<stop offset="0" style="stop-color:#68D70B"/>
<stop offset="1" style="stop-color:#2B7D00"/>
</linearGradient>
<path fill="url(#XMLID_14_)" d="M44.404,23.62c0,0,0.378-0.13,0.593-0.276c0.215-0.147,0.441-0.414,0.441-0.414     c5.043,4.867-0.933,10.728-9.094,13.634l0.188,2.947l-11.3-3.241l10.601-6.535l0.156,2.864     C41.655,30.457,45.347,27.091,44.404,23.62z"/>
</g>
</g>
</g>
</svg>
