<?xml version="1.0" encoding="UTF-8"?>
<!DOCTYPE svg PUBLIC "-//W3C//DTD SVG 1.1 Tiny//EN" "http://www.w3.org/Graphics/SVG/1.1/DTD/svg11-tiny.dtd">
<svg baseProfile="tiny" version="1.0" xmlns="http://www.w3.org/2000/svg" xmlns:xlink="http://www.w3.org/1999/xlink" width="100%" height="100%" viewBox="0 0 60 60">
<g>
<rect fill="none" width="60" height="60"/>
<g>
<g>
<g>
<path fill="#FFFFFF" d="M16.511,8.839c0,0,4.073,0,6.696,0.212c2.626,0.216,8.396,0.193,9.427,2.575      c1.232,2.837,1.127,11.678,0.802,18.103c-0.32,6.433,0,14.36-1.553,16.608c-1.551,2.252-4.549,1.394-9.696,0.107      c-5.145-1.285-7.23-1.555-8.09-3.537c-0.853-1.98-1.767-11.032-1.818-16.335c-0.052-5.305-0.106-15.22,1.339-16.502      C15.063,8.784,15.76,8.839,16.511,8.839z"/>
</g>
<g>
<g>
<linearGradient id="XMLID_6_" gradientUnits="userSpaceOnUse" x1="-354.8413" y1="315.6221" x2="-348.8875" y2="293.8596" gradientTransform="matrix(1 0 0 -1 379.667 324.2129)">
<stop offset="0" style="stop-color:#222221"/>
<stop offset="0.1461" style="stop-color:#BEBEBF"/>
<stop offset="0.1685" style="stop-color:#FFFFFF"/>
<stop offset="0.3202" style="stop-color:#FFFFFF"/>
<stop offset="0.5169" style="stop-color:#E8E8E8"/>
<stop offset="0.5615" style="stop-color:#D6D6D6"/>
<stop offset="0.775" style="stop-color:#848484"/>
<stop offset="0.9262" style="stop-color:#515151"/>
<stop offset="1" style="stop-color:#3D3D3D"/>
</linearGradient>
<path fill="url(#XMLID_6_)" d="M15.774,8.873c-0.05,0.011-0.107,0.019-0.158,0.033 M36.018,18.105       c-0.108-2.138-0.376-5.143-1.553-7.395c-1.179-2.245-7.234-2.031-9.43-2.144c-2.195-0.105-6.162-0.267-7.392-0.212       c-0.345,0.016-1.046,0.226-1.874,0.518c0.264-0.037,0.505-0.034,0.746-0.034c0,0,4.073,0,6.699,0.212       c2.625,0.216,8.395,0.193,9.424,2.575c1.234,2.837,1.129,11.678,0.809,18.103c-0.322,6.433,0,14.36-1.556,16.608       c-0.272,0.396-0.591,0.688-0.955,0.905c1.769-0.976,3.05-1.732,3.256-1.973c0.751-0.86,1.499-4.048,1.554-6.803       C35.805,35.787,36.255,22.865,36.018,18.105z"/>
</g>
</g>
<g>
<path fill="#183268" d="M31.154,12.293c-0.988-1.659-6.329-1.669-8.575-1.828c-2.233-0.151-5.914-0.332-6.385-0.332      c-0.397,0-1.036,0.23-1.216,0.302c-0.005,0-0.005,0-0.005,0c0.41-0.091,0.837-0.061,1.462-0.02c0,0,4.729,0.212,7.675,0.502      c2.765,0.272,5.722,0.314,6.53,1.675c0.872,1.466,0.75,2.25,0.75,3.873c0,1.615,0,10.512,0.058,13.748      c0.06,3.238-0.29,13.652-0.574,14.349c-0.213,0.497-0.873,1.066-1.676,1.397c0,0,0,0,0.003,0l0.009,0.021      c0,0,1.05-0.201,1.537-0.533c0.487-0.338,0.762-0.745,1.01-1.983c0.078-0.381,0.243-8.61,0.295-13.33      c0.046-4.715-0.011-12.805-0.011-14.307C32.036,14.353,31.973,13.647,31.154,12.293z"/>
</g>
<g>
<radialGradient id="XMLID_7_" cx="-365.582" cy="311.2793" r="35.3161" gradientTransform="matrix(1 0 0 -1 379.667 324.2129)" gradientUnits="userSpaceOnUse">
<stop offset="0" style="stop-color:#3CB4FF"/>
<stop offset="0.1461" style="stop-color:#3CB4FF"/>
<stop offset="0.7697" style="stop-color:#004A91"/>
<stop offset="1" style="stop-color:#002B5D"/>
</radialGradient>
<path fill="url(#XMLID_7_)" d="M16.435,10.419c0,0,4.745,0.218,7.697,0.446c2.824,0.219,5.581,0.052,6.508,1.727      c0.925,1.677,0.75,2.256,0.75,3.873c0,1.615,0,10.512,0.058,13.751c0.06,3.24-0.29,13.649-0.574,14.349      c-0.292,0.692-1.461,1.537-2.673,1.652c-1.212,0.115-4.067-0.481-6.956-1.293c-2.885-0.811-5.321-1.185-6.321-2.461      c-1.074-1.366-1.797-12.458-1.797-15.808c0-3.352-0.289-12.736,0-13.895c0.29-1.155,0.445-1.644,1.243-2.102      C15.001,10.295,15.511,10.361,16.435,10.419z"/>
</g>
<g>
<radialGradient id="XMLID_8_" cx="-364.3491" cy="310.8711" r="25.9695" gradientTransform="matrix(1 0 0 -1 379.667 324.2129)" gradientUnits="userSpaceOnUse">
<stop offset="0" style="stop-color:#C5FDFD"/>
<stop offset="0.0337" style="stop-color:#C5FDFD"/>
<stop offset="1" style="stop-color:#65C7FD"/>
</radialGradient>
<polygon fill="url(#XMLID_8_)" points="15.013,13.255 29.348,14.549 29.348,35.421 15.044,32.531     "/>
</g>
<path fill="#183268" d="M18.371,38.313c-0.114-0.554-0.446-1.13-0.986-1.744c-0.431-0.488-1.8-1.861-2.234-1.95     c-0.205-0.04-0.656,0.052-0.656,0.052s0.008,0.014,0.01,0.016c0.048-0.007,0.097-0.016,0.153-0.013     c0.586,0.071,2.031,1.485,2.411,1.968c0.377,0.48,0.721,0.74,0.893,1.3c0.183,0.595,0.296,0.823,0.167,1.389     c-0.049,0.2-0.114,0.302-0.195,0.367c0.272-0.052,0.353-0.163,0.427-0.307C18.434,39.233,18.446,38.661,18.371,38.313z      M14.504,34.685L14.504,34.685L14.504,34.685L14.504,34.685z"/>
<g>
<path fill="#8799C1" d="M17.514,39.769c0,0-1.137-0.309-1.996-0.689c-0.86-0.373-1.136-0.446-1.412-0.925      c-0.272-0.483-0.31-1.241-0.24-1.995c0.067-0.759,0.205-1.556,0.791-1.485c0.584,0.071,2.032,1.481,2.408,1.965      c0.38,0.483,0.721,0.739,0.896,1.303c0.181,0.595,0.293,0.823,0.167,1.387C18.024,39.775,17.842,39.786,17.514,39.769z"/>
</g>
<path fill="#183268" d="M22.486,43.233v0.009c0,0,0.017-0.012,0.021-0.012c0.092-0.023,0.184-0.032,0.27-0.064     c-0.092,0.033-0.193,0.047-0.293,0.067C22.483,43.233,22.483,43.233,22.486,43.233z M24.596,39.217     c-0.596-2.26-2.508-2.873-2.82-2.903c-0.311-0.03-1.061,0.128-1.061,0.128l0.013,0.047c1.313-0.212,2.757,0.788,3.373,2.437     c0.548,1.467,0.256,2.975-0.615,3.788c0.293-0.168,0.57-0.347,0.714-0.477C24.583,41.882,25.007,40.773,24.596,39.217z"/>
<g>
<circle fill="#8799C1" cx="21.55" cy="39.876" r="2.722"/>
</g>
</g>
<g>
<linearGradient id="XMLID_9_" gradientUnits="userSpaceOnUse" x1="14.2007" y1="77.6885" x2="-0.9271" y2="67.7609" gradientTransform="matrix(1.1364 0 0 -1.1364 36.9858 117.0461)">
<stop offset="0" style="stop-color:#36FF4E"/>
<stop offset="0.1352" style="stop-color:#35FC4E"/>
<stop offset="0.2426" style="stop-color:#32F24D"/>
<stop offset="0.3405" style="stop-color:#2DE14C"/>
<stop offset="0.4327" style="stop-color:#25C94B"/>
<stop offset="0.521" style="stop-color:#1CAB49"/>
<stop offset="0.6063" style="stop-color:#108547"/>
<stop offset="0.6877" style="stop-color:#035A45"/>
<stop offset="0.7042" style="stop-color:#005044"/>
<stop offset="0.7352" style="stop-color:#004F3E"/>
<stop offset="0.777" style="stop-color:#004B2D"/>
<stop offset="0.7859" style="stop-color:#004A28"/>
<stop offset="0.8535" style="stop-color:#004A26"/>
<stop offset="1" style="stop-color:#004200"/>
</linearGradient>
<path fill="url(#XMLID_9_)" d="M49.524,25.854c0,0-12.313,14.153-12.325,14.235c0.222,1.72,0.372,2.624,0.465,2.879     C37.85,42.918,53.462,38.667,49.524,25.854z"/>
<polygon fill="#005447" points="37.716,42.929 37.199,40.089 37.218,43.123 37.693,46.27    "/>
<polygon fill="#005447" points="37.416,43.518 37.682,46.348 24.473,42.19 24.187,39.604    "/>
<linearGradient id="XMLID_10_" gradientUnits="userSpaceOnUse" x1="-7.7881" y1="64.2529" x2="10.7651" y2="80.9583" gradientTransform="matrix(1.1364 0 0 -1.1364 36.9858 117.0461)">
<stop offset="0" style="stop-color:#68D70B"/>
<stop offset="1" style="stop-color:#2B7D00"/>
</linearGradient>
<path fill="url(#XMLID_10_)" d="M44.689,21.216c10.932,6.208,3.379,14.805-7.478,18.791l0.22,3.564l-13.229-3.917l12.409-7.892     l0.184,3.458C45.093,31.983,49.685,26.437,44.689,21.216z"/>
</g>
</g>
</g>
</svg>
