<?xml version="1.0" encoding="UTF-8"?>
<!DOCTYPE svg PUBLIC "-//W3C//DTD SVG 1.1 Tiny//EN" "http://www.w3.org/Graphics/SVG/1.1/DTD/svg11-tiny.dtd">
<svg baseProfile="tiny" version="1.0" xmlns="http://www.w3.org/2000/svg" xmlns:xlink="http://www.w3.org/1999/xlink" width="100%" height="100%" viewBox="0 0 21 21">
<g>
<rect fill="none" width="21" height="21"/>
<g>
<g>
<path fill="#FFFFFF" d="M5.252,4.396c-1.264-0.029-2.151,0.351-2.143,2.13v10.113c-0.009,1.748,0.731,2.097,2.143,2.129h10.71     c1.638,0.056,2.142-0.674,2.143-2.129V6.525c-0.001-1.575-0.741-2.159-2.143-2.13H5.252z"/>
<linearGradient id="XMLID_4_" gradientUnits="userSpaceOnUse" x1="3.5586" y1="5.6973" x2="17.6848" y2="17.5505">
<stop offset="0" style="stop-color:#AFAFAE"/>
<stop offset="1" style="stop-color:#121212"/>
</linearGradient>
<path fill="url(#XMLID_4_)" d="M17.639,17.179c0,0.645-0.523,1.171-1.17,1.171H4.773c-0.646,0-1.17-0.526-1.17-1.171V6.067     c0-0.645,0.523-1.169,1.17-1.169h11.695c0.646,0,1.17,0.524,1.17,1.169V17.179z"/>
<rect x="4.773" y="12.502" fill="#FFFFFF" width="1.754" height="1.754"/>
<rect x="4.773" y="16.011" fill="#FFFFFF" width="1.754" height="1.754"/>
<rect x="14.715" y="8.992" fill="#FFFFFF" width="1.754" height="1.756"/>
<rect x="14.715" y="5.483" fill="#FFFFFF" width="1.754" height="1.754"/>
<rect x="14.715" y="12.502" fill="#FFFFFF" width="1.754" height="1.754"/>
<rect x="14.715" y="16.011" fill="#FFFFFF" width="1.754" height="1.754"/>
<rect x="7.697" y="4.898" fill="#CBCBCB" width="5.848" height="3.509"/>
<rect x="7.697" y="9.576" fill="#CBCBCB" width="5.848" height="4.095"/>
<rect x="7.697" y="14.841" fill="#CBCBCB" width="5.848" height="3.509"/>
</g>
<g>
<path fill="#FFFFFF" d="M10.586,1.936H9.373c0,0,0,0.719,0,1.011c-0.652,0-3.535,0-3.535,0c-0.84,0-1.522,0.711-1.522,1.584     v7.351c0,0.874,0.683,1.584,1.522,1.584h4.644c0.839,0,1.521-0.71,1.521-1.584V4.53C12,3.851,11.58,3.29,10.99,3.069     c0-0.299,0-1.134,0-1.134H10.586z"/>
<path d="M10.586,3.362V2.34H9.777v1.011H5.838c-0.617,0-1.118,0.53-1.118,1.18v7.351c0,0.65,0.501,1.18,1.118,1.18h4.644     c0.615,0,1.117-0.529,1.117-1.18V4.53C11.597,3.916,11.151,3.421,10.586,3.362z"/>
<linearGradient id="XMLID_5_" gradientUnits="userSpaceOnUse" x1="4.5752" y1="5.1992" x2="11.7426" y2="11.2134">
<stop offset="0" style="stop-color:#3CB4FF"/>
<stop offset="0.0085" style="stop-color:#3CB4FF"/>
<stop offset="0.2979" style="stop-color:#278ED8"/>
<stop offset="0.7697" style="stop-color:#004A91"/>
<stop offset="1" style="stop-color:#002B5D"/>
</linearGradient>
<path fill="url(#XMLID_5_)" d="M10.479,3.958H5.838c-0.281,0-0.512,0.256-0.512,0.572v7.351c0,0.315,0.23,0.573,0.512,0.573     h4.644c0.28,0,0.511-0.258,0.511-0.573V4.53C10.99,4.214,10.762,3.958,10.479,3.958z"/>
<linearGradient id="XMLID_6_" gradientUnits="userSpaceOnUse" x1="5.876" y1="5.0771" x2="10.4423" y2="8.9088">
<stop offset="0" style="stop-color:#C5FDFD"/>
<stop offset="0.0337" style="stop-color:#C5FDFD"/>
<stop offset="0.2186" style="stop-color:#C1FAFD"/>
<stop offset="0.4215" style="stop-color:#B3F3FD"/>
<stop offset="0.633" style="stop-color:#9DE7FD"/>
<stop offset="0.849" style="stop-color:#7FD6FD"/>
<stop offset="1" style="stop-color:#65C7FD"/>
</linearGradient>
<rect x="6.136" y="4.768" fill="url(#XMLID_6_)" width="4.046" height="4.45"/>
</g>
</g>
</g>
</svg>
