<?xml version="1.0" encoding="UTF-8"?>
<!DOCTYPE svg PUBLIC "-//W3C//DTD SVG 1.1 Tiny//EN" "http://www.w3.org/Graphics/SVG/1.1/DTD/svg11-tiny.dtd">
<svg baseProfile="tiny" version="1.0" xmlns="http://www.w3.org/2000/svg" xmlns:xlink="http://www.w3.org/1999/xlink" width="100%" height="100%" viewBox="0 0 21 21">
<g>
<g>
<g>
<path fill="#FFFFFF" d="M2.775,3.639c-0.6,0-1.121,0.523-1.121,1.268L1.638,15.919c0,1.432,0.102,1.59,1.71,1.59h14.679     c1.028,0,1.312-0.448,1.312-1.501l0.015-10.73c0-1.05-0.213-1.636-1.241-1.636L3.506,3.639H2.775z"/>
<linearGradient id="XMLID_3_" gradientUnits="userSpaceOnUse" x1="-226.7178" y1="341.917" x2="-223.2124" y2="341.917" gradientTransform="matrix(4.7619 0 0 -4.7619 1081.7422 1638.1155)">
<stop offset="0" style="stop-color:#C2E0E1"/>
<stop offset="0.2141" style="stop-color:#7AC0D6"/>
<stop offset="0.6648" style="stop-color:#559BC1"/>
<stop offset="1" style="stop-color:#1D65A2"/>
</linearGradient>
<path fill="url(#XMLID_3_)" d="M18.205,4.117H2.783l0,0c-0.352,0-0.636,0.289-0.636,0.64v10.94     c-0.031,0.028,16.669,0.028,16.693,0V4.757C18.84,4.406,18.557,4.117,18.205,4.117z"/>
</g>
<linearGradient id="XMLID_4_" gradientUnits="userSpaceOnUse" x1="-226.7178" y1="340.7402" x2="-223.2124" y2="340.7402" gradientTransform="matrix(4.7619 0 0 -4.7619 1081.7422 1638.1155)">
<stop offset="0" style="stop-color:#2387B8"/>
<stop offset="0.0123" style="stop-color:#2387B8"/>
<stop offset="0.1296" style="stop-color:#2387B8"/>
<stop offset="0.2842" style="stop-color:#2268A8"/>
<stop offset="0.4843" style="stop-color:#204798"/>
<stop offset="0.6755" style="stop-color:#1F2F8C"/>
<stop offset="0.8521" style="stop-color:#1E2085"/>
<stop offset="1" style="stop-color:#1E1B82"/>
</linearGradient>
<path fill="url(#XMLID_4_)" d="M2.147,14.075v2.236c0,0.352,0.284,0.638,0.636,0.638h15.422c0.352,0,0.635-0.28,0.635-0.638    v-2.236H2.147z"/>
<polygon fill="#F4A816" points="6.518,14.384 4.531,12.246 16.455,12.246 14.467,14.384   "/>
<polygon fill="#FFFFFF" points="11.157,11.532 11.157,5.829 5.855,11.532   "/>
<polygon fill="#FFFFFF" points="11.818,5.829 15.13,11.532 11.818,11.532   "/>
</g>
<rect fill="none" width="21" height="21"/>
</g>
</svg>
