<?xml version="1.0" encoding="UTF-8"?>
<!DOCTYPE svg PUBLIC "-//W3C//DTD SVG 1.1 Tiny//EN" "http://www.w3.org/Graphics/SVG/1.1/DTD/svg11-tiny.dtd">
<svg baseProfile="tiny" version="1.0" xmlns="http://www.w3.org/2000/svg" xmlns:xlink="http://www.w3.org/1999/xlink" width="100%" height="100%" viewBox="0 0 57 49.148">
<g>
<rect fill="none" width="57" height="49.148"/>
<g>
<g>
<g>
<path fill="#FFFFFF" d="M14.573,4.445c0,0,3.79,0,6.23,0.197c2.443,0.199,7.812,0.18,8.771,2.394      c1.146,2.642,1.049,10.866,0.746,16.845c-0.298,5.984,0,13.359-1.445,15.451c-1.444,2.094-4.232,1.297-9.021,0.1      c-4.787-1.195-6.727-1.446-7.526-3.291c-0.793-1.842-1.645-10.264-1.692-15.198c-0.049-4.935-0.099-14.158,1.246-15.352      C13.226,4.395,13.874,4.445,14.573,4.445z"/>
</g>
<g>
<g>
<linearGradient id="XMLID_5_" gradientUnits="userSpaceOnUse" x1="-357.3584" y1="309.2988" x2="-351.8193" y2="289.0522" gradientTransform="matrix(1 0 0 -1 379.667 313.5137)">
<stop offset="0" style="stop-color:#222221"/>
<stop offset="0.1461" style="stop-color:#BEBEBF"/>
<stop offset="0.1685" style="stop-color:#FFFFFF"/>
<stop offset="0.3202" style="stop-color:#FFFFFF"/>
<stop offset="0.5169" style="stop-color:#E8E8E8"/>
<stop offset="0.5615" style="stop-color:#D6D6D6"/>
<stop offset="0.775" style="stop-color:#848484"/>
<stop offset="0.9262" style="stop-color:#515151"/>
<stop offset="1" style="stop-color:#3D3D3D"/>
</linearGradient>
<path fill="url(#XMLID_5_)" d="M13.887,4.478c-0.046,0.008-0.1,0.017-0.147,0.03 M32.723,13.067       c-0.1-1.989-0.35-4.785-1.445-6.88c-1.096-2.091-6.73-1.893-8.772-1.996c-2.042-0.098-5.733-0.248-6.878-0.195       c-0.321,0.014-0.974,0.209-1.743,0.481c0.245-0.036,0.47-0.032,0.694-0.032c0,0,3.79,0,6.232,0.197       c2.442,0.199,7.811,0.18,8.767,2.394c1.15,2.642,1.053,10.866,0.754,16.845c-0.299,5.984,0,13.359-1.447,15.451       c-0.254,0.369-0.549,0.641-0.889,0.842c1.646-0.906,2.838-1.611,3.029-1.835c0.7-0.8,1.396-3.766,1.446-6.329       C32.525,29.516,32.943,17.494,32.723,13.067z"/>
</g>
</g>
<g>
<path d="M28.197,7.658c-0.919-1.544-5.887-1.554-7.979-1.699c-2.077-0.143-5.502-0.311-5.94-0.311      c-0.369,0-0.963,0.215-1.131,0.28c-0.004,0-0.004,0-0.004,0c0.381-0.083,0.778-0.056,1.36-0.019c0,0,4.399,0.197,7.14,0.469      c2.572,0.252,5.323,0.292,6.076,1.559c0.811,1.362,0.697,2.092,0.697,3.602c0,1.504,0,9.779,0.054,12.791      c0.055,3.014-0.27,12.702-0.534,13.35c-0.197,0.463-0.812,0.993-1.559,1.301c0,0,0,0,0.003,0L26.388,39      c0,0,0.978-0.188,1.431-0.496c0.453-0.314,0.708-0.693,0.939-1.846c0.072-0.354,0.226-8.011,0.273-12.402      c0.043-4.387-0.01-11.913-0.01-13.311C29.017,9.574,28.959,8.918,28.197,7.658z"/>
</g>
<g>
<linearGradient id="XMLID_6_" gradientUnits="userSpaceOnUse" x1="-367.0415" y1="307.4033" x2="-351.2687" y2="275.5175" gradientTransform="matrix(1 0 0 -1 379.667 313.5137)">
<stop offset="0" style="stop-color:#FFFFFF"/>
<stop offset="0.1325" style="stop-color:#CFCFCF"/>
<stop offset="0.4327" style="stop-color:#575757"/>
<stop offset="0.507" style="stop-color:#383838"/>
<stop offset="0.7014" style="stop-color:#363636"/>
<stop offset="0.8958" style="stop-color:#000000"/>
<stop offset="0.9871" style="stop-color:#000000"/>
<stop offset="1" style="stop-color:#000000"/>
</linearGradient>
<path fill="url(#XMLID_6_)" d="M14.502,5.914c0,0,4.414,0.203,7.161,0.415c2.627,0.204,5.192,0.05,6.055,1.608      c0.861,1.561,0.697,2.099,0.697,3.602c0,1.504,0,9.779,0.054,12.793c0.055,3.017-0.27,12.7-0.534,13.352      c-0.271,0.643-1.359,1.43-2.487,1.537c-1.128,0.108-3.783-0.449-6.471-1.203c-2.685-0.755-4.951-1.104-5.881-2.29      c-0.999-1.271-1.672-11.591-1.672-14.708s-0.268-11.848,0-12.927c0.27-1.074,0.414-1.527,1.156-1.955      C13.168,5.799,13.643,5.859,14.502,5.914z"/>
</g>
<g>
<polygon fill="#D3D3D3" points="13.179,8.553 26.516,9.758 26.516,29.176 13.208,26.488     "/>
</g>
<path d="M16.303,31.867c-0.106-0.514-0.415-1.051-0.917-1.623c-0.401-0.453-1.676-1.732-2.079-1.814     c-0.191-0.037-0.61,0.049-0.61,0.049s0.008,0.012,0.009,0.015c0.045-0.007,0.09-0.015,0.142-0.013     c0.546,0.066,1.89,1.383,2.244,1.831c0.351,0.446,0.67,0.69,0.831,1.208c0.169,0.556,0.275,0.767,0.154,1.293     c-0.045,0.186-0.105,0.281-0.181,0.342c0.252-0.047,0.329-0.15,0.397-0.284C16.362,32.724,16.373,32.19,16.303,31.867z      M12.706,28.49L12.706,28.49L12.706,28.49L12.706,28.49z"/>
<g>
<path fill="#9A9494" d="M15.507,33.221c0,0-1.058-0.286-1.858-0.641c-0.801-0.348-1.057-0.416-1.314-0.861      c-0.252-0.449-0.289-1.154-0.223-1.855c0.062-0.707,0.19-1.447,0.735-1.383c0.543,0.066,1.891,1.379,2.241,1.828      c0.354,0.449,0.671,0.688,0.834,1.211c0.168,0.556,0.272,0.767,0.154,1.292C15.98,33.227,15.812,33.236,15.507,33.221z"/>
</g>
<path d="M20.133,36.445v0.008c0,0,0.016-0.01,0.02-0.01c0.085-0.023,0.171-0.031,0.251-0.061c-0.086,0.03-0.18,0.043-0.274,0.063     C20.129,36.445,20.129,36.445,20.133,36.445z M22.095,32.707c-0.554-2.104-2.333-2.672-2.625-2.699     c-0.288-0.029-0.986,0.117-0.986,0.117l0.013,0.044c1.221-0.196,2.564,0.733,3.137,2.268c0.51,1.364,0.238,2.769-0.572,3.524     c0.272-0.156,0.53-0.322,0.665-0.444C22.083,35.188,22.477,34.155,22.095,32.707z"/>
<g>
<circle fill="#9A9494" cx="19.262" cy="33.32" r="2.533"/>
</g>
</g>
<g>
<linearGradient id="XMLID_7_" gradientUnits="userSpaceOnUse" x1="10.0728" y1="72.7197" x2="-4.001" y2="63.4838" gradientTransform="matrix(1.1364 0 0 -1.1364 37.1911 105.6172)">
<stop offset="0" style="stop-color:#F5F5F5"/>
<stop offset="0.0056" style="stop-color:#F5F5F5"/>
<stop offset="0.0098" style="stop-color:#F4F4F4"/>
<stop offset="0.2882" style="stop-color:#A6A6A6"/>
<stop offset="0.536" style="stop-color:#696969"/>
<stop offset="0.7445" style="stop-color:#3C3C3C"/>
<stop offset="0.9057" style="stop-color:#212121"/>
<stop offset="1" style="stop-color:#171717"/>
</linearGradient>
<path fill="url(#XMLID_7_)" d="M45.287,20.275c0,0-11.454,13.168-11.467,13.244c0.207,1.599,0.348,2.441,0.433,2.678     C34.426,36.151,48.951,32.195,45.287,20.275z"/>
<polygon fill="#3D3D3D" points="34.302,36.16 33.82,33.52 33.839,36.342 34.28,39.27    "/>
<polygon fill="#3D3D3D" points="34.022,36.708 34.271,39.341 21.981,35.474 21.714,33.068    "/>
<linearGradient id="XMLID_8_" gradientUnits="userSpaceOnUse" x1="-10.3853" y1="60.2217" x2="6.8762" y2="75.7639" gradientTransform="matrix(1.1364 0 0 -1.1364 37.1911 105.6172)">
<stop offset="0" style="stop-color:#E9E9E9"/>
<stop offset="0.0056" style="stop-color:#E9E9E9"/>
<stop offset="0.0399" style="stop-color:#DADADA"/>
<stop offset="0.1461" style="stop-color:#B0B0B0"/>
<stop offset="0.2584" style="stop-color:#8D8D8D"/>
<stop offset="0.376" style="stop-color:#707070"/>
<stop offset="0.5008" style="stop-color:#595959"/>
<stop offset="0.6361" style="stop-color:#4A4A4A"/>
<stop offset="0.7895" style="stop-color:#404040"/>
<stop offset="1" style="stop-color:#3D3D3D"/>
</linearGradient>
<path fill="url(#XMLID_8_)" d="M40.789,15.96c10.172,5.776,3.145,13.774-6.956,17.483l0.204,3.316l-12.309-3.646l11.546-7.342     l0.169,3.219C41.166,25.979,45.438,20.817,40.789,15.96z"/>
</g>
</g>
</g>
</svg>
