<?xml version="1.0" encoding="UTF-8"?>
<!DOCTYPE svg PUBLIC "-//W3C//DTD SVG 1.1 Tiny//EN" "http://www.w3.org/Graphics/SVG/1.1/DTD/svg11-tiny.dtd">
<svg baseProfile="tiny" version="1.0" xmlns="http://www.w3.org/2000/svg" xmlns:xlink="http://www.w3.org/1999/xlink" width="100%" height="100%" viewBox="0 0 40 53">
<g>
<rect fill="none" width="40" height="53"/>
<g>
<g>
<g>
<g>
<linearGradient id="XMLID_10_" gradientUnits="userSpaceOnUse" x1="3.6636" y1="13.2246" x2="12.9016" y2="37.2905">
<stop offset="0" style="stop-color:#2DAD00"/>
<stop offset="0.1833" style="stop-color:#2DA700"/>
<stop offset="0.421" style="stop-color:#2D9700"/>
<stop offset="0.6886" style="stop-color:#2D7C00"/>
<stop offset="0.9762" style="stop-color:#2D5700"/>
<stop offset="1" style="stop-color:#2D5400"/>
</linearGradient>
<path fill="url(#XMLID_10_)" d="M13.111,17.446l-9.002-1.424c0,0-0.393-0.059-0.397,0.661c-0.004,1.11,0.004,16.68,0,17.294       c-0.001,0.585,0.287,0.661,0.287,0.661l9.072,2.544c0,0,0.307,0.104,0.309-0.557c0.004-0.895,0.105-16.866,0.11-18.322       C13.493,17.447,13.111,17.446,13.111,17.446z"/>
<polygon fill="#3D3D3D" points="4.332,18.653 12.697,20.169 12.697,21.614 4.326,20.122      "/>
<linearGradient id="XMLID_11_" gradientUnits="userSpaceOnUse" x1="12.314" y1="9.9883" x2="16.0787" y2="26.295">
<stop offset="0" style="stop-color:#000000"/>
<stop offset="0.0056" style="stop-color:#000000"/>
<stop offset="0.1404" style="stop-color:#3D3D3D"/>
<stop offset="0.3429" style="stop-color:#FFFFFF"/>
<stop offset="0.3582" style="stop-color:#FFFFFF"/>
<stop offset="0.5112" style="stop-color:#E9E9E9"/>
<stop offset="0.567" style="stop-color:#E2E2E2"/>
<stop offset="0.6503" style="stop-color:#CDCDCD"/>
<stop offset="0.7506" style="stop-color:#ACACAC"/>
<stop offset="0.8643" style="stop-color:#7E7E7E"/>
<stop offset="0.9878" style="stop-color:#434343"/>
<stop offset="1" style="stop-color:#3D3D3D"/>
</linearGradient>
<path fill="url(#XMLID_11_)" d="M22.14,13.396c-0.736-0.101-7.745-0.717-9.099-0.906c0,0-0.386-0.068-0.875-0.027       c-0.49,0.036-6.778,1.005-7.333,1.091c-0.694,0.095-1.113,0.486-1.228,0.673c0.187-0.239,0.427-0.212,0.427-0.212       c1.888,0.142,9.69,1.314,9.69,1.314s1.365,0.467,1.23,2.176l0.03,0.525l8.026,6.661l0.068-9.885       C23.077,14.807,23.042,13.52,22.14,13.396z"/>
<path fill="#FFFFFF" d="M13.723,15.329c0,0-7.802-1.173-9.69-1.314c0,0-0.642-0.083-0.642,1.065       c-0.006,1.403,0.008,17.432,0,19.774c-0.006,1.328,0.686,1.281,0.686,1.281l9.688,2.857c0,0,1.193-0.118,1.193-1.885       c0-1.768,0-20.163,0-20.163v-0.012C14.904,15.199,13.723,15.329,13.723,15.329z M13.379,36.626       c-0.001,0.661-0.309,0.557-0.309,0.557l-9.072-2.544c0,0-0.289-0.076-0.287-0.661c0.004-0.614-0.004-16.184,0-17.294       c0.004-0.72,0.397-0.661,0.397-0.661l9.002,1.424c0,0,0.382,0.001,0.378,0.857C13.484,19.76,13.383,35.731,13.379,36.626z"/>
<path fill="#3D3D3D" d="M13.991,18.27c0-1.149-0.649-1.307-0.649-1.307l-8.615-1.295c0,0-0.323,0.044-0.405,0.089       c-0.2,0.11-0.546,0.323-0.546,0.473c0,0.011,0.007,0.027,0.008,0.032c0.113-0.266,0.325-0.239,0.325-0.239l9.002,1.424       c0,0,0.382,0.001,0.378,0.857c-0.005,1.456-0.105,17.428-0.11,18.322c0,0.081-0.005,0.153-0.012,0.209       c-0.005,0.034-0.012,0.061-0.021,0.092c-0.003,0.015-0.008,0.037-0.014,0.057c-0.01,0.033-0.024,0.06-0.038,0.084       c-0.004,0.005-0.004,0.009-0.008,0.014c-0.018,0.027-0.036,0.047-0.052,0.061l0,0c0.113-0.046,0.776-0.324,0.776-0.605       C14.011,36.23,13.991,19.282,13.991,18.27z"/>
</g>
<polygon fill="#3D3D3D" points="4.282,21.262 12.648,22.777 12.648,24.222 4.278,22.729     "/>
</g>
</g>
<linearGradient id="XMLID_12_" gradientUnits="userSpaceOnUse" x1="13.9858" y1="14.7031" x2="22.0724" y2="35.7693">
<stop offset="0" style="stop-color:#2DAD00"/>
<stop offset="0.1833" style="stop-color:#2DA700"/>
<stop offset="0.421" style="stop-color:#2D9700"/>
<stop offset="0.6886" style="stop-color:#2D7C00"/>
<stop offset="0.9762" style="stop-color:#2D5700"/>
<stop offset="1" style="stop-color:#2D5400"/>
</linearGradient>
<path fill="url(#XMLID_12_)" d="M22.438,14.972c-0.158,0.027-6.151,1.513-6.601,1.648c-0.3,0.091-0.897,0.091-0.9,0.81    c-0.004,1.111,0.029,19.607,0.029,19.623c0.016,1.244-0.6,1.68-0.555,1.649c5.333-3.555,7.456-4.535,7.756-4.755    c0.659-0.525,0.699-0.758,0.82-2.135c0.086-0.997,0.074-14.592,0.079-16.047C23.072,14.908,22.597,14.941,22.438,14.972z"/>
<g>
<g>
<linearGradient id="XMLID_13_" gradientUnits="userSpaceOnUse" x1="16.3066" y1="18.9346" x2="25.545" y2="43.0014">
<stop offset="0" style="stop-color:#E9E9E9"/>
<stop offset="0.0056" style="stop-color:#E9E9E9"/>
<stop offset="0.1191" style="stop-color:#E2E2E2"/>
<stop offset="0.2885" style="stop-color:#CDCDCD"/>
<stop offset="0.4927" style="stop-color:#ACACAC"/>
<stop offset="0.724" style="stop-color:#7E7E7E"/>
<stop offset="0.9752" style="stop-color:#434343"/>
<stop offset="1" style="stop-color:#3D3D3D"/>
</linearGradient>
<path fill="url(#XMLID_13_)" d="M25.754,23.155l-9.003-1.423c0,0-0.394-0.058-0.396,0.661c-0.004,1.11,0.003,16.682,0,17.294      c-0.002,0.586,0.286,0.662,0.286,0.662l9.072,2.544c0,0,0.308,0.104,0.309-0.557c0.005-0.895,0.105-16.867,0.11-18.322      C26.135,23.156,25.754,23.155,25.754,23.155z"/>
<polygon fill="#3D3D3D" points="16.974,24.363 25.34,25.88 25.34,27.324 16.969,25.833     "/>
<linearGradient id="XMLID_14_" gradientUnits="userSpaceOnUse" x1="24.7998" y1="15.0176" x2="30.0396" y2="37.7136">
<stop offset="0" style="stop-color:#000000"/>
<stop offset="0.0056" style="stop-color:#000000"/>
<stop offset="0.1404" style="stop-color:#3D3D3D"/>
<stop offset="0.2901" style="stop-color:#FFFFFF"/>
<stop offset="0.3473" style="stop-color:#FFFFFF"/>
<stop offset="0.5112" style="stop-color:#E9E9E9"/>
<stop offset="0.567" style="stop-color:#E2E2E2"/>
<stop offset="0.6503" style="stop-color:#CDCDCD"/>
<stop offset="0.7506" style="stop-color:#ACACAC"/>
<stop offset="0.8643" style="stop-color:#7E7E7E"/>
<stop offset="0.9878" style="stop-color:#434343"/>
<stop offset="1" style="stop-color:#3D3D3D"/>
</linearGradient>
<path fill="url(#XMLID_14_)" d="M34.783,19.106c-0.736-0.099-7.745-0.717-9.1-0.906c0,0-0.387-0.066-0.875-0.026      c-0.49,0.034-6.779,1.004-7.333,1.089c-0.695,0.095-1.114,0.488-1.228,0.673c0.187-0.238,0.427-0.212,0.427-0.212      c1.888,0.144,9.689,1.315,9.689,1.315s1.183-0.129,1.234,1.605v0.013c0,0-0.011,13.747-0.011,15.516      c0,0.629,8.061-3.761,8.061-3.761l0.07-13.894C35.72,20.519,35.685,19.23,34.783,19.106z"/>
<path fill="#FFFFFF" d="M26.365,21.039c0,0-7.802-1.172-9.689-1.315c0,0-0.642-0.083-0.642,1.068      c-0.007,1.402,0.008,17.431,0,19.773c-0.006,1.328,0.685,1.28,0.685,1.28l9.687,2.858c0,0,1.193-0.12,1.193-1.884      c0-1.77,0-20.163,0-20.163v-0.013C27.548,20.91,26.365,21.039,26.365,21.039z M26.021,42.337      c-0.001,0.66-0.309,0.557-0.309,0.557l-9.072-2.544c0,0-0.288-0.076-0.286-0.662c0.003-0.612-0.004-16.184,0-17.294      c0.003-0.719,0.396-0.661,0.396-0.661l9.003,1.423c0,0,0.381,0.001,0.378,0.859C26.127,25.47,26.026,41.442,26.021,42.337z"/>
<path fill="#3D3D3D" d="M26.634,23.981c0-1.151-0.65-1.31-0.65-1.31l-8.614-1.294c0,0-0.324,0.043-0.405,0.09      c-0.2,0.109-0.546,0.322-0.546,0.473c0,0.011,0.007,0.025,0.008,0.032c0.114-0.266,0.325-0.24,0.325-0.24l9.003,1.423      c0,0,0.381,0.001,0.378,0.859c-0.005,1.455-0.105,17.428-0.11,18.322c0,0.082-0.005,0.152-0.012,0.209      c-0.005,0.033-0.013,0.06-0.021,0.09c-0.004,0.018-0.009,0.039-0.016,0.057c-0.01,0.035-0.023,0.06-0.037,0.086      c-0.004,0.005-0.004,0.008-0.008,0.014c-0.018,0.028-0.035,0.047-0.053,0.061l0,0c0.114-0.047,0.777-0.324,0.777-0.607      C26.653,41.938,26.634,24.992,26.634,23.981z"/>
</g>
<polygon fill="#3D3D3D" points="16.925,26.971 25.29,28.488 25.29,29.932 16.92,28.439    "/>
</g>
<linearGradient id="XMLID_15_" gradientUnits="userSpaceOnUse" x1="19.0107" y1="31.2988" x2="23.7619" y2="43.6761">
<stop offset="0" style="stop-color:#2D9900"/>
<stop offset="0.2144" style="stop-color:#2D9300"/>
<stop offset="0.4925" style="stop-color:#2D8300"/>
<stop offset="0.8042" style="stop-color:#2D6900"/>
<stop offset="1" style="stop-color:#2D5400"/>
</linearGradient>
<path fill="url(#XMLID_15_)" d="M25.743,34.009l-8.994-1.807c0,0-0.36,0.021-0.363,0.215c-0.003,0.301,0,7.215-0.009,7.382    c-0.021,0.363,0.213,0.521,0.213,0.521l9.17,2.589c0,0,0.248-0.108,0.25-0.287c0.002-0.243,0.073-7.986,0.078-8.379    C26.093,34.01,25.743,34.009,25.743,34.009z"/>
<g>
<linearGradient id="XMLID_16_" gradientUnits="userSpaceOnUse" x1="-34.7671" y1="53.8066" x2="-21.8119" y2="67.2221" gradientTransform="matrix(1.1364 0 0 -1.1364 38.3208 110.082)">
<stop offset="0" style="stop-color:#B2DCFF"/>
<stop offset="0.1338" style="stop-color:#AFDAFD"/>
<stop offset="0.2458" style="stop-color:#A4D4F9"/>
<stop offset="0.35" style="stop-color:#93C9F3"/>
<stop offset="0.4494" style="stop-color:#7CBAEB"/>
<stop offset="0.4857" style="stop-color:#62A5D9"/>
<stop offset="0.5369" style="stop-color:#448DC4"/>
<stop offset="0.5936" style="stop-color:#2B79B3"/>
<stop offset="0.6569" style="stop-color:#186AA5"/>
<stop offset="0.7304" style="stop-color:#0A5F9C"/>
<stop offset="0.8234" style="stop-color:#025997"/>
<stop offset="1" style="stop-color:#005795"/>
</linearGradient>
<path fill="url(#XMLID_16_)" d="M7.661,42.945c-1.884-4.713,3.346-6.946,6.089-8.015c-0.345-0.836-0.227-0.946-0.573-1.783     C7.052,35.536,4.788,39.022,7.661,42.945"/>
<polygon fill="#005795" points="21.552,30.297 21.319,31.856 13.523,37.29 13.28,35.526    "/>
<path fill="#005795" d="M7.939,42.666c-1.144-0.53-3.645-4.925-3.645-4.925c-0.133,2.269,1.679,5.309,3.794,6.353L7.939,42.666z"/>
<linearGradient id="XMLID_17_" gradientUnits="userSpaceOnUse" x1="-582.0918" y1="887.582" x2="-586.7162" y2="874.1518" gradientTransform="matrix(-1.1364 0 0 1.1364 -651.8472 -965.3837)">
<stop offset="0" style="stop-color:#3CB4FF"/>
<stop offset="0.2589" style="stop-color:#3AB1FC"/>
<stop offset="0.4438" style="stop-color:#35A9F3"/>
<stop offset="0.6057" style="stop-color:#2C9CE3"/>
<stop offset="0.7543" style="stop-color:#2088CD"/>
<stop offset="0.8926" style="stop-color:#106FB1"/>
<stop offset="1" style="stop-color:#005795"/>
</linearGradient>
<path fill="url(#XMLID_17_)" d="M7.827,42.644c-7.322-4.155-2.262-9.912,5.007-12.583l-0.146-2.388l8.86,2.624l-8.312,5.286     l-0.124-2.318C7.558,35.434,4.482,39.151,7.827,42.644z"/>
</g>
<linearGradient id="XMLID_18_" gradientUnits="userSpaceOnUse" x1="29.208" y1="32.2803" x2="32.9708" y2="42.0826">
<stop offset="0" style="stop-color:#2DAD00"/>
<stop offset="0.1833" style="stop-color:#2DA700"/>
<stop offset="0.421" style="stop-color:#2D9700"/>
<stop offset="0.6886" style="stop-color:#2D7C00"/>
<stop offset="0.9762" style="stop-color:#2D5700"/>
<stop offset="1" style="stop-color:#2D5400"/>
</linearGradient>
<path fill="url(#XMLID_18_)" d="M34.985,31.267c-0.159,0.029-6.338,2.508-6.786,2.65c-0.285,0.09-0.591,0.245-0.601,0.78    c-0.02,1.116-0.019,8.07-0.015,8.101c0.091,0.75-0.431,1.523-0.39,1.499c5.488-3.307,7.26-4.396,7.561-4.614    c0.66-0.524,0.828-0.769,0.869-2.15c0.031-0.99,0.025-3.99,0.031-5.445C35.657,31.229,35.143,31.237,34.985,31.267z"/>
</g>
</g>
</svg>
