<?xml version="1.0" encoding="UTF-8"?>
<!DOCTYPE svg PUBLIC "-//W3C//DTD SVG 1.1 Tiny//EN" "http://www.w3.org/Graphics/SVG/1.1/DTD/svg11-tiny.dtd">
<svg baseProfile="tiny" version="1.0" xmlns="http://www.w3.org/2000/svg" xmlns:xlink="http://www.w3.org/1999/xlink" width="100%" height="100%" viewBox="0 0 21 21">
<g>
<path fill="url(#XMLID_2_)" stroke="#FFFFFF" stroke-width="0.5" d="M17.191,2.823L7.379,4.699v9.387   c-0.066-0.009-0.125-0.027-0.197-0.037c-1.285-0.175-2.886,0.595-3.568,1.708c-0.688,1.106-0.196,2.15,1.091,2.314   c1.289,0.167,2.886-0.598,3.567-1.71c0.197-0.316,0.285-0.624,0.297-0.908c0.004-0.011,0.012-0.02,0.018-0.027   c0-0.299-0.064-8.165-0.064-8.165l7.493-1.65l0.03,6.624c-0.067-0.013-0.127-0.03-0.198-0.043   c-1.287-0.168-2.886,0.602-3.563,1.713c-0.69,1.11-0.199,2.148,1.086,2.315c1.292,0.165,2.885-0.595,3.566-1.709   c0.195-0.319,0.283-0.622,0.301-0.911c0.006-0.013,0.012-0.019,0.017-0.027C17.256,13.271,17.191,2.823,17.191,2.823z"/>
<rect fill="none" width="21" height="21"/>
<defs>
<linearGradient id="XMLID_2_" gradientUnits="userSpaceOnUse" x1="3.3018" y1="10.459" x2="17.2529" y2="10.459">
<stop offset="0" style="stop-color:#FF7800"/>
<stop offset="0.4" style="stop-color:#FF3300"/>
<stop offset="1" style="stop-color:#8A1700"/>
</linearGradient>
</defs>
</g>
</svg>
