<?xml version="1.0" encoding="UTF-8"?>
<!DOCTYPE svg PUBLIC "-//W3C//DTD SVG 1.1 Tiny//EN" "http://www.w3.org/Graphics/SVG/1.1/DTD/svg11-tiny.dtd">
<svg baseProfile="tiny" version="1.0" xmlns="http://www.w3.org/2000/svg" xmlns:xlink="http://www.w3.org/1999/xlink" width="100%" height="100%" viewBox="0 0 21 21">
<g>
<rect fill="none" width="21" height="21"/>
<g>
<path d="M17.557,15.611c0,1.047-0.85,1.897-1.895,1.897H5.554c-1.046,0-1.896-0.851-1.896-1.897V5.505    c0-1.046,0.85-1.896,1.896-1.896h10.108c1.045,0,1.895,0.85,1.895,1.896V15.611z"/>
<path fill="#FFF681" d="M5.554,4.872c-0.349,0-0.632,0.283-0.632,0.633v10.106c0,0.349,0.283,0.632,0.632,0.632h10.108    c0.348,0,0.631-0.283,0.631-0.632V5.505c0-0.35-0.283-0.633-0.631-0.633H5.554z"/>
<path fill="#BAAC26" d="M6.186,6.136h10.107V5.505c0-0.35-0.283-0.633-0.631-0.633H5.554c-0.349,0-0.632,0.283-0.632,0.633v10.106    c0,0.349,0.283,0.632,0.632,0.632h0.632V6.136z"/>
</g>
</g>
</svg>
