<?xml version="1.0" encoding="UTF-8"?>
<!DOCTYPE svg PUBLIC "-//W3C//DTD SVG 1.1 Tiny//EN" "http://www.w3.org/Graphics/SVG/1.1/DTD/svg11-tiny.dtd">
<svg baseProfile="tiny" version="1.0" xmlns="http://www.w3.org/2000/svg" xmlns:xlink="http://www.w3.org/1999/xlink" width="100%" height="100%" viewBox="0 0 57 49.148">
<g>
<rect fill="none" width="57" height="49.148"/>
<g>
<g>
<g>
<g>
<linearGradient id="XMLID_7_" gradientUnits="userSpaceOnUse" x1="23.998" y1="142.4609" x2="36.5475" y2="175.1533" gradientTransform="matrix(0.9999 -0.0107 0.0107 0.9999 -5.8151 -136.9779)">
<stop offset="0" style="stop-color:#E9E9E9"/>
<stop offset="0.0056" style="stop-color:#E9E9E9"/>
<stop offset="0.1191" style="stop-color:#E2E2E2"/>
<stop offset="0.2885" style="stop-color:#CDCDCD"/>
<stop offset="0.4927" style="stop-color:#ACACAC"/>
<stop offset="0.724" style="stop-color:#7E7E7E"/>
<stop offset="0.9752" style="stop-color:#434343"/>
<stop offset="1" style="stop-color:#3D3D3D"/>
</linearGradient>
<path fill="url(#XMLID_7_)" d="M32.6,10.81L20.351,9.006c0,0-0.536-0.072-0.53,0.905c0.011,1.508,0.246,22.657,0.25,23.49       c0.006,0.794,0.399,0.894,0.399,0.894l12.358,3.324c0,0,0.418,0.135,0.411-0.761c-0.008-1.215-0.102-22.911-0.116-24.888       C33.117,10.806,32.6,10.81,32.6,10.81z"/>
<polygon fill="#3D3D3D" points="20.69,12.578 32.076,14.516 32.097,16.479 20.705,14.572      "/>
<linearGradient id="XMLID_8_" gradientUnits="userSpaceOnUse" x1="35.3291" y1="136.25" x2="44.3779" y2="175.4445" gradientTransform="matrix(0.9999 -0.0107 0.0107 0.9999 -5.8151 -136.9779)">
<stop offset="0" style="stop-color:#000000"/>
<stop offset="0.0056" style="stop-color:#000000"/>
<stop offset="0.1404" style="stop-color:#3D3D3D"/>
<stop offset="0.2303" style="stop-color:#FFFFFF"/>
<stop offset="0.2865" style="stop-color:#FFFFFF"/>
<stop offset="0.5112" style="stop-color:#E9E9E9"/>
<stop offset="0.567" style="stop-color:#E2E2E2"/>
<stop offset="0.6503" style="stop-color:#CDCDCD"/>
<stop offset="0.7506" style="stop-color:#ACACAC"/>
<stop offset="0.8643" style="stop-color:#7E7E7E"/>
<stop offset="0.9878" style="stop-color:#434343"/>
<stop offset="1" style="stop-color:#3D3D3D"/>
</linearGradient>
<path fill="url(#XMLID_8_)" d="M44.804,5.178c-1.001-0.122-10.529-0.86-12.372-1.099c0,0-0.525-0.083-1.189-0.023       c-0.665,0.056-9.192,1.463-9.944,1.587c-0.941,0.139-1.504,0.677-1.657,0.932c0.25-0.326,0.577-0.295,0.577-0.295       c2.566,0.167,13.181,1.647,13.181,1.647s1.603-0.194,1.698,2.16l0.001,0.018c0,0,0.267,24.983,0.292,27.387       c0.01,0.854-0.193,1.419-0.455,1.805c2.518-1.505,10.197-6.186,10.197-6.186c0.983-0.531,1.086-2.435,1.086-2.435L46.098,7.082       C46.098,7.082,46.029,5.335,44.804,5.178z"/>
<path fill="#FFFFFF" d="M33.399,7.927c0,0-10.615-1.48-13.181-1.647c0,0-0.873-0.102-0.856,1.458       c0.011,1.907,0.264,23.678,0.286,26.86c0.011,1.803,0.95,1.73,0.95,1.73l13.199,3.74c0,0,1.619-0.178,1.594-2.577       c-0.025-2.403-0.292-27.387-0.292-27.387l-0.001-0.018C35.002,7.732,33.399,7.927,33.399,7.927z M33.24,36.858       c0.007,0.896-0.411,0.761-0.411,0.761l-12.358-3.324c0,0-0.394-0.1-0.399-0.894c-0.004-0.833-0.24-21.982-0.25-23.49       c-0.006-0.978,0.53-0.905,0.53-0.905L32.6,10.81c0,0,0.518-0.004,0.524,1.161C33.139,13.947,33.232,35.644,33.24,36.858z"/>
<path fill="#3D3D3D" d="M33.805,11.916c-0.017-1.562-0.9-1.766-0.9-1.766L21.184,8.517c0,0-0.438,0.063-0.548,0.126       c-0.271,0.152-0.737,0.446-0.735,0.651c0,0.014,0.009,0.035,0.011,0.044c0.15-0.362,0.439-0.332,0.439-0.332L32.6,10.81       c0,0,0.518-0.004,0.524,1.161c0.015,1.977,0.108,23.673,0.116,24.888c0.002,0.11-0.004,0.208-0.014,0.284       c-0.006,0.046-0.016,0.081-0.027,0.124c-0.004,0.021-0.01,0.051-0.018,0.076c-0.014,0.047-0.032,0.082-0.051,0.115       c-0.004,0.007-0.004,0.011-0.01,0.02c-0.023,0.037-0.047,0.063-0.07,0.084l0,0c0.153-0.064,1.051-0.452,1.047-0.836       C34.094,36.31,33.82,13.291,33.805,11.916z"/>
</g>
<polygon fill="#3D3D3D" points="20.662,16.12 32.047,18.06 32.067,20.019 20.677,18.113     "/>
</g>
<g>
<linearGradient id="XMLID_9_" gradientUnits="userSpaceOnUse" x1="-28.96" y1="-60.27" x2="-11.3613" y2="-42.0461" gradientTransform="matrix(1.1363 -0.0121 -0.0121 -1.1363 32.4167 -30.3922)">
<stop offset="0" style="stop-color:#B2DCFF"/>
<stop offset="0.1338" style="stop-color:#AFDAFD"/>
<stop offset="0.2458" style="stop-color:#A4D4F9"/>
<stop offset="0.35" style="stop-color:#93C9F3"/>
<stop offset="0.4494" style="stop-color:#7CBAEB"/>
<stop offset="0.4857" style="stop-color:#62A5D9"/>
<stop offset="0.5369" style="stop-color:#448DC4"/>
<stop offset="0.5936" style="stop-color:#2B79B3"/>
<stop offset="0.6569" style="stop-color:#186AA5"/>
<stop offset="0.7304" style="stop-color:#0A5F9C"/>
<stop offset="0.8234" style="stop-color:#025997"/>
<stop offset="1" style="stop-color:#005795"/>
</linearGradient>
<path fill="url(#XMLID_9_)" d="M12.17,30.181c-2.627-6.373,4.444-9.482,8.156-10.974c-0.482-1.129-0.323-1.28-0.804-2.413      C11.236,20.126,8.211,24.894,12.17,30.181"/>
<polygon fill="#005795" points="30.856,12.802 30.563,14.923 20.051,22.415 19.696,20.021     "/>
<path fill="#005795" d="M12.544,29.797c-1.561-0.703-5.021-6.635-5.021-6.635c-0.147,3.084,2.357,7.185,5.245,8.572      L12.544,29.797z"/>
<linearGradient id="XMLID_10_" gradientUnits="userSpaceOnUse" x1="-574.4307" y1="996.7559" x2="-580.7122" y2="978.5131" gradientTransform="matrix(-1.1363 0.0121 0.0121 1.1363 -649.9216 -1095.0718)">
<stop offset="0" style="stop-color:#3CB4FF"/>
<stop offset="0.2589" style="stop-color:#3AB1FC"/>
<stop offset="0.4438" style="stop-color:#35A9F3"/>
<stop offset="0.6057" style="stop-color:#2C9CE3"/>
<stop offset="0.7543" style="stop-color:#2088CD"/>
<stop offset="0.8926" style="stop-color:#106FB1"/>
<stop offset="1" style="stop-color:#005795"/>
</linearGradient>
<path fill="url(#XMLID_10_)" d="M12.391,29.77c-10.004-5.539-3.215-13.432,6.62-17.164l-0.233-3.238l12.071,3.434l-11.212,7.3      l-0.201-3.147C11.921,19.979,7.798,25.073,12.391,29.77z"/>
</g>
</g>
<g>
<polygon fill="#102F02" points="25.22,28.523 25.477,28.406 26.928,28.615 26.945,30.219 26.78,30.311 25.535,29.217    "/>
<linearGradient id="XMLID_11_" gradientUnits="userSpaceOnUse" x1="29.9365" y1="-119.647" x2="31.39" y2="-121.6585" gradientTransform="matrix(0.9999 -0.0107 -0.0107 -0.9999 -5.7796 -90.6625)">
<stop offset="0" style="stop-color:#F51D18"/>
<stop offset="0.0056" style="stop-color:#F51D18"/>
<stop offset="0.0972" style="stop-color:#ED1C17"/>
<stop offset="0.2366" style="stop-color:#D81A13"/>
<stop offset="0.4066" style="stop-color:#B6170E"/>
<stop offset="0.5989" style="stop-color:#861306"/>
<stop offset="0.6798" style="stop-color:#701102"/>
<stop offset="1" style="stop-color:#701102"/>
</linearGradient>
<polygon fill="url(#XMLID_11_)" points="26.78,30.311 25.236,30.081 25.22,28.523 26.764,28.753    "/>
</g>
<g>
<polygon fill="#102F02" points="25.276,25.728 25.534,25.609 26.984,25.819 27.001,27.422 26.837,27.515 25.592,26.422    "/>
<linearGradient id="XMLID_12_" gradientUnits="userSpaceOnUse" x1="30.0244" y1="-116.8511" x2="31.4781" y2="-118.8628" gradientTransform="matrix(0.9999 -0.0107 -0.0107 -0.9999 -5.7796 -90.6625)">
<stop offset="0" style="stop-color:#68D80B"/>
<stop offset="0.0056" style="stop-color:#68D80B"/>
<stop offset="0.1635" style="stop-color:#60D10A"/>
<stop offset="0.4037" style="stop-color:#4BBD06"/>
<stop offset="0.6798" style="stop-color:#2B9F00"/>
<stop offset="1" style="stop-color:#2B9F00"/>
</linearGradient>
<polygon fill="url(#XMLID_12_)" points="26.837,27.515 25.293,27.284 25.276,25.728 26.821,25.959    "/>
</g>
</g>
</g>
</svg>
