<?xml version="1.0" encoding="UTF-8"?>
<!DOCTYPE svg PUBLIC "-//W3C//DTD SVG 1.1 Tiny//EN" "http://www.w3.org/Graphics/SVG/1.1/DTD/svg11-tiny.dtd">
<svg xmlns="http://www.w3.org/2000/svg" xmlns:xlink="http://www.w3.org/1999/xlink" baseProfile="tiny" height="72" version="1.1" viewBox="0 0 83.999 72" width="83.999">
<rect fill="none" height="72" width="83.999"/>
<path d="M21.352,50.689c-1.078-14.983-1.703-29.983-1.109-40.953c0.112-2.063,1.538-3.394,3.085-3.478  c2.089-0.352,24.655,0.894,24.655,0.894l10.535,13.654l-0.303,39.86c-2.881,0.883-2.363,1.606-6.084,0.789  c-7.25-1.595-14.593-3.328-28.515-6.922C21.647,54.025,21.446,52.001,21.352,50.689z" fill="#FFFFFF"/>
<path d="M47.538,10.646c-0.354-0.398-18.581-1.807-23.295-1.782c-0.306,0-1.197,0.399-1.197,0.399l30.18,49.989  c1.453-0.625,1.896-1.19,2-2.344c0.119-1.287,0.48-35.658,0.48-35.986C55.706,20.618,48.196,11.398,47.538,10.646z" fill="#717171"/>
<radialGradient cx="22.8677" cy="9.4863" gradientUnits="userSpaceOnUse" id="XMLID_4_" r="58.2698">
<stop offset="0" stop-color="#F3F3F3"/>
<stop offset="0.1838" stop-color="#ECECEC"/>
<stop offset="0.4421" stop-color="#D9D9D9"/>
<stop offset="0.7474" stop-color="#B9B9B9"/>
<stop offset="1" stop-color="#9A9A9A"/>
</radialGradient>
<path d="M46.907,11.021l8.139,10.276c0.051,0.563-0.238,33.931-0.537,36.037  c-0.299,2.104-1.877,2.246-2.955,2.013c-7.25-1.578-16.374-3.642-26.327-6.156c-1.708-0.45-2.687-1.69-2.797-3.375  c-0.641-10.875-1-20.625-0.797-38.109c0.047-1.877,0.827-2.605,2.633-2.584C29.943,9.355,42.52,10.412,46.907,11.021z" fill="url(#XMLID_4_)"/>
<path d="M49.911,44.829l-0.531-0.093l-0.026,3.684l3.171,0.589l0.005-0.456L49.911,44.829z M24.932,47.612   l-0.545-0.108l0.075,3.401l3.145,0.668L27.598,51.1L24.932,47.612z M27.467,43.872l-2.693-3.436l-0.545-0.095l0.075,3.396   l3.172,0.593L27.467,43.872z M26.943,14.972l-2.803-3.244l-0.543-0.042l0.074,3.4l3.278,0.291L26.943,14.972z M49.965,37.06   l-0.532-0.08l-0.026,3.682l3.197,0.516l0.004-0.442L49.965,37.06z M27.337,36.648l-2.721-3.39l-0.545-0.081l0.076,3.401   l3.197,0.515L27.337,36.648z M27.074,22.196l-2.776-3.292l-0.542-0.055l0.074,3.4l3.252,0.365L27.074,22.196z M27.206,29.422   l-2.748-3.342l-0.545-0.068l0.074,3.401l3.226,0.44L27.206,29.422z M49.857,52.602l-0.532-0.106l-0.021,3.685l3.142,0.668   l0.005-0.47L49.857,52.602z M50.068,21.513l-0.533-0.054l-0.023,3.683l3.249,0.365l0.004-0.417L50.068,21.513z M50.018,29.285   l-0.532-0.067l-0.026,3.683l3.223,0.44l0.005-0.43L50.018,29.285z" fill="#717171"/>
<path d="M24.365,21.892l2.709,0.304l-0.032-3.019l-2.744-0.273L24.365,21.892z M24.838,43.381l2.629,0.491   l-0.029-2.977l-2.664-0.459L24.838,43.381z M24.522,29.056l2.684,0.366l-0.033-3.006l-2.715-0.336L24.522,29.056z M24.682,36.221   l2.655,0.428l-0.032-2.992l-2.688-0.398L24.682,36.221z M24.207,14.729l2.736,0.243l-0.031-3.032l-2.771-0.211L24.207,14.729z    M49.965,37.06l-0.023,3.244l2.666,0.431l0.059-3.275L49.965,37.06z M50.018,29.285l-0.023,3.259l2.692,0.368l0.059-3.289   L50.018,29.285z M50.068,21.513l-0.021,3.272l2.718,0.305l0.06-3.303L50.068,21.513z M49.857,52.602l-0.019,3.221l2.611,0.556   l0.056-3.252L49.857,52.602z M49.911,44.829l-0.022,3.234l2.641,0.489l0.059-3.261L49.911,44.829z M24.932,47.612l0.064,2.936   l2.602,0.552l-0.028-2.967L24.932,47.612z" fill="#FFFFFF"/>
<path d="M44.831,18.426c0.211,0.658-0.402,2.708,10.221,3.883l-0.006-1.011L44.831,18.426z"/>
<linearGradient gradientUnits="userSpaceOnUse" id="XMLID_5_" x1="54.9702" x2="44.812" y1="21.52" y2="14.0835">
<stop offset="0" stop-color="#404040"/>
<stop offset="1" stop-color="#9C9C9C"/>
</linearGradient>
<path d="M55.132,21.298l-8.188-10.276c-1.732,1.361-2.506,6.5-2.082,7.508  C45.71,20.455,53.585,21.204,55.132,21.298z" fill="url(#XMLID_5_)"/>
<linearGradient gradientUnits="userSpaceOnUse" id="XMLID_6_" x1="40.4478" x2="52.1051" y1="2.7344" y2="58.3812">
<stop offset="0" stop-color="#222221"/>
<stop offset="0.0929" stop-color="#BFBFC0"/>
<stop offset="0.1264" stop-color="#FFFFFF"/>
<stop offset="0.197" stop-color="#FFFFFF"/>
<stop offset="0.3034" stop-color="#E9E9E9"/>
<stop offset="0.4944" stop-color="#A4A4A4"/>
<stop offset="0.7435" stop-color="#646464"/>
<stop offset="1" stop-color="#3D3D3D"/>
</linearGradient>
<path d="M23.422,6.235c4.74,0.047,22.922,1.079,24.306,1.877c2.159,1.243,9.806,11.074,10.228,13.255  c0.402,2.065-0.165,32.728-0.586,38.173c-0.027,0.348-0.127,1.541-1.358,1.97c0,0,1.899-0.68,2.906-1.125  c0.987-0.423,1.646-0.729,1.971-1.784c0.949-3.834,1.224-35.398,0.963-38.431c-0.188-2.182-8.213-11.801-9.712-12.787  c-1.831-1.218-18.51-1.829-23.907-2.087C26.964,5.273,24.689,5.86,23.422,6.235z" fill="url(#XMLID_6_)"/>
</svg>
