<?xml version="1.0" encoding="UTF-8"?>
<!DOCTYPE svg PUBLIC "-//W3C//DTD SVG 1.1 Tiny//EN" "http://www.w3.org/Graphics/SVG/1.1/DTD/svg11-tiny.dtd">
<svg baseProfile="tiny" version="1.0" xmlns="http://www.w3.org/2000/svg" xmlns:xlink="http://www.w3.org/1999/xlink" width="100%" height="100%" viewBox="0 0 21 21">
<g>
<rect fill="none" width="21" height="21"/>
<g>
<linearGradient id="XMLID_5_" gradientUnits="userSpaceOnUse" x1="-376.5962" y1="280.3848" x2="-369.1521" y2="260.9922" gradientTransform="matrix(1 0 0 -1 379.2793 280.7715)">
<stop offset="0" style="stop-color:#E9E9E9"/>
<stop offset="0.0056" style="stop-color:#E9E9E9"/>
<stop offset="0.1191" style="stop-color:#E2E2E2"/>
<stop offset="0.2885" style="stop-color:#CDCDCD"/>
<stop offset="0.4927" style="stop-color:#ACACAC"/>
<stop offset="0.724" style="stop-color:#7E7E7E"/>
<stop offset="0.9752" style="stop-color:#434343"/>
<stop offset="1" style="stop-color:#3D3D3D"/>
</linearGradient>
<path fill="url(#XMLID_5_)" d="M10.359,3.445L3.066,2.639c0,0-0.319-0.035-0.322,0.375c-0.003,0.632,0.002,14.478,0,14.829    c-0.002,0.332,0.232,0.378,0.232,0.378l7.351,1.445c0,0,0.249,0.059,0.251-0.315c0.003-0.511,0.084-14.59,0.087-15.416    C10.669,3.447,10.359,3.445,10.359,3.445z"/>
<polygon fill="#3D3D3D" points="3.247,4.25 10.025,4.995 10.025,6.088 3.243,5.356   "/>
<polygon fill="#3D3D3D" points="3.247,6.999 10.025,7.743 10.025,8.837 3.243,8.105   "/>
<polygon fill="#3D3D3D" points="3.247,9.748 10.025,10.492 10.025,11.585 3.243,10.854   "/>
<linearGradient id="XMLID_6_" gradientUnits="userSpaceOnUse" x1="-369.7485" y1="283.4189" x2="-364.5975" y2="261.1074" gradientTransform="matrix(1 0 0 -1 379.2793 280.7715)">
<stop offset="0" style="stop-color:#000000"/>
<stop offset="0.0056" style="stop-color:#000000"/>
<stop offset="0.1404" style="stop-color:#3D3D3D"/>
<stop offset="0.2303" style="stop-color:#FFFFFF"/>
<stop offset="0.2865" style="stop-color:#FFFFFF"/>
<stop offset="0.5112" style="stop-color:#E9E9E9"/>
<stop offset="0.567" style="stop-color:#E2E2E2"/>
<stop offset="0.6503" style="stop-color:#CDCDCD"/>
<stop offset="0.7506" style="stop-color:#ACACAC"/>
<stop offset="0.8643" style="stop-color:#7E7E7E"/>
<stop offset="0.9878" style="stop-color:#434343"/>
<stop offset="1" style="stop-color:#3D3D3D"/>
</linearGradient>
<path fill="url(#XMLID_6_)" d="M17.676,1.145c-0.596-0.057-6.274-0.407-7.372-0.516c0,0-0.314-0.038-0.711-0.017    c-0.396,0.022-5.491,0.574-5.939,0.62C3.09,1.288,2.75,1.51,2.659,1.615C2.81,1.48,3.004,1.496,3.004,1.496    c1.53,0.081,7.851,0.746,7.851,0.746s0.958-0.072,1,0.914v0.008c0,0,0,15.454,0,16.459c0,0.358-0.125,0.594-0.282,0.753    c1.511-0.617,6.123-2.542,6.123-2.542c0.59-0.218,0.662-1.016,0.662-1.016l0.078-14.871C18.437,1.947,18.406,1.216,17.676,1.145z"/>
<path fill="#FFFFFF" d="M10.855,2.242c0,0-6.321-0.665-7.851-0.746c0,0-0.52-0.048-0.52,0.606C2.478,2.9,2.491,17.01,2.484,18.34    c-0.005,0.757,0.556,0.729,0.556,0.729l7.85,1.625c0,0,0.966-0.067,0.966-1.072s0-16.459,0-16.459V3.155    C11.813,2.169,10.855,2.242,10.855,2.242z M10.578,19.351c-0.002,0.374-0.251,0.313-0.251,0.313l-7.351-1.443    c0,0-0.234-0.046-0.232-0.378c0.002-0.351-0.003-14.197,0-14.829c0.002-0.411,0.322-0.375,0.322-0.375l7.293,0.806    c0,0,0.31,0.002,0.306,0.49C10.662,4.76,10.581,18.84,10.578,19.351z"/>
<path fill="#3D3D3D" d="M11.072,3.916c0-0.654-0.525-0.743-0.525-0.743L3.566,2.436c0,0-0.263,0.025-0.329,0.05    c-0.162,0.063-0.442,0.183-0.442,0.27c0,0.005,0.005,0.013,0.006,0.018c0.093-0.153,0.264-0.135,0.264-0.135l7.293,0.806    c0,0,0.31,0.002,0.307,0.49c-0.005,0.825-0.085,14.905-0.089,15.414c0,0.046-0.004,0.086-0.01,0.119    c-0.003,0.019-0.009,0.033-0.017,0.051c-0.003,0.009-0.007,0.023-0.012,0.033c-0.008,0.019-0.019,0.033-0.031,0.047    c-0.001,0.001-0.002,0.006-0.006,0.008c-0.014,0.015-0.028,0.026-0.043,0.034l0,0c0.093-0.024,0.63-0.184,0.63-0.343    C11.089,19.125,11.072,4.493,11.072,3.916z"/>
<g>
<polygon fill="#102F02" points="6.014,12.937 6.193,12.856 7.199,12.939 7.199,14.054 7.085,14.117 6.227,13.422    "/>
<linearGradient id="XMLID_7_" gradientUnits="userSpaceOnUse" x1="-373.104" y1="267.7617" x2="-372.1293" y2="266.4128" gradientTransform="matrix(1 0 0 -1 379.2793 280.7715)">
<stop offset="0" style="stop-color:#68D80B"/>
<stop offset="0.0056" style="stop-color:#68D80B"/>
<stop offset="0.1573" style="stop-color:#68D80B"/>
<stop offset="0.2796" style="stop-color:#60D10A"/>
<stop offset="0.4658" style="stop-color:#4BBD06"/>
<stop offset="0.6798" style="stop-color:#2B9F00"/>
<stop offset="1" style="stop-color:#2B9F00"/>
</linearGradient>
<rect x="6.011" y="12.986" fill="url(#XMLID_7_)" width="1.077" height="1.083"/>
</g>
<polygon fill="#102F02" points="6.014,15.431 6.193,15.35 7.199,15.434 7.199,16.546 7.085,16.611 6.227,15.915   "/>
<linearGradient id="XMLID_8_" gradientUnits="userSpaceOnUse" x1="-373.104" y1="265.2686" x2="-372.1298" y2="263.9204" gradientTransform="matrix(1 0 0 -1 379.2793 280.7715)">
<stop offset="0" style="stop-color:#F51D18"/>
<stop offset="0.0056" style="stop-color:#F51D18"/>
<stop offset="0.1573" style="stop-color:#F51D18"/>
<stop offset="0.2283" style="stop-color:#ED1C17"/>
<stop offset="0.3363" style="stop-color:#D81A13"/>
<stop offset="0.4681" style="stop-color:#B6170E"/>
<stop offset="0.6171" style="stop-color:#861306"/>
<stop offset="0.6798" style="stop-color:#701102"/>
<stop offset="1" style="stop-color:#701102"/>
</linearGradient>
<rect x="6.011" y="15.479" fill="url(#XMLID_8_)" width="1.077" height="1.082"/>
</g>
</g>
</svg>
