<?xml version="1.0" encoding="utf-8"?>
<!-- Generator: Adobe Illustrator 12.0.1, SVG Export Plug-In . SVG Version: 6.00 Build 51448)  -->
<!DOCTYPE svg PUBLIC "-//W3C//DTD SVG 1.1//EN" "http://www.w3.org/Graphics/SVG/1.1/DTD/svg11.dtd" [
	<!ENTITY ns_svg "http://www.w3.org/2000/svg">
	<!ENTITY ns_xlink "http://www.w3.org/1999/xlink">
]>
<svg  version="1.1" id="Layer_1" xmlns="&ns_svg;" xmlns:xlink="&ns_xlink;" width="26" height="26" viewBox="0 0 26 26"
	 overflow="visible" enable-background="new 0 0 26 26" xml:space="preserve">
<g>
	<rect x="3.006" y="2.989" width="0.984" height="1"/>
	<rect x="5.005" y="2.989" width="0.984" height="1"/>
	<rect x="7.005" y="2.989" width="0.984" height="1"/>
	<rect x="9.005" y="2.989" width="0.984" height="1"/>
	<rect x="11.005" y="2.989" width="0.984" height="1"/>
	<rect x="12.005" y="3.989" width="0.984" height="1"/>
	<rect x="3.006" y="4.989" width="0.984" height="1"/>
	<rect x="12.005" y="5.989" width="0.984" height="1"/>
	<rect x="3.006" y="6.989" width="0.984" height="1"/>
	<rect x="12.005" y="7.989" width="0.984" height="1"/>
	<rect x="3.006" y="8.989" width="0.984" height="1"/>
	<rect x="12.005" y="9.989" width="0.984" height="1"/>
	<rect x="3.006" y="10.989" width="0.984" height="1"/>
	<rect x="4.005" y="11.989" width="0.984" height="1"/>
	<rect x="6.005" y="11.989" width="0.984" height="1"/>
	<rect x="8.005" y="11.989" width="0.984" height="1"/>
	<rect x="10.005" y="11.989" width="0.984" height="1"/>
	<rect x="12.005" y="11.989" width="0.984" height="1"/>
</g>
</svg>
