<?xml version="1.0" encoding="UTF-8"?>
<!DOCTYPE svg PUBLIC "-//W3C//DTD SVG 1.1 Tiny//EN" "http://www.w3.org/Graphics/SVG/1.1/DTD/svg11-tiny.dtd">
<svg baseProfile="tiny" version="1.0" xmlns="http://www.w3.org/2000/svg" xmlns:xlink="http://www.w3.org/1999/xlink" width="100%" height="100%" viewBox="0 0 21 21">
<g>
<rect fill="none" width="21" height="21"/>
<g>
<g>
<path fill="#FFFFFF" d="M4.214,2.083c-1.498-0.035-2.55,0.415-2.539,2.524v11.987c-0.011,2.071,0.867,2.483,2.539,2.523h12.693     c1.941,0.065,2.538-0.799,2.539-2.523V4.607c-0.001-1.866-0.877-2.56-2.539-2.524H4.214z"/>
<path fill="url(#XMLID_2_)" d="M18.895,17.235c0,0.763-0.62,1.388-1.386,1.388H3.647c-0.767,0-1.387-0.625-1.387-1.388V4.064     c0-0.764,0.621-1.385,1.387-1.385h13.861c0.766,0,1.386,0.621,1.386,1.385V17.235z"/>
<rect x="3.647" y="11.69" fill="#FFFFFF" width="2.079" height="2.08"/>
<rect x="3.647" y="15.85" fill="#FFFFFF" width="2.079" height="2.079"/>
<rect x="15.43" y="7.531" fill="#FFFFFF" width="2.079" height="2.081"/>
<rect x="15.43" y="3.373" fill="#FFFFFF" width="2.079" height="2.079"/>
<rect x="15.43" y="11.69" fill="#FFFFFF" width="2.079" height="2.08"/>
<rect x="15.43" y="15.85" fill="#FFFFFF" width="2.079" height="2.079"/>
<rect x="7.112" y="2.68" fill="#CBCBCB" width="6.932" height="4.157"/>
<rect x="7.112" y="8.223" fill="#CBCBCB" width="6.932" height="4.854"/>
<rect x="7.112" y="14.464" fill="#CBCBCB" width="6.932" height="4.159"/>
<defs>
<linearGradient id="XMLID_2_" gradientUnits="userSpaceOnUse" x1="2.2061" y1="3.626" x2="18.9491" y2="17.675">
<stop offset="0" style="stop-color:#AFAFAE"/>
<stop offset="1" style="stop-color:#121212"/>
</linearGradient>
</defs>
</g>
<rect x="3.628" y="7.524" fill="#FFFFFF" width="2.078" height="2.081"/>
<rect x="3.628" y="3.365" fill="#FFFFFF" width="2.078" height="2.08"/>
</g>
</g>
</svg>
