<?xml version="1.0" encoding="utf-8"?>
<!-- Generator: Adobe Illustrator 12.0.1, SVG Export Plug-In . SVG Version: 6.00 Build 51448)  -->
<!DOCTYPE svg PUBLIC "-//W3C//DTD SVG 1.1//EN" "http://www.w3.org/Graphics/SVG/1.1/DTD/svg11.dtd" [
	<!ENTITY ns_svg "http://www.w3.org/2000/svg">
	<!ENTITY ns_xlink "http://www.w3.org/1999/xlink">
]>
<svg  version="1.1" id="Layer_1" xmlns="&ns_svg;" xmlns:xlink="&ns_xlink;" width="26" height="26" viewBox="0 0 26 26"
	 overflow="visible" enable-background="new 0 0 26 26" xml:space="preserve">
<rect x="12.993" y="22.001" width="1" height="0.984"/>
<rect x="12.993" y="20.001" width="1" height="0.984"/>
<rect x="12.993" y="18.001" width="1" height="0.984"/>
<rect x="12.993" y="16.001" width="1" height="0.984"/>
<rect x="12.993" y="14.001" width="1" height="0.984"/>
<rect x="13.993" y="21.001" width="1" height="0.984"/>
<rect x="13.993" y="19.001" width="1" height="0.984"/>
<rect x="13.993" y="17.001" width="1" height="0.984"/>
<rect x="13.993" y="15.001" width="1" height="0.984"/>
<rect x="13.993" y="13.002" width="1" height="0.983"/>
<rect x="14.993" y="22.001" width="1" height="0.984"/>
<rect x="14.993" y="20.001" width="1" height="0.984"/>
<rect x="14.993" y="18.001" width="1" height="0.984"/>
<rect x="14.993" y="16.001" width="1" height="0.984"/>
<rect x="14.993" y="14.001" width="1" height="0.984"/>
<rect x="15.993" y="21.001" width="1" height="0.984"/>
<rect x="15.993" y="19.001" width="1" height="0.984"/>
<rect x="15.993" y="17.001" width="1" height="0.984"/>
<rect x="15.993" y="15.001" width="1" height="0.984"/>
<rect x="15.993" y="13.002" width="1" height="0.983"/>
<rect x="16.993" y="22.001" width="1" height="0.984"/>
<rect x="16.993" y="20.001" width="1" height="0.984"/>
<rect x="16.993" y="18.001" width="1" height="0.984"/>
<rect x="16.993" y="16.001" width="1" height="0.984"/>
<rect x="16.993" y="14.001" width="1" height="0.984"/>
<rect x="17.993" y="21.001" width="1" height="0.984"/>
<rect x="17.993" y="19.001" width="1" height="0.984"/>
<rect x="17.993" y="17.001" width="1" height="0.984"/>
<rect x="17.993" y="15.001" width="1" height="0.984"/>
<rect x="17.993" y="13.002" width="1" height="0.983"/>
<rect x="18.993" y="22.001" width="1" height="0.984"/>
<rect x="18.993" y="20.001" width="1" height="0.984"/>
<rect x="18.993" y="18.001" width="1" height="0.984"/>
<rect x="18.993" y="16.001" width="1" height="0.984"/>
<rect x="18.993" y="14.001" width="1" height="0.984"/>
<rect x="19.993" y="21.001" width="1" height="0.984"/>
<rect x="19.993" y="19.001" width="1" height="0.984"/>
<rect x="19.993" y="17.001" width="1" height="0.984"/>
<rect x="19.993" y="15.001" width="1" height="0.984"/>
<rect x="19.993" y="13.002" width="1" height="0.983"/>
<rect x="20.993" y="22.001" width="1" height="0.984"/>
<rect x="20.993" y="20.001" width="1" height="0.984"/>
<rect x="20.993" y="18.001" width="1" height="0.984"/>
<rect x="20.993" y="16.001" width="1" height="0.984"/>
<rect x="20.993" y="14.001" width="1" height="0.984"/>
<rect x="21.993" y="21.001" width="1" height="0.984"/>
<rect x="21.993" y="19.001" width="1" height="0.984"/>
<rect x="21.993" y="17.001" width="1" height="0.984"/>
<rect x="21.993" y="15.001" width="1" height="0.984"/>
<rect x="21.993" y="13.002" width="1" height="0.983"/>
<g>
	<rect x="2.997" y="2.975" width="0.984" height="1"/>
	<rect x="4.997" y="2.975" width="0.984" height="1"/>
	<rect x="6.997" y="2.975" width="0.984" height="1"/>
	<rect x="8.996" y="2.975" width="0.984" height="1"/>
	<rect x="10.996" y="2.975" width="0.984" height="1"/>
	<rect x="11.996" y="3.975" width="0.984" height="1"/>
	<rect x="2.997" y="4.975" width="0.984" height="1"/>
	<rect x="11.996" y="5.975" width="0.984" height="1"/>
	<rect x="2.997" y="6.975" width="0.984" height="1"/>
	<rect x="11.996" y="7.975" width="0.984" height="1"/>
	<rect x="2.997" y="8.975" width="0.984" height="1"/>
	<rect x="11.996" y="9.975" width="0.984" height="1"/>
	<rect x="2.997" y="10.975" width="0.984" height="1"/>
	<rect x="3.997" y="11.974" width="0.984" height="1"/>
	<rect x="5.997" y="11.974" width="0.984" height="1"/>
	<rect x="7.997" y="11.974" width="0.984" height="1"/>
	<rect x="9.996" y="11.974" width="0.984" height="1"/>
	<rect x="11.996" y="11.974" width="0.984" height="1"/>
</g>
</svg>
