<?xml version="1.0" encoding="UTF-8"?>
<!DOCTYPE svg PUBLIC "-//W3C//DTD SVG 1.1 Tiny//EN" "http://www.w3.org/Graphics/SVG/1.1/DTD/svg11-tiny.dtd">
<svg baseProfile="tiny" height="20px" version="1.1" viewBox="0 0 20 20" width="20px" x="0px" xmlns="http://www.w3.org/2000/svg" xmlns:xlink="http://www.w3.org/1999/xlink" y="0px">
<rect fill="none" height="20" width="20"/>
<rect fill="none" fill-rule="evenodd" height="20" width="20"/>
<path d="M12,18H0V2h12c4.42,0,8,3.581,8,8  C20,14.42,16.42,18,12,18z" fill="url(#SVGID_1_)" fill-opacity="0.9" fill-rule="evenodd" stroke-opacity="0.9"/>
<path d="M20,10c0,4.42-3.58,8-8,8H0v-1.001h12.001  C15.86,16.999,19,13.859,19,10s-3.14-6.999-6.999-6.999h-11H0V2h12C16.42,2,20,5.581,20,10z" fill-opacity="0.2" fill-rule="evenodd" stroke-opacity="0.2"/>
<defs>
<linearGradient gradientTransform="matrix(0 -1 1 0 594 -1682)" gradientUnits="userSpaceOnUse" id="SVGID_1_" x1="-1684.5" x2="-1700" y1="-584.0005" y2="-584.0005">
<stop offset="0" style="stop-color:#DCDCDC"/>
<stop offset="0.2" style="stop-color:#FFFFFF"/>
<stop offset="0.8" style="stop-color:#FFFFFF"/>
<stop offset="1" style="stop-color:#DCDCDC"/>
</linearGradient>
</defs>
</svg>
