<?xml version="1.0" encoding="UTF-8"?>
<!DOCTYPE svg PUBLIC "-//W3C//DTD SVG 1.1 Tiny//EN" "http://www.w3.org/Graphics/SVG/1.1/DTD/svg11-tiny.dtd">
<svg baseProfile="tiny" height="10px" version="1.1" viewBox="0 0 10 10" width="10px" x="0px" xmlns="http://www.w3.org/2000/svg" xmlns:xlink="http://www.w3.org/1999/xlink" y="0px">
<rect fill="none" height="10" width="10"/>
<path d="M0,0v9h4c2.757,0,5-2.243,5-5V0H0z" fill="url(#SVGID_1_)"/>
<path d="M7,0v4c0,1.654-1.346,3-3,3H0v2h4c2.757,0,5-2.243,5-5V0H7z" fill="#5A5A64" fill-opacity="0.2" stroke-opacity="0.2"/>
<path d="M8,0v4c0,2.206-1.794,4-4,4H0v1h4c2.757,0,5-2.243,5-5V0H8z" fill="#5A5A64" fill-opacity="0.3" stroke-opacity="0.3"/>
<path d="M9,0v4c0,2.757-2.243,5-5,5H0v1h4c3.3,0,6-2.7,6-6V0H9z" fill="#FFFFFF"/>
<path d="M8,0v4c0,1.104-0.897,2-2,2H0v3h4c2.757,0,5-2.243,5-5V0H8z" fill-opacity="0.1" stroke-opacity="0.1"/>
<defs>
<linearGradient gradientUnits="userSpaceOnUse" id="SVGID_1_" x1="4.5" x2="4.5" y1="-58.9995" y2="8.863">
<stop offset="0" style="stop-color:#CCCCCC"/>
<stop offset="0.0043" style="stop-color:#CCCCCC"/>
<stop offset="0.35" style="stop-color:#FFFFFF"/>
<stop offset="0.7" style="stop-color:#FFFFFF"/>
<stop offset="1" style="stop-color:#D9D9D9"/>
</linearGradient>
</defs>
</svg>
