<?xml version="1.0" encoding="UTF-8"?>
<!DOCTYPE svg PUBLIC "-//W3C//DTD SVG 1.1 Tiny//EN" "http://www.w3.org/Graphics/SVG/1.1/DTD/svg11-tiny.dtd">
<svg baseProfile="tiny" height="30px" version="1.1" viewBox="0 0 30 30" width="30px" x="0px" xmlns="http://www.w3.org/2000/svg" xmlns:xlink="http://www.w3.org/1999/xlink" y="0px">
<g fill-opacity="0.5" stroke-opacity="0.5">
<rect fill="none" height="30" width="30"/>
</g>
<path d="M11.754,27.735c0-2.09,1.728-3.834,4-4.196V23H9.5v-2h6.254v-3H9.5v-2h6.535c0.116-0.2,0.258-0.386,0.439-0.537  C16.836,15.161,17.29,15,17.754,15c0.121,0,0.242,0.011,0.363,0.033l3.637,0.671c0.128-0.376,0.367-0.71,0.693-0.953l1.504-1.127  c0.171-0.128,0.356-0.222,0.549-0.287V3c0-1.104-0.896-2-2-2h-18c-1.104,0-2,0.896-2,2v24c0,1.104,0.896,2,2,2h7.498  C11.854,28.598,11.754,28.179,11.754,27.735z M9.5,6h11v2h-11V6z M9.5,11h11v2h-11V11z M8.5,23h-2v-2h2V23z M8.5,18h-2v-2h2V18z   M8.5,13h-2v-2h2V13z M8.5,8h-2V6h2V8z"/>
<path d="M24.26,24.775l-1.51-1.131c-0.131-0.099-0.249-0.212-0.351-0.336c-0.003-0.001-0.646-0.119-0.646-0.119v4.546  c0,0.44-0.108,0.861-0.266,1.265H22.5c1.104,0,2-0.896,2-2v-2.091C24.42,24.865,24.336,24.832,24.26,24.775z"/>
<path d="M22.754,21.34l-3-0.554c0,2.007,0,6.882,0,6.949c0,1.25-1.537,2.265-3.125,2.265s-2.875-1.015-2.875-2.265  s1.287-2.265,2.875-2.265c0.399,0,0.779,0.064,1.125,0.18V17l0,0l5,0.923V21.34z M23.948,22.043c1.515-1.627,1.454-4.08-0.22-5.623  c-0.027-0.023-0.055-0.045-0.083-0.068l1.505-1.127c2.319,2.195,2.424,5.646,0.309,7.949L23.948,22.043z M27.81,24.938l-1.499-1.123  c2.397-2.723,2.344-6.672-0.146-9.352l1.494-1.121C30.728,16.674,30.781,21.564,27.81,24.938z"/>
</svg>
