<?xml version="1.0" encoding="UTF-8"?>
<!DOCTYPE svg PUBLIC "-//W3C//DTD SVG 1.1 Tiny//EN" "http://www.w3.org/Graphics/SVG/1.1/DTD/svg11-tiny.dtd">
<svg baseProfile="tiny" height="30" viewBox="0 0 30 30" width="30" xmlns="http://www.w3.org/2000/svg" xmlns:xlink="http://www.w3.org/1999/xlink">
<g>
<rect fill="none" height="30" width="30"/>
<rect fill-opacity="0.6" height="12" width="8" x="1" y="15"/>
<linearGradient gradientUnits="userSpaceOnUse" id="SVGID_1_" x1="5" x2="5" y1="16" y2="26.1378">
<stop offset="0" style="stop-color:#A8835F"/>
<stop offset="1" style="stop-color:#9A5047"/>
</linearGradient>
<rect fill="url(#SVGID_1_)" height="10" width="6" x="2" y="16"/>
<rect fill-opacity="0.6" height="18" width="8" x="11" y="9"/>
<linearGradient gradientUnits="userSpaceOnUse" id="SVGID_2_" x1="14.9995" x2="14.9995" y1="4" y2="26.0007">
<stop offset="0" style="stop-color:#C4C4C4"/>
<stop offset="1" style="stop-color:#4F4F4F"/>
</linearGradient>
<rect fill="url(#SVGID_2_)" height="16" width="6" x="12" y="10"/>
<polygon fill="#FFFFFF" fill-opacity="0.3" points="18,12.39 18,10 15.61,10 " stroke-opacity="0.3"/>
<polygon fill="#FFFFFF" fill-opacity="0.3" points="12,17.703 18,23.703 18,18.047 12,12.047 " stroke-opacity="0.3"/>
<polygon fill="#FFFFFF" fill-opacity="0.3" points="12,23.36 12,26 14.64,26 " stroke-opacity="0.3"/>
<rect fill-opacity="0.6" height="24" width="8" x="21" y="3"/>
<linearGradient gradientUnits="userSpaceOnUse" id="SVGID_3_" x1="25" x2="25" y1="4" y2="26.0005">
<stop offset="0" style="stop-color:#C4C4C4"/>
<stop offset="1" style="stop-color:#4F4F4F"/>
</linearGradient>
<rect fill="url(#SVGID_3_)" height="22" width="6" x="22" y="4"/>
<polygon fill="#FFFFFF" fill-opacity="0.3" points="28,9.64 28,4 22.36,4 " stroke-opacity="0.3"/>
<polygon fill="#FFFFFF" fill-opacity="0.3" points="22,14.953 28,20.953 28,15.297 22,9.297 " stroke-opacity="0.3"/>
<polygon fill="#FFFFFF" fill-opacity="0.3" points="22,20.61 22,26 27.39,26 " stroke-opacity="0.3"/>
<rect fill="#FFFFFF" fill-opacity="0.4" height="1" stroke-opacity="0.4" width="6" x="2" y="16"/>
<rect fill="#FFFFFF" fill-opacity="0.4" height="1" stroke-opacity="0.4" width="6" x="12" y="10"/>
<rect fill="#FFFFFF" fill-opacity="0.4" height="1" stroke-opacity="0.4" width="6" x="22" y="4"/>
<rect fill="none" height="30" width="30"/>
</g>
</svg>
