<?xml version="1.0" encoding="UTF-8"?>
<!DOCTYPE svg PUBLIC "-//W3C//DTD SVG 1.1 Tiny//EN" "http://www.w3.org/Graphics/SVG/1.1/DTD/svg11-tiny.dtd">
<svg baseProfile="tiny" height="30px" version="1.1" viewBox="0 0 30 30" width="30px" x="0px" xmlns="http://www.w3.org/2000/svg" xmlns:xlink="http://www.w3.org/1999/xlink" y="0px">
<path d="M16.286,10.968V7.253h-3.71v2.706h-1.24V7.253H7.623v3.715h2.708l-0.011,1.25l-2.712,0.017l0.015,3.687l3.688-0.014  l0.009-2.695h1.256v2.707h3.712v-3.715h-2.709v-1.236H16.286z M12.589,12.204h-0.013v0.018H11.32v-1.254h0.016v-0.015h1.24v0.015  h0.013V12.204z"/>
<polygon points="11.968,2.9 17.887,8.8 18.582,8.104 11.931,1.435 5.278,8.087 6.048,8.837 "/>
<polygon points="24.72,22.266 24.72,24.532 20.62,24.532 20.62,24.532 15.057,24.532 16.946,22.266 "/>
<polygon points="6.614,22.266 11.55,22.266 9.636,24.532 6.614,24.532 "/>
<polygon points="24.72,17.593 24.72,19.86 18.954,19.86 20.849,17.593 "/>
<polygon points="6.614,19.86 6.614,17.591 15.486,17.591 13.574,19.86 "/>
<polygon points="21.65,15.058 21.719,15.116 21.673,15.172 11.362,27.458 10.432,28.565 8.696,27.106 10.021,25.528 19.981,13.659   "/>
<rect fill="none" height="30" width="30"/>
</svg>
