<?xml version="1.0" encoding="UTF-8"?>
<!DOCTYPE svg PUBLIC "-//W3C//DTD SVG 1.1 Tiny//EN" "http://www.w3.org/Graphics/SVG/1.1/DTD/svg11-tiny.dtd">
<svg baseProfile="tiny" height="60" viewBox="0 0 60 60" width="60" xmlns="http://www.w3.org/2000/svg" xmlns:xlink="http://www.w3.org/1999/xlink">
<g>
<linearGradient gradientUnits="userSpaceOnUse" id="SVGID_1_" x1="29.9995" x2="29.9995" y1="19.1738" y2="39.8846">
<stop offset="0" style="stop-color:#ABB0AF"/>
<stop offset="0.3879" style="stop-color:#FFFFFF"/>
<stop offset="1" style="stop-color:#A4A6A6"/>
</linearGradient>
<rect fill="url(#SVGID_1_)" height="20.795" width="56" x="2" y="19.068"/>
<linearGradient gradientUnits="userSpaceOnUse" id="SVGID_2_" x1="30.0005" x2="30.0005" y1="22.8101" y2="37.2885">
<stop offset="0" style="stop-color:#AAABAC"/>
<stop offset="1" style="stop-color:#000000"/>
</linearGradient>
<rect fill="url(#SVGID_2_)" height="14.537" width="47.479" x="6.262" y="22.736"/>
<rect fill="#222021" fill-opacity="0.2" height="14.562" stroke-opacity="0.2" width="1.068" x="52.658" y="22.657"/>
<rect fill="#222021" fill-opacity="0.2" height="14.562" stroke-opacity="0.2" width="1.068" x="6.41" y="22.657"/>
<linearGradient gradientUnits="userSpaceOnUse" id="SVGID_3_" x1="29.9995" x2="29.9995" y1="19.1792" y2="40.952">
<stop offset="0" style="stop-color:#D2D3D2"/>
<stop offset="1" style="stop-color:#7D7E7F"/>
</linearGradient>
<path d="M2,19.068V40.93h56V19.068H2z M56.932,39.863H3.068V20.135h53.863V39.863z" fill="url(#SVGID_3_)"/>
<polygon points="36.742,27.786 35.885,27.292 34.578,29.555 33.271,27.292 32.412,27.786 33.721,30.051 31.107,30.051   31.107,31.043 33.721,31.043 32.412,33.305 33.271,33.799 34.578,31.537 35.885,33.799 36.744,33.305 35.438,31.043 38.051,31.043   38.051,30.051 35.436,30.051 "/>
<polygon points="26.824,27.786 25.965,27.292 24.659,29.555 23.353,27.292 22.494,27.786 23.801,30.051 21.187,30.051   21.187,31.043 23.801,31.043 22.494,33.305 23.352,33.799 24.659,31.537 25.965,33.799 26.825,33.305 25.518,31.043 28.131,31.043   28.131,30.051 25.518,30.051 "/>
<polygon points="16.904,27.786 16.047,27.292 14.739,29.555 13.434,27.292 12.574,27.786 13.881,30.051 11.268,30.051   11.268,31.043 13.881,31.043 12.574,33.305 13.434,33.799 14.739,31.537 16.047,33.799 16.905,33.305 15.599,31.043 18.211,31.043   18.211,30.051 15.598,30.051 "/>
<rect height="1.217" width="6.086" x="41.566" y="32.748"/>
<polygon fill-opacity="0.2" points="31.582,32.855 32.666,30.979 30.499,30.979 30.499,28.768 32.666,28.768 31.582,26.891   33.496,25.787 34.578,27.665 35.662,25.787 37.574,26.891 36.49,28.768 38.658,28.768 38.658,30.979 36.492,30.979 37.576,32.855   35.662,33.959 34.578,32.082 33.494,33.959 " stroke-opacity="0.2"/>
<polygon fill="#FFFFFF" points="38.051,29.377 35.436,29.377 36.742,27.114 35.885,26.62 34.578,28.881 33.271,26.62 32.412,27.114   33.721,29.377 31.107,29.377 31.107,30.37 33.721,30.37 32.412,32.633 33.271,33.127 34.578,30.866 35.885,33.127 36.744,32.633   35.438,30.37 38.051,30.37 "/>
<polygon fill-opacity="0.2" points="21.662,32.855 22.746,30.979 20.578,30.979 20.578,28.768 22.746,28.768 21.662,26.891   23.576,25.787 24.659,27.665 25.742,25.787 27.655,26.891 26.571,28.768 28.739,28.768 28.739,30.979 26.572,30.979 27.656,32.855   25.742,33.959 24.659,32.082 23.574,33.959 " stroke-opacity="0.2"/>
<polygon fill="#FFFFFF" points="28.131,29.377 25.518,29.377 26.824,27.114 25.965,26.62 24.659,28.881 23.353,26.62 22.494,27.114   23.801,29.377 21.187,29.377 21.187,30.37 23.801,30.37 22.494,32.633 23.352,33.127 24.659,30.866 25.965,33.127 26.825,32.633   25.518,30.37 28.131,30.37 "/>
<polygon fill-opacity="0.2" points="11.742,32.855 12.826,30.979 10.659,30.979 10.659,28.768 12.826,28.768 11.742,26.891   13.656,25.787 14.74,27.665 15.823,25.787 17.736,26.891 16.652,28.768 18.82,28.768 18.82,30.979 16.652,30.979 17.737,32.855   15.823,33.959 14.739,32.082 13.656,33.959 " stroke-opacity="0.2"/>
<polygon fill="#FFFFFF" points="18.211,29.377 15.598,29.377 16.904,27.114 16.047,26.62 14.739,28.881 13.434,26.62 12.574,27.114   13.881,29.377 11.268,29.377 11.268,30.37 13.881,30.37 12.574,32.633 13.434,33.127 14.739,30.866 16.047,33.127 16.905,32.633   15.599,30.37 18.211,30.37 "/>
<rect fill-opacity="0.2" height="2.436" stroke-opacity="0.2" width="7.305" x="40.957" y="31.465"/>
<rect fill="#E6E6E6" height="1.217" width="6.086" x="41.566" y="32.074"/>
<rect fill-opacity="0.3" height="0.607" stroke-opacity="0.3" width="47.479" x="6.262" y="22.736"/>
<rect fill="none" height="60" width="60"/>
</g>
</svg>
