<?xml version="1.0" encoding="UTF-8"?>
<!DOCTYPE svg PUBLIC "-//W3C//DTD SVG 1.1 Tiny//EN" "http://www.w3.org/Graphics/SVG/1.1/DTD/svg11-tiny.dtd">
<svg baseProfile="tiny" height="16px" version="1.1" viewBox="0 0 16 16" width="16px" x="0px" xmlns="http://www.w3.org/2000/svg" xmlns:xlink="http://www.w3.org/1999/xlink" y="0px">
<rect fill="none" height="16" width="16"/>
<path d="M1.402,10.28c0.349,0.195,1.153,0.52,1.956,0.52,1.022,0,1.541-0.492,1.541-1.115,0-0.841-0.829-1.217-1.684-1.217h-0.802v-1.412h0.763c0.661,0,1.49-0.26,1.49-0.972,0-0.506-0.401-0.881-1.244-0.881-0.687,0-1.412,0.298-1.748,0.506l-0.401-1.426c0.505-0.323,1.502-0.635,2.603-0.635,1.787,0,2.784,0.945,2.784,2.099,0,0.894-0.505,1.605-1.541,1.955v0.026c1.01,0.182,1.826,0.946,1.826,2.061,0,1.475-1.308,2.563-3.444,2.563-1.088,0-2.008-0.283-2.5-0.582l0.401-1.49z"/>
<path d="M15,11.87c-0.598,0.199-1.736,0.48-2.868,0.48-1.564,0-2.696-0.396-3.487-1.14-0.776-0.745-1.207-1.859-1.207-3.109,0.01-2.836,2.086-4.454,4.898-4.454,1.104,0,1.957,0.214,2.383,0.405l-0.408,1.556c-0.473-0.215-1.047-0.365-1.988-0.365-1.614,0-2.851,0.909-2.851,2.754,0,1.772,1.122,2.796,2.712,2.796,0.432,0,0.788-0.052,0.942-0.114v-1.796h-1.31v-1.503h3.2v4.49z"/>
</svg>
