<?xml version="1.0" encoding="UTF-8"?>
<!DOCTYPE svg PUBLIC "-//W3C//DTD SVG 1.1 Tiny//EN" "http://www.w3.org/Graphics/SVG/1.1/DTD/svg11-tiny.dtd">
<svg baseProfile="tiny" height="60" viewBox="0 0 60 60" width="60" xmlns="http://www.w3.org/2000/svg" xmlns:xlink="http://www.w3.org/1999/xlink">
<g>
<rect fill="none" height="60" width="60"/>
<linearGradient gradientUnits="userSpaceOnUse" id="SVGID_1_" x1="29.999" x2="29.999" y1="2.0928" y2="37.9271">
<stop offset="0" style="stop-color:#B4DFC6"/>
<stop offset="0.7636" style="stop-color:#3F4A78"/>
<stop offset="1" style="stop-color:#72B9C3"/>
</linearGradient>
<path d="M14.814,10.715V3.508C19.178,2.505,23.314,2,27.238,2c5.785,0,10.221,1.121,13.311,3.364  s4.635,5.532,4.635,9.873c0,2.526-0.596,4.665-1.783,6.417c-1.191,1.752-9.396,9.994-10.205,11.121  c-0.809,1.128-1.213,2.465-1.213,4.01v1.544h-11.51v-2.06c0-2.502,0.547-4.612,1.639-6.342c1.09-1.729,2.994-3.868,5.715-6.419  c2.133-1.985,4.781-6.593,4.781-7.573c0-4.436-2.674-6.655-8.018-6.655C21.576,9.28,18.322,9.759,14.814,10.715z" fill="url(#SVGID_1_)"/>
<linearGradient gradientUnits="userSpaceOnUse" id="SVGID_2_" x1="29.999" x2="29.999" y1="2.5591" y2="37.7967">
<stop offset="0" style="stop-color:#94CAC2"/>
<stop offset="1" style="stop-color:#546F9F"/>
</linearGradient>
<path d="M21.223,37.579v-1.31c0-2.343,0.512-4.342,1.521-5.941c1.051-1.666,2.934-3.776,5.596-6.272  c2.016-1.876,5.018-6.732,5.018-8.12c0-3.378-1.521-7.405-8.768-7.405c-2.695,0-5.629,0.383-8.717,1.137l-0.309,0.075V4.107  l0.197-0.043c4.018-0.872,7.879-1.314,11.477-1.314c5.596,0,9.928,1.084,12.869,3.222c2.912,2.112,4.326,5.144,4.326,9.266  c0,2.359-0.557,4.376-1.654,5.996c-0.646,0.95-3.703,4.159-6.158,6.737c-2.273,2.389-3.68,3.872-4.035,4.367  c-0.898,1.254-1.354,2.75-1.354,4.447v0.794H21.223z" fill="url(#SVGID_2_)"/>
<linearGradient gradientUnits="userSpaceOnUse" id="SVGID_3_" x1="26.6924" x2="26.6924" y1="43.6758" y2="58.1758">
<stop offset="0" style="stop-color:#B4DFC6"/>
<stop offset="0.7636" style="stop-color:#3F4A78"/>
<stop offset="1" style="stop-color:#72B9C3"/>
</linearGradient>
<path d="M26.672,58c-1.938,0-3.602-0.686-5-2.059c-1.396-1.373-2.094-3.052-2.094-5.037  c0-1.962,0.693-3.641,2.076-5.038c1.385-1.397,3.059-2.095,5.018-2.095c1.961,0,3.641,0.697,5.037,2.095  c1.398,1.397,2.098,3.076,2.098,5.038c0,1.985-0.699,3.664-2.098,5.037C30.313,57.314,28.633,58,26.672,58z" fill="url(#SVGID_3_)"/>
<linearGradient gradientUnits="userSpaceOnUse" id="SVGID_4_" x1="26.6924" x2="26.6924" y1="44.436" y2="57.4074">
<stop offset="0" style="stop-color:#8DC5C2"/>
<stop offset="0.1152" style="stop-color:#8DC5C2"/>
<stop offset="1" style="stop-color:#546F9F"/>
</linearGradient>
<path d="M26.672,57.25c-1.748,0-3.211-0.604-4.475-1.844c-1.258-1.237-1.869-2.71-1.869-4.502  c0-1.771,0.607-3.245,1.859-4.511c1.248-1.26,2.715-1.872,4.484-1.872c1.771,0,3.246,0.613,4.508,1.875  c1.264,1.263,1.877,2.737,1.877,4.508c0,1.792-0.613,3.265-1.873,4.503C29.92,56.647,28.445,57.25,26.672,57.25L26.672,57.25z" fill="url(#SVGID_4_)"/>
<rect fill="none" height="60" width="60"/>
</g>
</svg>
