<?xml version="1.0" encoding="UTF-8"?>
<!DOCTYPE svg PUBLIC "-//W3C//DTD SVG 1.1 Tiny//EN" "http://www.w3.org/Graphics/SVG/1.1/DTD/svg11-tiny.dtd">
<svg baseProfile="tiny" height="30" viewBox="0 0 30 30" width="30" xmlns="http://www.w3.org/2000/svg" xmlns:xlink="http://www.w3.org/1999/xlink">
<g>
<g>
<rect fill="none" height="30" width="30"/>
</g>
<circle cx="15" cy="15" fill-opacity="0.6" r="14" stroke-opacity="0.6"/>
<radialGradient cx="15" cy="3.7026" gradientUnits="userSpaceOnUse" id="SVGID_1_" r="23.0618">
<stop offset="0" style="stop-color:#DDD7B2"/>
<stop offset="0.7818" style="stop-color:#B3964D"/>
<stop offset="1" style="stop-color:#B39C4D"/>
</radialGradient>
<path d="M15,28C7.832,28,2,22.168,2,15C2,7.832,7.832,2,15,2s13,5.832,13,13C28,22.168,22.168,28,15,28L15,28  z" fill="url(#SVGID_1_)"/>
<path d="M15,3c6.999,0,12.709,5.564,12.975,12.5C27.981,15.333,28,15.169,28,15  c0-7.168-5.832-13-13-13S2,7.832,2,15c0,0.169,0.019,0.333,0.025,0.5C2.291,8.564,8.001,3,15,3z" fill="#FFFFFF" fill-opacity="0.3" stroke-opacity="0.3"/>
<linearGradient gradientUnits="userSpaceOnUse" id="SVGID_2_" x1="21.5" x2="21.5" y1="8.7856" y2="15.9438">
<stop offset="0" style="stop-color:#997642"/>
<stop offset="1" style="stop-color:#E5E1C3"/>
</linearGradient>
<path d="M21.5,15.834c-1.426,0-2.5-1.505-2.5-3.5s1.074-3.5,2.5-3.5s2.5,1.505,2.5,3.5  S22.926,15.834,21.5,15.834L21.5,15.834z" fill="url(#SVGID_2_)"/>
<ellipse cx="21.5" cy="12.334" fill="#22243E" rx="1.5" ry="2.5"/>
<linearGradient gradientUnits="userSpaceOnUse" id="SVGID_3_" x1="21.583" x2="21.583" y1="11.9248" y2="15.1028">
<stop offset="0" style="stop-color:#22243E"/>
<stop offset="1" style="stop-color:#82969E"/>
</linearGradient>
<path d="M20.166,13.457c0.248,0.813,0.749,1.377,1.334,1.377c0.828,0,1.5-1.119,1.5-2.5  c0-0.155-0.012-0.305-0.027-0.452c-0.153-0.03-0.311-0.048-0.473-0.048C21.43,11.834,20.522,12.511,20.166,13.457z" fill="url(#SVGID_3_)"/>
<linearGradient gradientTransform="matrix(-1 0 0 1 -566.5 0)" gradientUnits="userSpaceOnUse" id="SVGID_4_" x1="-577.7495" x2="-577.7495" y1="8.9351" y2="15.8952">
<stop offset="0" style="stop-color:#997642"/>
<stop offset="1" style="stop-color:#E5E1C3"/>
</linearGradient>
<path d="M9,16c0.754,0,1.394-0.564,1.487-1.313C10.7,13,11.126,13,11.309,13c0.134,0,0.49,0,0.703,1.688  C12.106,15.436,12.746,16,13.5,16h0.057l0.118-0.01c0.41-0.052,0.765-0.253,1.01-0.57c0.246-0.317,0.354-0.71,0.304-1.108  C14.576,11.036,13.107,9,11.154,9c-1.111,0-3.063,0.69-3.644,5.313c-0.05,0.396,0.058,0.79,0.304,1.107  c0.245,0.316,0.6,0.518,0.997,0.568l0.063,0.008L9,16z" fill="url(#SVGID_4_)"/>
<path d="M9,15c0.248,0,0.464-0.185,0.495-0.438C9.786,12.249,10.629,12,11.309,12s1.404,0.249,1.695,2.563  c0.034,0.273,0.273,0.466,0.559,0.434c0.273-0.035,0.468-0.285,0.434-0.559C13.657,11.742,12.542,10,11.154,10  s-2.313,1.742-2.651,4.438c-0.034,0.274,0.16,0.524,0.434,0.559C8.958,14.999,8.979,15,9,15L9,15z" fill="#22243E"/>
<path d="M16.448,23.924c-0.495,0.051-1.007,0.077-1.523,0.077c-5.144,0-8.917-1.481-10.095-5.636  c-0.074-0.267-0.354-0.423-0.617-0.346c-0.266,0.076-0.42,0.352-0.344,0.617c0.007,0.026,0.018,0.05,0.024,0.076L3,20.5  c0.475,0,0.91-0.389,1.242-0.796c1.609,3.963,5.59,6.827,10.758,6.827c0.551,0,0.34-0.041,0.871-0.025  c1.127,0.033,1.154-1.863,1.126-2.137C16.969,24.094,16.722,23.893,16.448,23.924z" fill="#FFFFFF" fill-opacity="0.6" stroke-opacity="0.6"/>
<path d="M16.448,22.924c-0.495,0.051-1.007,0.077-1.523,0.077c-5.144,0-8.917-2.481-10.095-6.636  c-0.074-0.267-0.354-0.423-0.617-0.346c-0.266,0.076-0.42,0.352-0.344,0.617c0.007,0.026,0.018,0.05,0.024,0.076L3,19.5  c0.475,0,0.91-1.389,1.242-1.796c1.609,3.963,5.352,6.79,10.52,6.79c0.551,0,1.099-0.027,1.627-0.083  c0.275-0.028,0.608-0.042,0.608-1.042C16.997,23.092,16.722,22.893,16.448,22.924z" fill-opacity="0.2" stroke-opacity="0.2"/>
<linearGradient gradientUnits="userSpaceOnUse" id="SVGID_5_" x1="3" x2="17" y1="21" y2="21">
<stop offset="0" style="stop-color:#31151D"/>
<stop offset="1" style="stop-color:#76464D"/>
</linearGradient>
<path d="M16.448,23.924c-0.495,0.051-1.007,0.077-1.523,0.077c-5.144,0-8.917-2.481-10.095-6.636  c-0.074-0.267-0.354-0.423-0.617-0.346c-0.266,0.076-0.42,0.352-0.344,0.617c0.007,0.026,0.018,0.05,0.024,0.076L3,19.5  c0.475,0,0.91-0.389,1.242-0.796c1.609,3.963,5.515,6.297,10.683,6.297c0.551,0,1.099-0.028,1.627-0.083  c0.274-0.029,0.474-0.275,0.445-0.549C16.969,24.094,16.722,23.893,16.448,23.924z" fill="url(#SVGID_5_)"/>
</g>
</svg>
