<?xml version="1.0" encoding="UTF-8"?>
<!DOCTYPE svg PUBLIC "-//W3C//DTD SVG 1.1 Tiny//EN" "http://www.w3.org/Graphics/SVG/1.1/DTD/svg11-tiny.dtd">
<svg baseProfile="tiny" height="30px" version="1.1" viewBox="0 0 30 30" width="30px" x="0px" xmlns="http://www.w3.org/2000/svg" xmlns:xlink="http://www.w3.org/1999/xlink" y="0px">
<g>
<rect fill="none" height="30" width="30"/>
</g>
<polygon points="8.268,16.726 0,9.818 0,23.547 "/>
<path d="M0.127,7.318l11.308,9.449c0.46,0.354,0.907,0.555,1.402,0.566c0.021,0,0.093,0,0.113,0  c0.494-0.012,0.942-0.213,1.401-0.566l11.508-9.495C25.568,6.528,24.848,6,24,6H2C1.137,6,0.407,6.551,0.127,7.318z"/>
<polygon points="17.277,26.467 19.398,28.59 13.74,30 15.156,24.346 "/>
<polygon points="16.217,23.285 20.453,27.523 30,17.975 25.758,13.732 16.21,23.279 "/>
<path d="M24.342,12.318c0.375-0.375,0.885-0.586,1.415-0.586c0,0,0,0,0.001,0c0.082,0,0.162,0.014,0.242,0.023V9.749l-8.271,6.824  l1.288,1.076L24.342,12.318z"/>
<path d="M13.18,24.006c0.061-0.341,0.208-0.668,0.445-0.945c0.037-0.045,0.076-0.088,0.117-0.129l4.566-4.572l-1.363-1.14  l-1.321,1.09c-0.882,0.682-1.724,1.002-2.626,1.023l-0.023,0.001h-0.138c-0.948-0.022-1.791-0.343-2.621-0.98l-1.167-0.976  l-8.907,7.349C0.434,25.471,1.153,26,2,26h10.681L13.18,24.006z"/>
</svg>
