<?xml version="1.0" encoding="UTF-8"?>
<!DOCTYPE svg PUBLIC "-//W3C//DTD SVG 1.1 Tiny//EN" "http://www.w3.org/Graphics/SVG/1.1/DTD/svg11-tiny.dtd">
<svg baseProfile="tiny" height="30px" version="1.1" viewBox="0 0 30 30" width="30px" x="0px" xmlns="http://www.w3.org/2000/svg" xmlns:xlink="http://www.w3.org/1999/xlink" y="0px">
<g fill-opacity="0.5" stroke-opacity="0.5">
<rect fill="none" height="30" width="30"/>
</g>
<path d="M4.426,12.812c-0.771-0.426-1.314-0.787-1.635-1.083c-0.318-0.296-0.479-0.69-0.479-1.184c0-0.509,0.184-0.907,0.549-1.195  c0.367-0.287,0.855-0.432,1.465-0.432c0.671,0,1.398,0.089,2.18,0.266V7.74C5.768,7.574,4.961,7.49,4.084,7.49  c-1.209,0-2.188,0.281-2.939,0.843s-1.127,1.401-1.127,2.52c0,0.703,0.168,1.329,0.506,1.88s0.994,1.098,1.963,1.64  c0.889,0.504,1.496,0.912,1.822,1.225c0.328,0.313,0.492,0.743,0.492,1.29c0,0.582-0.199,1.029-0.596,1.346  c-0.396,0.314-0.947,0.473-1.652,0.473c-0.742,0-1.594-0.13-2.553-0.391v1.479c0.877,0.227,1.768,0.34,2.672,0.34  c1.475,0,2.582-0.312,3.322-0.934c0.74-0.623,1.111-1.557,1.111-2.802c0-0.691-0.182-1.314-0.541-1.868  C6.203,13.977,5.49,13.403,4.426,12.812z"/>
<path d="M11.922,17.875L10,10.297H7.662l2.613,9.297h1.174c-0.234,0.725-0.471,1.206-0.713,1.443  c-0.24,0.238-0.572,0.357-0.994,0.357s-0.904-0.063-1.447-0.191v1.428c0.605,0.128,1.168,0.191,1.689,0.191  c0.793,0,1.432-0.202,1.918-0.605c0.484-0.404,0.855-1.041,1.109-1.91l2.938-10.01h-1.996L11.922,17.875z"/>
<path d="M29.256,10.943c-0.496-0.525-1.24-0.788-2.232-0.788c-1.172,0-2.076,0.459-2.715,1.378  c-0.432-0.919-1.295-1.378-2.586-1.378c-1.23,0-2.174,0.528-2.828,1.585l-0.391-1.443h-1.316V20h2.256v-5.902  c0-0.769,0.146-1.386,0.439-1.851c0.295-0.465,0.719-0.697,1.273-0.697c0.439,0,0.768,0.155,0.986,0.465s0.328,0.772,0.328,1.386V20  h2.246v-5.902c0-0.774,0.15-1.393,0.449-1.854c0.301-0.462,0.73-0.693,1.29-0.693c0.433,0,0.755,0.14,0.966,0.419  s0.314,0.757,0.314,1.432V20H30v-6.699C30,12.256,29.752,11.47,29.256,10.943z"/>
</svg>
