<?xml version="1.0" encoding="UTF-8"?>
<!DOCTYPE svg PUBLIC "-//W3C//DTD SVG 1.1 Tiny//EN" "http://www.w3.org/Graphics/SVG/1.1/DTD/svg11-tiny.dtd">
<svg baseProfile="tiny" height="30px" version="1.1" viewBox="0 0 30 30" width="30px" x="0px" xmlns="http://www.w3.org/2000/svg" xmlns:xlink="http://www.w3.org/1999/xlink" y="0px">
<g fill-opacity="0.5" stroke-opacity="0.5">
<rect fill="none" height="30" width="30"/>
</g>
<path d="M7,16c-1.438,0-2.793-0.348-4-0.949V28c0,1.104,0.896,2,2,2h22c1.104,0,2-0.896,2-2V12H14.479C12.861,14.41,10.113,16,7,16z   M16,25.042c0-0.782,0.199-1.544,0.596-2.278c0.397-0.738,1.158-1.567,2.285-2.485c0.596-0.492,1.004-0.897,1.226-1.217  c0.221-0.317,0.332-0.677,0.332-1.076c0-1.035-0.572-1.555-1.714-1.555c-0.636,0-1.418,0.167-2.346,0.496v-1.481  C17.396,15.149,18.387,15,19.35,15c1.182,0,2.078,0.245,2.689,0.733c0.609,0.491,0.915,1.211,0.915,2.164  c0,0.458-0.075,0.876-0.226,1.256c-0.153,0.38-0.376,0.735-0.672,1.07c-0.296,0.333-0.732,0.737-1.314,1.215  c-0.64,0.525-1.105,0.938-1.4,1.237c-0.291,0.298-0.521,0.604-0.687,0.911c-0.167,0.31-0.278,0.79-0.308,1.378H23V26h-7V25.042z   M15,26H9v-1h2v-8.14l-2,0.417v-1.288L12.063,15h1.375v10H15V26z"/>
<path d="M27,3h-4V2c0-0.552-0.447-1-1-1h-1c-0.553,0-1,0.448-1,1v1h-4.949C15.652,4.207,16,5.562,16,7c0,1.053-0.191,2.06-0.525,3  H29V5C29,3.896,28.104,3,27,3z"/>
<path d="M14,7c0-3.867-3.134-7-7-7C5.899,0,4.862,0.26,3.937,0.713c3.864,1.889,4.169,4.746,4.103,5.953H9h2L7,12L3,6.666h2h1.043  c0.074-0.533,0.172-3.057-4.017-4.59C0.774,3.34,0,5.079,0,7c0,3.865,3.134,7,7,7S14,10.865,14,7z"/>
</svg>
