<?xml version="1.0" encoding="UTF-8"?>
<!DOCTYPE svg PUBLIC "-//W3C//DTD SVG 1.1 Tiny//EN" "http://www.w3.org/Graphics/SVG/1.1/DTD/svg11-tiny.dtd">
<svg baseProfile="tiny" height="30" viewBox="0 0 30 30" width="30" xmlns="http://www.w3.org/2000/svg" xmlns:xlink="http://www.w3.org/1999/xlink">
<g>
<rect fill="none" height="30" width="30"/>
<path d="M16,0C8.28,0,2,6.279,2,14c0,7.719,6.28,14,14,14s14-6.281,14-14C30,6.279,23.72,0,16,0z" fill-opacity="0.6" stroke-opacity="0.6"/>
<radialGradient cx="-451.0264" cy="-302.1748" gradientTransform="matrix(0.3502 0 0 0.3502 173.9495 115.3211)" gradientUnits="userSpaceOnUse" id="SVGID_1_" r="48.9059">
<stop offset="0" style="stop-color:#B4DFC6"/>
<stop offset="0.5" style="stop-color:#72B9C3"/>
<stop offset="1" style="stop-color:#546F9F"/>
</radialGradient>
<circle cx="16" cy="14" fill="url(#SVGID_1_)" r="13"/>
<path d="M28.536,13.287c-0.288-5.078-3.577-9.449-8.38-11.141l-0.585,0.096l-3.397-0.65l-4.235,2.525l-0.159,1.064  H9.322l0.971,1.652L7.662,8.979l-0.613,2.65l2.173,3.85l2.218-0.453l0.81,0.697l0.633,0.063l0.418,1.633l-0.552,1.432L14.763,24  h2.053l2.035-1.645v-0.67l0.537-0.834l0.444-0.227c-0.113,0.172-0.29,0.566-0.29,0.566c-0.019,0.135,0.289,2.756,1.192,2.551  c0.686-0.156,3.135-4.705,3.182-5.139c0.093-0.855-0.373-1.209-0.659-1.342l-0.318-0.15l-1.462,1.465  c-0.157,0.012-0.298,0.039-0.426,0.076v-1.217l1.588-1.551l0.808-2.604l1.231-1.002l-0.27-0.49l0.929-0.895l-0.519-0.945  l0.395,0.047l2.313,5.178L28,14.795c-0.015-0.254-0.042-0.502-0.071-0.752L28.536,13.287z M16.156,7.463l-0.193-0.516h1.161  l0.565,1.271h-0.841V7.463H16.156z M19.987,10.023l0.927,1.354l0.063,0.162l-0.95-0.574L19.8,10.146L19.987,10.023z M21.381,12.387  l0.28,0.281l-0.362,0.08l-0.082-0.1L21.381,12.387z M14.127,3.285l0.59,0.914l-0.67,0.205l-0.262-0.15L14.127,3.285z" fill-opacity="0.3" stroke-opacity="0.3"/>
<linearGradient gradientUnits="userSpaceOnUse" id="SVGID_2_" x1="15.9995" x2="15.9995" y1="1.0625" y2="27.1316">
<stop offset="0" style="stop-color:#6DACBC"/>
<stop offset="0.497" style="stop-color:#5778A3"/>
<stop offset="1" style="stop-color:#D3E0D8"/>
</linearGradient>
<path d="M16,1C8.821,1,3,6.82,3,14c0,7.182,5.821,13,13,13c7.182,0,13-5.818,13-13  C29,6.82,23.182,1,16,1z M16,26C9.383,26,4,20.617,4,14S9.383,2,16,2s12,5.383,12,12S22.617,26,16,26z" fill="url(#SVGID_2_)" fill-opacity="0.3" stroke-opacity="0.3"/>
<radialGradient cx="16.75" cy="4.499" gradientUnits="userSpaceOnUse" id="SVGID_3_" r="15.4173">
<stop offset="0" style="stop-color:#96BE67"/>
<stop offset="0.3152" style="stop-color:#96BE67"/>
<stop offset="0.7273" style="stop-color:#468D53"/>
<stop offset="1" style="stop-color:#387463"/>
</radialGradient>
<path d="M23.044,17.713l-1.353,1.355c0,0-0.818,0-0.856,0.324c-0.018,0.141-0.063,0.744-0.201,1.057  c-0.272,0.188-0.597,0.813-0.597,0.813s-0.169,1.205,0.734,1C21.669,22.059,24.434,18.367,23.044,17.713z" fill="url(#SVGID_3_)"/>
<radialGradient cx="16.75" cy="4.5005" gradientUnits="userSpaceOnUse" id="SVGID_4_" r="17.8328">
<stop offset="0" style="stop-color:#96BE67"/>
<stop offset="0.3152" style="stop-color:#96BE67"/>
<stop offset="0.7273" style="stop-color:#468D53"/>
<stop offset="1" style="stop-color:#387463"/>
</radialGradient>
<path d="M19.99,2.619c-0.222,0.084-0.374,0.141-0.374,0.141l-3.344-0.639l-1.64,1.025l0.863,1.336  l-1.509,0.463l-0.813-0.463l0.286-0.811l-1.06,0.734L12.21,5.682h-2.014l0.745,1.268L8.11,9.258l-0.533,2.305l1.051,2.035L9.259,14  l2.218-0.453l0.81,0.695l0.736,0.072l0.801,3.135l-0.533,1.385l1.178,2.605l0.332,1.08h2.053l1.16-0.627l0.875-1.016v-1.23  l1.663-0.848v-1.822l0.658-1.25l1.467-1.32l0.351-1.531l-1.919,0.428l-0.505-0.615l0.359-0.574l-1.363-0.824l-0.581-2.088  l1.007-0.656l0.927,1.352l0.349,0.893l0.696,0.697l0.813,0.424l0.903-0.145l1.003-0.965l-0.706-1.289L23.12,9.744l-0.804-0.957  l0.764-0.533l2.397,0.291v0.852l2.086,4.299l0.474-0.379C27.756,8.359,24.48,4.199,19.99,2.619z M18.901,8.428l-1.095,0.291h-1.458  V7.963h-1.394l-1.103,0.291L12.17,7.789L11.705,6.92l2.321-0.523h2.322L16,5.469h1.161l0.646,1.451l1.095,0.383V8.428z   M21.397,6.514l-1.974-0.35V5.469l0.987-0.232l0.29-0.348l0.696,0.58V6.514z" fill="url(#SVGID_4_)"/>
<path d="M2.73,8.398C2.449,8.582,1.209,9.846,1.185,9.875c-0.489,0.596-0.786,1.178-0.795,1.197  c-0.308,0.727-0.585,2.615-0.205,4.359c0.282,1.289,1.901,4.789,3.796,7.348c2.016,2.721,5.333,5.609,6.953,6.371  c1.669,0.787,2.914,0.85,3.256,0.85c0.176,0,0.325-0.014,0.459-0.039c0.1-0.018,1.208-0.223,2.326-0.977  c0,0,0.467-0.314,0.729-0.555c0.02-0.018,0.786-0.768,0.799-0.785c0.247-0.311,0.358-0.701,0.312-1.102  c-0.049-0.416-0.27-0.805-0.605-1.068c0,0-4.841-3.844-4.875-3.863c-0.257-0.156-0.547-0.238-0.841-0.238  c-0.458,0-0.881,0.199-1.161,0.549l-0.5,0.611c-0.726-0.627-1.689-1.563-2.338-2.438c-0.884-1.193-1.535-2.25-2.041-3.324  l1.232-0.553c0.369-0.166,0.646-0.467,0.786-0.85c0.146-0.396,0.12-0.852-0.067-1.244L5.742,8.617  c-0.269-0.557-0.83-0.914-1.431-0.914c-0.217,0-0.427,0.045-0.622,0.135L2.73,8.398z" fill-opacity="0.6" stroke-opacity="0.6"/>
<linearGradient gradientUnits="userSpaceOnUse" id="SVGID_5_" x1="-0.2866" x2="10.2134" y1="8.4424" y2="26.7754">
<stop offset="0" style="stop-color:#ECEFED"/>
<stop offset="0.5212" style="stop-color:#ADB2B1"/>
<stop offset="1" style="stop-color:#888E8F"/>
</linearGradient>
<path d="M5.143,16.264c0.67,1.684,1.561,3.094,2.548,4.428c0.95,1.281,2.554,2.713,3.286,3.242l3.479,5.045  c-0.384,0.076-1.622-0.037-3.097-0.732c-1.477-0.695-4.652-3.467-6.575-6.063c-1.922-2.594-3.398-5.941-3.622-6.965  c-0.352-1.611-0.051-3.287,0.148-3.756c0,0,0.213-0.426,0.646-0.951C2.142,10.285,5.143,16.264,5.143,16.264z" fill="url(#SVGID_5_)"/>
<radialGradient cx="10.8911" cy="22.9111" gradientUnits="userSpaceOnUse" id="SVGID_6_" r="8.6673">
<stop offset="0" style="stop-color:#D3D7D5"/>
<stop offset="0.0424" style="stop-color:#D3D7D5"/>
<stop offset="0.4" style="stop-color:#BDC0BF"/>
<stop offset="0.7333" style="stop-color:#82898B"/>
<stop offset="1" style="stop-color:#ACB2B1"/>
</radialGradient>
<path d="M17.592,26.262l-3.165-2.527l-1.612-1.27c-0.241-0.146-0.541-0.119-0.703,0.084l-0.635,0.775v0.002  l-0.5,0.607c0-0.002-0.002-0.006-0.003-0.006c-0.565,2.01,0.43,4.135,2.343,4.865c0.253,0.094,0.509,0.162,0.765,0.201  c0.16,0.004,0.291,0,0.375-0.016c0,0,0.987-0.168,1.959-0.824c0.324-0.217,0.353-0.223,0.614-0.463c0.001-0.002,0-0.004,0.002-0.006  c0.515-0.471,0.689-0.664,0.689-0.664C17.898,26.799,17.842,26.457,17.592,26.262z" fill="url(#SVGID_6_)"/>
<path d="M11.477,23.324l0.635-0.775c0.162-0.203,0.462-0.23,0.703-0.084l1.612,1.27l3.165,2.527  c0.25,0.195,0.307,0.537,0.129,0.76c0,0-0.176,0.193-0.693,0.668L11.477,23.324z" fill="#FFFFFF" fill-opacity="0.4" stroke-opacity="0.4"/>
<radialGradient cx="-162.3672" cy="-37.5952" gradientTransform="matrix(0.9891 0.1471 -0.1471 0.9891 159.0668 70.322)" gradientUnits="userSpaceOnUse" id="SVGID_7_" r="8.6173">
<stop offset="0" style="stop-color:#D3D7D5"/>
<stop offset="0.0424" style="stop-color:#D3D7D5"/>
<stop offset="0.4" style="stop-color:#BDC0BF"/>
<stop offset="0.7333" style="stop-color:#82898B"/>
<stop offset="1" style="stop-color:#ACB2B1"/>
</radialGradient>
<path d="M7.502,14.557l-2.66-5.506C4.701,8.762,4.371,8.625,4.104,8.748c0,0-0.232,0.105-0.813,0.479  c0,0.002-0.001,0-0.002,0.002C2.973,9.432,2.947,9.523,2.634,9.801c-0.434,0.389-0.758,0.793-0.978,1.105  c-0.721,2.08,0.275,4.35,2.266,5.109c0.406,0.154,0.822,0.23,1.236,0.242l1.266-0.57l0.853-0.381  C7.545,15.186,7.643,14.85,7.502,14.557z" fill="url(#SVGID_7_)"/>
<path d="M3.29,9.229c0.581-0.375,0.813-0.48,0.813-0.48c0.268-0.123,0.598,0.014,0.738,0.303  l2.66,5.506c0.141,0.293,0.043,0.629-0.226,0.75l-0.853,0.381L3.29,9.229z" fill="#FFFFFF" fill-opacity="0.4" stroke-opacity="0.4"/>
</g>
<g>
<path d="M22,30c-4.411,0-8-3.589-8-8s3.589-8,8-8s8,3.589,8,8S26.411,30,22,30L22,30z" fill-opacity="0.6" stroke-opacity="0.6"/>
<linearGradient gradientUnits="userSpaceOnUse" id="SVGID_1__" x1="22" x2="22" y1="14.9683" y2="29.1646">
<stop offset="0" style="stop-color:#C7B17C"/>
<stop offset="1" style="stop-color:#A86F49"/>
</linearGradient>
<circle cx="22" cy="22" fill="url(#SVGID_1__)" r="7"/>
<polygon fill-opacity="0.2" points="26.34,24 21.999,19.4 17.66,24 17,23.3 21.999,18 27,23.3 26.34,24 " stroke-opacity="0.2"/>
<polygon fill-opacity="0.2" points="21.999,20.857 18,25.098 18,27 21,27 21,24 23,24 23,27 26,27 26,25.097 " stroke-opacity="0.2"/>
<path d="M22,16c3.697,0,6.717,2.869,6.975,6.5C28.986,22.334,29,22.169,29,22c0-3.865-3.134-7-7-7  s-7,3.135-7,7c0,0.169,0.014,0.334,0.025,0.5C15.283,18.869,18.303,16,22,16z" fill="#FFFFFF" fill-opacity="0.4" stroke-opacity="0.4"/>
<polygon fill="#FFFFFF" points="26.34,23 21.999,18.4 17.66,23 17,22.3 21.999,17 27,22.3 26.34,23 "/>
<polygon fill="#FFFFFF" points="21.999,19.857 18,24.098 18,26 21,26 21,23 23,23 23,26 26,26 26,24.097 "/>
<rect fill="none" height="30" width="30"/>
</g>
</svg>
