<?xml version="1.0" encoding="UTF-8"?>
<!DOCTYPE svg PUBLIC "-//W3C//DTD SVG 1.1 Tiny//EN" "http://www.w3.org/Graphics/SVG/1.1/DTD/svg11-tiny.dtd">
<svg baseProfile="tiny" height="30px" version="1.1" viewBox="0 0 30 30" width="30px" x="0px" xmlns="http://www.w3.org/2000/svg" xmlns:xlink="http://www.w3.org/1999/xlink" y="0px">
<g fill-opacity="0.5" stroke-opacity="0.5">
<rect fill="none" height="30" width="30"/>
</g>
<path d="M11.414,7.263C12.063,5.929,13.42,5,15,5c2.205,0,4,1.794,4,4v3h-2.85L26,21.85V14c0-1.104-0.896-2-2-2h-1V9  c0-4.418-3.582-8-8-8c-2.682,0-5.049,1.324-6.501,3.349L11.414,7.263z"/>
<path d="M16.326,20.473c-0.102,0.092-0.207,0.181-0.326,0.25V23c0,0.553-0.447,1-1,1s-1-0.447-1-1v-2.277  c-0.596-0.347-1-0.984-1-1.723c0-0.515,0.2-0.979,0.52-1.334L7,11.146V12H6c-1.104,0-2,0.896-2,2v12c0,1.104,0.896,2,2,2h17.854  L16.326,20.473z"/>
<path d="M27.693,26.372c0.389,0.389,0.41,1.005,0.049,1.368c-0.363,0.363-0.979,0.343-1.367-0.046L2.307,3.625  C1.918,3.236,1.896,2.621,2.26,2.259c0.363-0.363,0.979-0.341,1.367,0.048L27.693,26.372z"/>
</svg>
