<?xml version="1.0" encoding="UTF-8"?>
<!DOCTYPE svg PUBLIC "-//W3C//DTD SVG 1.1 Tiny//EN" "http://www.w3.org/Graphics/SVG/1.1/DTD/svg11-tiny.dtd">
<svg baseProfile="tiny" height="60" viewBox="0 0 60 60" width="60" xmlns="http://www.w3.org/2000/svg" xmlns:xlink="http://www.w3.org/1999/xlink">
<g>
<rect fill="none" height="60" width="60"/>
<linearGradient gradientUnits="userSpaceOnUse" id="SVGID_1" x1="18.98" x2="18.98" y1="7.81" y2="45.46">
<stop offset="0" stop-color="#D3D7D5"/>
<stop offset="0.07" stop-color="#D3D7D5"/>
<stop offset="0.26" stop-color="#BFC2C1"/>
<stop offset="0.66" stop-color="#989D9D"/>
<stop offset="0.96" stop-color="#AFB3B2"/>
<stop offset="1" stop-color="#5B5B5D"/>
</linearGradient>
<path d="M31.22,42.85c0,1.354-1.097,2.449-2.449,2.449h-19.59c-1.353,0-2.449-1.096-2.449-2.449v-33.06c0-1.353,1.096-2.449,2.449-2.449h19.59c1.353,0,2.449,1.097,2.449,2.449v33.06z" fill="url(#SVGID_1)"/>
<linearGradient gradientUnits="userSpaceOnUse" id="SVGID_2" x1="18.98" x2="18.98" y1="7.35" y2="44.44">
<stop offset="0" stop-color="#D7D9D9"/>
<stop offset="0.67" stop-color="#878789"/>
<stop offset="1" stop-color="#818283"/>
</linearGradient>
<path d="M28.77,7.346h-19.59c-1.353,0-2.449,1.097-2.449,2.449v33.06c0,0.654,0.26,1.244,0.677,1.684-0.038-0.147-0.065-0.299-0.065-0.459v-34.26c0-1.013,0.824-1.837,1.837-1.837h19.59c1.013,0,1.836,0.824,1.836,1.837v34.28c0,0.16-0.026,0.312-0.064,0.459,0.417-0.439,0.678-1.029,0.678-1.684v-33.06c-0.01-1.352-1.1-2.449-2.46-2.449z" fill="url(#SVGID_2)"/>
<linearGradient gradientUnits="userSpaceOnUse" id="SVGID_3" x1="18.98" x2="18.98" y1="10.44" y2="34.29">
<stop offset="0" stop-color="#898A8B"/>
<stop offset="1" stop-color="#B5B9B8"/>
</linearGradient>
<rect fill="url(#SVGID_3)" fill-opacity="0.6" height="23.88" stroke-opacity="0.6" width="20.82" x="8.571" y="10.41"/>
<linearGradient gradientUnits="userSpaceOnUse" id="SVGID_4" x1="18.98" x2="18.98" y1="11.05" y2="33.67">
<stop offset="0" stop-color="#3D3D3D"/>
<stop offset="1" stop-color="#1A1A1A"/>
</linearGradient>
<rect fill="url(#SVGID_4)" height="22.65" width="19.59" x="9.183" y="11.02"/>
<linearGradient gradientUnits="userSpaceOnUse" id="SVGID_5" x1="18.98" x2="18.98" y1="11.66" y2="33.06">
<stop offset="0" stop-color="#70B4B6"/>
<stop offset="0.39" stop-color="#5F8BA1"/>
<stop offset="0.89" stop-color="#455188"/>
<stop offset="1" stop-color="#455188"/>
</linearGradient>
<rect fill="url(#SVGID_5)" height="21.43" width="18.37" x="9.795" y="11.63"/>
<linearGradient gradientUnits="userSpaceOnUse" id="SVGID_6" x1="18.98" x2="18.98" y1="12.14" y2="20.78">
<stop offset="0" stop-color="#AADAC6"/>
<stop offset="1" stop-color="#6A99AA"/>
</linearGradient>
<polygon fill="url(#SVGID_6)" points="28.16,18.98,9.795,21.43,9.795,12.24,28.16,12.24"/>
<rect fill="#BCE2D2" height="0.612" width="18.37" x="9.795" y="11.63"/>
<linearGradient gradientUnits="userSpaceOnUse" id="SVGID_7" x1="19.3" x2="19.3" y1="10.44" y2="7.99">
<stop offset="0" stop-color="#CFCFCF"/>
<stop offset="1" stop-color="#828384"/>
</linearGradient>
<path d="M17.11,10.41c-0.686,0-1.224-0.448-1.224-1.021v-0.41c0-0.572,0.538-1.021,1.224-1.021h4.37c0.686,0,1.224,0.448,1.224,1.021v0.408c0,0.573-0.538,1.021-1.224,1.021h-4.367z" fill="url(#SVGID_7)"/>
<linearGradient gradientUnits="userSpaceOnUse" id="SVGID_8" x1="19.3" x2="19.3" y1="8.32" y2="9.9">
<stop offset="0" stop-color="#353637"/>
<stop offset="1" stop-color="#7F8081"/>
</linearGradient>
<path d="M22.1,9.387c0,0.226-0.273,0.409-0.612,0.409h-4.37c-0.338,0-0.612-0.183-0.612-0.409v-0.408c0-0.226,0.274-0.408,0.612-0.408h4.37c0.338,0,0.612,0.183,0.612,0.408v0.408z" fill="url(#SVGID_8)"/>
<linearGradient gradientUnits="userSpaceOnUse" id="SVGID_9" x1="18.98" x2="18.98" y1="34.92" y2="43.41">
<stop offset="0" stop-color="#898A8B"/>
<stop offset="1" stop-color="#B5B9B8"/>
</linearGradient>
<path d="M17.07,43.47c-1.312,0-2.379-1.057-2.379-2.355v-3.87c0-1.298,1.067-2.354,2.379-2.354h3.813c1.311,0,2.378,1.057,2.378,2.354v3.862c0,1.298-1.067,2.354-2.379,2.354h-3.808z" fill="url(#SVGID_9)" fill-opacity="0.6" stroke-opacity="0.6"/>
<path d="M17.07,42.85c-0.972,0-1.763-0.781-1.763-1.742v-3.86c0-0.961,0.791-1.742,1.763-1.742h3.82c0.972,0,1.763,0.781,1.763,1.742v3.862c0,0.96-0.791,1.741-1.763,1.741h-3.822z" fill="#020202" fill-opacity="0.5" stroke-opacity="0.5"/>
<linearGradient gradientUnits="userSpaceOnUse" id="SVGID_10" x1="18.98" x2="18.98" y1="36.09" y2="42.25">
<stop offset="0" stop-color="#D3D7D5"/>
<stop offset="0.07" stop-color="#D3D7D5"/>
<stop offset="0.26" stop-color="#BFC2C1"/>
<stop offset="0.66" stop-color="#989D9D"/>
<stop offset="0.96" stop-color="#AFB3B2"/>
<stop offset="1" stop-color="#5B5B5D"/>
</linearGradient>
<path d="M22.04,41.11c0,0.625-0.514,1.131-1.146,1.131h-3.83c-0.633,0-1.146-0.506-1.146-1.131v-3.86c0-0.625,0.514-1.131,1.146-1.131h3.83c0.632,0,1.146,0.506,1.146,1.131v3.861z" fill="url(#SVGID_10)"/>
<path d="M18.37,41.02c-0.675,0-1.225-0.549-1.225-1.225v-1.225c0-0.676,0.549-1.225,1.225-1.225h1.224c0.675,0,1.225,0.549,1.225,1.225v1.225c0,0.676-0.549,1.225-1.225,1.225h-1.214z" fill="#020202" fill-opacity="0.5" stroke-opacity="0.5"/>
<linearGradient gradientUnits="userSpaceOnUse" id="SVGID_11" x1="18.98" x2="18.98" y1="37.95" y2="40.41">
<stop offset="0" stop-color="#A8A9AA"/>
<stop offset="0.7" stop-color="#59595A"/>
<stop offset="1" stop-color="#818283"/>
</linearGradient>
<path d="M18.37,40.4c-0.337,0-0.612-0.275-0.612-0.612v-1.225c0-0.336,0.275-0.611,0.612-0.611h1.224c0.337,0,0.612,0.275,0.612,0.611v1.225c0,0.337-0.275,0.612-0.612,0.612h-1.224z" fill="url(#SVGID_11)"/>
<linearGradient gradientUnits="userSpaceOnUse" id="SVGID_12" x1="11.02" x2="11.02" y1="35.48" y2="42.25">
<stop offset="0" stop-color="#898A8B"/>
<stop offset="1" stop-color="#B5B9B8"/>
</linearGradient>
<path d="M11.02,42.24c-1.35,0-2.449-1.057-2.449-2.355v-2.025c0-1.297,1.099-2.354,2.449-2.354s2.449,1.057,2.449,2.354v2.025c0,1.31-1.1,2.36-2.45,2.36z" fill="url(#SVGID_12)" fill-opacity="0.6" stroke-opacity="0.6"/>
<linearGradient gradientUnits="userSpaceOnUse" id="SVGID_13" x1="11.02" x2="11.02" y1="36.09" y2="41.64">
<stop offset="0" stop-color="#222021"/>
<stop offset="1" stop-color="#6E6E6F"/>
</linearGradient>
<path d="M11.02,41.63c-1,0-1.812-0.78-1.812-1.742v-2.025c0-0.961,0.813-1.742,1.812-1.742,1,0,1.812,0.781,1.812,1.743v2.025c0,0.97-0.81,1.75-1.81,1.75z" fill="url(#SVGID_13)" fill-opacity="0.7" stroke-opacity="0.7"/>
<linearGradient gradientUnits="userSpaceOnUse" id="SVGID_14" x1="11.02" x2="11.02" y1="36.71" y2="41.02">
<stop offset="0" stop-color="#B3C77D"/>
<stop offset="0.73" stop-color="#3C743A"/>
<stop offset="1" stop-color="#235138"/>
</linearGradient>
<path d="M12.2,39.89c0,0.625-0.526,1.131-1.175,1.131s-1.175-0.506-1.175-1.131v-2.025c0-0.623,0.526-1.129,1.175-1.129s1.175,0.506,1.175,1.13v2.027z" fill="url(#SVGID_14)"/>
<path d="M26.98,42.24c-1.374,0-2.493-1.057-2.493-2.355v-2.025c0-1.297,1.119-2.354,2.493-2.354h-0.089c1.375,0,2.494,1.057,2.494,2.354v2.025c0,1.298-1.119,2.354-2.493,2.354h0.091z" fill="url(#SVGID_12)" fill-opacity="0.6" stroke-opacity="0.6"/>
<path d="M26.98,41.63c-1.018,0-1.845-0.78-1.845-1.742v-2.025c0-0.961,0.828-1.742,1.845-1.742h-0.089c1.018,0,1.845,0.781,1.845,1.742v2.025c0,0.961-0.828,1.742-1.845,1.742h0.081z" fill="url(#SVGID_13)" fill-opacity="0.7" stroke-opacity="0.7"/>
<linearGradient gradientUnits="userSpaceOnUse" id="SVGID_17" x1="26.94" x2="26.94" y1="36.71" y2="41.02">
<stop offset="0" stop-color="#C6B17B"/>
<stop offset="0.75" stop-color="#98604F"/>
<stop offset="1" stop-color="#7F3736"/>
</linearGradient>
<path d="M28.09,39.89c0,0.625-0.536,1.131-1.196,1.131h0.089c-0.66,0-1.196-0.506-1.196-1.131v-2.025c0-0.624,0.536-1.13,1.196-1.13h-0.089c0.66,0,1.196,0.506,1.196,1.13v2.027z" fill="url(#SVGID_17)"/>
<rect fill="#020202" fill-opacity="0.2" height="37.96" stroke-opacity="0.2" width="1.225" x="21.43" y="7.346"/>
<rect fill="#020202" fill-opacity="0.1" height="37.96" stroke-opacity="0.1" width="2.449" x="22.04" y="7.346"/>
<linearGradient gradientUnits="userSpaceOnUse" id="SVGID_18" x1="37.04" x2="37.04" y1="7.35" y2="51.31">
<stop offset="0" stop-color="#D3D7D5"/>
<stop offset="0.07" stop-color="#D3D7D5"/>
<stop offset="0.26" stop-color="#BFC2C1"/>
<stop offset="0.66" stop-color="#989D9D"/>
<stop offset="0.96" stop-color="#AFB3B2"/>
<stop offset="1" stop-color="#5B5B5D"/>
</linearGradient>
<path d="M51.42,48.98c0,1.352-1.097,2.448-2.448,2.448h-23.87c-1.352,0-2.449-1.097-2.449-2.448v-39.18c0-1.353,1.097-2.449,2.449-2.449h23.88c1.352,0,2.448,1.097,2.448,2.449v39.18z" fill="url(#SVGID_18)"/>
<linearGradient gradientUnits="userSpaceOnUse" id="SVGID_19" x1="37.04" x2="37.04" y1="7.35" y2="50.55">
<stop offset="0" stop-color="#E7EAE8"/>
<stop offset="0.07" stop-color="#E7EAE8"/>
<stop offset="0.26" stop-color="#D8DCDA"/>
<stop offset="0.66" stop-color="#B7BDBB"/>
<stop offset="1" stop-color="#AFB3B2"/>
</linearGradient>
<path d="M48.98,7.346h-23.88c-1.352,0-2.449,1.097-2.449,2.449v39.18c0,0.652,0.26,1.242,0.677,1.683-0.038-0.147-0.065-0.3-0.065-0.459v-40.4c0-1.013,0.824-1.837,1.836-1.837h23.88c1.012,0,1.836,0.824,1.836,1.837v40.4c0,0.159-0.027,0.312-0.064,0.459,0.416-0.44,0.677-1.03,0.677-1.683v-39.18c-0.02-1.352-1.11-2.449-2.46-2.449z" fill="url(#SVGID_19)"/>
<linearGradient gradientUnits="userSpaceOnUse" id="SVGID_20" x1="37.04" x2="37.04" y1="10.45" y2="39.8">
<stop offset="0" stop-color="#B8BBBA"/>
<stop offset="1" stop-color="#F4FBF6"/>
</linearGradient>
<rect fill="url(#SVGID_20)" fill-opacity="0.6" height="29.39" stroke-opacity="0.6" width="25.1" x="24.49" y="10.41"/>
<linearGradient gradientUnits="userSpaceOnUse" id="SVGID_21" x1="37.04" x2="37.04" y1="11.06" y2="39.18">
<stop offset="0" stop-color="#6E6E6E"/>
<stop offset="1" stop-color="#333333"/>
</linearGradient>
<rect fill="url(#SVGID_21)" height="28.16" width="23.88" x="25.1" y="11.02"/>
<linearGradient gradientUnits="userSpaceOnUse" id="SVGID_22" x1="37.04" x2="37.04" y1="11.67" y2="38.57">
<stop offset="0" stop-color="#70B4B6"/>
<stop offset="0.39" stop-color="#5F8BA1"/>
<stop offset="0.89" stop-color="#455188"/>
<stop offset="1" stop-color="#455188"/>
</linearGradient>
<rect fill="url(#SVGID_22)" height="26.94" width="22.65" x="25.71" y="11.63"/>
<linearGradient gradientUnits="userSpaceOnUse" id="SVGID_23" x1="37.04" x2="37.04" y1="12.12" y2="22.49">
<stop offset="0" stop-color="#AADAC6"/>
<stop offset="1" stop-color="#6A99AA"/>
</linearGradient>
<polygon fill="url(#SVGID_23)" points="48.36,20.82,25.71,23.26,25.71,12.24,48.36,12.24"/>
<rect fill="#BCE2D2" height="0.612" width="22.65" x="25.71" y="11.63"/>
<linearGradient gradientUnits="userSpaceOnUse" id="SVGID_24" x1="36.94" x2="36.94" y1="40.43" y2="49.53">
<stop offset="0" stop-color="#B8BBBA"/>
<stop offset="1" stop-color="#FFFFFF"/>
</linearGradient>
<path d="M34.73,49.59c-1.312,0-2.379-1.057-2.379-2.354v-4.48c0-1.299,1.067-2.355,2.379-2.355h4.426c1.313,0,2.379,1.057,2.379,2.355v4.475c0,1.297-1.066,2.354-2.379,2.354h-4.43z" fill="url(#SVGID_24)" fill-opacity="0.6" stroke-opacity="0.6"/>
<path d="M34.73,48.98c-0.972,0-1.763-0.781-1.763-1.742v-4.48c0-0.961,0.791-1.743,1.763-1.743h4.433c0.973,0,1.764,0.781,1.764,1.743v4.475c0,0.96-0.791,1.742-1.764,1.742h-4.432z" fill="#020202" fill-opacity="0.5" stroke-opacity="0.5"/>
<linearGradient gradientUnits="userSpaceOnUse" id="SVGID_25" x1="36.94" x2="36.94" y1="41.6" y2="48.37">
<stop offset="0" stop-color="#A8A9AA"/>
<stop offset="0.7" stop-color="#59595A"/>
<stop offset="1" stop-color="#818283"/>
</linearGradient>
<path d="M40.31,47.23c0,0.623-0.514,1.129-1.146,1.129h-4.442c-0.633,0-1.146-0.506-1.146-1.129v-4.47c0-0.625,0.514-1.131,1.146-1.131h4.442c0.632,0,1.146,0.506,1.146,1.131v4.474z" fill="url(#SVGID_25)"/>
<path d="M36.02,47.14c-0.676,0-1.225-0.549-1.225-1.225v-1.837c0-0.676,0.549-1.225,1.225-1.225h1.837c0.675,0,1.224,0.549,1.224,1.225v1.837c0,0.676-0.549,1.225-1.224,1.225h-1.835z" fill="#020202" fill-opacity="0.2" stroke-opacity="0.2"/>
<linearGradient gradientUnits="userSpaceOnUse" id="SVGID_26" x1="36.94" x2="36.94" y1="43.45" y2="46.53">
<stop offset="0" stop-color="#D3D7D5"/>
<stop offset="0.07" stop-color="#D3D7D5"/>
<stop offset="0.26" stop-color="#BFC2C1"/>
<stop offset="0.66" stop-color="#989D9D"/>
<stop offset="0.96" stop-color="#AFB3B2"/>
<stop offset="1" stop-color="#5B5B5D"/>
</linearGradient>
<path d="M36.02,46.53c-0.336,0-0.612-0.275-0.612-0.612v-1.837c0-0.336,0.276-0.611,0.612-0.611h1.837c0.337,0,0.612,0.275,0.612,0.611v1.837c0,0.337-0.275,0.612-0.612,0.612h-1.835z" fill="url(#SVGID_26)"/>
<linearGradient gradientUnits="userSpaceOnUse" id="SVGID_27" x1="27.2" x2="27.2" y1="40.98" y2="48.38">
<stop offset="0" stop-color="#B8BBBA"/>
<stop offset="1" stop-color="#F4FBF6"/>
</linearGradient>
<path d="M26.84,48.36c-1.298,0-2.355-1.057-2.355-2.354v-2.639c0-1.297,1.057-2.354,2.355-2.354h0.706c1.298,0,2.354,1.057,2.354,2.354v2.638c0,1.297-1.057,2.354-2.354,2.354h-0.707z" fill="url(#SVGID_27)" fill-opacity="0.4" stroke-opacity="0.4"/>
<linearGradient gradientUnits="userSpaceOnUse" id="SVGID_28" x1="27.2" x2="27.2" y1="41.6" y2="47.76">
<stop offset="0" stop-color="#222021"/>
<stop offset="1" stop-color="#6E6E6F"/>
</linearGradient>
<path d="M26.84,47.75c-0.961,0-1.743-0.781-1.743-1.742v-2.639c0-0.961,0.781-1.742,1.743-1.742h0.706c0.961,0,1.743,0.781,1.743,1.743v2.638c0,0.961-0.782,1.742-1.743,1.742h-0.707z" fill="url(#SVGID_28)" fill-opacity="0.7" stroke-opacity="0.7"/>
<linearGradient gradientUnits="userSpaceOnUse" id="SVGID_29" x1="27.2" x2="27.2" y1="42.22" y2="47.15">
<stop offset="0" stop-color="#B3C77D"/>
<stop offset="0.73" stop-color="#3C743A"/>
<stop offset="1" stop-color="#235138"/>
</linearGradient>
<path d="M28.68,46.01c0,0.624-0.506,1.13-1.13,1.13h-0.706c-0.624,0-1.13-0.506-1.13-1.13v-2.639c0-0.623,0.506-1.129,1.13-1.129h0.706c0.624,0,1.13,0.506,1.13,1.13v2.64z" fill="url(#SVGID_29)"/>
<path d="M46,48.36c-1.299,0-2.355-1.057-2.355-2.354v-2.639c0-1.298,1.057-2.354,2.355-2.354h0.706c1.298,0,2.354,1.057,2.354,2.354v2.639c0,1.297-1.057,2.354-2.354,2.354h-0.71z" fill="url(#SVGID_27)" fill-opacity="0.4" stroke-opacity="0.4"/>
<path d="M46,47.75c-0.961,0-1.742-0.781-1.742-1.742v-2.639c0-0.961,0.78-1.742,1.742-1.742h0.706c0.96,0,1.742,0.781,1.742,1.742v2.639c0,0.96-0.781,1.742-1.742,1.742h-0.71z" fill="url(#SVGID_28)" fill-opacity="0.7" stroke-opacity="0.7"/>
<linearGradient gradientUnits="userSpaceOnUse" id="SVGID_32" x1="46.35" x2="46.35" y1="42.22" y2="47.15">
<stop offset="0" stop-color="#C6B17B"/>
<stop offset="0.75" stop-color="#98604F"/>
<stop offset="1" stop-color="#7F3736"/>
</linearGradient>
<path d="M47.84,46.01c0,0.624-0.506,1.13-1.13,1.13h-0.71c-0.625,0-1.131-0.506-1.131-1.13v-2.639c0-0.624,0.506-1.13,1.131-1.13h0.706c0.624,0,1.13,0.506,1.13,1.13v2.64z" fill="url(#SVGID_32)"/>
<rect fill="none" height="60" width="60"/>
<polygon fill-opacity="0.1" points="24.28,35.94,16.11,35.94,16.11,26.48,24.28,26.48,24.28,20.36,35.76,31.51,24.28,41.94" stroke-opacity="0.1"/>
<polygon fill-opacity="0.2" points="24.89,35.32,16.72,35.32,16.73,27.09,24.89,27.09,24.89,21.8,34.88,31.51,24.9,40.5" stroke-opacity="0.2"/>
<linearGradient gradientUnits="userSpaceOnUse" id="SVGID_33" x1="25.67" x2="25.67" y1="22.7" y2="38.5">
<stop offset="0" stop-color="#B3C77D"/>
<stop offset="0.73" stop-color="#3C743A"/>
<stop offset="1" stop-color="#235138"/>
</linearGradient>
<polygon fill="url(#SVGID_33)" points="25.51,39.07,34,30.89,25.5,22.64,25.5,27.09,17.34,27.09,17.34,34.71,25.5,34.71"/>
<polygon fill="#FFFFFF" points="34,30.89,25.5,22.64,25.5,23.25,33.68,31.2"/>
<polygon fill="#FFFFFF" points="17.34,27.7,25.5,27.7,25.5,27.09,17.34,27.09,17.34,34.71,17.34,34.71"/>
</g>
</svg>
