<?xml version="1.0" encoding="UTF-8"?>
<!DOCTYPE svg PUBLIC "-//W3C//DTD SVG 1.1 Tiny//EN" "http://www.w3.org/Graphics/SVG/1.1/DTD/svg11-tiny.dtd">
<svg baseProfile="tiny" height="60" viewBox="0 0 60 60" width="60" xmlns="http://www.w3.org/2000/svg" xmlns:xlink="http://www.w3.org/1999/xlink">
<g>
<rect fill="none" height="60" width="59.999"/>
<linearGradient gradientUnits="userSpaceOnUse" id="SVGID_1_" x1="28.0479" x2="28.0478" y1="7.7354" y2="49.7556">
<stop offset="0" style="stop-color:#FFFFFF"/>
<stop offset="0.2485" style="stop-color:#F1F2F1"/>
<stop offset="0.6121" style="stop-color:#D7DBD9"/>
<stop offset="0.9152" style="stop-color:#E4E6E5"/>
<stop offset="0.9818" style="stop-color:#FDFEFD"/>
<stop offset="1" style="stop-color:#FDFEFD"/>
</linearGradient>
<polygon fill="url(#SVGID_1_)" points="54.098,47.98 4.005,50.45 1.999,9.095 52.092,6.622 "/>
<linearGradient gradientUnits="userSpaceOnUse" id="SVGID_2_" x1="28.0479" x2="28.0478" y1="8.2808" y2="49.2366">
<stop offset="0" style="stop-color:#F2F2F2"/>
<stop offset="0.2485" style="stop-color:#EBECEB"/>
<stop offset="0.6121" style="stop-color:#AFB3B2"/>
<stop offset="0.9152" style="stop-color:#CED0CE"/>
<stop offset="0.9818" style="stop-color:#E7E8E7"/>
<stop offset="1" style="stop-color:#E7E8E7"/>
</linearGradient>
<path d="M51.492,7.289l1.943,40.087l-48.83,2.405L2.661,9.698L51.492,7.289" fill="url(#SVGID_2_)"/>
<linearGradient gradientUnits="userSpaceOnUse" id="SVGID_3_" x1="5.3555" x2="50.48" y1="26.7739" y2="24.7415">
<stop offset="0" style="stop-color:#AACBC0"/>
<stop offset="1" style="stop-color:#59769E"/>
</linearGradient>
<polygon fill="url(#SVGID_3_)" points="51.11,39.233 6.322,41.44 4.908,12.275 49.697,10.066 "/>
<polygon fill="#222021" fill-opacity="0.3" points="53.861,50.161 52.514,14.279 7.008,14.279 7.008,50.161 " stroke-opacity="0.3"/>
<linearGradient gradientUnits="userSpaceOnUse" id="SVGID_4_" x1="32.9248" x2="32.9248" y1="14.937" y2="53.5091">
<stop offset="0" style="stop-color:#F2F2F2"/>
<stop offset="0.297" style="stop-color:#DCDCDC"/>
<stop offset="0.6121" style="stop-color:#AFB3B2"/>
<stop offset="0.9152" style="stop-color:#CED0CE"/>
<stop offset="0.9818" style="stop-color:#E7E8E7"/>
<stop offset="1" style="stop-color:#E7E8E7"/>
</linearGradient>
<rect fill="url(#SVGID_4_)" height="38.25" width="50.149" x="7.85" y="15.128"/>
<linearGradient gradientUnits="userSpaceOnUse" id="SVGID_5_" x1="32.9248" x2="32.9248" y1="15.1279" y2="53.5738">
<stop offset="0" style="stop-color:#FFFFFF"/>
<stop offset="0.2485" style="stop-color:#F1F2F1"/>
<stop offset="0.6121" style="stop-color:#D7DBD9"/>
<stop offset="0.9152" style="stop-color:#E4E6E5"/>
<stop offset="0.9818" style="stop-color:#FDFEFD"/>
<stop offset="1" style="stop-color:#FDFEFD"/>
</linearGradient>
<path d="M57.37,15.767v36.973H8.479V15.767H57.37 M57.999,15.128H7.85v38.25h50.149V15.128L57.999,15.128z" fill="url(#SVGID_5_)"/>
<linearGradient gradientUnits="userSpaceOnUse" id="SVGID_6_" x1="33.0215" x2="33.0215" y1="18.2749" y2="50.5403">
<stop offset="0" style="stop-color:#B3B3B3"/>
<stop offset="1" style="stop-color:#666666"/>
</linearGradient>
<rect fill="url(#SVGID_6_)" height="31.317" width="44.844" x="10.6" y="18.45"/>
<radialGradient cx="54.0225" cy="18.9033" gradientUnits="userSpaceOnUse" id="SVGID_7_" r="52.4862">
<stop offset="0" style="stop-color:#869D67"/>
<stop offset="0.503" style="stop-color:#476358"/>
<stop offset="1" style="stop-color:#182637"/>
</radialGradient>
<rect fill="url(#SVGID_7_)" height="30.029" width="43.32" x="11.344" y="19.173"/>
<linearGradient gradientUnits="userSpaceOnUse" id="SVGID_8_" x1="18.3887" x2="65.1917" y1="23.498" y2="49.7402">
<stop offset="0" style="stop-color:#8FB34D"/>
<stop offset="1" style="stop-color:#2B644B"/>
</linearGradient>
<path d="M54.664,39.146c-0.629-0.43-1.334-0.841-2.129-1.204c-4.343-1.972-17.958-4.564-27.088-7.607  c-9.131-3.045-5.986-6.29-5.986-6.29c-0.202-0.711-0.709-1.421-1.521-0.204c-2.154,3.23,2.193,5.898,7,7.608  c5.986,2.132,19.838,4.423,25.262,8.016c1.836,1.216,3.296,2.394,4.463,3.482V39.146z" fill="url(#SVGID_8_)"/>
<linearGradient gradientUnits="userSpaceOnUse" id="SVGID_9_" x1="25.0088" x2="27.8499" y1="32.647" y2="39.5468">
<stop offset="0" style="stop-color:#8FB34D"/>
<stop offset="1" style="stop-color:#2B644B"/>
</linearGradient>
<path d="M21.49,39.972c1.014,0.813,4.647,1.473,8.219-1.927c2.129-2.029,2.129-5.073,2.129-5.073  s-3.854-1.116-7.405,1.319C20.882,36.726,20.477,39.159,21.49,39.972z" fill="url(#SVGID_9_)"/>
<linearGradient gradientUnits="userSpaceOnUse" id="SVGID_10_" x1="15.8662" x2="16.0691" y1="27.7065" y2="31.6628">
<stop offset="0" style="stop-color:#8FB34D"/>
<stop offset="1" style="stop-color:#2B644B"/>
</linearGradient>
<path d="M12.544,30.37c0.415,0.624,2.298,1.62,4.854,0.377c1.524-0.744,2.057-2.417,2.057-2.417  s-1.925-1.286-4.302-0.567C12.775,28.479,12.129,29.746,12.544,30.37z" fill="url(#SVGID_10_)"/>
<linearGradient gradientUnits="userSpaceOnUse" id="SVGID_11_" x1="25.8027" x2="26.7159" y1="25.4258" y2="29.8901">
<stop offset="0" style="stop-color:#8FB34D"/>
<stop offset="1" style="stop-color:#2B644B"/>
</linearGradient>
<path d="M29.506,25.059c-0.711-0.71-2.659-1.55-5.275,0.61c-1.563,1.288-1.581,3.556-1.581,3.556  s2.595,0.298,4.675-0.817C29.73,27.116,30.14,25.693,29.506,25.059z" fill="url(#SVGID_11_)"/>
<linearGradient gradientUnits="userSpaceOnUse" id="SVGID_12_" x1="40.0938" x2="42.1227" y1="28.4878" y2="39.1729">
<stop offset="0" style="stop-color:#8FB34D"/>
<stop offset="1" style="stop-color:#2B644B"/>
</linearGradient>
<path d="M43.962,28.813c-0.614-0.793-2.64-1.47-4.871,0.71c-1.446,1.414-1.935,4.57-1.935,4.57  s2.595,0.3,4.674-0.816C44.236,31.985,44.824,29.929,43.962,28.813z" fill="url(#SVGID_12_)"/>
<linearGradient gradientUnits="userSpaceOnUse" id="SVGID_13_" x1="43.7607" x2="43.2202" y1="36.4453" y2="47.2661">
<stop offset="0" style="stop-color:#8FB34D"/>
<stop offset="1" style="stop-color:#2B644B"/>
</linearGradient>
<path d="M37.245,46.001c1.288,0.863,6.896,2.138,11.433-1.479c2.711-2.159,1.725-5.969,1.725-5.969  s-5.83-2.202-10.347,0.391C35.539,41.532,35.954,45.136,37.245,46.001z" fill="url(#SVGID_13_)"/>
<linearGradient gradientUnits="userSpaceOnUse" id="SVGID_14_" x1="52.2568" x2="56.5859" y1="29.7988" y2="42.3786">
<stop offset="0" style="stop-color:#8FB34D"/>
<stop offset="1" style="stop-color:#2B644B"/>
</linearGradient>
<path d="M54.664,29.374c-1.041,1.038-1.97,2.361-2.577,4.026c-1.184,3.254,1.644,5.99,1.644,5.99  s0.359-0.069,0.934-0.233V29.374z" fill="url(#SVGID_14_)"/>
<linearGradient gradientUnits="userSpaceOnUse" id="SVGID_15_" x1="47.4512" x2="44.533" y1="29.749" y2="35.4486">
<stop offset="0" style="stop-color:#7DC7BB"/>
<stop offset="0.1333" style="stop-color:#7DC7BB"/>
<stop offset="0.5333" style="stop-color:#6292A3"/>
<stop offset="1" style="stop-color:#455188"/>
</linearGradient>
<path d="M44.197,35.911c0,0,1.608-8.439,3.197-5.71C48.369,31.871,45.559,35.674,44.197,35.911z" fill="url(#SVGID_15_)"/>
<linearGradient gradientUnits="userSpaceOnUse" id="SVGID_16_" x1="40.9365" x2="43.3032" y1="29.688" y2="36.0635">
<stop offset="0" style="stop-color:#7DC7BB"/>
<stop offset="0.5152" style="stop-color:#6292A3"/>
<stop offset="1" style="stop-color:#455188"/>
</linearGradient>
<path d="M44.324,35.956c0,0-0.502-10.259-3.893-6.101C38.119,32.696,41.59,34.696,44.324,35.956z" fill="url(#SVGID_16_)"/>
<polygon fill="#FFFFFF" fill-opacity="0.3" points="57.999,25.07 57.999,15.128 7.85,15.128 7.85,31.056 " stroke-opacity="0.3"/>
<rect fill="#FFFFFF" fill-opacity="0.05" height="1.396" stroke-opacity="0.05" width="44.844" x="10.6" y="48.371"/>
<rect fill="#FFFFFF" fill-opacity="0.05" height="2.204" stroke-opacity="0.05" width="44.844" x="10.6" y="47.563"/>
<rect fill="#FFFFFF" fill-opacity="0.05" height="3.012" stroke-opacity="0.05" width="44.844" x="10.6" y="46.756"/>
<rect fill="#FFFFFF" fill-opacity="0.05" height="3.82" stroke-opacity="0.05" width="44.844" x="10.6" y="45.947"/>
<rect fill="none" height="60" width="59.999"/>
</g>
</svg>
