<?xml version="1.0" encoding="UTF-8"?>
<!DOCTYPE svg PUBLIC "-//W3C//DTD SVG 1.1 Tiny//EN" "http://www.w3.org/Graphics/SVG/1.1/DTD/svg11-tiny.dtd">
<svg baseProfile="tiny" height="30px" version="1.1" viewBox="0 0 30 30" width="30px" x="0px" xmlns="http://www.w3.org/2000/svg" xmlns:xlink="http://www.w3.org/1999/xlink" y="0px">
<path d="M27.578,6.523l-7.36,4.248c-0.363,0.152-0.77,0.057-0.952-0.256l-1.278-2.143c-0.001,0.002-0.004,0.008-0.006,0.008V8.377  c-1.121,0.582-3.618,2.223-5.188,3.791c-1.632,1.635-3.15,3.393-4.417,5.576c0,0-0.006,0.008-0.008,0.01  c0.009,0.002,0.018,0.002,0.027,0.002l2.725,1.744c0.344,0.221,0.412,0.705,0.158,1.078l-4.794,7.041  c-0.253,0.371-0.735,0.492-1.08,0.268c0,0-0.298-0.193-1.021-0.83c0,0-0.002,0-0.003,0c-0.394-0.346-0.411-0.475-0.785-0.924  c-0.319-0.385-0.573-0.766-0.783-1.115c0,0-0.004,0-0.005-0.002c-0.043-0.07-0.081-0.139-0.119-0.207  c-0.005-0.008-0.01-0.018-0.015-0.023c-0.391-0.699-0.56-1.211-0.56-1.211c-0.178-0.689-0.252-3.057,0.563-5.205  c0.52-1.365,3.24-5.672,6.42-8.855c3.18-3.182,8.124-6.348,10.3-7.004s3.903-0.557,4.416-0.375c0,0,1.326,0.434,2.531,1.537  c0.401,0.367,0.439,0.381,0.75,0.764c0.002,0.004,0.002,0.006,0.002,0.006s-0.002-0.002-0.004-0.002  C27.709,5.195,27.911,5.5,27.911,5.5C28.11,5.844,27.962,6.303,27.578,6.523z"/>
<path d="M28.832,17.445l-4-6C24.646,11.167,24.334,11,24,11s-0.646,0.167-0.832,0.445l-4,6c-0.205,0.307-0.224,0.701-0.05,1.026  C19.293,18.797,19.631,19,20,19h2v6h-2v-2c0-1.104-0.896-2-2-2s-2,0.896-2,2v1v1c0,3,2.775,5,5.5,5s5.5-2,5.5-5v-6h1  c0.369,0,0.707-0.203,0.882-0.528C29.056,18.146,29.037,17.752,28.832,17.445z"/>
<g fill-opacity="0.5" stroke-opacity="0.5">
<rect fill="none" height="30" width="30"/>
</g>
</svg>
