<?xml version="1.0" encoding="UTF-8"?>
<!DOCTYPE svg PUBLIC "-//W3C//DTD SVG 1.1 Tiny//EN" "http://www.w3.org/Graphics/SVG/1.1/DTD/svg11-tiny.dtd">
<svg baseProfile="tiny" height="60" viewBox="0 0 60 60" width="60" xmlns="http://www.w3.org/2000/svg" xmlns:xlink="http://www.w3.org/1999/xlink">
<g>
<rect fill="none" height="60" width="60"/>
<linearGradient gradientUnits="userSpaceOnUse" id="SVGID_1_" x1="17.9414" x2="17.9414" y1="5.0361" y2="34.0517">
<stop offset="0" style="stop-color:#9DD5C4"/>
<stop offset="1" style="stop-color:#455188"/>
</linearGradient>
<path d="M7.014,26.609h21.855V4.753C16.799,4.753,7.014,14.538,7.014,26.609z" fill="url(#SVGID_1_)"/>
<linearGradient gradientUnits="userSpaceOnUse" id="SVGID_2_" x1="17.9678" x2="17.9678" y1="6.0098" y2="52.2334">
<stop offset="0" style="stop-color:#72B9C3"/>
<stop offset="1" style="stop-color:#546F9F"/>
</linearGradient>
<path d="M7.82,25.855C8.563,15.003,17.264,6.301,28.115,5.559v20.296H7.82z" fill="url(#SVGID_2_)"/>
<linearGradient gradientUnits="userSpaceOnUse" id="SVGID_3_" x1="16.4346" x2="16.4346" y1="31.7661" y2="55.483">
<stop offset="0" style="stop-color:#F2F2F2"/>
<stop offset="1" style="stop-color:#AFB3B2"/>
</linearGradient>
<path d="M27.408,55.246c-12.492,0-22.654-10.163-22.654-22.654v-0.708h23.361v23.362H27.408z" fill="url(#SVGID_3_)"/>
<linearGradient gradientUnits="userSpaceOnUse" id="SVGID_4_" x1="16.4404" x2="16.4404" y1="32.5273" y2="54.7021">
<stop offset="0" style="stop-color:#DDDFDD"/>
<stop offset="1" style="stop-color:#808485"/>
</linearGradient>
<path d="M27.361,54.48C15.492,54.09,5.91,44.507,5.52,32.638h21.842V54.48z" fill="url(#SVGID_4_)"/>
<linearGradient gradientUnits="userSpaceOnUse" id="SVGID_5_" x1="44.3184" x2="44.3184" y1="5.0361" y2="34.0517">
<stop offset="0" style="stop-color:#9DD5C4"/>
<stop offset="1" style="stop-color:#455188"/>
</linearGradient>
<path d="M33.391,4.753v21.855h21.855C55.246,14.538,45.461,4.753,33.391,4.753z" fill="url(#SVGID_5_)"/>
<linearGradient gradientUnits="userSpaceOnUse" id="SVGID_6_" x1="44.293" x2="44.293" y1="6.0098" y2="52.2334">
<stop offset="0" style="stop-color:#72B9C3"/>
<stop offset="1" style="stop-color:#546F9F"/>
</linearGradient>
<path d="M34.145,25.855V5.559c10.852,0.743,19.555,9.445,20.297,20.296H34.145z" fill="url(#SVGID_6_)"/>
<linearGradient gradientUnits="userSpaceOnUse" id="SVGID_7_" x1="44.3184" x2="44.3184" y1="31.248" y2="52.7565">
<stop offset="0" style="stop-color:#70B4B6"/>
<stop offset="1" style="stop-color:#455188"/>
</linearGradient>
<path d="M33.391,52.985c12.07,0,21.855-9.784,21.855-21.854H33.391V52.985z" fill="url(#SVGID_7_)"/>
<linearGradient gradientUnits="userSpaceOnUse" id="SVGID_8_" x1="44.293" x2="44.293" y1="6.0107" y2="52.2332">
<stop offset="0" style="stop-color:#72B9C3"/>
<stop offset="1" style="stop-color:#546F9F"/>
</linearGradient>
<path d="M34.145,31.884h20.297c-0.742,10.852-9.445,19.553-20.297,20.296V31.884z" fill="url(#SVGID_8_)"/>
<linearGradient gradientUnits="userSpaceOnUse" id="SVGID_9_" x1="17.9414" x2="17.9414" y1="4.5654" y2="41.5914">
<stop offset="0" style="stop-color:#557499"/>
<stop offset="1" style="stop-color:#242141"/>
</linearGradient>
<path d="M28.869,4.766v21.843H7.027C7.416,14.739,17,5.156,28.869,4.766 M29.623,4  C16.721,4,6.26,14.459,6.26,27.362h23.363V4L29.623,4z" fill="url(#SVGID_9_)"/>
<linearGradient gradientUnits="userSpaceOnUse" id="SVGID_10_" x1="16.4346" x2="16.4346" y1="31.0054" y2="55.875">
<stop offset="0" style="stop-color:#DDE1DF"/>
<stop offset="1" style="stop-color:#525455"/>
</linearGradient>
<path d="M28.115,31.884v23.362c-12.881,0-23.361-10.48-23.361-23.362H28.115 M28.869,31.13H4v0.754  C4,45.181,14.818,56,28.115,56h0.754V31.13L28.869,31.13z" fill="url(#SVGID_10_)"/>
<linearGradient gradientUnits="userSpaceOnUse" id="SVGID_11_" x1="44.3184" x2="44.3184" y1="4.5654" y2="41.5914">
<stop offset="0" style="stop-color:#557499"/>
<stop offset="1" style="stop-color:#242141"/>
</linearGradient>
<path d="M33.391,4.766c11.869,0.39,21.453,9.973,21.844,21.843H33.391V4.766 M32.637,4v23.362H56  C56,14.459,45.541,4,32.637,4L32.637,4z" fill="url(#SVGID_11_)"/>
<linearGradient gradientUnits="userSpaceOnUse" id="SVGID_12_" x1="44.3184" x2="44.3184" y1="30.1255" y2="53.881">
<stop offset="0" style="stop-color:#557499"/>
<stop offset="1" style="stop-color:#242141"/>
</linearGradient>
<path d="M55.234,31.13C54.844,43,45.26,52.583,33.391,52.973V31.13H55.234 M56,30.376H32.637v23.362  C45.541,53.739,56,43.279,56,30.376L56,30.376z" fill="url(#SVGID_12_)"/>
<rect fill="none" height="60" width="60"/>
</g>
<g transform="matrix(1 0 0 1 30 30)">
<polygon fill="none" points="24.728,0 23.608,0.487 0,0.487 0,30.487 30,30.487 30,0.487 24.928,0.487 "/>
<path d="M7.991,30.324c-3.295,0-5.976-1.69-6.668-4.205c-0.366-1.331-0.159-2.734,0.6-4.06  c1.063-1.86,3.062-3.301,5.478-3.952c0.873-0.235,1.762-0.355,2.639-0.355c0.927,0,1.816,0.133,2.635,0.389V5.247L24.728,0  l1.526,3.717l0.018-0.007l0.389,0.963l0.609,1.563l-10.565,4.318c0.008,2.6,0.003,5.635-0.001,8.204  c-0.003,2.014-0.006,3.74-0.002,4.745c0.016,2.839-2.473,5.497-6.049,6.463C9.771,30.203,8.875,30.324,7.991,30.324L7.991,30.324z" fill-opacity="0.35" stroke-opacity="0.35"/>
<linearGradient gradientTransform="matrix(1 0 0 -1 2194 2908.0361)" gradientUnits="userSpaceOnUse" id="SVGID_1__" x1="-2179.9351" x2="-2179.9351" y1="2902.811" y2="2880.1646">
<stop offset="0" style="stop-color:#93BD66"/>
<stop offset="1" style="stop-color:#22403B"/>
</linearGradient>
<path d="M25.98,5.682l-1.79-4.357L13.902,5.902l0.016,13.899c-1.574-1.029-3.896-1.366-6.257-0.729  c-3.722,1.003-6.127,4.041-5.374,6.78c0.756,2.742,4.383,4.15,8.104,3.146c3.146-0.849,5.324-3.094,5.311-5.493  c-0.01-2.399,0.02-8.913,0-13.625L25.98,5.682z" fill="url(#SVGID_1__)"/>
<linearGradient gradientTransform="matrix(0.5 0 0 0.5 614.8193 -1693.241)" gradientUnits="userSpaceOnUse" id="SVGID_2__" x1="-1201.8184" x2="-1201.8184" y1="3393.1226" y2="3404.4397">
<stop offset="0" style="stop-color:#72B9C3"/>
<stop offset="1" style="stop-color:#546F9F"/>
</linearGradient>
<polygon fill="url(#SVGID_2__)" points="13.918,17.409 13.907,5.902 13.902,5.902 13.916,17.408 "/>
<linearGradient gradientTransform="matrix(0.5 0 0 0.5 614.8193 -1693.241)" gradientUnits="userSpaceOnUse" id="SVGID_3__" x1="-1187.957" x2="-1187.957" y1="3393.1177" y2="3404.4392">
<stop offset="0" style="stop-color:#A6C87E"/>
<stop offset="1" style="stop-color:#1C3533"/>
</linearGradient>
<path d="M15.701,9.169c0.005,0.759,0.006-0.117,0.008,0.711L25.98,5.682l-0.252-0.646L15.701,9.169z" fill="url(#SVGID_3__)"/>
<linearGradient gradientTransform="matrix(0.5 -0.0026 0.0026 0.5 604.1579 -1699.019)" gradientUnits="userSpaceOnUse" id="SVGID_4__" x1="-1188.0039" x2="-1188.0039" y1="3402.1909" y2="3430.4734">
<stop offset="0" style="stop-color:#BCD39A"/>
<stop offset="1" style="stop-color:#1C3533"/>
</linearGradient>
<polygon fill="url(#SVGID_4__)" points="14.072,20.2 14.072,6.3 24.389,1.807 24.19,1.324 13.674,5.902 13.674,19.803 "/>
<linearGradient gradientTransform="matrix(1 0 0 -1 2194 2908.0361)" gradientUnits="userSpaceOnUse" id="SVGID_5__" x1="-2185.0737" x2="-2185.0737" y1="2887.9233" y2="2879.6807">
<stop offset="0" style="stop-color:#B7CC97"/>
<stop offset="0.4667" style="stop-color:#347940"/>
<stop offset="1" style="stop-color:#173636"/>
</linearGradient>
<path d="M7.96,28.527c-2.474,0.012-4.447-1.129-4.909-2.839c-0.28-1.039,0.018-2.187,0.84-3.229  c0.9-1.141,2.291-2.007,3.923-2.436c0.688-0.184,1.385-0.277,2.075-0.281c2.474-0.013,4.445,1.129,4.91,2.84  c0.615,2.267-1.522,4.807-4.764,5.664C9.347,28.43,8.647,28.522,7.96,28.527L7.96,28.527z" fill="url(#SVGID_5__)"/>
<rect fill="none" height="30" width="30" y="0.487"/>
</g>
</svg>
