<?xml version="1.0" encoding="UTF-8"?>
<!DOCTYPE svg PUBLIC "-//W3C//DTD SVG 1.1 Tiny//EN" "http://www.w3.org/Graphics/SVG/1.1/DTD/svg11-tiny.dtd">
<svg baseProfile="tiny" height="30px" version="1.1" viewBox="0 0 30 30" width="30px" x="0px" xmlns="http://www.w3.org/2000/svg" xmlns:xlink="http://www.w3.org/1999/xlink" y="0px">
<path d="M10.149,6H27v9.914l2,2.4V6c0-1.104-0.896-2-2-2H8.149L10.149,6z"/>
<path d="M16.283,24.273c-0.041-0.088-0.061-0.183-0.093-0.273H3V7.146L1.138,5.285C1.052,5.508,1,5.747,1,6v18c0,1.104,0.896,2,2,2  h16C17.842,26,16.775,25.322,16.283,24.273z"/>
<path d="M19.166,15.017C19.068,14.54,19,14.039,19,13.5c0-2.485,1.119-4.5,2.5-4.5s2.5,2.015,2.5,4.5  c0,0.172-0.018,0.336-0.028,0.503C23.981,14.003,23.99,14,24,14c0.75,0,1.453,0.291,2,0.786V7H11.149L19.166,15.017z"/>
<path d="M12.853,17H5v-1v-2l2.773-2.08L4,8.146V23h12c0-0.699,0.246-1.38,0.692-1.918l0.11-0.132L12.853,17z"/>
<g fill-opacity="0.5" stroke-opacity="0.5">
<rect fill="none" height="30" width="30"/>
</g>
<path d="M28.15,24H29c0.388,0,0.741-0.225,0.905-0.576C29.969,23.289,30,23.144,30,23c0-0.229-0.079-0.457-0.232-0.641l-5-6  C24.578,16.132,24.297,16,24,16s-0.578,0.132-0.769,0.359l-1.237,1.484L28.15,24z"/>
<path d="M18.225,22.372C18.078,22.554,18,22.775,18,23c0,0.144,0.031,0.289,0.094,0.424C18.259,23.775,18.611,24,19,24h0.852  L18.225,22.372z"/>
<path d="M24.961,29.109L21,25.147V29c0,0.553,0.447,1,1,1h4c0.146,0,0.283-0.035,0.408-0.092  C25.867,29.779,25.36,29.508,24.961,29.109z"/>
<path d="M27.693,26.373c0.389,0.389,0.41,1.004,0.049,1.367c-0.363,0.363-0.979,0.344-1.367-0.045L2.307,3.625  C1.918,3.236,1.897,2.621,2.26,2.259s0.979-0.341,1.367,0.048L27.693,26.373z"/>
</svg>
