<?xml version="1.0" encoding="UTF-8"?>
<!DOCTYPE svg PUBLIC "-//W3C//DTD SVG 1.1 Tiny//EN" "http://www.w3.org/Graphics/SVG/1.1/DTD/svg11-tiny.dtd">
<svg baseProfile="tiny" height="10px" version="1.1" viewBox="0 0 10 10" width="10px" x="0px" xmlns="http://www.w3.org/2000/svg" xmlns:xlink="http://www.w3.org/1999/xlink" y="0px">
<rect fill="none" height="10" width="10"/>
<path d="M0,10h3c3.859,0,7-3.141,7-7V0H0V10z" fill="#14141E" fill-opacity="0.1" stroke-opacity="0.1"/>
<path d="M0,9h3c3.3,0,6-2.7,6-6V0H0V9z" fill="#14141E" fill-opacity="0.2" stroke-opacity="0.2"/>
<path d="M0,8h3c3.3,0,6-2.7,6-6V0H0V8z" fill="url(#SVGID_1_)" fill-opacity="0.9" stroke-opacity="0.9"/>
<path d="M8,2c0,2.757-2.243,5-5,5H0v1h3c3.3,0,6-2.7,6-6V0H8V2z" fill="#FFFFFF" fill-opacity="0.4" stroke-opacity="0.4"/>
<defs>
<linearGradient gradientUnits="userSpaceOnUse" id="SVGID_1_" x1="4.5" x2="4.5" y1="-70.8745" y2="7.9514">
<stop offset="0" style="stop-color:#FFFFFF"/>
<stop offset="0" style="stop-color:#FDFDFE"/>
<stop offset="0.9" style="stop-color:#E6E6F0"/>
<stop offset="1" style="stop-color:#DCDCE6"/>
</linearGradient>
</defs>
</svg>
