<?xml version="1.0" encoding="UTF-8"?>
<!DOCTYPE svg PUBLIC "-//W3C//DTD SVG 1.1 Tiny//EN" "http://www.w3.org/Graphics/SVG/1.1/DTD/svg11-tiny.dtd">
<svg baseProfile="tiny" height="30px" version="1.1" viewBox="0 0 30 30" width="30px" x="0px" xmlns="http://www.w3.org/2000/svg" xmlns:xlink="http://www.w3.org/1999/xlink" y="0px">
<path d="M27,21h-2.869L28,10h-8.639l3.179-9h-5.302l-3.247,9.192c2.081,0.37,4.071,1.317,5.885,2.808h1.762l-0.426,1.212  c1.5,1.545,1.498,4.048-0.01,5.588c-1.629,1.661-3.438,2.841-5.35,3.521l4.909,5.355C20.952,28.883,21.22,29,21.5,29  s0.548-0.117,0.737-0.324l5.5-6c0.268-0.293,0.338-0.715,0.179-1.078C27.756,21.234,27.396,21,27,21z"/>
<path d="M19.773,15.6C17.467,13.245,14.777,12,12,12c-2.775,0-5.463,1.244-7.773,3.6  c-0.763,0.777-0.763,2.023,0,2.801C6.537,20.756,9.225,22,12,22c2.777,0,5.467-1.245,7.773-3.6  C20.536,17.622,20.536,16.378,19.773,15.6z M12,20c-2.68,0-4.816-1.441-6.346-3c0.695-0.709,1.522-1.385,2.463-1.921  C8.047,15.376,8,15.682,8,16C8,18.21,9.793,20,12,20c2.209,0,4-1.79,4-4c0-0.318-0.047-0.625-0.117-0.922  c0.941,0.536,1.769,1.213,2.463,1.922C16.818,18.559,14.68,20,12,20z" fill-rule="evenodd"/>
<g fill-opacity="0.5" stroke-opacity="0.5">
<rect fill="none" height="30" width="30"/>
</g>
</svg>
