<?xml version="1.0" encoding="UTF-8"?>
<!DOCTYPE svg PUBLIC "-//W3C//DTD SVG 1.1 Tiny//EN" "http://www.w3.org/Graphics/SVG/1.1/DTD/svg11-tiny.dtd">
<svg baseProfile="tiny" height="60" viewBox="0 0 60 60" width="60" xmlns="http://www.w3.org/2000/svg" xmlns:xlink="http://www.w3.org/1999/xlink">
<g>
<g>
<rect fill="#E6E6E6" height="60" width="60" x="0"/>
<linearGradient gradientTransform="matrix(1 0 0 -1 -208.8501 -238.8496)" gradientUnits="userSpaceOnUse" id="SVGID_1_" x1="238.8494" x2="238.8494" y1="-245.1958" y2="-289.6997">
<stop offset="0" style="stop-color:#949494"/>
<stop offset="1" style="stop-color:#393939"/>
</linearGradient>
<path d="M48.378,43.6c-1.834-0.954-10.918-4.137-11.093-4.333l0,0c-1.027-1.18-0.987-3.782-0.47-4.912l0,0   c0.037-0.079,0.073-0.155,0.112-0.218c0.128-0.196,0.241-0.391,0.363-0.588h-0.006c0.897-1.463,1.649-2.92,2.263-4.286   c1.113,0.385,2.54-0.648,3.25-2.4c0.736-1.81,0.418-3.693-0.71-4.202c-0.064-0.029-0.132-0.031-0.194-0.052v-0.001   c0.145-0.574,0.21-0.909,0.21-0.909c1.948-8.736-2.291-15.664-12.558-16.005c-4.219,0-6.25,1.917-7.816,3.924   c-2.548,0.393-6.585,2.727-3.737,12.954c-0.108,0.015-0.216,0.033-0.32,0.075c-1.137,0.481-1.494,2.344-0.795,4.167   c0.695,1.82,2.183,2.909,3.322,2.432c0.068-0.029,0.13-0.079,0.192-0.123c0.626,1.41,1.395,2.913,2.321,4.427h-0.004   c0.034,0.053,0.063,0.105,0.097,0.157c0.019,0.031,0.037,0.059,0.054,0.09c0.002,0.004,0.004,0.007,0.004,0.007   c0.069,0.11,0.134,0.224,0.207,0.334c0.584,0.917,0.728,3.554-0.184,4.907c-0.239,0.314-9.191,3.456-11.268,4.556   c-2.377,1.263-6.261,4.165-6.261,10.706h49.286C54.642,47.765,50.211,44.552,48.378,43.6z M18.012,22.567   c0.022-0.021,0.046-0.044,0.069-0.065c0.003,0.018,0.005,0.027,0.012,0.044C18.063,22.55,18.038,22.561,18.012,22.567z" fill="url(#SVGID_1_)"/>
<linearGradient gradientTransform="matrix(1 0 0 -1 -208.8501 -238.8496)" gradientUnits="userSpaceOnUse" id="SVGID_2_" x1="238.8494" x2="238.8494" y1="-246.0537" y2="-292.9995">
<stop offset="0" style="stop-color:#7A7A7A"/>
<stop offset="0.7515" style="stop-color:#0A0A0A"/>
<stop offset="1" style="stop-color:#5F5F5F"/>
</linearGradient>
<path d="M6.048,54.306c0.185-4.285,2.164-7.46,5.89-9.436c1.086-0.577,4.294-1.795,6.87-2.776   c4.27-1.624,4.425-1.712,4.618-1.972c1.005-1.481,0.94-3.926,0.436-5.226l-0.573-1.025c-0.835-1.366-1.601-2.829-2.277-4.349   l-0.322-0.718l-0.662,0.424l-0.079,0.057c-0.105,0.05-0.205,0.071-0.312,0.071c-0.642,0-1.602-0.74-2.126-2.111   c-0.608-1.585-0.261-3.012,0.429-3.302c0.027-0.013,0.105-0.025,0.161-0.034l0.208-0.033l0.624-0.059l-0.448-1.833   c0,0-1.57-6.312,0.211-9.042c0.896-1.373,2.197-1.84,3.14-1.986l0.263-0.042l0.166-0.207c1.385-1.774,3.204-3.667,7.284-3.667   c4.541,0.153,8.063,1.664,10.162,4.374c2.076,2.684,2.693,6.519,1.736,10.809c-0.004,0.024-0.226,1.554-0.226,1.554l0.477,0.149   c0.041,0.015,0.085,0.022,0.129,0.031c0.672,0.301,0.989,1.745,0.346,3.326c-0.546,1.354-1.491,2.06-2.139,2.06   c-0.092,0-0.18-0.015-0.264-0.044l-0.582-0.201l-0.253,0.562c-0.656,1.456-1.404,2.876-2.224,4.21l-0.573,1.025   c-0.533,1.364-0.558,4.115,0.641,5.487c0,0,2.002,0.885,3.896,1.588c2.681,0.996,6.352,2.358,7.393,2.898   c0.952,0.496,5.571,3.217,5.885,9.436H6.048V54.306z" fill="url(#SVGID_2_)"/>
</g>
</g>
<g transform="matrix(1 0 0 1 30 30)">
<polygon fill="none" points="0,7.489 0,24.514 0,30 30,30 30,24.514 30,5.713 30,0 0,0 "/>
<path d="M1.777,26.306C0.797,26.306,0,25.502,0,24.514V7.489c0-0.988,0.797-1.792,1.777-1.792h0.125V5.495  c0-1.01,0.771-1.801,1.754-1.801h3.548c0.657,0,1.22,0.354,1.521,0.892c0.326-0.405,0.824-0.665,1.381-0.665h18.116  c0.98,0,1.778,0.804,1.778,1.792v18.801c0,0.988-0.798,1.792-1.778,1.792H1.777z" fill-opacity="0.35" stroke-opacity="0.35"/>
<linearGradient gradientUnits="userSpaceOnUse" id="SVGID_1__" x1="2.8789" x2="7.9217" y1="6.0669" y2="6.0669">
<stop offset="0" style="stop-color:#F0F0F0"/>
<stop offset="0.4788" style="stop-color:#7E8182"/>
<stop offset="1" style="stop-color:#E6E6E6"/>
</linearGradient>
<path d="M7.957,7.439V5.495c0-0.458-0.339-0.801-0.753-0.801H3.656c-0.414,0-0.754,0.342-0.754,0.801v1.944  H7.957z" fill="url(#SVGID_1__)"/>
<radialGradient cx="5.4297" cy="19.583" gradientTransform="matrix(1 0 0 1.008 0 -14.4484)" gradientUnits="userSpaceOnUse" id="SVGID_2__" r="1.8354">
<stop offset="0" style="stop-color:#F2F2F2"/>
<stop offset="1" style="stop-color:#D9D9D9"/>
</radialGradient>
<path d="M7.204,4.694H3.656c-0.414,0-0.754,0.342-0.754,0.801v0.393c0-0.459,0.34-0.801,0.754-0.801h3.548  c0.414,0,0.753,0.342,0.753,0.801V5.495C7.957,5.037,7.618,4.694,7.204,4.694z" fill="url(#SVGID_2__)"/>
<linearGradient gradientUnits="userSpaceOnUse" id="SVGID_3_" x1="15" x2="15" y1="4.8916" y2="25.3392">
<stop offset="0" style="stop-color:#D2D3D2"/>
<stop offset="0.1212" style="stop-color:#D2D3D2"/>
<stop offset="0.4182" style="stop-color:#B2B6B5"/>
<stop offset="0.4182" style="stop-color:#A2A5A5"/>
<stop offset="0.6606" style="stop-color:#808485"/>
<stop offset="0.9697" style="stop-color:#AFB3B2"/>
<stop offset="0.9697" style="stop-color:#5B5B5D"/>
<stop offset="1" style="stop-color:#AFB3B2"/>
<stop offset="1" style="stop-color:#5B5B5D"/>
</linearGradient>
<path d="M28.222,4.921H10.105c-0.428,0-0.777,0.355-0.777,0.792v0.984H1.777C1.35,6.697,1,7.053,1,7.489  v17.024c0,0.436,0.35,0.792,0.777,0.792h26.444c0.427,0,0.778-0.356,0.778-0.792V5.713C29,5.276,28.648,4.921,28.222,4.921z" fill="url(#SVGID_3_)"/>
<linearGradient gradientUnits="userSpaceOnUse" id="SVGID_4_" x1="24.7998" x2="24.7998" y1="6.1997" y2="9.553">
<stop offset="0" style="stop-color:#808080"/>
<stop offset="1" style="stop-color:#E6E6E6"/>
</linearGradient>
<rect fill="url(#SVGID_4_)" height="3.366" width="5.244" x="22.179" y="6.185"/>
<linearGradient gradientUnits="userSpaceOnUse" id="SVGID_5_" x1="24.8008" x2="24.8008" y1="9.249" y2="6.4746">
<stop offset="0" style="stop-color:#000000"/>
<stop offset="1" style="stop-color:#3B3B3B"/>
</linearGradient>
<rect fill="url(#SVGID_5_)" height="2.801" width="4.583" x="22.509" y="6.468"/>
<path d="M23.174,15.992c-0.002,4.312-3.498,8.564-7.811,8.563c-4.311-0.002-7.806-4.257-7.806-8.568  c0.003-4.312,3.499-7.806,7.812-7.804S23.174,11.681,23.174,15.992z" fill="#222021" fill-opacity="0.5" stroke-opacity="0.5"/>
<linearGradient gradientUnits="userSpaceOnUse" id="SVGID_6_" x1="15.3652" x2="15.3652" y1="7.8438" y2="23.4871">
<stop offset="0" style="stop-color:#CFCFCF"/>
<stop offset="0.1091" style="stop-color:#CFCFCF"/>
<stop offset="0.6848" style="stop-color:#121212"/>
<stop offset="1" style="stop-color:#A6A6A6"/>
</linearGradient>
<circle cx="15.366" cy="15.674" fill="url(#SVGID_6_)" r="7.778"/>
<linearGradient gradientUnits="userSpaceOnUse" id="SVGID_7_" x1="15.3652" x2="15.3652" y1="8.1816" y2="22.9943">
<stop offset="0" style="stop-color:#F2F2F2"/>
<stop offset="1" style="stop-color:#636566"/>
</linearGradient>
<circle cx="15.366" cy="15.675" fill="url(#SVGID_7_)" r="7.388"/>
<linearGradient gradientTransform="matrix(1 3.000000e-004 -3.000000e-004 1 -0.7997 -0.8701)" gradientUnits="userSpaceOnUse" id="SVGID_8_" x1="11.9092" x2="20.4338" y1="12.2778" y2="20.8025">
<stop offset="0" style="stop-color:#1A1A1A"/>
<stop offset="0.503" style="stop-color:#343434"/>
<stop offset="0.7515" style="stop-color:#9E9E9E"/>
<stop offset="1" style="stop-color:#CFCFCF"/>
</linearGradient>
<circle cx="15.366" cy="15.674" fill="url(#SVGID_8_)" r="6.028"/>
<radialGradient cx="13.751" cy="1.9536" gradientTransform="matrix(0.991 3.000000e-004 -3.000000e-004 0.991 2.3474 14.2158)" gradientUnits="userSpaceOnUse" id="SVGID_9_" r="6.5314">
<stop offset="0" style="stop-color:#000000"/>
<stop offset="0.5917" style="stop-color:#000000"/>
<stop offset="0.627" style="stop-color:#050505"/>
<stop offset="0.7652" style="stop-color:#121212"/>
<stop offset="0.8876" style="stop-color:#171717"/>
<stop offset="1" style="stop-color:#171717"/>
</radialGradient>
<circle cx="15.365" cy="15.674" fill="url(#SVGID_9_)" r="5.639"/>
<radialGradient cx="8.0361" cy="-26.853" gradientTransform="matrix(0.9785 3.000000e-004 -3.000000e-004 0.9786 6.3194 35.8131)" gradientUnits="userSpaceOnUse" id="SVGID_10_" r="11.413">
<stop offset="0" style="stop-color:#8D4AAB"/>
<stop offset="0.3091" style="stop-color:#8D4AAB"/>
<stop offset="0.4364" style="stop-color:#532961"/>
<stop offset="0.8061" style="stop-color:#070F0F"/>
<stop offset="1" style="stop-color:#070F0F"/>
</radialGradient>
<path d="M19.449,15.674c-0.001,2.256-1.83,4.084-4.086,4.084c-2.252-0.002-4.081-1.831-4.081-4.086  c0.002-2.256,1.831-4.082,4.083-4.082C17.623,11.592,19.449,13.42,19.449,15.674z" fill="url(#SVGID_10_)"/>
<linearGradient gradientUnits="userSpaceOnUse" id="SVGID_11_" x1="5.5742" x2="5.5742" y1="11.8188" y2="9.3852">
<stop offset="0" style="stop-color:#000000"/>
<stop offset="1" style="stop-color:#3B3B3B"/>
</linearGradient>
<circle cx="5.575" cy="10.556" fill="url(#SVGID_11_)" r="1.167"/>
<linearGradient gradientUnits="userSpaceOnUse" id="SVGID_12_" x1="15.3457" x2="15.3457" y1="10.6523" y2="15.6356">
<stop offset="0" style="stop-color:#FAFDFB"/>
<stop offset="1" style="stop-color:#808080"/>
</linearGradient>
<path d="M15.346,15.611c1.81,0,3.515-0.274,5.02-0.758c-0.428-2.386-2.51-4.201-5.02-4.201  s-4.592,1.814-5.02,4.201C11.83,15.337,13.536,15.611,15.346,15.611z" fill="url(#SVGID_12_)" fill-opacity="0.35" stroke-opacity="0.35"/>
<linearGradient gradientUnits="userSpaceOnUse" id="SVGID_13_" x1="15" x2="15" y1="4.8535" y2="25.2888">
<stop offset="0" style="stop-color:#F2F2F2"/>
<stop offset="0.3212" style="stop-color:#E6E6E6"/>
<stop offset="1" style="stop-color:#666666"/>
</linearGradient>
<path d="M28.222,4.921H10.105c-0.428,0-0.777,0.355-0.777,0.792v0.984H1.777C1.35,6.697,1,7.053,1,7.489  v17.024c0,0.436,0.35,0.792,0.777,0.792c0,0-0.389-0.214-0.389-0.792V7.489c0-0.222,0.175-0.401,0.389-0.401h7.551h0.389V6.697  V5.713c0-0.221,0.174-0.399,0.389-0.399h18.116c0.215,0,0.39,0.179,0.39,0.399v18.801c0,0.626-0.39,0.792-0.39,0.792  c0.427,0,0.778-0.356,0.778-0.792V5.713C29,5.276,28.648,4.921,28.222,4.921z" fill="url(#SVGID_13_)"/>
<rect fill="none" height="30" width="30"/>
</g>
</svg>
