<?xml version="1.0" encoding="UTF-8"?>
<!DOCTYPE svg PUBLIC "-//W3C//DTD SVG 1.1 Tiny//EN" "http://www.w3.org/Graphics/SVG/1.1/DTD/svg11-tiny.dtd">
<svg baseProfile="tiny" height="30" viewBox="0 0 30 30" width="30" xmlns="http://www.w3.org/2000/svg" xmlns:xlink="http://www.w3.org/1999/xlink">
<g>
<g>
<rect fill="none" height="30" width="30"/>
</g>
<circle cx="15" cy="15" fill-opacity="0.6" r="14" stroke-opacity="0.6"/>
<radialGradient cx="15" cy="3.7026" gradientUnits="userSpaceOnUse" id="SVGID_1_" r="23.0618">
<stop offset="0" style="stop-color:#DDD7B2"/>
<stop offset="0.7818" style="stop-color:#B3964D"/>
<stop offset="1" style="stop-color:#B39C4D"/>
</radialGradient>
<path d="M15,28C7.832,28,2,22.168,2,15C2,7.832,7.832,2,15,2s13,5.832,13,13C28,22.168,22.168,28,15,28L15,28  z" fill="url(#SVGID_1_)"/>
<path d="M15,3c6.999,0,12.709,5.564,12.975,12.5C27.981,15.333,28,15.169,28,15  c0-7.168-5.832-13-13-13S2,7.832,2,15c0,0.169,0.019,0.333,0.025,0.5C2.291,8.564,8.001,3,15,3z" fill="#FFFFFF" fill-opacity="0.3" stroke-opacity="0.3"/>
<path d="M27,18.308l-0.942-1.885c0.062-0.259-0.087-0.523-0.347-0.597  c-0.262-0.075-0.398,0.175-0.617,0.346C23,17.808,20.144,19.308,15,19.308s-8-1.5-10.094-3.136c-0.076-0.267-0.355-0.42-0.617-0.346  c-0.26,0.074-0.408,0.338-0.347,0.597L3,18.308c0.497,0,0.957-0.426,1.293-0.854C7,18.808,10,20.308,15,20.308s9-1.5,10.704-2.849  C25.994,17.781,26.407,18.11,27,18.308z" fill="#FFFFFF" fill-opacity="0.6" stroke-opacity="0.6"/>
<path d="M27,18.016l-0.942-1.885c0.062-0.258-0.087-0.522-0.347-0.596c-0.262-0.075-0.398,0.175-0.617,0.345  C23,17.516,20.144,18.058,15,18.058S7,17.516,4.906,15.88c-0.076-0.267-0.355-0.42-0.617-0.345c-0.26,0.074-0.408,0.338-0.347,0.596  L3,18.016c0.497,0,0.957-0.426,1.293-0.854C7,18.516,10,19.516,15,19.516s9-1,10.704-2.348C25.994,17.489,26.407,17.818,27,18.016z" fill-opacity="0.2" stroke-opacity="0.2"/>
<path d="M9.84,18.578c-1.49,1.831-2.932,6.933,1.082,7.394c4.174,0.479,4.881-5.217,8.221-6.91  C19.304,18.98,9.84,18.578,9.84,18.578z" fill-opacity="0.2" stroke-opacity="0.2"/>
<radialGradient cx="-109.7007" cy="-18.4487" gradientTransform="matrix(1.1747 0 0 1.1055 140.4372 39.6372)" gradientUnits="userSpaceOnUse" id="SVGID_2_" r="4.8868">
<stop offset="0" style="stop-color:#CC9A88"/>
<stop offset="1" style="stop-color:#914145"/>
</radialGradient>
<path d="M9.145,18.578c-1.489,1.831-1.379,6.046,1.777,6.287c4.191,0.322,4.186-4.11,7.525-5.804  C18.609,18.98,9.145,18.578,9.145,18.578z" fill="url(#SVGID_2_)"/>
<path d="M13.201,18.758c-0.479-0.021-0.943-0.043-1.385-0.063c-0.565,1.258-0.637,2.821-0.637,2.821  S11.781,19.969,13.201,18.758z" fill-opacity="0.2" stroke-opacity="0.2"/>
<linearGradient gradientUnits="userSpaceOnUse" id="SVGID_3_" x1="14.9995" x2="14.9995" y1="15.5869" y2="19.5381">
<stop offset="0" style="stop-color:#31151D"/>
<stop offset="1" style="stop-color:#76464D"/>
</linearGradient>
<path d="M27,18.016l-0.942-1.885c0.062-0.258-0.087-0.522-0.347-0.596c-0.262-0.075-0.398,0.175-0.617,0.345  C23,17.516,20.144,18.516,15,18.516s-8-1-10.094-2.636c-0.076-0.267-0.355-0.42-0.617-0.345c-0.26,0.074-0.408,0.338-0.347,0.596  L3,18.016c0.497,0,0.957-0.426,1.293-0.854C7,18.516,10,19.516,15,19.516s9-1,10.704-2.348C25.994,17.489,26.407,17.818,27,18.016z" fill="url(#SVGID_3_)"/>
<linearGradient gradientUnits="userSpaceOnUse" id="SVGID_4_" x1="20.5" x2="20.5" y1="8.7856" y2="15.9438">
<stop offset="0" style="stop-color:#997642"/>
<stop offset="1" style="stop-color:#E5E1C3"/>
</linearGradient>
<path d="M20.5,15.834c-1.426,0-2.5-1.505-2.5-3.5s1.074-3.5,2.5-3.5s2.5,1.505,2.5,3.5  S21.926,15.834,20.5,15.834L20.5,15.834z" fill="url(#SVGID_4_)"/>
<ellipse cx="20.5" cy="12.334" fill="#22243E" rx="1.5" ry="2.5"/>
<linearGradient gradientUnits="userSpaceOnUse" id="SVGID_5_" x1="20.583" x2="20.583" y1="11.9248" y2="15.1028">
<stop offset="0" style="stop-color:#22243E"/>
<stop offset="1" style="stop-color:#82969E"/>
</linearGradient>
<path d="M19.166,13.457c0.248,0.813,0.749,1.377,1.334,1.377c0.828,0,1.5-1.119,1.5-2.5  c0-0.155-0.012-0.305-0.027-0.452c-0.153-0.03-0.311-0.048-0.473-0.048C20.43,11.834,19.522,12.511,19.166,13.457z" fill="url(#SVGID_5_)"/>
<path d="M12,14.833c-0.209,0-0.404-0.132-0.475-0.34c-0.041-0.121-0.932-2.159-4.49-2.159  c-0.277,0-0.535-0.724-0.535-1s0.225-0.5,0.5-0.5c4.312,0,5.429,3.205,5.475,3.341c0.087,0.262-0.055,0.545-0.316,0.632  C12.105,14.825,12.053,14.833,12,14.833L12,14.833z" fill-opacity="0.4" stroke-opacity="0.4"/>
<path d="M12,14.021c-0.209,0-0.404-0.132-0.475-0.34c-0.041-0.121-0.992-3.066-4.552-3.066  c-0.276,0-0.474-0.503-0.474-0.78s0.225-0.5,0.5-0.5c4.312,0,5.429,3.892,5.475,4.028c0.087,0.262-0.055,0.545-0.316,0.632  c-0.053,0.018-0.105-0.661-0.158-0.661V14.021z" fill="#FFFFFF" fill-opacity="0.3" stroke-opacity="0.3"/>
<path d="M12,14.334c-0.209,0-0.404-0.132-0.475-0.34c-0.041-0.121-0.965-2.659-4.525-2.659  c-0.275,0-0.5-0.224-0.5-0.5s0.225-0.5,0.5-0.5c4.312,0,5.429,3.205,5.475,3.341c0.087,0.262-0.055,0.545-0.316,0.632  C12.105,14.326,12.053,14.334,12,14.334L12,14.334z" fill="#22243E"/>
</g>
</svg>
