<?xml version="1.0" encoding="UTF-8"?>
<!DOCTYPE svg PUBLIC "-//W3C//DTD SVG 1.1 Tiny//EN" "http://www.w3.org/Graphics/SVG/1.1/DTD/svg11-tiny.dtd">
<svg baseProfile="tiny" height="30px" version="1.1" viewBox="0 0 30 30" width="30px" x="0px" xmlns="http://www.w3.org/2000/svg" xmlns:xlink="http://www.w3.org/1999/xlink" y="0px">
<polygon points="19.732,9.388 19.166,11.62 20.284,11.62 "/>
<path d="M18.539,17.395h-0.331v4.649h0.349c0.388,0,0.675-0.15,0.877-0.461c0.216-0.332,0.325-0.979,0.325-1.923  c0-0.834-0.108-1.436-0.322-1.785C19.239,17.552,18.946,17.395,18.539,17.395z"/>
<path d="M27,4H3C1.896,4,1,4.896,1,6v18c0,1.104,0.896,2,2,2h24c1.104,0,2-0.896,2-2V6C29,4.896,28.104,4,27,4z M18.992,7.248h1.727  L22.64,14.2h-1.696l-0.378-1.441h-1.674L18.505,14.2h-1.519L18.992,7.248z M15.147,7.178c0.479,0,0.936,0.061,1.359,0.179  l0.146,0.04v1.168l-0.258-0.076c-0.343-0.104-0.733-0.154-1.16-0.154c-0.441,0-0.768,0.182-0.996,0.557  c-0.244,0.399-0.368,0.98-0.368,1.726c0,0.998,0.09,1.685,0.269,2.039c0.16,0.319,0.371,0.468,0.665,0.468  c0.176,0,0.305-0.056,0.405-0.176c0.105-0.129,0.159-0.307,0.159-0.529v-1.025h-0.866v-1.139h2.453V14.2h-1.029l-0.114-0.37  c-0.104,0.096-0.225,0.178-0.359,0.245c-0.261,0.13-0.539,0.195-0.828,0.195c-0.798,0-1.411-0.296-1.82-0.878  c-0.4-0.568-0.595-1.468-0.595-2.75c0-1.104,0.248-1.963,0.737-2.555C13.445,7.484,14.186,7.178,15.147,7.178z M8.462,7.248  l1.116,4.638l1.146-4.638h1.495L10.295,14.2H8.63L6.784,7.248H8.462z M16.037,17.404h-0.54v4.64h0.54V23.2h-2.694v-1.156h0.541  v-4.64h-0.541v-0.936L11.736,23.2h-1.632L9.12,18.861L8.025,23.2H6.351l-1.497-6.952h1.688l0.815,4.398l1.076-4.398h1.597  l0.99,4.398l0.901-4.398h1.422h0.053h2.642V17.404z M20.698,22.328c-0.48,0.578-1.21,0.872-2.167,0.872h-1.933v-6.952h2.063  c0.914,0,1.61,0.279,2.069,0.832c0.451,0.541,0.68,1.392,0.68,2.527C21.411,20.864,21.178,21.754,20.698,22.328z M25.876,23.2H22.07  v-6.952h3.767v1.156h-2.158v1.471h1.745v1.166h-1.745v2.003h2.197V23.2z"/>
<g fill-opacity="0.5" stroke-opacity="0.5">
<rect fill="none" height="30" width="30"/>
</g>
</svg>
