<?xml version="1.0" encoding="UTF-8"?>
<!DOCTYPE svg PUBLIC "-//W3C//DTD SVG 1.1 Tiny//EN" "http://www.w3.org/Graphics/SVG/1.1/DTD/svg11-tiny.dtd">
<svg baseProfile="tiny" height="30px" version="1.1" viewBox="0 0 30 30" width="30px" x="0px" xmlns="http://www.w3.org/2000/svg" xmlns:xlink="http://www.w3.org/1999/xlink" y="0px">
<rect fill="none" height="30" width="30"/>
<polygon points="5.279,7.19 7.278,7.19 7.396,11.026 9.237,7.19 10.835,7.19 10.835,11.026 12.552,7.19 14.672,7.19 11.474,13.185   9.598,13.185 9.557,9.458 7.879,13.185 5.961,13.185 "/>
<path d="M17.797,6.364c0-0.637-0.697-1.15-1.557-1.15c-0.86,0-1.559,0.514-1.559,1.15c0,0.34,0.201,0.645,0.52,0.855v5.965h2.076  V7.22C17.596,7.009,17.797,6.704,17.797,6.364z"/>
<path d="M12.214,6.972c0,0,1.099-2.258,4.036-2.258c2.934,0,4.016,2.218,4.016,2.218s-0.539-2.878-4.076-2.878  C12.651,4.054,12.214,6.972,12.214,6.972z"/>
<path d="M11.015,6.333c0,0,1.279-3.078,5.235-3.078c3.953,0,4.973,3.037,4.973,3.037s-0.918-3.836-5.033-3.836  S11.015,6.333,11.015,6.333z"/>
<polygon points="24.721,20.78 24.721,23.215 20.316,23.215 20.32,23.215 14.345,23.215 16.377,20.78 "/>
<polygon points="5.279,20.777 10.581,20.777 8.524,23.215 5.279,23.215 "/>
<polygon points="24.721,15.765 24.721,18.199 18.529,18.199 20.566,15.765 "/>
<polygon points="5.279,18.194 5.279,15.765 14.806,15.765 12.753,18.199 "/>
<polygon points="21.424,13.04 21.5,13.103 21.447,13.162 10.382,26.351 9.383,27.544 7.519,25.978 8.938,24.28 19.631,11.539 "/>
</svg>
