<?xml version="1.0" encoding="UTF-8"?>
<!DOCTYPE svg PUBLIC "-//W3C//DTD SVG 1.1 Tiny//EN" "http://www.w3.org/Graphics/SVG/1.1/DTD/svg11-tiny.dtd">
<svg baseProfile="tiny" height="10px" version="1.1" viewBox="0 0 10 10" width="10px" x="0px" xmlns="http://www.w3.org/2000/svg" xmlns:xlink="http://www.w3.org/1999/xlink" y="0px">
<rect fill="none" height="10" width="10"/>
<g>
<path d="M0,0v10h4c3.301,0,6-2.7,6-6V0H0z" fill="url(#SVGID_1_)"/>
<defs>
<linearGradient gradientUnits="userSpaceOnUse" id="SVGID_1_" x1="5" x2="5" y1="10" y2="-89.7654">
<stop offset="0" style="stop-color:#65B8CC"/>
<stop offset="1" style="stop-color:#306D8C"/>
</linearGradient>
</defs>
</g>
<path d="M8,0v4c0,2.206-1.795,4-4,4H0v1h4c2.758,0,5-2.243,5-5V0H8z" fill="#FFFFFF" fill-opacity="0.2" stroke-opacity="0.2"/>
<path d="M9,0v4c0,2.757-2.242,5-5,5H0v1h4c3.301,0,6-2.7,6-6V0H9z" fill-opacity="0.2" stroke-opacity="0.2"/>
</svg>
