<?xml version="1.0" encoding="UTF-8"?>
<!DOCTYPE svg PUBLIC "-//W3C//DTD SVG 1.1 Tiny//EN" "http://www.w3.org/Graphics/SVG/1.1/DTD/svg11-tiny.dtd">
<svg baseProfile="tiny" height="60" viewBox="0 0 60 60" width="60" xmlns="http://www.w3.org/2000/svg" xmlns:xlink="http://www.w3.org/1999/xlink">
<g>
<g>
<rect fill="#E6E6E6" height="60" width="60"/>
<g>
<linearGradient gradientTransform="matrix(1 0 0 -1 123.4648 235.2559)" gradientUnits="userSpaceOnUse" id="SVGID_1_" x1="-76.5259" x2="-76.5259" y1="220.3242" y2="193.6569">
<stop offset="0" style="stop-color:#7A7A7A"/>
<stop offset="0.7515" style="stop-color:#0A0A0A"/>
<stop offset="1" style="stop-color:#5F5F5F"/>
</linearGradient>
<path d="M42.225,23.022c0.973,1.231,1.162,3.183,0.377,5.11c-0.633,1.563-1.771,2.703-3.057,3.128    c0,0-0.023,0.037-0.057,0.093c0.096,0.735,0.008,1.653-0.414,2.273c-0.086,0.116-0.176,0.178-1.381,0.645    c-0.066,0.109-0.111,0.183-0.119,0.195c-0.143,0.364-0.152,1.213-0.025,1.696c0.555,0.215,1.473,0.555,2.309,0.866    c3.098,1.148,5.539,2.066,6.479,2.555c0.436,0.227,1.594,0.898,2.801,2.102h7.281c-0.18-3.533-2.803-5.078-3.344-5.359    c-0.594-0.307-2.678-1.081-4.199-1.646c-1.076-0.398-2.213-0.902-2.213-0.902c-0.682-0.779-0.666-2.342-0.363-3.116l0.326-0.581    c0.465-0.76,0.889-1.564,1.262-2.393l0.145-0.32l0.33,0.113c0.047,0.018,0.098,0.025,0.15,0.025c0.369,0,0.904-0.399,1.215-1.17    c0.365-0.896,0.186-1.717-0.195-1.89c-0.025-0.004-0.051-0.009-0.074-0.019l-0.271-0.084c0,0,0.127-0.868,0.129-0.883    c0.543-2.437,0.191-4.615-0.986-6.14c-1.191-1.54-3.191-2.397-5.771-2.483c-0.33,0-0.629,0.025-0.91,0.066    C42.594,17.258,42.809,20.041,42.225,23.022z" fill="url(#SVGID_1_)"/>
<linearGradient gradientTransform="matrix(1 0 0 -1 123.4648 235.2559)" gradientUnits="userSpaceOnUse" id="SVGID_2_" x1="-110.3408" x2="-110.3408" y1="220.3242" y2="193.6579">
<stop offset="0" style="stop-color:#7A7A7A"/>
<stop offset="0.7515" style="stop-color:#0A0A0A"/>
<stop offset="1" style="stop-color:#5F5F5F"/>
</linearGradient>
<path d="M13.772,39.593c0.975-0.517,3.113-1.341,6.028-2.45c0.978-0.371,2.132-0.811,2.797-1.08    c0.105-0.496,0.089-1.242-0.04-1.574c-0.013-0.021-0.038-0.061-0.063-0.1c-0.794-0.316-1.46-0.611-1.46-0.611    c-0.52-0.596-0.633-1.645-0.523-2.452c-1.403-0.372-2.633-1.579-3.279-3.272c-0.751-1.959-0.505-3.918,0.519-5.125    c-0.748-3.305-0.69-5.982,0.148-8.016c-0.313-0.035-0.637-0.062-0.971-0.072c-2.318,0-3.351,1.072-4.137,2.082l-0.096,0.117    l-0.148,0.023c-0.536,0.084-1.275,0.35-1.783,1.128c-1.012,1.552-0.121,5.138-0.121,5.138l0.255,1.041L10.546,24.4l-0.119,0.02    c-0.032,0.004-0.075,0.013-0.091,0.02c-0.394,0.165-0.59,0.977-0.244,1.876c0.298,0.778,0.844,1.199,1.208,1.199    c0.061,0,0.117-0.013,0.177-0.04l0.045-0.032l0.375-0.241l0.184,0.407c0.385,0.863,0.818,1.694,1.294,2.472l0.326,0.581    c0.286,0.737,0.322,2.127-0.248,2.968c-0.11,0.146-0.197,0.197-2.623,1.121c-1.463,0.557-3.286,1.248-3.903,1.577    c-2.116,1.122-3.24,2.925-3.345,5.358h7.308C11.71,40.886,12.666,40.18,13.772,39.593z" fill="url(#SVGID_2_)"/>
<linearGradient gradientTransform="matrix(1 0 0 -1 123.4648 235.2559)" gradientUnits="userSpaceOnUse" id="SVGID_3_" x1="-93.4043" x2="-93.4043" y1="225.0117" y2="187.8389">
<stop offset="0" style="stop-color:#949494"/>
<stop offset="1" style="stop-color:#393939"/>
</linearGradient>
<path d="M45.412,41.359c-1.531-0.797-9.119-3.455-9.266-3.62l0,0c-0.857-0.983-0.824-3.158-0.395-4.103l0,0    c0.031-0.066,0.063-0.13,0.096-0.183c0.105-0.164,0.201-0.326,0.301-0.49h-0.002c0.748-1.223,1.377-2.438,1.891-3.579    c0.93,0.32,2.121-0.543,2.715-2.006c0.615-1.512,0.35-3.084-0.594-3.51c-0.055-0.023-0.109-0.025-0.162-0.043v-0.002    c0.121-0.479,0.178-0.759,0.178-0.759c1.627-7.298-1.914-13.083-10.49-13.368c-3.522,0-5.22,1.602-6.527,3.277    c-2.129,0.328-5.5,2.277-3.122,10.818c-0.091,0.014-0.181,0.028-0.268,0.063c-0.95,0.401-1.248,1.957-0.665,3.479    c0.581,1.521,1.823,2.43,2.774,2.031c0.058-0.025,0.107-0.066,0.161-0.104c0.521,1.179,1.165,2.433,1.938,3.698h-0.003    c0.027,0.043,0.052,0.087,0.08,0.131c0.016,0.026,0.031,0.049,0.045,0.075c0.002,0.003,0.003,0.005,0.003,0.005    c0.059,0.094,0.112,0.188,0.173,0.279c0.488,0.766,0.608,2.969-0.152,4.1c-0.199,0.262-7.677,2.887-9.41,3.805    c-1.987,1.055-5.231,3.479-5.231,8.942h41.164C50.643,44.838,46.941,42.154,45.412,41.359z M20.047,23.793    c0.018-0.019,0.039-0.037,0.059-0.056c0.002,0.015,0.004,0.022,0.01,0.037C20.091,23.777,20.069,23.787,20.047,23.793z" fill="url(#SVGID_3_)"/>
<linearGradient gradientTransform="matrix(1 0 0 -1 123.4648 235.2559)" gradientUnits="userSpaceOnUse" id="SVGID_4_" x1="-93.4043" x2="-93.4043" y1="224.2959" y2="185.0837">
<stop offset="0" style="stop-color:#7A7A7A"/>
<stop offset="0.7515" style="stop-color:#0A0A0A"/>
<stop offset="1" style="stop-color:#5F5F5F"/>
</linearGradient>
<path d="M10.055,50.302c0.155-3.579,1.808-6.231,4.92-7.881c0.907-0.481,3.585-1.5,5.737-2.319    c3.566-1.355,3.695-1.431,3.856-1.646c0.84-1.237,0.785-3.278,0.363-4.364l-0.479-0.856c-0.698-1.142-1.337-2.362-1.902-3.631    l-0.269-0.6l-0.554,0.354l-0.065,0.049c-0.087,0.041-0.171,0.059-0.261,0.059c-0.535,0-1.338-0.618-1.775-1.764    c-0.509-1.322-0.219-2.516,0.357-2.759c0.022-0.011,0.088-0.021,0.136-0.026l0.175-0.028l0.521-0.05l-0.374-1.53    c0,0-1.311-5.271,0.178-7.554c0.748-1.146,1.835-1.535,2.623-1.657l0.219-0.036l0.138-0.173c1.157-1.481,2.676-3.063,6.084-3.063    c3.792,0.127,6.733,1.391,8.487,3.653c1.734,2.239,2.25,5.444,1.451,9.026c-0.004,0.021-0.189,1.299-0.189,1.299l0.398,0.125    c0.035,0.012,0.072,0.02,0.109,0.025c0.561,0.252,0.824,1.457,0.287,2.777c-0.455,1.131-1.244,1.721-1.785,1.721    c-0.078,0-0.15-0.014-0.221-0.037l-0.486-0.168l-0.211,0.471c-0.549,1.217-1.174,2.4-1.857,3.516l-0.48,0.856    c-0.443,1.14-0.465,3.437,0.535,4.583c0,0,1.674,0.739,3.256,1.327c2.238,0.832,5.307,1.97,6.174,2.421    c0.797,0.414,4.652,2.686,4.916,7.881L10.055,50.302L10.055,50.302z" fill="url(#SVGID_4_)"/>
</g>
</g>
<rect fill="none" height="60" width="60"/>
</g>
<g transform="matrix(1 0 0 1 30 30)">
<polygon fill="none" points="0,7.489 0,24.514 0,30 30,30 30,24.514 30,5.713 30,0 0,0 "/>
<path d="M1.777,26.306C0.797,26.306,0,25.502,0,24.514V7.489c0-0.988,0.797-1.792,1.777-1.792h0.125V5.495  c0-1.01,0.771-1.801,1.754-1.801h3.548c0.657,0,1.22,0.354,1.521,0.892c0.326-0.405,0.824-0.665,1.381-0.665h18.116  c0.98,0,1.778,0.804,1.778,1.792v18.801c0,0.988-0.798,1.792-1.778,1.792H1.777z" fill-opacity="0.35" stroke-opacity="0.35"/>
<linearGradient gradientUnits="userSpaceOnUse" id="SVGID_1__" x1="2.8789" x2="7.9217" y1="6.0669" y2="6.0669">
<stop offset="0" style="stop-color:#F0F0F0"/>
<stop offset="0.4788" style="stop-color:#7E8182"/>
<stop offset="1" style="stop-color:#E6E6E6"/>
</linearGradient>
<path d="M7.957,7.439V5.495c0-0.458-0.339-0.801-0.753-0.801H3.656c-0.414,0-0.754,0.342-0.754,0.801v1.944  H7.957z" fill="url(#SVGID_1__)"/>
<radialGradient cx="5.4297" cy="19.583" gradientTransform="matrix(1 0 0 1.008 0 -14.4484)" gradientUnits="userSpaceOnUse" id="SVGID_2__" r="1.8354">
<stop offset="0" style="stop-color:#F2F2F2"/>
<stop offset="1" style="stop-color:#D9D9D9"/>
</radialGradient>
<path d="M7.204,4.694H3.656c-0.414,0-0.754,0.342-0.754,0.801v0.393c0-0.459,0.34-0.801,0.754-0.801h3.548  c0.414,0,0.753,0.342,0.753,0.801V5.495C7.957,5.037,7.618,4.694,7.204,4.694z" fill="url(#SVGID_2__)"/>
<linearGradient gradientUnits="userSpaceOnUse" id="SVGID_3__" x1="15" x2="15" y1="4.8916" y2="25.3392">
<stop offset="0" style="stop-color:#D2D3D2"/>
<stop offset="0.1212" style="stop-color:#D2D3D2"/>
<stop offset="0.4182" style="stop-color:#B2B6B5"/>
<stop offset="0.4182" style="stop-color:#A2A5A5"/>
<stop offset="0.6606" style="stop-color:#808485"/>
<stop offset="0.9697" style="stop-color:#AFB3B2"/>
<stop offset="0.9697" style="stop-color:#5B5B5D"/>
<stop offset="1" style="stop-color:#AFB3B2"/>
<stop offset="1" style="stop-color:#5B5B5D"/>
</linearGradient>
<path d="M28.222,4.921H10.105c-0.428,0-0.777,0.355-0.777,0.792v0.984H1.777C1.35,6.697,1,7.053,1,7.489  v17.024c0,0.436,0.35,0.792,0.777,0.792h26.444c0.427,0,0.778-0.356,0.778-0.792V5.713C29,5.276,28.648,4.921,28.222,4.921z" fill="url(#SVGID_3__)"/>
<linearGradient gradientUnits="userSpaceOnUse" id="SVGID_4__" x1="24.7998" x2="24.7998" y1="6.1997" y2="9.553">
<stop offset="0" style="stop-color:#808080"/>
<stop offset="1" style="stop-color:#E6E6E6"/>
</linearGradient>
<rect fill="url(#SVGID_4__)" height="3.366" width="5.244" x="22.179" y="6.185"/>
<linearGradient gradientUnits="userSpaceOnUse" id="SVGID_5_" x1="24.8008" x2="24.8008" y1="9.249" y2="6.4746">
<stop offset="0" style="stop-color:#000000"/>
<stop offset="1" style="stop-color:#3B3B3B"/>
</linearGradient>
<rect fill="url(#SVGID_5_)" height="2.801" width="4.583" x="22.509" y="6.468"/>
<path d="M23.174,15.992c-0.002,4.312-3.498,8.564-7.811,8.563c-4.311-0.002-7.806-4.257-7.806-8.568  c0.003-4.312,3.499-7.806,7.812-7.804S23.174,11.681,23.174,15.992z" fill="#222021" fill-opacity="0.5" stroke-opacity="0.5"/>
<linearGradient gradientUnits="userSpaceOnUse" id="SVGID_6_" x1="15.3652" x2="15.3652" y1="7.8438" y2="23.4871">
<stop offset="0" style="stop-color:#CFCFCF"/>
<stop offset="0.1091" style="stop-color:#CFCFCF"/>
<stop offset="0.6848" style="stop-color:#121212"/>
<stop offset="1" style="stop-color:#A6A6A6"/>
</linearGradient>
<circle cx="15.366" cy="15.674" fill="url(#SVGID_6_)" r="7.778"/>
<linearGradient gradientUnits="userSpaceOnUse" id="SVGID_7_" x1="15.3652" x2="15.3652" y1="8.1816" y2="22.9943">
<stop offset="0" style="stop-color:#F2F2F2"/>
<stop offset="1" style="stop-color:#636566"/>
</linearGradient>
<circle cx="15.366" cy="15.675" fill="url(#SVGID_7_)" r="7.388"/>
<linearGradient gradientTransform="matrix(1 3.000000e-004 -3.000000e-004 1 -0.7997 -0.8701)" gradientUnits="userSpaceOnUse" id="SVGID_8_" x1="11.9092" x2="20.4338" y1="12.2778" y2="20.8025">
<stop offset="0" style="stop-color:#1A1A1A"/>
<stop offset="0.503" style="stop-color:#343434"/>
<stop offset="0.7515" style="stop-color:#9E9E9E"/>
<stop offset="1" style="stop-color:#CFCFCF"/>
</linearGradient>
<circle cx="15.366" cy="15.674" fill="url(#SVGID_8_)" r="6.028"/>
<radialGradient cx="13.751" cy="1.9536" gradientTransform="matrix(0.991 3.000000e-004 -3.000000e-004 0.991 2.3474 14.2158)" gradientUnits="userSpaceOnUse" id="SVGID_9_" r="6.5314">
<stop offset="0" style="stop-color:#000000"/>
<stop offset="0.5917" style="stop-color:#000000"/>
<stop offset="0.627" style="stop-color:#050505"/>
<stop offset="0.7652" style="stop-color:#121212"/>
<stop offset="0.8876" style="stop-color:#171717"/>
<stop offset="1" style="stop-color:#171717"/>
</radialGradient>
<circle cx="15.365" cy="15.674" fill="url(#SVGID_9_)" r="5.639"/>
<radialGradient cx="8.0361" cy="-26.853" gradientTransform="matrix(0.9785 3.000000e-004 -3.000000e-004 0.9786 6.3194 35.8131)" gradientUnits="userSpaceOnUse" id="SVGID_10_" r="11.413">
<stop offset="0" style="stop-color:#8D4AAB"/>
<stop offset="0.3091" style="stop-color:#8D4AAB"/>
<stop offset="0.4364" style="stop-color:#532961"/>
<stop offset="0.8061" style="stop-color:#070F0F"/>
<stop offset="1" style="stop-color:#070F0F"/>
</radialGradient>
<path d="M19.449,15.674c-0.001,2.256-1.83,4.084-4.086,4.084c-2.252-0.002-4.081-1.831-4.081-4.086  c0.002-2.256,1.831-4.082,4.083-4.082C17.623,11.592,19.449,13.42,19.449,15.674z" fill="url(#SVGID_10_)"/>
<linearGradient gradientUnits="userSpaceOnUse" id="SVGID_11_" x1="5.5742" x2="5.5742" y1="11.8188" y2="9.3852">
<stop offset="0" style="stop-color:#000000"/>
<stop offset="1" style="stop-color:#3B3B3B"/>
</linearGradient>
<circle cx="5.575" cy="10.556" fill="url(#SVGID_11_)" r="1.167"/>
<linearGradient gradientUnits="userSpaceOnUse" id="SVGID_12_" x1="15.3457" x2="15.3457" y1="10.6523" y2="15.6356">
<stop offset="0" style="stop-color:#FAFDFB"/>
<stop offset="1" style="stop-color:#808080"/>
</linearGradient>
<path d="M15.346,15.611c1.81,0,3.515-0.274,5.02-0.758c-0.428-2.386-2.51-4.201-5.02-4.201  s-4.592,1.814-5.02,4.201C11.83,15.337,13.536,15.611,15.346,15.611z" fill="url(#SVGID_12_)" fill-opacity="0.35" stroke-opacity="0.35"/>
<linearGradient gradientUnits="userSpaceOnUse" id="SVGID_13_" x1="15" x2="15" y1="4.8535" y2="25.2888">
<stop offset="0" style="stop-color:#F2F2F2"/>
<stop offset="0.3212" style="stop-color:#E6E6E6"/>
<stop offset="1" style="stop-color:#666666"/>
</linearGradient>
<path d="M28.222,4.921H10.105c-0.428,0-0.777,0.355-0.777,0.792v0.984H1.777C1.35,6.697,1,7.053,1,7.489  v17.024c0,0.436,0.35,0.792,0.777,0.792c0,0-0.389-0.214-0.389-0.792V7.489c0-0.222,0.175-0.401,0.389-0.401h7.551h0.389V6.697  V5.713c0-0.221,0.174-0.399,0.389-0.399h18.116c0.215,0,0.39,0.179,0.39,0.399v18.801c0,0.626-0.39,0.792-0.39,0.792  c0.427,0,0.778-0.356,0.778-0.792V5.713C29,5.276,28.648,4.921,28.222,4.921z" fill="url(#SVGID_13_)"/>
<rect fill="none" height="30" width="30"/>
</g>
</svg>
