<?xml version="1.0" encoding="UTF-8"?>
<!DOCTYPE svg PUBLIC "-//W3C//DTD SVG 1.1 Tiny//EN" "http://www.w3.org/Graphics/SVG/1.1/DTD/svg11-tiny.dtd">
<svg baseProfile="tiny" height="30px" version="1.1" viewBox="0 0 30 30" width="30px" x="0px" xmlns="http://www.w3.org/2000/svg" xmlns:xlink="http://www.w3.org/1999/xlink" y="0px">
<polygon points="24.721,22.301 5.279,22.303 9.48,29.029 11.545,27.74 9.673,24.736 9.685,24.736 9.682,24.736 24.721,24.736 "/>
<polygon points="20.52,12.992 18.452,14.285 20.321,17.285 5.279,17.287 5.279,19.721 24.72,19.72 "/>
<polygon fill="none" points="10.967,3.74 13.868,6.188 13.868,3.154 10.967,3.154 "/>
<polygon fill="none" points="16.053,3.154 16.053,6.223 19.028,3.76 19.028,3.154 "/>
<path d="M8.787,0.971v3.785l5.081,4.293v5.93h2.185V9.056l5.16-4.267V0.971H8.787z M16.053,6.223V3.154h2.976V3.76L16.053,6.223z   M13.868,6.188L10.967,3.74V3.154h2.898v3.033H13.868z"/>
<rect fill="none" height="30" width="30"/>
</svg>
