<?xml version="1.0" encoding="UTF-8"?>
<!DOCTYPE svg PUBLIC "-//W3C//DTD SVG 1.1 Tiny//EN" "http://www.w3.org/Graphics/SVG/1.1/DTD/svg11-tiny.dtd">
<svg baseProfile="tiny" height="30px" version="1.1" viewBox="0 0 30 30" width="30px" x="0px" xmlns="http://www.w3.org/2000/svg" xmlns:xlink="http://www.w3.org/1999/xlink" y="0px">
<path d="M27,1H8C6.896,1,6,1.896,6,3v1h20v17v3h1c1.104,0,2-0.896,2-2V3C29,1.896,28.104,1,27,1z"/>
<rect height="5" width="7" x="9" y="15"/>
<rect height="2" width="2" x="7" y="22"/>
<rect height="2" width="2" x="10" y="22"/>
<rect height="2" width="2" x="7" y="11"/>
<rect height="2" width="2" x="13" y="11"/>
<rect height="2" width="2" x="10" y="11"/>
<rect height="2" width="2" x="16" y="11"/>
<rect height="2" width="2" x="13" y="22"/>
<path d="M22,6H3C1.896,6,1,6.896,1,8v19c0,1.104,0.896,2,2,2h19c1.104,0,2-0.896,2-2V8C24,6.896,23.104,6,22,6z M20,13  c0.553,0,1,0.447,1,1s-0.447,1-1,1h-2v5h2c0.553,0,1,0.447,1,1s-0.447,1-1,1h-1v2h1c0.553,0,1,0.447,1,1s-0.447,1-1,1H5  c-0.553,0-1-0.447-1-1s0.447-1,1-1h1v-2H5c-0.553,0-1-0.447-1-1s0.447-1,1-1h2v-5H5c-0.553,0-1-0.447-1-1s0.447-1,1-1h1v-2H5  c-0.553,0-1-0.447-1-1s0.447-1,1-1h15c0.553,0,1,0.447,1,1s-0.447,1-1,1h-1v2H20z"/>
<rect height="2" width="2" x="16" y="22"/>
<g fill-opacity="0.5" stroke-opacity="0.5">
<rect fill="none" height="30" width="30"/>
</g>
</svg>
