<?xml version="1.0" encoding="UTF-8"?>
<!DOCTYPE svg PUBLIC "-//W3C//DTD SVG 1.1 Tiny//EN" "http://www.w3.org/Graphics/SVG/1.1/DTD/svg11-tiny.dtd">
<svg baseProfile="tiny" height="30" viewBox="0 0 30 30" width="30" xmlns="http://www.w3.org/2000/svg" xmlns:xlink="http://www.w3.org/1999/xlink">
<g>
<path d="M4,29c-1.654,0-3-1.346-3-3V16c0-1.654,1.346-3,3-3h7v-3c0-4.962,4.038-9,9-9c5.299,0,9,3.29,9,8  c0,0.552-0.447,1-1,1h-4c-0.553,0-1-0.448-1-1c0-0.495,0-2-3-2c-1.654,0-3,1.346-3,3v3h4c1.654,0,3,1.346,3,3v10  c0,1.654-1.346,3-3,3H4z" fill-opacity="0.6" stroke-opacity="0.6"/>
<linearGradient gradientUnits="userSpaceOnUse" id="SVGID_1_" x1="12" x2="28" y1="9" y2="9">
<stop offset="0" style="stop-color:#8C8C8C"/>
<stop offset="0.2083" style="stop-color:#BDBDBD"/>
<stop offset="0.526" style="stop-color:#707070"/>
<stop offset="1" style="stop-color:#8F8F8F"/>
</linearGradient>
<path d="M20,2c-4.4,0-8,3.6-8,8v6h4v-6c0-2.206,1.794-4,4-4s4,0.794,4,3h4C28,4.6,24.4,2,20,2z" fill="url(#SVGID_1_)"/>
<linearGradient gradientUnits="userSpaceOnUse" id="SVGID_2_" x1="13" x2="27" y1="9.5" y2="9.5">
<stop offset="0" style="stop-color:#B4B4B4"/>
<stop offset="0.2083" style="stop-color:#F0F0F0"/>
<stop offset="0.526" style="stop-color:#969696"/>
<stop offset="0.8061" style="stop-color:#A1A1A1"/>
<stop offset="1" style="stop-color:#BEBEBE"/>
</linearGradient>
<path d="M20,3c-3.859,0-7,3.141-7,7v6h2v-6c0-2.757,2.243-5,5-5s5,1.243,5,4h2C27,5.141,23.859,3,20,3z" fill="url(#SVGID_2_)"/>
<linearGradient gradientUnits="userSpaceOnUse" id="SVGID_3_" x1="2" x2="23" y1="21" y2="21">
<stop offset="0" style="stop-color:#C2A770"/>
<stop offset="0.24" style="stop-color:#DED7B3"/>
<stop offset="0.75" style="stop-color:#AA8250"/>
<stop offset="1" style="stop-color:#BCA162"/>
</linearGradient>
<path d="M23,26c0,1.1-0.9,2-2,2H4c-1.1,0-2-0.9-2-2V16c0-1.1,0.9-2,2-2h17c1.1,0,2,0.9,2,2V26z" fill="url(#SVGID_3_)"/>
<path d="M21,27H4c-1.1,0-2-0.9-2-2v1c0,1.1,0.9,2,2,2h17c1.1,0,2-0.9,2-2v-1C23,26.1,22.1,27,21,27z" fill="#5E2D29" fill-opacity="0.2" stroke-opacity="0.2"/>
<path d="M21,14H4c-1.1,0-2,0.9-2,2v1c0-1.1,0.9-2,2-2h17c1.1,0,2,0.9,2,2v-1C23,14.9,22.1,14,21,14z" fill="#FFFFFF" fill-opacity="0.4" stroke-opacity="0.4"/>
<rect fill-opacity="0.2" height="2" stroke-opacity="0.2" width="21" x="2" y="23"/>
<rect fill-opacity="0.2" height="2" stroke-opacity="0.2" width="21" x="2" y="19"/>
<rect fill="none" height="30" width="30"/>
</g>
</svg>
