<?xml version="1.0" encoding="UTF-8"?>
<!DOCTYPE svg PUBLIC "-//W3C//DTD SVG 1.1 Tiny//EN" "http://www.w3.org/Graphics/SVG/1.1/DTD/svg11-tiny.dtd">
<svg baseProfile="tiny" height="30" viewBox="0 0 30 30" width="30" xmlns="http://www.w3.org/2000/svg" xmlns:xlink="http://www.w3.org/1999/xlink">
<g>
<linearGradient gradientTransform="matrix(1 0 0 -1 123.4648 234.2559)" gradientUnits="userSpaceOnUse" id="SVGID_1_" x1="-110.2285" x2="-106.7285" y1="218.0313" y2="218.0313">
<stop offset="0" style="stop-color:#6A6C6E"/>
<stop offset="0.0788" style="stop-color:#ABB0AF"/>
<stop offset="0.3152" style="stop-color:#FFFFFF"/>
<stop offset="0.7333" style="stop-color:#9A9C9C"/>
<stop offset="1" style="stop-color:#C8CAC9"/>
</linearGradient>
<path d="M13.236,5.375v21.007c0,0.383,0.313,0.693,0.699,0.693h2.101c0.387,0,0.7-0.31,0.7-0.693V5.375  H13.236z" fill="url(#SVGID_1_)"/>
<linearGradient gradientTransform="matrix(1 0 0 -1 123.4648 234.2559)" gradientUnits="userSpaceOnUse" id="SVGID_2_" x1="-108.4648" x2="-108.4648" y1="231.4424" y2="217.714">
<stop offset="0" style="stop-color:#A8A9AA"/>
<stop offset="1" style="stop-color:#222021"/>
</linearGradient>
<path d="M28.947,3.791c-0.158-0.515-0.634-0.866-1.173-0.866H15.161h-0.175H2.227  c-0.539,0-1.015,0.352-1.172,0.866C0.896,4.306,1.093,4.863,1.54,5.165l11.697,11.293v-4.581L6.228,5.375h8.759h0.175h8.611  l-7.036,6.612v4.537l11.724-11.36C28.907,4.863,29.104,4.306,28.947,3.791z" fill="url(#SVGID_2_)"/>
<path d="M1.054,4.192c0.157-0.515,0.633-0.917,1.172-0.917h12.76h0.175  h12.612c0.539,0,1.015,0.402,1.173,0.917c0.017,0.053,0.026,0.107,0.035,0.161c0.032-0.184,0.021-0.375-0.035-0.562  c-0.158-0.515-0.634-0.866-1.173-0.866H15.161h-0.175H2.227c-0.539,0-1.015,0.352-1.172,0.866C0.997,3.978,0.988,4.169,1.019,4.353  C1.027,4.299,1.038,4.245,1.054,4.192z" fill="#FFFFFF" fill-opacity="0.6" stroke-opacity="0.6"/>
<polygon fill="#FFFFFF" fill-opacity="0.6" points="17.092,12.358 24.347,5.371 23.79,5.371 17.092,11.714   " stroke-opacity="0.6"/>
<polygon fill="#FFFFFF" fill-opacity="0.6" points="5.659,5.376 12.892,12.249 12.892,11.608 6.226,5.376   " stroke-opacity="0.6"/>
<linearGradient gradientTransform="matrix(1 0 0 -1 123.4648 234.2559)" gradientUnits="userSpaceOnUse" id="SVGID_3_" x1="-108.4644" x2="-108.4644" y1="231.0156" y2="218.1964">
<stop offset="0" style="stop-color:#EDEFEE"/>
<stop offset="0.5" style="stop-color:#BCBEBE"/>
<stop offset="0.5" style="stop-color:#A5A6A7"/>
<stop offset="1" style="stop-color:#C9CBCA"/>
</linearGradient>
<path d="M17.086,12.369l7.771-7.344H5.125l7.761,7.236v3.547L1.74,4.877c-0.325-0.22-0.465-0.614-0.351-0.984  c0.113-0.37,0.45-0.619,0.838-0.619h25.547c0.388,0,0.725,0.249,0.838,0.619c0.113,0.37-0.027,0.764-0.347,0.981L17.086,15.928  V12.369z" fill="url(#SVGID_3_)"/>
<linearGradient gradientTransform="matrix(1 0 0 -1 123.4648 234.2559)" gradientUnits="userSpaceOnUse" id="SVGID_4_" x1="-100.5967" x2="-100.5967" y1="230.2588" y2="218.9288">
<stop offset="0" style="stop-color:#69696A"/>
<stop offset="1" style="stop-color:#000000"/>
</linearGradient>
<path d="M28.574,3.801c-0.064,0.147-0.168,0.279-0.31,0.374L17.086,15.228v0.7L28.265,4.875  c0.32-0.217,0.46-0.611,0.347-0.981C28.602,3.861,28.588,3.831,28.574,3.801z" fill="url(#SVGID_4_)"/>
<linearGradient gradientTransform="matrix(1 0 0 -1 123.4648 234.2559)" gradientUnits="userSpaceOnUse" id="SVGID_5_" x1="-116.3472" x2="-116.3472" y1="230.2598" y2="218.9229">
<stop offset="0" style="stop-color:#69696A"/>
<stop offset="1" style="stop-color:#000000"/>
</linearGradient>
<path d="M1.426,3.8C1.413,3.831,1.398,3.861,1.389,3.894C1.275,4.264,1.415,4.657,1.74,4.877l11.146,10.93  v-0.7L1.74,4.177C1.596,4.08,1.491,3.948,1.426,3.8z" fill="url(#SVGID_5_)"/>
<path d="M1.389,4.243c0.113-0.37,0.45-0.618,0.838-0.618h25.547c0.388,0,0.725,0.249,0.838,0.618  c0.009,0.029,0.013,0.059,0.018,0.087c0.031-0.142,0.027-0.291-0.018-0.437c-0.114-0.37-0.45-0.619-0.838-0.619H2.227  c-0.387,0-0.725,0.249-0.838,0.619C1.344,4.039,1.34,4.188,1.37,4.33C1.375,4.302,1.379,4.272,1.389,4.243z" fill="#FFFFFF"/>
<path d="M16.036,26.725h-2.101c-0.386,0-0.699-0.311-0.699-0.694v0.351  c0,0.383,0.313,0.693,0.699,0.693h2.101c0.387,0,0.7-0.311,0.7-0.693v-0.351C16.737,26.415,16.423,26.725,16.036,26.725z" fill-opacity="0.4" stroke-opacity="0.4"/>
<path d="M16.036,26.368h-2.101c-0.386,0-0.699-0.311-0.699-0.693v0.35  c0,0.383,0.313,0.693,0.699,0.693h2.101c0.387,0,0.7-0.311,0.7-0.693v-0.35C16.737,26.058,16.423,26.368,16.036,26.368z" fill-opacity="0.2" stroke-opacity="0.2"/>
<rect fill-opacity="0.3" height="0.35" stroke-opacity="0.3" width="3.5" x="13.236" y="5.375"/>
<rect fill-opacity="0.2" height="0.35" stroke-opacity="0.2" width="3.5" x="13.236" y="5.725"/>
<rect fill-opacity="0.1" height="1.4" stroke-opacity="0.1" width="3.5" x="13.236" y="5.375"/>
<rect fill="none" height="30" width="30"/>
</g>
</svg>
