<?xml version="1.0" encoding="UTF-8"?>
<!DOCTYPE svg PUBLIC "-//W3C//DTD SVG 1.1 Tiny//EN" "http://www.w3.org/Graphics/SVG/1.1/DTD/svg11-tiny.dtd">
<svg baseProfile="tiny" height="15px" version="1.1" viewBox="0 0 15 15" width="15px" x="0px" xmlns="http://www.w3.org/2000/svg" xmlns:xlink="http://www.w3.org/1999/xlink" y="0px">
<rect fill="none" height="15" width="15"/>
<rect fill="none" fill-rule="evenodd" height="15" width="15"/>
<path d="M0,0v15h6c4.963,0,9-4.037,9-9V0H0z" fill="#14141E" fill-opacity="0.1" fill-rule="evenodd" stroke-opacity="0.1"/>
<path d="M0,0v14h6c4.411,0,8-3.588,8-8V0H0z" fill="#14141E" fill-opacity="0.2" fill-rule="evenodd" stroke-opacity="0.2"/>
<path d="M0,0v13h6c4.411,0,8-3.589,8-8V0H0z" fill="url(#SVGID_1_)" fill-rule="evenodd"/>
<path d="M13,0v5.001c0,3.86-3.141,7-7,7H0v1h6c4.411,0,8-3.589,8-8V0H13z" fill-opacity="0.2" fill-rule="evenodd" stroke-opacity="0.2"/>
<path d="M12,0v5.001c0,3.309-2.691,6-6,6H0v1h6  c3.859,0,7-3.14,7-7V0H12z" fill="#FFFFFF" fill-opacity="0.2" fill-rule="evenodd" stroke-opacity="0.2"/>
<defs>
<linearGradient gradientUnits="userSpaceOnUse" id="SVGID_1_" x1="7" x2="7" y1="13" y2="-37.8115">
<stop offset="0" style="stop-color:#65B8CC"/>
<stop offset="1" style="stop-color:#306D8C"/>
</linearGradient>
</defs>
</svg>
