<?xml version="1.0" encoding="UTF-8"?>
<!DOCTYPE svg PUBLIC "-//W3C//DTD SVG 1.1 Tiny//EN" "http://www.w3.org/Graphics/SVG/1.1/DTD/svg11-tiny.dtd">
<svg baseProfile="tiny" height="30px" version="1.1" viewBox="0 0 30 30" width="30px" x="0px" xmlns="http://www.w3.org/2000/svg" xmlns:xlink="http://www.w3.org/1999/xlink" y="0px">
<path d="M16.288,10.937V7.222h-3.712v2.707h-1.238V7.222H7.623v3.715h2.708l-0.012,1.251L7.61,12.204l0.013,3.687l3.69-0.015  l0.007-2.693h1.256v2.706h3.712v-3.715h-2.707v-1.237H16.288z M12.591,12.174h-0.015v0.018H11.32v-1.255h0.018v-0.014h1.238v0.014  h0.015V12.174z"/>
<polygon points="11.97,2.87 17.889,8.771 18.581,8.074 11.931,1.403 5.28,8.056 6.05,8.808 "/>
<polygon points="17.505,22.329 18.913,24.599 22.773,24.599 21.365,22.329 "/>
<polygon points="11.471,22.329 12.877,24.599 16.725,24.599 15.312,22.329 "/>
<polygon points="23.556,22.329 24.722,24.208 24.722,22.329 "/>
<polygon points="10.684,24.599 10.688,24.599 9.28,22.329 6.614,22.329 10.529,28.597 12.435,27.403 11.773,26.341 "/>
<polygon points="20.604,17.657 22.013,19.925 24.722,19.925 20.81,13.659 18.882,14.86 20.626,17.657 "/>
<polygon points="19.824,19.925 18.413,17.657 14.607,17.657 16.016,19.925 "/>
<polygon points="6.614,18.033 6.614,19.925 7.787,19.925 "/>
<polygon points="13.825,19.925 12.419,17.657 8.569,17.657 9.978,19.925 "/>
<rect fill="none" height="30" width="30"/>
</svg>
