<?xml version="1.0" encoding="UTF-8"?>
<!DOCTYPE svg PUBLIC "-//W3C//DTD SVG 1.1 Tiny//EN" "http://www.w3.org/Graphics/SVG/1.1/DTD/svg11-tiny.dtd">
<svg baseProfile="tiny" height="30" viewBox="0 0 30 30" width="30" xmlns="http://www.w3.org/2000/svg" xmlns:xlink="http://www.w3.org/1999/xlink">
<g>
<g fill-opacity="0.6" stroke-opacity="0.6">
<path d="M4,29c-1.65,0-3-1.35-3-3V4c0-1.65,1.35-3,3-3h22c1.65,0,3,1.35,3,3v22c0,1.65-1.35,3-3,3H4z"/>
</g>
<g>
<linearGradient gradientUnits="userSpaceOnUse" id="SVGID_1_" x1="14.9995" x2="14.9995" y1="1.9165" y2="27.917">
<stop offset="0" style="stop-color:#65AEBD"/>
<stop offset="1" style="stop-color:#526085"/>
</linearGradient>
<path d="M28,26c0,1.1-0.9,2-2,2H4c-1.1,0-2-0.9-2-2V4c0-1.1,0.9-2,2-2h22c1.1,0,2,0.9,2,2V26z" fill="url(#SVGID_1_)"/>
</g>
<g>
<linearGradient gradientTransform="matrix(1 0 0 1 -578.9609 -812.0391)" gradientUnits="userSpaceOnUse" id="SVGID_2_" x1="593.9609" x2="593.9609" y1="815.0391" y2="839.0391">
<stop offset="0" style="stop-color:#6DADC1"/>
<stop offset="1" style="stop-color:#3B518A"/>
</linearGradient>
<path d="M4,27c-0.55,0-1-0.45-1-1V4c0-0.55,0.45-1,1-1h22c0.55,0,1,0.45,1,1v22c0,0.55-0.45,1-1,1H4z" fill="url(#SVGID_2_)"/>
</g>
<path d="M23.504,18.337c0-0.547-0.443-0.989-0.992-0.989h-2.104  c-1.016-2.688-2.176-5.542-3.198-7.476c0.487-0.4,0.802-1.008,0.802-1.69C18.01,6.978,17.033,6,15.827,6  c-1.205,0-2.183,0.978-2.183,2.182c0,0.639,0.275,1.21,0.71,1.607c-0.689,1.458-2.026,4.366-3.282,7.559h-0.947  c-0.361-0.707-1.094-1.193-1.943-1.193C6.977,16.154,6,17.133,6,18.337c0,1.205,0.977,2.183,2.183,2.183  c0.849,0,1.582-0.481,1.943-1.19h0.195c-0.687,1.881-1.297,3.774-1.689,5.457c-0.124,0.532,0.206,1.063,0.741,1.188  c0.532,0.125,1.064-0.205,1.189-0.738c0.416-1.791,1.107-3.867,1.875-5.906h6.59c1.182,3.216,2.072,5.934,2.091,5.99  c0.137,0.414,0.524,0.68,0.942,0.68c0.104,0,0.205-0.016,0.309-0.049c0.521-0.172,0.805-0.729,0.633-1.25  c-0.066-0.215-0.826-2.52-1.861-5.374h1.375C23.061,19.327,23.504,18.885,23.504,18.337z M13.211,17.348  c0.947-2.351,1.911-4.505,2.568-5.924c0.803,1.619,1.688,3.783,2.508,5.924H13.211z" fill-opacity="0.2" stroke-opacity="0.2"/>
<path d="M23.752,17.337c0-0.547-0.443-0.989-0.992-0.989h-2.104c-1.016-2.688-2.176-5.542-3.198-7.476  c0.487-0.4,0.801-1.008,0.801-1.69C18.258,5.978,17.281,5,16.075,5c-1.205,0-2.183,0.978-2.183,2.182c0,0.639,0.275,1.21,0.71,1.607  c-0.689,1.458-2.026,4.366-3.282,7.559h-0.947c-0.361-0.707-1.094-1.193-1.943-1.193c-1.206,0-2.183,0.979-2.183,2.183  c0,1.205,0.977,2.184,2.183,2.184c0.849,0,1.582-0.482,1.943-1.191h0.195c-0.687,1.881-1.297,3.773-1.689,5.457  c-0.124,0.531,0.206,1.063,0.741,1.188c0.532,0.125,1.064-0.205,1.189-0.74c0.416-1.791,1.107-3.865,1.875-5.904h6.591  c1.181,3.216,2.072,5.936,2.09,5.988C21.503,24.734,21.891,25,22.309,25c0.104,0,0.205-0.016,0.309-0.049  c0.521-0.172,0.805-0.729,0.633-1.25c-0.066-0.215-0.826-2.52-1.861-5.374h1.375C23.309,18.327,23.752,17.885,23.752,17.337z   M13.459,16.348c0.947-2.351,1.911-4.505,2.568-5.924c0.803,1.619,1.688,3.783,2.508,5.924H13.459z" fill="#F5F5F5"/>
<rect fill="none" height="30" width="30"/>
</g>
</svg>
