<?xml version="1.0" encoding="UTF-8"?>
<!DOCTYPE svg PUBLIC "-//W3C//DTD SVG 1.1 Tiny//EN" "http://www.w3.org/Graphics/SVG/1.1/DTD/svg11-tiny.dtd">
<svg baseProfile="tiny" height="30px" version="1.1" viewBox="0 0 30 30" width="30px" x="0px" xmlns="http://www.w3.org/2000/svg" xmlns:xlink="http://www.w3.org/1999/xlink" y="0px">
<rect fill="none" height="30" width="30"/>
<polygon points="8.182,22.262 5.341,22.262 9.513,28.939 11.54,27.668 "/>
<polygon points="10.517,22.26 12.021,24.679 16.116,24.679 14.613,22.26 "/>
<polygon points="16.948,22.26 18.453,24.679 22.565,24.679 21.063,22.26 "/>
<polygon points="23.398,22.26 24.644,24.264 24.644,22.26 "/>
<polygon points="21.757,19.697 24.642,19.697 20.471,13.018 18.42,14.301 "/>
<polygon points="19.422,19.697 17.921,17.281 13.86,17.281 15.362,19.697 "/>
<polygon points="13.027,19.697 11.529,17.281 7.427,17.281 8.927,19.698 "/>
<polygon points="5.341,17.682 5.341,19.698 6.594,19.698 "/>
<path d="M22.182,7.594v1.319h1.179v1.291c-0.159,0.045-0.368,0.083-0.699,0.083c-1.218,0-1.942-0.823-1.942-2.201  c0-0.674,0.261-2.843,3.199-1.952l0.32,0.164l0.374-1.299c0,0-0.691-0.447-1.841-0.447c-2.076,0-3.559,1.437-3.474,3.575  c0.13,3.16,2.3,3.499,3.311,3.499c1.373,0,2.112-0.448,2.112-0.448V7.594H22.182z"/>
<path d="M13.393,1.219h4.371v1.917h-2.691v1.663c0,0,3.421-0.518,3.215,3.622c0,0,0.107,2.896-2.588,3.165  c-0.778,0.079-2.327-0.174-2.327-0.174l0.021-1.946c0,0,3.291,0.862,3.291-1.245c0-2.252-3.291-1.487-3.291-1.487V1.219z"/>
<rect height="1.487" width="1.486" x="10.765" y="10.043"/>
<path d="M9.353,5.866c0.506-0.523,0.79-1.249,0.79-2.107c0-0.728-0.288-2.7-2.343-2.7c-1.415,0-2.266,1.029-2.266,1.029l0.527,1.883  c0,0,0.788-0.896,1.557-0.896c0.379,0,0.828,0.152,0.828,0.879c0,0.866-0.836,1.051-1.158,1.051H6.394v1.946h0.897  c0.232,0,1.52,0.223,1.402,1.342c-0.231,2.167-2.279,0.961-2.51,0.777L5.79,8.755l-0.512,1.903c0,0,0.761,0.925,2.245,0.925  c1.977,0,2.885-1.693,2.885-3.266C10.408,7.269,10.006,6.378,9.353,5.866z"/>
</svg>
