<?xml version="1.0" encoding="UTF-8"?>
<!DOCTYPE svg PUBLIC "-//W3C//DTD SVG 1.1 Tiny//EN" "http://www.w3.org/Graphics/SVG/1.1/DTD/svg11-tiny.dtd">
<svg baseProfile="tiny" height="30" viewBox="0 0 30 30" width="30" xmlns="http://www.w3.org/2000/svg" xmlns:xlink="http://www.w3.org/1999/xlink">
<g>
<g>
<rect fill="none" height="30" width="30"/>
</g>
<circle cx="15" cy="15" fill-opacity="0.6" r="14" stroke-opacity="0.6"/>
<radialGradient cx="15" cy="3.7026" gradientUnits="userSpaceOnUse" id="SVGID_1_" r="23.0618">
<stop offset="0" style="stop-color:#DDD7B2"/>
<stop offset="0.7818" style="stop-color:#B3964D"/>
<stop offset="1" style="stop-color:#B39C4D"/>
</radialGradient>
<path d="M15,28C7.832,28,2,22.168,2,15C2,7.832,7.832,2,15,2c7.168,0,13,5.832,13,13  C28,22.168,22.168,28,15,28L15,28z" fill="url(#SVGID_1_)"/>
<path d="M15,3c7,0,12.709,5.564,12.975,12.5C27.98,15.333,28,15.169,28,15c0-7.168-5.832-13-13-13  C7.832,2,2,7.832,2,15c0,0.169,0.019,0.333,0.025,0.5C2.291,8.564,8,3,15,3z" fill="#FFFFFF" fill-opacity="0.3" stroke-opacity="0.3"/>
<path d="M27,13.5c0-0.537-0.08-1.055-0.225-1.545C26.85,11.972,26.92,12,27,12h1.67c-0.15-0.688-0.357-1.354-0.605-2  H27c-0.383,0-0.703,0.222-0.871,0.536C25.15,9.013,23.445,8,21.5,8c-2.517,0-4.634,1.692-5.287,4h-2.425  C13.134,9.692,11.017,8,8.5,8c-1.945,0-3.651,1.013-4.628,2.537C3.703,10.222,3.382,10,3,10H1.936c-0.248,0.646-0.455,1.312-0.605,2  H3c0.08,0,0.15-0.028,0.224-0.045C3.081,12.445,3,12.963,3,13.5C3,16.537,5.462,19,8.5,19c2.869,0,5.222-2.197,5.475-5h2.051  c0.253,2.803,2.605,5,5.475,5C24.537,19,27,16.537,27,13.5z M13,13.505C12.997,15.984,10.98,18,8.5,18C6.019,18,4,15.981,4,13.5  S6.019,9,8.5,9c2.48,0,4.497,2.016,4.5,4.495V13.505z M21.5,18c-2.481,0-4.5-2.019-4.5-4.5S19.019,9,21.5,9s4.5,2.019,4.5,4.5  S23.981,18,21.5,18z" fill-opacity="0.4" stroke-opacity="0.4"/>
<linearGradient gradientUnits="userSpaceOnUse" id="SVGID_2_" x1="4" x2="13" y1="12.5" y2="12.5">
<stop offset="0" style="stop-color:#CCCCCC"/>
<stop offset="0.2" style="stop-color:#EEEEEE"/>
<stop offset="1" style="stop-color:#FCFCFC"/>
</linearGradient>
<path d="M8.5,17C6.019,17,4,14.981,4,12.5S6.019,8,8.5,8s4.5,2.019,4.5,4.5S10.981,17,8.5,17L8.5,17z" fill="url(#SVGID_2_)"/>
<path d="M8.5,7C5.462,7,3,9.462,3,12.5S5.462,18,8.5,18s5.5-2.462,5.5-5.5S11.538,7,8.5,7z M8.5,17  C6.019,17,4,14.981,4,12.5S6.019,8,8.5,8s4.5,2.019,4.5,4.5S10.981,17,8.5,17z" fill="#2F2021"/>
<linearGradient gradientUnits="userSpaceOnUse" id="SVGID_3_" x1="17" x2="26" y1="12.5" y2="12.5">
<stop offset="0" style="stop-color:#CCCCCC"/>
<stop offset="0.2" style="stop-color:#EEEEEE"/>
<stop offset="1" style="stop-color:#FCFCFC"/>
</linearGradient>
<path d="M21.5,17c-2.481,0-4.5-2.019-4.5-4.5S19.019,8,21.5,8s4.5,2.019,4.5,4.5S23.981,17,21.5,17L21.5,17z" fill="url(#SVGID_3_)"/>
<path d="M21.5,7C18.463,7,16,9.462,16,12.5s2.463,5.5,5.5,5.5s5.5-2.462,5.5-5.5S24.537,7,21.5,7z M21.5,17  c-2.481,0-4.5-2.019-4.5-4.5S19.019,8,21.5,8s4.5,2.019,4.5,4.5S23.981,17,21.5,17z" fill="#2F2021"/>
<rect fill="#2F2021" height="2" width="4" x="13" y="11"/>
<path d="M30,10c0,0.552-0.448,1-1,1h-2c-0.553,0-1-0.448-1-1l0,0c0-0.552,0.447-1,1-1h2C29.552,9,30,9.448,30,10  L30,10z" fill="#2F2021"/>
<path d="M4,10c0,0.552-0.448,1-1,1H1c-0.552,0-1-0.448-1-1l0,0c0-0.552,0.448-1,1-1h2C3.552,9,4,9.448,4,10L4,10z" fill="#2F2021"/>
<path d="M8.5,9c2.31,0,4.197,1.756,4.449,4C12.968,12.834,13,12.671,13,12.5C13,10.019,10.981,8,8.5,8  S4,10.019,4,12.5c0,0.171,0.032,0.334,0.051,0.5C4.303,10.756,6.19,9,8.5,9z" fill-opacity="0.3" stroke-opacity="0.3"/>
<path d="M21.5,9c2.311,0,4.197,1.756,4.449,4C25.969,12.834,26,12.671,26,12.5c0-2.481-2.019-4.5-4.5-4.5  S17,10.019,17,12.5c0,0.171,0.031,0.334,0.051,0.5C17.303,10.756,19.189,9,21.5,9z" fill-opacity="0.3" stroke-opacity="0.3"/>
<path d="M15.075,25c-5.617,0-9.75-2.752-11.056-7.363c-0.075-0.266,0.079-0.542,0.345-0.617  c0.262-0.075,0.542,0.078,0.617,0.345C6.158,21.52,9.856,23,15,23c5.143,0,8.993-1.48,10.17-5.636  c0.074-0.267,0.355-0.42,0.617-0.345c0.266,0.075,0.42,0.352,0.344,0.617C24.826,22.248,20.692,25,15.075,25L15.075,25z" fill-opacity="0.2" stroke-opacity="0.2"/>
<path d="M27,19.969l-0.942-2.238c0.062-0.307-0.087-0.621-0.347-0.707  c-0.262-0.09-0.542,0.093-0.617,0.409C23.917,22.367,20.145,24.5,15,24.5c-5.144,0-8.917-2.133-10.095-7.067  c-0.075-0.316-0.355-0.499-0.617-0.409c-0.259,0.086-0.408,0.4-0.346,0.707L3,19.969c0.497,0,0.957-0.505,1.293-1.014  C5.888,23.702,9.807,26,15,26c5.189,0,9.107-2.295,10.704-7.038C25.994,19.344,26.407,19.734,27,19.969z" fill="#FFFFFF" fill-opacity="0.6" stroke-opacity="0.6"/>
<linearGradient gradientUnits="userSpaceOnUse" id="SVGID_4_" x1="14.9995" x2="14.9995" y1="17.1426" y2="25.0441">
<stop offset="0" style="stop-color:#31151D"/>
<stop offset="1" style="stop-color:#76464D"/>
</linearGradient>
<path d="M27,19.5l-0.942-1.885c0.062-0.258-0.087-0.522-0.347-0.596c-0.262-0.075-0.542,0.078-0.617,0.345  C23.917,21.52,20.144,24,15,24s-8.917-2.48-10.094-6.636c-0.075-0.267-0.355-0.42-0.617-0.345c-0.259,0.073-0.408,0.338-0.346,0.596  L3,19.5c0.497,0,0.957-0.426,1.293-0.854C5.888,22.645,9.807,25,15,25c5.189,0,9.107-2.354,10.704-6.348  C25.994,18.974,26.407,19.303,27,19.5z" fill="url(#SVGID_4_)"/>
<circle cx="8.5" cy="12.5" fill="#22243E" r="1.5"/>
<circle cx="21.5" cy="12.5" fill="#22243E" r="1.5"/>
</g>
</svg>
