<?xml version="1.0" encoding="UTF-8"?>
<!DOCTYPE svg PUBLIC "-//W3C//DTD SVG 1.1 Tiny//EN" "http://www.w3.org/Graphics/SVG/1.1/DTD/svg11-tiny.dtd">
<svg baseProfile="tiny" height="30px" version="1.1" viewBox="0 0 30 30" width="30px" x="0px" xmlns="http://www.w3.org/2000/svg" xmlns:xlink="http://www.w3.org/1999/xlink" y="0px">
<path d="M26,14.525c1.119,0.396,2.134,1.008,3,1.785V3c0-1.104-0.896-2-2-2H8C6.896,1,6,1.896,6,3v1h20V14.525z"/>
<rect height="2" width="2" x="7" y="11"/>
<rect height="2" width="2" x="7" y="22"/>
<path d="M16,17.355V15H9v5h5.525C14.869,19.033,15.367,18.139,16,17.355z"/>
<rect height="2" width="2" x="10" y="11"/>
<rect height="2" width="2" x="10" y="22"/>
<rect height="2" width="2" x="16" y="11"/>
<path d="M14,23c0-0.338,0.022-0.671,0.059-1H13v2h1.062C14.024,23.671,14,23.339,14,23z"/>
<path d="M22,6H3C1.896,6,1,6.896,1,8v19c0,1.104,0.896,2,2,2h13.311c-0.777-0.865-1.384-1.884-1.783-3H5c-0.552,0-1-0.447-1-1  s0.448-1,1-1h1v-2H5c-0.552,0-1-0.447-1-1s0.448-1,1-1h2v-5H5c-0.552,0-1-0.447-1-1s0.448-1,1-1h1v-2H5c-0.552,0-1-0.447-1-1  s0.448-1,1-1h15c0.553,0,1,0.447,1,1s-0.447,1-1,1h-1v2h1c0.553,0,1,0.447,1,1c0,0.087-0.029,0.164-0.049,0.244  C21.61,14.09,22.294,14,23,14c0.338,0,0.672,0.022,1,0.059V8C24,6.896,23.104,6,22,6z"/>
<rect height="2" width="2" x="13" y="11"/>
<path d="M18,15.521c0.287-0.191,0.588-0.362,0.896-0.521H18V15.521z"/>
<path d="M23,16c-3.866,0-7,3.134-7,7s3.134,7,7,7s7-3.134,7-7S26.866,16,23,16z M18,24v-2h10v2H18z"/>
<g fill-opacity="0.5" stroke-opacity="0.5">
<rect fill="none" height="30" width="30"/>
</g>
</svg>
