<?xml version="1.0" encoding="UTF-8"?>
<!DOCTYPE svg PUBLIC "-//W3C//DTD SVG 1.1 Tiny//EN" "http://www.w3.org/Graphics/SVG/1.1/DTD/svg11-tiny.dtd">
<svg baseProfile="tiny" height="30px" version="1.1" viewBox="0 0 30 30" width="30px" x="0px" xmlns="http://www.w3.org/2000/svg" xmlns:xlink="http://www.w3.org/1999/xlink" y="0px">
<g fill-opacity="0.5" stroke-opacity="0.5">
<rect fill="none" height="30" width="30"/>
</g>
<path d="M27,1H8C6.896,1,6,1.896,6,3v1h20v17v3h1c1.104,0,2-0.896,2-2V3C29,1.896,28.104,1,27,1z"/>
<path d="M22,6H3C1.896,6,1,6.896,1,8v19c0,1.104,0.896,2,2,2h19c1.104,0,2-0.896,2-2V8C24,6.896,23.104,6,22,6z M12.201,27.543  c-0.73,0.274-1.547-0.095-1.822-0.826L5.645,14.143c-0.73,0.275-1.547-0.094-1.821-0.824c-0.275-0.731,0.095-1.547,0.825-1.822  l1.323-0.498c0.731-0.275,1.547,0.094,1.822,0.824l5.232,13.898C13.302,26.451,12.932,27.268,12.201,27.543z M15.167,17.358  c-1.323,0.499-2.811,2.569-2.811,2.569l-3.488-9.265c4.37-2.498,4.729,0.173,6.952,0.404C17.395,11.23,19.955,8,19.955,8  C20.462,15.365,16.49,16.86,15.167,17.358z"/>
</svg>
