<?xml version="1.0" encoding="UTF-8"?>
<!DOCTYPE svg PUBLIC "-//W3C//DTD SVG 1.1 Tiny//EN" "http://www.w3.org/Graphics/SVG/1.1/DTD/svg11-tiny.dtd">
<svg baseProfile="tiny" height="30px" version="1.1" viewBox="0 0 30 30" width="30px" x="0px" xmlns="http://www.w3.org/2000/svg" xmlns:xlink="http://www.w3.org/1999/xlink" y="0px">
<g fill-opacity="0.5" stroke-opacity="0.5">
<rect fill="none" height="30" width="30"/>
</g>
<path d="M7.539,6.955c0.455-0.49,0.963-0.929,1.525-1.304L6.618,3.204C6.276,2.862,5.684,2.902,5.293,3.293S4.862,4.277,5.204,4.618  L7.539,6.955z"/>
<path d="M15,4c0.341,0,0.673,0.017,1,0.041V0.833C16,0.373,15.553,0,15,0s-1,0.373-1,0.833v3.208C14.327,4.017,14.659,4,15,4z"/>
<path d="M22.379,6.863l2.239-2.24c0.345-0.344,0.308-0.939-0.083-1.33s-0.986-0.428-1.331-0.084l-2.368,2.37  C21.404,5.947,21.918,6.38,22.379,6.863z"/>
<path d="M23,14.1C23,8.577,19.419,6,15,6s-8,2.577-8,8.1c0,3.091,1.393,5.822,3.243,7.629L11,24h8l0.757-2.271  C21.607,19.922,23,17.19,23,14.1z M15,9c2.281,0,5,0.885,5,5.1c0,3.986-3.288,6.9-5,6.9s-5-2.914-5-6.9C10,9.885,12.719,9,15,9z"/>
<path d="M11,27c0,1.104,0.896,2,2,2h4c1.104,0,2-0.896,2-2v-2h-8V27z"/>
</svg>
