<?xml version="1.0" encoding="UTF-8"?>
<!DOCTYPE svg PUBLIC "-//W3C//DTD SVG 1.1 Tiny//EN" "http://www.w3.org/Graphics/SVG/1.1/DTD/svg11-tiny.dtd">
<svg baseProfile="tiny" height="30px" version="1.1" viewBox="0 0 30 30" width="30px" x="0px" xmlns="http://www.w3.org/2000/svg" xmlns:xlink="http://www.w3.org/1999/xlink" y="0px">
<rect fill="none" height="30" width="30"/>
<polygon points="20.521,13.034 18.455,14.324 20.324,17.328 17.271,17.328 14.59,13.034 12.523,14.324 14.394,17.328 5.279,17.328   5.279,19.762 24.722,19.761 "/>
<polygon points="9.48,29.072 11.547,27.783 9.68,24.779 12.729,24.779 15.409,29.072 17.475,27.783 15.604,24.779 24.722,24.779   24.722,22.344 5.279,22.345 "/>
<polygon points="20.336,3.297 20.336,0.928 9.633,0.928 9.633,11.544 20.336,11.544 20.336,9.175 11.931,9.175 11.931,7.387   18.34,7.387 18.34,5.085 11.931,5.085 11.931,3.297 "/>
</svg>
