<?xml version="1.0" encoding="UTF-8"?>
<!DOCTYPE svg PUBLIC "-//W3C//DTD SVG 1.1 Tiny//EN" "http://www.w3.org/Graphics/SVG/1.1/DTD/svg11-tiny.dtd">
<svg baseProfile="tiny" height="30" viewBox="0 0 30 30" width="30" xmlns="http://www.w3.org/2000/svg" xmlns:xlink="http://www.w3.org/1999/xlink">
<g>
<rect fill="none" height="30" width="30"/>
<rect fill-opacity="0.35" height="12" stroke-opacity="0.35" width="8" x="1" y="15"/>
<rect fill-opacity="0.35" height="18" stroke-opacity="0.35" width="8" x="11" y="9"/>
<rect fill-opacity="0.35" height="24" stroke-opacity="0.35" width="8" x="21" y="3"/>
<linearGradient gradientUnits="userSpaceOnUse" id="SVGID_1_" x1="5" x2="5" y1="15.8965" y2="26.0217">
<stop offset="0" style="stop-color:#85AE4A"/>
<stop offset="1" style="stop-color:#2F6F44"/>
</linearGradient>
<rect fill="url(#SVGID_1_)" height="10" width="6" x="2" y="16"/>
<linearGradient gradientUnits="userSpaceOnUse" id="SVGID_2_" x1="5" x2="5" y1="7.3999" y2="24.801">
<stop offset="0" style="stop-color:#85AE4A"/>
<stop offset="1" style="stop-color:#2F6F44"/>
</linearGradient>
<rect fill="url(#SVGID_2_)" height="8" width="4" x="3" y="17"/>
<linearGradient gradientUnits="userSpaceOnUse" id="SVGID_3_" x1="15" x2="15" y1="9.959" y2="25.959">
<stop offset="0" style="stop-color:#85AE4A"/>
<stop offset="1" style="stop-color:#2F6F44"/>
</linearGradient>
<rect fill="url(#SVGID_3_)" height="16" width="6" x="12" y="10"/>
<linearGradient gradientUnits="userSpaceOnUse" id="SVGID_4_" x1="15" x2="15" y1="5.75" y2="24.7824">
<stop offset="0" style="stop-color:#85AE4A"/>
<stop offset="1" style="stop-color:#2F6F44"/>
</linearGradient>
<rect fill="url(#SVGID_4_)" height="14" width="4" x="13" y="11"/>
<linearGradient gradientUnits="userSpaceOnUse" id="SVGID_5_" x1="25" x2="25" y1="4" y2="25.7514">
<stop offset="0" style="stop-color:#85AE4A"/>
<stop offset="1" style="stop-color:#2F6F44"/>
</linearGradient>
<rect fill="url(#SVGID_5_)" height="22" width="6" x="22" y="4"/>
<linearGradient gradientUnits="userSpaceOnUse" id="SVGID_6_" x1="25" x2="25" y1="5" y2="24.774">
<stop offset="0" style="stop-color:#69A044"/>
<stop offset="1" style="stop-color:#2F6F44"/>
</linearGradient>
<rect fill="url(#SVGID_6_)" height="20" width="4" x="23" y="5"/>
<rect fill="none" height="30" width="30"/>
</g>
</svg>
