<?xml version="1.0" encoding="UTF-8"?>
<!DOCTYPE svg PUBLIC "-//W3C//DTD SVG 1.1 Tiny//EN" "http://www.w3.org/Graphics/SVG/1.1/DTD/svg11-tiny.dtd">
<svg baseProfile="tiny" height="30px" version="1.1" viewBox="0 0 30 30" width="30px" x="0px" xmlns="http://www.w3.org/2000/svg" xmlns:xlink="http://www.w3.org/1999/xlink" y="0px">
<g fill-opacity="0.5" stroke-opacity="0.5">
<rect fill="none" height="30" width="30"/>
</g>
<polygon fill-rule="evenodd" points="16.004,11.854 16.004,7.336 18.477,9.809 16.219,12.068 17.829,13.679   22,10 14,2 14,9.85 "/>
<polygon fill-rule="evenodd" points="17.178,21.324 16.004,22.498 16.004,20.15 14,18.146 14,28 18.927,23.074   "/>
<polygon fill-rule="evenodd" points="12.123,16.269 8,20.286 9.563,21.848 13.699,17.846 "/>
<path d="M27.693,26.372c0.389,0.389,0.41,1.005,0.049,1.368c-0.363,0.363-0.979,0.343-1.367-0.046L2.307,3.625  C1.918,3.236,1.896,2.621,2.26,2.258c0.363-0.363,0.979-0.341,1.367,0.048L27.693,26.372z"/>
</svg>
