<?xml version="1.0" encoding="UTF-8"?>
<!DOCTYPE svg PUBLIC "-//W3C//DTD SVG 1.1 Tiny//EN" "http://www.w3.org/Graphics/SVG/1.1/DTD/svg11-tiny.dtd">
<svg baseProfile="tiny" height="30px" version="1.1" viewBox="0 0 30 30" width="30px" x="0px" xmlns="http://www.w3.org/2000/svg" xmlns:xlink="http://www.w3.org/1999/xlink" y="0px">
<g fill-opacity="0.5" stroke-opacity="0.5">
<rect fill="none" height="30" width="30"/>
</g>
<path d="M26,4.5C26,5.328,25.328,6,24.5,6h-14C9.672,6,9,5.328,9,4.5l0,0  C9,3.672,9.672,3,10.5,3h14C25.328,3,26,3.672,26,4.5L26,4.5z" fill-rule="evenodd"/>
<circle cx="5.5" cy="4.5" fill-rule="evenodd" r="1.5"/>
<path d="M26,9.5c0,0.828-0.672,1.5-1.5,1.5h-14C9.672,11,9,10.328,9,9.5l0,0  C9,8.672,9.672,8,10.5,8h14C25.328,8,26,8.672,26,9.5L26,9.5z" fill-rule="evenodd"/>
<circle cx="5.5" cy="9.5" fill-rule="evenodd" r="1.5"/>
<path d="M26,14.5c0,0.828-0.672,1.5-1.5,1.5h-14C9.672,16,9,15.328,9,14.5l0,0  c0-0.828,0.672-1.5,1.5-1.5h14C25.328,13,26,13.672,26,14.5L26,14.5z" fill-rule="evenodd"/>
<circle cx="5.5" cy="14.5" fill-rule="evenodd" r="1.5"/>
<path d="M26,19.5c0,0.828-0.672,1.5-1.5,1.5h-14C9.672,21,9,20.328,9,19.5l0,0  c0-0.828,0.672-1.5,1.5-1.5h14C25.328,18,26,18.672,26,19.5L26,19.5z" fill-rule="evenodd"/>
<circle cx="5.5" cy="19.5" fill-rule="evenodd" r="1.5"/>
<path d="M26,24.5c0,0.828-0.672,1.5-1.5,1.5h-14C9.672,26,9,25.328,9,24.5l0,0  c0-0.828,0.672-1.5,1.5-1.5h14C25.328,23,26,23.672,26,24.5L26,24.5z" fill-rule="evenodd"/>
<circle cx="5.5" cy="24.5" fill-rule="evenodd" r="1.5"/>
</svg>
