<?xml version="1.0" encoding="UTF-8"?>
<!DOCTYPE svg PUBLIC "-//W3C//DTD SVG 1.1 Tiny//EN" "http://www.w3.org/Graphics/SVG/1.1/DTD/svg11-tiny.dtd">
<svg baseProfile="tiny" height="30px" version="1.1" viewBox="0 0 30 30" width="30px" x="0px" xmlns="http://www.w3.org/2000/svg" xmlns:xlink="http://www.w3.org/1999/xlink" y="0px">
<rect height="2" width="10" x="10" y="23"/>
<path d="M12,28h6c1.104,0,2-0.896,2-2H10C10,27.104,10.896,28,12,28z"/>
<path d="M15,2c-4.971,0-9,2.864-9,9c0,3.221,1.383,6.082,3.271,8.083L10,22h10l0.729-2.917C22.617,17.082,24,14.221,24,11  C24,4.864,19.971,2,15,2z M17.444,18c-0.422,0.31-0.845,0.55-1.247,0.719c-0.037,0.016-0.072,0.028-0.108,0.042  c-0.154,0.061-0.304,0.107-0.45,0.145c-0.045,0.012-0.091,0.024-0.135,0.034C15.328,18.977,15.158,19,15,19  s-0.328-0.023-0.503-0.061c-0.044-0.01-0.09-0.022-0.135-0.034c-0.146-0.037-0.296-0.084-0.45-0.145  c-0.036-0.014-0.072-0.026-0.108-0.042C13.4,18.55,12.978,18.31,12.556,18C10.761,16.684,9,14.162,9,11c0-4.959,3.263-6,6-6  s6,1.041,6,6C21,14.162,19.238,16.684,17.444,18z"/>
<g>
<rect fill="none" height="30" width="30"/>
</g>
</svg>
