<?xml version="1.0" encoding="UTF-8"?>
<!DOCTYPE svg PUBLIC "-//W3C//DTD SVG 1.1 Tiny//EN" "http://www.w3.org/Graphics/SVG/1.1/DTD/svg11-tiny.dtd">
<svg baseProfile="tiny" height="60" viewBox="0 0 60 60" width="60" xmlns="http://www.w3.org/2000/svg" xmlns:xlink="http://www.w3.org/1999/xlink">
<g>
<radialGradient cx="-2349.8247" cy="1517.2324" gradientTransform="matrix(4.489659e-010 -1 -1 -4.489659e-010 1546.7637 -2331.9561)" gradientUnits="userSpaceOnUse" id="SVGID_1_" r="36.2594">
<stop offset="0" style="stop-color:#C7B17C"/>
<stop offset="0.297" style="stop-color:#C7B17C"/>
<stop offset="0.6667" style="stop-color:#A86F49"/>
<stop offset="0.7939" style="stop-color:#C2A673"/>
<stop offset="1" style="stop-color:#C2A673"/>
</radialGradient>
<path d="M42.117,24.584c-0.412,0.077-0.578,0.316-0.602,0.895c-0.027,0.719-0.291,3.172-0.433,3.764  c-0.125,0.521-0.342,0.804-0.94,0.979c-0.75,0.221-3.188,1.038-10.144,1.039c-6.953,0-9.396-0.809-10.142-1.038  c-0.651-0.201-0.774-0.389-0.94-0.98c-0.162-0.586-0.401-3.045-0.433-3.764c-0.022-0.576-0.157-0.819-0.575-0.883  c-0.729-0.113-13.291-2.238-14.601-2.502c-0.795-0.158-1.236-0.045-1.293,0.704c-0.231,3.013,2.01,7.642,3.004,9.068  c0.888,1.272,1.688,2.664,3.82,3.555C10.869,36.267,20.977,37.97,30,37.97c9.027,0,19.132-1.705,21.159-2.549  c2.134-0.891,2.934-2.282,3.82-3.555c0.994-1.429,3.236-6.056,3.005-9.068c-0.057-0.749-0.499-0.862-1.293-0.702  C55.381,22.357,42.832,24.451,42.117,24.584z" fill="url(#SVGID_1_)"/>
<linearGradient gradientTransform="matrix(4.489659e-010 -1 -1 -4.489659e-010 1546.7637 -2331.9561)" gradientUnits="userSpaceOnUse" id="SVGID_2_" x1="-2359.3091" x2="-2358.9661" y1="1529.9209" y2="1527.0802">
<stop offset="0" style="stop-color:#A47952"/>
<stop offset="1" style="stop-color:#7C4738"/>
</linearGradient>
<path d="M19.859,30.222c-0.652-0.201-0.775-0.389-0.941-0.98c-0.162-0.586-0.402-3.045-0.432-3.764  c-0.023-0.576-0.158-0.819-0.576-0.883c-0.047-0.008-0.061-0.011-0.061-0.012c-0.246-0.039-0.994-0.165-2.041-0.34  c0.024,0.255,0.371,3.523,1.034,4.354C18.064,30.123,19.859,30.222,19.859,30.222z" fill="url(#SVGID_2_)"/>
<linearGradient gradientTransform="matrix(4.489659e-010 -1 1 4.489659e-010 2447.9541 -2331.959)" gradientUnits="userSpaceOnUse" id="SVGID_3_" x1="-2359.3081" x2="-2358.9651" y1="-2404.8115" y2="-2407.6523">
<stop offset="0" style="stop-color:#A47952"/>
<stop offset="1" style="stop-color:#7C4738"/>
</linearGradient>
<path d="M40.16,30.222c0.654-0.203,0.779-0.389,0.943-0.98c0.162-0.586,0.401-3.045,0.434-3.766  c0.021-0.574,0.158-0.817,0.574-0.883c0.045-0.008,0.059-0.009,0.059-0.009c0.246-0.04,0.994-0.166,2.041-0.34  c-0.026,0.256-0.369,3.522-1.035,4.354C41.957,30.124,40.16,30.222,40.16,30.222z" fill="url(#SVGID_3_)"/>
<linearGradient gradientTransform="matrix(-0.7071 -0.7071 -0.7071 0.7071 -1182.6451 -838.0215)" gradientUnits="userSpaceOnUse" id="SVGID_4_" x1="-1453.7261" x2="-1488.9213" y1="-225.5083" y2="-260.7034">
<stop offset="0" style="stop-color:#D3C59A"/>
<stop offset="1" style="stop-color:#D0BA98"/>
</linearGradient>
<path d="M54.979,31.252c-0.888,1.272-1.688,2.667-3.819,3.555  c-2.027,0.845-12.132,2.549-21.16,2.549c-9.025,0-19.129-1.704-21.158-2.549c-2.133-0.889-2.934-2.281-3.82-3.555  c-0.912-1.312-2.873-5.318-3.008-8.299c-0.147,3.014,2.029,7.509,3.008,8.913c0.888,1.272,1.688,2.664,3.82,3.555  C10.869,36.267,20.977,37.97,30,37.97c9.027,0,19.132-1.705,21.159-2.549c2.134-0.891,2.934-2.282,3.82-3.555  c0.979-1.404,3.158-5.899,3.009-8.913C57.854,25.934,55.895,29.94,54.979,31.252z" fill="url(#SVGID_4_)" fill-opacity="0.5" stroke-opacity="0.5"/>
<linearGradient gradientTransform="matrix(-0.7071 -0.7071 -0.7071 0.7071 -1182.6451 -838.0215)" gradientUnits="userSpaceOnUse" id="SVGID_5_" x1="-1449.3701" x2="-1489.4139" y1="-225.6621" y2="-265.7059">
<stop offset="0" style="stop-color:#D3C59A"/>
<stop offset="1" style="stop-color:#D0BA98"/>
</linearGradient>
<path d="M42.117,24.584c-0.412,0.077-0.578,0.316-0.602,0.895  c-0.027,0.719-0.291,3.172-0.433,3.764c-0.125,0.521-0.342,0.804-0.94,0.979c-0.75,0.221-3.188,1.038-10.144,1.039  c-6.953,0-9.396-0.809-10.142-1.038c-0.651-0.201-0.774-0.389-0.94-0.98c-0.162-0.586-0.401-3.045-0.433-3.764  c-0.022-0.576-0.157-0.819-0.575-0.883c-0.729-0.113-13.291-2.238-14.601-2.502c-0.795-0.158-1.236-0.045-1.293,0.704  c-0.027,0.354-0.018,0.729,0.019,1.12c0.094-0.645,0.524-0.747,1.274-0.596c1.312,0.265,13.869,2.388,14.601,2.5  c0.418,0.064,0.553,0.309,0.575,0.884c0.029,0.722,0.271,3.179,0.433,3.766c0.164,0.589,0.289,0.776,0.94,0.979  c0.746,0.229,3.188,1.038,10.142,1.037c6.955,0.001,9.394-0.816,10.144-1.036c0.6-0.177,0.815-0.458,0.94-0.981  c0.142-0.59,0.402-3.043,0.433-3.763c0.022-0.576,0.188-0.815,0.602-0.894c0.715-0.133,13.264-2.228,14.574-2.49  c0.75-0.151,1.184-0.051,1.274,0.594c0.036-0.389,0.046-0.768,0.019-1.119c-0.058-0.749-0.499-0.863-1.293-0.703  C55.381,22.357,42.832,24.451,42.117,24.584z" fill="url(#SVGID_5_)" fill-opacity="0.5" stroke-opacity="0.5"/>
<linearGradient gradientTransform="matrix(4.489659e-010 -1 -1 -4.489659e-010 1571.1406 -2294.7852)" gradientUnits="userSpaceOnUse" id="SVGID_6_" x1="-2328.7651" x2="-2328.7651" y1="1565.4004" y2="1516.2345">
<stop offset="0" style="stop-color:#9B7956"/>
<stop offset="0.5" style="stop-color:#64352E"/>
<stop offset="1" style="stop-color:#9B7956"/>
</linearGradient>
<path d="M53.646,32.675C51.37,33.519,39.55,35.204,30,35.205  c-9.551,0-21.371-1.688-23.645-2.53c-0.433-0.161-0.804-0.342-1.144-0.532c0.231,0.341,0.472,0.687,0.731,1.025  c0.068,0.026,0.127,0.056,0.197,0.083C8.451,34.105,20.387,35.818,30,35.818c9.614,0,21.55-1.711,23.86-2.566  c0.069-0.027,0.129-0.059,0.196-0.085c0.261-0.339,0.5-0.685,0.733-1.023C54.447,32.333,54.077,32.514,53.646,32.675z" fill="url(#SVGID_6_)" fill-opacity="0.5" stroke-opacity="0.5"/>
<rect fill="none" height="60" width="60"/>
</g>
<g transform="matrix(1 0 0 1 30 30)">
<rect fill="none" height="30" width="30"/>
<path d="M15,29.5C7.004,29.5,0.5,22.996,0.5,15C0.5,7.004,7.004,0.5,15,0.5  c7.995,0,14.5,6.505,14.5,14.5S22.995,29.5,15,29.5L15,29.5z" fill-opacity="0.35" stroke-opacity="0.35"/>
<radialGradient cx="435.2295" cy="910.6348" gradientTransform="matrix(0.618 0 0 0.618 -253.9715 -552.4329)" gradientUnits="userSpaceOnUse" id="SVGID_1__" r="28.704">
<stop offset="0" style="stop-color:#B4DFC6"/>
<stop offset="0.5" style="stop-color:#72B9C3"/>
<stop offset="1" style="stop-color:#546F9F"/>
</radialGradient>
<circle cx="15" cy="15" fill="url(#SVGID_1__)" r="13.464"/>
<path d="M27.983,14.263c-0.299-5.259-3.704-9.788-8.679-11.54l-0.605,0.1L15.18,2.15  l-4.386,2.615l-0.165,1.102H8.083l1.006,1.71L6.365,9.8l-0.635,2.744l2.25,3.987l2.297-0.469l0.839,0.723l0.655,0.064l0.433,1.691  l-0.571,1.484l2.084,5.332h2.126l2.107-1.701v-0.695l0.557-0.863l0.459-0.236c-0.116,0.18-0.3,0.586-0.3,0.586  c-0.02,0.139,0.299,2.855,1.234,2.643c0.711-0.16,3.248-4.873,3.296-5.322c0.096-0.887-0.387-1.252-0.683-1.391l-0.329-0.156  l-1.515,1.52c-0.162,0.012-0.309,0.039-0.44,0.078v-1.26l1.645-1.605l0.837-2.698l1.275-1.038l-0.28-0.508l0.962-0.926l-0.538-0.979  l0.41,0.049l2.396,5.362l0.49-0.39c-0.015-0.262-0.043-0.521-0.073-0.779L27.983,14.263z M15.161,8.231l-0.2-0.535h1.202  l0.586,1.316h-0.871V8.23L15.161,8.231L15.161,8.231z M19.129,10.882l0.961,1.402l0.064,0.168l-0.984-0.595l-0.234-0.848  L19.129,10.882z M20.573,13.331l0.29,0.29l-0.375,0.084l-0.085-0.104L20.573,13.331z M13.06,3.903l0.611,0.946l-0.694,0.212  l-0.271-0.154L13.06,3.903z" fill-opacity="0.3" stroke-opacity="0.3"/>
<linearGradient gradientTransform="matrix(1.7647 0 0 1.7647 -572.9794 -733.5799)" gradientUnits="userSpaceOnUse" id="SVGID_2__" x1="333.1904" x2="333.1904" y1="416.6045" y2="431.9054">
<stop offset="0" style="stop-color:#6DACBC"/>
<stop offset="0.497" style="stop-color:#5778A3"/>
<stop offset="1" style="stop-color:#D3E0D8"/>
</linearGradient>
<path d="M15,1.536C7.564,1.536,1.536,7.565,1.536,15  c0,7.439,6.029,13.464,13.464,13.464c7.438,0,13.465-6.027,13.465-13.464C28.465,7.565,22.438,1.536,15,1.536z M15,27.428  C8.146,27.428,2.571,21.854,2.571,15C2.571,8.147,8.146,2.571,15,2.571S27.428,8.147,27.428,15  C27.428,21.854,21.854,27.428,15,27.428z" fill="url(#SVGID_2__)" fill-opacity="0.3" stroke-opacity="0.3"/>
<radialGradient cx="333.6309" cy="418.627" gradientTransform="matrix(1.7647 0 0 1.7647 -572.9794 -733.5799)" gradientUnits="userSpaceOnUse" id="SVGID_3__" r="9.0429">
<stop offset="0" style="stop-color:#96BE67"/>
<stop offset="0.3152" style="stop-color:#96BE67"/>
<stop offset="0.7273" style="stop-color:#468D53"/>
<stop offset="1" style="stop-color:#387463"/>
</radialGradient>
<path d="M22.296,18.848l-1.401,1.402c0,0-0.848,0-0.887,0.336c-0.02,0.145-0.065,0.771-0.208,1.094  c-0.282,0.195-0.619,0.842-0.619,0.842s-0.175,1.25,0.761,1.037C20.871,23.35,23.734,19.523,22.296,18.848z" fill="url(#SVGID_3__)"/>
<radialGradient cx="333.6299" cy="418.6211" gradientTransform="matrix(1.7647 0 0 1.7647 -572.9794 -733.5799)" gradientUnits="userSpaceOnUse" id="SVGID_4__" r="10.4663">
<stop offset="0" style="stop-color:#96BE67"/>
<stop offset="0.3152" style="stop-color:#96BE67"/>
<stop offset="0.7273" style="stop-color:#468D53"/>
<stop offset="1" style="stop-color:#387463"/>
</radialGradient>
<path d="M19.132,3.213c-0.23,0.087-0.387,0.146-0.387,0.146l-3.463-0.663L13.583,3.76l0.894,1.383  l-1.563,0.48l-0.842-0.48l0.296-0.84l-1.098,0.76l-0.196,1.324H8.988L9.759,7.7l-2.932,2.39l-0.552,2.387l1.088,2.107L8.018,15  l2.297-0.469l0.839,0.721l0.763,0.074l0.83,3.246l-0.552,1.436l1.22,2.697l0.343,1.119h2.126l1.202-0.65l0.905-1.053V20.85  l1.724-0.881v-1.885l0.681-1.297l1.521-1.366l0.363-1.585l-1.988,0.443l-0.522-0.637l0.371-0.594l-1.411-0.854l-0.601-2.164  l1.042-0.68l0.96,1.402l0.359,0.922l0.722,0.721l0.842,0.44l0.936-0.151l1.039-1l-0.731-1.334l-0.921,0.24l-0.833-0.991l0.791-0.552  l2.482,0.301v0.883l2.161,4.452l0.491-0.393C27.176,9.158,23.783,4.849,19.132,3.213z M18.004,9.23l-1.134,0.3h-1.511V8.749h-1.443  L12.774,9.05l-1.741-0.482l-0.482-0.901l2.404-0.541h2.406L15,6.164h1.202l0.67,1.503l1.134,0.398V9.23H18.004z M20.589,7.247  l-2.044-0.361V6.165l1.022-0.24l0.3-0.36l0.722,0.6V7.247L20.589,7.247z" fill="url(#SVGID_4__)"/>
</g>
</svg>
