<?xml version="1.0" encoding="UTF-8"?>
<!DOCTYPE svg PUBLIC "-//W3C//DTD SVG 1.1 Tiny//EN" "http://www.w3.org/Graphics/SVG/1.1/DTD/svg11-tiny.dtd">
<svg baseProfile="tiny" height="30px" version="1.1" viewBox="0 0 30 30" width="30px" x="0px" xmlns="http://www.w3.org/2000/svg" xmlns:xlink="http://www.w3.org/1999/xlink" y="0px">
<path d="M15,25c-0.617,0-1.215-0.287-1.6-0.8l-6-8c-0.533-0.712-0.533-1.688,0-2.4l6-8C13.785,5.287,14.383,5,15,5  c0.211,0,0.425,0.033,0.633,0.103C16.449,5.375,17,6.139,17,7v16c0,0.861-0.551,1.625-1.367,1.897C15.425,24.967,15.211,25,15,25  L15,25z"/>
<path d="M7,23c0,1.104-0.896,2-2,2l0,0c-1.104,0-2-0.896-2-2V7c0-1.104,0.896-2,2-2l0,0c1.104,0,2,0.896,2,2V23z"/>
<path d="M25,25c-0.617,0-1.215-0.287-1.6-0.8l-6-8c-0.533-0.712-0.533-1.688,0-2.4l6-8C23.785,5.287,24.383,5,25,5  c0.211,0,0.425,0.033,0.633,0.103C26.449,5.375,27,6.139,27,7v16c0,0.861-0.551,1.625-1.367,1.897C25.425,24.967,25.211,25,25,25  L25,25z"/>
<g>
<rect fill="none" height="30" width="30"/>
</g>
</svg>
