<?xml version="1.0" encoding="UTF-8"?>
<!DOCTYPE svg PUBLIC "-//W3C//DTD SVG 1.1 Tiny//EN" "http://www.w3.org/Graphics/SVG/1.1/DTD/svg11-tiny.dtd">
<svg baseProfile="tiny" height="60" viewBox="0 0 60 60" width="60" xmlns="http://www.w3.org/2000/svg" xmlns:xlink="http://www.w3.org/1999/xlink">
<g>
<path d="M6.917,52.783v-1.5c0-4.818,2.172-8.519,6.283-10.699  c1.059-0.564,3.787-1.602,6.194-2.518c0.87-0.33,1.66-0.631,2.299-0.881l0.986-0.43c0.268-0.776,0.156-2.01-0.009-2.316l-0.609-0.99  l0.006-0.005c-0.477-0.811-0.928-1.653-1.347-2.516c-1.481-0.104-2.916-1.358-3.614-3.185c-0.731-1.911-0.45-3.901,0.643-4.98  c-0.984-4.118-0.784-7.288,0.595-9.426c0.821-1.273,2.087-2.172,3.585-2.55c1.423-1.708,3.591-3.575,7.675-3.575  c4.679,0.156,8.319,1.761,10.55,4.641c2.173,2.806,2.864,6.706,1.954,11.001c1.044,1.116,1.256,3.072,0.488,4.962  c-0.677,1.671-1.935,2.824-3.292,3.062c-0.272,0.561-0.566,1.127-0.875,1.689c-0.381,0.694-0.74,1.304-1.099,1.863  c-0.177,0.303-0.299,1.717,0.037,2.46l1.25,0.499l1.473,0.547c2.69,0.999,5.678,2.108,6.696,2.639  c1.05,0.547,6.29,3.635,6.289,10.707v1.5H6.917z" fill="#222021" fill-opacity="0.15" stroke-opacity="0.15"/>
<path d="M7.667,52.033v-0.75c0-4.523,2.035-7.994,5.884-10.037  c1.021-0.544,3.739-1.577,6.136-2.489c0.844-0.32,1.638-0.622,2.279-0.873l1.283-0.559c0.522-1,0.371-2.794,0.048-3.299  l-0.151-0.245l-0.104-0.169c0,0-1.311-2.285-1.853-3.443c-0.088,0.012-0.178,0.017-0.268,0.017c-1.243,0-2.495-1.089-3.115-2.71  c-0.702-1.834-0.35-3.688,0.783-4.433c-1.058-4.136-0.93-7.262,0.384-9.298c0.764-1.185,1.954-1.988,3.373-2.283  c1.427-1.767,3.432-3.499,7.257-3.499c4.433,0.148,7.868,1.652,9.958,4.351c2.067,2.669,2.696,6.425,1.771,10.577  c0,0-0.016,0.081-0.049,0.229c1.057,0.794,1.344,2.627,0.617,4.417c-0.635,1.568-1.874,2.625-3.092,2.64  c-0.316,0.673-0.664,1.354-1.037,2.032c-0.373,0.68-0.724,1.274-1.073,1.82c-0.352,0.6-0.471,2.557,0.146,3.464l1.495,0.596  l1.488,0.554c2.507,0.931,5.627,2.088,6.611,2.601s5.887,3.408,5.886,10.042v0.75H7.667z" fill="#222021" fill-opacity="0.3" stroke-opacity="0.3"/>
<rect fill="none" height="60" width="60"/>
<path d="M34.994,27.07c0.014-0.011,0.029-0.026,0.041-0.038  c0.002,0.009,0.005,0.016,0.008,0.026C35.025,27.061,35.012,27.068,34.994,27.07z M38.518,22.661L38.518,22.661  c-0.018-0.003-0.041-0.014-0.061-0.015C38.477,22.646,38.499,22.657,38.518,22.661z" fill="#222021" fill-opacity="0.15" stroke-opacity="0.15"/>
<radialGradient cx="297.79" cy="-375.7397" gradientTransform="matrix(1 0 0 -1 -267.4805 -330.0195)" gradientUnits="userSpaceOnUse" id="SVGID_1_" r="16.2293">
<stop offset="0" style="stop-color:#DDC4B0"/>
<stop offset="0.2" style="stop-color:#DDC4B0"/>
<stop offset="0.96" style="stop-color:#A57665"/>
<stop offset="1" style="stop-color:#A57665"/>
</radialGradient>
<path d="M36.914,38.52c-1.525-0.664-1.477-3.914-0.848-4.897c0.108-0.171,0.209-0.345,0.314-0.515H23.614  c0.105,0.17,0.204,0.344,0.314,0.515c0.63,0.983,0.679,4.233-0.848,4.897c-1.527,0.662,7.098,6.437,7.098,6.437  S38.441,39.182,36.914,38.52z" fill="url(#SVGID_1_)"/>
<linearGradient gradientTransform="matrix(1 0 0 -1 -267.4805 -330.0195)" gradientUnits="userSpaceOnUse" id="SVGID_2_" x1="297.4756" x2="297.4756" y1="-367.9355" y2="-381.3027">
<stop offset="0" style="stop-color:#70B4B6"/>
<stop offset="0.39" style="stop-color:#5F8BA1"/>
<stop offset="0.89" style="stop-color:#455188"/>
<stop offset="1" style="stop-color:#455188"/>
</linearGradient>
<path d="M46.094,41.906c-1.605-0.834-9.564-3.621-9.715-3.795L30.3,43.163l-6.531-5.247  c-0.18,0.27-8.046,3.023-9.866,3.992c-2.083,1.105-5.486,3.646-5.486,9.375h43.158C51.576,45.555,47.695,42.742,46.094,41.906z" fill="url(#SVGID_2_)"/>
<polygon fill="#020202" fill-opacity="0.3" points="22.282,38.564 30.3,44.955 37.832,38.695 36.379,38.111   30.3,43.163 23.77,37.916 " stroke-opacity="0.3"/>
<linearGradient gradientUnits="userSpaceOnUse" id="SVGID_3_" x1="9.5718" x2="22.6592" y1="45.0781" y2="45.0781">
<stop offset="0" style="stop-color:#70B4B6"/>
<stop offset="1" style="stop-color:#5F8BA1"/>
</linearGradient>
<path d="M22.659,39.577c0,0-11.44,2.987-11.44,11.002c0,0-1.635,0.001-1.647,0  C9.572,45.65,13.418,41.818,22.659,39.577z" fill="url(#SVGID_3_)"/>
<linearGradient gradientUnits="userSpaceOnUse" id="SVGID_4_" x1="37.1855" x2="50.2734" y1="44.8936" y2="44.8936">
<stop offset="0" style="stop-color:#70B4B6"/>
<stop offset="1" style="stop-color:#5F8BA1"/>
</linearGradient>
<path d="M37.186,39.393c0,0,11.441,2.986,11.441,11.002c0,0,1.637,0,1.646,0  C50.273,45.465,46.428,41.633,37.186,39.393z" fill="url(#SVGID_4_)"/>
<linearGradient gradientTransform="matrix(1 0 0 -1 -267.4805 -330.0195)" gradientUnits="userSpaceOnUse" id="SVGID_5_" x1="297.5371" x2="297.5371" y1="-375.5508" y2="-368.1697">
<stop offset="0" style="stop-color:#70B4B6"/>
<stop offset="1" style="stop-color:#5F8BA1"/>
</linearGradient>
<polygon fill="url(#SVGID_5_)" points="30.3,44.955 22.281,38.564 21.815,38.77 30.3,45.531 38.3,38.879 37.834,38.691 "/>
<radialGradient cx="298.5801" cy="-345.8398" gradientTransform="matrix(1 0 0 -1 -267.4805 -330.0195)" gradientUnits="userSpaceOnUse" id="SVGID_6_" r="21.7801">
<stop offset="0" style="stop-color:#F4EDE4"/>
<stop offset="0.51" style="stop-color:#E8D9CA"/>
<stop offset="0.76" style="stop-color:#DDC4B0"/>
<stop offset="1" style="stop-color:#BF9C89"/>
</radialGradient>
<path d="M40.584,23.573c-0.055-0.026-0.113-0.03-0.17-0.046c0-0.001,0-0.002,0-0.002  c-0.012-0.002-0.021-0.004-0.033-0.007c-0.084-0.021-0.168-0.041-0.256-0.045c-10.658-1.854-15.548-7.759-15.916-6.195  c-0.294,1.244-3.281,3.935-4.847,5.276c0.013,0.06,0.02,0.114,0.034,0.174c0,0,0.056,0.275,0.174,0.744  c-0.125,0.013-0.246,0.039-0.365,0.089c-0.995,0.42-1.308,2.053-0.698,3.647c0.61,1.594,1.913,2.548,2.909,2.13  c0.061-0.027,0.113-0.071,0.169-0.107c0.579,1.301,1.289,2.697,2.159,4.094c1.458,1.731,3.691,3.766,6.157,3.766  c2.983,0,4.808-1.633,6.063-3.278c0.031-0.068,0.063-0.133,0.103-0.189c0.931-1.453,1.684-2.911,2.293-4.268  c0.975,0.337,2.226-0.569,2.846-2.102C41.85,25.666,41.57,24.017,40.584,23.573z" fill="url(#SVGID_6_)"/>
<linearGradient gradientTransform="matrix(1 0 0 -1 -267.4805 -330.0195)" gradientUnits="userSpaceOnUse" id="SVGID_7_" x1="293.6279" x2="302.8386" y1="-368.1089" y2="-358.9682">
<stop offset="0" style="stop-color:#E8D9CA"/>
<stop offset="1" style="stop-color:#DDC4B0"/>
</linearGradient>
<path d="M29.463,36.254c-1.816,0-3.646-0.846-4.993-2.121c1.425,1.498,3.343,2.957,5.432,2.957  c2.982,0,4.809-1.633,6.064-3.279c0.031-0.067,0.063-0.133,0.101-0.188c0.932-1.453,1.684-2.911,2.295-4.268  C34.967,35.283,32.447,36.254,29.463,36.254z" fill="url(#SVGID_7_)"/>
<linearGradient gradientTransform="matrix(1 0 0 -1 -267.4805 -330.0195)" gradientUnits="userSpaceOnUse" id="SVGID_8_" x1="297.2969" x2="297.2969" y1="-338.9307" y2="-352.4902">
<stop offset="0" style="stop-color:#725B53"/>
<stop offset="0.38" style="stop-color:#451F1E"/>
<stop offset="1" style="stop-color:#261013"/>
</linearGradient>
<path d="M29.603,8.713c-3.695,0-5.473,1.68-6.845,3.436c-2.23,0.345-5.768,2.39-3.27,11.35  c1.565-1.341,4.427-4.978,4.722-6.222c0.371-1.577,5.343,4.451,16.205,6.248c0.127-0.501,0.185-0.797,0.185-0.797  C42.305,15.077,38.594,9.014,29.603,8.713z" fill="url(#SVGID_8_)"/>
<linearGradient gradientTransform="matrix(1 0 0 -1 -267.4805 -330.0195)" gradientUnits="userSpaceOnUse" id="SVGID_9_" x1="301.9326" x2="289.6528" y1="-351.9048" y2="-344.6049">
<stop offset="0" style="stop-color:#725B53"/>
<stop offset="0.36" style="stop-color:#451F1E"/>
<stop offset="1" style="stop-color:#261013"/>
</linearGradient>
<path d="M24.221,16.543c0,0,5.316,6.983,16.117,6.971C40.338,23.514,35.251,22.716,24.221,16.543z" fill="url(#SVGID_9_)"/>
<linearGradient gradientTransform="matrix(1 0 0 -1 -267.4805 -330.0195)" gradientUnits="userSpaceOnUse" id="SVGID_10_" x1="288.5391" x2="288.6491" y1="-343.1895" y2="-350.9899">
<stop offset="0" style="stop-color:#725B53"/>
<stop offset="0.38" style="stop-color:#451F1E"/>
<stop offset="1" style="stop-color:#261013"/>
</linearGradient>
<path d="M22.943,12.668c0,0-5.204,0.312-3.273,9.132C19.67,21.8,19.034,15.76,22.943,12.668z" fill="url(#SVGID_10_)"/>
<linearGradient gradientTransform="matrix(1 0 0 -1 -267.4805 -330.0195)" gradientUnits="userSpaceOnUse" id="SVGID_11_" x1="299.0225" x2="298.6326" y1="-340.0913" y2="-343.6304">
<stop offset="0" style="stop-color:#8D7B6A"/>
<stop offset="1" style="stop-color:#451F1E"/>
</linearGradient>
<path d="M32.126,13.891c-2.423-0.346-6.521-2.493-8.129-1.726c0,0,5.26-6,14.538,0.831  C38.535,12.997,36.326,14.489,32.126,13.891z" fill="url(#SVGID_11_)"/>
<rect fill="none" height="59.996" width="59.996"/>
</g>
<g transform="matrix(1 0 0 1 30 30)">
<path d="M15,29.505c-0.657,0-1.337-0.048-2.019-0.144l-0.594-0.082l-0.435-1.304c-0.171-0.517-0.3-1.313-0.3-1.854  v-0.687c-0.006-0.031-0.063-0.11-0.102-0.131l-1.339-0.548l-0.099-0.032c-0.06,0-0.112,0.021-0.127,0.031l-0.479,0.479  c-0.383,0.383-1.038,0.855-1.522,1.098l-1.232,0.612l-0.477-0.36c-1.081-0.815-2.042-1.775-2.856-2.854L3.057,23.25l0.616-1.23  c0.246-0.489,0.718-1.144,1.099-1.523l0.484-0.485c0.018-0.026,0.033-0.119,0.021-0.157L4.72,18.511  c-0.041-0.095-0.118-0.151-0.159-0.158l-0.676,0.001c-0.545,0-1.343-0.13-1.855-0.302l-1.303-0.434l-0.083-0.594  C0.548,16.346,0.5,15.666,0.5,15.005s0.048-1.34,0.144-2.02l0.083-0.594l1.305-0.434c0.507-0.171,1.306-0.301,1.853-0.301h0.687  c0.031-0.006,0.108-0.062,0.127-0.099l0.553-1.344c0.04-0.098,0.025-0.19,0-0.224L4.772,9.511C4.387,9.125,3.915,8.47,3.674,7.987  L3.059,6.758L3.42,6.279c0.814-1.079,1.774-2.04,2.855-2.855l0.479-0.362l1.231,0.617c0.486,0.244,1.14,0.715,1.522,1.097  l0.487,0.485c0.008,0.005,0.06,0.025,0.119,0.025l0.034-0.017l0.064-0.014l1.285-0.531c0.094-0.04,0.15-0.118,0.156-0.16l0-0.676  c0-0.543,0.129-1.34,0.301-1.854l0.435-1.304l0.594-0.083c0.676-0.095,1.356-0.143,2.02-0.143c0.662,0,1.342,0.048,2.02,0.143  l0.595,0.083l0.434,1.305c0.17,0.515,0.301,1.312,0.301,1.853v0.687c0.006,0.031,0.063,0.11,0.1,0.129l1.341,0.551l0.098,0.031  c0.061,0,0.113-0.02,0.129-0.031l0.478-0.478c0.385-0.385,1.038-0.856,1.521-1.098l1.233-0.613l0.476,0.36  c1.08,0.813,2.041,1.773,2.856,2.855l0.362,0.479L26.27,8.106c-0.253,0.506-0.391,0.758-1.04,1.407L24.744,10  c-0.017,0.026-0.032,0.119-0.021,0.158l0.557,1.344c0.04,0.093,0.117,0.15,0.158,0.156l0.678,0c0.544,0,1.343,0.13,1.854,0.302  l1.303,0.433l0.083,0.594c0.095,0.677,0.144,1.356,0.144,2.021c0,0.666-0.049,1.345-0.144,2.021l-0.085,0.593l-1.303,0.434  c-0.508,0.172-1.305,0.302-1.853,0.302h-0.688c-0.032,0.006-0.109,0.063-0.131,0.102l-0.547,1.339  c-0.04,0.097-0.026,0.191-0.002,0.226l0.479,0.479c0.383,0.381,0.857,1.038,1.099,1.525l0.613,1.226l-0.36,0.479  c-0.815,1.08-1.774,2.041-2.854,2.855l-0.479,0.361l-1.231-0.615c-0.485-0.244-1.14-0.716-1.521-1.097l-0.487-0.486  c-0.006-0.004-0.059-0.023-0.119-0.023l-0.031,0.017l-0.066,0.015l-1.284,0.529c-0.094,0.04-0.15,0.118-0.156,0.159v0.677  c0,0.54-0.129,1.337-0.301,1.853l-0.434,1.306l-0.595,0.082C16.335,29.457,15.656,29.505,15,29.505L15,29.505z M15,11.208  c-2.094,0-3.798,1.704-3.798,3.798c0,2.094,1.704,3.798,3.798,3.798s3.797-1.704,3.797-3.798C18.797,12.912,17.094,11.208,15,11.208  L15,11.208z" fill-opacity="0.35" stroke-opacity="0.35"/>
<linearGradient gradientTransform="matrix(1 0 0 -1 -267.4805 -360.0195)" gradientUnits="userSpaceOnUse" id="SVGID_1__" x1="282.4795" x2="282.4795" y1="-361.4912" y2="-388.438">
<stop offset="0" style="stop-color:#FFFFFF"/>
<stop offset="0.1" style="stop-color:#FFFFFF"/>
<stop offset="0.74" style="stop-color:#939595"/>
<stop offset="1" style="stop-color:#C8C8C8"/>
</linearGradient>
<path d="M26.116,12.624H25.43c-0.437,0-0.906-0.339-1.042-0.754l-0.531-1.285  c-0.196-0.389-0.105-0.96,0.204-1.269l0.485-0.486c0.615-0.615,0.659-0.759,0.916-1.271l0.349-0.695  c-0.761-1.008-1.659-1.906-2.668-2.666l-0.694,0.346c-0.389,0.195-0.961,0.608-1.271,0.917l-0.485,0.486  c-0.31,0.309-0.882,0.401-1.271,0.203L18.138,5.62c-0.417-0.137-0.755-0.608-0.755-1.044V3.889c0-0.437-0.113-1.134-0.251-1.548  l-0.246-0.735C16.269,1.519,15.641,1.472,15,1.472c-0.641,0-1.27,0.047-1.886,0.133L12.869,2.34  c-0.138,0.415-0.251,1.111-0.251,1.548v0.687c0,0.436-0.339,0.906-0.754,1.042l-1.285,0.53C10.19,6.346,9.62,6.254,9.311,5.946  L8.824,5.46C8.515,5.151,7.942,4.739,7.553,4.543L6.858,4.195C5.851,4.956,4.953,5.854,4.192,6.862l0.347,0.694  c0.195,0.391,0.608,0.963,0.917,1.272l0.486,0.486c0.309,0.309,0.4,0.88,0.202,1.269l-0.531,1.286  c-0.136,0.415-0.605,0.754-1.042,0.754H3.884c-0.438,0-1.134,0.112-1.548,0.252l-0.736,0.245c-0.086,0.617-0.134,1.245-0.134,1.886  c0,0.64,0.047,1.269,0.134,1.885l0.736,0.246c0.414,0.139,1.11,0.251,1.548,0.251h0.687c0.438,0,0.906,0.34,1.042,0.755l0.53,1.284  c0.198,0.389,0.106,0.961-0.203,1.269l-0.486,0.486c-0.309,0.308-0.721,0.882-0.917,1.271L4.19,23.146  c0.761,1.008,1.659,1.905,2.667,2.665l0.694-0.345c0.391-0.196,0.963-0.608,1.271-0.917l0.486-0.485  c0.309-0.309,0.881-0.401,1.27-0.203l1.284,0.529c0.416,0.138,0.755,0.608,0.755,1.044v0.687c0,0.438,0.113,1.133,0.251,1.549  l0.245,0.734c0.617,0.086,1.245,0.134,1.886,0.134c0.64,0,1.267-0.048,1.886-0.134l0.244-0.734c0.138-0.416,0.251-1.111,0.251-1.549  v-0.687c0-0.438,0.34-0.906,0.755-1.043l1.284-0.53c0.391-0.197,0.959-0.105,1.269,0.203l0.485,0.485  c0.31,0.309,0.882,0.721,1.272,0.917l0.695,0.347c1.008-0.76,1.904-1.657,2.665-2.666l-0.347-0.693  c-0.194-0.391-0.608-0.964-0.918-1.271l-0.483-0.486c-0.31-0.309-0.4-0.88-0.204-1.27l0.529-1.284  c0.14-0.416,0.607-0.755,1.044-0.755h0.688c0.435,0,1.132-0.111,1.547-0.251l0.736-0.246c0.087-0.615,0.134-1.245,0.134-1.885  c0-0.641-0.047-1.269-0.134-1.886l-0.736-0.245C27.249,12.736,26.553,12.624,26.116,12.624z M15,19.771  c-2.632,0-4.765-2.133-4.765-4.765c0-2.631,2.132-4.765,4.765-4.765c2.63,0,4.764,2.134,4.764,4.765  C19.764,17.638,17.63,19.771,15,19.771z" fill="url(#SVGID_1__)"/>
<linearGradient gradientTransform="matrix(1 0 0 -1 -267.4805 -360.0195)" gradientUnits="userSpaceOnUse" id="SVGID_2__" x1="277.6816" x2="287.2746" y1="-377.2241" y2="-377.2241">
<stop offset="0" style="stop-color:#7A7A7A"/>
<stop offset="0.5" style="stop-color:#FFFFFF"/>
<stop offset="1" style="stop-color:#7A7A7A"/>
</linearGradient>
<path d="M15,19.771c2.63,0,4.764-2.133,4.764-4.765c0-0.125-0.01-0.246-0.018-0.367  c-0.188,2.459-2.239,4.398-4.746,4.398c-2.508,0-4.558-1.939-4.746-4.398c-0.01,0.122-0.019,0.243-0.019,0.367  C10.235,17.638,12.367,19.771,15,19.771z" fill="url(#SVGID_2__)"/>
<linearGradient gradientTransform="matrix(1 0 0 -1 -267.4805 -360.0195)" gradientUnits="userSpaceOnUse" id="SVGID_3__" x1="282.4805" x2="282.4805" y1="-383.0635" y2="-366.7921">
<stop offset="0" style="stop-color:#FFFFFF"/>
<stop offset="0.52" style="stop-color:#C8C8C8"/>
<stop offset="1" style="stop-color:#939595"/>
</linearGradient>
<path d="M15,6.52c-4.687,0-8.487,3.8-8.487,8.487s3.8,8.486,8.487,8.486s8.487-3.799,8.487-8.486  S19.687,6.52,15,6.52z M15,21.563c-3.621,0-6.559-2.935-6.559-6.557c0-3.622,2.937-6.558,6.559-6.558  c3.62,0,6.557,2.936,6.557,6.558C21.557,18.629,18.619,21.563,15,21.563z" fill="url(#SVGID_3__)"/>
<rect fill="none" height="30" width="30"/>
</g>
</svg>
