<?xml version="1.0" encoding="UTF-8"?>
<!DOCTYPE svg PUBLIC "-//W3C//DTD SVG 1.1 Tiny//EN" "http://www.w3.org/Graphics/SVG/1.1/DTD/svg11-tiny.dtd">
<svg baseProfile="tiny" height="20px" version="1.1" viewBox="0 0 20 20" width="20px" x="0px" xmlns="http://www.w3.org/2000/svg" xmlns:xlink="http://www.w3.org/1999/xlink" y="0px">
<rect fill="none" height="20" width="20"/>
<rect fill="none" fill-rule="evenodd" height="20" width="20"/>
<path d="M2,12V0h16v12c0,4.42-3.58,8-8,8S2,16.42,2,12z" fill="url(#SVGID_1_)" fill-rule="evenodd"/>
<path d="M10,19c-3.859,0-7-3.14-7-7V0h1v12  c0,3.309,2.691,6,6,6s6-2.691,6-6V0h1v12C17,15.86,13.859,19,10,19z" fill="#FFFFFF" fill-opacity="0.2" fill-rule="evenodd" stroke-opacity="0.2"/>
<path d="M10,20c-4.42,0-8-3.58-8-8V0h1.001v12.001  C3.001,15.86,6.141,19,10,19s6.999-3.14,6.999-6.999v-11V0H18v12C18,16.42,14.42,20,10,20z" fill-opacity="0.2" fill-rule="evenodd" stroke-opacity="0.2"/>
<defs>
<linearGradient gradientUnits="userSpaceOnUse" id="SVGID_1_" x1="17.5" x2="1.9995" y1="10" y2="10">
<stop offset="0" style="stop-color:#B4B4BE"/>
<stop offset="0.2" style="stop-color:#D2D2DC"/>
<stop offset="0.8" style="stop-color:#D2D2DC"/>
<stop offset="1" style="stop-color:#B4B4BE"/>
</linearGradient>
</defs>
</svg>
