<?xml version="1.0" encoding="UTF-8"?>
<!DOCTYPE svg PUBLIC "-//W3C//DTD SVG 1.1 Tiny//EN" "http://www.w3.org/Graphics/SVG/1.1/DTD/svg11-tiny.dtd">
<svg baseProfile="tiny" height="30px" version="1.1" viewBox="0 0 30 30" width="30px" x="0px" xmlns="http://www.w3.org/2000/svg" xmlns:xlink="http://www.w3.org/1999/xlink" y="0px">
<g fill-opacity="0.5" stroke-opacity="0.5">
<rect fill="none" height="30" width="30"/>
</g>
<path d="M17,27.403c0-2.089,1.629-3.847,3.847-4.403H11v-2h10.632v-3H11v-2h10.632v-0.423c0-0.783,0.35-1.516,0.96-2.008  C23.066,13.196,23.635,13,24.211,13c0.182,0,0.364,0.02,0.544,0.058L26,13.333V3c0-1.104-0.896-2-2-2H6C4.896,1,4,1.896,4,3v24  c0,1.104,0.896,2,2,2h11.351C17.135,28.501,17,27.967,17,27.403z M11,6h11v2H11V6z M11,11h11v2H11V11z M10,23H8v-2h2V23z M10,18H8  v-2h2V18z M10,13H8v-2h2V13z M10,8H8V6h2V8z"/>
<path d="M29.547,16.167l-5.211-1.153C24.295,15.005,24.252,15,24.211,15c-0.131,0-0.259,0.044-0.363,0.126  c-0.137,0.11-0.216,0.276-0.216,0.451v0.576v2.309v6.552c-0.399-0.132-0.841-0.206-1.303-0.206c-1.839,0-3.329,1.163-3.329,2.596  C19,28.837,20.49,30,22.329,30s3.618-1.163,3.618-2.597c0-0.077,0-5.665,0-7.966l3.348,0.741c0.043,0.009,0.084,0.014,0.126,0.014  c0,0,0.259-0.044,0.362-0.127C29.92,19.956,30,19.791,30,19.615V16.73C30,16.46,29.812,16.227,29.547,16.167z"/>
<g>
<rect fill="none" height="30" width="30"/>
</g>
</svg>
