<?xml version="1.0" encoding="UTF-8"?>
<!DOCTYPE svg PUBLIC "-//W3C//DTD SVG 1.1 Tiny//EN" "http://www.w3.org/Graphics/SVG/1.1/DTD/svg11-tiny.dtd">
<svg baseProfile="tiny" height="60" viewBox="0 0 60 60" width="60" xmlns="http://www.w3.org/2000/svg" xmlns:xlink="http://www.w3.org/1999/xlink">
<g>
<radialGradient cx="-1627.3691" cy="-2479.0078" gradientTransform="matrix(0.7071 0.7071 -0.7071 0.7071 -564.6201 2940.3716)" gradientUnits="userSpaceOnUse" id="SVGID_1_" r="45.6647">
<stop offset="0" style="stop-color:#C7B17C"/>
<stop offset="0.297" style="stop-color:#C7B17C"/>
<stop offset="0.6667" style="stop-color:#A86F49"/>
<stop offset="0.7939" style="stop-color:#C2A673"/>
<stop offset="1" style="stop-color:#C2A673"/>
</radialGradient>
<path d="M20.37,41.951c0.299-0.437,0.233-0.799-0.259-1.333c-0.616-0.665-2.566-3.083-2.968-3.735  c-0.353-0.575-0.411-1.021-0.034-1.711c0.473-0.864,1.915-3.763,8.107-9.956c6.191-6.192,9.084-7.646,9.955-8.107  c0.76-0.4,1.037-0.345,1.711,0.035c0.666,0.377,3.068,2.352,3.734,2.967c0.535,0.492,0.873,0.588,1.301,0.274  c0.752-0.551,13.828-9.843,15.229-10.775c0.85-0.564,1.141-1.061,0.523-1.778c-2.477-2.889-8.594-5.015-10.75-5.399  c-1.924-0.345-3.877-0.872-6.568,0.235c-2.559,1.054-13.074,8.536-21.11,16.572C11.203,27.277,3.723,37.795,2.668,40.352  c-1.107,2.691-0.58,4.645-0.236,6.567c0.387,2.158,2.511,8.275,5.4,10.752c0.718,0.615,1.213,0.323,1.777-0.525  C10.542,55.745,19.853,42.705,20.37,41.951z" fill="url(#SVGID_1_)"/>
<linearGradient gradientTransform="matrix(0.7071 0.7071 -0.7071 0.7071 -564.6201 2940.3716)" gradientUnits="userSpaceOnUse" id="SVGID_2_" x1="-1639.3418" x2="-1638.9102" y1="-2494.9819" y2="-2491.4063">
<stop offset="0" style="stop-color:#A47952"/>
<stop offset="1" style="stop-color:#7C4738"/>
</linearGradient>
<path d="M35.172,17.108c0.76-0.4,1.037-0.345,1.711,0.035c0.666,0.377,3.068,2.352,3.734,2.967  c0.535,0.492,0.873,0.588,1.301,0.274c0.047-0.035,0.063-0.046,0.064-0.046c0.252-0.184,1.031-0.738,2.119-1.514  c-0.252-0.204-3.469-2.809-4.801-2.956C36.857,15.598,35.172,17.108,35.172,17.108z" fill="url(#SVGID_2_)"/>
<linearGradient gradientTransform="matrix(0.7071 0.7071 0.7071 -0.7071 -1696.8304 4072.5859)" gradientUnits="userSpaceOnUse" id="SVGID_3_" x1="-1639.3462" x2="-1638.9143" y1="4063.0557" y2="4066.6326">
<stop offset="0" style="stop-color:#A47952"/>
<stop offset="1" style="stop-color:#7C4738"/>
</linearGradient>
<path d="M17.093,35.188c-0.401,0.763-0.347,1.039,0.034,1.713c0.376,0.666,2.352,3.069,2.967,3.738  c0.493,0.531,0.587,0.869,0.274,1.297c-0.034,0.048-0.046,0.063-0.046,0.063c-0.183,0.253-0.738,1.032-1.515,2.119  c-0.203-0.252-2.807-3.467-2.956-4.799C15.579,36.875,17.093,35.188,17.093,35.188z" fill="url(#SVGID_3_)"/>
<linearGradient gradientUnits="userSpaceOnUse" id="SVGID_4_" x1="48.4072" x2="4.0833" y1="3.4473" y2="47.7712">
<stop offset="0" style="stop-color:#D3C59A"/>
<stop offset="1" style="stop-color:#D0BA98"/>
</linearGradient>
<path d="M2.979,47.467c-0.345-1.925-0.873-3.878,0.235-6.567  c1.054-2.559,8.535-13.075,16.573-21.112C27.825,11.749,38.34,4.269,40.9,3.215c2.689-1.108,4.643-0.581,6.566-0.236  c1.98,0.354,7.297,2.178,10.07,4.711c-2.553-2.815-8.496-4.879-10.617-5.258c-1.924-0.345-3.877-0.872-6.568,0.235  c-2.559,1.054-13.074,8.536-21.11,16.572C11.203,27.277,3.723,37.795,2.668,40.352c-1.107,2.691-0.58,4.645-0.236,6.567  c0.379,2.122,2.441,8.065,5.259,10.617C5.155,54.763,3.333,49.448,2.979,47.467z" fill="url(#SVGID_4_)" fill-opacity="0.5" stroke-opacity="0.5"/>
<linearGradient gradientUnits="userSpaceOnUse" id="SVGID_5_" x1="53.9023" x2="3.4732" y1="3.6543" y2="54.0835">
<stop offset="0" style="stop-color:#D3C59A"/>
<stop offset="1" style="stop-color:#D0BA98"/>
</linearGradient>
<path d="M20.37,41.951c0.299-0.437,0.233-0.799-0.259-1.333  c-0.616-0.665-2.566-3.083-2.968-3.735c-0.353-0.575-0.411-1.021-0.034-1.711c0.473-0.864,1.915-3.763,8.107-9.956  c6.191-6.192,9.084-7.646,9.955-8.107c0.76-0.4,1.037-0.345,1.711,0.035c0.666,0.377,3.068,2.352,3.734,2.967  c0.535,0.492,0.873,0.588,1.301,0.274c0.752-0.551,13.828-9.843,15.229-10.775c0.85-0.564,1.141-1.061,0.523-1.778  c-0.291-0.339-0.635-0.665-1.012-0.982c0.488,0.657,0.197,1.134-0.607,1.666c-1.4,0.933-14.475,10.225-15.227,10.775  c-0.43,0.314-0.768,0.219-1.299-0.273c-0.668-0.616-3.07-2.591-3.738-2.968c-0.672-0.38-0.949-0.436-1.711-0.034  c-0.869,0.46-3.763,1.914-9.954,8.106c-6.193,6.192-7.636,9.092-8.108,9.956c-0.378,0.69-0.319,1.135,0.036,1.711  c0.4,0.651,2.351,3.069,2.967,3.736c0.492,0.533,0.559,0.896,0.259,1.332c-0.518,0.755-9.828,13.794-10.76,15.195  c-0.534,0.803-1.009,1.098-1.665,0.606c0.314,0.378,0.643,0.723,0.981,1.013c0.718,0.615,1.213,0.323,1.777-0.525  C10.542,55.745,19.853,42.705,20.37,41.951z" fill="url(#SVGID_5_)" fill-opacity="0.5" stroke-opacity="0.5"/>
<linearGradient gradientTransform="matrix(0.7071 0.7071 -0.7071 0.7071 -608.1406 2931.3247)" gradientUnits="userSpaceOnUse" id="SVGID_6_" x1="-1610.521" x2="-1610.521" y1="-2533.3467" y2="-2471.428">
<stop offset="0" style="stop-color:#9B7956"/>
<stop offset="0.5" style="stop-color:#64352E"/>
<stop offset="1" style="stop-color:#9B7956"/>
</linearGradient>
<path d="M2.899,45.012c1.275-2.777,10.299-14.804,18.804-23.31  c8.506-8.506,20.531-17.529,23.309-18.803c0.527-0.241,1.02-0.411,1.492-0.545c-0.512-0.096-1.031-0.19-1.566-0.26  c-0.086,0.036-0.162,0.063-0.248,0.102c-2.818,1.293-14.972,10.397-23.533,18.959S3.489,41.869,2.195,44.688  c-0.038,0.087-0.063,0.166-0.101,0.251c0.07,0.534,0.165,1.054,0.259,1.564C2.489,46.03,2.658,45.539,2.899,45.012z" fill="url(#SVGID_6_)" fill-opacity="0.5" stroke-opacity="0.5"/>
<rect fill="none" height="60" width="60"/>
</g>
</svg>
