<?xml version="1.0" encoding="UTF-8"?>
<!DOCTYPE svg PUBLIC "-//W3C//DTD SVG 1.1 Tiny//EN" "http://www.w3.org/Graphics/SVG/1.1/DTD/svg11-tiny.dtd">
<svg baseProfile="tiny" height="30px" version="1.1" viewBox="-2 -2 30 30" width="30px" x="0px" xmlns="http://www.w3.org/2000/svg" xmlns:xlink="http://www.w3.org/1999/xlink" y="0px">
<path d="M12.055,21.932c-1.396-0.15-2.703-0.605-3.837-1.321L20.611,8.218c0.715,1.133,1.17,2.437,1.32,3.832  c1.455,0.149,2.836,0.645,4.043,1.448C25.98,13.332,26,13.168,26,13c0-7.168-5.832-13-13-13S0,5.832,0,13s5.832,13,13,13  c0.169,0,0.332-0.02,0.5-0.025C12.682,24.742,12.201,23.352,12.055,21.932z M4,13c0-4.963,4.037-9,9-9  c1.758,0,3.395,0.515,4.782,1.39L5.39,17.782C4.514,16.395,4,14.758,4,13z"/>
<path d="M25.949,16.051c-2.732-2.733-7.166-2.733-9.898,0c-2.734,2.734-2.734,7.166,0,9.899c2.732,2.732,7.164,2.734,9.898,0  C28.684,23.217,28.684,18.783,25.949,16.051z M21,22.414l-2.828,2.829l-1.414-1.414L19.586,21l-2.828-2.828l1.414-1.414L21,19.586  l2.828-2.828l1.414,1.414L22.414,21l2.828,2.829l-1.414,1.414L21,22.414z"/>
</svg>
