<?xml version="1.0" encoding="UTF-8"?>
<!DOCTYPE svg PUBLIC "-//W3C//DTD SVG 1.1 Tiny//EN" "http://www.w3.org/Graphics/SVG/1.1/DTD/svg11-tiny.dtd">
<svg baseProfile="tiny" height="30px" version="1.1" viewBox="0 0 30 30" width="30px" x="0px" xmlns="http://www.w3.org/2000/svg" xmlns:xlink="http://www.w3.org/1999/xlink" y="0px">
<g fill-opacity="0.5" stroke-opacity="0.5">
<rect fill="none" height="30" width="30"/>
</g>
<path d="M2.854,21.553v-1.512h1.08V9.959h-1.08V8.447h4.588v1.512H6.359v10.082h1.082v1.512H2.854z"/>
<path d="M11.58,21.693c-0.955,0-1.895-0.121-2.82-0.361v-1.564c1.014,0.275,1.912,0.414,2.697,0.414  c0.744,0,1.326-0.168,1.746-0.502c0.418-0.334,0.627-0.809,0.627-1.424c0-0.58-0.172-1.035-0.518-1.365  c-0.346-0.332-0.988-0.764-1.926-1.297c-1.025-0.574-1.717-1.152-2.074-1.736c-0.357-0.582-0.535-1.246-0.535-1.99  c0-1.184,0.396-2.072,1.191-2.668c0.793-0.594,1.828-0.893,3.105-0.893c0.926,0,1.779,0.088,2.559,0.264V10.1  c-0.826-0.188-1.594-0.281-2.303-0.281c-0.645,0-1.16,0.152-1.547,0.457s-0.58,0.727-0.58,1.266c0,0.521,0.168,0.939,0.506,1.254  c0.336,0.313,0.912,0.695,1.727,1.146c1.125,0.627,1.877,1.232,2.258,1.818s0.572,1.246,0.572,1.979  c0,1.318-0.391,2.307-1.174,2.967C14.311,21.363,13.139,21.693,11.58,21.693z"/>
<path d="M22.355,21.693c-1.582,0-2.771-0.555-3.572-1.662c-0.799-1.107-1.199-2.844-1.199-5.211c0-2.227,0.4-3.869,1.199-4.926  c0.801-1.059,1.99-1.588,3.572-1.588c1.594,0,2.791,0.545,3.591,1.631c0.8,1.088,1.2,2.715,1.2,4.883  c0,2.361-0.402,4.098-1.205,5.207C25.139,21.139,23.943,21.693,22.355,21.693z M22.355,20.182c0.732,0,1.291-0.383,1.675-1.146  c0.384-0.766,0.575-2.17,0.575-4.215c0-1.852-0.189-3.148-0.57-3.889c-0.382-0.742-0.941-1.113-1.68-1.113  c-0.732,0-1.291,0.354-1.674,1.061c-0.385,0.705-0.576,2.02-0.576,3.941c0,1.893,0.191,3.26,0.572,4.1  C21.059,19.762,21.617,20.182,22.355,20.182z"/>
</svg>
