<?xml version="1.0" encoding="UTF-8"?>
<!DOCTYPE svg PUBLIC "-//W3C//DTD SVG 1.1 Tiny//EN" "http://www.w3.org/Graphics/SVG/1.1/DTD/svg11-tiny.dtd">
<svg baseProfile="tiny" height="30px" version="1.1" viewBox="0 0 30 30" width="30px" x="0px" xmlns="http://www.w3.org/2000/svg" xmlns:xlink="http://www.w3.org/1999/xlink" y="0px">
<rect fill="none" height="30" width="30"/>
<polygon points="24.645,22.191 24.645,24.607 14.341,24.605 16.359,22.188 "/>
<polygon points="5.342,22.188 10.605,22.188 8.563,24.605 5.342,24.605 "/>
<polygon points="24.645,17.211 24.645,19.627 18.497,19.623 20.519,17.211 "/>
<polygon points="5.342,19.623 5.342,17.211 14.799,17.211 12.761,19.623 "/>
<polygon points="21.393,14.627 9.415,28.904 7.564,27.35 19.593,13.014 "/>
<path d="M22.183,7.633v1.318h1.179v1.29c-0.159,0.044-0.368,0.082-0.699,0.082c-1.218,0-1.943-0.823-1.943-2.2  c0-0.675,0.262-2.843,3.2-1.953l0.32,0.165l0.374-1.299c0,0-0.691-0.448-1.841-0.448c-2.076-0.002-3.559,1.436-3.474,3.573  c0.13,3.16,2.3,3.499,3.311,3.499c1.373,0,2.112-0.447,2.112-0.447V7.633H22.183z"/>
<path d="M13.394,1.257h4.371v1.917h-2.691v1.661c0,0,3.421-0.517,3.215,3.623c0,0,0.107,2.897-2.588,3.165  c-0.778,0.08-2.327-0.175-2.327-0.175l0.021-1.945c0,0,3.291,0.863,3.291-1.245c0-2.252-3.291-1.487-3.291-1.487V1.257z"/>
<rect height="1.487" width="1.486" x="10.766" y="10.08"/>
<path d="M9.354,5.904c0.506-0.524,0.79-1.247,0.79-2.107c0-0.73-0.288-2.7-2.343-2.7c-1.415,0-2.266,1.029-2.266,1.029l0.527,1.883  c0,0,0.788-0.896,1.557-0.896c0.379,0,0.828,0.152,0.828,0.88c0,0.864-0.836,1.05-1.158,1.05H6.395v1.945h0.897  c0.232,0,1.52,0.225,1.402,1.342c-0.231,2.167-2.28,0.962-2.51,0.778L5.791,8.793l-0.512,1.903c0,0,0.761,0.925,2.245,0.925  c1.977,0,2.884-1.695,2.884-3.267C10.408,7.306,10.007,6.417,9.354,5.904z"/>
</svg>
