<?xml version="1.0" encoding="UTF-8"?>
<!DOCTYPE svg PUBLIC "-//W3C//DTD SVG 1.1 Tiny//EN" "http://www.w3.org/Graphics/SVG/1.1/DTD/svg11-tiny.dtd">
<svg baseProfile="tiny" height="30" viewBox="0 0 30 30" width="30" xmlns="http://www.w3.org/2000/svg" xmlns:xlink="http://www.w3.org/1999/xlink">
<g>
<rect fill="none" height="30" width="30"/>
<g>
<path d="M25,7.002H11.857c-0.447-1.721-1.999-3-3.857-3   c-1.915,0-3.518,1.354-3.906,3.155C2.884,7.544,2,8.666,2,10.002v13c0,1.654,1.346,3,3,3h20c1.654,0,3-1.346,3-3v-13   C28,8.348,26.654,7.002,25,7.002z" fill-opacity="0.6" stroke-opacity="0.6"/>
<linearGradient gradientTransform="matrix(1 0 0 -1 -282.4805 -375.0195)" gradientUnits="userSpaceOnUse" id="SVGID_1_" x1="297.4795" x2="297.4795" y1="-383.1855" y2="-400.0298">
<stop offset="0" style="stop-color:#E6E6E6"/>
<stop offset="1" style="stop-color:#626262"/>
</linearGradient>
<path d="M27,23.002c0,1.1-0.9,2-2,2H5c-1.1,0-2-0.9-2-2v-13c0-1.1,0.9-2,2-2h20c1.1,0,2,0.9,2,2V23.002z" fill="url(#SVGID_1_)"/>
<path d="M25,8.002H5c-1.1,0-2,0.9-2,2v1c0-1.1,0.9-2,2-2h20   c1.1,0,2,0.9,2,2v-1C27,8.902,26.1,8.002,25,8.002z" fill="#FFFFFF" fill-opacity="0.4" stroke-opacity="0.4"/>
<path d="M8,24.002c2.205,0,4-1.794,4-4v-12H4v12C4,22.208,5.795,24.002,8,24.002z" fill-opacity="0.1" stroke-opacity="0.1"/>
<linearGradient gradientTransform="matrix(1 0 0 -1 -282.4805 -375.0195)" gradientUnits="userSpaceOnUse" id="SVGID_2_" x1="290.4795" x2="290.4795" y1="-380.1953" y2="-398.0303">
<stop offset="0" style="stop-color:#A2A6A5"/>
<stop offset="1" style="stop-color:#262628"/>
</linearGradient>
<path d="M11,20.002c0,1.65-1.35,3-3,3l0,0c-1.65,0-3-1.35-3-3v-12c0-1.65,1.35-3,3-3l0,0c1.65,0,3,1.35,3,3   V20.002z" fill="url(#SVGID_2_)"/>
<path d="M8,5.002c-1.65,0-3,1.35-3,3v1c0-1.65,1.35-3,3-3s3,1.35,3,3v-1   C11,6.352,9.65,5.002,8,5.002z" fill="#FFFFFF" fill-opacity="0.3" stroke-opacity="0.3"/>
<path d="M10,11.002v11.217c0.609-0.55,1-1.337,1-2.217v-11L10,11.002z" fill-opacity="0.3" stroke-opacity="0.3"/>
<path d="M6,22.219V11.002l-1-2v11C5,20.882,5.391,21.669,6,22.219z" fill-opacity="0.3" stroke-opacity="0.3"/>
<linearGradient gradientTransform="matrix(1 0 0 -1 -282.4805 -375.0195)" gradientUnits="userSpaceOnUse" id="SVGID_3_" x1="296.9795" x2="296.9795" y1="-389.0215" y2="-399.0012">
<stop offset="0" style="stop-color:#6B6C6D"/>
<stop offset="1" style="stop-color:#262628"/>
</linearGradient>
<rect fill="url(#SVGID_3_)" height="2" width="3" x="13" y="14.002"/>
<linearGradient gradientTransform="matrix(1 0 0 -1 -282.4805 -375.0195)" gradientUnits="userSpaceOnUse" id="SVGID_4_" x1="300.9795" x2="300.9795" y1="-389.0215" y2="-399.0012">
<stop offset="0" style="stop-color:#6B6C6D"/>
<stop offset="1" style="stop-color:#262628"/>
</linearGradient>
<rect fill="url(#SVGID_4_)" height="2" width="3" x="17" y="14.002"/>
<linearGradient gradientTransform="matrix(1 0 0 -1 -282.4805 -375.0195)" gradientUnits="userSpaceOnUse" id="SVGID_5_" x1="304.9795" x2="304.9795" y1="-389.0215" y2="-399.0012">
<stop offset="0" style="stop-color:#6B6C6D"/>
<stop offset="1" style="stop-color:#262628"/>
</linearGradient>
<rect fill="url(#SVGID_5_)" height="2" width="3" x="21" y="14.002"/>
<linearGradient gradientTransform="matrix(1 0 0 -1 -282.4805 -375.0195)" gradientUnits="userSpaceOnUse" id="SVGID_6_" x1="296.9795" x2="296.9795" y1="-388.0215" y2="-398.0013">
<stop offset="0" style="stop-color:#6B6C6D"/>
<stop offset="1" style="stop-color:#262628"/>
</linearGradient>
<rect fill="url(#SVGID_6_)" height="2" width="3" x="13" y="17.002"/>
<linearGradient gradientTransform="matrix(1 0 0 -1 -282.4805 -375.0195)" gradientUnits="userSpaceOnUse" id="SVGID_7_" x1="300.9795" x2="300.9795" y1="-388.0215" y2="-398.0013">
<stop offset="0" style="stop-color:#6B6C6D"/>
<stop offset="1" style="stop-color:#262628"/>
</linearGradient>
<rect fill="url(#SVGID_7_)" height="2" width="3" x="17" y="17.002"/>
<linearGradient gradientTransform="matrix(1 0 0 -1 -282.4805 -375.0195)" gradientUnits="userSpaceOnUse" id="SVGID_8_" x1="304.9795" x2="304.9795" y1="-388.0215" y2="-398.0013">
<stop offset="0" style="stop-color:#6B6C6D"/>
<stop offset="1" style="stop-color:#262628"/>
</linearGradient>
<rect fill="url(#SVGID_8_)" height="2" width="3" x="21" y="17.002"/>
<linearGradient gradientTransform="matrix(1 0 0 -1 -282.4805 -375.0195)" gradientUnits="userSpaceOnUse" id="SVGID_9_" x1="296.9795" x2="296.9795" y1="-387.0215" y2="-397.0013">
<stop offset="0" style="stop-color:#6B6C6D"/>
<stop offset="1" style="stop-color:#262628"/>
</linearGradient>
<rect fill="url(#SVGID_9_)" height="2" width="3" x="13" y="20.002"/>
<linearGradient gradientTransform="matrix(1 0 0 -1 -282.4805 -375.0195)" gradientUnits="userSpaceOnUse" id="SVGID_10_" x1="300.9795" x2="300.9795" y1="-387.0215" y2="-397.0013">
<stop offset="0" style="stop-color:#6B6C6D"/>
<stop offset="1" style="stop-color:#262628"/>
</linearGradient>
<rect fill="url(#SVGID_10_)" height="2" width="3" x="17" y="20.002"/>
<linearGradient gradientTransform="matrix(1 0 0 -1 -282.4805 -375.0195)" gradientUnits="userSpaceOnUse" id="SVGID_11_" x1="304.9795" x2="304.9795" y1="-387.0215" y2="-397.0013">
<stop offset="0" style="stop-color:#6B6C6D"/>
<stop offset="1" style="stop-color:#262628"/>
</linearGradient>
<rect fill="url(#SVGID_11_)" height="2" width="3" x="21" y="20.002"/>
<linearGradient gradientTransform="matrix(1 0 0 -1 -282.4805 -375.0195)" gradientUnits="userSpaceOnUse" id="SVGID_12_" x1="300.9795" x2="300.9795" y1="-385.21" y2="-388.0856">
<stop offset="0" style="stop-color:#67A7B1"/>
<stop offset="1" style="stop-color:#3E678C"/>
</linearGradient>
<rect fill="url(#SVGID_12_)" height="3" width="11" x="13" y="10.002"/>
<path d="M22,30c-4.411,0-8-3.589-8-8s3.589-8,8-8s8,3.589,8,8S26.411,30,22,30L22,30z" fill-opacity="0.6" stroke-opacity="0.6"/>
<linearGradient gradientTransform="matrix(1 0 0 -1 -282.4805 -375.0195)" gradientUnits="userSpaceOnUse" id="SVGID_13_" x1="304.4795" x2="304.4795" y1="-389.9883" y2="-404.1846">
<stop offset="0" style="stop-color:#C7B17C"/>
<stop offset="1" style="stop-color:#A86F49"/>
</linearGradient>
<circle cx="22" cy="22" fill="url(#SVGID_13_)" r="7"/>
<polygon fill-opacity="0.2" points="26.34,24 21.999,19.4 17.66,24 17,23.3 21.999,18 27,23.3  " stroke-opacity="0.2"/>
<polygon fill-opacity="0.2" points="21.999,20.857 18,25.098 18,27 21,27 21,24 23,24 23,27 26,27    26,25.098  " stroke-opacity="0.2"/>
<path d="M22,16c3.697,0,6.717,2.869,6.975,6.5   C28.986,22.334,29,22.169,29,22c0-3.865-3.134-7-7-7s-7,3.135-7,7c0,0.169,0.014,0.334,0.025,0.5C15.283,18.869,18.303,16,22,16z" fill="#FFFFFF" fill-opacity="0.4" stroke-opacity="0.4"/>
<polygon fill="#FFFFFF" points="26.34,23 21.999,18.4 17.66,23 17,22.3 21.999,17 27,22.3  "/>
<polygon fill="#FFFFFF" points="21.999,19.857 18,24.098 18,26 21,26 21,23 23,23 23,26 26,26 26,24.098  "/>
</g>
</g>
</svg>
