<?xml version="1.0" encoding="UTF-8"?>
<!DOCTYPE svg PUBLIC "-//W3C//DTD SVG 1.1 Tiny//EN" "http://www.w3.org/Graphics/SVG/1.1/DTD/svg11-tiny.dtd">
<svg baseProfile="tiny" height="10px" version="1.1" viewBox="0 0 10 10" width="10px" x="0px" xmlns="http://www.w3.org/2000/svg" xmlns:xlink="http://www.w3.org/1999/xlink" y="0px">
<rect fill="none" height="10" width="10"/>
<path d="M7,0C3.14,0,0,3.141,0,7v3h10V0H7z" fill="url(#SVGID_1_)"/>
<path d="M7,0C3.14,0,0,3.141,0,7v3h2V7c0-1.103,0.897-2,2-2h6V0H7z" fill-opacity="0.05"/>
<path d="M7,0C3.14,0,0,3.141,0,7c0-1.654,1.346-3,3-3h7V0H7z" fill-opacity="0.1"/>
<path d="M7,0C3.14,0,0,3.141,0,7c0-2.206,1.794-4,4-4h6V0H7z" fill-opacity="0.1"/>
<path d="M7,0C3.14,0,0,3.141,0,7c0-2.757,2.243-5,5-5h5V0H7z" fill-opacity="0.1"/>
<path d="M7,0C3.14,0,0,3.141,0,7v3h1V7c0-3.309,2.691-6,6-6h3V0H7z" fill-opacity="0.2" stroke-opacity="0.2"/>
<defs>
<linearGradient gradientUnits="userSpaceOnUse" id="SVGID_1_" x1="5" x2="5" y1="82.001" y2="0.3675">
<stop offset="0" style="stop-color:#66B8CC"/>
<stop offset="1" style="stop-color:#3F89A9"/>
</linearGradient>
</defs>
</svg>
