<?xml version="1.0" encoding="UTF-8"?>
<!DOCTYPE svg PUBLIC "-//W3C//DTD SVG 1.1 Tiny//EN" "http://www.w3.org/Graphics/SVG/1.1/DTD/svg11-tiny.dtd">
<svg baseProfile="tiny" height="30px" version="1.1" viewBox="0 0 30 30" width="30px" x="0px" xmlns="http://www.w3.org/2000/svg" xmlns:xlink="http://www.w3.org/1999/xlink" y="0px">
<g fill-opacity="0.5" stroke-opacity="0.5">
<rect fill="none" height="30" width="30"/>
</g>
<path d="M23.662,4.067l0.252-0.388C24.512,2.756,24.1,2,23,2H5  C3.9,2,3.488,2.756,4.086,3.679L12,15.91V29l4-3V15.909L18.529,12H23c2.209,0,4-1.791,4-4C27,6.018,25.555,4.384,23.662,4.067z   M9.264,8l-1.94-3h13.353l-1.94,3H9.264z M23,10h-3.176l2.588-4H23c1.103,0,2,0.897,2,2S24.103,10,23,10z" fill-rule="evenodd"/>
</svg>
