<?xml version="1.0" encoding="UTF-8"?>
<!DOCTYPE svg PUBLIC "-//W3C//DTD SVG 1.1 Tiny//EN" "http://www.w3.org/Graphics/SVG/1.1/DTD/svg11-tiny.dtd">
<svg baseProfile="tiny" height="30px" version="1.1" viewBox="0 0 30 30" width="30px" x="0px" xmlns="http://www.w3.org/2000/svg" xmlns:xlink="http://www.w3.org/1999/xlink" y="0px">
<g fill-opacity="0.5" stroke-opacity="0.5">
<rect fill="none" height="30" width="30"/>
</g>
<path d="M3,8h24c0.732,0,1.409,0.211,2,0.557V7c0-1.105-0.896-2-2-2H13.028c-0.505-0.031-0.757-0.32-0.873-0.535L12,4  c-0.416-1.146-1.125-2-2.459-2H3C1.896,2,1,2.895,1,4v4.557C1.591,8.211,2.268,8,3,8z"/>
<path d="M29,24c0,1.104-0.896,2-2,2H3c-1.104,0-2-0.896-2-2V12c0-1.105,0.896-2,2-2h24c1.104,0,2,0.895,2,2V24z"/>
</svg>
