<?xml version="1.0" encoding="UTF-8"?>
<!DOCTYPE svg PUBLIC "-//W3C//DTD SVG 1.1 Tiny//EN" "http://www.w3.org/Graphics/SVG/1.1/DTD/svg11-tiny.dtd">
<svg baseProfile="tiny" height="30px" version="1.1" viewBox="0 0 30 30" width="30px" x="0px" xmlns="http://www.w3.org/2000/svg" xmlns:xlink="http://www.w3.org/1999/xlink" y="0px">
<g>
<rect fill="none" height="30" width="30"/>
</g>
<path d="M21.632,22.847v-2.501c-0.97-1.055-2.325-1.891-4.233-2.078c-1.035,0-3-0.492-3-2.359V15.48  c0-0.188,0.093-0.365,0.245-0.479C16.652,13.566,18,10.619,18,7.66C18,3.434,15.309,0,12,0S6,3.434,6,7.66  c0,2.959,1.348,5.906,3.352,7.342c0.157,0.113,0.245,0.291,0.245,0.479v0.428c0,1.695-1.636,2.33-2.999,2.359  C0.673,18.85,0.024,25.664,0,26h17.273C17.896,24.338,19.572,23.08,21.632,22.847z"/>
<path d="M29.547,16.167l-5.211-1.153C24.295,15.005,24.252,15,24.211,15c-0.131,0-0.259,0.044-0.363,0.126  c-0.137,0.11-0.216,0.276-0.216,0.451v0.576v2.309v6.552c-0.399-0.132-0.841-0.206-1.303-0.206c-1.839,0-3.329,1.163-3.329,2.596  C19,28.837,20.49,30,22.329,30s3.618-1.163,3.618-2.597c0-0.077,0-5.665,0-7.966l3.348,0.741c0.043,0.009,0.084,0.014,0.126,0.014  c0,0,0.259-0.044,0.362-0.127C29.92,19.956,30,19.791,30,19.615V16.73C30,16.46,29.812,16.227,29.547,16.167z"/>
</svg>
