<?xml version="1.0" encoding="UTF-8"?>
<!DOCTYPE svg PUBLIC "-//W3C//DTD SVG 1.1 Tiny//EN" "http://www.w3.org/Graphics/SVG/1.1/DTD/svg11-tiny.dtd">
<svg baseProfile="tiny" height="30px" version="1.1" viewBox="0 0 30 30" width="30px" x="0px" xmlns="http://www.w3.org/2000/svg" xmlns:xlink="http://www.w3.org/1999/xlink" y="0px">
<rect fill="none" height="30" width="30"/>
<path d="M22.125,7.638v1.314h1.176v1.287c-0.156,0.045-0.365,0.083-0.697,0.083c-1.211,0-1.936-0.821-1.936-2.193  c0-0.672,0.261-2.834,3.19-1.947l0.32,0.164l0.37-1.295c0,0-0.688-0.447-1.833-0.447c-2.073,0-3.55,1.433-3.463,3.563  c0.128,3.151,2.293,3.489,3.301,3.489c1.366,0,2.104-0.447,2.104-0.447V7.638H22.125z"/>
<polygon points="24.722,22.217 5.481,22.22 9.64,28.876 11.683,27.601 9.827,24.629 9.839,24.629 9.839,24.629 24.722,24.629 "/>
<polygon points="20.562,13.005 18.518,14.283 20.368,17.254 5.481,17.256 5.481,19.664 24.719,19.662 "/>
<path d="M13.367,1.285h4.357v1.911h-2.687v1.656c0,0,3.413-0.515,3.208,3.611c0,0,0.106,2.887-2.58,3.154  c-0.775,0.079-2.318-0.175-2.318-0.175l0.02-1.938c0,0,3.28,0.86,3.28-1.241c0-2.244-3.28-1.482-3.28-1.482V1.285z"/>
<rect height="1.482" width="1.482" x="10.745" y="10.079"/>
<path d="M9.341,5.917c0.501-0.521,0.79-1.245,0.79-2.101c0-0.726-0.289-2.691-2.339-2.691c-1.407,0-2.258,1.026-2.258,1.026  L6.06,4.027c0,0,0.785-0.893,1.552-0.893c0.378,0,0.826,0.152,0.826,0.877c0,0.861-0.834,1.048-1.154,1.048H6.392v1.938h0.892  c0.231,0,1.517,0.223,1.397,1.337c-0.229,2.161-2.27,0.958-2.499,0.775L5.789,8.796l-0.51,1.897c0,0,0.761,0.921,2.24,0.921  c1.968,0,2.873-1.688,2.873-3.255C10.393,7.313,9.992,6.427,9.341,5.917z"/>
</svg>
