<?xml version="1.0" encoding="UTF-8"?>
<!DOCTYPE svg PUBLIC "-//W3C//DTD SVG 1.1 Tiny//EN" "http://www.w3.org/Graphics/SVG/1.1/DTD/svg11-tiny.dtd">
<svg baseProfile="tiny" height="60" viewBox="0 0 60 60" width="60" xmlns="http://www.w3.org/2000/svg" xmlns:xlink="http://www.w3.org/1999/xlink">
<g>
<rect fill="none" height="60" width="60"/>
<linearGradient gradientUnits="userSpaceOnUse" id="SVGID_1_" x1="29.998" x2="29.998" y1="57.6797" y2="2.0783">
<stop offset="0" style="stop-color:#2A3662"/>
<stop offset="1" style="stop-color:#546F9F"/>
</linearGradient>
<path d="M57.998,30.001C57.998,45.464,45.461,58,30,58C14.535,58,1.998,45.464,1.998,30.001  C1.998,14.54,14.535,2,30,2C45.461,2,57.998,14.54,57.998,30.001z" fill="url(#SVGID_1_)"/>
<radialGradient cx="26.9434" cy="12.7056" gradientTransform="matrix(0.9953 0 0 0.9952 2.7861 7.6702)" gradientUnits="userSpaceOnUse" id="SVGID_2_" r="33.8669">
<stop offset="0" style="stop-color:#B4DFC6"/>
<stop offset="0.5" style="stop-color:#72B9C3"/>
<stop offset="1" style="stop-color:#546F9F"/>
</radialGradient>
<circle cx="29.999" cy="30.001" fill="url(#SVGID_2_)" r="27.282"/>
<linearGradient gradientUnits="userSpaceOnUse" id="SVGID_3_" x1="29.999" x2="29.999" y1="2.4785" y2="57.4196">
<stop offset="0" style="stop-color:#6DACBC"/>
<stop offset="0.497" style="stop-color:#5778A3"/>
<stop offset="1" style="stop-color:#A6CDC2"/>
</linearGradient>
<path d="M30,2.718c-15.066,0-27.283,12.218-27.283,27.283c0,15.069,12.217,27.28,27.283,27.28  c15.07,0,27.281-12.211,27.281-27.28C57.281,14.937,45.07,2.718,30,2.718z M30,54.894c-14.166,0-25.691-11.524-25.691-25.688  C4.309,15.04,15.834,3.515,30,3.515S55.689,15.04,55.689,29.206C55.689,43.37,44.166,54.894,30,54.894z" fill="url(#SVGID_3_)" fill-opacity="0.3" stroke-opacity="0.3"/>
<linearGradient gradientUnits="userSpaceOnUse" id="SVGID_4_" x1="3.1621" x2="7.498" y1="33.7139" y2="33.7139">
<stop offset="0" style="stop-color:#59595A"/>
<stop offset="1" style="stop-color:#000000"/>
</linearGradient>
<path d="M5.277,29.556C4.988,29.17,4.332,29.17,4.041,29.17c-0.57,0-0.873,0.406-0.879,0.804  v0.028v0.041c0,0.702,0.039,1.489,0.123,2.446c0.018,0.179,0.039,0.36,0.061,0.54l0.033,0.263c0.072,0.566,0.158,1.125,0.256,1.665  l0.043,0.237c0.043,0.213,0.084,0.424,0.129,0.633c0.117,0.53,0.26,1.08,0.434,1.687c0.025,0.087,0.049,0.175,0.07,0.26  c0.039,0.142,0.076,0.283,0.121,0.419l0.004,0.02l0.016,0.043c-0.002-0.011-0.01-0.03-0.012-0.048l1.564-0.106  c0.025-0.243,0.033-0.497,0.025-0.751C6.016,36.956,6,36.467,5.889,36.056l1.455-1.951l0.154-0.213v-0.264v-1.52v-0.331  l-0.232-0.232L5.277,29.556z" fill="url(#SVGID_4_)" fill-opacity="0.3" stroke-opacity="0.3"/>
<linearGradient gradientUnits="userSpaceOnUse" id="SVGID_5_" x1="11.5254" x2="56.9043" y1="25.7695" y2="25.7695">
<stop offset="0" style="stop-color:#59595A"/>
<stop offset="1" style="stop-color:#000000"/>
</linearGradient>
<path d="M56.896,24.654c-0.02-0.103-0.039-0.176-0.057-0.25  c-0.016-0.055-0.027-0.109-0.037-0.162c-0.141-0.646-0.313-1.314-0.514-1.994l-0.023-0.074c-0.041-0.153-0.086-0.306-0.135-0.457  c-0.248-0.767-0.514-1.5-0.797-2.177c-0.035-0.085-0.074-0.163-0.109-0.245l-0.059-0.131c-0.268-0.619-0.568-1.238-0.883-1.833  l-0.041-0.077c-0.061-0.117-0.119-0.236-0.184-0.353c-0.385-0.695-0.789-1.358-1.199-1.974c-0.043-0.065-0.092-0.134-0.141-0.202  c-0.031-0.041-0.059-0.081-0.086-0.121c-0.395-0.571-0.807-1.126-1.236-1.656l-0.084-0.106c-0.059-0.071-0.115-0.146-0.176-0.218  c-0.498-0.596-1.023-1.174-1.566-1.72c-0.072-0.074-0.152-0.15-0.23-0.226l-0.064-0.062c-0.49-0.481-1.01-0.956-1.547-1.402  l-0.104-0.091c-0.055-0.048-0.107-0.096-0.164-0.139c-0.582-0.48-1.215-0.952-1.875-1.405c-0.08-0.055-0.164-0.109-0.248-0.162  l-0.1-0.066c-0.594-0.393-1.213-0.77-1.834-1.114l-0.098-0.055c-0.051-0.029-0.102-0.059-0.152-0.088  c-0.693-0.371-1.414-0.72-2.146-1.035L40.82,4.985l-0.199-0.083c-0.193-0.079-0.387-0.147-0.578-0.215  c-0.102-0.035-0.199-0.069-0.299-0.104l-0.371-0.138l-0.33,0.212c-0.223,0.14-1.098,0.64-1.613,0.934  c-0.574-0.077-1.961-0.251-3.359-0.386c0.432-0.042,1.025-0.09,1.869-0.146l0.117-1.573L35.994,3.47  c-0.051-0.014-0.102-0.025-0.152-0.037L35.723,3.41l-0.098-0.02c-0.857-0.172-1.662-0.297-2.461-0.38L33.16,3.009l-0.109-0.01  c-0.914-0.093-1.844-0.139-2.762-0.139c-0.809,0-1.648,0.042-2.564,0.13c-0.145,0.013-0.281,0.029-0.422,0.043  c-0.906,0.101-1.697,0.221-2.447,0.373L24.83,3.411l-0.018,0.003c-0.789,0.163-1.582,0.367-2.428,0.624  c-0.074,0.022-0.15,0.048-0.227,0.071l-0.17,0.056c-0.713,0.23-1.412,0.485-2.084,0.762c-0.057,0.023-0.094,0.037-0.131,0.051  l-0.102,0.041c-0.738,0.314-1.475,0.668-2.205,1.06c-0.078,0.041-0.156,0.087-0.232,0.13l-0.094,0.055  c-0.205,0.113-0.412,0.242-0.617,0.37L16.258,6.8l-1.461,0.893l1.623,0.542c0.242,0.082,0.504,0.123,0.773,0.123  c0.875,0,1.721-0.43,2.402-0.776c0.273-0.138,0.678-0.344,0.848-0.376c0.199,0.06,0.396,0.089,0.596,0.089  c0.746,0,1.354-0.401,1.893-0.754l0.145-0.094c0.174-0.057,0.473-0.167,1.07-0.391c0.607-0.229,1.717-0.645,2.01-0.715  c0.578-0.006,1.264-0.088,1.752-0.392c0.459,0.075,1.273,0.204,2.115,0.314C29.961,5.301,29.9,5.341,29.85,5.391  c-0.273,0.251-1.742,0.696-2.195,0.755c-0.848,0.106-1.186,0.532-1.322,0.871c-0.176,0.439-0.068,0.878,0.104,1.235  c-0.32,0.212-0.713,0.448-1.049,0.625c0-0.007,0.002-0.015,0.004-0.024c0.121-0.675,0.209-1.163-0.119-1.556  c-0.166-0.2-0.414-0.314-0.676-0.314c-0.387,0-0.688,0.239-0.93,0.473c-0.68,0.656-1.09,1.476-1.246,1.783l-0.027,0.059  l-0.025,0.044c-0.293,0.563-0.414,0.962-0.25,2.207c-0.074,0.051-0.287,0.132-0.582,0.132c-0.041,0-0.076-0.002-0.105-0.005  c-0.191-0.205-0.453-0.322-0.752-0.322l0,0c-0.684,0-1.619,0.771-2.773,2.292l-0.371,0.49l0.377,0.484l0.354,0.449  c-5.51,4.257-5.551,4.5-5.609,4.855c-0.01,0.032-0.057,0.18-0.123,0.383c-0.822,2.552-1.275,4.46-0.834,5.482  c1.025,2.368,2.182,4.579,3.68,4.701c0.133,0.011,0.277,0.017,0.434,0.017c1.373,0,3.6-0.416,4.668-0.635  c0.197,0.371,0.436,0.804,0.568,1.04l0.238,0.421l0.484-0.016c0,0,0.26-0.008,0.584-0.008c0.375,0,0.625,0.011,0.787,0.022  c0.584,1.708,1.699,5.643,1.492,6.459l-0.004,0.004c-1.885,2.821,0.4,6.499,1.494,8.269c0.088,0.14,0.168,0.266,0.232,0.374  c0.424,1.204,0.934,2.002,2.02,2.002c0.078,0,0.16-0.005,0.244-0.009c0.063-0.004,0.125-0.007,0.191-0.007  c0.121,0,0.207,0.014,0.293,0.045l0.1,0.036l0.105,0.01c0.205,0.017,0.4,0.045,0.592,0.071c0.334,0.047,0.68,0.095,1.031,0.095  c0.941,0,1.689-0.357,2.336-1.119c0.021-0.004,0.045-0.005,0.068-0.008c0.678-0.095,0.932-0.433,1.018-0.737  c0.051-0.05,0.117-0.112,0.172-0.164c0.268-0.244,0.584-0.537,0.803-0.88c0.1-0.059,0.213-0.125,0.338-0.2  c0.219-0.134,0.465-0.283,0.658-0.382c0.172-0.052,0.322-0.153,0.436-0.293c0.273-0.335,0.217-0.717,0.172-1.023  c-0.047-0.318-0.092-0.642,0.078-0.99c0.965-0.465,2.68-1.608,2.957-1.796v0.022c-0.02,0.153-0.064,0.563-0.133,0.822  c-0.363,0.366-0.67,0.919-0.766,1.105l-0.063,0.121l-0.02,0.137c-0.023,0.18-0.123,1.11,0.4,1.712  c0.264,0.301,0.641,0.468,1.063,0.468c0.131,0,0.271-0.017,0.416-0.05c1.342-0.304,3.723-3.531,3.916-5.312  c0.096-0.859-0.24-1.534-0.918-1.852l-0.506-0.24l-0.398,0.396l-1.469,1.471c-0.498,0.046-0.887,0.193-1.148,0.425  c0.016-0.627-0.047-1.27-0.113-1.896c-0.201-1.891-0.24-3.097,0.92-3.915l0.059-0.043l0.051-0.051  c0.418-0.426,0.883-0.799,1.373-1.193c1.15-0.924,2.34-1.878,3.047-3.604l0.031-0.074c0.227-0.59,0.568-1.478,0.104-2.158  c-0.115-0.167-0.359-0.426-0.814-0.518c0.604-0.242,1.066-0.435,1.111-0.452l0.141-0.059l0.109-0.104l2.48-2.381l0.363-0.35  l-0.16-0.479c-0.021-0.062-0.158-0.438-0.537-0.977c0.725,0.099,1.344,0.272,1.549,0.427c0.074,0.163,0.221,0.519,0.379,0.892  c2.732,6.435,3.115,6.766,3.824,6.777c0.027,0,0.049,0.002,0.066,0.005c0.057,0.002,0.109,0.006,0.156,0.006  c0.404,0,0.635-0.207,0.736-0.331c0.297-0.357,0.215-0.795,0.184-0.959l-0.012-0.056c-0.033-0.384-0.012-2.113,0.045-3.536  c0.004,0.004,0.006,0.008,0.008,0.013l1.463-0.58L56.896,24.654z M35.391,16.784c-0.113,0.005-0.238,0.012-0.367,0.017  c-0.422,0.018-0.902,0.04-1.377,0.04c-1.25,0-1.533-0.155-1.564-0.171c-0.146-0.107-0.297-0.188-0.457-0.246  c0.285-0.063,0.607-0.279,0.939-0.924c0.33,0.636,0.773,1.198,1.457,1.198c0.184,0,0.363-0.045,0.531-0.131  C34.783,16.568,35.162,16.7,35.391,16.784z M34.9,13.303c-0.094,0-0.172-0.005-0.23-0.009c0.064-0.167,0.141-0.264,0.201-0.319  c0.08,0.122,0.186,0.229,0.305,0.32C35.078,13.301,34.986,13.303,34.9,13.303z M29.932,14.974c0.428,0.837,0.744,1.198,0.994,1.355  c-0.619,0.049-1.086,0.443-1.469,0.817c-0.271-0.09-0.74-0.374-0.879-0.572c-0.084-0.117-0.18-0.217-0.287-0.304  C28.969,16.077,29.564,15.447,29.932,14.974z M27.57,14.355l-0.889-0.043l-2.975-0.146c0.361-0.299,0.707-0.579,0.91-0.745  c0.055-0.02,0.27-0.078,0.793-0.078c0.314,0,0.617,0.021,0.809,0.037L27.57,14.355z" fill="url(#SVGID_5_)" fill-opacity="0.3" stroke-opacity="0.3"/>
<radialGradient cx="27.8105" cy="3.104" gradientTransform="matrix(0.9953 0 0 0.9952 2.7861 7.6702)" gradientUnits="userSpaceOnUse" id="SVGID_6_" r="30.9363">
<stop offset="0" style="stop-color:#71A949"/>
<stop offset="0.3152" style="stop-color:#71A949"/>
<stop offset="0.7273" style="stop-color:#3E7E53"/>
<stop offset="1" style="stop-color:#254F55"/>
</radialGradient>
<path d="M3.957,29.985c0,0,0,0,0,0.002c0,0.01,0.002,0.014,0.002,0.021c0,0.813,0.051,1.615,0.119,2.41  c0.023,0.259,0.063,0.52,0.092,0.781c0.07,0.544,0.15,1.082,0.248,1.615c0.055,0.283,0.107,0.567,0.166,0.845  c0.123,0.553,0.266,1.097,0.422,1.632c0.063,0.222,0.113,0.447,0.184,0.663C5.197,37.978,5.207,38,5.213,38.023  c0.021-0.212,0.027-0.427,0.021-0.648c-0.053-1.568-0.303-1.367-0.303-1.367l1.771-2.381v-1.52L4.625,30.03  C4.625,30.03,3.959,29.926,3.957,29.985z" fill="url(#SVGID_6_)"/>
<radialGradient cx="27.8096" cy="3.1069" gradientTransform="matrix(0.9953 0 0 0.9952 2.7861 7.6702)" gradientUnits="userSpaceOnUse" id="SVGID_7_" r="30.9388">
<stop offset="0" style="stop-color:#71A949"/>
<stop offset="0.3152" style="stop-color:#71A949"/>
<stop offset="0.7273" style="stop-color:#3E7E53"/>
<stop offset="1" style="stop-color:#254F55"/>
</radialGradient>
<path d="M20.631,6.433c0.766,0.252,1.395-0.26,2.109-0.717c0.252-0.051,3.055-1.17,3.357-1.17  c0.301,0,1.32-0.04,1.572-0.444c0,0,4.387,0.763,5.049,0.508c0.359-0.141,1.869-0.26,3.17-0.346  c-0.074-0.016-0.141-0.037-0.213-0.052c-0.07-0.014-0.141-0.026-0.211-0.04c-0.814-0.163-1.637-0.295-2.475-0.378  c-0.006,0-0.012,0-0.02-0.004c-0.881-0.088-1.775-0.135-2.682-0.135c-0.84,0-1.67,0.05-2.492,0.127  c-0.143,0.015-0.287,0.031-0.434,0.046c-0.793,0.086-1.578,0.203-2.35,0.357C25,4.191,24.986,4.192,24.973,4.193  c-0.801,0.166-1.584,0.371-2.355,0.606c-0.133,0.039-0.26,0.085-0.393,0.125c-0.684,0.221-1.357,0.466-2.02,0.737  c-0.076,0.034-0.156,0.063-0.234,0.095c-0.727,0.31-1.438,0.654-2.129,1.024c-0.104,0.056-0.203,0.116-0.307,0.175  c-0.299,0.165-0.576,0.349-0.861,0.525C18.098,7.957,19.877,6.178,20.631,6.433z" fill="url(#SVGID_7_)"/>
<radialGradient cx="27.8066" cy="3.105" gradientTransform="matrix(0.9953 0 0 0.9952 2.7861 7.6702)" gradientUnits="userSpaceOnUse" id="SVGID_8_" r="30.9346">
<stop offset="0" style="stop-color:#B7CC97"/>
<stop offset="0.3152" style="stop-color:#B7CC97"/>
<stop offset="0.7273" style="stop-color:#568E4C"/>
<stop offset="1" style="stop-color:#255541"/>
</radialGradient>
<path d="M56.111,24.787c-0.027-0.133-0.064-0.258-0.09-0.388c-0.141-0.65-0.307-1.292-0.494-1.924  c-0.051-0.171-0.102-0.346-0.154-0.515c-0.23-0.718-0.484-1.426-0.773-2.113c-0.051-0.121-0.109-0.24-0.16-0.358  c-0.266-0.606-0.553-1.201-0.861-1.782c-0.07-0.139-0.143-0.282-0.217-0.417c-0.365-0.657-0.75-1.297-1.166-1.919  c-0.068-0.107-0.15-0.21-0.223-0.316c-0.379-0.553-0.777-1.086-1.195-1.605c-0.086-0.103-0.166-0.209-0.254-0.313  c-0.482-0.578-0.986-1.135-1.518-1.669c-0.09-0.092-0.188-0.183-0.281-0.272c-0.482-0.475-0.984-0.933-1.506-1.369  c-0.09-0.073-0.17-0.151-0.26-0.223c-0.584-0.478-1.195-0.933-1.822-1.362c-0.109-0.075-0.223-0.148-0.334-0.219  c-0.578-0.384-1.174-0.747-1.785-1.085c-0.084-0.045-0.16-0.094-0.244-0.141c-0.68-0.363-1.371-0.696-2.082-1.003  c-0.125-0.053-0.256-0.103-0.379-0.155c-0.277-0.115-0.563-0.206-0.844-0.309c-0.334,0.213-1.881,1.088-1.881,1.088  s-6.717-0.917-7.174-0.462c-0.459,0.462-2.248,0.929-2.656,0.981c-0.406,0.053-1.25,0.27-0.238,1.518  c-0.152,0.155-3.039,2.165-3.039,1.25c0-0.916,0.645-2.552-0.26-1.676c-0.652,0.631-1.039,1.483-1.127,1.643  c-0.211,0.409-0.342,0.604-0.188,1.773c0.154,1.171-1.869,1.164-2.004,0.862c-0.363-0.813-2.363,1.821-2.363,1.821l0.844,1.082  c0,0-5.893,4.539-5.941,4.844c-0.053,0.307-1.523,4.247-1.016,5.418c0.512,1.174,1.797,4.127,3.016,4.226  c1.598,0.131,5.469-0.73,5.469-0.73c0.104,0.257,0.834,1.556,0.834,1.556s1.896-0.063,2.004,0.143  c0.035,0.069,2.287,6.693,1.543,7.571c-1.773,2.656,1.014,6.548,1.789,7.864c0.775,2.262,1.277,1.25,2.297,1.62  c1.258,0.108,2.318,0.573,3.385-0.8c0.309-0.255,0.836-0.054,0.836-0.408c0-0.198,0.912-0.781,1.146-1.33  c0.248-0.114,0.881-0.542,1.313-0.748c0.391-0.025-0.371-1.071,0.402-2.177c0.836-0.33,3.088-1.849,3.088-1.849  c0.104-2.227-1.094-4.979,1.141-6.559c1.445-1.47,3.336-2.306,4.256-4.544c0.252-0.661,0.818-2.014-0.813-1.609  c-1.531,0.386-3.238,0.474-2.432-0.201c-0.092-0.828-1.111-1.218-2.023-2.026c-0.473-1.117-1.215-3.108-1.215-3.108l-1.621-2.463  l0.203-0.508l1.926,2.836l1.926,2.328c0.707,2.33,1.314,2.535,1.314,2.535c1.068-0.377,3.596-1.419,3.596-1.419l2.484-2.381  c0,0-0.256-0.761-1.264-1.722l-0.764-0.455c-0.166,0.467-1.049,0.642-1.049,0.642l-2.145-2.564l0.801-0.162l0.613,1.171l1.473,0.509  c0,0,0.408-0.298,1.166,0.484c0.619-0.051,3.029,0.117,3.594,0.832c0.109,0.142,2.986,7.325,3.555,7.336  c0.248,0.001,0.43,0.099,0.348-0.335c-0.102-0.205,0-4.717,0.154-5.683c0.385-0.821,0.445-0.002,1.357,1.553  C56.121,24.862,56.119,24.824,56.111,24.787z M30.797,7.378c0.201-0.6,1.367-0.804,1.367-0.804s-0.334,0.618-0.258,0.937  c0.08,0.322-0.533,0.524-0.6,1.282c-0.066,0.755-1.459,0.313-1.574,0.047C29.617,8.577,30.592,7.977,30.797,7.378z M35.793,17.571  c-0.865,0-3.455,0.257-4.17-0.253c-0.711-0.508-1.266,0.052-1.781,0.562c-0.334,0.331-1.559-0.339-1.916-0.848  c-0.355-0.509-1.553-0.472-1.553-0.472l0.271-1.452l-3.445-0.167l-1.957,0.574l-1.844,0.052l1.031-0.491l1.287-0.304  c0,0,1.867-1.536,2.43-1.993c0.475-0.388,2.365-0.169,2.365-0.169l2.074,1.497c0,0-0.459,1.174-0.662,1.426  c0.76-0.05,1.658-1.436,1.658-1.436c-1.621-1.488-1.555-1.992-1.555-1.992l2.133,1.498l0.021,0.013c0,0,0.865,2.035,1.225,2.035  c0.352,0,0.809-1.401,0.809-1.401l0.609-0.153c0.27,0.642,0.773,2.094,1.381,1.754c0.35-0.193,0.928-0.017,1.588,0.236  c0.664,0.255,1.115-0.137,1.654,0.337C37.381,18.519,36.15,17.674,35.793,17.571z M37.148,14.068c-0.891-0.339-3.9,0.766-3.229-1.04  c0.359-0.975,1.281-1.179,1.598-0.531c0.082,0.267,1.084,0.679,1.076,0.117c-0.006-0.562,1.01-0.86,1.154-0.441  C37.207,12.563,39.863,14.589,37.148,14.068z M42.816,15.78c-0.492-0.397,0.223-0.738-0.506-1.359  c-1.041-0.895-1.855-1.278-0.436-2.002c1.754-0.221,0.283,0.559,0.576,1.027c0.156,0.247,1.039,1.08,1.73,2.103  C44.756,16.397,43.307,16.175,42.816,15.78z" fill="url(#SVGID_8_)"/>
<radialGradient cx="27.8125" cy="3.1055" gradientTransform="matrix(0.9953 0 0 0.9952 2.7861 7.6702)" gradientUnits="userSpaceOnUse" id="SVGID_9_" r="30.9328">
<stop offset="0" style="stop-color:#71A949"/>
<stop offset="0.3152" style="stop-color:#71A949"/>
<stop offset="0.7273" style="stop-color:#3E7E53"/>
<stop offset="1" style="stop-color:#254F55"/>
</radialGradient>
<path d="M43.523,38.979l-1.689,1.688c0,0-1.016,0-1.064,0.406c-0.023,0.174-0.082,0.927-0.252,1.315  c-0.338,0.235-0.742,1.012-0.742,1.012s-0.211,1.504,0.912,1.249C41.809,44.395,45.256,39.795,43.523,38.979z" fill="url(#SVGID_9_)"/>
<rect fill="none" height="60" width="60"/>
</g>
</svg>
