<?xml version="1.0" encoding="UTF-8"?>
<!DOCTYPE svg PUBLIC "-//W3C//DTD SVG 1.1 Tiny//EN" "http://www.w3.org/Graphics/SVG/1.1/DTD/svg11-tiny.dtd">
<svg baseProfile="tiny" height="30px" version="1.1" viewBox="0 0 30 30" width="30px" x="0px" xmlns="http://www.w3.org/2000/svg" xmlns:xlink="http://www.w3.org/1999/xlink" y="0px">
<path d="M26.425,1.457c-0.301-0.464-0.921-0.598-1.383-0.295c-0.464,0.3-0.596,0.919-0.295,1.383C26.242,4.85,27,7.358,27,10  c0,2.643-0.758,5.15-2.253,7.457c-0.301,0.463-0.169,1.082,0.295,1.383C25.21,18.949,25.398,19,25.585,19  c0.327,0,0.648-0.16,0.84-0.455C28.134,15.91,29,13.035,29,10C29,6.966,28.134,4.092,26.425,1.457z"/>
<path d="M3,10c0-0.881,0.092-1.745,0.26-2.594L1.603,5.748C1.205,7.123,1,8.543,1,10c0,3.035,0.866,5.91,2.575,8.545  C3.767,18.84,4.088,19,4.415,19c0.187,0,0.375-0.051,0.543-0.16c0.464-0.301,0.596-0.92,0.295-1.383C3.758,15.15,3,12.643,3,10z"/>
<path d="M9.194,5.045C9.283,4.871,9.359,4.682,9.458,4.52c0.287-0.472,0.137-1.086-0.335-1.373C8.65,2.859,8.035,3.01,7.749,3.48  C7.734,3.506,7.722,3.533,7.707,3.557L9.194,5.045z"/>
<path d="M8.295,12.441l-2.29-2.289c0.028,2.236,0.674,4.605,1.744,6.367C7.938,16.83,8.267,17,8.604,17  c0.177,0,0.356-0.047,0.519-0.145c0.472-0.287,0.622-0.902,0.335-1.375C8.929,14.61,8.543,13.551,8.295,12.441z"/>
<path d="M20.457,16.307l0.646,0.646C21.199,16.982,21.297,17,21.396,17c0.338,0,0.667-0.17,0.855-0.48  C23.346,14.719,24,12.281,24,10c0-2.28-0.654-4.717-1.749-6.52c-0.286-0.471-0.901-0.621-1.374-0.334  c-0.472,0.287-0.622,0.901-0.335,1.373C21.455,6.021,22,8.07,22,10c0,1.931-0.545,3.979-1.458,5.48  C20.384,15.74,20.369,16.039,20.457,16.307z"/>
<path d="M17.362,13.213C18.351,12.484,19,11.322,19,10c0-2.209-1.791-4-4-4c-1.322,0-2.484,0.648-3.213,1.638L17.362,13.213z"/>
<path d="M20.853,25h-1.146l-0.478-1.625l-6.534-6.534L10.294,25H7c-1.104,0-2,0.896-2,2v2h19.853L20.853,25z"/>
<path d="M27.693,26.372c0.389,0.389,0.41,1.005,0.048,1.368c-0.362,0.362-0.978,0.343-1.366-0.046L2.307,3.625  C1.918,3.236,1.896,2.621,2.26,2.258c0.363-0.362,0.979-0.34,1.367,0.049L27.693,26.372z"/>
<g fill-opacity="0.5" stroke-opacity="0.5">
<rect fill="none" height="30" width="30"/>
</g>
</svg>
