<?xml version="1.0" encoding="UTF-8"?>
<!DOCTYPE svg PUBLIC "-//W3C//DTD SVG 1.1 Tiny//EN" "http://www.w3.org/Graphics/SVG/1.1/DTD/svg11-tiny.dtd">
<svg baseProfile="tiny" height="20px" version="1.1" viewBox="0 0 40 20" width="40px" x="0px" xmlns="http://www.w3.org/2000/svg" xmlns:xlink="http://www.w3.org/1999/xlink" y="0px">
<path d="M40,16c0,2.209-1.791,4-4,4H4c-2.209,0-4-1.791-4-4V4c0-2.209,1.791-4,4-4h32c2.209,0,4,1.791,4,4V16z" fill="#828282"/>
<path d="M12.705,15.41c-0.703,1.078-1.717,1.617-3.041,1.617c-0.973,0-1.729-0.266-2.268-0.795  c-0.539-0.531-0.809-1.273-0.809-2.229c0-0.75,0.168-1.367,0.505-1.85c0.337-0.484,0.875-0.846,1.613-1.086s1.866-0.367,3.384-0.379  V9.688c0-0.58-0.16-1.017-0.479-1.31s-0.795-0.439-1.428-0.439c-0.732,0-1.632,0.167-2.698,0.501V6.911  c1.113-0.299,2.2-0.448,3.261-0.448c1.219,0,2.147,0.28,2.786,0.84s0.958,1.384,0.958,2.474v7.111h-1.389L12.705,15.41z   M12.09,11.973h-0.844c-0.768,0-1.343,0.168-1.727,0.502s-0.576,0.832-0.576,1.494c0,0.527,0.114,0.922,0.343,1.186  s0.571,0.396,1.028,0.396c0.574,0,1.014-0.184,1.318-0.549c0.305-0.367,0.457-0.885,0.457-1.553V11.973z" fill="#FFFFFF"/>
<path d="M19.227,7.491c0.65-0.686,1.494-1.028,2.531-1.028c1.166,0,2.041,0.424,2.623,1.271  c0.584,0.847,0.875,2.116,0.875,3.81c0,1.717-0.41,3.055-1.23,4.012c-0.82,0.959-1.982,1.438-3.488,1.438  c-1.278,0-2.509-0.076-3.692-0.229V2.973h2.382V7.491z M19.227,11.631v3.832c0.311,0.047,0.729,0.07,1.258,0.07  c0.785,0,1.367-0.305,1.748-0.914s0.572-1.646,0.572-3.111c0-1.189-0.146-2.082-0.439-2.676s-0.73-0.893-1.311-0.893  c-0.592,0-1.045,0.234-1.358,0.703C19.383,9.111,19.227,10.107,19.227,11.631z" fill="#FFFFFF"/>
<path d="M31.197,17.027c-1.465,0-2.563-0.449-3.295-1.35c-0.732-0.898-1.1-2.248-1.1-4.047  c0-1.67,0.396-2.949,1.188-3.836s1.947-1.332,3.471-1.332c0.604,0,1.223,0.073,1.855,0.22v1.459c-0.445-0.146-1.002-0.22-1.67-0.22  c-0.791,0-1.385,0.311-1.781,0.932c-0.395,0.621-0.592,1.553-0.592,2.795c0,1.307,0.197,2.287,0.592,2.939  c0.396,0.654,0.99,0.98,1.781,0.98c0.703,0,1.291-0.064,1.766-0.193v1.389C32.75,16.939,32.012,17.027,31.197,17.027z" fill="#FFFFFF"/>
</svg>
