<?xml version="1.0" encoding="UTF-8"?>
<!DOCTYPE svg PUBLIC "-//W3C//DTD SVG 1.1 Tiny//EN" "http://www.w3.org/Graphics/SVG/1.1/DTD/svg11-tiny.dtd">
<svg baseProfile="tiny" height="30" viewBox="0 0 30 30" width="30" xmlns="http://www.w3.org/2000/svg" xmlns:xlink="http://www.w3.org/1999/xlink">
<g>
<rect fill="none" height="30" width="30"/>
<path d="M6,1C4.346,1,3,2.346,3,4v22c0,1.654,1.346,3,3,3h21V1H6z" fill-opacity="0.6"/>
<linearGradient gradientTransform="matrix(1 0 0 -1 -854.9609 -1148.0391)" gradientUnits="userSpaceOnUse" id="SVGID_1_" x1="871.96" x2="871.96" y1="-1150.0391" y2="-1176.0391">
<stop offset="0" style="stop-color:#6DADC1"/>
<stop offset="1" style="stop-color:#3B518A"/>
</linearGradient>
<rect fill="url(#SVGID_1_)" height="26" width="18" x="8" y="2"/>
<rect fill="#FFFFFF" fill-opacity="0.4" height="1" stroke-opacity="0.4" width="18" x="8" y="2"/>
<linearGradient gradientTransform="matrix(1 0 0 -1 -854.9609 -1148.0391)" gradientUnits="userSpaceOnUse" id="SVGID_2_" x1="860.96" x2="860.96" y1="-1150.0391" y2="-1176.0391">
<stop offset="0" style="stop-color:#FFFFFF"/>
<stop offset="1" style="stop-color:#A5A5A5"/>
</linearGradient>
<path d="M8,2H6C4.9,2,4,2.9,4,4v22c0,1.1,0.9,2,2,2h2V2z" fill="url(#SVGID_2_)"/>
<path d="M10.822,12.006h5.534V8.873h1.234v3.133h5.59v6.551h-1.179v-0.773H17.59v5.346h-1.234v-5.346H12v0.773  h-1.178V12.006z M12,16.718h4.354v-3.649H12V16.718z M22.001,13.068H17.59v3.649h4.411V13.068z" fill-opacity="0.2"/>
<g>
<path d="M10.822,11.006h5.534V7.873h1.234v3.133h5.59v6.551h-1.179v-0.773H17.59v5.346h-1.234v-5.346H12v0.773   h-1.178V11.006z M12,15.718h4.354v-3.649H12V15.718z M22.001,12.068H17.59v3.649h4.411V12.068z" fill="#FFFFFF"/>
</g>
</g>
</svg>
