<?xml version="1.0" encoding="UTF-8"?>
<!DOCTYPE svg PUBLIC "-//W3C//DTD SVG 1.1 Tiny//EN" "http://www.w3.org/Graphics/SVG/1.1/DTD/svg11-tiny.dtd">
<svg baseProfile="tiny" height="60" viewBox="0 0 60 60" width="60" xmlns="http://www.w3.org/2000/svg" xmlns:xlink="http://www.w3.org/1999/xlink">
<g>
<rect fill="none" height="60" width="60"/>
<linearGradient gradientUnits="userSpaceOnUse" id="SVGID_1_" x1="30" x2="30" y1="2.3896" y2="57.7417">
<stop offset="0" style="stop-color:#BFC2C1"/>
<stop offset="1" style="stop-color:#47494B"/>
</linearGradient>
<path d="M29.999,58C14.56,58,2,45.44,2,30C2,14.562,14.56,2,29.999,2C45.44,2,58,14.562,58,30  C58,45.44,45.44,58,29.999,58L29.999,58z" fill="url(#SVGID_1_)"/>
<linearGradient gradientUnits="userSpaceOnUse" id="SVGID_2_" x1="29.999" x2="29.999" y1="3.1675" y2="57.1007">
<stop offset="0" style="stop-color:#D3D7D5"/>
<stop offset="0.2364" style="stop-color:#BFC2C1"/>
<stop offset="1" style="stop-color:#6C6F70"/>
</linearGradient>
<circle cx="29.999" cy="30" fill="url(#SVGID_2_)" r="27.222"/>
<path d="M30.948,30.95c9.117,0,17.921-0.57,26.256-1.616C56.849,14.609,44.81,2.778,29.999,2.778  C15.274,2.778,3.286,14.472,2.8,29.08C11.691,30.286,21.138,30.95,30.948,30.95z" fill="#F1F2F2" fill-opacity="0.35" stroke-opacity="0.35"/>
<linearGradient gradientUnits="userSpaceOnUse" id="SVGID_3_" x1="3.0361" x2="57.3516" y1="16.5835" y2="16.5835">
<stop offset="0" style="stop-color:#C2C5C4"/>
<stop offset="0.2" style="stop-color:#F9FDFA"/>
<stop offset="0.8" style="stop-color:#F9FDFA"/>
<stop offset="1" style="stop-color:#CFD3D1"/>
</linearGradient>
<path d="M29.999,3.556c14.902,0,27.004,11.979,27.212,26.833c0.003-0.129,0.01-0.258,0.01-0.389  c0-15.034-12.188-27.222-27.222-27.222C14.964,2.778,2.776,14.966,2.776,30c0,0.131,0.009,0.26,0.01,0.389  C2.996,15.536,15.097,3.556,29.999,3.556z" fill="url(#SVGID_3_)"/>
<linearGradient gradientUnits="userSpaceOnUse" id="SVGID_4_" x1="29.999" x2="29.999" y1="54.4995" y2="5.9818">
<stop offset="0" style="stop-color:#BFC2C1"/>
<stop offset="1" style="stop-color:#47494B"/>
</linearGradient>
<path d="M29.999,54.111C16.704,54.111,5.888,43.295,5.888,30S16.704,5.89,29.999,5.89  S54.109,16.705,54.109,30S43.294,54.111,29.999,54.111L29.999,54.111z" fill="url(#SVGID_4_)"/>
<linearGradient gradientUnits="userSpaceOnUse" id="SVGID_5_" x1="30" x2="30" y1="52.6606" y2="6.0737">
<stop offset="0" style="stop-color:#FAF9F9"/>
<stop offset="0.4" style="stop-color:#FAF9F9"/>
<stop offset="1" style="stop-color:#818283"/>
</linearGradient>
<path d="M29.999,53.333C17.133,53.333,6.667,42.867,6.667,30c0-12.865,10.466-23.333,23.332-23.333  c12.865,0,23.334,10.468,23.334,23.333C53.333,42.867,42.864,53.333,29.999,53.333L29.999,53.333z" fill="url(#SVGID_5_)"/>
<path d="M29.999,31.667c7.696,0,15.042-0.647,21.777-1.814c-0.084-11.94-9.816-21.63-21.777-21.63  c-11.959,0-21.694,9.69-21.773,21.63C14.959,31.02,22.304,31.667,29.999,31.667z" fill="#FFFFFF" fill-opacity="0.7" stroke-opacity="0.7"/>
<rect fill="#404041" height="4.667" width="1.556" x="29.221" y="8.795"/>
<rect fill="#404041" height="4.667" width="1.556" x="29.221" y="47.684"/>
<rect fill="#404041" height="1.556" width="4.667" x="47.11" y="29.795"/>
<rect fill="#404041" height="1.556" width="4.666" x="8.223" y="29.795"/>
<rect fill="#404041" height="3.764" transform="matrix(0.4993 0.8664 -0.8664 0.4993 41.5175 -30.1421)" width="1.256" x="46.211" y="18.97"/>
<rect fill="#404041" height="3.765" transform="matrix(0.4997 0.8662 -0.8662 0.4997 41.4868 8.7601)" width="1.257" x="12.531" y="38.413"/>
<rect fill="#404041" height="3.766" transform="matrix(0.8662 0.4997 -0.4997 0.8662 12.1761 -18.0101)" width="1.255" x="39.095" y="11.851"/>
<rect fill="#404041" height="3.765" transform="matrix(0.8661 0.4999 -0.4999 0.8661 26.4169 -3.7873)" width="1.256" x="19.649" y="45.529"/>
<rect fill="#404041" height="3.766" transform="matrix(0.8666 -0.499 0.499 0.8666 -4.1483 11.9502)" width="1.256" x="19.65" y="11.851"/>
<rect fill="#404041" height="3.766" transform="matrix(0.8661 -0.4999 0.4999 0.8661 -18.3816 26.2067)" width="1.256" x="39.095" y="45.529"/>
<rect fill="#404041" height="3.767" transform="matrix(0.4993 -0.8664 0.8664 0.4993 -11.4765 21.8413)" width="1.256" x="12.532" y="18.967"/>
<rect fill="#404041" height="3.765" transform="matrix(0.4992 -0.8665 0.8665 0.4992 -11.4567 60.7682)" width="1.256" x="46.211" y="38.412"/>
<path d="M31.904,31.103c-0.075-0.374-0.265-0.705-0.521-0.966l2.68-8.833l-2.232-0.678l-2.783,9.17  c-0.484,0.274-0.84,0.745-0.953,1.307h-5.096v0.777h5.096c0.021,0.103,0.052,0.203,0.088,0.298L16.18,44.181l1.011,1.011  l11.957-11.959c0.257,0.126,0.545,0.204,0.853,0.204c0.94,0,1.725-0.667,1.904-1.556h18.317v-0.777H31.904z" fill="#222021" fill-opacity="0.2" stroke-opacity="0.2"/>
<linearGradient gradientTransform="matrix(0.9569 0.2903 -0.2903 0.9569 665.0903 147.1071)" gradientUnits="userSpaceOnUse" id="SVGID_6_" x1="-641.8813" x2="-641.8813" y1="61.4336" y2="73.4297">
<stop offset="0" style="stop-color:#59595A"/>
<stop offset="1" style="stop-color:#222021"/>
</linearGradient>
<polygon fill="url(#SVGID_6_)" points="34.063,20.202 31.831,19.525 28.442,30.688 30.677,31.366 "/>
<linearGradient gradientUnits="userSpaceOnUse" id="SVGID_7_" x1="16.7598" x2="30.4403" y1="43.5093" y2="29.8287">
<stop offset="0" style="stop-color:#59595A"/>
<stop offset="1" style="stop-color:#222021"/>
</linearGradient>
<polygon fill="url(#SVGID_7_)" points="30.958,30.321 29.948,29.311 16.18,43.078 17.19,44.088 "/>
<linearGradient gradientUnits="userSpaceOnUse" id="SVGID_8_" x1="36.6104" x2="36.6104" y1="29.8896" y2="31.0254">
<stop offset="0" style="stop-color:#B34D4D"/>
<stop offset="1" style="stop-color:#763242"/>
</linearGradient>
<path d="M50.222,30H31.904c-0.18-0.887-0.964-1.556-1.904-1.556c-0.942,0-1.726,0.669-1.905,1.556h-5.096  v0.778h5.096c0.18,0.889,0.963,1.556,1.905,1.556c0.94,0,1.725-0.667,1.904-1.556h18.317V30z" fill="url(#SVGID_8_)"/>
<linearGradient gradientUnits="userSpaceOnUse" id="SVGID_9_" x1="29.999" x2="29.999" y1="29.1577" y2="31.5575">
<stop offset="0" style="stop-color:#F4EDE4"/>
<stop offset="1" style="stop-color:#BC7A73"/>
</linearGradient>
<circle cx="30" cy="30.389" fill="url(#SVGID_9_)" r="1.167"/>
<rect fill="none" height="60" width="60"/>
</g>
<g transform="matrix(1 0 0 1 30 30)">
<polygon fill="none" points="30.414,14.408 30.414,0 0.414,0 0.414,14.41 0,14.824 0.414,15.237 0.414,30 30.414,30 30.414,15.236   30.828,14.821 "/>
<path d="M2.749,29.823V17.57L0,14.824l0.706-0.707C1.213,13.608,13.143,1.649,13.861,0.962  c0.387-0.368,0.914-0.786,1.589-0.786c0.687,0,1.172,0.42,1.518,0.785c0.457,0.484,8.802,8.816,13.151,13.154l0.708,0.706  l-2.747,2.749v12.253H2.749z" fill-opacity="0.35" stroke-opacity="0.35"/>
<linearGradient gradientUnits="userSpaceOnUse" id="SVGID_1__" x1="15.415" x2="15.415" y1="28.6694" y2="12.5688">
<stop offset="0" style="stop-color:#FFFFFF"/>
<stop offset="0.6606" style="stop-color:#E1E1E1"/>
<stop offset="1" style="stop-color:#BABCBB"/>
</linearGradient>
<polygon fill="url(#SVGID_1__)" points="27.081,28.823 3.749,28.823 3.749,14.473 15.414,5.489 27.081,14.473 "/>
<linearGradient gradientUnits="userSpaceOnUse" id="SVGID_2__" x1="15.415" x2="15.415" y1="17.313" y2="28.6013">
<stop offset="0" style="stop-color:#FFFFFF"/>
<stop offset="0.6606" style="stop-color:#E1E1E1"/>
<stop offset="1" style="stop-color:#BABCBB"/>
</linearGradient>
<path d="M15.414,6.668l10.736,8.264V27.89H4.682V14.932L15.414,6.668 M15.414,5.489L3.749,14.473v14.351  h23.333V14.473L15.414,5.489L15.414,5.489z" fill="url(#SVGID_2__)"/>
<polygon fill-opacity="0.2" points="27.081,18.033 27.081,14.473 15.414,5.489 3.749,14.473 3.749,18.322 15.414,8.99 " stroke-opacity="0.2"/>
<polygon fill="#727272" points="27.081,18.033 27.081,14.473 15.414,5.489 3.749,14.473 3.749,18.322 15.414,6.655 "/>
<linearGradient gradientUnits="userSpaceOnUse" id="SVGID_3__" x1="15.416" x2="15.416" y1="17.9946" y2="29.1519">
<stop offset="0" style="stop-color:#92603E"/>
<stop offset="1" style="stop-color:#713631"/>
</linearGradient>
<rect fill="url(#SVGID_3__)" height="10.501" width="7.001" x="11.916" y="18.322"/>
<linearGradient gradientUnits="userSpaceOnUse" id="SVGID_4__" x1="15.416" x2="15.416" y1="28.7466" y2="18.3602">
<stop offset="0" style="stop-color:#92603E"/>
<stop offset="1" style="stop-color:#713631"/>
</linearGradient>
<path d="M17.98,19.257v8.633h-5.133v-8.633H17.98 M18.917,18.322h-7.001v10.501h7.001V18.322L18.917,18.322z" fill="url(#SVGID_4__)"/>
<linearGradient gradientUnits="userSpaceOnUse" id="SVGID_5__" x1="15.4136" x2="15.4136" y1="0.0352" y2="17.7271">
<stop offset="0" style="stop-color:#A8835F"/>
<stop offset="0.2606" style="stop-color:#A86F5F"/>
<stop offset="1" style="stop-color:#9A5047"/>
</linearGradient>
<path d="M15.414,5.489l11.667,11.667l2.333-2.333c0,0-12.586-12.554-13.171-13.175  c-0.587-0.62-0.965-0.652-1.689,0.035c-0.719,0.688-13.14,13.14-13.14,13.14l2.335,2.333L15.414,5.489z" fill="url(#SVGID_5__)"/>
<radialGradient cx="15.2969" cy="1.7559" gradientUnits="userSpaceOnUse" id="SVGID_6__" r="18.6679">
<stop offset="0" style="stop-color:#D4C9A4"/>
<stop offset="1" style="stop-color:#AF6151"/>
</radialGradient>
<path d="M14.553,2.616c0.724-0.688,1.102-0.653,1.689-0.034c0.516,0.549,10.433,10.442,12.705,12.709  l0.467-0.468c0,0-12.586-12.554-13.171-13.175c-0.587-0.62-0.965-0.652-1.689,0.035c-0.719,0.688-13.14,13.14-13.14,13.14  l0.467,0.465C4.134,13.029,13.917,3.225,14.553,2.616z" fill="url(#SVGID_6__)"/>
<rect fill-opacity="0.2" height="1.168" stroke-opacity="0.2" width="7.001" x="11.916" y="18.322"/>
<rect fill="none" height="30" width="30" x="0.414"/>
</g>
</svg>
