<?xml version="1.0" encoding="UTF-8"?>
<!DOCTYPE svg PUBLIC "-//W3C//DTD SVG 1.1 Tiny//EN" "http://www.w3.org/Graphics/SVG/1.1/DTD/svg11-tiny.dtd">
<svg baseProfile="tiny" height="30px" version="1.1" viewBox="0 0 30 30" width="30px" x="0px" xmlns="http://www.w3.org/2000/svg" xmlns:xlink="http://www.w3.org/1999/xlink" y="0px">
<path d="M28,5H2C0.896,5,0,5.896,0,7v16c0,1.104,0.896,2,2,2h26c1.104,0,2-0.896,2-2V7C30,5.896,29.104,5,28,5z M18,8h3v3h-3V8z   M13,8h3v3h-3V8z M13,12.999h3v3h-3V12.999z M8,8h3v3H8V8z M8,12.999h3v3H8V12.999z M6,21H3v-3h3V21z M6,15.999H3v-3h3V15.999z   M6,11H3V8h3V11z M21,21H8v-3h13V21z M26,21h-3v-3h3V21z M26,15.999h-8v-3h5V8h3V15.999z"/>
<g fill-opacity="0.5" stroke-opacity="0.5">
<rect fill="none" height="30" width="30"/>
</g>
</svg>
