<?xml version="1.0" encoding="UTF-8"?>
<!DOCTYPE svg PUBLIC "-//W3C//DTD SVG 1.1 Tiny//EN" "http://www.w3.org/Graphics/SVG/1.1/DTD/svg11-tiny.dtd">
<svg baseProfile="tiny" height="30px" version="1.1" viewBox="0 0 30 30" width="30px" x="0px" xmlns="http://www.w3.org/2000/svg" xmlns:xlink="http://www.w3.org/1999/xlink" y="0px">
<g>
<rect fill="none" height="30" width="30"/>
</g>
<path d="M0,19.083c0.012-0.181,0.336-3.851,3.299-4.164c0.681-0.015,1.499-0.357,1.499-1.27v-0.23c0-0.101-0.045-0.196-0.122-0.258  C3.674,12.389,3,11.094,3,9.5c0-2.275,1.345-3.417,3-3.417c1.653,0,3,1.142,3,3.417c0,1.594-0.675,2.889-1.679,3.661  c-0.075,0.062-0.122,0.157-0.122,0.258v0.23c0,1.005,0.981,1.27,1.5,1.27c2.965,0.313,3.286,3.983,3.301,4.164H0z"/>
<path d="M12.841,13.083l-1.519-1.519c-0.566-0.566-0.879-1.32-0.879-2.121s0.313-1.555,0.879-2.121  c0.462-0.462,1.051-0.744,1.686-0.836C13.621,5.721,14,4.694,14,3.5c0-2.275-1.347-3.417-3-3.417c-1.655,0-3,1.142-3,3.417  c0,1.594,0.674,2.889,1.676,3.661c0.077,0.062,0.122,0.157,0.122,0.258v0.23c0,0.093-0.014,0.175-0.029,0.256  C9.908,8.378,10,8.899,10,9.5c0,1.365-0.431,2.614-1.198,3.583H12.841z"/>
<path d="M23.531,15.289C24.439,13.98,25,12.238,25,10.481C25,6.905,22.757,4,20,4c-1.889,0-3.535,1.363-4.386,3.371L23.531,15.289z"/>
<path d="M17.872,18.114c-0.349,0.942-1.434,1.322-2.374,1.343C10.561,19.949,10.02,25.716,10,26h15.758L17.872,18.114z"/>
<path d="M29.707,24.293c0.391,0.391,0.391,1.023,0,1.414l0,0c-0.391,0.391-1.023,0.391-1.414,0L12.736,10.15  c-0.391-0.391-0.391-1.023,0-1.414l0,0c0.391-0.391,1.024-0.391,1.415,0L29.707,24.293z"/>
</svg>
