<?xml version="1.0" encoding="UTF-8"?>
<!DOCTYPE svg PUBLIC "-//W3C//DTD SVG 1.1 Tiny//EN" "http://www.w3.org/Graphics/SVG/1.1/DTD/svg11-tiny.dtd">
<svg baseProfile="tiny" height="20px" version="1.1" viewBox="0 0 40 20" width="40px" x="0px" xmlns="http://www.w3.org/2000/svg" xmlns:xlink="http://www.w3.org/1999/xlink" y="0px">
<path d="M40,16c0,2.209-1.791,4-4,4H4c-2.209,0-4-1.791-4-4V4c0-2.209,1.791-4,4-4h32c2.209,0,4,1.791,4,4V16z" fill="#828282"/>
<path d="M14.041,15.48v1.406H6.28V15.48h2.76V5.671L6.28,6.304V4.898l3.876-1.222h1.274V15.48H14.041z" fill="#FFFFFF"/>
<path d="M23.832,15.357v1.529h-7.84v-0.959c0-0.914,0.158-1.725,0.475-2.434s0.706-1.314,1.169-1.815  s1.049-1.05,1.758-1.648c0.851-0.715,1.386-1.269,1.608-1.661s0.334-0.782,0.334-1.169c0-0.68-0.18-1.191-0.541-1.534  c-0.359-0.343-0.9-0.514-1.621-0.514c-0.762,0-1.685,0.196-2.769,0.589h-0.018V4.177c1.137-0.357,2.244-0.536,3.322-0.536  c1.331,0,2.341,0.292,3.032,0.875s1.037,1.443,1.037,2.58c0,0.639-0.154,1.267-0.465,1.885s-1.043,1.411-2.197,2.377  c-0.645,0.545-1.149,1-1.513,1.363s-0.669,0.763-0.918,1.199s-0.385,0.916-0.409,1.438H23.832z" fill="#FFFFFF"/>
<path d="M27.225,9.222c1.723,0,2.799-0.176,3.227-0.527s0.641-0.891,0.641-1.617c0-0.639-0.172-1.119-0.514-1.441  c-0.344-0.322-0.854-0.483-1.533-0.483c-0.598,0-1.439,0.149-2.523,0.448h-0.018V4.054c1.102-0.275,2.098-0.413,2.988-0.413  c1.342,0,2.35,0.27,3.023,0.809s1.012,1.348,1.012,2.426c0,0.744-0.203,1.384-0.607,1.92s-0.984,0.916-1.74,1.138  c0.82,0.146,1.449,0.491,1.885,1.033c0.438,0.542,0.656,1.221,0.656,2.035c0,1.342-0.393,2.348-1.174,3.019  c-0.783,0.671-1.955,1.007-3.52,1.007c-0.938,0-1.898-0.139-2.883-0.414v-1.529h0.018c1.148,0.287,2.053,0.432,2.715,0.432  c0.797,0,1.396-0.201,1.797-0.603c0.402-0.401,0.604-1.003,0.604-1.806c0-0.861-0.24-1.48-0.721-1.855  c-0.48-0.375-1.592-0.562-3.332-0.562V9.222z" fill="#FFFFFF"/>
</svg>
