<?xml version="1.0" encoding="UTF-8"?>
<!DOCTYPE svg PUBLIC "-//W3C//DTD SVG 1.1 Tiny//EN" "http://www.w3.org/Graphics/SVG/1.1/DTD/svg11-tiny.dtd">
<svg baseProfile="tiny" height="60" viewBox="0 0 60 60" width="60" xmlns="http://www.w3.org/2000/svg" xmlns:xlink="http://www.w3.org/1999/xlink">
<g>
<rect fill="none" height="60" width="60"/>
<linearGradient gradientUnits="userSpaceOnUse" id="SVGID_1_" x1="30" x2="30" y1="2.001" y2="57.8555">
<stop offset="0" style="stop-color:#D3D7D5"/>
<stop offset="0.0667" style="stop-color:#D3D7D5"/>
<stop offset="0.2606" style="stop-color:#BFC2C1"/>
<stop offset="0.6606" style="stop-color:#989D9D"/>
<stop offset="0.9636" style="stop-color:#AFB3B2"/>
<stop offset="1" style="stop-color:#5B5B5D"/>
</linearGradient>
<path d="M48.027,54.932c0,1.693-1.375,3.069-3.068,3.069h-29.92c-1.693,0-3.066-1.376-3.066-3.069V5.07  c0-1.696,1.373-3.069,3.066-3.069h29.92c1.693,0,3.068,1.373,3.068,3.069V54.932z" fill="url(#SVGID_1_)"/>
<linearGradient gradientUnits="userSpaceOnUse" id="SVGID_2_" x1="30" x2="30" y1="2.001" y2="56.899">
<stop offset="0" style="stop-color:#E7EAE8"/>
<stop offset="0.0667" style="stop-color:#E7EAE8"/>
<stop offset="0.2606" style="stop-color:#D8DCDA"/>
<stop offset="0.6606" style="stop-color:#B7BDBB"/>
<stop offset="1" style="stop-color:#AFB3B2"/>
</linearGradient>
<path d="M44.959,2.001h-29.92c-1.693,0-3.066,1.373-3.066,3.069v49.861c0,0.82,0.324,1.56,0.848,2.11  c-0.047-0.187-0.08-0.377-0.08-0.575v-1.535V6.602V5.07c0-1.271,1.031-2.304,2.299-2.304h29.92c1.268,0,2.301,1.033,2.301,2.304  v1.531v48.33v1.535c0,0.198-0.033,0.389-0.08,0.575c0.521-0.551,0.848-1.29,0.848-2.11V5.07C48.027,3.374,46.652,2.001,44.959,2.001  z" fill="url(#SVGID_2_)"/>
<linearGradient gradientUnits="userSpaceOnUse" id="SVGID_3_" x1="30" x2="30" y1="5.8916" y2="43.4283">
<stop offset="0" style="stop-color:#B8BBBA"/>
<stop offset="1" style="stop-color:#F4FBF6"/>
</linearGradient>
<rect fill="url(#SVGID_3_)" fill-opacity="0.6" height="37.589" stroke-opacity="0.6" width="31.453" x="14.273" y="5.836"/>
<linearGradient gradientUnits="userSpaceOnUse" id="SVGID_4_" x1="29.999" x2="29.999" y1="6.6548" y2="42.6624">
<stop offset="0" style="stop-color:#6E6E6E"/>
<stop offset="1" style="stop-color:#333333"/>
</linearGradient>
<rect fill="url(#SVGID_4_)" height="36.058" width="29.92" x="15.039" y="6.602"/>
<linearGradient gradientUnits="userSpaceOnUse" id="SVGID_5_" x1="30" x2="30" y1="7.4214" y2="41.894">
<stop offset="0" style="stop-color:#70B4B6"/>
<stop offset="0.3879" style="stop-color:#5F8BA1"/>
<stop offset="0.8909" style="stop-color:#455188"/>
<stop offset="1" style="stop-color:#455188"/>
</linearGradient>
<rect fill="url(#SVGID_5_)" height="34.521" width="28.383" x="15.809" y="7.37"/>
<linearGradient gradientUnits="userSpaceOnUse" id="SVGID_6_" x1="30" x2="30" y1="7.9712" y2="21.69">
<stop offset="0" style="stop-color:#AADAC6"/>
<stop offset="1" style="stop-color:#6A99AA"/>
</linearGradient>
<polygon fill="url(#SVGID_6_)" points="44.191,19.644 15.809,22.712 15.809,8.137 44.191,8.137 "/>
<rect fill="#BCE2D2" height="0.767" width="28.383" x="15.809" y="7.37"/>
<linearGradient gradientUnits="userSpaceOnUse" id="SVGID_7_" x1="30.2236" x2="30.2236" y1="5.8726" y2="2.8032">
<stop offset="0" style="stop-color:#FFFFFF"/>
<stop offset="1" style="stop-color:#D3D7D5"/>
</linearGradient>
<path d="M26.832,5.836c-0.861,0-1.535-0.563-1.535-1.279v-0.51c0-0.718,0.674-1.28,1.535-1.28h6.785  c0.859,0,1.533,0.563,1.533,1.28v0.51c0,0.716-0.674,1.279-1.533,1.279H26.832z" fill="url(#SVGID_7_)"/>
<linearGradient gradientUnits="userSpaceOnUse" id="SVGID_8_" x1="30.2236" x2="30.2236" y1="3.2158" y2="5.1992">
<stop offset="0" style="stop-color:#6F7172"/>
<stop offset="1" style="stop-color:#BFC2C1"/>
</linearGradient>
<path d="M34.383,4.557c0,0.283-0.342,0.514-0.766,0.514h-6.785c-0.424,0-0.768-0.23-0.768-0.514v-0.51  c0-0.283,0.344-0.512,0.768-0.512h6.785c0.424,0,0.766,0.229,0.766,0.512V4.557z" fill="url(#SVGID_8_)"/>
<linearGradient gradientUnits="userSpaceOnUse" id="SVGID_9_" x1="29.8818" x2="29.8818" y1="44.2236" y2="55.628">
<stop offset="0" style="stop-color:#B8BBBA"/>
<stop offset="1" style="stop-color:#FFFFFF"/>
</linearGradient>
<path d="M27.109,55.7c-1.645,0-2.98-1.323-2.98-2.951v-5.606c0-1.627,1.336-2.951,2.98-2.951  h5.545c1.645,0,2.98,1.324,2.98,2.951v5.606c0,1.628-1.336,2.951-2.98,2.951H27.109z" fill="url(#SVGID_9_)" fill-opacity="0.6" stroke-opacity="0.6"/>
<path d="M27.105,54.932c-1.219,0-2.211-0.979-2.211-2.183v-5.606c0-1.204,0.992-2.183,2.211-2.183  h5.553c1.219,0,2.209,0.979,2.209,2.183v5.606c0,1.204-0.99,2.183-2.209,2.183H27.105z" fill="#020202" fill-opacity="0.5" stroke-opacity="0.5"/>
<linearGradient gradientUnits="userSpaceOnUse" id="SVGID_10_" x1="29.8818" x2="29.8818" y1="45.6865" y2="54.1806">
<stop offset="0" style="stop-color:#A8A9AA"/>
<stop offset="0.703" style="stop-color:#59595A"/>
<stop offset="1" style="stop-color:#818283"/>
</linearGradient>
<path d="M34.102,52.749c0,0.783-0.645,1.417-1.438,1.417h-5.566c-0.793,0-1.436-0.634-1.436-1.417v-5.606  c0-0.783,0.643-1.417,1.436-1.417h5.566c0.793,0,1.438,0.634,1.438,1.417V52.749z" fill="url(#SVGID_10_)"/>
<path d="M28.73,52.632c-0.846,0-1.533-0.688-1.533-1.534v-2.303c0-0.847,0.688-1.534,1.533-1.534  h2.303c0.846,0,1.533,0.688,1.533,1.534v2.303c0,0.847-0.688,1.534-1.533,1.534H28.73z" fill="#020202" fill-opacity="0.2" stroke-opacity="0.2"/>
<linearGradient gradientUnits="userSpaceOnUse" id="SVGID_11_" x1="29.8809" x2="29.8809" y1="48.0103" y2="51.8696">
<stop offset="0" style="stop-color:#D3D7D5"/>
<stop offset="0.0667" style="stop-color:#D3D7D5"/>
<stop offset="0.2606" style="stop-color:#BFC2C1"/>
<stop offset="0.6606" style="stop-color:#989D9D"/>
<stop offset="0.9636" style="stop-color:#AFB3B2"/>
<stop offset="1" style="stop-color:#5B5B5D"/>
</linearGradient>
<path d="M28.73,51.863c-0.422,0-0.768-0.345-0.768-0.766v-2.303c0-0.422,0.346-0.767,0.768-0.767h2.303  c0.42,0,0.766,0.345,0.766,0.767v2.303c0,0.421-0.346,0.766-0.766,0.766H28.73z" fill="url(#SVGID_11_)"/>
<linearGradient gradientUnits="userSpaceOnUse" id="SVGID_12_" x1="17.667" x2="17.667" y1="44.917" y2="54.1816">
<stop offset="0" style="stop-color:#B8BBBA"/>
<stop offset="1" style="stop-color:#F4FBF6"/>
</linearGradient>
<path d="M17.223,54.166c-1.625,0-2.949-1.323-2.949-2.951v-3.307  c0-1.624,1.324-2.948,2.949-2.948h0.887c1.627,0,2.951,1.324,2.951,2.948v3.307c0,1.628-1.324,2.951-2.951,2.951H17.223z" fill="url(#SVGID_12_)" fill-opacity="0.4" stroke-opacity="0.4"/>
<linearGradient gradientUnits="userSpaceOnUse" id="SVGID_13_" x1="17.665" x2="17.665" y1="45.6899" y2="53.4106">
<stop offset="0" style="stop-color:#222021"/>
<stop offset="1" style="stop-color:#6E6E6F"/>
</linearGradient>
<path d="M17.223,53.397c-1.203,0-2.184-0.979-2.184-2.183v-3.307  c0-1.201,0.98-2.183,2.184-2.183h0.887c1.205,0,2.182,0.981,2.182,2.183v3.307c0,1.204-0.977,2.183-2.182,2.183H17.223z" fill="url(#SVGID_13_)" fill-opacity="0.7" stroke-opacity="0.7"/>
<linearGradient gradientUnits="userSpaceOnUse" id="SVGID_14_" x1="17.667" x2="17.667" y1="46.4658" y2="52.6426">
<stop offset="0" style="stop-color:#B3C77D"/>
<stop offset="0.7273" style="stop-color:#3C743A"/>
<stop offset="1" style="stop-color:#235138"/>
</linearGradient>
<path d="M19.525,51.215c0,0.783-0.635,1.417-1.416,1.417h-0.887c-0.779,0-1.414-0.634-1.414-1.417v-3.307  c0-0.78,0.635-1.414,1.414-1.414h0.887c0.781,0,1.416,0.634,1.416,1.414V51.215z" fill="url(#SVGID_14_)"/>
<linearGradient gradientUnits="userSpaceOnUse" id="SVGID_15_" x1="41.6719" x2="41.6719" y1="44.917" y2="54.1816">
<stop offset="0" style="stop-color:#B8BBBA"/>
<stop offset="1" style="stop-color:#F4FBF6"/>
</linearGradient>
<path d="M41.229,54.166c-1.625,0-2.949-1.323-2.949-2.951v-3.307  c0-1.624,1.324-2.948,2.949-2.948h0.885c1.627,0,2.951,1.324,2.951,2.948v3.307c0,1.628-1.324,2.951-2.951,2.951H41.229z" fill="url(#SVGID_15_)" fill-opacity="0.4" stroke-opacity="0.4"/>
<linearGradient gradientUnits="userSpaceOnUse" id="SVGID_16_" x1="41.6709" x2="41.6709" y1="45.6899" y2="53.4106">
<stop offset="0" style="stop-color:#222021"/>
<stop offset="1" style="stop-color:#6E6E6F"/>
</linearGradient>
<path d="M41.229,53.397c-1.203,0-2.184-0.979-2.184-2.183v-3.307  c0-1.201,0.98-2.183,2.184-2.183h0.885c1.205,0,2.184,0.981,2.184,2.183v3.307c0,1.204-0.979,2.183-2.184,2.183H41.229z" fill="url(#SVGID_16_)" fill-opacity="0.7" stroke-opacity="0.7"/>
<linearGradient gradientUnits="userSpaceOnUse" id="SVGID_17_" x1="41.6719" x2="41.6719" y1="46.4658" y2="52.6426">
<stop offset="0" style="stop-color:#C6B17B"/>
<stop offset="0.7455" style="stop-color:#98604F"/>
<stop offset="1" style="stop-color:#7F3736"/>
</linearGradient>
<path d="M43.531,51.215c0,0.783-0.637,1.417-1.418,1.417h-0.885c-0.781,0-1.416-0.634-1.416-1.417v-3.307  c0-0.78,0.635-1.414,1.416-1.414h0.885c0.781,0,1.418,0.634,1.418,1.414V51.215z" fill="url(#SVGID_17_)"/>
<rect fill="none" height="60" width="60"/>
</g>
<g transform="matrix(1 0 0 1 30 30)">
<linearGradient gradientUnits="userSpaceOnUse" id="SVGID_1__" x1="7.6196" x2="7.6196" y1="1" y2="28.8433">
<stop offset="0" style="stop-color:#B4DCCA"/>
<stop offset="1" style="stop-color:#416D98"/>
</linearGradient>
<rect fill="url(#SVGID_1__)" height="6" width="6" x="4.62" y="1"/>
<linearGradient gradientUnits="userSpaceOnUse" id="SVGID_2__" x1="14.9536" x2="14.9536" y1="1" y2="28.8433">
<stop offset="0" style="stop-color:#B4DCCA"/>
<stop offset="1" style="stop-color:#416D98"/>
</linearGradient>
<rect fill="url(#SVGID_2__)" height="6" width="6" x="11.954" y="1"/>
<linearGradient gradientUnits="userSpaceOnUse" id="SVGID_3__" x1="22.3809" x2="22.3809" y1="1" y2="28.8433">
<stop offset="0" style="stop-color:#B4DCCA"/>
<stop offset="1" style="stop-color:#416D98"/>
</linearGradient>
<rect fill="url(#SVGID_3__)" height="6" width="6" x="19.381" y="1"/>
<linearGradient gradientUnits="userSpaceOnUse" id="SVGID_4__" x1="7.6196" x2="7.6196" y1="1.0005" y2="28.8461">
<stop offset="0" style="stop-color:#B4DCCA"/>
<stop offset="1" style="stop-color:#416D98"/>
</linearGradient>
<rect fill="url(#SVGID_4__)" height="6" width="6" x="4.62" y="8.239"/>
<linearGradient gradientUnits="userSpaceOnUse" id="SVGID_5__" x1="14.9536" x2="14.9536" y1="1.0005" y2="28.8461">
<stop offset="0" style="stop-color:#B4DCCA"/>
<stop offset="1" style="stop-color:#416D98"/>
</linearGradient>
<rect fill="url(#SVGID_5__)" height="6" width="6" x="11.954" y="8.239"/>
<linearGradient gradientUnits="userSpaceOnUse" id="SVGID_6__" x1="22.3809" x2="22.3809" y1="1.0005" y2="28.8461">
<stop offset="0" style="stop-color:#B4DCCA"/>
<stop offset="1" style="stop-color:#416D98"/>
</linearGradient>
<rect fill="url(#SVGID_6__)" height="6" width="6" x="19.381" y="8.239"/>
<linearGradient gradientUnits="userSpaceOnUse" id="SVGID_7__" x1="7.6196" x2="7.6196" y1="1.0024" y2="28.8444">
<stop offset="0" style="stop-color:#B4DCCA"/>
<stop offset="1" style="stop-color:#416D98"/>
</linearGradient>
<rect fill="url(#SVGID_7__)" height="5.999" width="6" x="4.62" y="15.572"/>
<linearGradient gradientUnits="userSpaceOnUse" id="SVGID_8__" x1="14.9536" x2="14.9536" y1="1.0024" y2="28.8444">
<stop offset="0" style="stop-color:#B4DCCA"/>
<stop offset="1" style="stop-color:#416D98"/>
</linearGradient>
<rect fill="url(#SVGID_8__)" height="5.999" width="6" x="11.954" y="15.572"/>
<linearGradient gradientUnits="userSpaceOnUse" id="SVGID_9__" x1="14.9536" x2="14.9536" y1="1.0049" y2="28.845">
<stop offset="0" style="stop-color:#B4DCCA"/>
<stop offset="1" style="stop-color:#416D98"/>
</linearGradient>
<rect fill="url(#SVGID_9__)" height="6" width="6" x="11.954" y="23"/>
<linearGradient gradientUnits="userSpaceOnUse" id="SVGID_10__" x1="22.3809" x2="22.3809" y1="1.0024" y2="28.8444">
<stop offset="0" style="stop-color:#B4DCCA"/>
<stop offset="1" style="stop-color:#416D98"/>
</linearGradient>
<rect fill="url(#SVGID_10__)" height="5.999" width="6" x="19.381" y="15.572"/>
<linearGradient gradientUnits="userSpaceOnUse" id="SVGID_11__" x1="7.6196" x2="7.6196" y1="1" y2="6.9042">
<stop offset="0" style="stop-color:#9DD5C4"/>
<stop offset="1" style="stop-color:#455188"/>
</linearGradient>
<path d="M9.915,1.705v4.591h-4.59V1.705H9.915 M10.619,1h-6v6h6V1L10.619,1z" fill="url(#SVGID_11__)"/>
<linearGradient gradientUnits="userSpaceOnUse" id="SVGID_12__" x1="14.9536" x2="14.9536" y1="1" y2="6.9042">
<stop offset="0" style="stop-color:#9DD5C4"/>
<stop offset="1" style="stop-color:#455188"/>
</linearGradient>
<path d="M17.249,1.705v4.591h-4.59V1.705H17.249 M17.954,1h-6v6h6V1L17.954,1z" fill="url(#SVGID_12__)"/>
<linearGradient gradientUnits="userSpaceOnUse" id="SVGID_13__" x1="22.3809" x2="22.3809" y1="1" y2="6.9042">
<stop offset="0" style="stop-color:#9DD5C4"/>
<stop offset="1" style="stop-color:#455188"/>
</linearGradient>
<path d="M24.676,1.705v4.591h-4.59V1.705H24.676 M25.381,1h-6v6h6V1L25.381,1z" fill="url(#SVGID_13__)"/>
<linearGradient gradientUnits="userSpaceOnUse" id="SVGID_14__" x1="7.6196" x2="7.6196" y1="8.312" y2="14.2147">
<stop offset="0" style="stop-color:#9DD5C4"/>
<stop offset="1" style="stop-color:#455188"/>
</linearGradient>
<path d="M9.915,8.943v4.591h-4.59V8.943H9.915 M10.619,8.239h-6v6h6V8.239L10.619,8.239z" fill="url(#SVGID_14__)"/>
<linearGradient gradientUnits="userSpaceOnUse" id="SVGID_15__" x1="14.9536" x2="14.9536" y1="8.312" y2="14.2147">
<stop offset="0" style="stop-color:#9DD5C4"/>
<stop offset="1" style="stop-color:#455188"/>
</linearGradient>
<path d="M17.249,8.943v4.591h-4.59V8.943H17.249 M17.954,8.239h-6v6h6V8.239L17.954,8.239z" fill="url(#SVGID_15__)"/>
<linearGradient gradientUnits="userSpaceOnUse" id="SVGID_16__" x1="22.3809" x2="22.3809" y1="8.312" y2="14.2147">
<stop offset="0" style="stop-color:#9DD5C4"/>
<stop offset="1" style="stop-color:#455188"/>
</linearGradient>
<path d="M24.676,8.943v4.591h-4.59V8.943H24.676 M25.381,8.239h-6v6h6V8.239L25.381,8.239z" fill="url(#SVGID_16__)"/>
<linearGradient gradientUnits="userSpaceOnUse" id="SVGID_17__" x1="7.6196" x2="7.6196" y1="15.7993" y2="21.6132">
<stop offset="0" style="stop-color:#9DD5C4"/>
<stop offset="1" style="stop-color:#455188"/>
</linearGradient>
<path d="M9.915,16.275v4.592h-4.59v-4.592H9.915 M10.619,15.572h-6v5.999h6V15.572L10.619,15.572z" fill="url(#SVGID_17__)"/>
<linearGradient gradientUnits="userSpaceOnUse" id="SVGID_18_" x1="14.9536" x2="14.9536" y1="15.7993" y2="21.6132">
<stop offset="0" style="stop-color:#9DD5C4"/>
<stop offset="1" style="stop-color:#455188"/>
</linearGradient>
<path d="M17.249,16.275v4.592h-4.59v-4.592H17.249 M17.954,15.572h-6v5.999h6V15.572L17.954,15.572z" fill="url(#SVGID_18_)"/>
<linearGradient gradientUnits="userSpaceOnUse" id="SVGID_19_" x1="14.9536" x2="14.9536" y1="23.0225" y2="28.8353">
<stop offset="0" style="stop-color:#9DD5C4"/>
<stop offset="1" style="stop-color:#455188"/>
</linearGradient>
<path d="M17.249,23.705v4.59h-4.59v-4.59H17.249 M17.954,23h-6v6h6V23L17.954,23z" fill="url(#SVGID_19_)"/>
<linearGradient gradientUnits="userSpaceOnUse" id="SVGID_20_" x1="22.3809" x2="22.3809" y1="15.7993" y2="21.6132">
<stop offset="0" style="stop-color:#9DD5C4"/>
<stop offset="1" style="stop-color:#455188"/>
</linearGradient>
<path d="M24.676,16.275v4.592h-4.59v-4.592H24.676 M25.381,15.572h-6v5.999h6V15.572L25.381,15.572z" fill="url(#SVGID_20_)"/>
<rect fill="none" height="30" width="30"/>
</g>
</svg>
