<?xml version="1.0" encoding="UTF-8"?>
<!DOCTYPE svg PUBLIC "-//W3C//DTD SVG 1.1 Tiny//EN" "http://www.w3.org/Graphics/SVG/1.1/DTD/svg11-tiny.dtd">
<svg baseProfile="tiny" height="216px" version="1.1" viewBox="0 0 216 216" width="216px" x="0px" xmlns="http://www.w3.org/2000/svg" xmlns:xlink="http://www.w3.org/1999/xlink" y="0px">
<g fill-opacity="0.2" stroke-opacity="0.2">
<path d="M108,216C48.448,216,0,167.553,0,108C0,48.448,48.448,0,108,0c59.553,0,108,48.448,108,108   C216,167.553,167.553,216,108,216L108,216z"/>
</g>
<g>
<linearGradient gradientTransform="matrix(1 0 0 1 205.04 -626.0391)" gradientUnits="userSpaceOnUse" id="SVGID_1_" x1="-97.0405" x2="-97.0405" y1="627.5244" y2="841.1494">
<stop offset="0" style="stop-color:#FFFFFF"/>
<stop offset="1" style="stop-color:#DCDCDC"/>
</linearGradient>
<path d="M108,214.813C49.102,214.813,1.187,166.896,1.187,108C1.187,49.104,49.102,1.187,108,1.187   c58.898,0,106.813,47.917,106.813,106.813C214.813,166.896,166.898,214.813,108,214.813L108,214.813z" fill="url(#SVGID_1_)"/>
</g>
<linearGradient gradientTransform="matrix(1 0 0 1 205.04 -626.0391)" gradientUnits="userSpaceOnUse" id="SVGID_2_" x1="-97.04" x2="-97.04" y1="631.0742" y2="837.5801">
<stop offset="0" style="stop-color:#F0F0FA"/>
<stop offset="1" style="stop-color:#B4B4B9"/>
</linearGradient>
<path d="M108,211.253C51.066,211.253,4.747,164.934,4.747,108C4.747,51.066,51.066,4.747,108,4.747  c56.934,0,103.253,46.319,103.253,103.253C211.253,164.934,164.934,211.253,108,211.253L108,211.253z" fill="url(#SVGID_2_)"/>
<linearGradient gradientTransform="matrix(1 0 0 1 205.04 -626.0391)" gradientUnits="userSpaceOnUse" id="SVGID_3_" x1="-97.0405" x2="-97.0405" y1="636.9922" y2="831.6289">
<stop offset="0" style="stop-color:#64646E"/>
<stop offset="1" style="stop-color:#282832"/>
</linearGradient>
<path d="M108,205.318c-53.662,0-97.319-43.656-97.319-97.318S54.338,10.681,108,10.681  S205.318,54.338,205.318,108S161.662,205.318,108,205.318L108,205.318z" fill="url(#SVGID_3_)"/>
<linearGradient gradientTransform="matrix(1 0 0 1 205.04 -626.0391)" gradientUnits="userSpaceOnUse" id="SVGID_4_" x1="-97.04" x2="-97.04" y1="638.1758" y2="830.4395">
<stop offset="0" style="stop-color:#FAFAFA"/>
<stop offset="0" style="stop-color:#E6E6EB"/>
<stop offset="1" style="stop-color:#BEBEC3"/>
</linearGradient>
<path d="M108,204.132c-53.007,0-96.132-43.124-96.132-96.132S54.993,11.868,108,11.868  S204.132,54.992,204.132,108S161.007,204.132,108,204.132L108,204.132z" fill="url(#SVGID_4_)"/>
<linearGradient gradientTransform="matrix(1 0 0 1 205.04 -626.0391)" gradientUnits="userSpaceOnUse" id="SVGID_5_" x1="-97.04" x2="-97.04" y1="648.8262" y2="819.7285">
<stop offset="0" style="stop-color:#FAFAFA"/>
<stop offset="0" style="stop-color:#FAFAFF"/>
<stop offset="1" style="stop-color:#D2D2D7"/>
</linearGradient>
<path d="M108,193.451c-47.117,0-85.451-38.334-85.451-85.451S60.883,22.549,108,22.549  S193.451,60.883,193.451,108S155.117,193.451,108,193.451L108,193.451z" fill="url(#SVGID_5_)"/>
<path d="M108,110.5c-1.378,0-2.5-1.121-2.5-2.5s1.122-2.5,2.5-2.5  c1.379,0,2.5,1.121,2.5,2.5S109.379,110.5,108,110.5L108,110.5z" fill-opacity="0.2" stroke-opacity="0.2"/>
<path d="M108,21.362c-47.771,0-86.637,38.865-86.637,86.638  c0,47.771,38.866,86.637,86.637,86.637c47.771,0,86.637-38.865,86.637-86.637C194.637,60.228,155.771,21.362,108,21.362z   M108,193.451c-47.117,0-85.451-38.334-85.451-85.451S60.883,22.549,108,22.549S193.451,60.883,193.451,108  S155.117,193.451,108,193.451z" fill-opacity="0.3" stroke-opacity="0.3"/>
<rect fill="#3C3C3C" height="3.559" transform="matrix(-0.5 -0.866 0.866 -0.5 68.4609 406.6086)" width="15.43" x="143.893" y="181.762"/>
<rect fill="#3C3C3C" height="3.56" transform="matrix(0.5 0.866 -0.866 0.5 60.2984 -39.5302)" width="15.428" x="56.669" y="30.675"/>
<rect fill="#3C3C3C" height="3.559" transform="matrix(-0.866 -0.5 0.5 -0.866 266.7078 374.6873)" width="15.428" x="175.837" y="149.833"/>
<rect fill="#3C3C3C" height="3.56" transform="matrix(0.866 0.5 -0.5 0.866 36.5413 -7.6013)" width="15.427" x="24.741" y="62.604"/>
<rect fill="#3C3C3C" height="3.559" width="15.428" x="187.518" y="106.22"/>
<rect fill="#3C3C3C" height="3.561" width="15.427" x="13.055" y="106.22"/>
<rect fill="#3C3C3C" height="3.559" transform="matrix(-0.866 0.5 -0.5 -0.866 374.6927 28.3759)" width="15.43" x="175.83" y="62.611"/>
<rect fill="#3C3C3C" height="3.559" transform="matrix(0.866 -0.5001 0.5001 0.866 -71.4675 36.5472)" width="15.428" x="24.741" y="149.836"/>
<rect fill="#3C3C3C" height="3.559" transform="matrix(-0.5 0.866 -0.866 -0.5 255.5207 -82.6233)" width="15.426" x="143.899" y="30.673"/>
<rect fill="#3C3C3C" height="3.56" transform="matrix(0.5 -0.866 0.866 0.5 -126.7627 147.5275)" width="15.426" x="56.671" y="181.766"/>
<rect fill="#50505A" fill-opacity="0.4" height="1.186" stroke-opacity="0.4" transform="matrix(0.9945 -0.1045 0.1045 0.9945 -12.172 2.5552)" width="9.494" x="13.55" y="116.835"/>
<rect fill="#50505A" fill-opacity="0.4" height="1.187" stroke-opacity="0.4" transform="matrix(-0.9945 0.1045 -0.1045 -0.9945 404.624 175.9475)" width="9.493" x="192.955" y="97.982"/>
<rect fill="#50505A" fill-opacity="0.4" height="1.185" stroke-opacity="0.4" transform="matrix(0.9781 -0.2081 0.2081 0.9781 -25.9399 6.8879)" width="9.495" x="15.025" y="126.157"/>
<rect fill="#50505A" fill-opacity="0.4" height="1.186" stroke-opacity="0.4" transform="matrix(-0.9781 0.2081 -0.2081 -0.9781 406.7398 135.6946)" width="9.493" x="191.485" y="88.65"/>
<rect fill="#50505A" fill-opacity="0.4" height="1.187" stroke-opacity="0.4" transform="matrix(0.951 -0.3091 0.3091 0.951 -40.9071 13.5191)" width="9.495" x="17.469" y="135.279"/>
<rect fill="#50505A" fill-opacity="0.4" height="1.187" stroke-opacity="0.4" transform="matrix(-0.951 0.3091 -0.3091 -0.951 402.8447 96.429)" width="9.493" x="189.037" y="79.535"/>
<rect fill="#50505A" fill-opacity="0.4" height="1.187" stroke-opacity="0.4" transform="matrix(0.9135 -0.4069 0.4069 0.9135 -56.6546 22.9349)" width="9.495" x="20.854" y="144.091"/>
<rect fill="#50505A" fill-opacity="0.4" height="1.187" stroke-opacity="0.4" transform="matrix(-0.9135 0.4068 -0.4068 -0.9135 393.347 59.0183)" width="9.493" x="185.653" y="70.728"/>
<rect fill="#50505A" fill-opacity="0.4" height="1.188" stroke-opacity="0.4" transform="matrix(0.809 -0.5878 0.5878 0.809 -87.9595 51.3425)" width="9.496" x="30.277" y="160.428"/>
<rect fill="#50505A" fill-opacity="0.4" height="1.186" stroke-opacity="0.4" transform="matrix(-0.809 0.5879 -0.5879 -0.809 359.6953 -6.954)" width="9.493" x="176.231" y="54.374"/>
<rect fill="#50505A" fill-opacity="0.4" height="1.187" stroke-opacity="0.4" transform="matrix(0.7431 -0.6692 0.6692 0.7431 -102.1394 70.6601)" width="9.496" x="36.208" y="167.76"/>
<rect fill="#50505A" fill-opacity="0.4" height="1.188" stroke-opacity="0.4" transform="matrix(-0.7431 0.6692 -0.6692 -0.7431 336.9637 -34.0923)" width="9.494" x="170.279" y="47.045"/>
<rect fill="#50505A" fill-opacity="0.4" height="1.186" stroke-opacity="0.4" transform="matrix(0.6693 -0.743 0.743 0.6693 -114.2852 93.2842)" width="9.495" x="42.902" y="174.433"/>
<rect fill="#50505A" fill-opacity="0.4" height="1.188" stroke-opacity="0.4" transform="matrix(-0.6691 0.7431 -0.7431 -0.6691 311.4429 -56.7351)" width="9.492" x="163.605" y="40.371"/>
<rect fill="#50505A" fill-opacity="0.4" height="1.187" stroke-opacity="0.4" transform="matrix(0.5879 -0.8089 0.8089 0.5879 -123.7347 119.0488)" width="9.496" x="50.226" y="180.371"/>
<rect fill="#50505A" fill-opacity="0.4" height="1.19" stroke-opacity="0.4" transform="matrix(-0.5877 0.8091 -0.8091 -0.5877 283.9651 -74.6803)" width="9.494" x="156.265" y="34.423"/>
<rect fill="#50505A" fill-opacity="0.4" height="1.188" stroke-opacity="0.4" transform="matrix(0.4068 -0.9135 0.9135 0.4068 -131.6361 178.0922)" width="9.495" x="66.567" y="189.813"/>
<rect fill="#50505A" fill-opacity="0.4" height="1.187" stroke-opacity="0.4" transform="matrix(-0.4068 0.9135 -0.9135 -0.4068 226.9329 -96.1835)" width="9.495" x="139.949" y="24.999"/>
<rect fill="#50505A" fill-opacity="0.4" height="1.187" stroke-opacity="0.4" transform="matrix(0.309 -0.9511 0.9511 0.309 -128.9221 210.1123)" width="9.497" x="75.378" y="193.179"/>
<rect fill="#50505A" fill-opacity="0.4" height="1.187" stroke-opacity="0.4" transform="matrix(-0.309 0.9511 -0.9511 -0.309 198.983 -100.1454)" width="9.495" x="131.126" y="21.624"/>
<rect fill="#50505A" fill-opacity="0.4" height="1.186" stroke-opacity="0.4" transform="matrix(0.2079 -0.9781 0.9781 0.2079 -121.2426 242.7201)" width="9.498" x="84.496" y="195.628"/>
<rect fill="#50505A" fill-opacity="0.4" height="1.186" stroke-opacity="0.4" transform="matrix(-0.2078 0.9782 -0.9782 -0.2078 172.4302 -100.1058)" width="9.495" x="122.006" y="19.181"/>
<rect fill="#50505A" fill-opacity="0.4" height="1.187" stroke-opacity="0.4" transform="matrix(0.1045 -0.9945 0.9945 0.1045 -108.351 275.0744)" width="9.494" x="93.824" y="197.11"/>
<rect fill="#50505A" fill-opacity="0.4" height="1.185" stroke-opacity="0.4" transform="matrix(-0.1044 0.9945 -0.9945 -0.1044 147.8838 -96.5788)" width="9.493" x="112.68" y="17.703"/>
<rect fill="#50505A" fill-opacity="0.4" height="1.186" stroke-opacity="0.4" transform="matrix(-0.1045 -0.9945 0.9945 -0.1045 -66.9229 335.1464)" width="9.495" x="112.68" y="197.11"/>
<rect fill="#50505A" fill-opacity="0.4" height="1.185" stroke-opacity="0.4" transform="matrix(0.1048 0.9945 -0.9945 0.1048 106.4455 -81.6544)" width="9.494" x="93.83" y="17.704"/>
<rect fill="#50505A" fill-opacity="0.4" height="1.186" stroke-opacity="0.4" transform="matrix(-0.2079 -0.9782 0.9782 -0.2079 -38.8436 360.9971)" width="9.495" x="122.005" y="195.634"/>
<rect fill="#50505A" fill-opacity="0.4" height="1.186" stroke-opacity="0.4" transform="matrix(0.208 0.9781 -0.9781 0.208 90.0209 -71.635)" width="9.494" x="84.5" y="19.18"/>
<rect fill="#50505A" fill-opacity="0.4" height="1.185" stroke-opacity="0.4" transform="matrix(-0.3089 -0.9511 0.9511 -0.3089 -6.4807 382.8722)" width="9.496" x="131.111" y="193.198"/>
<rect fill="#50505A" fill-opacity="0.4" height="1.187" stroke-opacity="0.4" transform="matrix(0.3091 0.951 -0.951 0.3091 76.4876 -60.8538)" width="9.494" x="75.38" y="21.623"/>
<rect fill="#50505A" fill-opacity="0.4" height="1.186" stroke-opacity="0.4" transform="matrix(-0.4066 -0.9136 0.9136 -0.4066 29.5685 400.0058)" width="9.494" x="139.941" y="189.807"/>
<rect fill="#50505A" fill-opacity="0.4" height="1.187" stroke-opacity="0.4" transform="matrix(0.4068 0.9135 -0.9135 0.4068 65.6878 -49.9597)" width="9.493" x="66.567" y="25.006"/>
<polygon fill="#50505A" fill-opacity="0.4" points="157.745,177.479 163.326,185.161 164.288,184.465   158.707,176.785 " stroke-opacity="0.4"/>
<rect fill="#50505A" fill-opacity="0.4" height="1.187" stroke-opacity="0.4" transform="matrix(0.5877 0.8091 -0.8091 0.5877 51.0092 -30.0421)" width="9.493" x="50.235" y="34.435"/>
<polygon fill="#50505A" fill-opacity="0.4" points="164.734,171.898 171.089,178.955 171.973,178.162   165.619,171.107 " stroke-opacity="0.4"/>
<rect fill="#50505A" fill-opacity="0.4" height="1.186" stroke-opacity="0.4" transform="matrix(0.6691 0.7432 -0.7432 0.6691 46.2126 -21.8499)" width="9.494" x="42.896" y="40.377"/>
<polygon fill="#50505A" fill-opacity="0.4" points="171.104,165.618 178.16,171.973 178.955,171.091   171.9,164.738 " stroke-opacity="0.4"/>
<rect fill="#50505A" fill-opacity="0.4" height="1.187" stroke-opacity="0.4" transform="matrix(0.7431 0.6692 -0.6692 0.7431 42.4082 -15.1748)" width="9.493" x="36.221" y="47.052"/>
<rect fill="#50505A" fill-opacity="0.4" height="1.188" stroke-opacity="0.4" transform="matrix(-0.809 -0.5878 0.5878 -0.809 232.7322 397.6849)" width="9.496" x="176.228" y="160.437"/>
<rect fill="#50505A" fill-opacity="0.4" height="1.187" stroke-opacity="0.4" transform="matrix(0.809 0.5878 -0.5878 0.809 39.0125 -10.0897)" width="9.494" x="30.284" y="54.39"/>
<rect fill="#50505A" fill-opacity="0.4" height="1.186" stroke-opacity="0.4" transform="matrix(-0.9135 -0.4067 0.4067 -0.9135 305.4916 354.3081)" width="9.494" x="185.654" y="144.094"/>
<rect fill="#50505A" fill-opacity="0.4" height="1.187" stroke-opacity="0.4" transform="matrix(0.9135 0.4068 -0.4068 0.9135 31.2234 -4.2442)" width="9.494" x="20.847" y="70.72"/>
<rect fill="#50505A" fill-opacity="0.4" height="1.187" stroke-opacity="0.4" transform="matrix(-0.9511 -0.309 0.309 -0.9511 336.1146 324.9646)" width="9.495" x="189.04" y="135.276"/>
<rect fill="#50505A" fill-opacity="0.4" height="1.187" stroke-opacity="0.4" transform="matrix(0.951 0.3091 -0.3091 0.951 25.8537 -2.9432)" width="9.495" x="17.469" y="79.535"/>
<polygon fill="#50505A" fill-opacity="0.4" points="191.458,126.348 200.746,128.32 200.994,127.16   191.709,125.188 " stroke-opacity="0.4"/>
<rect fill="#50505A" fill-opacity="0.4" height="1.187" stroke-opacity="0.4" transform="matrix(0.9781 0.208 -0.208 0.9781 18.9976 -2.1597)" width="9.495" x="15.02" y="88.654"/>
<rect fill="#50505A" fill-opacity="0.4" height="1.187" stroke-opacity="0.4" transform="matrix(-0.9945 -0.1045 0.1045 -0.9945 382.0551 254.872)" width="9.496" x="192.955" y="116.836"/>
<rect fill="#50505A" fill-opacity="0.4" height="1.188" stroke-opacity="0.4" transform="matrix(0.9945 0.1046 -0.1046 0.9945 10.4121 -1.3735)" width="9.494" x="13.553" y="97.979"/>
<rect fill="#3C3C3C" height="15.428" width="3.561" x="106.22" y="187.518"/>
<rect fill="#3C3C3C" height="15.429" width="3.561" x="106.22" y="13.055"/>
<linearGradient gradientTransform="matrix(1 0 0 1 205.04 -626.0391)" gradientUnits="userSpaceOnUse" id="SVGID_6_" x1="-62.1353" x2="-62.1353" y1="729.041" y2="673.397">
<stop offset="0" style="stop-color:#FAFAFA"/>
<stop offset="0" style="stop-color:#FAFAFF"/>
<stop offset="1" style="stop-color:#D2D2D7"/>
</linearGradient>
<path d="M112.538,72.408c0,0,0,17.998,0,21.79s1.226,8.864,8.374,8.864c7.146,0,12.288,0,18.814,0  c6.527,0,9.225-4.021,11.047-6.262c1.561-1.922,4.435-4.383,11.449-4.383c7.84,0,11.566-7.127,10.991-12.402  c-1.231-11.309-12.544-29.426-34.063-33.137c0,0-9.769-2.158-9.76,9.759c0.004,5.232-2.896,7.687-6.205,7.804  c-0.724,0.025-0.479,0.022-1.477,0.022C117.299,64.464,112.538,66.523,112.538,72.408z" fill="url(#SVGID_6_)"/>
<path d="M101.353,35.367h-0.048l-2.712,1.464l-0.408-1.608l3.408-1.824h1.8V49h-2.04V35.367z" fill="#505050"/>
<path d="M109.08,49v-1.296l1.656-1.608c3.984-3.792,5.809-5.809,5.809-8.161c0-1.584-0.744-3.048-3.072-3.048  c-1.416,0-2.592,0.72-3.313,1.32l-0.672-1.488c1.057-0.888,2.615-1.584,4.393-1.584c3.359,0,4.775,2.304,4.775,4.536  c0,2.88-2.088,5.208-5.377,8.377l-1.223,1.152v0.048h6.982V49H109.08z" fill="#505050"/>
<path d="M36.148,113.557c0.456,0.047,0.984,0,1.704-0.072c1.224-0.168,2.376-0.646,3.264-1.512  c1.032-0.938,1.776-2.305,2.064-4.127h-0.072c-0.864,1.055-2.112,1.657-3.696,1.657c-2.784,0-4.584-2.113-4.584-4.777  c0-2.952,2.136-5.544,5.329-5.544c3.193,0,5.161,2.568,5.161,6.601c0,3.41-1.152,5.809-2.688,7.297  c-1.2,1.176-2.856,1.896-4.536,2.088c-0.768,0.12-1.44,0.146-1.944,0.12v-1.729h-0.002V113.557z M36.917,104.603  c0,1.944,1.176,3.313,3,3.313c1.416,0,2.52-0.696,3.072-1.632c0.12-0.216,0.192-0.432,0.192-0.792c0-2.665-0.984-4.705-3.216-4.705  C38.188,100.787,36.917,102.371,36.917,104.603z" fill="#505050"/>
<path d="M111.829,168.932c-0.433-0.025-0.983,0.023-1.584,0.119c-3.336,0.527-5.064,2.928-5.425,5.521h0.048  c0.744-1.01,2.064-1.824,3.792-1.824c2.76,0,4.705,2.018,4.705,5.04c0,2.881-1.944,5.521-5.208,5.521  c-3.312,0-5.497-2.593-5.497-6.647c0-3.072,1.08-5.496,2.64-7.032c1.296-1.271,3.024-2.063,4.993-2.307  c0.624-0.096,1.152-0.117,1.536-0.117V168.932z M111.229,177.932c0-2.23-1.271-3.576-3.214-3.576c-1.272,0-2.472,0.77-3.048,1.92  c-0.12,0.24-0.216,0.527-0.216,0.912c0.024,2.568,1.224,4.488,3.456,4.488C110.005,181.676,111.229,180.164,111.229,177.932z" fill="#505050"/>
<path d="M171.428,112.645c0.602,0.359,1.969,0.959,3.457,0.959c2.688,0,3.553-1.703,3.528-3.021  c-0.024-2.185-1.992-3.121-4.032-3.121h-1.176v-1.584h1.176c1.536,0,3.48-0.792,3.48-2.64c0-1.248-0.793-2.352-2.736-2.352  c-1.248,0-2.449,0.552-3.121,1.032l-0.576-1.536c0.842-0.6,2.426-1.2,4.105-1.2c3.072,0,4.464,1.824,4.464,3.72  c0,1.632-0.983,3-2.88,3.696v0.048c1.92,0.36,3.455,1.8,3.48,3.984c0,2.497-1.971,4.684-5.689,4.684  c-1.752,0-3.287-0.555-4.057-1.059L171.428,112.645z" fill="#505050"/>
</svg>
