<?xml version="1.0" encoding="UTF-8"?>
<!DOCTYPE svg PUBLIC "-//W3C//DTD SVG 1.1 Tiny//EN" "http://www.w3.org/Graphics/SVG/1.1/DTD/svg11-tiny.dtd">
<svg baseProfile="tiny" height="30px" version="1.1" viewBox="0 0 30 30" width="30px" x="0px" xmlns="http://www.w3.org/2000/svg" xmlns:xlink="http://www.w3.org/1999/xlink" y="0px">
<g fill-opacity="0.5" stroke-opacity="0.5">
<rect fill="none" height="30" width="30"/>
</g>
<path d="M27.693,26.372c0.389,0.389,0.41,1.005,0.048,1.368c-0.362,0.362-0.978,0.343-1.366-0.046L2.307,3.625  C1.918,3.236,1.896,2.621,2.26,2.258c0.363-0.363,0.979-0.341,1.367,0.048L27.693,26.372z"/>
<path d="M17.15,13H18v0.85l1.768,1.767C19.906,15.446,20,15.237,20,15v-2.775c1.041-0.593,2.136-1.309,2.136-1.309  c0.529-0.418,0.915-1.316,0.858-1.996c0,0-0.68-4.737-1.039-5.313c0,0-1.628-2.606-7.067-2.606c-5.44,0-6.805,2.595-6.805,2.595  C8.053,3.644,8.02,3.732,7.986,3.836L17.15,13z M12,5h6c0.553,0,1,0.447,1,1s-0.447,1-1,1h-6c-0.553,0-1-0.447-1-1S11.447,5,12,5z"/>
<path d="M15.695,19.842l1.15,1.239l-1.277,1.375L17,23.846v0.433l-2,2.413l-2-2.412v-7.133l-3-3V15c0,0.549,0.442,0.992,0.99,0.998  H11V16v9l3.315,4h1.368L19,25v-1.853L15.695,19.842z"/>
</svg>
