<?xml version="1.0" encoding="UTF-8"?>
<!DOCTYPE svg PUBLIC "-//W3C//DTD SVG 1.1 Tiny//EN" "http://www.w3.org/Graphics/SVG/1.1/DTD/svg11-tiny.dtd">
<svg baseProfile="tiny" height="30px" version="1.1" viewBox="0 0 30 30" width="30px" x="0px" xmlns="http://www.w3.org/2000/svg" xmlns:xlink="http://www.w3.org/1999/xlink" y="0px">
<path d="M27.998,4c0,1.104-0.896,2-2,2H4C2.896,6,2,5.104,2,4l0,0c0-1.104,0.896-2,2-2h21.998C27.103,2,27.998,2.896,27.998,4  L27.998,4z"/>
<path d="M23,11c0,1.104-0.896,2-2,2H4.002c-1.104,0-2-0.896-2-2l0,0c0-1.104,0.896-2,2-2H21C22.104,9,23,9.896,23,11L23,11z"/>
<path d="M18,18c0,1.104-0.896,2-2,2H4c-1.104,0-2-0.896-2-2l0,0c0-1.104,0.896-2,2-2h12C17.104,16,18,16.896,18,18L18,18z"/>
<path d="M13,25c0,1.104-0.896,2-2,2H4c-1.104,0-2-0.896-2-2l0,0c0-1.104,0.896-2,2-2h7C12.104,23,13,23.896,13,25L13,25z"/>
<path d="M29,23c0,0.229-0.079,0.457-0.231,0.641l-5,6C23.578,29.868,23.297,30,23,30s-0.578-0.132-0.768-0.359l-5-6  C17.079,23.457,17,23.229,17,23c0-0.144,0.031-0.289,0.095-0.424C17.259,22.225,17.612,22,18,22h2v-5c0-0.553,0.448-1,1-1h4  c0.553,0,1,0.447,1,1v5h2c0.389,0,0.741,0.225,0.906,0.576C28.969,22.711,29,22.856,29,23L29,23z"/>
<g fill-opacity="0.5" stroke-opacity="0.5">
<rect fill="none" height="30" width="30"/>
</g>
</svg>
