<?xml version="1.0" encoding="UTF-8"?>
<!DOCTYPE svg PUBLIC "-//W3C//DTD SVG 1.1 Tiny//EN" "http://www.w3.org/Graphics/SVG/1.1/DTD/svg11-tiny.dtd">
<svg baseProfile="tiny" height="30px" version="1.1" viewBox="0 0 30 30" width="30px" x="0px" xmlns="http://www.w3.org/2000/svg" xmlns:xlink="http://www.w3.org/1999/xlink" y="0px">
<g fill-opacity="0.5" stroke-opacity="0.5">
<rect fill="none" height="30" width="30"/>
</g>
<path d="M5,9v18c-0.001,1.104,0.894,2,1.999,2h16c1.104,0,2-0.896,2-2V9H5z M10.999,25h-2V12h2V25z M15.999,25h-2V12h2V25z   M20.999,25h-2V12h2V25z"/>
<path d="M26.999,5.5c0,0.828-0.672,1.5-1.5,1.5h-21c-0.83,0-1.5-0.672-1.5-1.5l0,0c0-0.828,0.67-1.5,1.5-1.5h21  C26.327,4,26.999,4.672,26.999,5.5L26.999,5.5z"/>
<path d="M17.999,1.995C17.996,1.445,17.551,1,17,1h-4.001c-0.552,0-1,0.448-1,1v1h6V1.995z"/>
</svg>
