<?xml version="1.0" encoding="UTF-8"?>
<!DOCTYPE svg PUBLIC "-//W3C//DTD SVG 1.1 Tiny//EN" "http://www.w3.org/Graphics/SVG/1.1/DTD/svg11-tiny.dtd">
<svg baseProfile="tiny" height="10px" version="1.1" viewBox="0 0 10 10" width="10px" x="0px" xmlns="http://www.w3.org/2000/svg" xmlns:xlink="http://www.w3.org/1999/xlink" y="0px">
<rect fill="none" height="10" width="10"/>
<path d="M0,0v3c0,3.859,3.141,7,7,7h3V0H0z" fill="#141414" fill-opacity="0.2" stroke-opacity="0.2"/>
<path d="M1,0v3c0,3.3,2.7,6,6,6h3V0H1z" fill="#141414" fill-opacity="0.2" stroke-opacity="0.2"/>
<linearGradient gradientUnits="userSpaceOnUse" id="SVGID_1_" x1="0.667" x2="337.3366" y1="4" y2="4">
<stop offset="0" style="stop-color:#282828"/>
<stop offset="0.5" style="stop-color:#78787D"/>
<stop offset="1" style="stop-color:#282828"/>
</linearGradient>
<path d="M1,0v2c0,3.3,2.7,6,6,6h3V0H1z" fill="url(#SVGID_1_)"/>
<path d="M7,6C4.795,6,3,4.206,3,2V0H2v2c0,2.757,2.243,5,5,5h3V6H7z" fill="#FFFFFF" fill-opacity="0.5" stroke-opacity="0.5"/>
<path d="M7,7C4.243,7,2,4.757,2,2V0H1v2c0,3.3,2.7,6,6,6h3V7H7z" fill-opacity="0.3"/>
<linearGradient gradientUnits="userSpaceOnUse" id="SVGID_2_" x1="3.667" x2="334.0545" y1="5" y2="5">
<stop offset="0" style="stop-color:#282828"/>
<stop offset="0.5" style="stop-color:#FAFAFA"/>
<stop offset="1" style="stop-color:#282828"/>
</linearGradient>
<path d="M3.557,4C4.25,5.189,5.526,6,7,6h3V4H3.557z" fill="url(#SVGID_2_)" fill-opacity="0.7"/>
</svg>
