<?xml version="1.0" encoding="UTF-8"?>
<!DOCTYPE svg PUBLIC "-//W3C//DTD SVG 1.1 Tiny//EN" "http://www.w3.org/Graphics/SVG/1.1/DTD/svg11-tiny.dtd">
<svg baseProfile="tiny" height="30px" version="1.1" viewBox="0 0 30 30" width="30px" x="0px" xmlns="http://www.w3.org/2000/svg" xmlns:xlink="http://www.w3.org/1999/xlink" y="0px">
<g fill-opacity="0.5" stroke-opacity="0.5">
<rect fill="none" height="30" width="30"/>
</g>
<path d="M21.15,17l3.986,3.986C26.176,20.914,27,20.059,27,19c0-1.104-0.896-2-2-2H21.15z"/>
<path d="M12.854,17H4l0,0c-0.132,0-0.263,0.014-0.393,0.039c-0.057,0.012-0.108,0.033-0.163,0.049  c-0.07,0.021-0.142,0.037-0.21,0.064C3.17,17.18,3.111,17.217,3.051,17.25c-0.053,0.029-0.109,0.053-0.16,0.088  c-0.219,0.146-0.408,0.334-0.554,0.553c-0.032,0.049-0.056,0.102-0.083,0.152c-0.035,0.064-0.073,0.125-0.102,0.191  c-0.026,0.066-0.042,0.135-0.063,0.203c-0.017,0.057-0.039,0.111-0.051,0.172c-0.051,0.258-0.051,0.523,0,0.783  c0.012,0.059,0.034,0.113,0.051,0.17c0.021,0.068,0.036,0.137,0.063,0.203c0.028,0.066,0.066,0.127,0.102,0.191  c0.027,0.051,0.051,0.104,0.083,0.152c0.073,0.109,0.157,0.213,0.251,0.307l5.654,5.656c0.781,0.779,2.048,0.779,2.828,0  c0.781-0.781,0.781-2.049,0-2.83L8.828,21h8.025L12.854,17z"/>
<path d="M17.15,13H26l0,0c0.132,0,0.263-0.014,0.393-0.04c0.057-0.011,0.108-0.032,0.163-0.048c0.07-0.021,0.142-0.037,0.21-0.065  c0.064-0.027,0.123-0.064,0.184-0.097c0.053-0.029,0.109-0.053,0.16-0.087c0.219-0.146,0.408-0.335,0.554-0.554  c0.032-0.049,0.056-0.102,0.083-0.152c0.035-0.063,0.073-0.125,0.102-0.191c0.026-0.066,0.042-0.135,0.063-0.202  c0.017-0.058,0.039-0.112,0.051-0.171c0.051-0.258,0.051-0.525,0-0.783c-0.012-0.059-0.034-0.114-0.051-0.171  c-0.021-0.067-0.036-0.136-0.063-0.202c-0.028-0.067-0.066-0.128-0.102-0.191c-0.027-0.051-0.051-0.104-0.083-0.152  c-0.073-0.11-0.157-0.213-0.251-0.307l-5.654-5.656c-0.781-0.781-2.048-0.781-2.828,0c-0.781,0.781-0.781,2.047,0,2.829L21.172,9  H13.15L17.15,13z"/>
<path d="M8.854,13L4.867,9.013C3.826,9.083,3,9.941,3,11c0,1.104,0.896,2,2,2H8.854z"/>
<path d="M3.627,2.306C3.238,1.917,2.623,1.896,2.26,2.258C1.896,2.621,1.918,3.236,2.307,3.625l24.068,24.071  c0.389,0.389,1.004,0.408,1.366,0.045s0.341-0.979-0.048-1.367L3.627,2.306z"/>
</svg>
