<?xml version="1.0" encoding="UTF-8"?>
<!DOCTYPE svg PUBLIC "-//W3C//DTD SVG 1.1 Tiny//EN" "http://www.w3.org/Graphics/SVG/1.1/DTD/svg11-tiny.dtd">
<svg baseProfile="tiny" height="30px" version="1.1" viewBox="0 0 30 30" width="30px" x="0px" xmlns="http://www.w3.org/2000/svg" xmlns:xlink="http://www.w3.org/1999/xlink" y="0px">
<g fill-opacity="0.5" stroke-opacity="0.5">
<rect fill="none" height="30" width="30"/>
</g>
<path d="M22.5,1h-10C11.672,1,11,1.672,11,2.5v18c0,2.206,1.795,4,4,4s4-1.794,4-4v-11C19,8.672,18.328,8,17.5,8S16,8.672,16,9.5v11  c0,0.552-0.449,1-1,1s-1-0.448-1-1V4h7v18.5c0,2.481-2.019,4.5-4.5,4.5h-3C11.019,27,9,24.981,9,22.5v-13C9,8.672,8.328,8,7.5,8  S6,8.672,6,9.5v13c0,4.136,3.364,7.5,7.5,7.5h3c4.136,0,7.5-3.364,7.5-7.5v-20C24,1.672,23.328,1,22.5,1z"/>
</svg>
