<?xml version="1.0" encoding="UTF-8"?>
<!DOCTYPE svg PUBLIC "-//W3C//DTD SVG 1.1 Tiny//EN" "http://www.w3.org/Graphics/SVG/1.1/DTD/svg11-tiny.dtd">
<svg baseProfile="tiny" height="30px" version="1.1" viewBox="0 -2 30 30" width="30px" x="0px" xmlns="http://www.w3.org/2000/svg" xmlns:xlink="http://www.w3.org/1999/xlink" y="0px">
<path d="M15,0C8.112,0,2.491,5.361,2.043,12.137l3.571-1.765c0.054-1.057,0.374-2.246,0.589-2.511  c0.211-0.256,1.328-1.063,2.109-1.613l7.998,2.551L17.711,6l-5.601-1.4L8.989,5.775c0.058-0.039,0.1-0.068,0.1-0.068L8.759,5.232  C8.54,4.76,9.964,4.102,9.964,4.102c0.548,0.365,0.912,0,0.912,0l0.146-0.365l-0.146-0.547l0.677-0.842  C12.641,1.996,13.797,1.799,15,1.799c1.26,0,2.465,0.219,3.596,0.605l-0.797,0.795l1.4,1.4l1.326-1.326  c2.934,1.678,5.043,4.641,5.546,8.119c-0.585-1.176-1.067-2.545-1.067-2.545L23.215,8.52L21.61,7.9l0.913,1.238l0.656-0.291  c0,0,0.802,0.768,0.766,1.021c-0.036,0.258-1.239,1.424-1.239,1.424l-1.055,0.377l-1.393-1.145l-1.058-0.873l0.657,1.566  l0.876,0.914c0,0,1.533-0.219,1.752-0.037c0.22,0.182-0.291,1.572-0.291,1.572l-2.557,2.627l-0.255,2.627  c-1.424,0.732-1.57,1.859-1.57,1.859s-0.365-0.068-1.314,0.99c-0.948,1.059-1.972,0.781-1.972,0.781  c-1.204,0-1.423-0.781-1.423-1.039c0-0.254-1.205-2.225-1.205-2.885c0-0.656,0.365-1.459,0.365-1.459  c0.072-0.949-0.949-3.502-0.949-3.502h-0.787l0.395,6.139c0.07,1.106-0.469,2.156-1.409,2.74C9.034,22.844,8.487,23,7.928,23  c-0.477,0-0.947-0.114-1.371-0.332l-0.078,0.135C8.762,24.789,11.737,26,15,26c7.18,0,13-5.82,13-13S22.18,0,15,0z M22.116,21.643  l-0.703-0.635l1.4-2.799l1.884,0.371C24.022,19.748,23.152,20.789,22.116,21.643z"/>
<path d="M8.463,12.739c-0.021-0.333-0.209-0.634-0.498-0.802c-0.154-0.089-0.328-0.134-0.5-0.134c-0.152,0-0.304,0.034-0.443,0.104  l-6.465,3.196C0.227,15.268,0.012,15.6,0,15.968s0.181,0.714,0.5,0.898l1.859,1.073l-1.494,2.586c0,0-1.938,5.475,4.063,6.475  c0,0-1.197-1.949-0.598-4.475l1.492-2.586l1.605,0.927C7.583,20.955,7.756,21,7.928,21c0.184,0,0.367-0.051,0.528-0.15  c0.313-0.195,0.493-0.546,0.47-0.914L8.463,12.739z"/>
</svg>
