<?xml version="1.0" encoding="UTF-8"?>
<!DOCTYPE svg PUBLIC "-//W3C//DTD SVG 1.1 Tiny//EN" "http://www.w3.org/Graphics/SVG/1.1/DTD/svg11-tiny.dtd">
<svg baseProfile="tiny" height="10px" version="1.1" viewBox="0 0 10 10" width="10px" x="0px" xmlns="http://www.w3.org/2000/svg" xmlns:xlink="http://www.w3.org/1999/xlink" y="0px">
<rect fill="none" height="10" width="10"/>
<path d="M1,0v4c0,2.757,2.243,5,5,5h4V0H1z" fill="url(#SVGID_1_)"/>
<path d="M6,7C4.346,7,3,5.654,3,4V0H1v4c0,2.757,2.243,5,5,5h4V7H6z" fill="#5A5A64" fill-opacity="0.2" stroke-opacity="0.2"/>
<path d="M6,8C3.794,8,2,6.206,2,4V0H1v4c0,2.757,2.243,5,5,5h4V8H6z" fill="#5A5A64" fill-opacity="0.3" stroke-opacity="0.3"/>
<path d="M6,9C3.243,9,1,6.757,1,4V0H0v4c0,3.3,2.7,6,6,6h4V9H6z" fill="#FFFFFF"/>
<path d="M4,6C2.897,6,2,5.104,2,4V0H1v4c0,2.757,2.243,5,5,5h4V6H4z" fill-opacity="0.1" stroke-opacity="0.1"/>
<defs>
<linearGradient gradientUnits="userSpaceOnUse" id="SVGID_1_" x1="5.5" x2="5.5" y1="-58.9995" y2="8.863">
<stop offset="0" style="stop-color:#CCCCCC"/>
<stop offset="0.0043" style="stop-color:#CCCCCC"/>
<stop offset="0.35" style="stop-color:#FFFFFF"/>
<stop offset="0.7" style="stop-color:#FFFFFF"/>
<stop offset="1" style="stop-color:#D9D9D9"/>
</linearGradient>
</defs>
</svg>
