<?xml version="1.0" encoding="UTF-8"?>
<!DOCTYPE svg PUBLIC "-//W3C//DTD SVG 1.1 Tiny//EN" "http://www.w3.org/Graphics/SVG/1.1/DTD/svg11-tiny.dtd">
<svg baseProfile="tiny" height="30px" version="1.1" viewBox="0 0 30 30" width="30px" x="0px" xmlns="http://www.w3.org/2000/svg" xmlns:xlink="http://www.w3.org/1999/xlink" y="0px">
<g fill-opacity="0.5" stroke-opacity="0.5">
<rect fill="none" height="30" width="30"/>
</g>
<path d="M22.5,10H20V7.5C20,6.672,19.328,6,18.5,6S17,6.672,17,7.5V10h-2.5c-0.828,0-1.5,0.672-1.5,1.5c0,0.828,0.672,1.5,1.5,1.5  H17v2.5c0,0.828,0.672,1.5,1.5,1.5s1.5-0.672,1.5-1.5V13h2.5c0.828,0,1.5-0.672,1.5-1.5C24,10.672,23.328,10,22.5,10z"/>
<path d="M11.281,18.719c4.1,4.102,10.748,4.102,14.848,0c4.102-4.1,4.102-10.748,0-14.848c-4.1-4.102-10.748-4.102-14.85-0.002  C7.18,7.971,7.18,14.619,11.281,18.719z M24.008,5.992c2.93,2.93,2.93,7.678,0,10.605c-2.928,2.93-7.678,2.93-10.605,0  C10.473,13.67,10.473,8.92,13.4,5.99C16.33,3.063,21.078,3.063,24.008,5.992z"/>
<path d="M1.381,27.205l1.414,1.414c0.781,0.781,2.047,0.781,2.828,0l-4.242-4.242C0.6,25.158,0.6,26.424,1.381,27.205z"/>
<path d="M26,21.432V26H11.07l-2.619,2.619C8.281,28.791,8.082,28.906,7.875,29H27c1.105,0,2-0.896,2-2v-8.623  c-0.429,0.621-0.911,1.211-1.457,1.756C27.063,20.615,26.541,21.039,26,21.432z"/>
<path d="M4,18.93V4h4.555c0.389-0.541,0.824-1.059,1.311-1.545C10.41,1.91,11,1.429,11.621,1H3C1.896,1,1,1.896,1,3v19.129  c0.096-0.211,0.214-0.412,0.381-0.58L4,18.93z"/>
<path d="M29,4.214V3c0-1.104-0.895-2-2-2h-1.213c0.621,0.429,1.211,0.912,1.757,1.457C28.09,3.002,28.571,3.593,29,4.214z"/>
<path d="M10.17,21.951l1.541-1.541c-0.393-0.303-0.777-0.623-1.139-0.982c-0.359-0.361-0.68-0.746-0.982-1.139l-1.541,1.543  c-0.766-0.451-1.768-0.355-2.426,0.303l-2.828,2.828l4.242,4.242l2.828-2.828C10.524,23.719,10.622,22.719,10.17,21.951z"/>
</svg>
