<?xml version="1.0" encoding="UTF-8"?>
<!DOCTYPE svg PUBLIC "-//W3C//DTD SVG 1.1 Tiny//EN" "http://www.w3.org/Graphics/SVG/1.1/DTD/svg11-tiny.dtd">
<svg baseProfile="tiny" height="15px" version="1.1" viewBox="0 0 15 15" width="15px" x="0px" xmlns="http://www.w3.org/2000/svg" xmlns:xlink="http://www.w3.org/1999/xlink" y="0px">
<rect fill="none" height="15" width="15"/>
<path d="M15,6h-4C6.389,6,3.515,3.344,2.362,0.859  C2.032,0.148,1.552,0,1.207,0C0.652,0,0.191,0.406,0.031,1.035L0,1.156V15h15V6z" fill="#14141E" fill-opacity="0.1" fill-rule="evenodd" stroke-opacity="0.1"/>
<rect fill="none" fill-rule="evenodd" height="15" width="15"/>
<linearGradient gradientUnits="userSpaceOnUse" id="SVGID_1_" x1="9" x2="9" y1="9.333" y2="55.8683">
<stop offset="0" style="stop-color:#E6E6E6"/>
<stop offset="1" style="stop-color:#FFFFFF"/>
</linearGradient>
<path d="M15,9h-4C9.141,9,7.384,8.656,5.779,7.979L3,6.804V15h12V9z  " fill="url(#SVGID_1_)" fill-rule="evenodd"/>
<linearGradient gradientUnits="userSpaceOnUse" id="SVGID_2_" x1="8" x2="8" y1="1.25" y2="58.3048">
<stop offset="0" style="stop-color:#66B8CC"/>
<stop offset="1" style="stop-color:#3F89A9"/>
</linearGradient>
<path d="M4,8.313L5.39,8.9C7.116,9.629,9.004,10,11,10h4V7h-4  C6,7,2.797,4.174,1.455,1.281C1.161,0.648,1,1.281,1,1.281V15h3V8.313z" fill="url(#SVGID_2_)" fill-rule="evenodd"/>
</svg>
