<?xml version="1.0" encoding="UTF-8"?>
<!DOCTYPE svg PUBLIC "-//W3C//DTD SVG 1.1 Tiny//EN" "http://www.w3.org/Graphics/SVG/1.1/DTD/svg11-tiny.dtd">
<svg baseProfile="tiny" height="30" viewBox="0 0 30 30" width="30" xmlns="http://www.w3.org/2000/svg" xmlns:xlink="http://www.w3.org/1999/xlink">
<g>
<rect fill="none" height="30" width="30"/>
<path d="M1,29v-1c0-2.974,1.324-5.258,3.83-6.606c0.602-0.324,1.942-0.849,3.771-1.554  c0.68-0.262,1.493-0.576,1.889-0.743c0.147-0.423,0.11-1.146,0.001-1.362c0,0-1.105-2.003-1.146-2.088  c-0.909-0.094-1.778-0.873-2.203-1.998c-0.457-1.209-0.286-2.413,0.373-3.094c-0.589-2.53-0.458-4.477,0.393-5.793  C8.413,3.98,9.175,3.434,10.08,3.195C11.014,2.066,12.33,1,14.762,1c2.838,0.096,5.041,1.074,6.405,2.831  c1.341,1.728,1.776,4.13,1.23,6.78c0.621,0.697,0.759,1.895,0.283,3.083c-0.411,1.032-1.173,1.747-2.007,1.916  c-0.046,0.097-1.174,2.138-1.174,2.138c-0.121,0.24-0.136,1.033,0.023,1.416c0.333,0.133,0.99,0.381,1.586,0.605  c1.942,0.73,3.475,1.314,4.054,1.619C25.804,21.728,29,23.636,29,28v1H1z" fill-opacity="0.6"/>
<linearGradient gradientUnits="userSpaceOnUse" id="SVGID_1_" x1="15.0024" x2="15.0024" y1="24.1553" y2="17.2445">
<stop offset="0" style="stop-color:#DDC4B0"/>
<stop offset="0.2" style="stop-color:#DDC4B0"/>
<stop offset="0.9628" style="stop-color:#A57665"/>
<stop offset="1" style="stop-color:#A57665"/>
</linearGradient>
<path d="M19.167,20.203c-0.92-0.404-0.89-2.39-0.512-2.99c0.066-0.105,0.127-0.209,0.191-0.314h-7.693  c0.064,0.105,0.124,0.209,0.19,0.314c0.379,0.601,0.408,2.586-0.511,2.99c-0.92,0.405,4.274,3.932,4.274,3.932  S20.087,20.608,19.167,20.203z" fill="url(#SVGID_1_)"/>
<path d="M11.344,17.213c0.154,0.244,0.245,0.721,0.243,1.225c0.866,0.945,2.058,1.894,3.355,1.894  c1.663,0,2.726-0.854,3.475-1.778c-0.02-0.546,0.072-1.076,0.238-1.34c0.066-0.105,0.127-0.209,0.191-0.314h-7.693  C11.218,17.004,11.277,17.107,11.344,17.213z" fill-opacity="0.1" stroke-opacity="0.1"/>
<linearGradient gradientUnits="userSpaceOnUse" id="SVGID_2_" x1="14.9995" x2="14.9995" y1="19.8359" y2="28">
<stop offset="0" style="stop-color:#C39072"/>
<stop offset="1" style="stop-color:#88444B"/>
</linearGradient>
<path d="M24.696,22.273c-0.968-0.51-5.761-2.212-5.852-2.318l-3.662,3.086l-3.935-3.205  C11.14,20,6.4,21.684,5.304,22.273C4.049,22.949,2,24.501,2,28h26C28,24.501,25.662,22.783,24.696,22.273z" fill="url(#SVGID_2_)"/>
<path d="M24.229,23.158c-0.513-0.271-2.506-1.021-3.825-1.518c-0.627-0.236-1.068-0.402-1.385-0.525l-0.312,0.263  c0.204,0.077,0.43,0.163,0.696,0.263c1.319,0.496,3.313,1.247,3.825,1.518c0.411,0.217,2.283,1.334,2.691,3.842h1  C26.513,24.492,24.641,23.375,24.229,23.158z" fill="#CCA089"/>
<path d="M6.777,23.154c0.538-0.289,2.28-0.961,3.552-1.451c0.441-0.17,0.802-0.309,1.104-0.427l-0.328-0.267  c-0.384,0.157-0.942,0.373-1.775,0.693c-1.271,0.49-3.014,1.162-3.552,1.451C4.223,23.991,3.314,25.282,3.068,27h1  C4.314,25.282,5.223,23.991,6.777,23.154z" fill="#CCA089"/>
<radialGradient cx="-107.9609" cy="23.2217" gradientTransform="matrix(0.9352 0 0 0.9448 112.9225 -13.3229)" gradientUnits="userSpaceOnUse" id="SVGID_3_" r="14.0323">
<stop offset="0" style="stop-color:#F4EDE4"/>
<stop offset="0.5091" style="stop-color:#E8D9CA"/>
<stop offset="0.7636" style="stop-color:#DDC4B0"/>
<stop offset="1" style="stop-color:#BF9C89"/>
</radialGradient>
<path d="M21.378,11.076c-0.033-0.016-0.069-0.019-0.104-0.029v-0.001c-0.006-0.001-0.012-0.003-0.02-0.004  c-0.05-0.013-0.101-0.024-0.153-0.028c-6.421-1.133-9.367-4.738-9.59-3.783c-0.176,0.76-1.977,2.402-2.919,3.223  c0.008,0.036,0.013,0.069,0.02,0.105c0,0,0.034,0.169,0.105,0.455c-0.075,0.008-0.148,0.023-0.22,0.055  c-0.6,0.256-0.788,1.254-0.42,2.227c0.368,0.975,1.152,1.557,1.751,1.302c0.038-0.017,0.069-0.044,0.103-0.065  c0.35,0.795,0.777,1.646,1.302,2.5c0.878,1.059,2.224,2.3,3.709,2.3c1.797,0,2.897-0.997,3.653-2.002  c0.019-0.042,0.039-0.082,0.06-0.116c0.561-0.888,1.015-1.778,1.383-2.607c0.587,0.207,1.341-0.346,1.714-1.283  C22.14,12.354,21.972,11.348,21.378,11.076z" fill="url(#SVGID_3_)"/>
<linearGradient gradientUnits="userSpaceOnUse" id="SVGID_4_" x1="14.8901" x2="14.8901" y1="2.1216" y2="10.4031">
<stop offset="0" style="stop-color:#725B53"/>
<stop offset="0.3758" style="stop-color:#451F1E"/>
<stop offset="1" style="stop-color:#261013"/>
</linearGradient>
<path d="M14.762,2c-2.226,0-3.297,1.026-4.123,2.099c-1.345,0.21-3.476,1.46-1.971,6.933  c0.942-0.82,2.668-3.041,2.844-3.801c0.225-0.964,3.221,2.719,9.763,3.815c0.077-0.306,0.112-0.487,0.112-0.487  C22.414,5.887,20.179,2.183,14.762,2z" fill="url(#SVGID_4_)"/>
<linearGradient gradientUnits="userSpaceOnUse" id="SVGID_5_" x1="15.0591" x2="15.0591" y1="20.1875" y2="25.6254">
<stop offset="0" style="stop-color:#8C4C54"/>
<stop offset="1" style="stop-color:#53343E"/>
</linearGradient>
<path d="M20.96,20.781c-1.13-0.426-2.075-0.779-2.115-0.826l-3.662,3.086l-3.935-3.205  c-0.047,0.071-0.971,0.43-2.09,0.861l6.046,4.939L20.96,20.781z" fill="url(#SVGID_5_)"/>
<rect fill="none" height="30" width="30"/>
</g>
</svg>
