<?xml version="1.0" encoding="UTF-8"?>
<!DOCTYPE svg PUBLIC "-//W3C//DTD SVG 1.1 Tiny//EN" "http://www.w3.org/Graphics/SVG/1.1/DTD/svg11-tiny.dtd">
<svg baseProfile="tiny" height="30" viewBox="0 0 30 30" width="30" xmlns="http://www.w3.org/2000/svg" xmlns:xlink="http://www.w3.org/1999/xlink">
<g>
<rect fill="none" height="30" width="30"/>
<path d="M25,13h-1v-3c0-4.963-4.037-9-9-9c-4.963,0-9,4.037-9,9v3H5c-1.654,0-3,1.346-3,3v10  c0,1.654,1.346,3,3,3h20c1.654,0,3-1.346,3-3V16C28,14.346,26.654,13,25,13z M12,10c0-1.654,1.346-3,3-3c1.654,0,3,1.346,3,3v3h-6  V10z" fill-opacity="0.6"/>
<linearGradient gradientUnits="userSpaceOnUse" id="SVGID_1_" x1="7.0005" x2="23" y1="14" y2="14">
<stop offset="0" style="stop-color:#B4B4B4"/>
<stop offset="0.2083" style="stop-color:#F0F0F0"/>
<stop offset="0.526" style="stop-color:#969696"/>
<stop offset="0.8061" style="stop-color:#A1A1A1"/>
<stop offset="1" style="stop-color:#BEBEBE"/>
</linearGradient>
<path d="M15,6c2.207,0,4,1.794,4,4v8c0,2.206-1.793,4-4,4c-2.206,0-4-1.794-4-4v-8C11,7.794,12.794,6,15,6   M15,2c-4.4,0-8,3.6-8,8v8c0,4.4,3.6,8,8,8c4.4,0,8-3.6,8-8v-8C23,5.6,19.4,2,15,2L15,2z" fill="url(#SVGID_1_)"/>
<linearGradient gradientUnits="userSpaceOnUse" id="SVGID_2_" x1="7.0005" x2="23" y1="9" y2="9">
<stop offset="0" style="stop-color:#8C8C8C"/>
<stop offset="0.2083" style="stop-color:#BDBDBD"/>
<stop offset="0.526" style="stop-color:#707070"/>
<stop offset="1" style="stop-color:#8F8F8F"/>
</linearGradient>
<path d="M11,16v-6c0-2.206,1.794-4,4-4c2.207,0,4,1.794,4,4v6h4v-6c0-4.4-3.6-8-8-8c-4.4,0-8,3.6-8,8v6H11z" fill="url(#SVGID_2_)"/>
<linearGradient gradientUnits="userSpaceOnUse" id="SVGID_3_" x1="8.0005" x2="22" y1="9.5" y2="9.5">
<stop offset="0" style="stop-color:#B4B4B4"/>
<stop offset="0.2083" style="stop-color:#F0F0F0"/>
<stop offset="0.526" style="stop-color:#969696"/>
<stop offset="0.8061" style="stop-color:#A1A1A1"/>
<stop offset="1" style="stop-color:#BEBEBE"/>
</linearGradient>
<path d="M10,16v-6c0-2.757,2.243-5,5-5c2.757,0,5,2.243,5,5v6h2v-6c0-3.859-3.141-7-7-7c-3.859,0-7,3.141-7,7  v6H10z" fill="url(#SVGID_3_)"/>
<linearGradient gradientUnits="userSpaceOnUse" id="SVGID_4_" x1="3.0005" x2="27" y1="21" y2="21">
<stop offset="0" style="stop-color:#C2A770"/>
<stop offset="0.24" style="stop-color:#DED7B3"/>
<stop offset="0.75" style="stop-color:#AA8250"/>
<stop offset="1" style="stop-color:#BCA162"/>
</linearGradient>
<path d="M27,26c0,1.1-0.9,2-2,2H5c-1.1,0-2-0.9-2-2V16c0-1.1,0.9-2,2-2h20c1.1,0,2,0.9,2,2V26z" fill="url(#SVGID_4_)"/>
<path d="M25,27H5c-1.1,0-2-0.9-2-2v1c0,1.1,0.9,2,2,2h20c1.1,0,2-0.9,2-2v-1C27,26.1,26.1,27,25,27z" fill="#5E2D29" fill-opacity="0.2" stroke-opacity="0.2"/>
<path d="M25,14H5c-1.1,0-2,0.9-2,2v1c0-1.1,0.9-2,2-2h20c1.1,0,2,0.9,2,2v-1C27,14.9,26.1,14,25,14z" fill="#FFFFFF" fill-opacity="0.4" stroke-opacity="0.4"/>
<rect fill-opacity="0.2" height="2" stroke-opacity="0.2" width="24" x="3" y="23"/>
<rect fill-opacity="0.2" height="2" stroke-opacity="0.2" width="24" x="3" y="19"/>
<rect fill="none" height="30" width="30" x="0"/>
</g>
</svg>
