<?xml version="1.0" encoding="UTF-8"?>
<!DOCTYPE svg PUBLIC "-//W3C//DTD SVG 1.1 Tiny//EN" "http://www.w3.org/Graphics/SVG/1.1/DTD/svg11-tiny.dtd">
<svg baseProfile="tiny" height="30px" version="1.1" viewBox="-2 -9 30 30" width="30px" x="0px" xmlns="http://www.w3.org/2000/svg" xmlns:xlink="http://www.w3.org/1999/xlink" y="0px">
<path d="M25,4H9V1c0-0.375-0.209-0.718-0.542-0.889C8.313,0.037,8.156,0,8,0C7.795,0,7.592,0.063,7.419,0.186l-7,5.001  C0.156,5.374,0,5.678,0,6c0,0.323,0.156,0.626,0.419,0.814l7,5C7.592,11.938,7.795,12,8,12c0.156,0,0.313-0.037,0.457-0.111  C8.791,11.718,9,11.375,9,11V8h16c1.104,0,2-0.896,2-2S26.104,4,25,4z"/>
</svg>
