<?xml version="1.0" encoding="UTF-8"?>
<!DOCTYPE svg PUBLIC "-//W3C//DTD SVG 1.1 Tiny//EN" "http://www.w3.org/Graphics/SVG/1.1/DTD/svg11-tiny.dtd">
<svg baseProfile="tiny" height="30" viewBox="0 0 30 30" width="30" xmlns="http://www.w3.org/2000/svg" xmlns:xlink="http://www.w3.org/1999/xlink">
<g>
<rect fill="none" height="30" width="30"/>
<path d="M27.771,5.936L21.92,6.904l0.234,1.459c-0.145-0.002-0.285-0.004-0.4-0.004C19.391,6.07,17.258,5,15.063,5  c-1.342,0-2.463,0.404-3.451,0.76l-0.273,0.102c-0.482,0.221-1.266,1.016-2.053,1.916c-0.309,0.018-0.621,0.023-0.914,0.07  l-0.453,0.07L8.08,6.904L2.229,5.936L0,19.752l5.852,0.969l0.041-0.254c0.158,0.254,0.363,0.477,0.613,0.641  c0.34,0.23,2.76,1.828,4.266,2.824l1.139,0.752C12.211,24.885,12.633,25,13.066,25c0.344,0,0.676-0.07,0.971-0.203  c0.117-0.051,0.613-0.332,1.18-0.684c0.383,0.053,0.768,0.09,1.158,0.09h0.018l2.125-0.078c1.697-0.061,3.5-1.969,4.752-3.627  c0.016,0,0.027,0.006,0.043,0.006l0,0c0.359,0,0.648-0.066,0.703-0.08l0.082-0.02l0.051,0.316L30,19.752L27.771,5.936z" fill-opacity="0.6" stroke-opacity="0.6"/>
<linearGradient gradientUnits="userSpaceOnUse" id="SVGID_1_" x1="5.6558" x2="22.9905" y1="15.9707" y2="15.9707">
<stop offset="0" style="stop-color:#BEAA67"/>
<stop offset="1" style="stop-color:#B69656"/>
</linearGradient>
<path d="M8.514,8.838C7.975,8.916,7.43,9.006,7.096,9.053L6.391,9.025l-1.074,7.865l0.521,0.492  c1.512,1.336,5.945,5.82,10.537,5.82l2.107-0.076l0,0c1.711-0.063,3.928-3.133,4.145-3.422C24.459,17.523,16.092,7.641,8.514,8.838z  " fill="url(#SVGID_1_)"/>
<path d="M10.77,14.654c-0.434-0.279-0.932-0.428-1.441-0.428c-0.215,0-0.432,0.025-0.648,0.076  c-0.98,0.232-1.709,0.977-2.293,1.574L6.178,16.09c-0.285,0.285-0.459,0.662-0.559,1.086l0.219,0.207  c1.512,1.336,5.945,5.82,10.537,5.82l0.201-0.008c0.195-0.148,0.375-0.291,0.496-0.412c0.67-0.676,0.934-1.541,0.75-2.449  C17.775,19.791,17.33,18.445,10.77,14.654z" fill-opacity="0.2" stroke-opacity="0.2"/>
<linearGradient gradientTransform="matrix(1 0 0 -1 -6 35)" gradientUnits="userSpaceOnUse" id="SVGID_2_" x1="17.6895" x2="17.6895" y1="20.0127" y2="-2.761">
<stop offset="0" style="stop-color:#E5E2C3"/>
<stop offset="0.1337" style="stop-color:#E1DAB8"/>
<stop offset="0.3918" style="stop-color:#D5C69C"/>
<stop offset="0.7449" style="stop-color:#C2A270"/>
<stop offset="1" style="stop-color:#B3834D"/>
</linearGradient>
<path d="M10.238,15.496c-0.398-0.256-0.859-0.33-1.332-0.219c-0.801,0.189-1.455,0.945-2.029,1.52  c-0.576,0.58-0.346,2.322-0.322,2.627c0.025,0.348,0.213,0.662,0.502,0.852c0.465,0.314,4.816,3.188,5.398,3.574  c0.188,0.125,0.693,0.252,1.197,0.025c0.18-0.076,2.178-1.258,2.721-1.801c0.471-0.475,0.602-1.021,0.465-1.602  C16.791,19.287,10.238,15.496,10.238,15.496z" fill="url(#SVGID_2_)"/>
<path d="M6.877,17.797c0.574-0.574,1.229-1.33,2.029-1.52c0.473-0.111,0.934-0.037,1.332,0.219  c0,0,6.221,3.602,6.568,4.879c0.094-0.287,0.105-0.59,0.031-0.902c-0.047-1.186-6.6-4.977-6.6-4.977  c-0.398-0.256-0.859-0.33-1.332-0.219c-0.801,0.189-1.455,0.945-2.029,1.52c-0.418,0.42-0.41,1.445-0.367,2.098  C6.547,18.453,6.645,18.031,6.877,17.797z" fill="#FFFFFF" fill-opacity="0.4" stroke-opacity="0.4"/>
<path d="M8.514,8.838C8.467,8.844,8.42,8.852,8.373,8.857C8.061,9.242,7.766,9.615,7.514,9.939  c-0.711,1.094-0.439,1.959-0.217,2.379c0.432,0.807,1.412,1.309,2.557,1.309c0.73,0,1.459-0.197,2.104-0.574  c1.033-0.6,1.846-1.178,2.461-1.754c1.135,0.576,3.246,1.908,4.084,2.779c1.008,1.049,2.641,4.008,2.949,5.154  c0.121,0.443,0.4,0.773,0.779,0.99c0.207-0.26,0.35-0.455,0.396-0.518C24.459,17.523,16.092,7.641,8.514,8.838z" fill-opacity="0.2" stroke-opacity="0.2"/>
<linearGradient gradientTransform="matrix(1 0 0 -1 -6 35)" gradientUnits="userSpaceOnUse" id="SVGID_3_" x1="22.4619" x2="22.4619" y1="29.3672" y2="-5.6876">
<stop offset="0" style="stop-color:#E5E2C3"/>
<stop offset="0.1337" style="stop-color:#E1DAB8"/>
<stop offset="0.3918" style="stop-color:#D5C69C"/>
<stop offset="0.7449" style="stop-color:#C2A270"/>
<stop offset="1" style="stop-color:#B3834D"/>
</linearGradient>
<path d="M23.408,9.369c-0.021,0-1.93-0.008-2.07-0.023c-4.553-4.561-7.27-3.404-9.592-2.574  c-0.789,0.361-3.404,3.717-3.404,3.717c-1.143,1.76,1.277,2.773,3.121,1.699c1.561-0.908,2.311-1.6,2.725-2.08  c0.953,0.326,3.936,2.141,5.025,3.275c1.09,1.133,2.83,4.232,3.191,5.582c0.213,0.773,1.377,0.488,1.377,0.488l1.096-0.486  L23.408,9.369z" fill="url(#SVGID_3_)"/>
<path d="M8.342,11.488c0,0,2.615-3.355,3.404-3.717c2.322-0.83,5.039-1.986,9.592,2.574  c0.141,0.016,2.049,0.023,2.07,0.023l1.326,8.662l0.143-0.064l-1.469-9.598c-0.021,0-1.93-0.008-2.07-0.023  c-4.553-4.561-7.27-3.404-9.592-2.574c-0.789,0.361-3.404,3.717-3.404,3.717c-0.34,0.523-0.359,0.979-0.178,1.334  C8.209,11.715,8.268,11.604,8.342,11.488z" fill="#FFFFFF" fill-opacity="0.4" stroke-opacity="0.4"/>
<path d="M23.934,19.385l0.943-0.418l-1.469-9.598c-0.012,0-0.561-0.002-1.092-0.006L23.934,19.385z" fill-opacity="0.2" stroke-opacity="0.2"/>
<linearGradient gradientTransform="matrix(0.9869 -0.1613 0.1613 0.9869 -176.9958 -51.6826)" gradientUnits="userSpaceOnUse" id="SVGID_4_" x1="189.8135" x2="189.8135" y1="90.9219" y2="103.5013">
<stop offset="0" style="stop-color:#F9F9F9"/>
<stop offset="0.1669" style="stop-color:#EEEEEE"/>
<stop offset="0.7665" style="stop-color:#C5C5C5"/>
<stop offset="1" style="stop-color:#B5B5B5"/>
</linearGradient>
<polygon fill="url(#SVGID_4_)" points="28.863,18.926 24.967,19.572 23.057,7.729 26.953,7.084 "/>
<polygon fill="#FFFFFF" fill-opacity="0.4" points="25.953,8.084 27.732,19.113 28.863,18.926 26.953,7.084 23.057,7.729 23.188,8.541   " stroke-opacity="0.4"/>
<path d="M7.75,8.953c-0.254,0.039-0.482,0.076-0.654,0.1L6.391,9.025l-1.074,7.865l0.521,0.492  c0.135,0.119,0.301,0.271,0.482,0.436L7.75,8.953z" fill-opacity="0.2" stroke-opacity="0.2"/>
<linearGradient gradientTransform="matrix(-0.9869 -0.1613 -0.1613 0.9869 -641.6711 -51.6826)" gradientUnits="userSpaceOnUse" id="SVGID_5_" x1="-647.7456" x2="-647.7456" y1="-46.2344" y2="-33.6554">
<stop offset="0" style="stop-color:#F9F9F9"/>
<stop offset="1" style="stop-color:#B5B5B5"/>
</linearGradient>
<polygon fill="url(#SVGID_5_)" points="1.137,18.926 5.033,19.572 6.945,7.729 3.047,7.084 "/>
<polygon fill="#FFFFFF" fill-opacity="0.4" points="3.047,7.084 2.863,8.219 5.945,8.729 4.217,19.436 5.033,19.572 6.945,7.729 " stroke-opacity="0.4"/>
</g>
</svg>
