<?xml version="1.0" encoding="UTF-8"?>
<!DOCTYPE svg PUBLIC "-//W3C//DTD SVG 1.1 Tiny//EN" "http://www.w3.org/Graphics/SVG/1.1/DTD/svg11-tiny.dtd">
<svg baseProfile="tiny" height="30px" version="1.1" viewBox="0 0 30 30" width="30px" x="0px" xmlns="http://www.w3.org/2000/svg" xmlns:xlink="http://www.w3.org/1999/xlink" y="0px">
<g fill-opacity="0.5" stroke-opacity="0.5">
<rect fill="none" height="30" width="30"/>
</g>
<path d="M0,17.5C0,19.985,1.791,22,4,22v-9C1.791,13,0,15.015,0,17.5z"/>
<path d="M26,13v9c2.209,0,4-2.015,4-4.5S28.209,13,26,13z"/>
<path d="M15,2C9.486,2,5,6.486,5,12v10c0,0.553,0.447,1,1,1s1-0.447,1-1V12c0-4.411,3.589-8,8-8s8,3.589,8,8v10c0,0.553,0.447,1,1,1  s1-0.447,1-1V12C25,6.486,20.514,2,15,2z"/>
<path d="M14,6v8.778l-3.736-3.666L9,12.446l5,4.555l-5,4.612l1.264,1.332l3.743-3.486L14,28l6-6.999l-4-4l4-4L14,6z M17.473,21.001  l-1.998,2.5V19.28L17.473,21.001z M15.475,14.779v-4.223l1.998,2.444L15.475,14.779z"/>
</svg>
