<?xml version="1.0" encoding="UTF-8"?>
<!DOCTYPE svg PUBLIC "-//W3C//DTD SVG 1.1 Tiny//EN" "http://www.w3.org/Graphics/SVG/1.1/DTD/svg11-tiny.dtd">
<svg baseProfile="tiny" height="30px" version="1.1" viewBox="0 0 30 30" width="30px" x="0px" xmlns="http://www.w3.org/2000/svg" xmlns:xlink="http://www.w3.org/1999/xlink" y="0px">
<g fill-opacity="0.5" stroke-opacity="0.5">
<rect fill="none" height="30" width="30"/>
</g>
<path d="M8.262,21.141c-1.67,0-2.926-0.531-3.766-1.596c-0.842-1.063-1.262-2.811-1.262-5.242c0-2.18,0.423-3.815,1.27-4.908  s2.117-1.64,3.811-1.64c0.691,0,1.386,0.094,2.083,0.281v1.538c-0.691-0.205-1.31-0.308-1.854-0.308  c-0.932,0-1.629,0.415-2.092,1.243c-0.463,0.83-0.694,2.07-0.694,3.723c0,1.922,0.238,3.302,0.716,4.14s1.194,1.257,2.149,1.257  c0.557,0,1.148-0.088,1.775-0.264v1.494C9.7,21.047,8.988,21.141,8.262,21.141z"/>
<path d="M17.569,19.523c-0.703,1.078-1.717,1.617-3.041,1.617c-0.973,0-1.729-0.265-2.268-0.795s-0.809-1.273-0.809-2.229  c0-0.75,0.168-1.367,0.505-1.85c0.337-0.484,0.875-0.846,1.613-1.086s1.866-0.366,3.384-0.378v-1.002c0-0.58-0.16-1.017-0.479-1.31  s-0.795-0.439-1.428-0.439c-0.732,0-1.632,0.167-2.698,0.501v-1.529c1.113-0.299,2.2-0.448,3.261-0.448  c1.219,0,2.147,0.28,2.786,0.84s0.958,1.384,0.958,2.474V21h-1.389L17.569,19.523z M16.954,16.087H16.11  c-0.768,0-1.344,0.167-1.728,0.501s-0.575,0.832-0.575,1.494c0,0.527,0.114,0.923,0.343,1.187s0.571,0.396,1.028,0.396  c0.574,0,1.014-0.183,1.318-0.549s0.457-0.884,0.457-1.552V16.087z"/>
<path d="M21.709,21V10.726h1.389l0.466,1.705c0.287-0.598,0.683-1.047,1.187-1.349s1.116-0.453,1.837-0.453  c0.188,0,0.325,0.006,0.413,0.018v1.969c-0.328-0.023-0.568-0.035-0.721-0.035c-0.791,0-1.354,0.175-1.688,0.523  s-0.501,0.924-0.501,1.727V21H21.709z"/>
</svg>
