<?xml version="1.0" encoding="UTF-8"?>
<!DOCTYPE svg PUBLIC "-//W3C//DTD SVG 1.1 Tiny//EN" "http://www.w3.org/Graphics/SVG/1.1/DTD/svg11-tiny.dtd">
<svg baseProfile="tiny" height="60px" version="1.1" viewBox="0 0 30 60" width="30px" x="0px" xmlns="http://www.w3.org/2000/svg" xmlns:xlink="http://www.w3.org/1999/xlink" y="0px">
<rect fill="none" height="60" width="30"/>
<path d="M24,0H0v60h24c3.299,0,6-2.7,6-6V6C30,2.7,27.299,0,24,0z" fill="url(#SVGID_1_)"/>
<path d="M24,0H0v5h27c0.542,0,1,0.458,1,1v50c0,2.206-1.795,4-4,4c3.3,0,6-2.7,6-6V6C30,2.7,27.3,0,24,0z" fill-opacity="0.05"/>
<path d="M24,0H0v4h28c1.084,0,2,0.916,2,2C30,2.7,27.3,0,24,0z" fill-opacity="0.1"/>
<path d="M24,0H0v3h27c1.654,0,3,1.346,3,3C30,2.7,27.3,0,24,0z" fill-opacity="0.1"/>
<path d="M24,0H0v2h26c2.205,0,4,1.794,4,4C30,2.7,27.3,0,24,0z" fill-opacity="0.1"/>
<path d="M24,0H0v1h24c2.757,0,5,2.243,5,5v48c0,2.757-2.243,5-5,5H0v1h24c3.3,0,6-2.7,6-6V6C30,2.7,27.3,0,24,0z" fill-opacity="0.2" stroke-opacity="0.2"/>
<defs>
<linearGradient gradientUnits="userSpaceOnUse" id="SVGID_1_" x1="15" x2="15" y1="60" y2="4.882813e-004">
<stop offset="0" style="stop-color:#66B8CC"/>
<stop offset="1" style="stop-color:#3F89A9"/>
</linearGradient>
</defs>
</svg>
