<?xml version="1.0" encoding="UTF-8"?>
<!DOCTYPE svg PUBLIC "-//W3C//DTD SVG 1.1 Tiny//EN" "http://www.w3.org/Graphics/SVG/1.1/DTD/svg11-tiny.dtd">
<svg baseProfile="tiny" height="30px" version="1.1" viewBox="-1 -1 30 30" width="30px" x="0px" xmlns="http://www.w3.org/2000/svg" xmlns:xlink="http://www.w3.org/1999/xlink" y="0px">
<path d="M5.143,7.5c0-3.229,2.023-5.971,4.857-7.029C9.197,0.174,8.334,0,7.428,0C3.324,0,0,3.357,0,7.5S3.324,15,7.428,15  c0.906,0,1.77-0.17,2.572-0.471C7.166,13.473,5.143,10.729,5.143,7.5z"/>
<path d="M8,27c0.02-0.284,0.561-6.051,5.498-6.543c1.136-0.024,2.5-0.562,2.5-1.996v-0.362c0-0.158-0.074-0.309-0.205-0.404  C14.123,16.479,13,13.985,13,11.481C13,7.905,15.242,5,18,5s5,2.905,5,6.481c0,2.504-1.123,4.998-2.797,6.213  c-0.127,0.096-0.205,0.246-0.205,0.404v0.362c0,1.58,1.639,1.996,2.501,1.996C27.439,20.949,27.977,26.716,28,27H8z"/>
</svg>
