<?xml version="1.0" encoding="UTF-8"?>
<!DOCTYPE svg PUBLIC "-//W3C//DTD SVG 1.1 Tiny//EN" "http://www.w3.org/Graphics/SVG/1.1/DTD/svg11-tiny.dtd">
<svg baseProfile="tiny" height="30" viewBox="0 0 30 30" width="30" xmlns="http://www.w3.org/2000/svg" xmlns:xlink="http://www.w3.org/1999/xlink">
<g>
<rect fill="none" height="30" width="30"/>
<path d="M15,29C7.28,29,1,22.721,1,15C1,7.28,7.28,1,15,1c7.721,0,14,6.28,14,14  C29,22.721,22.721,29,15,29L15,29z" fill-opacity="0.6" stroke-opacity="0.6"/>
<linearGradient gradientTransform="matrix(1 0 0 1 -578.9609 -812.0391)" gradientUnits="userSpaceOnUse" id="SVGID_1_" x1="593.9609" x2="593.9609" y1="813.9805" y2="840.3448">
<stop offset="0" style="stop-color:#6DADC1"/>
<stop offset="1" style="stop-color:#3B518A"/>
</linearGradient>
<circle cx="15" cy="15" fill="url(#SVGID_1_)" r="13"/>
<path d="M15,3c7.012,0,12.71,5.555,12.975,12.5  C27.98,15.333,28,15.169,28,15c0-7.179-5.82-13-13-13C7.82,2,2,7.821,2,15c0,0.169,0.02,0.333,0.025,0.5C2.29,8.555,7.988,3,15,3z" fill="#FFFFFF" fill-opacity="0.4" stroke-opacity="0.4"/>
<path d="M24.75,16.234c0,1.563-0.314,2.916-0.943,4.06  c-0.762,1.408-1.863,2.115-3.307,2.115c-1.4,0-2.413-0.707-3.045-2.115c-0.762,0.824-1.744,1.237-2.948,1.237  c-1.415,0-2.546-0.543-3.401-1.621c-0.792-1.001-1.189-2.217-1.189-3.66c0-1.451,0.397-2.662,1.189-3.638  c0.844-1.053,1.979-1.574,3.401-1.574c1.06,0,1.894,0.286,2.503,0.863v-0.635h2.055v7.097c0,1.378,0.479,2.068,1.438,2.068  c0.782,0,1.387-0.541,1.809-1.619c0.311-0.806,0.467-1.66,0.467-2.578c0-2.121-0.768-3.929-2.289-5.438  c-1.523-1.509-3.354-2.26-5.484-2.26c-2.144,0-3.965,0.748-5.463,2.244c-1.498,1.498-2.248,3.313-2.248,5.455  c0,2.139,0.75,3.963,2.258,5.467c1.503,1.512,3.32,2.263,5.453,2.263V26c-2.688,0-4.987-0.956-6.891-2.865  c-1.907-1.914-2.861-4.217-2.861-6.9c0-2.671,0.955-4.962,2.865-6.873C10.027,7.456,12.319,6.5,15,6.5  c2.688,0,4.986,0.95,6.893,2.856C23.796,11.257,24.75,13.552,24.75,16.234z M16.885,16.157c0-2.074-0.793-3.113-2.378-3.113  c-0.794,0-1.409,0.354-1.839,1.061c-0.374,0.599-0.557,1.312-0.557,2.146c0,2.183,0.797,3.271,2.394,3.271  C16.092,19.521,16.885,18.4,16.885,16.157z" fill-opacity="0.2" stroke-opacity="0.2"/>
<path d="M24.75,14.985c0,1.563-0.314,2.916-0.943,4.059c-0.762,1.408-1.863,2.115-3.307,2.115  c-1.4,0-2.413-0.707-3.045-2.115c-0.762,0.824-1.744,1.237-2.948,1.237c-1.415,0-2.546-0.543-3.401-1.621  c-0.792-1.001-1.189-2.217-1.189-3.66c0-1.451,0.397-2.662,1.189-3.638c0.844-1.053,1.979-1.574,3.401-1.574  c1.06,0,1.894,0.286,2.503,0.863v-0.635h2.055v7.097c0,1.378,0.479,2.068,1.438,2.068c0.782,0,1.387-0.541,1.809-1.619  c0.311-0.806,0.467-1.66,0.467-2.579c0-2.12-0.768-3.93-2.289-5.438c-1.523-1.509-3.354-2.26-5.484-2.26  c-2.144,0-3.965,0.748-5.463,2.244c-1.498,1.498-2.248,3.313-2.248,5.453c0,2.139,0.75,3.962,2.258,5.467  c1.503,1.512,3.32,2.263,5.453,2.263v2.035c-2.688,0-4.987-0.956-6.891-2.865c-1.907-1.912-2.861-4.216-2.861-6.899  c0-2.673,0.955-4.964,2.865-6.873C10.027,6.206,12.319,5.25,15,5.25c2.688,0,4.986,0.95,6.893,2.856  C23.796,10.007,24.75,12.302,24.75,14.985z M16.885,14.907c0-2.074-0.793-3.113-2.378-3.113c-0.794,0-1.409,0.354-1.839,1.061  c-0.374,0.599-0.557,1.312-0.557,2.146c0,2.183,0.797,3.271,2.394,3.271C16.092,18.271,16.885,17.15,16.885,14.907z" fill="#FFFFFF"/>
<rect fill="none" height="30" width="30"/>
</g>
<g>
<rect fill="none" height="15" width="15" x="15"/>
<rect fill-opacity="0.6" height="4.412" stroke-opacity="0.6" style="enable-background:new;" transform="matrix(-0.2587 0.9659 -0.9659 -0.2587 29.2728 -12.3701)" width="7.941" x="15.41" y="2.841"/>
<linearGradient gradientTransform="matrix(1 0 0 -1 90.98 116.5195)" gradientUnits="userSpaceOnUse" id="SVGID_1__" x1="-70.19" x2="-73.15" y1="114.9" y2="107.7">
<stop offset="0" stop-color="#A8835F"/>
<stop offset="0.26" stop-color="#A86F5F"/>
<stop offset="1" stop-color="#9A5047"/>
</linearGradient>
<polygon fill="url(#SVGID_1__)" points="20.17,8.913,16.76,8,18.59,1.181,22,2.094"/>
<rect fill-opacity="0.6" height="4.411" stroke-opacity="0.6" style="enable-background:new;" transform="matrix(-0.7072 0.7071 -0.7071 -0.7072 48.0833 -1.2961)" width="9.707" x="19.46" y="7.104"/>
<linearGradient gradientTransform="matrix(1 0 0 -1 90.98 116.5195)" gradientUnits="userSpaceOnUse" id="SVGID_2_" x1="-63.01" x2="-70.68" y1="110.1" y2="104.1">
<stop offset="0" stop-color="#A8835F"/>
<stop offset="0.26" stop-color="#A86F5F"/>
<stop offset="1" stop-color="#9A5047"/>
</linearGradient>
<polygon fill="url(#SVGID_2_)" points="22.44,13.68,19.94,11.18,26.18,4.942,28.68,7.438"/>
<rect fill="none" height="30" width="30"/>
</g>
</svg>
