<?xml version="1.0" encoding="UTF-8"?>
<!DOCTYPE svg PUBLIC "-//W3C//DTD SVG 1.1 Tiny//EN" "http://www.w3.org/Graphics/SVG/1.1/DTD/svg11-tiny.dtd">
<svg baseProfile="tiny" height="30" viewBox="0 0 30 30" width="30" xmlns="http://www.w3.org/2000/svg" xmlns:xlink="http://www.w3.org/1999/xlink">
<g>
<path d="M22,4c0-1.104-0.896-2-2-2s-2,0.896-2,2h-6c0-1.104-0.897-2-2-2S8,2.896,8,4H2v24h26V4H22z" fill-opacity="0.6"/>
<linearGradient gradientTransform="matrix(-1 0 0 1 -1412 0)" gradientUnits="userSpaceOnUse" id="SVGID_1_" x1="-1427" x2="-1427" y1="10.3691" y2="27.0025">
<stop offset="0" style="stop-color:#F9F9F9"/>
<stop offset="1" style="stop-color:#B5B5B5"/>
</linearGradient>
<rect fill="url(#SVGID_1_)" height="22" width="24" x="3" y="5"/>
<linearGradient gradientUnits="userSpaceOnUse" id="SVGID_2_" x1="11.2095" x2="11.2095" y1="23.834" y2="13.7479">
<stop offset="0" style="stop-color:#303030"/>
<stop offset="1" style="stop-color:#000000"/>
</linearGradient>
<path d="M14.228,22.906V24H8.191v-1.094h2.146v-7.629L8.191,15.77v-1.094l3.015-0.95h0.991v9.181H14.228z" fill="url(#SVGID_2_)"/>
<linearGradient gradientUnits="userSpaceOnUse" id="SVGID_3_" x1="18.7939" x2="18.7939" y1="23.834" y2="13.7479">
<stop offset="0" style="stop-color:#303030"/>
<stop offset="1" style="stop-color:#000000"/>
</linearGradient>
<path d="M21.843,22.811V24h-6.098v-0.745c0-0.711,0.123-1.343,0.369-1.894s0.55-1.021,0.909-1.412  c0.359-0.389,0.816-0.816,1.367-1.281c0.66-0.557,1.078-0.986,1.251-1.292s0.26-0.608,0.26-0.909c0-0.529-0.14-0.926-0.421-1.193  c-0.279-0.266-0.7-0.399-1.261-0.399c-0.593,0-1.31,0.153-2.153,0.458h-0.014v-1.217c0.885-0.277,1.746-0.417,2.584-0.417  c1.035,0,1.82,0.227,2.358,0.681c0.538,0.453,0.807,1.121,0.807,2.006c0,0.496-0.12,0.985-0.362,1.467  c-0.242,0.48-0.811,1.097-1.709,1.849c-0.502,0.424-0.893,0.776-1.176,1.06s-0.521,0.594-0.715,0.934  c-0.193,0.339-0.299,0.711-0.317,1.117H21.843z" fill="url(#SVGID_3_)"/>
<polygon fill="#FFFFFF" points="8,22 8,27 3,22 "/>
<linearGradient gradientUnits="userSpaceOnUse" id="SVGID_4_" x1="14.9995" x2="14.9995" y1="5" y2="11">
<stop offset="0" style="stop-color:#C6957B"/>
<stop offset="1" style="stop-color:#73414B"/>
</linearGradient>
<rect fill="url(#SVGID_4_)" height="6" width="24" x="3" y="5"/>
<linearGradient gradientUnits="userSpaceOnUse" id="SVGID_5_" x1="10" x2="10" y1="6" y2="10">
<stop offset="0" style="stop-color:#351A25"/>
<stop offset="1" style="stop-color:#803F4F"/>
</linearGradient>
<circle cx="10" cy="8" fill="url(#SVGID_5_)" r="2"/>
<linearGradient gradientUnits="userSpaceOnUse" id="SVGID_6_" x1="20" x2="20" y1="6" y2="10">
<stop offset="0" style="stop-color:#351A25"/>
<stop offset="1" style="stop-color:#803F4F"/>
</linearGradient>
<circle cx="20" cy="8" fill="url(#SVGID_6_)" r="2"/>
<rect fill="#FFFFFF" fill-opacity="0.4" height="1" stroke-opacity="0.4" width="24" x="3" y="5"/>
<linearGradient gradientUnits="userSpaceOnUse" id="SVGID_7_" x1="10" x2="10" y1="3" y2="9">
<stop offset="0" style="stop-color:#FEFDFD"/>
<stop offset="1" style="stop-color:#8C8C8C"/>
</linearGradient>
<path d="M11,8c0,0.55-0.45,1-1,1l0,0C9.45,9,9,8.55,9,8V4c0-0.55,0.45-1,1-1l0,0c0.55,0,1,0.45,1,1V8z" fill="url(#SVGID_7_)"/>
<linearGradient gradientUnits="userSpaceOnUse" id="SVGID_8_" x1="20" x2="20" y1="3" y2="9">
<stop offset="0" style="stop-color:#FEFDFD"/>
<stop offset="1" style="stop-color:#8C8C8C"/>
</linearGradient>
<path d="M21,8c0,0.55-0.45,1-1,1l0,0c-0.55,0-1-0.45-1-1V4c0-0.55,0.45-1,1-1l0,0c0.55,0,1,0.45,1,1V8z" fill="url(#SVGID_8_)"/>
<rect fill-opacity="0.2" height="1" stroke-opacity="0.2" width="24" x="3" y="11"/>
<rect fill="none" height="30" width="30"/>
</g>
</svg>
