<?xml version="1.0" encoding="UTF-8"?>
<!DOCTYPE svg PUBLIC "-//W3C//DTD SVG 1.1 Tiny//EN" "http://www.w3.org/Graphics/SVG/1.1/DTD/svg11-tiny.dtd">
<svg baseProfile="tiny" height="60" viewBox="0 0 60 60" width="60" xmlns="http://www.w3.org/2000/svg" xmlns:xlink="http://www.w3.org/1999/xlink">
<g>
<linearGradient gradientUnits="userSpaceOnUse" id="SVGID_1_" x1="29.9995" x2="29.9995" y1="0.3882" y2="59.6489">
<stop offset="0" style="stop-color:#A8A9AA"/>
<stop offset="1" style="stop-color:#222021"/>
</linearGradient>
<path d="M0,60V0.306h60V60H0z M50.246,54.316L30,34.174L9.754,54.316H50.246z M54.286,50.297  V10.011L34.04,30.152L54.286,50.297z M5.714,50.297L25.96,30.152L5.714,10.011V50.297z M30,26.133L50.246,5.991H9.754L30,26.133z" fill="url(#SVGID_1_)" fill-opacity="0.2" stroke-opacity="0.2"/>
<linearGradient gradientUnits="userSpaceOnUse" id="SVGID_2_" x1="30.0005" x2="30.0005" y1="1.0972" y2="58.9473">
<stop offset="0" style="stop-color:#AAABAC"/>
<stop offset="1" style="stop-color:#000000"/>
</linearGradient>
<path d="M0.714,59.29V1.017h58.573V59.29 M51.97,55.026L30,33.169L8.03,55.026H51.97z   M55.001,52.011V8.295L33.03,30.152L55.001,52.011z M5,52.011l21.97-21.858L5,8.295V52.011z M30,27.138L51.97,5.281H8.03L30,27.138z  " fill="url(#SVGID_2_)" fill-opacity="0.4" stroke-opacity="0.4"/>
<linearGradient gradientUnits="userSpaceOnUse" id="SVGID_3_" x1="29.9995" x2="29.9995" y1="1.0952" y2="57.5348">
<stop offset="0" style="stop-color:#F7FCF8"/>
<stop offset="0.6242" style="stop-color:#CBCFCD"/>
<stop offset="1" style="stop-color:#9FA4A4"/>
</linearGradient>
<path d="M1.428,1.017v56.853h57.145V1.017H1.428z M27.98,29.442L4.285,53.018V5.869L27.98,29.442z   M6.305,3.859h47.39L30,27.433L6.305,3.859z M30,31.452l23.695,23.574H6.305L30,31.452z M32.021,29.442L55.715,5.869v47.148  L32.021,29.442z" fill="url(#SVGID_3_)"/>
<g>
<linearGradient gradientUnits="userSpaceOnUse" id="SVGID_4_" x1="30.0005" x2="30.0005" y1="4.5698" y2="53.605">
<stop offset="0" style="stop-color:#A8A9AA"/>
<stop offset="1" style="stop-color:#222021"/>
</linearGradient>
<path d="M20,53.604c-1.924,0-3.583-1.555-3.698-3.462L15.17,32.285H15   c-1.576,0-2.856-1.276-2.856-2.843v-4.264c0-1.567,1.281-2.842,2.856-2.842H27.5v-3.604c-0.361,0.029-0.728,0.043-1.099,0.043   c-2.795,0-5.822-0.82-8.524-2.312c-4.18-2.304-7.19-6.002-7.856-9.653L9.806,5.62l1.147-0.402c1.227-0.43,2.592-0.647,4.056-0.647   c2.797,0,5.831,0.823,8.541,2.317c2.809,1.548,5.054,3.648,6.45,6.008c1.396-2.36,3.642-4.461,6.45-6.009   c2.709-1.494,5.743-2.317,8.54-2.317c1.464,0,2.829,0.218,4.056,0.647l1.149,0.402l-0.217,1.192   c-0.666,3.65-3.676,7.349-7.855,9.654c-2.703,1.49-5.73,2.31-8.523,2.31c-0.372,0-0.738-0.014-1.1-0.043v3.604h12.501   c1.575,0,2.855,1.275,2.855,2.842v4.264c0,1.567-1.28,2.843-2.855,2.843H44.83l-1.132,17.857c-0.115,1.907-1.773,3.462-3.698,3.462   H20z" fill="url(#SVGID_4_)" fill-opacity="0.2" stroke-opacity="0.2"/>
<linearGradient gradientUnits="userSpaceOnUse" id="SVGID_5_" x1="30" x2="30" y1="5.2808" y2="52.896">
<stop offset="0" style="stop-color:#AAABAC"/>
<stop offset="1" style="stop-color:#000000"/>
</linearGradient>
<path d="M33.598,18.065c0.002,0,0.002,0,0.002,0c2.675,0,5.578-0.788,8.177-2.221   c3.998-2.204,6.871-5.714,7.499-9.159l0.107-0.596L48.81,5.888c-1.151-0.403-2.437-0.607-3.819-0.607   c-2.678,0-5.589,0.791-8.194,2.228C33.617,9.26,31.198,11.758,30,14.444c-1.199-2.687-3.617-5.185-6.795-6.936   c-2.607-1.438-5.518-2.228-8.195-2.228c-1.383,0-2.668,0.204-3.819,0.607l-0.573,0.201l0.107,0.596   c0.628,3.445,3.501,6.955,7.499,9.159c2.599,1.433,5.503,2.221,8.178,2.221c0.622,0,1.229-0.042,1.813-0.125v5.106H15   c-1.182,0-2.143,0.957-2.143,2.132v4.264c0,1.176,0.961,2.131,2.143,2.131h0.843L17.014,50.1c0.094,1.54,1.434,2.796,2.986,2.796   h20c1.553,0,2.893-1.256,2.986-2.796l1.171-18.526h0.844c1.181,0,2.143-0.955,2.143-2.131v-4.264c0-1.175-0.962-2.132-2.143-2.132   H31.785V17.94C32.37,18.023,32.976,18.065,33.598,18.065z" fill="url(#SVGID_5_)" fill-opacity="0.4" stroke-opacity="0.4"/>
<linearGradient gradientUnits="userSpaceOnUse" id="SVGID_6_" x1="43.3672" x2="16.6225" y1="39.7471" y2="39.7471">
<stop offset="0" style="stop-color:#844D38"/>
<stop offset="0.3" style="stop-color:#713631"/>
<stop offset="1" style="stop-color:#92603E"/>
</linearGradient>
<path d="M43.572,28.021H16.428l1.299,21.323c0.072,1.17,1.094,2.129,2.273,2.129h20   c1.18,0,2.201-0.959,2.273-2.129L43.572,28.021z" fill="url(#SVGID_6_)"/>
<path d="M40.272,50.762H19.728c-0.795,0-1.515-0.419-1.939-1.04c0.242,0.992,1.162,1.752,2.211,1.752   h20c1.05,0,1.97-0.76,2.212-1.752C41.788,50.343,41.068,50.762,40.272,50.762z" fill="#46232D" fill-opacity="0.7" stroke-opacity="0.7"/>
<path d="M30,30.864c6.11,0,10.076,0.573,13.367,1.227l0.205-3.359H16.428l0.205,3.359   C19.924,31.438,23.89,30.864,30,30.864z" fill="#46232D" fill-opacity="0.4" stroke-opacity="0.4"/>
<linearGradient gradientUnits="userSpaceOnUse" id="SVGID_7_" x1="28.8701" x2="31.0122" y1="21.27" y2="21.27">
<stop offset="0" style="stop-color:#869D67"/>
<stop offset="0.3758" style="stop-color:#476358"/>
<stop offset="0.6303" style="stop-color:#182637"/>
<stop offset="1" style="stop-color:#234851"/>
</linearGradient>
<rect fill="url(#SVGID_7_)" height="9.238" width="2.142" x="28.929" y="16.651"/>
<linearGradient gradientUnits="userSpaceOnUse" id="SVGID_8_" x1="46.4297" x2="13.5703" y1="26.5991" y2="26.5991">
<stop offset="0" style="stop-color:#844D38"/>
<stop offset="0.3" style="stop-color:#713631"/>
<stop offset="1" style="stop-color:#92603E"/>
</linearGradient>
<path d="M46.43,28.732c0,0.781-0.645,1.42-1.429,1.42H15c-0.785,0-1.429-0.639-1.429-1.42v-4.264   c0-0.782,0.644-1.421,1.429-1.421h30.001c0.784,0,1.429,0.64,1.429,1.421V28.732z" fill="url(#SVGID_8_)"/>
<path d="M45.001,29.442H15c-0.785,0-1.429-0.64-1.429-1.42v0.71c0,0.781,0.644,1.42,1.429,1.42   h30.001c0.784,0,1.429-0.639,1.429-1.42v-0.71C46.43,28.802,45.785,29.442,45.001,29.442z" fill="#46232D" fill-opacity="0.7" stroke-opacity="0.7"/>
<path d="M45.001,23.046H15c-0.785,0-1.429,0.64-1.429,1.421v0.71c0-0.781,0.644-1.421,1.429-1.421   h30.001c0.784,0,1.429,0.64,1.429,1.421v-0.71C46.43,23.686,45.785,23.046,45.001,23.046z" fill="#FFFFFF" fill-opacity="0.6" stroke-opacity="0.6"/>
<linearGradient gradientUnits="userSpaceOnUse" id="SVGID_9_" x1="10.4175" x2="30.0361" y1="5.9038" y2="16.902">
<stop offset="0" style="stop-color:#8FB34D"/>
<stop offset="1" style="stop-color:#2B644B"/>
</linearGradient>
<path d="M22.858,8.13c-3.974-2.19-8.299-2.669-11.43-1.572c0.57,3.138,3.167,6.474,7.142,8.665   c3.973,2.19,8.299,2.669,11.43,1.572C29.429,13.657,26.833,10.32,22.858,8.13z" fill="url(#SVGID_9_)"/>
<linearGradient gradientUnits="userSpaceOnUse" id="SVGID_10_" x1="42.1152" x2="39.5384" y1="18.2144" y2="12.261">
<stop offset="0" style="stop-color:#8FB34D"/>
<stop offset="1" style="stop-color:#2B644B"/>
</linearGradient>
<path d="M37.142,8.13c3.974-2.19,8.299-2.669,11.43-1.572c-0.569,3.138-3.167,6.474-7.142,8.665   c-3.973,2.19-8.299,2.669-11.43,1.572C30.571,13.657,33.167,10.32,37.142,8.13z" fill="url(#SVGID_10_)"/>
<linearGradient gradientUnits="userSpaceOnUse" id="SVGID_11_" x1="18.8848" x2="20.6575" y1="18.1733" y2="11.8801">
<stop offset="0" style="stop-color:#8FB34D"/>
<stop offset="1" style="stop-color:#2B644B"/>
</linearGradient>
<path d="M18.57,15.223c3.973,2.19,8.299,2.669,11.43,1.572c0,0-7.308-3.236-9.777-4.551   c-3.304-1.759-8.794-5.685-8.794-5.685C11.999,9.696,14.596,13.032,18.57,15.223z" fill="url(#SVGID_11_)"/>
<linearGradient gradientUnits="userSpaceOnUse" id="SVGID_12_" x1="48.8037" x2="29.4835" y1="4.1372" y2="15.7295">
<stop offset="0" style="stop-color:#8FB34D"/>
<stop offset="1" style="stop-color:#2B644B"/>
</linearGradient>
<path d="M37.142,8.13c-3.975,2.19-6.57,5.527-7.142,8.665c0,0,6.843-2.558,9.867-4.285   c3.393-1.937,8.704-5.952,8.704-5.952C45.44,5.461,41.115,5.94,37.142,8.13z" fill="url(#SVGID_12_)"/>
<linearGradient gradientUnits="userSpaceOnUse" id="SVGID_13_" x1="20.7144" x2="20.7144" y1="6.3657" y2="15.8773">
<stop offset="0" style="stop-color:#CFDCAD"/>
<stop offset="1" style="stop-color:#2B644B"/>
</linearGradient>
<path d="M22.858,8.13c-3.974-2.19-8.299-2.669-11.43-1.572c3.953-0.562,7.701,0.2,11.083,2.193   c3.334,1.965,5.657,4.691,7.488,8.043C29.429,13.657,26.833,10.32,22.858,8.13z" fill="url(#SVGID_13_)"/>
<linearGradient gradientUnits="userSpaceOnUse" id="SVGID_14_" x1="39.2861" x2="39.2861" y1="6.0693" y2="16.0647">
<stop offset="0" style="stop-color:#CFDCAD"/>
<stop offset="1" style="stop-color:#2B644B"/>
</linearGradient>
<path d="M37.487,8.751c5.281-3.037,11.084-2.193,11.084-2.193C45.44,5.461,41.115,5.94,37.142,8.13   c-3.975,2.19-6.57,5.527-7.142,8.665C30,16.794,31.95,11.937,37.487,8.751z" fill="url(#SVGID_14_)"/>
<linearGradient gradientUnits="userSpaceOnUse" id="SVGID_15_" x1="18.8848" x2="20.6575" y1="18.1733" y2="11.8801">
<stop offset="0" style="stop-color:#8FB34D"/>
<stop offset="0.2303" style="stop-color:#C2D090"/>
<stop offset="1" style="stop-color:#2B644B"/>
</linearGradient>
<path d="M18.916,14.601c-5.35-2.86-7.487-8.042-7.487-8.042   c0.57,3.138,3.167,6.474,7.142,8.665c3.973,2.19,8.299,2.669,11.43,1.572C30,16.794,25,17.854,18.916,14.601z" fill="url(#SVGID_15_)" fill-opacity="0.6" stroke-opacity="0.6"/>
<linearGradient gradientUnits="userSpaceOnUse" id="SVGID_16_" x1="40.8457" x2="39.6931" y1="17.7969" y2="13.275">
<stop offset="0" style="stop-color:#8FB34D"/>
<stop offset="0.2303" style="stop-color:#C2D090"/>
<stop offset="1" style="stop-color:#2B644B"/>
</linearGradient>
<path d="M41.085,14.601c-3.312,1.95-6.667,2.734-11.085,2.194   c3.131,1.097,7.457,0.618,11.43-1.572c3.975-2.19,6.572-5.527,7.142-8.665C47.307,9.783,45.313,12.11,41.085,14.601z" fill="url(#SVGID_16_)" fill-opacity="0.6" stroke-opacity="0.6"/>
</g>
<linearGradient gradientUnits="userSpaceOnUse" id="SVGID_17_" x1="29.9995" x2="29.9995" y1="1.0952" y2="57.5348">
<stop offset="0" style="stop-color:#CBCDCC"/>
<stop offset="1" style="stop-color:#6F7172"/>
</linearGradient>
<path d="M1.428,1.017v56.853h57.145V1.017H1.428z M57.858,57.157H2.142V1.727h55.716V57.157z" fill="url(#SVGID_17_)"/>
<linearGradient gradientUnits="userSpaceOnUse" id="SVGID_18_" x1="30" x2="30" y1="1.8057" y2="57.1214">
<stop offset="0" style="stop-color:#E7E8E7"/>
<stop offset="1" style="stop-color:#AFB3B2"/>
</linearGradient>
<path d="M2.142,1.727v55.43h55.716V1.727H2.142z M57.144,56.447H2.856V2.438h54.287V56.447z" fill="url(#SVGID_18_)"/>
</g>
</svg>
