<?xml version="1.0" encoding="UTF-8"?>
<!DOCTYPE svg PUBLIC "-//W3C//DTD SVG 1.1 Tiny//EN" "http://www.w3.org/Graphics/SVG/1.1/DTD/svg11-tiny.dtd">
<svg baseProfile="tiny" height="30" viewBox="0 0 30 30" width="30" xmlns="http://www.w3.org/2000/svg" xmlns:xlink="http://www.w3.org/1999/xlink">
<g>
<linearGradient gradientTransform="matrix(1 0 0 -1 123.4648 234.2559)" gradientUnits="userSpaceOnUse" id="SVGID_1_" x1="-107.8691" x2="-104.9155" y1="219.2109" y2="219.2109">
<stop offset="0" style="stop-color:#6A6C6E"/>
<stop offset="0.0788" style="stop-color:#ABB0AF"/>
<stop offset="0.3152" style="stop-color:#FFFFFF"/>
<stop offset="0.7333" style="stop-color:#9A9C9C"/>
<stop offset="1" style="stop-color:#C8CAC9"/>
</linearGradient>
<path d="M15.596,5.888v17.73c0,0.323,0.263,0.584,0.59,0.584h1.772c0.326,0,0.591-0.261,0.591-0.584V5.888  H15.596z" fill="url(#SVGID_1_)"/>
<linearGradient gradientTransform="matrix(1 0 0 -1 123.4648 234.2559)" gradientUnits="userSpaceOnUse" id="SVGID_2_" x1="-106.3813" x2="-106.3813" y1="230.5293" y2="218.9428">
<stop offset="0" style="stop-color:#A8A9AA"/>
<stop offset="1" style="stop-color:#222021"/>
</linearGradient>
<path d="M28.855,4.552c-0.134-0.435-0.536-0.731-0.99-0.731H17.22h-0.147H6.303  c-0.455,0-0.856,0.297-0.99,0.731C5.178,4.985,5.345,5.457,5.721,5.71l9.874,9.531v-3.866L9.68,5.888h7.393h0.147h7.268  l-5.938,5.581v3.829l9.896-9.588C28.822,5.456,28.988,4.985,28.855,4.552z" fill="url(#SVGID_2_)"/>
<path d="M5.313,4.889c0.133-0.435,0.534-0.773,0.99-0.773h10.77h0.147  h10.645c0.454,0,0.856,0.339,0.99,0.773c0.013,0.045,0.021,0.091,0.029,0.137c0.026-0.156,0.019-0.318-0.029-0.475  c-0.134-0.435-0.536-0.731-0.99-0.731H17.22h-0.147H6.303c-0.455,0-0.856,0.297-0.99,0.731C5.264,4.708,5.256,4.87,5.282,5.025  C5.29,4.98,5.299,4.934,5.313,4.889z" fill="#FFFFFF" fill-opacity="0.6" stroke-opacity="0.6"/>
<polygon fill="#FFFFFF" fill-opacity="0.6" points="18.849,11.782 24.973,5.885 24.503,5.885 18.849,11.239   " stroke-opacity="0.6"/>
<polygon fill="#FFFFFF" fill-opacity="0.6" points="9.199,5.889 15.305,11.69 15.305,11.149 9.677,5.889 " stroke-opacity="0.6"/>
<linearGradient gradientTransform="matrix(1 0 0 -1 123.4648 234.2559)" gradientUnits="userSpaceOnUse" id="SVGID_3_" x1="-106.3813" x2="-106.3813" y1="230.1689" y2="219.3503">
<stop offset="0" style="stop-color:#EDEFEE"/>
<stop offset="0.5" style="stop-color:#BCBEBE"/>
<stop offset="0.5" style="stop-color:#A5A6A7"/>
<stop offset="1" style="stop-color:#C9CBCA"/>
</linearGradient>
<path d="M18.844,11.792l6.56-6.199H8.75L15.3,11.7v2.993L5.892,5.469C5.617,5.282,5.5,4.95,5.595,4.638  c0.095-0.313,0.38-0.522,0.708-0.522h21.563c0.327,0,0.611,0.21,0.707,0.522c0.095,0.313-0.023,0.645-0.293,0.827l-9.435,9.33  V11.792z" fill="url(#SVGID_3_)"/>
<linearGradient gradientTransform="matrix(1 0 0 -1 123.4648 234.2559)" gradientUnits="userSpaceOnUse" id="SVGID_4_" x1="-99.7397" x2="-99.7397" y1="229.5313" y2="219.9691">
<stop offset="0" style="stop-color:#69696A"/>
<stop offset="1" style="stop-color:#000000"/>
</linearGradient>
<path d="M28.541,4.56c-0.054,0.125-0.143,0.234-0.261,0.315l-9.436,9.329v0.591l9.436-9.33  c0.27-0.182,0.388-0.515,0.293-0.827C28.563,4.61,28.552,4.585,28.541,4.56z" fill="url(#SVGID_4_)"/>
<linearGradient gradientTransform="matrix(1 0 0 -1 123.4648 234.2559)" gradientUnits="userSpaceOnUse" id="SVGID_5_" x1="-113.0337" x2="-113.0337" y1="229.5313" y2="219.962">
<stop offset="0" style="stop-color:#69696A"/>
<stop offset="1" style="stop-color:#000000"/>
</linearGradient>
<path d="M5.627,4.559C5.616,4.585,5.604,4.61,5.595,4.638C5.5,4.95,5.617,5.282,5.892,5.469l9.408,9.226  v-0.592L5.892,4.877C5.77,4.795,5.682,4.684,5.627,4.559z" fill="url(#SVGID_5_)"/>
<path d="M5.595,4.933c0.095-0.313,0.38-0.522,0.708-0.522h21.563c0.327,0,0.611,0.209,0.707,0.522  c0.007,0.024,0.01,0.049,0.015,0.073c0.025-0.119,0.023-0.245-0.015-0.368c-0.096-0.313-0.38-0.522-0.707-0.522H6.303  c-0.328,0-0.613,0.21-0.708,0.522C5.557,4.76,5.554,4.886,5.579,5.005C5.584,4.982,5.588,4.958,5.595,4.933z" fill="#FFFFFF"/>
<path d="M17.958,23.907h-1.772c-0.326,0-0.59-0.261-0.59-0.584v0.295  c0,0.323,0.263,0.584,0.59,0.584h1.772c0.326,0,0.591-0.261,0.591-0.584v-0.295C18.549,23.646,18.284,23.907,17.958,23.907z" fill-opacity="0.4" stroke-opacity="0.4"/>
<path d="M17.958,23.606h-1.772c-0.326,0-0.59-0.262-0.59-0.584v0.294  c0,0.324,0.263,0.587,0.59,0.587h1.772c0.326,0,0.591-0.263,0.591-0.587v-0.294C18.549,23.345,18.284,23.606,17.958,23.606z" fill-opacity="0.2" stroke-opacity="0.2"/>
<rect fill-opacity="0.3" height="0.296" stroke-opacity="0.3" width="2.953" x="15.596" y="5.888"/>
<rect fill-opacity="0.2" height="0.294" stroke-opacity="0.2" width="2.953" x="15.596" y="6.184"/>
<rect fill-opacity="0.1" height="1.182" stroke-opacity="0.1" width="2.953" x="15.596" y="5.888"/>
<linearGradient gradientTransform="matrix(1 0 0 -1 123.4648 234.2559)" gradientUnits="userSpaceOnUse" id="SVGID_6_" x1="-119.4878" x2="-119.4878" y1="217.0977" y2="208.1441">
<stop offset="0" style="stop-color:#98B060"/>
<stop offset="0.8121" style="stop-color:#326644"/>
<stop offset="1" style="stop-color:#4E8146"/>
</linearGradient>
<path d="M5.667,21.386c0.566-0.438,0.892-1.049,0.892-1.769c0-0.61-0.238-1.171-0.67-1.58  c-0.47-0.448-1.152-0.683-1.964-0.683c-0.987,0-1.842,0.363-2.275,0.674l-0.265,0.187l0.593,1.582l0.451-0.32  c0.277-0.198,0.787-0.43,1.298-0.43c0.424,0,0.931,0.129,0.931,0.74c0,0.725-0.941,0.883-1.301,0.883H2.349V22.3h1.008  c0.257,0,1.559,0.055,1.569,1.125c0.004,0.131-0.02,0.459-0.271,0.716c-0.229,0.229-0.584,0.347-1.05,0.347  c-0.634,0-1.237-0.26-1.491-0.414L1.67,23.807l-0.569,1.598l0.277,0.182c0.414,0.274,1.252,0.593,2.24,0.593  c2.223,0,3.235-1.421,3.235-2.739C6.857,22.561,6.4,21.813,5.667,21.386z" fill="url(#SVGID_6_)"/>
<linearGradient gradientTransform="matrix(1 0 0 -1 123.4648 234.2559)" gradientUnits="userSpaceOnUse" id="SVGID_7_" x1="-119.4702" x2="-119.4702" y1="216.7178" y2="208.2598">
<stop offset="0" style="stop-color:#E2E5C2"/>
<stop offset="0.7455" style="stop-color:#49794A"/>
<stop offset="1" style="stop-color:#ACB991"/>
</linearGradient>
<path d="M3.617,25.997c-0.95,0-1.745-0.304-2.138-0.562L1.321,25.33l0.446-1.25l0.253,0.15  c0.271,0.164,0.91,0.441,1.585,0.441c0.515,0,0.912-0.134,1.178-0.4c0.316-0.323,0.33-0.734,0.326-0.853  c-0.009-0.961-0.95-1.303-1.752-1.303H2.532v-1.263h0.824c0.596,0,1.485-0.284,1.485-1.067c0-0.587-0.406-0.923-1.115-0.923  c-0.557,0-1.104,0.25-1.405,0.465L2.064,19.51l-0.46-1.226l0.152-0.106c0.41-0.296,1.225-0.64,2.168-0.64  c0.768,0,1.403,0.219,1.838,0.632c0.395,0.375,0.612,0.89,0.612,1.448c0,0.646-0.284,1.207-0.819,1.622l-0.216,0.167l0.234,0.137  c0.699,0.408,1.099,1.099,1.094,1.896C6.669,24.671,5.714,25.997,3.617,25.997L3.617,25.997z" fill="url(#SVGID_7_)"/>
<linearGradient gradientTransform="matrix(1 0 0 -1 123.4648 234.2559)" gradientUnits="userSpaceOnUse" id="SVGID_8_" x1="-119.4497" x2="-119.4497" y1="216.7148" y2="208.5057">
<stop offset="0" style="stop-color:#98B060"/>
<stop offset="0.8121" style="stop-color:#326644"/>
<stop offset="1" style="stop-color:#4E8146"/>
</linearGradient>
<path d="M3.617,25.813c-0.91,0-1.666-0.288-2.037-0.532l-0.037-0.026l0.322-0.903l0.06,0.035  c0.287,0.175,0.965,0.469,1.68,0.469c0.566,0,1.007-0.153,1.309-0.454c0.367-0.377,0.383-0.852,0.379-0.988  c-0.01-1.093-1.049-1.481-1.936-1.481h-0.64v-0.897h0.64c0.67,0,1.668-0.332,1.668-1.25c0-0.692-0.485-1.105-1.298-1.105  c-0.6,0-1.188,0.269-1.511,0.498l-0.061,0.044l-0.326-0.87l0.034-0.024c0.389-0.281,1.164-0.607,2.063-0.607  c0.719,0,1.312,0.201,1.712,0.582c0.357,0.34,0.554,0.807,0.554,1.314c0,0.588-0.26,1.098-0.749,1.478l-0.43,0.333l0.47,0.273  c0.641,0.374,1.006,1.007,1.004,1.738C6.487,24.583,5.589,25.813,3.617,25.813L3.617,25.813z" fill="url(#SVGID_8_)"/>
<linearGradient gradientTransform="matrix(1 0 0 -1 123.4648 234.2559)" gradientUnits="userSpaceOnUse" id="SVGID_9_" x1="-112.5542" x2="-112.5542" y1="218.3975" y2="208.8453">
<stop offset="0" style="stop-color:#98B060"/>
<stop offset="0.8121" style="stop-color:#326644"/>
<stop offset="1" style="stop-color:#4E8146"/>
</linearGradient>
<path d="M11.143,19.919v1.678h1.613v1.646c-0.212,0.057-0.504,0.107-0.955,0.107  c-1.669,0-2.662-1.049-2.662-2.806c0-0.862,0.259-1.575,0.753-2.058c0.486-0.483,1.191-0.736,2.04-0.736  c0.645,0,1.148,0.098,1.589,0.305l0.441,0.208l0.512-1.657l-0.326-0.16c-0.391-0.188-1.199-0.409-2.192-0.409  c-2.847,0-4.757,1.831-4.757,4.554c0,1.325,0.455,2.523,1.245,3.286c0.828,0.791,1.903,1.175,3.287,1.175  c1.305,0,2.334-0.357,2.622-0.467l0.271-0.104v-4.561H11.143z" fill="url(#SVGID_9_)"/>
<linearGradient gradientTransform="matrix(1 0 0 -1 123.4648 234.2559)" gradientUnits="userSpaceOnUse" id="SVGID_10_" x1="-112.5537" x2="-112.5537" y1="218.0762" y2="209.3553">
<stop offset="0" style="stop-color:#E2E5C2"/>
<stop offset="0.7455" style="stop-color:#49794A"/>
<stop offset="1" style="stop-color:#ACB991"/>
</linearGradient>
<path d="M11.729,24.868c-1.334,0-2.367-0.368-3.16-1.125c-0.755-0.729-1.188-1.878-1.188-3.152  c0-2.615,1.838-4.371,4.574-4.371c0.963,0,1.74,0.211,2.111,0.393l0.187,0.09l-0.404,1.305L13.6,17.889  c-0.467-0.219-0.998-0.322-1.668-0.322c-0.901,0-1.651,0.272-2.169,0.788c-0.526,0.518-0.807,1.274-0.807,2.189  c0,1.872,1.064,2.988,2.846,2.988c0.393,0,0.72-0.036,1.001-0.112l0.136-0.036v-1.97h-1.614v-1.312h3.116v4.251l-0.155,0.059  C13.925,24.552,12.951,24.868,11.729,24.868L11.729,24.868z" fill="url(#SVGID_10_)"/>
<linearGradient gradientTransform="matrix(1 0 0 -1 123.4648 234.2559)" gradientUnits="userSpaceOnUse" id="SVGID_11_" x1="-112.5542" x2="-112.5542" y1="218.0146" y2="209.2411">
<stop offset="0" style="stop-color:#98B060"/>
<stop offset="0.8121" style="stop-color:#326644"/>
<stop offset="1" style="stop-color:#4E8146"/>
</linearGradient>
<path d="M11.729,24.685c-1.284,0-2.275-0.352-3.033-1.074c-0.719-0.694-1.132-1.795-1.132-3.021  c0-2.504,1.765-4.187,4.391-4.187c0.931,0,1.677,0.2,2.032,0.373l0.045,0.021l-0.295,0.951l-0.059-0.027  c-0.492-0.23-1.049-0.34-1.746-0.34c-0.95,0-1.745,0.292-2.299,0.843c-0.563,0.551-0.86,1.354-0.86,2.318  c0,1.986,1.133,3.172,3.029,3.172c0.41,0,0.752-0.039,1.049-0.119l0.272-0.073V21.23H11.51v-0.945h2.747v3.943l-0.036,0.013  C13.869,24.375,12.919,24.685,11.729,24.685L11.729,24.685z" fill="url(#SVGID_11_)"/>
<rect fill="none" height="30" width="30"/>
</g>
</svg>
