<?xml version="1.0" encoding="UTF-8"?>
<!DOCTYPE svg PUBLIC "-//W3C//DTD SVG 1.1 Tiny//EN" "http://www.w3.org/Graphics/SVG/1.1/DTD/svg11-tiny.dtd">
<svg baseProfile="tiny" height="30" viewBox="0 0 30 30" width="30" xmlns="http://www.w3.org/2000/svg" xmlns:xlink="http://www.w3.org/1999/xlink">
<g>
<path d="M9.861,29.5c-3.192,0-5.794-1.643-6.474-4.088c-0.358-1.289-0.16-2.642,0.573-3.911  c1.012-1.754,2.905-3.099,5.194-3.69c0.799-0.205,1.61-0.311,2.413-0.311c0.938,0,1.831,0.14,2.648,0.409V5.002l10.359-4.831  l2.536,5.438l-8.896,4.148l-0.001,13.079c0.007,2.791-2.487,5.462-5.938,6.354C11.479,29.396,10.666,29.5,9.861,29.5L9.861,29.5z" fill-opacity="0.6"/>
<path d="M17.217,22.836V9.12l8.566-3.995L24.093,1.5l-8.876,4.139v13.833  c-1.491-0.938-3.635-1.255-5.812-0.692c-3.517,0.908-5.778,3.758-5.054,6.365s4.161,3.984,7.677,3.076  c3.083-0.797,5.201-3.086,5.188-5.395C17.216,22.829,17.217,22.832,17.217,22.836z" fill="url(#SVGID_1_)"/>
<polygon fill="#FFFFFF" fill-opacity="0.5" points="25.209,5.394 25.783,5.125 24.093,1.5 15.217,5.639 15.217,7.139 24.093,3 " stroke-opacity="0.5"/>
<path d="M9.405,20.279c2.177-0.563,4.32-0.246,5.812,0.692v-1.5c-1.491-0.938-3.635-1.255-5.812-0.692  c-3.404,0.879-5.624,3.578-5.105,6.114C4.703,22.866,6.671,20.985,9.405,20.279z" fill="#FFFFFF" fill-opacity="0.5" stroke-opacity="0.5"/>
<rect fill="none" height="30" width="30"/>
<defs>
<linearGradient gradientUnits="userSpaceOnUse" id="SVGID_1_" x1="14.9995" x2="14.9995" y1="5.2617" y2="27.0999">
<stop offset="0" style="stop-color:#85AE4A"/>
<stop offset="1" style="stop-color:#2F6F44"/>
</linearGradient>
</defs>
</g>
</svg>
