<?xml version="1.0" encoding="UTF-8"?>
<!DOCTYPE svg PUBLIC "-//W3C//DTD SVG 1.1 Tiny//EN" "http://www.w3.org/Graphics/SVG/1.1/DTD/svg11-tiny.dtd">
<svg baseProfile="tiny" height="30px" version="1.1" viewBox="0 0 30 30" width="30px" x="0px" xmlns="http://www.w3.org/2000/svg" xmlns:xlink="http://www.w3.org/1999/xlink" y="0px">
<rect height="2" width="10" x="10" y="23"/>
<path d="M12,28h6c1.104,0,2-0.896,2-2H10C10,27.104,10.896,28,12,28z"/>
<path d="M15,2c-4.971,0-9,2.864-9,9c0,3.221,1.383,6.082,3.271,8.083L10,22h10l0.729-2.917C22.617,17.082,24,14.221,24,11  C24,4.864,19.971,2,15,2z M16,18.795V14h1c0.553,0,1-0.448,1-1c0-0.553-0.447-1-1-1h-4c-0.553,0-1,0.447-1,1c0,0.552,0.447,1,1,1h1  v4.795C11.856,18.02,9,15.028,9,11c0-4.959,3.263-6,6-6s6,1.041,6,6C21,15.028,18.145,18.02,16,18.795z"/>
<g fill-opacity="0.5" stroke-opacity="0.5">
<rect fill="none" height="30" width="30"/>
</g>
</svg>
