<?xml version="1.0" encoding="UTF-8"?>
<!DOCTYPE svg PUBLIC "-//W3C//DTD SVG 1.1 Tiny//EN" "http://www.w3.org/Graphics/SVG/1.1/DTD/svg11-tiny.dtd">
<svg baseProfile="tiny" height="30px" version="1.1" viewBox="0 0 30 30" width="30px" x="0px" xmlns="http://www.w3.org/2000/svg" xmlns:xlink="http://www.w3.org/1999/xlink" y="0px">
<g fill-opacity="0.5" stroke-opacity="0.5">
<rect fill="none" height="30" width="30"/>
</g>
<path d="M19,2h-8C9.896,2,9,2.896,9,4h12C21,2.896,20.104,2,19,2z"/>
<path d="M18.87,12H19V5h-8v7h0.13C8.668,13.364,7,15.986,7,19c0,0.553,0.447,1,1,1h6v8c0,0.553,0.447,1,1,1s1-0.447,1-1v-8h6  c0.553,0,1-0.447,1-1C23,15.986,21.332,13.364,18.87,12z"/>
</svg>
