<?xml version="1.0" encoding="UTF-8"?>
<!DOCTYPE svg PUBLIC "-//W3C//DTD SVG 1.1 Tiny//EN" "http://www.w3.org/Graphics/SVG/1.1/DTD/svg11-tiny.dtd">
<svg baseProfile="tiny" height="30" viewBox="0 0 30 30" width="30" xmlns="http://www.w3.org/2000/svg" xmlns:xlink="http://www.w3.org/1999/xlink">
<g>
<rect fill="none" height="30" width="30"/>
<rect fill-opacity="0.6" height="26" width="28" x="1" y="2"/>
<linearGradient gradientUnits="userSpaceOnUse" id="SVGID_1_" x1="15.0005" x2="15.0005" y1="27" y2="3.4999">
<stop offset="0" style="stop-color:#000000"/>
<stop offset="1" style="stop-color:#666666"/>
</linearGradient>
<rect fill="url(#SVGID_1_)" height="24" width="26" x="2" y="3"/>
<linearGradient gradientUnits="userSpaceOnUse" id="SVGID_2_" x1="15.0005" x2="15.0005" y1="21.125" y2="9.0729">
<stop offset="0" style="stop-color:#72B9C3"/>
<stop offset="1" style="stop-color:#546F9F"/>
</linearGradient>
<rect fill="url(#SVGID_2_)" height="12" width="24" x="3" y="9"/>
<rect fill="#F1F2F2" height="2" width="3" x="3" y="5"/>
<rect fill="#F1F2F2" height="2" width="3" x="8" y="5"/>
<rect fill="#F1F2F2" height="2" width="4" x="13" y="5"/>
<rect fill="#F1F2F2" height="2" width="3" x="19" y="5"/>
<rect fill="#F1F2F2" height="2" width="3" x="24" y="5"/>
<rect fill="#F1F2F2" height="2" width="3" x="3" y="23"/>
<rect fill="#F1F2F2" height="2" width="3" x="8" y="23"/>
<rect fill="#F1F2F2" height="2" width="4" x="13" y="23"/>
<rect fill="#F1F2F2" height="2" width="3" x="19" y="23"/>
<rect fill="#F1F2F2" height="2" width="3" x="24" y="23"/>
<rect fill="#FFFFFF" fill-opacity="0.3" height="1" stroke-opacity="0.3" width="26" x="2" y="3"/>
<rect fill="#FFFFFF" fill-opacity="0.1" height="1" stroke-opacity="0.1" width="26" x="2" y="26"/>
<rect fill="#FFFFFF" fill-opacity="0.3" height="1" stroke-opacity="0.3" width="24" x="3" y="20"/>
<rect fill="#2D204B" fill-opacity="0.2" height="1" stroke-opacity="0.2" width="24" x="3" y="9"/>
</g>
</svg>
