<?xml version="1.0" encoding="UTF-8"?>
<!DOCTYPE svg PUBLIC "-//W3C//DTD SVG 1.1 Tiny//EN" "http://www.w3.org/Graphics/SVG/1.1/DTD/svg11-tiny.dtd">
<svg baseProfile="tiny" height="60" viewBox="0 0 60 60" width="60" xmlns="http://www.w3.org/2000/svg" xmlns:xlink="http://www.w3.org/1999/xlink">
<g>
<linearGradient gradientUnits="userSpaceOnUse" id="SVGID_1_" x1="26.4722" x2="33.4727" y1="32.4502" y2="32.4502">
<stop offset="0" style="stop-color:#6A6C6E"/>
<stop offset="0.0788" style="stop-color:#ABB0AF"/>
<stop offset="0.3152" style="stop-color:#FFFFFF"/>
<stop offset="0.7333" style="stop-color:#9A9C9C"/>
<stop offset="1" style="stop-color:#C8CAC9"/>
</linearGradient>
<path d="M26.472,10.75v42.014c0,0.766,0.626,1.387,1.399,1.387h4.201c0.773,0,1.4-0.621,1.4-1.387V10.75  H26.472z" fill="url(#SVGID_1_)"/>
<linearGradient gradientUnits="userSpaceOnUse" id="SVGID_2_" x1="29.9995" x2="29.9995" y1="5.6274" y2="33.0842">
<stop offset="0" style="stop-color:#A8A9AA"/>
<stop offset="1" style="stop-color:#222021"/>
</linearGradient>
<path d="M57.893,7.582c-0.316-1.029-1.268-1.732-2.346-1.732H30.322h-0.35H4.453  c-1.078,0-2.029,0.703-2.345,1.732c-0.316,1.029,0.078,2.145,0.971,2.747l23.394,22.586v-9.161L12.455,10.75h17.518h0.35h17.223  L33.473,23.975v9.074l23.449-22.72C57.814,9.727,58.207,8.611,57.893,7.582z" fill="url(#SVGID_2_)"/>
<path d="M2.108,8.384C2.423,7.354,3.375,6.55,4.453,6.55h25.52h0.35h25.225  c1.078,0,2.029,0.804,2.346,1.834c0.033,0.106,0.053,0.214,0.07,0.322c0.063-0.368,0.043-0.751-0.07-1.124  c-0.316-1.029-1.268-1.732-2.346-1.732H30.322h-0.35H4.453c-1.078,0-2.029,0.703-2.345,1.732C1.993,7.955,1.975,8.338,2.037,8.706  C2.054,8.598,2.075,8.49,2.108,8.384z" fill="#FFFFFF" fill-opacity="0.6" stroke-opacity="0.6"/>
<polygon fill="#FFFFFF" fill-opacity="0.6" points="34.184,24.717 48.693,10.742 47.58,10.742 34.184,23.428 " stroke-opacity="0.6"/>
<polygon fill="#FFFFFF" fill-opacity="0.6" points="11.317,10.753 25.783,24.498 25.783,23.216 12.451,10.753 " stroke-opacity="0.6"/>
<linearGradient gradientUnits="userSpaceOnUse" id="SVGID_3_" x1="29.9995" x2="29.9995" y1="6.481" y2="32.1174">
<stop offset="0" style="stop-color:#EDEFEE"/>
<stop offset="0.5" style="stop-color:#BCBEBE"/>
<stop offset="0.5" style="stop-color:#A5A6A7"/>
<stop offset="1" style="stop-color:#C9CBCA"/>
</linearGradient>
<path d="M34.172,24.738L49.715,10.05H10.251l15.521,14.472v7.094L3.479,9.755  C2.829,9.315,2.55,8.527,2.777,7.787s0.9-1.237,1.676-1.237h51.094c0.775,0,1.449,0.497,1.676,1.237s-0.053,1.528-0.693,1.962  L34.172,31.855V24.738z" fill="url(#SVGID_3_)"/>
<linearGradient gradientUnits="userSpaceOnUse" id="SVGID_4_" x1="45.7363" x2="45.7363" y1="7.9927" y2="30.6518">
<stop offset="0" style="stop-color:#69696A"/>
<stop offset="1" style="stop-color:#000000"/>
</linearGradient>
<path d="M57.148,7.602c-0.129,0.295-0.336,0.557-0.619,0.748L34.172,30.455v1.4L56.529,9.749  c0.641-0.434,0.92-1.222,0.693-1.962C57.203,7.723,57.176,7.662,57.148,7.602z" fill="url(#SVGID_4_)"/>
<linearGradient gradientUnits="userSpaceOnUse" id="SVGID_5_" x1="14.2354" x2="14.2354" y1="7.9922" y2="30.666">
<stop offset="0" style="stop-color:#69696A"/>
<stop offset="1" style="stop-color:#000000"/>
</linearGradient>
<path d="M2.851,7.6C2.825,7.662,2.797,7.723,2.777,7.787C2.55,8.527,2.829,9.315,3.479,9.755l22.293,21.86  v-1.4L3.479,8.354C3.191,8.16,2.982,7.896,2.851,7.6z" fill="url(#SVGID_5_)"/>
<path d="M2.777,8.487c0.227-0.74,0.9-1.237,1.676-1.237h51.094c0.775,0,1.449,0.497,1.676,1.237  c0.018,0.058,0.027,0.116,0.037,0.174c0.061-0.283,0.053-0.582-0.037-0.874c-0.227-0.74-0.9-1.237-1.676-1.237H4.453  c-0.775,0-1.449,0.497-1.676,1.237c-0.09,0.291-0.098,0.59-0.038,0.873C2.75,8.603,2.759,8.545,2.777,8.487z" fill="#FFFFFF"/>
<path d="M32.072,53.45h-4.201c-0.772,0-1.399-0.621-1.399-1.387v0.7c0,0.766,0.626,1.387,1.399,1.387h4.201  c0.773,0,1.4-0.621,1.4-1.387v-0.7C33.473,52.829,32.846,53.45,32.072,53.45z" fill-opacity="0.4" stroke-opacity="0.4"/>
<path d="M32.072,52.736h-4.201c-0.772,0-1.399-0.621-1.399-1.387v0.7c0,0.766,0.626,1.387,1.399,1.387h4.201  c0.773,0,1.4-0.621,1.4-1.387v-0.7C33.473,52.115,32.846,52.736,32.072,52.736z" fill-opacity="0.2" stroke-opacity="0.2"/>
<rect fill-opacity="0.3" height="0.7" stroke-opacity="0.3" width="7" x="26.472" y="10.75"/>
<rect fill-opacity="0.2" height="0.7" stroke-opacity="0.2" width="7" x="26.472" y="11.45"/>
<rect fill-opacity="0.1" height="2.8" stroke-opacity="0.1" width="7" x="26.472" y="10.75"/>
<rect fill="none" height="60" width="60"/>
</g>
<g transform="matrix(1 0 0 1 30 30)">
<path d="M15,29.505c-0.657,0-1.337-0.048-2.019-0.144l-0.594-0.082l-0.435-1.304c-0.171-0.517-0.3-1.313-0.3-1.854  v-0.687c-0.006-0.031-0.063-0.11-0.102-0.131l-1.339-0.548l-0.099-0.032c-0.06,0-0.112,0.021-0.127,0.031l-0.479,0.479  c-0.383,0.383-1.038,0.855-1.522,1.098l-1.232,0.612l-0.477-0.36c-1.081-0.815-2.042-1.775-2.856-2.854L3.057,23.25l0.616-1.23  c0.246-0.489,0.718-1.144,1.099-1.523l0.484-0.485c0.018-0.026,0.033-0.119,0.021-0.157L4.72,18.511  c-0.041-0.095-0.118-0.151-0.159-0.158l-0.676,0.001c-0.545,0-1.343-0.13-1.855-0.302l-1.303-0.434l-0.083-0.594  C0.548,16.346,0.5,15.666,0.5,15.005s0.048-1.34,0.144-2.02l0.083-0.594l1.305-0.434c0.507-0.171,1.306-0.301,1.853-0.301h0.687  c0.031-0.006,0.108-0.062,0.127-0.099l0.553-1.344c0.04-0.098,0.025-0.19,0-0.224L4.772,9.511C4.387,9.125,3.915,8.47,3.674,7.987  L3.059,6.758L3.42,6.279c0.814-1.079,1.774-2.04,2.855-2.855l0.479-0.362l1.231,0.617c0.486,0.244,1.14,0.715,1.522,1.097  l0.487,0.485c0.008,0.005,0.06,0.025,0.119,0.025l0.034-0.017l0.064-0.014l1.285-0.531c0.094-0.04,0.15-0.118,0.156-0.16l0-0.676  c0-0.543,0.129-1.34,0.301-1.854l0.435-1.304l0.594-0.083c0.676-0.095,1.356-0.143,2.02-0.143c0.662,0,1.342,0.048,2.02,0.143  l0.595,0.083l0.434,1.305c0.17,0.515,0.301,1.312,0.301,1.853v0.687c0.006,0.031,0.063,0.11,0.1,0.129l1.341,0.551l0.098,0.031  c0.061,0,0.113-0.02,0.129-0.031l0.478-0.478c0.385-0.385,1.038-0.856,1.521-1.098l1.233-0.613l0.476,0.36  c1.08,0.813,2.041,1.773,2.856,2.855l0.362,0.479L26.27,8.106c-0.253,0.506-0.391,0.758-1.04,1.407L24.744,10  c-0.017,0.026-0.032,0.119-0.021,0.158l0.557,1.344c0.04,0.093,0.117,0.15,0.158,0.156l0.678,0c0.544,0,1.343,0.13,1.854,0.302  l1.303,0.433l0.083,0.594c0.095,0.677,0.144,1.356,0.144,2.021c0,0.666-0.049,1.345-0.144,2.021l-0.085,0.593l-1.303,0.434  c-0.508,0.172-1.305,0.302-1.853,0.302h-0.688c-0.032,0.006-0.109,0.063-0.131,0.102l-0.547,1.339  c-0.04,0.097-0.026,0.191-0.002,0.226l0.479,0.479c0.383,0.381,0.857,1.038,1.099,1.525l0.613,1.226l-0.36,0.479  c-0.815,1.08-1.774,2.041-2.854,2.855l-0.479,0.361l-1.231-0.615c-0.485-0.244-1.14-0.716-1.521-1.097l-0.487-0.486  c-0.006-0.004-0.059-0.023-0.119-0.023l-0.031,0.017l-0.066,0.015l-1.284,0.529c-0.094,0.04-0.15,0.118-0.156,0.159v0.677  c0,0.54-0.129,1.337-0.301,1.853l-0.434,1.306l-0.595,0.082C16.335,29.457,15.656,29.505,15,29.505L15,29.505z M15,11.208  c-2.094,0-3.798,1.704-3.798,3.798c0,2.094,1.704,3.798,3.798,3.798s3.797-1.704,3.797-3.798C18.797,12.912,17.094,11.208,15,11.208  L15,11.208z" fill-opacity="0.35" stroke-opacity="0.35"/>
<linearGradient gradientTransform="matrix(1 0 0 -1 -267.4805 -360.0195)" gradientUnits="userSpaceOnUse" id="SVGID_1__" x1="282.4795" x2="282.4795" y1="-361.4912" y2="-388.438">
<stop offset="0" style="stop-color:#FFFFFF"/>
<stop offset="0.1" style="stop-color:#FFFFFF"/>
<stop offset="0.74" style="stop-color:#939595"/>
<stop offset="1" style="stop-color:#C8C8C8"/>
</linearGradient>
<path d="M26.116,12.624H25.43c-0.437,0-0.906-0.339-1.042-0.754l-0.531-1.285  c-0.196-0.389-0.105-0.96,0.204-1.269l0.485-0.486c0.615-0.615,0.659-0.759,0.916-1.271l0.349-0.695  c-0.761-1.008-1.659-1.906-2.668-2.666l-0.694,0.346c-0.389,0.195-0.961,0.608-1.271,0.917l-0.485,0.486  c-0.31,0.309-0.882,0.401-1.271,0.203L18.138,5.62c-0.417-0.137-0.755-0.608-0.755-1.044V3.889c0-0.437-0.113-1.134-0.251-1.548  l-0.246-0.735C16.269,1.519,15.641,1.472,15,1.472c-0.641,0-1.27,0.047-1.886,0.133L12.869,2.34  c-0.138,0.415-0.251,1.111-0.251,1.548v0.687c0,0.436-0.339,0.906-0.754,1.042l-1.285,0.53C10.19,6.346,9.62,6.254,9.311,5.946  L8.824,5.46C8.515,5.151,7.942,4.739,7.553,4.543L6.858,4.195C5.851,4.956,4.953,5.854,4.192,6.862l0.347,0.694  c0.195,0.391,0.608,0.963,0.917,1.272l0.486,0.486c0.309,0.309,0.4,0.88,0.202,1.269l-0.531,1.286  c-0.136,0.415-0.605,0.754-1.042,0.754H3.884c-0.438,0-1.134,0.112-1.548,0.252l-0.736,0.245c-0.086,0.617-0.134,1.245-0.134,1.886  c0,0.64,0.047,1.269,0.134,1.885l0.736,0.246c0.414,0.139,1.11,0.251,1.548,0.251h0.687c0.438,0,0.906,0.34,1.042,0.755l0.53,1.284  c0.198,0.389,0.106,0.961-0.203,1.269l-0.486,0.486c-0.309,0.308-0.721,0.882-0.917,1.271L4.19,23.146  c0.761,1.008,1.659,1.905,2.667,2.665l0.694-0.345c0.391-0.196,0.963-0.608,1.271-0.917l0.486-0.485  c0.309-0.309,0.881-0.401,1.27-0.203l1.284,0.529c0.416,0.138,0.755,0.608,0.755,1.044v0.687c0,0.438,0.113,1.133,0.251,1.549  l0.245,0.734c0.617,0.086,1.245,0.134,1.886,0.134c0.64,0,1.267-0.048,1.886-0.134l0.244-0.734c0.138-0.416,0.251-1.111,0.251-1.549  v-0.687c0-0.438,0.34-0.906,0.755-1.043l1.284-0.53c0.391-0.197,0.959-0.105,1.269,0.203l0.485,0.485  c0.31,0.309,0.882,0.721,1.272,0.917l0.695,0.347c1.008-0.76,1.904-1.657,2.665-2.666l-0.347-0.693  c-0.194-0.391-0.608-0.964-0.918-1.271l-0.483-0.486c-0.31-0.309-0.4-0.88-0.204-1.27l0.529-1.284  c0.14-0.416,0.607-0.755,1.044-0.755h0.688c0.435,0,1.132-0.111,1.547-0.251l0.736-0.246c0.087-0.615,0.134-1.245,0.134-1.885  c0-0.641-0.047-1.269-0.134-1.886l-0.736-0.245C27.249,12.736,26.553,12.624,26.116,12.624z M15,19.771  c-2.632,0-4.765-2.133-4.765-4.765c0-2.631,2.132-4.765,4.765-4.765c2.63,0,4.764,2.134,4.764,4.765  C19.764,17.638,17.63,19.771,15,19.771z" fill="url(#SVGID_1__)"/>
<linearGradient gradientTransform="matrix(1 0 0 -1 -267.4805 -360.0195)" gradientUnits="userSpaceOnUse" id="SVGID_2__" x1="277.6816" x2="287.2746" y1="-377.2241" y2="-377.2241">
<stop offset="0" style="stop-color:#7A7A7A"/>
<stop offset="0.5" style="stop-color:#FFFFFF"/>
<stop offset="1" style="stop-color:#7A7A7A"/>
</linearGradient>
<path d="M15,19.771c2.63,0,4.764-2.133,4.764-4.765c0-0.125-0.01-0.246-0.018-0.367  c-0.188,2.459-2.239,4.398-4.746,4.398c-2.508,0-4.558-1.939-4.746-4.398c-0.01,0.122-0.019,0.243-0.019,0.367  C10.235,17.638,12.367,19.771,15,19.771z" fill="url(#SVGID_2__)"/>
<linearGradient gradientTransform="matrix(1 0 0 -1 -267.4805 -360.0195)" gradientUnits="userSpaceOnUse" id="SVGID_3__" x1="282.4805" x2="282.4805" y1="-383.0635" y2="-366.7921">
<stop offset="0" style="stop-color:#FFFFFF"/>
<stop offset="0.52" style="stop-color:#C8C8C8"/>
<stop offset="1" style="stop-color:#939595"/>
</linearGradient>
<path d="M15,6.52c-4.687,0-8.487,3.8-8.487,8.487s3.8,8.486,8.487,8.486s8.487-3.799,8.487-8.486  S19.687,6.52,15,6.52z M15,21.563c-3.621,0-6.559-2.935-6.559-6.557c0-3.622,2.937-6.558,6.559-6.558  c3.62,0,6.557,2.936,6.557,6.558C21.557,18.629,18.619,21.563,15,21.563z" fill="url(#SVGID_3__)"/>
<rect fill="none" height="30" width="30"/>
</g>
</svg>
