<?xml version="1.0" encoding="UTF-8"?>
<!DOCTYPE svg PUBLIC "-//W3C//DTD SVG 1.1 Tiny//EN" "http://www.w3.org/Graphics/SVG/1.1/DTD/svg11-tiny.dtd">
<svg baseProfile="tiny" height="30px" version="1.1" viewBox="0 0 30 30" width="30px" x="0px" xmlns="http://www.w3.org/2000/svg" xmlns:xlink="http://www.w3.org/1999/xlink" y="0px">
<path d="M23,25h-3.294l-2.746-9.336C16.345,15.878,15.688,16,15,16s-1.345-0.122-1.96-0.336L10.294,25H7c-1.104,0-2,0.896-2,2v2h20  v-2C25,25.896,24.104,25,23,25z"/>
<circle cx="15" cy="10" r="4"/>
<path d="M20.877,16.855C21.039,16.953,21.219,17,21.396,17c0.338,0,0.667-0.17,0.855-0.48C23.346,14.719,24,12.281,24,10  c0-2.28-0.654-4.717-1.749-6.52c-0.286-0.471-0.901-0.621-1.374-0.334c-0.472,0.287-0.622,0.901-0.335,1.373  C21.455,6.021,22,8.07,22,10c0,1.931-0.545,3.979-1.458,5.48C20.255,15.953,20.405,16.568,20.877,16.855z"/>
<path d="M26.425,1.457c-0.301-0.464-0.921-0.598-1.383-0.295c-0.464,0.3-0.596,0.919-0.295,1.383C26.242,4.85,27,7.358,27,10  c0,2.643-0.758,5.15-2.253,7.457c-0.301,0.463-0.169,1.082,0.295,1.383C25.21,18.949,25.398,19,25.585,19  c0.327,0,0.648-0.16,0.84-0.455C28.134,15.91,29,13.035,29,10C29,6.966,28.134,4.092,26.425,1.457z"/>
<path d="M8.604,17c0.177,0,0.356-0.047,0.519-0.145c0.472-0.287,0.622-0.902,0.335-1.375C8.545,13.979,8,11.931,8,10  c0-1.93,0.545-3.979,1.458-5.48c0.287-0.472,0.137-1.086-0.335-1.373C8.65,2.859,8.035,3.01,7.749,3.48C6.654,5.283,6,7.72,6,10  c0,2.281,0.654,4.719,1.749,6.52C7.938,16.83,8.267,17,8.604,17z"/>
<path d="M5.253,17.457C3.758,15.15,3,12.643,3,10c0-2.642,0.758-5.15,2.253-7.455c0.301-0.464,0.169-1.083-0.295-1.383  C4.496,0.859,3.876,0.993,3.575,1.457C1.866,4.092,1,6.966,1,10c0,3.035,0.866,5.91,2.575,8.545C3.767,18.84,4.088,19,4.415,19  c0.187,0,0.375-0.051,0.543-0.16C5.422,18.539,5.554,17.92,5.253,17.457z"/>
<g fill-opacity="0.5" stroke-opacity="0.5">
<rect fill="none" height="30" width="30"/>
</g>
</svg>
