<?xml version="1.0" encoding="UTF-8"?>
<!DOCTYPE svg PUBLIC "-//W3C//DTD SVG 1.1 Tiny//EN" "http://www.w3.org/Graphics/SVG/1.1/DTD/svg11-tiny.dtd">
<svg baseProfile="tiny" height="30" viewBox="0 0 30 30" width="30" xmlns="http://www.w3.org/2000/svg" xmlns:xlink="http://www.w3.org/1999/xlink">
<g>
<linearGradient gradientTransform="matrix(1 0 0 -1 123.4648 234.2559)" gradientUnits="userSpaceOnUse" id="SVGID_1_" x1="-116.6533" x2="-116.6533" y1="227.5791" y2="208.713">
<stop offset="0" style="stop-color:#98B060"/>
<stop offset="0.8121" style="stop-color:#326644"/>
<stop offset="1" style="stop-color:#4E8146"/>
</linearGradient>
<path d="M10.375,15.583c1.194-0.924,1.878-2.208,1.878-3.724c0-1.288-0.502-2.469-1.41-3.33  c-0.991-0.944-2.429-1.44-4.139-1.44c-2.08,0-3.882,0.765-4.794,1.42l-0.56,0.396L2.6,12.236l0.951-0.673  c0.585-0.418,1.659-0.907,2.734-0.907c0.894,0,1.962,0.271,1.962,1.558c0,1.525-1.983,1.859-2.743,1.859H3.383v3.436h2.121  c0.545,0,3.286,0.115,3.307,2.371c0.009,0.276-0.041,0.968-0.57,1.511c-0.481,0.48-1.23,0.732-2.213,0.732  c-1.335,0-2.606-0.551-3.141-0.875l-0.936-0.563L0.75,24.054l0.587,0.386c0.873,0.576,2.638,1.247,4.719,1.247  c4.683,0,6.817-2.991,6.817-5.771C12.882,18.061,11.919,16.484,10.375,15.583z" fill="url(#SVGID_1_)"/>
<linearGradient gradientTransform="matrix(1 0 0 -1 123.4648 234.2559)" gradientUnits="userSpaceOnUse" id="SVGID_2_" x1="-116.6138" x2="-116.6138" y1="226.7793" y2="208.9541">
<stop offset="0" style="stop-color:#E2E5C2"/>
<stop offset="0.7455" style="stop-color:#49794A"/>
<stop offset="1" style="stop-color:#ACB991"/>
</linearGradient>
<path d="M6.055,25.302c-2.003,0-3.678-0.639-4.504-1.185l-0.335-0.22l0.94-2.636l0.531,0.319  c0.572,0.345,1.919,0.93,3.34,0.93c1.087,0,1.924-0.284,2.485-0.844c0.665-0.681,0.692-1.547,0.685-1.797  c-0.019-2.025-2.001-2.745-3.694-2.745H3.77v-2.663h1.734c1.259,0,3.13-0.597,3.13-2.247c0-1.235-0.855-1.944-2.349-1.944  c-1.172,0-2.326,0.526-2.96,0.978l-0.54,0.383L1.817,9.049l0.317-0.224c0.867-0.623,2.583-1.348,4.57-1.348  c1.618,0,2.957,0.461,3.872,1.333c0.832,0.789,1.29,1.872,1.29,3.051c0,1.361-0.598,2.543-1.728,3.418l-0.453,0.35l0.495,0.289  c1.473,0.861,2.313,2.316,2.306,3.996C12.487,22.51,10.474,25.302,6.055,25.302L6.055,25.302z" fill="url(#SVGID_2_)"/>
<linearGradient gradientTransform="matrix(1 0 0 -1 123.4648 234.2559)" gradientUnits="userSpaceOnUse" id="SVGID_3_" x1="-116.5737" x2="-116.5737" y1="226.7715" y2="209.4741">
<stop offset="0" style="stop-color:#98B060"/>
<stop offset="0.8121" style="stop-color:#326644"/>
<stop offset="1" style="stop-color:#4E8146"/>
</linearGradient>
<path d="M6.055,24.914c-1.917,0-3.511-0.603-4.292-1.119l-0.081-0.054l0.68-1.905l0.125,0.076  c0.606,0.365,2.034,0.985,3.54,0.985c1.193,0,2.121-0.322,2.759-0.958c0.774-0.795,0.807-1.794,0.798-2.081  c-0.021-2.302-2.211-3.121-4.08-3.121H4.157v-1.89h1.347c1.414,0,3.517-0.7,3.517-2.633c0-1.46-1.022-2.331-2.735-2.331  c-1.263,0-2.505,0.565-3.185,1.05l-0.129,0.091L2.284,9.192L2.357,9.14C3.18,8.55,4.809,7.862,6.704,7.862  c1.517,0,2.763,0.425,3.605,1.227c0.755,0.715,1.17,1.699,1.17,2.771c0,1.237-0.546,2.313-1.578,3.112l-0.907,0.702l0.99,0.577  c1.35,0.788,2.121,2.122,2.114,3.661C12.1,22.322,10.209,24.914,6.055,24.914L6.055,24.914z" fill="url(#SVGID_3_)"/>
<linearGradient gradientTransform="matrix(1 0 0 -1 123.4648 234.2559)" gradientUnits="userSpaceOnUse" id="SVGID_4_" x1="-102.04" x2="-102.04" y1="230.3174" y2="210.1877">
<stop offset="0" style="stop-color:#98B060"/>
<stop offset="0.8121" style="stop-color:#326644"/>
<stop offset="1" style="stop-color:#4E8146"/>
</linearGradient>
<path d="M21.913,12.493v3.539h3.4V19.5c-0.446,0.12-1.063,0.225-2.011,0.225c-3.517,0-5.611-2.21-5.611-5.912  c0-1.815,0.543-3.315,1.584-4.338c1.025-1.017,2.512-1.548,4.299-1.548c1.361,0,2.422,0.204,3.352,0.64l0.927,0.438l1.08-3.491  l-0.689-0.336c-0.824-0.399-2.526-0.865-4.62-0.865c-5.997,0-10.024,3.859-10.024,9.598c0,2.791,0.959,5.315,2.624,6.924  c1.746,1.666,4.007,2.477,6.926,2.477c2.749,0,4.92-0.755,5.526-0.985l0.575-0.22v-9.614H21.913z" fill="url(#SVGID_4_)"/>
<linearGradient gradientTransform="matrix(1 0 0 -1 123.4648 234.2559)" gradientUnits="userSpaceOnUse" id="SVGID_5_" x1="-102.0405" x2="-102.0405" y1="229.6416" y2="211.2637">
<stop offset="0" style="stop-color:#E2E5C2"/>
<stop offset="0.7455" style="stop-color:#49794A"/>
<stop offset="1" style="stop-color:#ACB991"/>
</linearGradient>
<path d="M23.149,22.925c-2.809,0-4.987-0.776-6.659-2.37c-1.59-1.536-2.504-3.959-2.504-6.644  c0-5.51,3.874-9.211,9.637-9.211c2.03,0,3.666,0.445,4.451,0.827l0.391,0.189l-0.85,2.75L27.09,8.218  c-0.986-0.462-2.103-0.678-3.517-0.678c-1.896,0-3.477,0.574-4.572,1.66c-1.11,1.091-1.698,2.686-1.698,4.612  c0,3.943,2.242,6.298,5.997,6.298c0.826,0,1.518-0.076,2.111-0.236l0.286-0.077v-4.151h-3.399V12.88h6.563v8.96l-0.326,0.125  C27.776,22.253,25.725,22.925,23.149,22.925L23.149,22.925z" fill="url(#SVGID_5_)"/>
<linearGradient gradientTransform="matrix(1 0 0 -1 123.4648 234.2559)" gradientUnits="userSpaceOnUse" id="SVGID_6_" x1="-102.0405" x2="-102.0405" y1="229.5146" y2="211.0229">
<stop offset="0" style="stop-color:#98B060"/>
<stop offset="0.8121" style="stop-color:#326644"/>
<stop offset="1" style="stop-color:#4E8146"/>
</linearGradient>
<path d="M23.149,22.538c-2.705,0-4.796-0.74-6.391-2.263c-1.515-1.463-2.385-3.783-2.385-6.364  c0-5.278,3.718-8.825,9.251-8.825c1.963,0,3.533,0.424,4.282,0.788l0.093,0.045l-0.62,2.006l-0.123-0.058  c-1.039-0.488-2.209-0.715-3.682-0.715c-2,0-3.675,0.613-4.844,1.772c-1.186,1.164-1.813,2.854-1.813,4.887  c0,4.187,2.387,6.685,6.384,6.685c0.862,0,1.585-0.082,2.212-0.25l0.573-0.153v-4.835h-3.4v-1.991h5.79v8.308l-0.078,0.029  C27.658,21.885,25.66,22.538,23.149,22.538L23.149,22.538z" fill="url(#SVGID_6_)"/>
<rect fill="none" height="30" width="30"/>
</g>
<g>
<rect fill-opacity="0.6" height="34.27" stroke-opacity="0.6" style="enable-background:new;" transform="matrix(0.7073 -0.707 0.707 0.7073 -6.2126 14.9968)" width="3.169" x="13.42" y="-2.134"/>
<polygon fill="url(#SVGID_1__)" points="26,26.99,3.015,4.005,4.006,3.014,26.99,26"/>
<rect fill="none" height="30" width="30"/>
<defs>
<linearGradient gradientTransform="matrix(0.8824 0 0 -0.8824 -284.8232 -348.3516)" gradientUnits="userSpaceOnUse" id="SVGID_1__" x1="339.8" x2="339.8" y1="-397.3" y2="-425.3">
<stop offset="0" stop-color="#A8835F"/>
<stop offset="0.2606" stop-color="#A86F5F"/>
<stop offset="1" stop-color="#9A5047"/>
</linearGradient>
</defs>
</g>
</svg>
