<?xml version="1.0" encoding="UTF-8"?>
<!DOCTYPE svg PUBLIC "-//W3C//DTD SVG 1.1 Tiny//EN" "http://www.w3.org/Graphics/SVG/1.1/DTD/svg11-tiny.dtd">
<svg baseProfile="tiny" height="20px" version="1.1" viewBox="0 0 20 20" width="20px" x="0px" xmlns="http://www.w3.org/2000/svg" xmlns:xlink="http://www.w3.org/1999/xlink" y="0px">
<rect fill="none" height="20" width="20"/>
<rect fill="none" fill-rule="evenodd" height="20" width="20"/>
<path d="M10,0c4.42,0,8,3.58,8,8v12H2V8  C2,3.58,5.58,0,10,0z" fill="url(#SVGID_1_)" fill-opacity="0.9" fill-rule="evenodd" stroke-opacity="0.9"/>
<path d="M10,0C5.58,0,2,3.58,2,8v12h1.001V7.999C3.001,4.14,6.141,1,10,1  s6.999,3.14,6.999,6.999v11V20H18V8C18,3.58,14.42,0,10,0z" fill-opacity="0.2" fill-rule="evenodd" stroke-opacity="0.2"/>
<defs>
<linearGradient gradientUnits="userSpaceOnUse" id="SVGID_1_" x1="17.5" x2="1.9995" y1="10" y2="10">
<stop offset="0" style="stop-color:#DCDCDC"/>
<stop offset="0.2" style="stop-color:#FFFFFF"/>
<stop offset="0.8" style="stop-color:#FFFFFF"/>
<stop offset="1" style="stop-color:#DCDCDC"/>
</linearGradient>
</defs>
</svg>
