<?xml version="1.0" encoding="UTF-8"?>
<!DOCTYPE svg PUBLIC "-//W3C//DTD SVG 1.1 Tiny//EN" "http://www.w3.org/Graphics/SVG/1.1/DTD/svg11-tiny.dtd">
<svg baseProfile="tiny" height="194.3px" version="1.1" viewBox="0 0 194.3 194.3" width="194.3px" x="0px" xmlns="http://www.w3.org/2000/svg" xmlns:xlink="http://www.w3.org/1999/xlink" y="0px">
<rect fill="#231F20" height="194.458" width="194.458" x="-0.079" y="-0.079"/>
<g>
<polygon fill="#FFFFFF" points="143.369,67.895 119.082,67.895 119.082,69.833 143.369,69.833 143.369,94.119 145.305,94.119    145.305,69.833 145.305,67.895  "/>
<polygon fill="#FFFFFF" points="145.305,136.471 145.305,112.184 143.367,112.184 143.367,136.471 119.082,136.471    119.082,138.406 143.367,138.406 145.305,138.406  "/>
</g>
<g>
<polygon fill="#FFFFFF" points="50.931,138.406 75.219,138.406 75.219,136.469 50.931,136.469 50.931,112.184 48.996,112.184    48.996,136.469 48.996,138.406  "/>
<polygon fill="#FFFFFF" points="48.996,69.832 48.996,94.119 50.933,94.119 50.933,69.832 75.219,69.832 75.219,67.895    50.933,67.895 48.996,67.895  "/>
</g>
<g>
<rect fill="#FFFFFF" height="2.42" stroke="#231F20" width="6.05" x="33.678" y="11.039"/>
<path d="M11.898,14.669v24.2h31.46v-24.2H11.898z M39.728,35.239h-24.2v-16.94h24.2V35.239z" fill="#FFFFFF" stroke="#231F20"/>
<path d="M28.233,19.509c-4.01,0-7.26,3.25-7.26,7.26s3.25,7.26,7.26,7.26   c4.011,0,7.26-3.25,7.26-7.26S32.239,19.509,28.233,19.509z M28.233,30.399c-2.004,0-3.63-1.626-3.63-3.63   c0-2.003,1.626-3.63,3.63-3.63s3.63,1.627,3.63,3.63C31.863,28.773,30.242,30.399,28.233,30.399z" fill="#FFFFFF" stroke="#231F20"/>
<circle cx="18.781" cy="21.53" fill="#FFFFFF" r="1.815" stroke="#231F20"/>
</g>
</svg>
