<?xml version="1.0" encoding="UTF-8"?>
<!DOCTYPE svg PUBLIC "-//W3C//DTD SVG 1.1 Tiny//EN" "http://www.w3.org/Graphics/SVG/1.1/DTD/svg11-tiny.dtd">
<svg baseProfile="tiny" height="10px" version="1.1" viewBox="0 0 10 10" width="10px" x="0px" xmlns="http://www.w3.org/2000/svg" xmlns:xlink="http://www.w3.org/1999/xlink" y="0px">
<rect fill="none" height="10" width="10"/>
<path d="M3,7c0-2.206,1.794-4,4-4h3V1H7C3.7,1,1,3.7,1,7v3h2V7z" fill="#14141E" fill-opacity="0.4" stroke-opacity="0.4"/>
<path d="M10,2H7C4.243,2,2,4.243,2,7v3h8V2z" fill="url(#SVGID_1_)"/>
<path d="M3,7c0-2.205,1.794-4,4-4h3V2H7C4.243,2,2,4.243,2,7v3h1V7z" fill="#FFFFFF" fill-opacity="0.2" stroke-opacity="0.2"/>
<rect fill="none" height="10" width="10"/>
<defs>
<linearGradient gradientUnits="userSpaceOnUse" id="SVGID_1_" x1="6" x2="6" y1="46.876" y2="2.1216">
<stop offset="0" style="stop-color:#AAAAAF"/>
<stop offset="1" style="stop-color:#78787D"/>
</linearGradient>
</defs>
</svg>
