<?xml version="1.0" encoding="UTF-8"?>
<!DOCTYPE svg PUBLIC "-//W3C//DTD SVG 1.1 Tiny//EN" "http://www.w3.org/Graphics/SVG/1.1/DTD/svg11-tiny.dtd">
<svg baseProfile="tiny" height="60" viewBox="0 0 60 60" width="60" xmlns="http://www.w3.org/2000/svg" xmlns:xlink="http://www.w3.org/1999/xlink">
<g>
<radialGradient cx="-1627.3687" cy="-2479.0078" gradientTransform="matrix(0.7071 0.7071 -0.7071 0.7071 -564.6201 2940.3716)" gradientUnits="userSpaceOnUse" id="SVGID_1_" r="45.6647">
<stop offset="0" style="stop-color:#93AC5D"/>
<stop offset="0.297" style="stop-color:#93AC5D"/>
<stop offset="0.6667" style="stop-color:#356742"/>
<stop offset="0.7939" style="stop-color:#447B42"/>
<stop offset="1" style="stop-color:#447B42"/>
</radialGradient>
<path d="M20.37,41.951c0.299-0.437,0.233-0.799-0.258-1.332c-0.617-0.666-2.567-3.084-2.968-3.737  c-0.353-0.575-0.411-1.02-0.034-1.71c0.473-0.865,1.915-3.764,8.107-9.956c6.192-6.192,9.084-7.646,9.956-8.108  c0.76-0.399,1.037-0.344,1.711,0.036c0.666,0.376,3.068,2.352,3.734,2.967c0.535,0.492,0.873,0.588,1.301,0.274  c0.752-0.551,13.828-9.843,15.229-10.774c0.85-0.565,1.141-1.062,0.523-1.779c-2.477-2.889-8.594-5.015-10.752-5.399  c-1.922-0.345-3.875-0.873-6.564,0.236c-2.561,1.053-13.076,8.534-21.113,16.571C11.203,27.277,3.722,37.795,2.668,40.352  c-1.108,2.691-0.581,4.645-0.236,6.567c0.387,2.158,2.511,8.275,5.4,10.752c0.718,0.616,1.213,0.323,1.777-0.525  C10.542,55.745,19.852,42.705,20.37,41.951z" fill="url(#SVGID_1_)"/>
<linearGradient gradientTransform="matrix(0.7071 0.7071 -0.7071 0.7071 -564.6201 2940.3716)" gradientUnits="userSpaceOnUse" id="SVGID_2_" x1="-1639.3428" x2="-1638.9111" y1="-2494.9824" y2="-2491.4067">
<stop offset="0" style="stop-color:#3C7440"/>
<stop offset="1" style="stop-color:#1E3A31"/>
</linearGradient>
<path d="M35.172,17.107c0.76-0.399,1.037-0.344,1.711,0.036c0.666,0.376,3.068,2.352,3.734,2.967  c0.535,0.492,0.873,0.588,1.301,0.274c0.047-0.034,0.063-0.046,0.064-0.046c0.252-0.184,1.031-0.739,2.119-1.514  c-0.252-0.205-3.469-2.809-4.801-2.956C36.855,15.598,35.172,17.107,35.172,17.107z" fill="url(#SVGID_2_)"/>
<linearGradient gradientTransform="matrix(0.7071 0.7071 0.7071 -0.7071 -1696.8304 4072.5859)" gradientUnits="userSpaceOnUse" id="SVGID_3_" x1="-1639.3467" x2="-1638.9149" y1="4063.0557" y2="4066.6318">
<stop offset="0" style="stop-color:#3C7440"/>
<stop offset="1" style="stop-color:#1E3A31"/>
</linearGradient>
<path d="M17.092,35.188c-0.401,0.763-0.346,1.039,0.035,1.714c0.376,0.665,2.351,3.067,2.967,3.737  c0.492,0.53,0.587,0.869,0.274,1.297c-0.035,0.049-0.046,0.063-0.046,0.063c-0.183,0.253-0.738,1.032-1.515,2.12  c-0.203-0.252-2.807-3.469-2.956-4.8C15.579,36.875,17.092,35.188,17.092,35.188z" fill="url(#SVGID_3_)"/>
<path d="M2.979,47.466c-0.344-1.923-0.873-3.877,0.235-6.567c1.054-2.557,8.535-13.074,16.573-21.112  C27.825,11.749,38.34,4.268,40.9,3.215c2.689-1.108,4.643-0.581,6.566-0.236c1.98,0.354,7.297,2.178,10.07,4.711  c-2.553-2.815-8.496-4.879-10.619-5.258c-1.922-0.345-3.875-0.873-6.564,0.236c-2.561,1.053-13.076,8.534-21.113,16.571  C11.203,27.277,3.722,37.795,2.668,40.352c-1.108,2.691-0.581,4.645-0.236,6.567c0.378,2.122,2.441,8.065,5.258,10.617  C5.156,54.763,3.333,49.448,2.979,47.466z" fill="#B1BE95" fill-opacity="0.5" stroke-opacity="0.5"/>
<path d="M20.37,41.951c0.299-0.437,0.233-0.799-0.258-1.332c-0.617-0.666-2.567-3.084-2.968-3.737  c-0.353-0.575-0.411-1.02-0.034-1.71c0.473-0.865,1.915-3.764,8.107-9.956c6.192-6.192,9.084-7.646,9.956-8.108  c0.76-0.399,1.037-0.344,1.711,0.036c0.666,0.376,3.068,2.352,3.734,2.967c0.535,0.492,0.873,0.588,1.301,0.274  c0.752-0.551,13.828-9.843,15.229-10.774c0.85-0.565,1.141-1.062,0.523-1.779c-0.291-0.339-0.635-0.665-1.012-0.982  c0.488,0.658,0.197,1.134-0.607,1.667c-1.4,0.932-14.475,10.224-15.227,10.775c-0.43,0.313-0.768,0.218-1.299-0.273  c-0.668-0.618-3.07-2.592-3.738-2.969c-0.672-0.38-0.949-0.436-1.711-0.035c-0.869,0.462-3.763,1.915-9.955,8.107  c-6.192,6.192-7.635,9.092-8.107,9.956c-0.378,0.69-0.32,1.135,0.035,1.711c0.4,0.651,2.351,3.069,2.967,3.736  c0.493,0.533,0.558,0.896,0.259,1.332c-0.518,0.755-9.828,13.794-10.76,15.195c-0.534,0.803-1.009,1.098-1.666,0.606  c0.314,0.378,0.643,0.723,0.982,1.013c0.718,0.616,1.213,0.323,1.777-0.525C10.542,55.745,19.852,42.705,20.37,41.951z" fill="#B1BE95" fill-opacity="0.6" stroke-opacity="0.6"/>
<linearGradient gradientTransform="matrix(0.7071 0.7071 -0.7071 0.7071 -608.1406 2931.3247)" gradientUnits="userSpaceOnUse" id="SVGID_4_" x1="-1610.522" x2="-1610.522" y1="-2533.3467" y2="-2471.428">
<stop offset="0" style="stop-color:#315D3E"/>
<stop offset="0.5" style="stop-color:#1E3A31"/>
<stop offset="1" style="stop-color:#2E593D"/>
</linearGradient>
<path d="M2.899,45.012c1.275-2.776,10.299-14.805,18.804-23.31  c8.505-8.506,20.531-17.529,23.309-18.803c0.527-0.241,1.02-0.411,1.492-0.545c-0.512-0.096-1.031-0.19-1.566-0.26  c-0.086,0.036-0.162,0.063-0.248,0.102c-2.818,1.293-14.972,10.397-23.534,18.958c-8.562,8.562-17.667,20.715-18.96,23.535  c-0.038,0.086-0.063,0.165-0.101,0.25c0.071,0.534,0.165,1.054,0.259,1.564C2.489,46.03,2.658,45.539,2.899,45.012z" fill="url(#SVGID_4_)" fill-opacity="0.5" stroke-opacity="0.5"/>
<rect fill="none" height="60" width="60"/>
</g>
<g transform="matrix(1 0 0 1 30 30)">
<polygon fill="none" points="0,8 0,25.294 0,30 30,30 30,25.294 30,8 30,0 0,0 "/>
<linearGradient gradientUnits="userSpaceOnUse" id="SVGID_1__" x1="15" x2="15" y1="2.1646" y2="28.4294">
<stop offset="0" style="stop-color:#262628"/>
<stop offset="1" style="stop-color:#5C5D5F"/>
</linearGradient>
<path d="M2.647,27.941C1.188,27.941,0,26.754,0,25.294V8c0-1.295,0.936-2.376,2.167-2.603  c0.436-1.91,2.147-3.339,4.187-3.339h0.822c2.024,0,3.726,1.407,4.177,3.295h15.999C28.813,5.354,30,6.541,30,8v17.294  c0,1.46-1.188,2.647-2.647,2.647H2.647z" fill="url(#SVGID_1__)" fill-opacity="0.35" stroke-opacity="0.35"/>
<linearGradient gradientUnits="userSpaceOnUse" id="SVGID_2__" x1="15" x2="15" y1="6.1143" y2="26.7021">
<stop offset="0" style="stop-color:#D3D7D5"/>
<stop offset="0.0667" style="stop-color:#D3D7D5"/>
<stop offset="0.2606" style="stop-color:#BFC2C1"/>
<stop offset="0.6606" style="stop-color:#989D9D"/>
<stop offset="0.9636" style="stop-color:#AFB3B2"/>
<stop offset="1" style="stop-color:#5B5B5D"/>
</linearGradient>
<path d="M29,25.294c0,0.909-0.738,1.647-1.647,1.647H2.647C1.738,26.941,1,26.203,1,25.294V8  c0-0.908,0.738-1.646,1.647-1.646h24.705C28.262,6.354,29,7.092,29,8V25.294z" fill="url(#SVGID_2__)"/>
<linearGradient gradientUnits="userSpaceOnUse" id="SVGID_3__" x1="15" x2="15" y1="6.1143" y2="26.7021">
<stop offset="0" style="stop-color:#E7EAE8"/>
<stop offset="0.0667" style="stop-color:#E7EAE8"/>
<stop offset="0.2606" style="stop-color:#D8DCDA"/>
<stop offset="0.6606" style="stop-color:#B7BDBB"/>
<stop offset="1" style="stop-color:#AFB3B2"/>
</linearGradient>
<path d="M27.353,6.354H2.647C1.738,6.354,1,7.092,1,8v17.294c0,0.909,0.738,1.647,1.647,1.647  c-0.682,0-1.235-0.554-1.235-1.236v-0.411V8.412V8c0-0.682,0.554-1.235,1.235-1.235h24.705c0.682,0,1.234,0.554,1.234,1.235v0.412  v16.882v0.411c0,0.683-0.552,1.236-1.234,1.236c0.909,0,1.647-0.738,1.647-1.647V8C29,7.092,28.262,6.354,27.353,6.354z" fill="url(#SVGID_3__)"/>
<linearGradient gradientUnits="userSpaceOnUse" id="SVGID_4__" x1="24.4707" x2="24.4707" y1="20.7725" y2="24.0876">
<stop offset="0" style="stop-color:#636363"/>
<stop offset="0.2" style="stop-color:#4D4D4D"/>
<stop offset="0.7212" style="stop-color:#242424"/>
<stop offset="1" style="stop-color:#373737"/>
</linearGradient>
<path d="M23.647,24.058c-0.455,0-0.824-0.368-0.824-0.822v-1.646  c0-0.455,0.369-0.824,0.824-0.824h1.647c0.456,0,0.824,0.369,0.824,0.824v1.646c0,0.454-0.368,0.822-0.824,0.822H23.647z" fill="url(#SVGID_4__)" fill-opacity="0.8" stroke-opacity="0.8"/>
<linearGradient gradientUnits="userSpaceOnUse" id="SVGID_5_" x1="24.4707" x2="24.4707" y1="21.146" y2="23.7092">
<stop offset="0" style="stop-color:#A2A4A4"/>
<stop offset="0.1333" style="stop-color:#848686"/>
<stop offset="0.2606" style="stop-color:#7D7E7F"/>
<stop offset="0.6606" style="stop-color:#494A4B"/>
<stop offset="1" style="stop-color:#727475"/>
</linearGradient>
<path d="M25.705,23.235c0,0.228-0.184,0.411-0.411,0.411h-1.647c-0.228,0-0.412-0.184-0.412-0.411v-1.646  c0-0.229,0.184-0.412,0.412-0.412h1.647c0.227,0,0.411,0.183,0.411,0.412V23.235z" fill="url(#SVGID_5_)"/>
<linearGradient gradientUnits="userSpaceOnUse" id="SVGID_6_" x1="19.9414" x2="19.9414" y1="20.7324" y2="24.1276">
<stop offset="0" style="stop-color:#636363"/>
<stop offset="0.2" style="stop-color:#4D4D4D"/>
<stop offset="0.7212" style="stop-color:#242424"/>
<stop offset="1" style="stop-color:#373737"/>
</linearGradient>
<path d="M19.118,24.058c-0.455,0-0.824-0.368-0.824-0.822v-1.646  c0-0.455,0.369-0.824,0.824-0.824h1.646c0.454,0,0.825,0.369,0.825,0.824v1.646c0,0.454-0.371,0.822-0.825,0.822H19.118z" fill="url(#SVGID_6_)" fill-opacity="0.8" stroke-opacity="0.8"/>
<linearGradient gradientUnits="userSpaceOnUse" id="SVGID_7_" x1="19.9409" x2="19.9409" y1="21.146" y2="23.7092">
<stop offset="0" style="stop-color:#A2A4A4"/>
<stop offset="0.1333" style="stop-color:#848686"/>
<stop offset="0.2606" style="stop-color:#7D7E7F"/>
<stop offset="0.6606" style="stop-color:#494A4B"/>
<stop offset="1" style="stop-color:#727475"/>
</linearGradient>
<path d="M21.176,23.235c0,0.228-0.184,0.411-0.413,0.411h-1.646c-0.228,0-0.413-0.184-0.413-0.411v-1.646  c0-0.229,0.185-0.412,0.413-0.412h1.646c0.229,0,0.413,0.183,0.413,0.412V23.235z" fill="url(#SVGID_7_)"/>
<linearGradient gradientUnits="userSpaceOnUse" id="SVGID_8_" x1="15.4126" x2="15.4126" y1="20.7324" y2="24.0876">
<stop offset="0" style="stop-color:#636363"/>
<stop offset="0.2" style="stop-color:#4D4D4D"/>
<stop offset="0.7212" style="stop-color:#242424"/>
<stop offset="1" style="stop-color:#373737"/>
</linearGradient>
<path d="M14.587,24.058c-0.452,0-0.821-0.368-0.821-0.822v-1.646  c0-0.455,0.369-0.824,0.821-0.824h1.647c0.455,0,0.825,0.369,0.825,0.824v1.646c0,0.454-0.371,0.822-0.825,0.822H14.587z" fill="url(#SVGID_8_)" fill-opacity="0.8" stroke-opacity="0.8"/>
<linearGradient gradientUnits="userSpaceOnUse" id="SVGID_9_" x1="15.4121" x2="15.4121" y1="21.146" y2="23.7092">
<stop offset="0" style="stop-color:#A2A4A4"/>
<stop offset="0.1333" style="stop-color:#848686"/>
<stop offset="0.2606" style="stop-color:#7D7E7F"/>
<stop offset="0.6606" style="stop-color:#494A4B"/>
<stop offset="1" style="stop-color:#727475"/>
</linearGradient>
<path d="M16.647,23.235c0,0.228-0.184,0.411-0.413,0.411h-1.647c-0.227,0-0.411-0.184-0.411-0.411v-1.646  c0-0.229,0.184-0.412,0.411-0.412h1.647c0.229,0,0.413,0.183,0.413,0.412V23.235z" fill="url(#SVGID_9_)"/>
<path d="M25.294,19.942h-1.647c-0.455,0-0.824-0.369-0.824-0.825v0.412  c0,0.455,0.369,0.824,0.824,0.824h1.647c0.456,0,0.824-0.369,0.824-0.824v-0.412C26.118,19.573,25.75,19.942,25.294,19.942z" fill="#222021" fill-opacity="0.4" stroke-opacity="0.4"/>
<linearGradient gradientUnits="userSpaceOnUse" id="SVGID_10_" x1="24.4707" x2="24.4707" y1="16.6553" y2="19.9724">
<stop offset="0" style="stop-color:#636363"/>
<stop offset="0.2" style="stop-color:#4D4D4D"/>
<stop offset="0.7212" style="stop-color:#242424"/>
<stop offset="1" style="stop-color:#373737"/>
</linearGradient>
<path d="M23.647,19.942c-0.455,0-0.824-0.369-0.824-0.825V17.47  c0-0.452,0.369-0.822,0.824-0.822h1.647c0.456,0,0.824,0.37,0.824,0.822v1.647c0,0.456-0.368,0.825-0.824,0.825H23.647z" fill="url(#SVGID_10_)" fill-opacity="0.8" stroke-opacity="0.8"/>
<linearGradient gradientUnits="userSpaceOnUse" id="SVGID_11_" x1="24.4707" x2="24.4707" y1="17.0278" y2="19.592">
<stop offset="0" style="stop-color:#A2A4A4"/>
<stop offset="0.1333" style="stop-color:#848686"/>
<stop offset="0.2606" style="stop-color:#7D7E7F"/>
<stop offset="0.6606" style="stop-color:#494A4B"/>
<stop offset="1" style="stop-color:#727475"/>
</linearGradient>
<path d="M25.705,19.117c0,0.229-0.184,0.412-0.411,0.412h-1.647c-0.228,0-0.412-0.184-0.412-0.412V17.47  c0-0.226,0.184-0.411,0.412-0.411h1.647c0.227,0,0.411,0.186,0.411,0.411V19.117z" fill="url(#SVGID_11_)"/>
<path d="M20.764,19.942h-1.646c-0.455,0-0.824-0.369-0.824-0.825v0.412  c0,0.455,0.369,0.824,0.824,0.824h1.646c0.454,0,0.825-0.369,0.825-0.824v-0.412C21.589,19.573,21.218,19.942,20.764,19.942z" fill="#222021" fill-opacity="0.4" stroke-opacity="0.4"/>
<linearGradient gradientUnits="userSpaceOnUse" id="SVGID_12_" x1="19.9414" x2="19.9414" y1="16.6152" y2="20.0124">
<stop offset="0" style="stop-color:#636363"/>
<stop offset="0.2" style="stop-color:#4D4D4D"/>
<stop offset="0.7212" style="stop-color:#242424"/>
<stop offset="1" style="stop-color:#373737"/>
</linearGradient>
<path d="M19.118,19.942c-0.455,0-0.824-0.369-0.824-0.825V17.47  c0-0.452,0.369-0.822,0.824-0.822h1.646c0.454,0,0.825,0.37,0.825,0.822v1.647c0,0.456-0.371,0.825-0.825,0.825H19.118z" fill="url(#SVGID_12_)" fill-opacity="0.8" stroke-opacity="0.8"/>
<linearGradient gradientUnits="userSpaceOnUse" id="SVGID_13_" x1="19.9409" x2="19.9409" y1="17.0278" y2="19.592">
<stop offset="0" style="stop-color:#A2A4A4"/>
<stop offset="0.1333" style="stop-color:#848686"/>
<stop offset="0.2606" style="stop-color:#7D7E7F"/>
<stop offset="0.6606" style="stop-color:#494A4B"/>
<stop offset="1" style="stop-color:#727475"/>
</linearGradient>
<path d="M21.176,19.117c0,0.229-0.184,0.412-0.413,0.412h-1.646c-0.228,0-0.413-0.184-0.413-0.412V17.47  c0-0.226,0.185-0.411,0.413-0.411h1.646c0.229,0,0.413,0.186,0.413,0.411V19.117z" fill="url(#SVGID_13_)"/>
<linearGradient gradientUnits="userSpaceOnUse" id="SVGID_14_" x1="15.4126" x2="15.4126" y1="16.6152" y2="19.9724">
<stop offset="0" style="stop-color:#636363"/>
<stop offset="0.2" style="stop-color:#4D4D4D"/>
<stop offset="0.7212" style="stop-color:#242424"/>
<stop offset="1" style="stop-color:#373737"/>
</linearGradient>
<path d="M14.587,19.942c-0.452,0-0.821-0.369-0.821-0.825V17.47  c0-0.452,0.369-0.822,0.821-0.822h1.647c0.455,0,0.825,0.37,0.825,0.822v1.647c0,0.456-0.371,0.825-0.825,0.825H14.587z" fill="url(#SVGID_14_)" fill-opacity="0.8" stroke-opacity="0.8"/>
<path d="M16.234,19.942h-1.647c-0.452,0-0.821-0.369-0.821-0.825v0.412  c0,0.455,0.369,0.824,0.821,0.824h1.647c0.455,0,0.825-0.369,0.825-0.824v-0.412C17.06,19.573,16.689,19.942,16.234,19.942z" fill="#222021" fill-opacity="0.4" stroke-opacity="0.4"/>
<linearGradient gradientUnits="userSpaceOnUse" id="SVGID_15_" x1="15.4121" x2="15.4121" y1="17.0278" y2="19.592">
<stop offset="0" style="stop-color:#A2A4A4"/>
<stop offset="0.1333" style="stop-color:#848686"/>
<stop offset="0.2606" style="stop-color:#7D7E7F"/>
<stop offset="0.6606" style="stop-color:#494A4B"/>
<stop offset="1" style="stop-color:#727475"/>
</linearGradient>
<path d="M16.647,19.117c0,0.229-0.184,0.412-0.413,0.412h-1.647c-0.227,0-0.411-0.184-0.411-0.412V17.47  c0-0.226,0.184-0.411,0.411-0.411h1.647c0.229,0,0.413,0.186,0.413,0.411V19.117z" fill="url(#SVGID_15_)"/>
<path d="M25.294,15.822h-1.647c-0.455,0-0.824-0.369-0.824-0.822v0.411  c0,0.455,0.369,0.824,0.824,0.824h1.647c0.456,0,0.824-0.369,0.824-0.824V15C26.118,15.453,25.75,15.822,25.294,15.822z" fill="#222021" fill-opacity="0.4" stroke-opacity="0.4"/>
<linearGradient gradientUnits="userSpaceOnUse" id="SVGID_16_" x1="24.4707" x2="24.4707" y1="12.5381" y2="15.8522">
<stop offset="0" style="stop-color:#636363"/>
<stop offset="0.2" style="stop-color:#4D4D4D"/>
<stop offset="0.7212" style="stop-color:#242424"/>
<stop offset="1" style="stop-color:#373737"/>
</linearGradient>
<path d="M23.647,15.822c-0.455,0-0.824-0.369-0.824-0.822v-1.647  c0-0.452,0.369-0.822,0.824-0.822h1.647c0.456,0,0.824,0.37,0.824,0.822V15c0,0.453-0.368,0.822-0.824,0.822H23.647z" fill="url(#SVGID_16_)" fill-opacity="0.8" stroke-opacity="0.8"/>
<linearGradient gradientUnits="userSpaceOnUse" id="SVGID_17_" x1="24.4707" x2="24.4707" y1="12.9106" y2="15.4738">
<stop offset="0" style="stop-color:#A2A4A4"/>
<stop offset="0.1333" style="stop-color:#848686"/>
<stop offset="0.2606" style="stop-color:#7D7E7F"/>
<stop offset="0.6606" style="stop-color:#494A4B"/>
<stop offset="1" style="stop-color:#727475"/>
</linearGradient>
<path d="M25.705,15c0,0.228-0.184,0.411-0.411,0.411h-1.647c-0.228,0-0.412-0.184-0.412-0.411v-1.647  c0-0.228,0.184-0.411,0.412-0.411h1.647c0.227,0,0.411,0.184,0.411,0.411V15z" fill="url(#SVGID_17_)"/>
<path d="M20.764,15.822h-1.646c-0.455,0-0.824-0.369-0.824-0.822v0.411  c0,0.455,0.369,0.824,0.824,0.824h1.646c0.454,0,0.825-0.369,0.825-0.824V15C21.589,15.453,21.218,15.822,20.764,15.822z" fill="#222021" fill-opacity="0.4" stroke-opacity="0.4"/>
<linearGradient gradientUnits="userSpaceOnUse" id="SVGID_18_" x1="19.9414" x2="19.9414" y1="12.498" y2="15.8922">
<stop offset="0" style="stop-color:#636363"/>
<stop offset="0.2" style="stop-color:#4D4D4D"/>
<stop offset="0.7212" style="stop-color:#242424"/>
<stop offset="1" style="stop-color:#373737"/>
</linearGradient>
<path d="M19.118,15.822c-0.455,0-0.824-0.369-0.824-0.822v-1.647  c0-0.452,0.369-0.822,0.824-0.822h1.646c0.454,0,0.825,0.37,0.825,0.822V15c0,0.453-0.371,0.822-0.825,0.822H19.118z" fill="url(#SVGID_18_)" fill-opacity="0.8" stroke-opacity="0.8"/>
<linearGradient gradientUnits="userSpaceOnUse" id="SVGID_19_" x1="19.9409" x2="19.9409" y1="12.9106" y2="15.4738">
<stop offset="0" style="stop-color:#A2A4A4"/>
<stop offset="0.1333" style="stop-color:#848686"/>
<stop offset="0.2606" style="stop-color:#7D7E7F"/>
<stop offset="0.6606" style="stop-color:#494A4B"/>
<stop offset="1" style="stop-color:#727475"/>
</linearGradient>
<path d="M21.176,15c0,0.228-0.184,0.411-0.413,0.411h-1.646c-0.228,0-0.413-0.184-0.413-0.411v-1.647  c0-0.228,0.185-0.411,0.413-0.411h1.646c0.229,0,0.413,0.184,0.413,0.411V15z" fill="url(#SVGID_19_)"/>
<linearGradient gradientUnits="userSpaceOnUse" id="SVGID_20_" x1="15.4126" x2="15.4126" y1="12.498" y2="15.8522">
<stop offset="0" style="stop-color:#636363"/>
<stop offset="0.2" style="stop-color:#4D4D4D"/>
<stop offset="0.7212" style="stop-color:#242424"/>
<stop offset="1" style="stop-color:#373737"/>
</linearGradient>
<path d="M14.587,15.822c-0.452,0-0.821-0.369-0.821-0.822v-1.647  c0-0.452,0.369-0.822,0.821-0.822h1.647c0.455,0,0.825,0.37,0.825,0.822V15c0,0.453-0.371,0.822-0.825,0.822H14.587z" fill="url(#SVGID_20_)" fill-opacity="0.8" stroke-opacity="0.8"/>
<path d="M16.234,15.822h-1.647c-0.452,0-0.821-0.369-0.821-0.822v0.411  c0,0.455,0.369,0.824,0.821,0.824h1.647c0.455,0,0.825-0.369,0.825-0.824V15C17.06,15.453,16.689,15.822,16.234,15.822z" fill="#222021" fill-opacity="0.4" stroke-opacity="0.4"/>
<linearGradient gradientUnits="userSpaceOnUse" id="SVGID_21_" x1="15.4121" x2="15.4121" y1="12.9106" y2="15.4738">
<stop offset="0" style="stop-color:#A2A4A4"/>
<stop offset="0.1333" style="stop-color:#848686"/>
<stop offset="0.2606" style="stop-color:#7D7E7F"/>
<stop offset="0.6606" style="stop-color:#494A4B"/>
<stop offset="1" style="stop-color:#727475"/>
</linearGradient>
<path d="M16.647,15c0,0.228-0.184,0.411-0.413,0.411h-1.647c-0.227,0-0.411-0.184-0.411-0.411v-1.647  c0-0.228,0.184-0.411,0.411-0.411h1.647c0.229,0,0.413,0.184,0.413,0.411V15z" fill="url(#SVGID_21_)"/>
<linearGradient gradientUnits="userSpaceOnUse" id="SVGID_22_" x1="19.9434" x2="19.9434" y1="7.5977" y2="11.732">
<stop offset="0" style="stop-color:#6A6B6C"/>
<stop offset="1" style="stop-color:#E8EEEA"/>
</linearGradient>
<path d="M13.354,11.705c-0.454,0-0.825-0.374-0.825-0.833V8.423  c0-0.461,0.371-0.834,0.825-0.834h13.181c0.454,0,0.823,0.373,0.823,0.834v2.449c0,0.459-0.369,0.833-0.823,0.833H13.354z" fill="url(#SVGID_22_)" fill-opacity="0.4" stroke-opacity="0.4"/>
<linearGradient gradientUnits="userSpaceOnUse" id="SVGID_23_" x1="19.9419" x2="19.9419" y1="8.0195" y2="11.3512">
<stop offset="0" style="stop-color:#171717"/>
<stop offset="1" style="stop-color:#2E2E2E"/>
</linearGradient>
<path d="M26.942,10.872c0,0.23-0.183,0.417-0.411,0.417H13.354c-0.227,0-0.412-0.187-0.412-0.417V8.423  c0-0.23,0.185-0.417,0.412-0.417h13.177c0.228,0,0.411,0.187,0.411,0.417V10.872z" fill="url(#SVGID_23_)"/>
<linearGradient gradientUnits="userSpaceOnUse" id="SVGID_24_" x1="19.9424" x2="19.9424" y1="3.9624" y2="12.5882">
<stop offset="0" style="stop-color:#7DC7BB"/>
<stop offset="0.1455" style="stop-color:#7DC7BB"/>
<stop offset="0.5576" style="stop-color:#6292A3"/>
<stop offset="0.8727" style="stop-color:#455188"/>
<stop offset="1" style="stop-color:#4E6591"/>
</linearGradient>
<rect fill="url(#SVGID_24_)" height="2.449" width="13.177" x="13.354" y="8.423"/>
<linearGradient gradientUnits="userSpaceOnUse" id="SVGID_25_" x1="19.9424" x2="19.9424" y1="5.6362" y2="11.6377">
<stop offset="0" style="stop-color:#7DC7BB"/>
<stop offset="0.1455" style="stop-color:#7DC7BB"/>
<stop offset="0.5576" style="stop-color:#77A6AD"/>
<stop offset="0.8727" style="stop-color:#455188"/>
<stop offset="1" style="stop-color:#4E6591"/>
</linearGradient>
<polygon fill="url(#SVGID_25_)" points="13.354,9.51 26.531,8.807 26.531,8.412 13.354,8.412 "/>
<path d="M2.234,21.177c0,2.27,1.849,4.117,4.12,4.117h0.822c2.27,0,4.118-1.848,4.118-4.117V6.354  H4.706H2.647c-0.147,0-0.277,0.046-0.413,0.083V21.177z" fill="#050505" fill-opacity="0.1" stroke-opacity="0.1"/>
<path d="M6.354,24.883h0.822c2.044,0,3.706-1.662,3.706-3.706V6.354H4.706H2.647v14.823  C2.647,23.221,4.31,24.883,6.354,24.883z" fill="#050505" fill-opacity="0.2" stroke-opacity="0.2"/>
<linearGradient gradientUnits="userSpaceOnUse" id="SVGID_26_" x1="6.7656" x2="6.7656" y1="3.1465" y2="24.8746">
<stop offset="0" style="stop-color:#747576"/>
<stop offset="0.7394" style="stop-color:#262628"/>
<stop offset="1" style="stop-color:#4B4B4D"/>
</linearGradient>
<path d="M10.471,21.177c0,1.819-1.474,3.294-3.295,3.294H6.354c-1.82,0-3.294-1.475-3.294-3.294V6.354  c0-1.819,1.474-3.295,3.294-3.295h0.822c1.821,0,3.295,1.476,3.295,3.295V21.177z" fill="url(#SVGID_26_)"/>
<linearGradient gradientUnits="userSpaceOnUse" id="SVGID_27_" x1="6.7656" x2="6.7656" y1="3.082" y2="8.9318">
<stop offset="0" style="stop-color:#B8BCBB"/>
<stop offset="1" style="stop-color:#4B4B4D"/>
</linearGradient>
<path d="M7.176,3.059H6.354c-1.82,0-3.294,1.476-3.294,3.295v2.47c0-1.819,1.474-3.295,3.294-3.295h0.822  c1.821,0,3.295,1.476,3.295,3.295v-2.47C10.471,4.534,8.997,3.059,7.176,3.059z" fill="url(#SVGID_27_)"/>
<linearGradient gradientUnits="userSpaceOnUse" id="SVGID_28_" x1="6.7656" x2="6.7656" y1="3.0688" y2="7.2577">
<stop offset="0" style="stop-color:#D8DDDA"/>
<stop offset="1" style="stop-color:#4B4B4D"/>
</linearGradient>
<path d="M7.176,3.059H6.354c-1.82,0-3.294,1.476-3.294,3.295v0.411c0-1.818,1.474-3.295,3.294-3.295h0.822  c1.821,0,3.295,1.477,3.295,3.295V6.354C10.471,4.534,8.997,3.059,7.176,3.059z" fill="url(#SVGID_28_)"/>
<linearGradient gradientUnits="userSpaceOnUse" id="SVGID_29_" x1="6.7646" x2="6.7646" y1="2.7354" y2="24.6079">
<stop offset="0" style="stop-color:#A2A6A5"/>
<stop offset="0.7576" style="stop-color:#262628"/>
<stop offset="1" style="stop-color:#202020"/>
</linearGradient>
<path d="M7.176,5.528H6.354c-0.438,0-0.855,0.087-1.236,0.244V22h3.292V5.772  C8.03,5.615,7.614,5.528,7.176,5.528z" fill="url(#SVGID_29_)"/>
<linearGradient gradientUnits="userSpaceOnUse" id="SVGID_30_" x1="6.7656" x2="6.7656" y1="18.7295" y2="24.5792">
<stop offset="0" style="stop-color:#262628"/>
<stop offset="1" style="stop-color:#5C5D5F"/>
</linearGradient>
<path d="M7.176,22H6.354c-1.82,0-3.294-1.476-3.294-3.294v2.471c0,1.819,1.474,3.294,3.294,3.294h0.822  c1.821,0,3.295-1.475,3.295-3.294v-2.471C10.471,20.524,8.997,22,7.176,22z" fill="url(#SVGID_30_)"/>
<rect fill="none" height="30" width="30"/>
</g>
</svg>
