<?xml version="1.0" encoding="UTF-8"?>
<!DOCTYPE svg PUBLIC "-//W3C//DTD SVG 1.1 Tiny//EN" "http://www.w3.org/Graphics/SVG/1.1/DTD/svg11-tiny.dtd">
<svg baseProfile="tiny" height="70px" version="1.1" viewBox="0 0 10 70" width="10px" x="0px" xmlns="http://www.w3.org/2000/svg" xmlns:xlink="http://www.w3.org/1999/xlink" y="0px">
<rect fill="none" height="70" width="10"/>
<path d="M9,0C4.037,0,0,4.037,0,9v51c0,4.963,4.037,10,9,10h1V0H9z" fill-opacity="0.2" stroke-opacity="0.2"/>
<path d="M1,60v1c0,4.4,3.6,8,8,8h1v-9H1z" fill-opacity="0.2" stroke-opacity="0.2"/>
<path d="M9,2C5.141,2,2,5.141,2,9v51c0,3.859,3.141,7,7,7h1V2H9z" fill="url(#SVGID_1_)"/>
<path d="M9,64c-2.205,0-4-1.794-4-4V9c0-2,1.795-3,4-3h1V2H9C5.141,2,2,5.141,2,9v51c0,3.859,3.141,7,7,7h1v-3H9z" fill-opacity="0.2" stroke-opacity="0.2"/>
<path d="M9,3C5.691,3,3,5.691,3,9v1h1c0-2.757,2.243-5,5-5h1V3H9z" fill-opacity="0.2" stroke-opacity="0.2"/>
<path d="M9,65c-2.757,0-5-2.243-5-5V9c0-2.757,2.243-5,5-5h1V1H9C4.6,1,1,4.6,1,9v51c0,4.4,3.6,8,8,8h1v-3H9z" fill="#FFFFFF"/>
<defs>
<linearGradient gradientUnits="userSpaceOnUse" id="SVGID_1_" x1="6" x2="6" y1="67" y2="2.0005">
<stop offset="0" style="stop-color:#66B8CC"/>
<stop offset="1" style="stop-color:#3F89A9"/>
</linearGradient>
</defs>
</svg>
