<?xml version="1.0" encoding="UTF-8"?>
<!DOCTYPE svg PUBLIC "-//W3C//DTD SVG 1.1 Tiny//EN" "http://www.w3.org/Graphics/SVG/1.1/DTD/svg11-tiny.dtd">
<svg baseProfile="tiny" height="30px" version="1.1" viewBox="0 0 30 30" width="30px" x="0px" xmlns="http://www.w3.org/2000/svg" xmlns:xlink="http://www.w3.org/1999/xlink" y="0px">
<path d="M21.684,2.715C20.141,1.572,17.908,1,14.988,1C13.231,1,11.235,1.41,9,2c0,0-2,1.256,0,3.128  c1.977-0.565,3.683-0.849,5.116-0.849c1.473,0,2.578,0.314,3.313,0.943c0.736,0.629,1.105,1.571,1.105,2.827  c0,0.603-0.152,1.22-0.456,1.848c-0.303,0.628-1.095,1.545-2.374,2.752c-1.214,1.118-2.112,2.143-2.693,3.072  c-0.581,0.931-1.012,2.03-1.012,3.3V21c0,0.553,1.119,1,2.5,1s2.5-0.447,2.5-1v-1.715c0-0.767,0.269-1.443,0.682-2.027  c0.414-0.584,1.234-1.467,2.462-2.648c1.68-1.633,2.742-2.943,3.188-3.93C23.777,9.693,24,8.729,24,7.786  C24,5.549,23.228,3.859,21.684,2.715z"/>
<circle cx="14.5" cy="26.5" r="3"/>
<g fill-opacity="0.5" stroke-opacity="0.5">
<rect fill="none" height="30" width="30"/>
</g>
</svg>
