<?xml version="1.0" encoding="UTF-8"?>
<!DOCTYPE svg PUBLIC "-//W3C//DTD SVG 1.1 Tiny//EN" "http://www.w3.org/Graphics/SVG/1.1/DTD/svg11-tiny.dtd">
<svg baseProfile="tiny" height="60" viewBox="0 0 60 60" width="60" xmlns="http://www.w3.org/2000/svg" xmlns:xlink="http://www.w3.org/1999/xlink">
<g>
<linearGradient gradientUnits="userSpaceOnUse" id="SVGID_1_" x1="26.2671" x2="26.2671" y1="6.1377" y2="31.7569">
<stop offset="0" style="stop-color:#A8A9AA"/>
<stop offset="1" style="stop-color:#000000"/>
</linearGradient>
<path d="M13.69,40.243c-0.309-0.211-7.56-5.245-7.252-12.086  c0.198-4.412,3.463-8.415,9.705-11.898c1.036-0.577,2.176-1.153,3.391-1.711l0.326-0.148c0.21-0.095,0.425-0.189,0.64-0.283  c0.187-0.083,0.378-0.165,0.573-0.248l0.557-0.234c0.256-0.105,1.223-0.493,1.223-0.493c0.176-0.069,0.352-0.138,0.53-0.206V6.081  l22.723,11.33L23.382,28.74v-5.978c-5.189,1.273-8.968,3.829-10.175,6.915c-1.018,2.598-0.306,5.583,2.117,8.872l0.299,0.406  l-1.516,1.572L13.69,40.243z" fill="url(#SVGID_1_)" fill-opacity="0.2" stroke-opacity="0.2"/>
<linearGradient gradientUnits="userSpaceOnUse" id="SVGID_2_" x1="25.896" x2="25.896" y1="7.0449" y2="37.3736">
<stop offset="0" style="stop-color:#AAABAC"/>
<stop offset="1" style="stop-color:#000000"/>
</linearGradient>
<path d="M14.028,39.75c-0.298-0.204-7.287-5.049-6.994-11.566  c0.188-4.191,3.351-8.028,9.4-11.404c1.028-0.573,2.151-1.14,3.349-1.689l0.324-0.148c0.206-0.093,0.418-0.186,0.63-0.278  c0.188-0.082,0.376-0.164,0.568-0.245l0.555-0.234c0.25-0.104,1.213-0.489,1.213-0.489c0.297-0.117,0.599-0.233,0.905-0.349V7.045  l20.789,10.366L23.979,27.776v-5.764c-5.772,1.253-9.982,4.009-11.328,7.448c-1.097,2.802-0.358,5.979,2.193,9.443L14.028,39.75z" fill="url(#SVGID_2_)" fill-opacity="0.4" stroke-opacity="0.4"/>
<linearGradient gradientUnits="userSpaceOnUse" id="SVGID_3_" x1="33.7334" x2="33.7334" y1="19.688" y2="51.9872">
<stop offset="0" style="stop-color:#A8A9AA"/>
<stop offset="1" style="stop-color:#000000"/>
</linearGradient>
<path d="M13.896,42.589L36.616,31.26v5.978  c5.19-1.273,8.968-3.829,10.177-6.914c1.017-2.598,0.304-5.583-2.119-8.873l-0.299-0.405l1.517-1.573l0.417,0.284  c0.309,0.211,7.561,5.245,7.253,12.087c-0.198,4.412-3.464,8.415-9.706,11.898l-0.138,0.076c-1.002,0.555-2.102,1.106-3.271,1.641  l-0.303,0.14c-0.216,0.097-0.434,0.193-0.65,0.288l-0.559,0.241l-0.571,0.239c-0.253,0.105-0.508,0.209-0.767,0.312l-0.455,0.182  c-0.174,0.069-0.35,0.137-0.526,0.205v6.855L13.896,42.589z" fill="url(#SVGID_3_)" fill-opacity="0.2" stroke-opacity="0.2"/>
<linearGradient gradientUnits="userSpaceOnUse" id="SVGID_4_" x1="34.1035" x2="34.1035" y1="20.4546" y2="51.1212">
<stop offset="0" style="stop-color:#AAABAC"/>
<stop offset="1" style="stop-color:#000000"/>
</linearGradient>
<path d="M15.234,42.589L36.02,32.224v5.764  c5.773-1.253,9.982-4.009,11.328-7.447c1.098-2.802,0.359-5.979-2.192-9.444l0.815-0.847c0.299,0.204,7.287,5.049,6.994,11.567  c-0.188,4.191-3.351,8.028-9.4,11.404l-0.137,0.076c-0.989,0.547-2.074,1.092-3.229,1.62l-0.304,0.14  c-0.21,0.095-0.426,0.189-0.64,0.283l-0.557,0.24l-0.565,0.237c-0.247,0.103-0.501,0.205-0.756,0.307l-0.457,0.182  c-0.294,0.116-0.595,0.232-0.901,0.348v6.302L15.234,42.589z" fill="url(#SVGID_4_)" fill-opacity="0.4" stroke-opacity="0.4"/>
<linearGradient gradientUnits="userSpaceOnUse" id="SVGID_5_" x1="34.873" x2="34.873" y1="23.2422" y2="46.511">
<stop offset="0" style="stop-color:#B3C77D"/>
<stop offset="0.7273" style="stop-color:#3C743A"/>
<stop offset="1" style="stop-color:#235138"/>
</linearGradient>
<path d="M18.001,41.993l16.783-8.368v5.271l0.76-0.146c6.556-1.256,11.398-4.38,12.956-8.356  c0.856-2.191,0.736-4.618-0.332-7.152c1.892,2.029,3.939,5.081,3.521,8.503c-0.614,4.992-6.161,9.466-16.488,13.298l-0.416,0.156  v5.161L18.001,41.993z" fill="url(#SVGID_5_)"/>
<linearGradient gradientUnits="userSpaceOnUse" id="SVGID_6_" x1="30.0327" x2="30.0327" y1="51.4287" y2="42.0396">
<stop offset="0" style="stop-color:#B3C77D"/>
<stop offset="1" style="stop-color:#3C743A"/>
</linearGradient>
<path d="M16.792,42.103l18.631,9.291v-5.75c3.122-1.16,5.709-2.345,7.851-3.541H16.792z" fill="url(#SVGID_6_)"/>
<linearGradient gradientUnits="userSpaceOnUse" id="SVGID_7_" x1="25.127" x2="25.127" y1="36.3267" y2="9.0388">
<stop offset="0" style="stop-color:#7DC7BB"/>
<stop offset="0.5" style="stop-color:#6292A3"/>
<stop offset="1" style="stop-color:#455188"/>
</linearGradient>
<path d="M11.831,35.564c-1.891-2.029-3.939-5.082-3.519-8.502c0.613-4.993,6.16-9.467,16.486-13.299  l0.417-0.154V8.445l16.782,8.369l-16.782,8.367v-5.271l-0.759,0.145C17.9,21.313,13.057,24.437,11.5,28.412  C10.643,30.603,10.762,33.03,11.831,35.564L11.831,35.564z" fill="url(#SVGID_7_)"/>
<linearGradient gradientUnits="userSpaceOnUse" id="SVGID_8_" x1="29.9663" x2="29.9663" y1="8.4697" y2="15.2044">
<stop offset="0" style="stop-color:#7DC7BB"/>
<stop offset="1" style="stop-color:#6292A3"/>
</linearGradient>
<path d="M43.207,16.703l-18.631-9.29v5.75c-3.122,1.159-5.709,2.345-7.85,3.54H43.207z" fill="url(#SVGID_8_)"/>
<linearGradient gradientUnits="userSpaceOnUse" id="SVGID_9_" x1="25.5229" x2="25.5229" y1="8.0708" y2="27.6391">
<stop offset="0" style="stop-color:#B3DFCE"/>
<stop offset="0.0061" style="stop-color:#B3DFCE"/>
<stop offset="1" style="stop-color:#45698B"/>
</linearGradient>
<path d="M25.215,8.445l16.782,8.369l-16.782,8.367v-4.498v-0.773l-0.759,0.145  C17.9,21.313,13.058,24.437,11.5,28.412c-0.858,2.193-0.738,4.624,0.335,7.161c-1.892-2.025-3.943-5.077-3.523-8.507  c0.61-4.994,6.158-9.469,16.487-13.303l0.417-0.154v-0.445V8.445 M24.576,7.413v5.75C-6.247,24.602,14.364,38.659,14.364,38.659  c-7.105-9.643,0.429-16.1,10.212-17.976v5.531l18.854-9.4L24.576,7.413L24.576,7.413z" fill="url(#SVGID_9_)"/>
<linearGradient gradientUnits="userSpaceOnUse" id="SVGID_10_" x1="34.4766" x2="34.4766" y1="29.8569" y2="51.3697">
<stop offset="0" style="stop-color:#B3C77C"/>
<stop offset="1" style="stop-color:#2A6138"/>
</linearGradient>
<path d="M45.635,20.146c7.105,9.644-0.428,16.101-10.212,17.977v-5.531l-18.854,9.401l18.854,9.401v-5.75  C66.247,34.204,45.635,20.146,45.635,20.146z M35.2,45.043l-0.416,0.156v0.444v4.717l-16.783-8.368l16.783-8.368v4.498v0.773  l0.76-0.146c6.556-1.256,11.399-4.38,12.956-8.356c0.856-2.191,0.736-4.618-0.332-7.152c1.892,2.029,3.94,5.081,3.521,8.503  C51.074,36.737,45.527,41.211,35.2,45.043z" fill="url(#SVGID_10_)"/>
<rect fill="none" height="60" width="60"/>
</g>
</svg>
