<?xml version="1.0" encoding="UTF-8"?>
<!DOCTYPE svg PUBLIC "-//W3C//DTD SVG 1.1 Tiny//EN" "http://www.w3.org/Graphics/SVG/1.1/DTD/svg11-tiny.dtd">
<svg baseProfile="tiny" height="30px" version="1.1" viewBox="0 0 30 30" width="30px" x="0px" xmlns="http://www.w3.org/2000/svg" xmlns:xlink="http://www.w3.org/1999/xlink" y="0px">
<g fill-opacity="0.5" stroke-opacity="0.5">
<rect fill="none" height="30" width="30"/>
</g>
<path d="M14,23H9v-2h5.232c0.247-1.087,0.687-2.102,1.289-3H9v-2h8.355c1.545-1.248,3.508-2,5.645-2c0.338,0,0.672,0.022,1,0.059V3  c0-1.104-0.896-2-2-2H4C2.896,1,2,1.896,2,3v24c0,1.104,0.896,2,2,2h12.311C14.879,27.406,14,25.307,14,23z M9,6h11v2H9V6z M9,11h11  v2H9V11z M8,23H6v-2h2V23z M8,18H6v-2h2V18z M8,13H6v-2h2V13z M8,8H6V6h2V8z"/>
<path d="M23,16c-3.865,0-7,3.135-7,7c0,3.867,3.135,7,7,7s7-3.133,7-7C30,19.135,26.865,16,23,16z M22,23.992v-0.016v-1.98v-4.004h2  v4.004h4v1.996H22z"/>
</svg>
