<?xml version="1.0" encoding="UTF-8"?>
<!DOCTYPE svg PUBLIC "-//W3C//DTD SVG 1.1 Tiny//EN" "http://www.w3.org/Graphics/SVG/1.1/DTD/svg11-tiny.dtd">
<svg baseProfile="tiny" height="30px" version="1.1" viewBox="0 0 30 30" width="30px" x="0px" xmlns="http://www.w3.org/2000/svg" xmlns:xlink="http://www.w3.org/1999/xlink" y="0px">
<g fill-opacity="0.5" stroke-opacity="0.5">
<rect fill="none" height="30" width="30"/>
</g>
<path d="M27.578,6.524l-7.359,4.248c-0.364,0.153-0.771,0.057-0.953-0.255l-1.277-2.143c-0.002,0.002-0.006,0.008-0.007,0.008  s0-0.002-0.001-0.004c-1.119,0.582-3.617,2.223-5.187,3.792c-1.632,1.634-3.149,3.392-4.417,5.575c0,0-0.006,0.008-0.008,0.01  c0.009,0.002,0.018,0.002,0.027,0.002l2.725,1.744c0.344,0.221,0.412,0.705,0.158,1.078l-4.793,7.041  c-0.254,0.371-0.736,0.492-1.081,0.268c0,0-0.298-0.193-1.021-0.83c-0.001,0-0.002,0-0.003,0c-0.394-0.346-0.411-0.475-0.785-0.924  c-0.319-0.385-0.573-0.766-0.783-1.115c0,0-0.004,0-0.005-0.002c-0.043-0.07-0.081-0.139-0.119-0.207  c-0.005-0.008-0.01-0.018-0.015-0.023c-0.391-0.699-0.56-1.211-0.56-1.211c-0.178-0.688-0.252-3.057,0.563-5.205  c0.52-1.365,3.24-5.671,6.42-8.854c3.181-3.182,8.125-6.348,10.3-7.004c2.176-0.657,3.903-0.557,4.417-0.375  c0,0,1.326,0.433,2.53,1.537c0.401,0.367,0.439,0.38,0.751,0.763c0.002,0.004,0,0.006,0.002,0.008  c-0.002-0.002-0.002-0.004-0.004-0.004C27.709,5.196,27.912,5.5,27.912,5.5C28.111,5.844,27.961,6.303,27.578,6.524z"/>
</svg>
