<?xml version="1.0" encoding="UTF-8"?>
<!DOCTYPE svg PUBLIC "-//W3C//DTD SVG 1.1 Tiny//EN" "http://www.w3.org/Graphics/SVG/1.1/DTD/svg11-tiny.dtd">
<svg baseProfile="tiny" height="30px" version="1.1" viewBox="0 0 30 30" width="30px" x="0px" xmlns="http://www.w3.org/2000/svg" xmlns:xlink="http://www.w3.org/1999/xlink" y="0px">
<g fill-opacity="0.5" stroke-opacity="0.5">
<rect fill="none" height="30" width="30"/>
</g>
<path d="M6.163,12L1,29h3.002l1.072-4h5.376l1.056,4H15l-4.947-17H6.163z M5.61,23l2.173-8.104L9.922,23H5.61z"/>
<path d="M27,21h-2.869L28,10h-8.639l3.179-9h-5.302L13,13h8.639l-2.811,8H16c-0.396,0-0.756,0.234-0.916,0.598  c-0.159,0.363-0.089,0.785,0.179,1.078l5.5,6C20.952,28.883,21.22,29,21.5,29s0.548-0.117,0.737-0.324l5.5-6  c0.268-0.293,0.338-0.715,0.179-1.078C27.756,21.234,27.396,21,27,21z"/>
</svg>
