<?xml version="1.0" encoding="UTF-8"?>
<!DOCTYPE svg PUBLIC "-//W3C//DTD SVG 1.1 Tiny//EN" "http://www.w3.org/Graphics/SVG/1.1/DTD/svg11-tiny.dtd">
<svg baseProfile="tiny" height="30px" version="1.1" viewBox="0 0 30 30" width="30px" x="0px" xmlns="http://www.w3.org/2000/svg" xmlns:xlink="http://www.w3.org/1999/xlink" y="0px">
<g>
<rect fill="none" height="30" width="30"/>
</g>
<path d="M27,7c0-0.334-0.084-0.668-0.25-0.97C26.396,5.395,25.727,5,25,5H5C4.273,5,3.604,5.395,3.25,6.03C3.084,6.332,3,6.666,3,7  c0,0.369,0.102,0.736,0.305,1.061l9.999,16C13.67,24.645,14.311,25,15,25s1.33-0.355,1.696-0.939l9.999-16  C26.898,7.736,27,7.369,27,7L27,7z"/>
</svg>
