<?xml version="1.0" encoding="UTF-8"?>
<!DOCTYPE svg PUBLIC "-//W3C//DTD SVG 1.1 Tiny//EN" "http://www.w3.org/Graphics/SVG/1.1/DTD/svg11-tiny.dtd">
<svg baseProfile="tiny" height="30" viewBox="0 0 30 30" width="30" xmlns="http://www.w3.org/2000/svg" xmlns:xlink="http://www.w3.org/1999/xlink">
<g>
<g>
<rect fill="none" height="30" width="30"/>
</g>
<path d="M26.827,7.531L28.439,2l-4.335,2.378C21.655,2.277,18.479,1,15,1S8.345,2.277,5.896,4.378L1.56,2l1.613,5.531  C1.804,9.694,1,12.25,1,15c0,7.732,6.268,14,14,14c7.732,0,14-6.268,14-14C29,12.25,28.196,9.694,26.827,7.531z" fill-opacity="0.6" stroke-opacity="0.6"/>
<radialGradient cx="15" cy="3.4897" gradientUnits="userSpaceOnUse" id="SVGID_1_" r="23.3695">
<stop offset="0" style="stop-color:#DDD7B2"/>
<stop offset="0.7818" style="stop-color:#B3964D"/>
<stop offset="1" style="stop-color:#B39C4D"/>
</radialGradient>
<path d="M15,28C7.832,28,2,22.168,2,15c0-2.45,0.698-4.848,2.019-6.935L4.26,7.684L3.196,4.038l2.826,1.55  l0.525-0.451C8.905,3.114,11.907,2,15,2c3.093,0,6.096,1.114,8.453,3.137l0.525,0.451l2.825-1.55l-1.063,3.646l0.241,0.381  C27.303,10.151,28,12.549,28,15C28,22.168,22.168,28,15,28L15,28z" fill="url(#SVGID_1_)"/>
<path d="M6.022,6.587l0.525-0.451C8.905,4.114,11.907,3,15,3c3.093,0,6.096,1.114,8.453,3.137  l0.525,0.451l2.479-1.36l0.347-1.19l-2.825,1.55l-0.525-0.451C21.096,3.114,18.093,2,15,2c-3.093,0-6.095,1.114-8.453,3.137  L6.022,5.587l-2.826-1.55l0.347,1.19L6.022,6.587z" fill="#FFFFFF" fill-opacity="0.3" stroke-opacity="0.3"/>
<path d="M15.075,24.834c-5.617,0-9.75-2.753-11.056-7.363c-0.075-0.266,0.079-0.543,0.345-0.618  c0.262-0.075,0.542,0.079,0.617,0.345C6.158,21.353,9.856,22.834,15,22.834c5.143,0,8.993-1.481,10.17-5.637  c0.074-0.266,0.355-0.42,0.617-0.345c0.266,0.075,0.42,0.353,0.344,0.618C24.826,22.081,20.692,24.834,15.075,24.834L15.075,24.834z  " fill-opacity="0.2" stroke-opacity="0.2"/>
<path d="M27,19.803l-0.942-2.238c0.062-0.307-0.087-0.621-0.347-0.707  c-0.262-0.09-0.542,0.092-0.617,0.408c-1.177,4.936-4.949,7.068-10.093,7.068c-5.144,0-8.917-2.133-10.095-7.068  c-0.075-0.316-0.355-0.498-0.617-0.408c-0.259,0.086-0.408,0.4-0.346,0.707L3,19.803c0.497,0,0.957-0.506,1.293-1.015  C5.888,23.535,9.807,25.834,15,25.834c5.189,0,9.107-2.295,10.704-7.039C25.994,19.178,26.407,19.568,27,19.803z" fill="#FFFFFF" fill-opacity="0.6" stroke-opacity="0.6"/>
<path d="M27,19.334l-0.942-1.885c0.062-0.259-0.087-0.523-0.347-0.597c-0.262-0.075-0.542,0.079-0.617,0.345  c-1.177,4.155-4.95,6.637-10.094,6.637s-8.917-2.481-10.094-6.637c-0.075-0.266-0.355-0.42-0.617-0.345  c-0.259,0.073-0.408,0.338-0.346,0.597L3,19.334c0.497,0,0.957-0.426,1.293-0.854C5.888,22.478,9.807,24.834,15,24.834  c5.189,0,9.107-2.354,10.704-6.348C25.994,18.807,26.407,19.137,27,19.334z" fill="url(#SVGID_2_)"/>
<path d="M12.703,14.146l-9-4c-0.252-0.112-0.548,0.001-0.66,0.254c-0.112,0.252,0.001,0.548,0.254,0.66l0.662,0.294  c-0.188,0.895-0.137,2.118,0.393,3.214c0.519,1.075,1.408,1.851,2.57,2.246C7.296,16.941,7.683,17,8.067,17  c1.561,0,3.104-0.955,3.806-2.128l0.423,0.188c0.066,0.029,0.135,0.043,0.203,0.043c0.192,0,0.375-0.11,0.458-0.297  C13.069,14.554,12.956,14.259,12.703,14.146z M7.243,15.868c-0.916-0.311-1.585-0.894-1.991-1.734  c-0.385-0.796-0.451-1.684-0.353-2.361l6.049,2.688C10.283,15.437,8.674,16.354,7.243,15.868z" fill-opacity="0.4" stroke-opacity="0.4"/>
<path d="M12.703,13.043l-9-4c-0.252-0.112-0.548,0.001-0.66,0.254C2.931,9.55,3.044,9.845,3.297,9.958  c0,0,9.135,4.043,9.203,4.043c0.192,0,0.375-0.11,0.458-0.297C13.069,13.451,12.956,13.156,12.703,13.043z" fill="#FFFFFF" fill-opacity="0.3" stroke-opacity="0.3"/>
<path d="M4.555,10.505c-0.5,1.4-0.205,4.357,2.527,5.285c1.889,0.641,4.044-0.755,4.563-2.133L4.555,10.505z" fill="#FFFFFF"/>
<circle cx="7.985" cy="13.228" fill="#22243E" r="1.5"/>
<path d="M4.365,11.53l6.729,2.99c0.239-0.273,0.434-0.561,0.546-0.852l-7.088-3.15  C4.451,10.802,4.386,11.15,4.365,11.53z" fill-opacity="0.2" stroke-opacity="0.2"/>
<path d="M12.703,13.595l-9-4c-0.252-0.112-0.548,0.001-0.66,0.254c-0.112,0.252,0.001,0.548,0.254,0.66l0.662,0.294  c-0.188,0.895-0.137,2.118,0.393,3.214c0.519,1.075,1.408,1.852,2.57,2.247c0.375,0.127,0.761,0.185,1.146,0.185  c1.561,0,3.104-0.956,3.806-2.128l0.423,0.188c0.066,0.029,0.135,0.043,0.203,0.043c0.192,0,0.375-0.11,0.458-0.297  C13.069,14.002,12.956,13.707,12.703,13.595z M7.243,15.316c-0.916-0.311-1.585-0.894-1.991-1.734  c-0.385-0.796-0.451-1.684-0.353-2.361l6.049,2.688C10.283,14.885,8.674,15.802,7.243,15.316z" fill="#2F2021"/>
<path d="M17.043,14.807c0.083,0.187,0.266,0.297,0.457,0.297c0.068,0,0.137-0.014,0.203-0.043l0.424-0.188  C18.829,16.045,20.371,17,21.933,17c0.385,0,0.771-0.059,1.146-0.186c1.162-0.395,2.051-1.171,2.57-2.246  c0.529-1.096,0.58-2.32,0.393-3.214l0.662-0.294c0.252-0.112,0.365-0.408,0.254-0.66c-0.112-0.252-0.408-0.366-0.66-0.254l-9,4  C17.045,14.259,16.932,14.554,17.043,14.807z M19.052,14.461l6.049-2.688c0.098,0.677,0.032,1.565-0.353,2.361  c-0.406,0.84-1.076,1.423-1.991,1.734C21.326,16.354,19.717,15.437,19.052,14.461z" fill-opacity="0.4" stroke-opacity="0.4"/>
<path d="M17.043,13.704C17.126,13.89,17.309,14,17.5,14c0.068,0,9.203-4.043,9.203-4.043  c0.252-0.112,0.365-0.408,0.254-0.66c-0.112-0.252-0.408-0.366-0.66-0.254l-9,4C17.045,13.156,16.932,13.451,17.043,13.704z" fill="#FFFFFF" fill-opacity="0.3" stroke-opacity="0.3"/>
<path d="M25.444,10.505c0.501,1.4,0.205,4.357-2.526,5.285c-1.889,0.641-4.045-0.755-4.563-2.133L25.444,10.505z" fill="#FFFFFF"/>
<circle cx="22.015" cy="13.228" fill="#22243E" r="1.5"/>
<path d="M25.635,11.53l-6.729,2.99c-0.238-0.273-0.434-0.561-0.545-0.852l7.087-3.15  C25.549,10.802,25.613,11.15,25.635,11.53z" fill-opacity="0.2" stroke-opacity="0.2"/>
<path d="M17.043,14.255c0.083,0.187,0.266,0.297,0.457,0.297c0.068,0,0.137-0.014,0.203-0.043l0.424-0.188  c0.702,1.172,2.244,2.128,3.806,2.128c0.385,0,0.771-0.058,1.146-0.185c1.162-0.395,2.051-1.172,2.57-2.247  c0.529-1.096,0.58-2.32,0.393-3.214l0.662-0.294c0.252-0.112,0.365-0.408,0.254-0.66c-0.112-0.252-0.408-0.366-0.66-0.254l-9,4  C17.045,13.707,16.932,14.002,17.043,14.255z M19.052,13.909l6.049-2.688c0.098,0.677,0.032,1.565-0.353,2.361  c-0.406,0.84-1.076,1.423-1.991,1.734C21.326,15.802,19.717,14.885,19.052,13.909z" fill="#2F2021"/>
<defs>
<linearGradient gradientUnits="userSpaceOnUse" id="SVGID_2_" x1="14.9995" x2="14.9995" y1="16.9766" y2="24.878">
<stop offset="0" style="stop-color:#31151D"/>
<stop offset="1" style="stop-color:#76464D"/>
</linearGradient>
</defs>
</g>
</svg>
