<?xml version="1.0" encoding="UTF-8"?>
<!DOCTYPE svg PUBLIC "-//W3C//DTD SVG 1.1 Tiny//EN" "http://www.w3.org/Graphics/SVG/1.1/DTD/svg11-tiny.dtd">
<svg baseProfile="tiny" height="10px" version="1.1" viewBox="0 0 10 10" width="10px" x="0px" xmlns="http://www.w3.org/2000/svg" xmlns:xlink="http://www.w3.org/1999/xlink" y="0px">
<rect fill="none" height="10" width="10"/>
<path d="M10,7c0-3.859-3.141-7-7-7H0v10h10V7z" fill="url(#SVGID_1_)"/>
<path d="M3,0H0v5h6c1.104,0,2,0.897,2,2v3h2V7C10,3.141,6.859,0,3,0z" fill-opacity="0.05"/>
<path d="M3,0H0v4h7c1.654,0,3,1.346,3,3C10,3.141,6.859,0,3,0z" fill-opacity="0.1"/>
<path d="M3,0H0v3h6c2.205,0,4,1.794,4,4C10,3.141,6.859,0,3,0z" fill-opacity="0.1"/>
<path d="M3,0H0v2h5c2.757,0,5,2.243,5,5C10,3.141,6.859,0,3,0z" fill-opacity="0.1"/>
<path d="M3,0H0v1h3c3.309,0,6,2.691,6,6v3h1V7C10,3.141,6.859,0,3,0z" fill-opacity="0.2" stroke-opacity="0.2"/>
<defs>
<linearGradient gradientUnits="userSpaceOnUse" id="SVGID_1_" x1="5" x2="5" y1="82.001" y2="0.3675">
<stop offset="0" style="stop-color:#E6E6EB"/>
<stop offset="1" style="stop-color:#A0A0A5"/>
</linearGradient>
</defs>
</svg>
