<?xml version="1.0" encoding="UTF-8"?>
<!DOCTYPE svg PUBLIC "-//W3C//DTD SVG 1.1 Tiny//EN" "http://www.w3.org/Graphics/SVG/1.1/DTD/svg11-tiny.dtd">
<svg baseProfile="tiny" height="30px" version="1.1" viewBox="0 0 30 30" width="30px" x="0px" xmlns="http://www.w3.org/2000/svg" xmlns:xlink="http://www.w3.org/1999/xlink" y="0px">
<rect fill="none" height="30" width="30"/>
<path d="M15.08,27c2.705,0,4.756-0.568,6.148-1.706c1.396-1.138,2.092-2.823,2.092-5.055c0-1.696-0.391-3.015-1.174-3.96  c-0.783-0.944-1.947-1.59-3.494-1.932c2.793-0.967,4.188-2.812,4.188-5.537c0-1.48-0.336-2.664-1.006-3.55  c-0.672-0.885-1.541-1.483-2.609-1.795C18.158,3.156,16.775,3,15.08,3H6.678v24H15.08z M12.117,13.027v-6.92h1.98  c1.32,0,2.199,0.285,2.639,0.86c0.441,0.574,0.66,1.371,0.66,2.392c0,1.179-0.246,2.086-0.738,2.72  c-0.494,0.633-1.504,0.948-3.027,0.948H12.117z M12.117,23.893v-7.838h1.578c0.924,0,1.66,0.105,2.215,0.321  c0.551,0.215,0.998,0.599,1.336,1.149c0.338,0.553,0.508,1.373,0.508,2.455c0,1.32-0.264,2.303-0.791,2.946  c-0.523,0.644-1.594,0.966-3.203,0.966H12.117L12.117,23.893z"/>
</svg>
