<?xml version="1.0" encoding="UTF-8"?>
<!DOCTYPE svg PUBLIC "-//W3C//DTD SVG 1.1 Tiny//EN" "http://www.w3.org/Graphics/SVG/1.1/DTD/svg11-tiny.dtd">
<svg baseProfile="tiny" height="30" viewBox="0 0 30 30" width="30" xmlns="http://www.w3.org/2000/svg" xmlns:xlink="http://www.w3.org/1999/xlink">
<g>
<rect fill="none" height="30" width="30"/>
<rect fill-opacity="0.6" height="22" width="28" x="1" y="4"/>
<linearGradient gradientUnits="userSpaceOnUse" id="SVGID_1_" x1="14.9995" x2="14.9995" y1="3.9473" y2="24.6524">
<stop offset="0" style="stop-color:#FFFFFF"/>
<stop offset="1" style="stop-color:#C8C8C8"/>
</linearGradient>
<rect fill="url(#SVGID_1_)" height="20" width="26" x="2" y="5"/>
<rect fill="#FFFFFF" height="1" width="26" x="2" y="5"/>
<rect fill="#020202" fill-opacity="0.2" height="1" stroke-opacity="0.2" width="26" x="2" y="24"/>
<rect fill="#FFFFFF" height="14" width="14" x="3" y="7"/>
<linearGradient gradientUnits="userSpaceOnUse" id="SVGID_2_" x1="10" x2="10" y1="20.1982" y2="7.7075">
<stop offset="0" style="stop-color:#75B1BE"/>
<stop offset="1" style="stop-color:#A6C8C1"/>
</linearGradient>
<rect fill="url(#SVGID_2_)" height="12" width="12" x="4" y="8"/>
<linearGradient gradientUnits="userSpaceOnUse" id="SVGID_3_" x1="9.7114" x2="9.7114" y1="19.9209" y2="3.3869">
<stop offset="0" style="stop-color:#425A81"/>
<stop offset="1" style="stop-color:#242954"/>
</linearGradient>
<path d="M15,20c-0.046-1.653-1.578-2.359-2.485-2.926l-1.296-0.788c-0.534-0.37,0.098-0.794,0.467-1.508  c0.547-1.06,0.667-1.647,0.667-2.505c0-1.559-1.161-2.851-2.616-2.851c-0.009,0-0.016,0.002-0.026,0.003  C9.703,9.425,9.695,9.423,9.686,9.423c-1.456,0-2.615,1.292-2.615,2.851c0,0.857,0.121,1.446,0.667,2.505  c0.37,0.716,1.001,1.138,0.466,1.508l-1.575,0.788C5.722,17.641,4.469,18.347,4.422,20H15z" fill="url(#SVGID_3_)"/>
<rect fill="#020202" fill-opacity="0.5" height="2" stroke-opacity="0.5" width="7" x="19" y="8"/>
<rect fill="#020202" fill-opacity="0.5" height="2" stroke-opacity="0.5" width="7" x="19" y="13"/>
<rect fill="none" height="30" width="30"/>
</g>
</svg>
