<?xml version="1.0" encoding="UTF-8"?>
<!DOCTYPE svg PUBLIC "-//W3C//DTD SVG 1.1 Tiny//EN" "http://www.w3.org/Graphics/SVG/1.1/DTD/svg11-tiny.dtd">
<svg baseProfile="tiny" height="16px" version="1.1" viewBox="0 0 16 16" width="16px" x="0px" xmlns="http://www.w3.org/2000/svg" xmlns:xlink="http://www.w3.org/1999/xlink" y="0px">
<rect fill="none" height="16" width="16"/>
<path d="M1.363,7.515c0.315,0.176,1.042,0.469,1.768,0.469,0.924,0,1.393-0.445,1.393-1.007,0-0.76-0.749-1.1-1.521-1.1h-0.727v-1.276h0.69c0.597,0,1.346-0.234,1.346-0.878,0-0.457-0.363-0.795-1.124-0.795-0.621,0-1.276,0.269-1.58,0.457l-0.362-1.289c0.457-0.292,1.358-0.574,2.353-0.574,1.615,0,2.517,0.854,2.517,1.896,0,0.808-0.456,1.452-1.393,1.768v0.023c0.913,0.164,1.65,0.854,1.65,1.861,0,1.334-1.182,2.318-3.113,2.318-0.983,0-1.815-0.257-2.26-0.527l0.363-1.346z"/>
<path d="M8,9.389c-0.598,0-1.03-0.457-1.03-1.078,0-0.644,0.433-1.088,1.053-1.088,0.61,0,1.031,0.434,1.042,1.088,0,0.621-0.421,1.078-1.052,1.078h-0.013z"/>
<path d="M14.7,3.114h-2.951l-0.164,1.159c0.164-0.012,0.305-0.023,0.492-0.023,0.726,0,1.475,0.164,2.002,0.55,0.57,0.386,0.92,1.018,0.92,1.92,0,1.416-1.218,2.669-3.267,2.669-0.923,0-1.695-0.211-2.118-0.433l0.328-1.334c0.328,0.163,1.019,0.374,1.71,0.374,0.736,0,1.521-0.351,1.521-1.158,0-0.797-0.62-1.276-2.141-1.276-0.423,0-0.715,0.023-1.019,0.07l0.49-3.98h4.192v1.462z"/>
<path d="M9.971,14.26c-0.309,0.092-0.896,0.223-1.48,0.223-0.808,0-1.393-0.184-1.801-0.528-0.401-0.345-0.624-0.86-0.624-1.438,0.006-1.313,1.078-2.062,2.53-2.062,0.571,0,1.012,0.099,1.23,0.188l-0.211,0.72c-0.244-0.1-0.54-0.169-1.026-0.169-0.834,0-1.472,0.421-1.472,1.274,0,0.82,0.578,1.294,1.4,1.294,0.223,0,0.407-0.023,0.487-0.053v-0.831h-0.685v-0.695h1.651v2.076z"/>
</svg>
