<?xml version="1.0" encoding="UTF-8"?>
<!DOCTYPE svg PUBLIC "-//W3C//DTD SVG 1.1 Tiny//EN" "http://www.w3.org/Graphics/SVG/1.1/DTD/svg11-tiny.dtd">
<svg baseProfile="tiny" height="30" viewBox="0 0 30 30" width="30" xmlns="http://www.w3.org/2000/svg" xmlns:xlink="http://www.w3.org/1999/xlink">
<g>
<rect fill="none" fill-opacity="0.5" height="30" stroke-opacity="0.5" width="30"/>
<linearGradient gradientUnits="userSpaceOnUse" id="SVGID_1_" x1="15" x2="15" y1="1.219" y2="29.44">
<stop offset="0" stop-color="#E1E1E1"/>
<stop offset="1" stop-color="#FFFFFF"/>
</linearGradient>
<rect fill="url(#SVGID_1_)" height="28" width="28" x="1" y="1"/>
<path d="M1,1v28h2v-24c0-0.55,0.45-1,1-1h22c0.55,0,1,0.45,1,1v24h2v-28h-28z" fill-opacity="0.05" stroke-opacity="0.05"/>
<path d="M1,1v28h1v-25c0-0.55,0.45-1,1-1h24c0.55,0,1,0.45,1,1v25h1v-28h-28z" fill-opacity="0.1" stroke-opacity="0.1"/>
<rect fill-opacity="0.1" height="1" stroke-opacity="0.1" width="28" x="1" y="1"/>
<path d="M0,0v30h30v-30h-30zm29,29h-28v-28h28v28z" fill-opacity="0.6" stroke-opacity="0.6"/>
<polygon fill-opacity="0.6" points="11.89,22.98,4.213,15.31,8.303,11.22,12.54,15.46,21.7,6.31,25.79,10.4,12.49,23.69" stroke-opacity="0.6"/>
<linearGradient gradientUnits="userSpaceOnUse" id="SVGID_2_" x1="15" x2="15" y1="6.972" y2="23.64">
<stop offset="0" stop-color="#85AE4A"/>
<stop offset="1" stop-color="#2F6F44"/>
</linearGradient>
<polygon fill="url(#SVGID_2_)" points="24.37,10.4,21.7,7.724,12.54,16.88,8.303,12.63,5.627,15.31,12.54,22.22,12.54,22.21,12.55,22.22"/>
<polygon fill="#FFFFFF" fill-opacity="0.4" points="8.303,13.63,12.54,17.88,21.7,8.724,23.87,10.9,24.37,10.4,21.7,7.724,12.54,16.88,8.303,12.63,5.627,15.31,6.127,15.81" stroke-opacity="0.4"/>
</g>
</svg>
