<?xml version="1.0" encoding="UTF-8"?>
<!DOCTYPE svg PUBLIC "-//W3C//DTD SVG 1.1 Tiny//EN" "http://www.w3.org/Graphics/SVG/1.1/DTD/svg11-tiny.dtd">
<svg baseProfile="tiny" height="30px" version="1.1" viewBox="0 0 30 30" width="30px" x="0px" xmlns="http://www.w3.org/2000/svg" xmlns:xlink="http://www.w3.org/1999/xlink" y="0px">
<g>
<rect fill="none" height="30" width="30"/>
</g>
<path d="M19.781,6.375l-4-5C15.592,1.139,15.303,1,15,1c-0.305,0-0.592,0.139-0.781,0.375l-4,5c-0.24,0.301-0.287,0.712-0.121,1.059  C10.266,7.779,10.615,8,11,8h2v4h4V8h2c0.385,0,0.734-0.221,0.9-0.566C20.068,7.087,20.021,6.676,19.781,6.375z"/>
<path d="M23.625,19.781l5-4C28.861,15.592,29,15.304,29,15s-0.139-0.592-0.375-0.781l-5-4c-0.301-0.24-0.713-0.287-1.059-0.12  S22,10.615,22,11v2h-4v4h4v2c0,0.385,0.221,0.734,0.566,0.901S23.324,20.021,23.625,19.781z"/>
<path d="M6.375,19.781l-5-4C1.139,15.592,1,15.304,1,15s0.139-0.592,0.375-0.781l5-4c0.301-0.24,0.711-0.287,1.059-0.12  C7.779,10.266,8,10.615,8,11v2h4v4H8v2c0,0.385-0.221,0.734-0.566,0.901C7.086,20.068,6.676,20.021,6.375,19.781z"/>
<path d="M10.219,23.625l4,5C14.408,28.861,14.695,29,15,29c0.303,0,0.592-0.139,0.781-0.375l4-5c0.24-0.301,0.287-0.712,0.119-1.059  C19.734,22.221,19.385,22,19,22h-2v-4h-4v4h-2c-0.385,0-0.734,0.221-0.902,0.566C9.932,22.913,9.979,23.324,10.219,23.625z"/>
</svg>
