<?xml version="1.0" encoding="UTF-8"?>
<!DOCTYPE svg PUBLIC "-//W3C//DTD SVG 1.1 Tiny//EN" "http://www.w3.org/Graphics/SVG/1.1/DTD/svg11-tiny.dtd">
<svg baseProfile="tiny" height="30px" version="1.1" viewBox="0 0 30 30" width="30px" x="0px" xmlns="http://www.w3.org/2000/svg" xmlns:xlink="http://www.w3.org/1999/xlink" y="0px">
<path d="M15.691,11.542c1.257-0.961,2.563-1.786,3.289-2.164c0.001,0.002,0,0.004,0.001,0.004s0.005-0.006,0.007-0.008l1.277,2.143  c0.183,0.313,0.589,0.408,0.953,0.256l7.359-4.248c0.383-0.221,0.533-0.68,0.334-1.023c0,0-0.203-0.305-0.818-1.061  c0.002,0,0.002,0.002,0.004,0.004c-0.002-0.002,0-0.004-0.002-0.008c-0.312-0.383-0.35-0.396-0.751-0.764  c-1.204-1.104-2.53-1.537-2.53-1.537c-0.514-0.182-2.241-0.281-4.417,0.375c-1.677,0.506-4.996,2.504-7.887,4.85L15.691,11.542z"/>
<path d="M9.396,18.757c-0.01,0-0.019,0-0.027-0.002c0.002-0.002,0.008-0.01,0.008-0.01c0.654-1.126,1.376-2.136,2.144-3.077  l-3.206-3.206c-2.368,2.795-4.218,5.808-4.637,6.908c-0.814,2.148-0.74,4.516-0.563,5.205c0,0,0.169,0.512,0.56,1.211  c0.005,0.006,0.01,0.016,0.015,0.023c0.038,0.068,0.076,0.137,0.119,0.207c0.001,0.002,0.005,0.002,0.005,0.002  c0.21,0.35,0.464,0.73,0.783,1.115c0.374,0.449,0.392,0.578,0.785,0.924c0.001,0,0.002,0,0.003,0c0.723,0.637,1.021,0.83,1.021,0.83  c0.344,0.225,0.827,0.104,1.081-0.268l4.793-7.041c0.254-0.373,0.186-0.857-0.158-1.078L9.396,18.757z"/>
<path d="M27.693,26.372c0.389,0.389,0.41,1.005,0.048,1.368c-0.362,0.362-0.978,0.343-1.366-0.046L2.307,3.625  C1.918,3.236,1.896,2.621,2.26,2.258c0.363-0.362,0.979-0.34,1.367,0.049L27.693,26.372z"/>
<g fill-opacity="0.5" stroke-opacity="0.5">
<rect fill="none" height="30" width="30"/>
</g>
</svg>
