<?xml version="1.0" encoding="UTF-8"?>
<!DOCTYPE svg PUBLIC "-//W3C//DTD SVG 1.1 Tiny//EN" "http://www.w3.org/Graphics/SVG/1.1/DTD/svg11-tiny.dtd">
<svg baseProfile="tiny" height="30px" version="1.1" viewBox="0 0 30 30" width="30px" x="0px" xmlns="http://www.w3.org/2000/svg" xmlns:xlink="http://www.w3.org/1999/xlink" y="0px">
<path d="M28.005,14.99C28.004,9.31,24.355,4.493,19.277,2.723c0.135,0.399,0.224,0.82,0.224,1.266L19.5,6.066  c3.262,1.648,5.504,5.021,5.503,8.924c0,5.523-4.479,10.001-10.003,10.001c-5.526,0-10.004-4.478-10.004-10.002  c0-3.902,2.24-7.275,5.502-8.923V3.988c0-0.445,0.09-0.866,0.225-1.267C5.645,4.492,1.995,9.309,1.995,14.989  c0,7.181,5.821,13.002,13.005,13.003C22.182,27.992,28.004,22.171,28.005,14.99z"/>
<path d="M17.5,12.989c0,1.105-0.895,2.001-2,2h-1c-1.105,0-2.001-0.896-2-2l0-9.002c0-1.104,0.896-2,2-2H15.5  c1.104,0.001,2,0.896,2,2V12.989z"/>
<g>
<rect fill="none" height="30" width="30"/>
</g>
</svg>
