<?xml version="1.0" encoding="UTF-8"?>
<!DOCTYPE svg PUBLIC "-//W3C//DTD SVG 1.1 Tiny//EN" "http://www.w3.org/Graphics/SVG/1.1/DTD/svg11-tiny.dtd">
<svg baseProfile="tiny" height="30" viewBox="0 0 30 30" width="30" xmlns="http://www.w3.org/2000/svg" xmlns:xlink="http://www.w3.org/1999/xlink">
<g>
<rect fill="none" height="30" width="30"/>
<path d="M3.5,25.5c-1.65,0-3.001-1.35-3.001-3v-15c0-1.65,1.351-3,3.001-3h23  c1.65,0,3,1.35,3,3v15c0,1.65-1.35,3-3,3H3.5z" fill-opacity="0.6" stroke-opacity="0.6"/>
<linearGradient gradientTransform="matrix(1 0 0 -1 202.52 408.9805)" gradientUnits="userSpaceOnUse" id="SVGID_1_" x1="-187.52" x2="-187.52" y1="403.4805" y2="384.4805">
<stop offset="0" style="stop-color:#FFFFFF"/>
<stop offset="1" style="stop-color:#A5A5A5"/>
</linearGradient>
<path d="M28.5,22.5c0,1.1-0.9,2-2,2h-23c-1.1,0-2-0.9-2-2v-15c0-1.1,0.9-2,2-2h23c1.1,0,2,0.9,2,2V22.5z" fill="url(#SVGID_1_)"/>
<linearGradient gradientTransform="matrix(1 0 0 -1 202.52 408.9805)" gradientUnits="userSpaceOnUse" id="SVGID_2_" x1="-187.52" x2="-187.52" y1="402.4805" y2="385.4805">
<stop offset="0" style="stop-color:#F0F0F0"/>
<stop offset="1" style="stop-color:#A5A5A5"/>
</linearGradient>
<path d="M3.5,23.5c-0.551,0-1-0.449-1-1v-15c0-0.551,0.449-1,1-1h23c0.549,0,1,0.449,1,1v15  c0,0.551-0.451,1-1,1H3.5z" fill="url(#SVGID_2_)"/>
<linearGradient gradientUnits="userSpaceOnUse" id="SVGID_3_" x1="12.2773" x2="12.2773" y1="7.5" y2="22.3881">
<stop offset="0" style="stop-color:#6B6C6D"/>
<stop offset="1" style="stop-color:#262628"/>
</linearGradient>
<rect fill="url(#SVGID_3_)" height="3" width="4.5" x="10.027" y="7.5"/>
<linearGradient gradientUnits="userSpaceOnUse" id="SVGID_4_" x1="12.3594" x2="12.3594" y1="7.501" y2="22.3891">
<stop offset="0" style="stop-color:#6B6C6D"/>
<stop offset="1" style="stop-color:#262628"/>
</linearGradient>
<rect fill="url(#SVGID_4_)" height="3" width="4.5" x="10.109" y="11.5"/>
<linearGradient gradientUnits="userSpaceOnUse" id="SVGID_5_" x1="12.3594" x2="12.3594" y1="7.4976" y2="22.3906">
<stop offset="0" style="stop-color:#6B6C6D"/>
<stop offset="1" style="stop-color:#262628"/>
</linearGradient>
<rect fill="url(#SVGID_5_)" height="3" width="4.5" x="10.109" y="15.5"/>
<linearGradient gradientUnits="userSpaceOnUse" id="SVGID_6_" x1="12.3594" x2="12.3594" y1="7.5005" y2="22.3886">
<stop offset="0" style="stop-color:#6B6C6D"/>
<stop offset="1" style="stop-color:#262628"/>
</linearGradient>
<rect fill="url(#SVGID_6_)" height="3" width="4.5" x="10.109" y="19.5"/>
<rect fill="url(#SVGID_7_)" height="3" width="4.5" x="4.707" y="7.5"/>
<linearGradient gradientTransform="matrix(1 0 0 -1 202.52 408.9805)" gradientUnits="userSpaceOnUse" id="SVGID_8_" x1="-195.563" x2="-195.563" y1="401.4795" y2="386.5914">
<stop offset="0" style="stop-color:#6B6C6D"/>
<stop offset="1" style="stop-color:#262628"/>
</linearGradient>
<rect fill="url(#SVGID_8_)" height="3" width="4.5" x="4.707" y="11.5"/>
<linearGradient gradientTransform="matrix(1 0 0 -1 202.52 408.9805)" gradientUnits="userSpaceOnUse" id="SVGID_9_" x1="-195.563" x2="-195.563" y1="401.4814" y2="386.5909">
<stop offset="0" style="stop-color:#6B6C6D"/>
<stop offset="1" style="stop-color:#262628"/>
</linearGradient>
<rect fill="url(#SVGID_9_)" height="3" width="4.5" x="4.707" y="15.5"/>
<rect fill="url(#SVGID_7_)" height="3" width="4.5" x="4.707" y="19.5"/>
<linearGradient gradientTransform="matrix(1 0 0 -1 202.52 408.9805)" gradientUnits="userSpaceOnUse" id="SVGID_11_" x1="-184.7993" x2="-184.7993" y1="401.4805" y2="386.5924">
<stop offset="0" style="stop-color:#6B6C6D"/>
<stop offset="1" style="stop-color:#262628"/>
</linearGradient>
<rect fill="url(#SVGID_11_)" height="3" width="4.5" x="15.471" y="7.5"/>
<linearGradient gradientTransform="matrix(1 0 0 -1 202.52 408.9805)" gradientUnits="userSpaceOnUse" id="SVGID_12_" x1="-184.8813" x2="-184.8813" y1="401.4795" y2="386.5914">
<stop offset="0" style="stop-color:#6B6C6D"/>
<stop offset="1" style="stop-color:#262628"/>
</linearGradient>
<rect fill="url(#SVGID_12_)" height="3" width="4.5" x="15.389" y="11.5"/>
<linearGradient gradientTransform="matrix(1 0 0 -1 202.52 408.9805)" gradientUnits="userSpaceOnUse" id="SVGID_13_" x1="-184.8813" x2="-184.8813" y1="401.4814" y2="386.5909">
<stop offset="0" style="stop-color:#6B6C6D"/>
<stop offset="1" style="stop-color:#262628"/>
</linearGradient>
<rect fill="url(#SVGID_13_)" height="3" width="4.5" x="15.389" y="15.5"/>
<linearGradient gradientTransform="matrix(1 0 0 -1 202.52 408.9805)" gradientUnits="userSpaceOnUse" id="SVGID_14_" x1="-184.8813" x2="-184.8813" y1="401.4805" y2="386.5924">
<stop offset="0" style="stop-color:#6B6C6D"/>
<stop offset="1" style="stop-color:#262628"/>
</linearGradient>
<rect fill="url(#SVGID_14_)" height="3" width="4.5" x="15.389" y="19.5"/>
<linearGradient gradientUnits="userSpaceOnUse" id="SVGID_15_" x1="23.0352" x2="23.0908" y1="7.5483" y2="22.5211">
<stop offset="0" style="stop-color:#6B6C6D"/>
<stop offset="1" style="stop-color:#262628"/>
</linearGradient>
<rect fill="url(#SVGID_15_)" fill-opacity="0.5" height="3" stroke-opacity="0.5" width="4.5" x="20.791" y="7.5"/>
<linearGradient gradientUnits="userSpaceOnUse" id="SVGID_16_" x1="23.0205" x2="23.0761" y1="7.5513" y2="22.524">
<stop offset="0" style="stop-color:#6B6C6D"/>
<stop offset="1" style="stop-color:#262628"/>
</linearGradient>
<rect fill="url(#SVGID_16_)" fill-opacity="0.5" height="3" stroke-opacity="0.5" width="4.5" x="20.791" y="11.5"/>
<linearGradient gradientUnits="userSpaceOnUse" id="SVGID_17_" x1="23.0059" x2="23.0615" y1="7.5532" y2="22.5259">
<stop offset="0" style="stop-color:#6B6C6D"/>
<stop offset="1" style="stop-color:#262628"/>
</linearGradient>
<rect fill="url(#SVGID_17_)" fill-opacity="0.5" height="3" stroke-opacity="0.5" width="4.5" x="20.791" y="15.5"/>
<linearGradient gradientUnits="userSpaceOnUse" id="SVGID_18_" x1="22.9912" x2="23.0468" y1="7.5562" y2="22.5289">
<stop offset="0" style="stop-color:#6B6C6D"/>
<stop offset="1" style="stop-color:#262628"/>
</linearGradient>
<rect fill="url(#SVGID_18_)" fill-opacity="0.5" height="3" stroke-opacity="0.5" width="4.5" x="20.791" y="19.5"/>
<defs>
<linearGradient gradientTransform="matrix(1 0 0 -1 202.52 408.9805)" gradientUnits="userSpaceOnUse" id="SVGID_7_" x1="-195.563" x2="-195.563" y1="401.4805" y2="386.5924">
<stop offset="0" style="stop-color:#6B6C6D"/>
<stop offset="1" style="stop-color:#262628"/>
</linearGradient>
</defs>
</g>
</svg>
