<?xml version="1.0" encoding="UTF-8"?>
<!DOCTYPE svg PUBLIC "-//W3C//DTD SVG 1.1 Tiny//EN" "http://www.w3.org/Graphics/SVG/1.1/DTD/svg11-tiny.dtd">
<svg baseProfile="tiny" height="60" viewBox="0 0 60 60" width="60" xmlns="http://www.w3.org/2000/svg" xmlns:xlink="http://www.w3.org/1999/xlink">
<g>
<radialGradient cx="-1627.3687" cy="-2479.0078" gradientTransform="matrix(0.7071 0.7071 -0.7071 0.7071 -564.6201 2940.3716)" gradientUnits="userSpaceOnUse" id="SVGID_1_" r="45.6647">
<stop offset="0" style="stop-color:#93AC5D"/>
<stop offset="0.297" style="stop-color:#93AC5D"/>
<stop offset="0.6667" style="stop-color:#356742"/>
<stop offset="0.7939" style="stop-color:#447B42"/>
<stop offset="1" style="stop-color:#447B42"/>
</radialGradient>
<path d="M20.37,41.951c0.299-0.437,0.233-0.799-0.258-1.332c-0.617-0.666-2.567-3.084-2.968-3.737  c-0.353-0.575-0.411-1.02-0.034-1.71c0.473-0.865,1.915-3.764,8.107-9.956c6.192-6.192,9.084-7.646,9.956-8.108  c0.76-0.399,1.037-0.344,1.711,0.036c0.666,0.376,3.068,2.352,3.734,2.967c0.535,0.492,0.873,0.588,1.301,0.274  c0.752-0.551,13.828-9.843,15.229-10.774c0.85-0.565,1.141-1.062,0.523-1.779c-2.477-2.889-8.594-5.015-10.752-5.399  c-1.922-0.345-3.875-0.873-6.564,0.236c-2.561,1.053-13.076,8.534-21.113,16.571C11.203,27.277,3.722,37.795,2.668,40.352  c-1.108,2.691-0.581,4.645-0.236,6.567c0.387,2.158,2.511,8.275,5.4,10.752c0.718,0.616,1.213,0.323,1.777-0.525  C10.542,55.745,19.852,42.705,20.37,41.951z" fill="url(#SVGID_1_)"/>
<linearGradient gradientTransform="matrix(0.7071 0.7071 -0.7071 0.7071 -564.6201 2940.3716)" gradientUnits="userSpaceOnUse" id="SVGID_2_" x1="-1639.3428" x2="-1638.9111" y1="-2494.9824" y2="-2491.4067">
<stop offset="0" style="stop-color:#3C7440"/>
<stop offset="1" style="stop-color:#1E3A31"/>
</linearGradient>
<path d="M35.172,17.107c0.76-0.399,1.037-0.344,1.711,0.036c0.666,0.376,3.068,2.352,3.734,2.967  c0.535,0.492,0.873,0.588,1.301,0.274c0.047-0.034,0.063-0.046,0.064-0.046c0.252-0.184,1.031-0.739,2.119-1.514  c-0.252-0.205-3.469-2.809-4.801-2.956C36.855,15.598,35.172,17.107,35.172,17.107z" fill="url(#SVGID_2_)"/>
<linearGradient gradientTransform="matrix(0.7071 0.7071 0.7071 -0.7071 -1696.8304 4072.5859)" gradientUnits="userSpaceOnUse" id="SVGID_3_" x1="-1639.3467" x2="-1638.9149" y1="4063.0557" y2="4066.6318">
<stop offset="0" style="stop-color:#3C7440"/>
<stop offset="1" style="stop-color:#1E3A31"/>
</linearGradient>
<path d="M17.092,35.188c-0.401,0.763-0.346,1.039,0.035,1.714c0.376,0.665,2.351,3.067,2.967,3.737  c0.492,0.53,0.587,0.869,0.274,1.297c-0.035,0.049-0.046,0.063-0.046,0.063c-0.183,0.253-0.738,1.032-1.515,2.12  c-0.203-0.252-2.807-3.469-2.956-4.8C15.579,36.875,17.092,35.188,17.092,35.188z" fill="url(#SVGID_3_)"/>
<path d="M2.979,47.466c-0.344-1.923-0.873-3.877,0.235-6.567c1.054-2.557,8.535-13.074,16.573-21.112  C27.825,11.749,38.34,4.268,40.9,3.215c2.689-1.108,4.643-0.581,6.566-0.236c1.98,0.354,7.297,2.178,10.07,4.711  c-2.553-2.815-8.496-4.879-10.619-5.258c-1.922-0.345-3.875-0.873-6.564,0.236c-2.561,1.053-13.076,8.534-21.113,16.571  C11.203,27.277,3.722,37.795,2.668,40.352c-1.108,2.691-0.581,4.645-0.236,6.567c0.378,2.122,2.441,8.065,5.258,10.617  C5.156,54.763,3.333,49.448,2.979,47.466z" fill="#B1BE95" fill-opacity="0.5" stroke-opacity="0.5"/>
<path d="M20.37,41.951c0.299-0.437,0.233-0.799-0.258-1.332c-0.617-0.666-2.567-3.084-2.968-3.737  c-0.353-0.575-0.411-1.02-0.034-1.71c0.473-0.865,1.915-3.764,8.107-9.956c6.192-6.192,9.084-7.646,9.956-8.108  c0.76-0.399,1.037-0.344,1.711,0.036c0.666,0.376,3.068,2.352,3.734,2.967c0.535,0.492,0.873,0.588,1.301,0.274  c0.752-0.551,13.828-9.843,15.229-10.774c0.85-0.565,1.141-1.062,0.523-1.779c-0.291-0.339-0.635-0.665-1.012-0.982  c0.488,0.658,0.197,1.134-0.607,1.667c-1.4,0.932-14.475,10.224-15.227,10.775c-0.43,0.313-0.768,0.218-1.299-0.273  c-0.668-0.618-3.07-2.592-3.738-2.969c-0.672-0.38-0.949-0.436-1.711-0.035c-0.869,0.462-3.763,1.915-9.955,8.107  c-6.192,6.192-7.635,9.092-8.107,9.956c-0.378,0.69-0.32,1.135,0.035,1.711c0.4,0.651,2.351,3.069,2.967,3.736  c0.493,0.533,0.558,0.896,0.259,1.332c-0.518,0.755-9.828,13.794-10.76,15.195c-0.534,0.803-1.009,1.098-1.666,0.606  c0.314,0.378,0.643,0.723,0.982,1.013c0.718,0.616,1.213,0.323,1.777-0.525C10.542,55.745,19.852,42.705,20.37,41.951z" fill="#B1BE95" fill-opacity="0.6" stroke-opacity="0.6"/>
<linearGradient gradientTransform="matrix(0.7071 0.7071 -0.7071 0.7071 -608.1406 2931.3247)" gradientUnits="userSpaceOnUse" id="SVGID_4_" x1="-1610.522" x2="-1610.522" y1="-2533.3467" y2="-2471.428">
<stop offset="0" style="stop-color:#315D3E"/>
<stop offset="0.5" style="stop-color:#1E3A31"/>
<stop offset="1" style="stop-color:#2E593D"/>
</linearGradient>
<path d="M2.899,45.012c1.275-2.776,10.299-14.805,18.804-23.31  c8.505-8.506,20.531-17.529,23.309-18.803c0.527-0.241,1.02-0.411,1.492-0.545c-0.512-0.096-1.031-0.19-1.566-0.26  c-0.086,0.036-0.162,0.063-0.248,0.102c-2.818,1.293-14.972,10.397-23.534,18.958c-8.562,8.562-17.667,20.715-18.96,23.535  c-0.038,0.086-0.063,0.165-0.101,0.25c0.071,0.534,0.165,1.054,0.259,1.564C2.489,46.03,2.658,45.539,2.899,45.012z" fill="url(#SVGID_4_)" fill-opacity="0.5" stroke-opacity="0.5"/>
<rect fill="none" height="60" width="60"/>
</g>
<g transform="matrix(1 0 0 1 30 30)">
<path d="M30,0.001H14.961C14.955,0.001,14.949,0,14.943,0c-0.006,0-0.012,0.001-0.019,0.001H0v30h30V0.001z" fill="none"/>
<rect fill="none" height="30" width="30" y="0.001"/>
<path d="M28.736,18.376c0.006-0.225,0.008-0.446-0.004-0.649c-0.002-0.063-0.008-0.122-0.02-0.228  c-0.018-0.208-0.035-0.415-0.068-0.609c-0.01-0.063-0.023-0.122-0.053-0.255c-0.037-0.18-0.072-0.357-0.121-0.521  c-0.02-0.068-0.043-0.131-0.066-0.192l-0.936,0.352l0.896-0.462c-0.047-0.14-0.098-0.279-0.154-0.406  c-0.035-0.079-0.076-0.149-0.115-0.22l-0.865,0.502l0.805-0.611c-0.057-0.108-0.115-0.215-0.178-0.306  c-0.064-0.094-0.133-0.174-0.205-0.252l-0.066-0.078c-0.061-0.076-0.125-0.149-0.197-0.217c-0.158-0.144-0.311-0.233-0.379-0.271  l0.063-0.398h-0.217c-0.018-0.405-0.047-0.809-0.088-1.203c0.014-0.257,0.016-0.514,0.021-0.819  c0.004-0.072,0.008-0.146,0.008-0.203c0-0.065-0.049-1.029-0.049-1.029c-0.006-0.074-0.018-0.146-0.037-0.245  c-0.043-0.41-0.105-0.811-0.189-1.234c-0.01-0.077-0.02-0.153-0.057-0.299c0,0-0.107-0.409-0.164-0.609  c-0.016-0.063-0.033-0.127-0.078-0.267c-0.016-0.036-0.031-0.072-0.049-0.109c-0.404-1.208-1.006-2.3-1.736-3.177l-0.084-0.135  l-0.057-0.066c-0.045-0.052-0.094-0.101-0.174-0.179c-0.145-0.161-0.297-0.316-0.455-0.472c-0.135-0.131-0.275-0.261-0.422-0.387  c-0.164-0.143-0.332-0.282-0.545-0.447c-0.031-0.027-0.117-0.1-0.117-0.1l-0.068-0.048c-0.076-0.054-0.156-0.104-0.236-0.152  l-0.092-0.058c-0.166-0.109-0.334-0.219-0.531-0.336c-0.043-0.028-0.225-0.134-0.225-0.134c-0.076-0.041-0.156-0.079-0.238-0.117  l-0.15-0.074c-0.186-0.095-0.371-0.188-0.557-0.271l-0.072-0.036l-0.172-0.073c-0.102-0.042-0.209-0.079-0.316-0.116l-0.098-0.035  C18.303,0.378,16.66,0,14.943,0c-3.277,0-6.254,1.365-8.416,3.851c0,0-0.074,0.042-0.088,0.049c-0.102,0.04-0.201,0.082-0.33,0.142  L6.088,4.048L5.908,4.14c0,0-0.043,0.032-0.051,0.038C5.732,4.245,5.611,4.316,5.516,4.38L4.975,4.731v0.058  c-1.043,0.897-2.107,2.544-2.125,5.53c0,0,0.002,0.221,0.008,0.355c0.006,0.26,0.014,0.522,0.039,0.858l0,0l0.006,0.119  c0.018,0.194,0.037,0.393,0.07,0.65l0.084,0.609c-0.025,0.351-0.045,0.689-0.055,1.025c-0.148,0.088-0.277,0.184-0.396,0.293  c-0.055,0.051-0.107,0.11-0.15,0.166c-0.109,0.116-0.217,0.235-0.318,0.385c-0.049,0.072-0.094,0.154-0.139,0.237L1.93,15.142  c-0.049,0.085-0.096,0.17-0.141,0.269c-0.057,0.125-0.105,0.264-0.152,0.402l0.945,0.323l-0.984-0.215  c-0.023,0.061-0.045,0.122-0.066,0.191c-0.057,0.194-0.1,0.402-0.143,0.626l-0.029,0.14c-0.037,0.226-0.061,0.463-0.078,0.709  L1.27,17.703c-0.014,0.241-0.012,0.489-0.004,0.729v0.122l0.041,0.001l-0.039,0.002l0.004,0.159c0.18,2.729,1.537,4.709,3.225,4.709  l0.066-0.003c0.033,0.007,0.068,0.012,0.104,0.017l0.314,0.518h0.018c1.168,1.754,3.143,3.851,6.264,4.856  c0.137,0.088,0.277,0.173,0.42,0.254c0.105,0.06,0.211,0.116,0.322,0.173c0.189,0.096,0.383,0.184,0.566,0.259  c0.115,0.049,0.229,0.096,0.348,0.139c0.217,0.075,0.434,0.135,0.734,0.208c0.076,0.021,0.154,0.041,0.236,0.056  c0.363,0.067,0.697,0.1,1.018,0.1c0.369,0,0.715-0.029,1.049-0.071c0.1-0.012,0.199-0.027,0.301-0.044  c0.256-0.042,0.504-0.096,0.809-0.176l0.174-0.046c0.24-0.073,0.469-0.155,0.691-0.247l0.229-0.095l0.018-0.02  c1.295-0.59,2.434-1.545,3.477-2.911l0.057-0.075l0.09-0.18c0.49-0.765,0.957-1.572,1.398-2.416l0.01,0.018  c0,0,0.344-0.712,0.385-0.799c0.455,0.389,0.947,0.495,1.277,0.518l0.145,0.005c0.139,0,0.281-0.013,0.424-0.038l0.066,0.002  c1.689,0,3.045-1.98,3.227-4.714C28.734,18.665,28.738,18.451,28.736,18.376z" fill-opacity="0.35" stroke-opacity="0.35"/>
<radialGradient cx="-4272.6958" cy="-2826.3394" gradientTransform="matrix(0.4209 0 0 0.4195 1813.6772 1193.3445)" gradientUnits="userSpaceOnUse" id="SVGID_1__" r="50.7847">
<stop offset="0" style="stop-color:#F4EDE4"/>
<stop offset="0.5091" style="stop-color:#E8D9CA"/>
<stop offset="0.7636" style="stop-color:#DDC4B0"/>
<stop offset="1" style="stop-color:#BF9C89"/>
</radialGradient>
<path d="M25.389,15.734c-0.051-0.023-0.109-0.029-0.166-0.046v-0.001c-0.01-0.003-0.02-0.004-0.031-0.006  c-0.084-0.021-0.164-0.041-0.25-0.045C14.48,13.817,9.682,8.021,9.32,9.556c-0.289,1.219-3.221,3.863-4.758,5.179  c0.014,0.062,0.02,0.111,0.035,0.171c0,0,0.053,0.271,0.168,0.729c-0.121,0.014-0.24,0.039-0.355,0.088  c-0.979,0.413-1.285,2.014-0.684,3.58c0.596,1.563,1.873,2.502,2.852,2.089c0.061-0.025,0.113-0.067,0.166-0.104  c0.566,1.277,1.268,2.646,2.119,4.018c1.432,1.7,3.623,3.694,6.043,3.694c2.93,0,4.719-1.601,5.951-3.216  c0.035-0.069,0.064-0.132,0.1-0.188c0.912-1.426,1.652-2.856,2.252-4.188c0.955,0.331,2.182-0.559,2.791-2.063  C26.633,17.789,26.357,16.172,25.389,15.734z" fill="url(#SVGID_1__)"/>
<linearGradient gradientUnits="userSpaceOnUse" id="SVGID_2__" x1="10.7998" x2="19.8362" y1="30.4028" y2="21.437">
<stop offset="0" style="stop-color:#E8D9CA"/>
<stop offset="1" style="stop-color:#DDC4B0"/>
</linearGradient>
<path d="M14.477,28.181c-1.781,0-3.578-0.829-4.9-2.08C10.975,27.572,12.857,29,14.906,29  c2.93,0,4.719-1.601,5.951-3.216c0.035-0.069,0.064-0.132,0.1-0.188c0.912-1.426,1.652-2.856,2.252-4.188  C19.879,27.229,17.404,28.181,14.477,28.181z" fill="url(#SVGID_2__)"/>
<linearGradient gradientUnits="userSpaceOnUse" id="SVGID_3__" x1="14.8223" x2="14.8223" y1="1.3467" y2="14.6545">
<stop offset="0" style="stop-color:#725B53"/>
<stop offset="0.3758" style="stop-color:#451F1E"/>
<stop offset="1" style="stop-color:#261013"/>
</linearGradient>
<path d="M14.615,1.151c-3.629,0-5.373,1.65-6.721,3.372c-2.188,0.339-5.66,2.344-3.209,11.141  c1.535-1.317,4.346-4.89,4.635-6.108c0.365-1.549,5.246,4.369,15.902,6.132c0.127-0.492,0.182-0.782,0.182-0.782  C27.078,7.396,23.438,1.444,14.615,1.151z" fill="url(#SVGID_3__)"/>
<linearGradient gradientUnits="userSpaceOnUse" id="SVGID_4__" x1="19.375" x2="7.3168" y1="14.0776" y2="6.9192">
<stop offset="0" style="stop-color:#725B53"/>
<stop offset="0.3636" style="stop-color:#451F1E"/>
<stop offset="1" style="stop-color:#261013"/>
</linearGradient>
<path d="M9.332,8.835c0,0,5.217,6.854,15.818,6.842C25.15,15.677,20.156,14.894,9.332,8.835z" fill="url(#SVGID_4__)"/>
<linearGradient gradientUnits="userSpaceOnUse" id="SVGID_5_" x1="6.2285" x2="6.3344" y1="5.5264" y2="13.1843">
<stop offset="0" style="stop-color:#725B53"/>
<stop offset="0.3758" style="stop-color:#451F1E"/>
<stop offset="1" style="stop-color:#261013"/>
</linearGradient>
<path d="M8.076,5.032c0,0-5.105,0.307-3.211,8.964C4.865,13.996,4.24,8.067,8.076,5.032z" fill="url(#SVGID_5_)"/>
<linearGradient gradientUnits="userSpaceOnUse" id="SVGID_6_" x1="16.5127" x2="16.1374" y1="2.4868" y2="5.9564">
<stop offset="0" style="stop-color:#8D7B6A"/>
<stop offset="1" style="stop-color:#451F1E"/>
</linearGradient>
<path d="M17.088,6.231c-2.377-0.338-6.398-2.445-7.977-1.694c0,0,5.16-5.888,14.27,0.818  C23.381,5.355,21.211,6.819,17.088,6.231z" fill="url(#SVGID_6_)"/>
<path d="M14.906,29c1.008,0,1.877-0.191,2.641-0.508c0.219-0.284,0.35-0.608,0.35-0.962  c0-1.137-1.271-2.026-2.895-2.026c-0.975,0-1.861,0.333-2.387,0.871c-2.586-0.645-4.225-2.271-5.199-3.676  c0.191,0.386,0.396,0.776,0.613,1.169c0.006,0.01,0.01,0.021,0.016,0.03c0.219,0.396,0.449,0.794,0.693,1.194l0,0  c0.018,0.031,0.035,0.061,0.055,0.094c0.008,0.015,0.018,0.027,0.027,0.043c0.016,0.026,0.029,0.05,0.043,0.076  C10.295,27.006,12.486,29,14.906,29z" fill="#020202" fill-opacity="0.3" stroke-opacity="0.3"/>
<path d="M4.039,19.958c0.051,0.078,0.098,0.153,0.145,0.229c0.115,0.174,0.242,0.337,0.369,0.481l0,0  c0.623,0.679,1.387,0.993,2.025,0.724c0.061-0.025,0.113-0.067,0.166-0.104c0.031,0.07,0.068,0.145,0.1,0.215  c0.213-0.626,0.311-1.44,0.287-2.506c-0.004-0.219-0.012-0.443-0.029-0.672c-0.094-1.413-0.336-2.495-0.719-3.22l-0.041-0.581  l0.008-0.197C6.436,7.803,9.889,3.421,14.943,3.421c5.088,0,8.543,4.423,8.596,11.01l0.006,0.054l-0.059,0.897  c-0.307,0.713-0.502,1.701-0.586,2.943c-0.018,0.229-0.023,0.453-0.033,0.712c-0.02,1.024,0.08,1.843,0.293,2.477  c0.016-0.035,0.035-0.07,0.049-0.105c0.75,0.259,1.664-0.238,2.318-1.189l0,0c0.088-0.126,0.17-0.264,0.252-0.403  c0.076-0.151,0.152-0.304,0.221-0.471c0.633-1.556,0.357-3.173-0.611-3.61c-0.051-0.023-0.109-0.029-0.166-0.046v-0.001  c0.127-0.492,0.182-0.782,0.182-0.782c0.063-0.284,0.117-0.566,0.164-0.848c0.014-0.076,0.025-0.157,0.039-0.235  c0.035-0.214,0.064-0.429,0.09-0.642c0.008-0.068,0.014-0.139,0.021-0.207c0.061-0.561,0.086-1.11,0.078-1.646  c0-0.048-0.002-0.097-0.004-0.144c-0.004-0.243-0.014-0.48-0.037-0.717c0-0.027-0.002-0.055-0.004-0.082  c-0.047-0.539-0.127-1.063-0.242-1.571c-0.006-0.024-0.014-0.05-0.021-0.074c-0.057-0.244-0.119-0.484-0.193-0.721  c-0.002-0.004-0.004-0.01-0.004-0.01c-0.463-1.186-1.051-2.256-1.75-3.196c-0.002-0.002-0.002-0.002-0.002-0.002  c-0.461-0.538-0.99-1.023-1.584-1.456c-0.006-0.005-0.014-0.01-0.02-0.016c-0.287-0.203-0.588-0.393-0.902-0.572  c-0.029-0.016-0.057-0.029-0.084-0.045c-0.305-0.169-0.629-0.327-0.965-0.471c-0.041-0.017-0.082-0.035-0.125-0.054  c-0.332-0.137-0.68-0.263-1.039-0.376c-0.053-0.017-0.104-0.031-0.154-0.046c-0.363-0.107-0.738-0.206-1.133-0.285  c-0.051-0.011-0.102-0.022-0.154-0.031c-0.402-0.079-0.818-0.146-1.246-0.196c-0.039-0.005-0.078-0.007-0.119-0.013  c-0.451-0.049-0.916-0.084-1.398-0.1c-3.629,0-5.373,1.65-6.721,3.372C7.748,4.545,7.598,4.576,7.441,4.615l-0.02,0.004  C7.27,4.66,7.117,4.707,6.959,4.765C6.953,4.767,6.947,4.767,6.941,4.771C6.783,4.831,6.625,4.898,6.465,4.979  c-0.004,0.003-0.008,0.003-0.01,0.004c-0.162,0.084-0.322,0.18-0.48,0.287v0.003c-0.977,1.45-1.701,3.185-2.127,5.142  c0,0.349,0.014,0.72,0.049,1.107c0,0.006,0,0.011,0,0.011c0.018,0.192,0.035,0.389,0.061,0.587c0.002,0.02,0.006,0.038,0.008,0.057  c0.023,0.187,0.049,0.377,0.08,0.574c0.004,0.037,0.012,0.078,0.016,0.117c0.031,0.179,0.061,0.361,0.1,0.549  c0.01,0.064,0.023,0.131,0.037,0.196c0.031,0.169,0.064,0.333,0.102,0.508c0.023,0.101,0.053,0.207,0.074,0.311  c0.033,0.146,0.066,0.286,0.104,0.435c0.063,0.256,0.131,0.516,0.207,0.783c-0.094,0.015-0.186,0.035-0.273,0.073  c-0.979,0.413-1.285,2.014-0.684,3.58c0.063,0.167,0.137,0.324,0.217,0.477C3.975,19.841,4.006,19.9,4.039,19.958z M4.758,15.599  c0.002,0.013,0.006,0.023,0.008,0.036c-0.02,0.002-0.041,0.007-0.061,0.01C4.721,15.63,4.74,15.614,4.758,15.599z" fill="#020202" fill-opacity="0.3" stroke-opacity="0.3"/>
<linearGradient gradientUnits="userSpaceOnUse" id="SVGID_7_" x1="4.5703" x2="15.5801" y1="24.3438" y2="24.3438">
<stop offset="0" style="stop-color:#464646"/>
<stop offset="0.4727" style="stop-color:#BFC1C1"/>
<stop offset="1" style="stop-color:#E6E9E8"/>
</linearGradient>
<path d="M15.002,28.398c-7.861,0-10.377-7.274-10.4-7.347c-0.104-0.304,0.061-0.633,0.367-0.732  c0.303-0.102,0.631,0.062,0.732,0.364c0.088,0.268,2.289,6.558,9.301,6.558c0.318,0,0.578,0.261,0.578,0.579  C15.58,28.142,15.32,28.398,15.002,28.398L15.002,28.398z" fill="url(#SVGID_7_)"/>
<linearGradient gradientUnits="userSpaceOnUse" id="SVGID_8_" x1="4.5801" x2="15.5801" y1="24.6323" y2="24.6323">
<stop offset="0" style="stop-color:#A8A9AA"/>
<stop offset="0.7394" style="stop-color:#59595A"/>
<stop offset="1" style="stop-color:#818283"/>
</linearGradient>
<path d="M15.002,27.82c-7.535,0-9.852-6.954-9.852-6.954H4.58c0,0.064,0,0.124,0.021,0.186  c0.023,0.072,2.539,7.347,10.4,7.347c0.318,0,0.578-0.257,0.578-0.578H15.002z" fill="url(#SVGID_8_)"/>
<linearGradient gradientUnits="userSpaceOnUse" id="SVGID_9_" x1="14.9443" x2="14.9443" y1="15.605" y2="2.9585">
<stop offset="0" style="stop-color:#3A3A3A"/>
<stop offset="0.0424" style="stop-color:#818283"/>
<stop offset="0.3333" style="stop-color:#59595A"/>
<stop offset="1" style="stop-color:#A8A9AA"/>
</linearGradient>
<path d="M25.432,14.492L25.432,14.492L25.432,14.492c-0.01-8.527-4.396-12.747-10.43-12.747  S4.58,5.965,4.572,14.492l0,0l0,0c0,0.006,0-0.005,0-0.005v0.005l-0.193,5.98l1.77-0.114l-0.387-5.834  c0.021-7.47,4.131-11.683,9.182-11.683c5.049,0,9.156,4.212,9.18,11.679l-0.381,5.838l1.768,0.114L25.432,14.492L25.432,14.492  C25.432,14.492,25.432,14.498,25.432,14.492z" fill="url(#SVGID_9_)"/>
<linearGradient gradientUnits="userSpaceOnUse" id="SVGID_10_" x1="14.9434" x2="14.9434" y1="10.8926" y2="1.3884">
<stop offset="0" style="stop-color:#9E9FA0"/>
<stop offset="0.0545" style="stop-color:#9E9FA0"/>
<stop offset="0.3333" style="stop-color:#898A8B"/>
<stop offset="1" style="stop-color:#E5E9E7"/>
</linearGradient>
<path d="M25.895,14.554h-0.002C25.885,6.026,20.977,1,14.943,1C8.914,1,4.002,6.026,3.992,14.554v0.009  v0.017h0.002l0.578,0.495C4.762,6.837,9.027,1.745,14.943,1.745c5.922,0,10.303,5.084,10.488,13.329l0.461-0.495h0.002l-0.002-0.011  L25.895,14.554z" fill="url(#SVGID_10_)"/>
<path d="M4.635,13.914c-0.041,0-0.086,0-0.129,0.004c-0.166,0.012-0.332,0.048-0.492,0.101  c-0.008,0.181-0.021,0.351-0.021,0.535v0.009v0.017h0.002l0.086,1.333l0.135-0.009l0.088-0.037c0.092-0.036,0.188-0.062,0.332-0.067  c0.693,0,1.172,1.212,1.311,3.328c0.014,0.191,0.021,0.38,0.023,0.564h0.133l-0.34-5.167c0-0.07,0.01-0.136,0.01-0.205  C5.449,14.052,5.072,13.914,4.635,13.914z" fill="#020202" fill-opacity="0.2" stroke-opacity="0.2"/>
<path d="M5.701,20.684c-0.102-0.303-0.43-0.466-0.732-0.364c-0.307,0.1-0.471,0.429-0.367,0.732  c0.008,0.023,0.289,0.831,0.941,1.904c0.371-0.112,0.682-0.33,0.926-0.663C5.959,21.424,5.727,20.767,5.701,20.684z" fill="#020202" fill-opacity="0.2" stroke-opacity="0.2"/>
<linearGradient gradientTransform="matrix(-1.1528 0.0088 -0.0088 1.0194 -260.3646 8.1097)" gradientUnits="userSpaceOnUse" id="SVGID_11_" x1="-229.8506" x2="-229.8506" y1="6.7896" y2="15.8948">
<stop offset="0" style="stop-color:#A8A9AA"/>
<stop offset="0.8303" style="stop-color:#59595A"/>
<stop offset="1" style="stop-color:#818283"/>
</linearGradient>
<path d="M2.451,18.632c0.146,2.2,1.32,3.912,2.621,3.826c1.301-0.087,1.596-1.895,1.451-4.094  c-0.143-2.199-0.676-3.955-1.977-3.868S2.307,16.433,2.451,18.632z" fill="url(#SVGID_11_)"/>
<linearGradient gradientTransform="matrix(-1 0 0 1 -239.0674 0)" gradientUnits="userSpaceOnUse" id="SVGID_12_" x1="-243.1118" x2="-243.1118" y1="14.311" y2="22.5257">
<stop offset="0" style="stop-color:#7A7A7A"/>
<stop offset="0.7818" style="stop-color:#212121"/>
<stop offset="1" style="stop-color:#666666"/>
</linearGradient>
<path d="M2.27,18.649c0.143,2.158,1.172,3.849,2.301,3.772c1.131-0.074,1.371-1.848,1.229-4.004  c-0.143-2.159-0.615-3.885-1.744-3.811C2.928,14.684,2.127,16.491,2.27,18.649z" fill="url(#SVGID_12_)"/>
<linearGradient gradientTransform="matrix(-1 0 0 1 -239.0674 0)" gradientUnits="userSpaceOnUse" id="SVGID_13_" x1="-242.6147" x2="-242.6147" y1="14.103" y2="22.1363">
<stop offset="0" style="stop-color:#BFC2C1"/>
<stop offset="0.3515" style="stop-color:#E0E3E1"/>
<stop offset="0.6545" style="stop-color:#989D9D"/>
<stop offset="0.9636" style="stop-color:#AFB3B2"/>
<stop offset="1" style="stop-color:#5B5B5D"/>
</linearGradient>
<path d="M3.678,14.938c0.625,0.681,0.889,2.033,0.949,3.574c0.053,1.407-0.047,2.636-0.531,3.396  c-0.828-0.358-1.516-1.714-1.625-3.381C2.357,16.833,2.879,15.374,3.678,14.938z" fill="url(#SVGID_13_)"/>
<path d="M4.055,15.332c0.006,0,0.014,0.002,0.014,0.002c0.158-0.063,0.316-0.101,0.479-0.112  c1.301-0.086,1.834,1.669,1.977,3.867c0.014,0.198,0.021,0.394,0.027,0.586c0.012-0.414,0.002-0.853-0.027-1.311  c-0.143-2.199-0.676-3.955-1.977-3.868c-0.162,0.009-0.32,0.05-0.471,0.113c0,0-0.016-0.002-0.021-0.002  c-1.105,0.072-1.889,1.809-1.789,3.903C2.354,16.754,3.082,15.397,4.055,15.332z" fill="#FFFFFF" fill-opacity="0.3" stroke-opacity="0.3"/>
<path d="M25.367,13.914c-0.488,0-0.902,0.172-1.25,0.507c0.002,0.033,0.006,0.066,0.006,0.1  l-0.338,5.171h0.246c0.006-0.185,0.014-0.373,0.025-0.564c0.139-2.113,0.615-3.327,1.359-3.327h0.004  c0.092,0.005,0.188,0.03,0.281,0.066l0.086,0.037l0.02,0.002l0.086-1.326h0.002l-0.002-0.011l0.002-0.015h-0.002  c0-0.195-0.016-0.377-0.02-0.569c-0.123-0.034-0.248-0.06-0.379-0.066C25.451,13.914,25.408,13.914,25.367,13.914z" fill="#020202" fill-opacity="0.2" stroke-opacity="0.2"/>
<linearGradient gradientTransform="matrix(1.1528 0.0088 0.0088 1.0194 453.5628 8.1097)" gradientUnits="userSpaceOnUse" id="SVGID_14_" x1="-371.4248" x2="-371.4248" y1="8.0117" y2="17.117">
<stop offset="0" style="stop-color:#A8A9AA"/>
<stop offset="0.8303" style="stop-color:#59595A"/>
<stop offset="1" style="stop-color:#818283"/>
</linearGradient>
<path d="M27.551,18.632c-0.146,2.2-1.318,3.912-2.619,3.826c-1.303-0.087-1.598-1.895-1.453-4.094  s0.676-3.955,1.979-3.868C26.758,14.583,27.695,16.433,27.551,18.632z" fill="url(#SVGID_14_)"/>
<linearGradient gradientTransform="matrix(1 0 0 1 432.2656 0)" gradientUnits="userSpaceOnUse" id="SVGID_15_" x1="-406.3081" x2="-406.3081" y1="14.311" y2="22.5257">
<stop offset="0" style="stop-color:#7A7A7A"/>
<stop offset="0.7818" style="stop-color:#212121"/>
<stop offset="1" style="stop-color:#666666"/>
</linearGradient>
<path d="M27.732,18.649c-0.143,2.158-1.172,3.849-2.301,3.772c-1.129-0.074-1.373-1.848-1.227-4.004  c0.139-2.159,0.613-3.885,1.742-3.811C27.076,14.684,27.873,16.491,27.732,18.649z" fill="url(#SVGID_15_)"/>
<linearGradient gradientTransform="matrix(1 0 0 1 432.2656 0)" gradientUnits="userSpaceOnUse" id="SVGID_16_" x1="-405.8105" x2="-405.8105" y1="14.103" y2="22.1363">
<stop offset="0" style="stop-color:#BFC2C1"/>
<stop offset="0.3515" style="stop-color:#E0E3E1"/>
<stop offset="0.6545" style="stop-color:#989D9D"/>
<stop offset="0.9636" style="stop-color:#AFB3B2"/>
<stop offset="1" style="stop-color:#5B5B5D"/>
</linearGradient>
<path d="M26.322,14.938c-0.621,0.681-0.889,2.033-0.947,3.574c-0.051,1.407,0.049,2.636,0.531,3.396  c0.83-0.358,1.516-1.714,1.625-3.381C27.643,16.833,27.123,15.374,26.322,14.938z" fill="url(#SVGID_16_)"/>
<path d="M25.947,15.332l-0.021,0.002c-0.15-0.063-0.307-0.101-0.469-0.112  c-1.303-0.086-1.834,1.669-1.979,3.867c-0.016,0.198-0.021,0.394-0.025,0.586c-0.016-0.414-0.004-0.853,0.025-1.311  c0.145-2.199,0.676-3.955,1.979-3.868c0.162,0.009,0.318,0.05,0.469,0.113l0.021-0.002c1.104,0.072,1.891,1.809,1.789,3.903  C27.648,16.754,26.922,15.397,25.947,15.332z" fill="#FFFFFF" fill-opacity="0.3" stroke-opacity="0.3"/>
<linearGradient gradientUnits="userSpaceOnUse" id="SVGID_17_" x1="15.002" x2="15.002" y1="26.0142" y2="28.9689">
<stop offset="0" style="stop-color:#7A7A7A"/>
<stop offset="0.7818" style="stop-color:#212121"/>
<stop offset="1" style="stop-color:#666666"/>
</linearGradient>
<ellipse cx="15.002" cy="27.53" fill="url(#SVGID_17_)" rx="2.316" ry="1.449"/>
</g>
</svg>
