<?xml version="1.0" encoding="UTF-8"?>
<!DOCTYPE svg PUBLIC "-//W3C//DTD SVG 1.1 Tiny//EN" "http://www.w3.org/Graphics/SVG/1.1/DTD/svg11-tiny.dtd">
<svg baseProfile="tiny" height="64px" version="1.1" viewBox="0 0 64 64" width="64px" x="0px" xmlns="http://www.w3.org/2000/svg" xmlns:xlink="http://www.w3.org/1999/xlink" y="0px">
<linearGradient gradientTransform="matrix(0 1 -1 0 3173.9492 5878.6792)" gradientUnits="userSpaceOnUse" id="SVGID_1_" x1="-5815.6792" x2="-5877.6792" y1="3141.9502" y2="3141.9502">
<stop offset="0" style="stop-color:#FAFAFA"/>
<stop offset="1" style="stop-color:#DCDCE6"/>
</linearGradient>
<circle cx="32" cy="32" fill="url(#SVGID_1_)" r="31"/>
<path d="M32,1C14.881,1,1,14.881,1,32c0,17.121,13.881,31,31,31s31-13.879,31-31  C63,14.881,49.119,1,32,1z M32,61C16.009,61,3,47.99,3,32S16.009,4,32,4s29,12.01,29,28S47.991,61,32,61z" fill="#14141E" fill-opacity="0.2" stroke-opacity="0.2"/>
<path d="M2,33C2,16.433,15.434,3,32,3s30,13.433,30,30h0.975C62.985,32.667,63,32.336,63,32  C63,14.881,49.119,1,32,1S1,14.881,1,32c0,0.336,0.015,0.667,0.025,1H2z" fill="#14141E" fill-opacity="0.2" stroke-opacity="0.2"/>
<path d="M32,0C14.328,0,0,14.328,0,32s14.328,32,32,32c17.673,0,32-14.328,32-32S49.673,0,32,0z M32,62  C15.458,62,2,48.542,2,32S15.458,2,32,2s30,13.458,30,30S48.542,62,32,62z" fill="#FFFFFF"/>
<linearGradient gradientUnits="userSpaceOnUse" id="SVGID_2_" x1="31.9995" x2="31.9995" y1="6" y2="58.0005">
<stop offset="0" style="stop-color:#66CCAD"/>
<stop offset="1" style="stop-color:#3FA990"/>
</linearGradient>
<path d="M32,58C17.665,58,6,46.338,6,32C6,17.663,17.665,6,32,6c14.336,0,26,11.663,26,26  C58,46.338,46.336,58,32,58L32,58z" fill="url(#SVGID_2_)"/>
<path d="M32,6C17.665,6,6,17.663,6,32c0,14.338,11.665,26,26,26c14.336,0,26-11.662,26-26  C58,17.663,46.336,6,32,6z M32,56C18.767,56,8,45.233,8,32S18.767,8,32,8s24,10.767,24,24S45.233,56,32,56z" fill="#14141E" fill-opacity="0.2" stroke-opacity="0.2"/>
</svg>
