<?xml version="1.0" encoding="UTF-8"?>
<!DOCTYPE svg PUBLIC "-//W3C//DTD SVG 1.1 Tiny//EN" "http://www.w3.org/Graphics/SVG/1.1/DTD/svg11-tiny.dtd">
<svg baseProfile="tiny" height="30px" version="1.1" viewBox="0 0 30 30" width="30px" x="0px" xmlns="http://www.w3.org/2000/svg" xmlns:xlink="http://www.w3.org/1999/xlink" y="0px">
<g fill-opacity="0.5" stroke-opacity="0.5">
<rect fill="none" height="30" width="30" y="0.001"/>
</g>
<path d="M10.794,10.169c1.569-1.568,4.066-3.209,5.188-3.791v0.004c0.002,0,0.005-0.006,0.006-0.008l1.278,2.143  c0.183,0.313,0.589,0.408,0.952,0.256l7.36-4.248c0.384-0.221,0.532-0.68,0.333-1.023c0,0-0.202-0.305-0.818-1.061  c0.002,0,0.004,0.002,0.005,0.004c-0.001-0.002-0.001-0.004-0.003-0.008c-0.311-0.383-0.349-0.396-0.75-0.764  c-1.205-1.104-2.531-1.537-2.531-1.537c-0.513-0.182-2.24-0.281-4.416,0.375s-7.119,3.822-10.3,7.004  c-3.18,3.184-5.9,7.49-6.42,8.855c-0.814,2.148-0.74,4.516-0.563,5.205c0,0,0.169,0.512,0.56,1.211  c0.005,0.006,0.01,0.016,0.015,0.023c0.038,0.068,0.076,0.137,0.119,0.207c0.001,0.002,0.004,0.002,0.004,0.002  c0.211,0.35,0.465,0.73,0.784,1.115c0.374,0.449,0.392,0.578,0.785,0.924c0.001,0,0.002,0,0.003,0  c0.723,0.637,1.021,0.83,1.021,0.83c0.345,0.225,0.827,0.104,1.08-0.268l4.794-7.041c0.254-0.373,0.186-0.857-0.158-1.078  l-2.725-1.744c-0.01,0-0.019,0-0.027-0.002c0.002-0.002,0.008-0.01,0.008-0.01C7.644,13.562,9.162,11.804,10.794,10.169z"/>
<path d="M22,13.001c2.757,0,5,2.242,5,5c0,2.756-2.243,5-5,5s-5-2.244-5-5C17,15.243,19.243,13.001,22,13.001 M22,10.001  c-4.419,0-8,3.58-8,8c0,4.418,3.581,8,8,8s8-3.582,8-8C30,13.581,26.419,10.001,22,10.001L22,10.001z"/>
<g>
<circle cx="22" cy="18.001" r="3"/>
</g>
<rect height="4" width="4" x="20" y="23.001"/>
<path d="M29,30.001v-1c0-1.1-0.9-2-2-2H17c-1.1,0-2,0.9-2,2v1H29z"/>
</svg>
