<?xml version="1.0" encoding="UTF-8"?>
<!DOCTYPE svg PUBLIC "-//W3C//DTD SVG 1.1 Tiny//EN" "http://www.w3.org/Graphics/SVG/1.1/DTD/svg11-tiny.dtd">
<svg baseProfile="tiny" height="30px" version="1.1" viewBox="0 0 30 30" width="30px" x="0px" xmlns="http://www.w3.org/2000/svg" xmlns:xlink="http://www.w3.org/1999/xlink" y="0px">
<g fill-opacity="0.5" stroke-opacity="0.5">
<rect fill="none" height="30" width="30"/>
</g>
<path d="M27,4H3C1.896,4,1,4.896,1,6v18c0,1.104,0.896,2,2,2h24c1.104,0,2-0.896,2-2V6C29,4.896,28.104,4,27,4z M7.584,18.26  c-0.504,0.686-1.254,1.034-2.227,1.034c-0.85,0-1.506-0.233-1.949-0.694c-0.432-0.448-0.716-1.021-0.846-1.701  c-0.125-0.653-0.188-1.453-0.188-2.375c0-1.648,0.245-2.789,0.747-3.486c0.51-0.708,1.272-1.068,2.266-1.068  c0.967,0,1.709,0.352,2.207,1.044c0.49,0.682,0.729,1.83,0.729,3.509C8.323,16.361,8.081,17.584,7.584,18.26z M10.904,18.963  c-0.22,0.219-0.489,0.331-0.801,0.331S9.521,19.182,9.3,18.96s-0.334-0.49-0.334-0.798c0-0.313,0.112-0.58,0.332-0.799  c0.22-0.217,0.491-0.327,0.806-0.327c0.311,0,0.58,0.11,0.8,0.327c0.22,0.219,0.332,0.486,0.332,0.799  C11.235,18.474,11.123,18.743,10.904,18.963z M16.611,18.574c-0.557,0.478-1.389,0.72-2.477,0.72c-0.641,0-1.305-0.095-1.976-0.283  l-0.146-0.04v-1.372h0.2c0.807,0.192,1.399,0.287,1.822,0.287c0.474,0,0.83-0.115,1.057-0.343c0.228-0.227,0.343-0.585,0.343-1.063  c0-0.514-0.132-0.867-0.403-1.078c-0.194-0.152-0.717-0.333-2.098-0.333h-0.2V13.69h0.2c1.365,0,1.854-0.166,2.023-0.306  c0.238-0.196,0.354-0.499,0.354-0.924c0-0.372-0.091-0.638-0.28-0.815c-0.188-0.178-0.486-0.268-0.885-0.268  c-0.379,0-0.927,0.098-1.629,0.292h-0.199l-0.065-0.193v-1.188l0.151-0.038c0.747-0.187,1.434-0.282,2.041-0.282  c0.938,0,1.657,0.196,2.141,0.583c0.497,0.397,0.749,0.994,0.749,1.773c0,0.538-0.149,1.009-0.444,1.401  c-0.188,0.247-0.426,0.45-0.714,0.606c0.327,0.136,0.597,0.335,0.806,0.595c0.319,0.396,0.481,0.895,0.481,1.482  C17.464,17.361,17.178,18.09,16.611,18.574z M26.429,19.2h-1.994v-5.435l-1.325,2.529h-0.916l-1.331-2.531V19.2h-2v-9.137h1.669  l2.123,4.042l2.123-4.042h1.651V19.2z"/>
<path d="M5.346,11.343c-0.281,0-0.474,0.103-0.604,0.323c-0.15,0.255-0.246,0.597-0.284,1.019c-0.04,0.445-0.061,1.063-0.061,1.839  c0,1.883,0.141,2.605,0.259,2.88c0.152,0.353,0.371,0.518,0.689,0.518c0.199,0,0.488-0.057,0.691-0.548  c0.174-0.42,0.263-1.379,0.263-2.85c0-1.755-0.146-2.431-0.268-2.689C5.873,11.499,5.655,11.343,5.346,11.343z"/>
</svg>
