<?xml version="1.0" encoding="UTF-8"?>
<!DOCTYPE svg PUBLIC "-//W3C//DTD SVG 1.1 Tiny//EN" "http://www.w3.org/Graphics/SVG/1.1/DTD/svg11-tiny.dtd">
<svg baseProfile="tiny" height="30px" version="1.1" viewBox="0 0 30 30" width="30px" x="0px" xmlns="http://www.w3.org/2000/svg" xmlns:xlink="http://www.w3.org/1999/xlink" y="0px">
<g fill-opacity="0.5" stroke-opacity="0.5">
<rect fill="none" height="30" width="30"/>
</g>
<path d="M27,5c0,0.553-0.447,1-1,1H4C3.447,6,3,5.553,3,5l0,0c0-0.553,0.447-1,1-1h22C26.553,4,27,4.447,27,5L27,5z"/>
<path d="M21,9c0,0.553-0.447,1-1,1H4c-0.553,0-1-0.447-1-1l0,0c0-0.553,0.447-1,1-1h16C20.553,8,21,8.447,21,9L21,9z"/>
<path d="M27,13c0,0.553-0.447,1-1,1H4c-0.553,0-1-0.447-1-1l0,0c0-0.553,0.447-1,1-1h22C26.553,12,27,12.447,27,13L27,13z"/>
<path d="M21,17c0,0.553-0.447,1-1,1H4c-0.553,0-1-0.447-1-1l0,0c0-0.553,0.447-1,1-1h16C20.553,16,21,16.447,21,17L21,17z"/>
<path d="M27,21c0,0.553-0.447,1-1,1H4c-0.553,0-1-0.447-1-1l0,0c0-0.553,0.447-1,1-1h22C26.553,20,27,20.447,27,21L27,21z"/>
<path d="M21,25c0,0.553-0.447,1-1,1H4c-0.553,0-1-0.447-1-1l0,0c0-0.553,0.447-1,1-1h16C20.553,24,21,24.447,21,25L21,25z"/>
</svg>
