<?xml version="1.0" encoding="UTF-8"?>
<!DOCTYPE svg PUBLIC "-//W3C//DTD SVG 1.1 Tiny//EN" "http://www.w3.org/Graphics/SVG/1.1/DTD/svg11-tiny.dtd">
<svg baseProfile="tiny" height="30px" version="1.1" viewBox="0 0 30 30" width="30px" x="0px" xmlns="http://www.w3.org/2000/svg" xmlns:xlink="http://www.w3.org/1999/xlink" y="0px">
<g>
<rect fill="none" height="30" width="30"/>
</g>
<path d="M21.799,9.4l-6-8C15.611,1.148,15.314,1,15,1s-0.611,0.148-0.801,0.4l-6,8c-0.227,0.303-0.264,0.708-0.094,1.047  S8.621,11,9,11h3v6c0,0.553,0.447,1,1,1h4c0.553,0,1-0.447,1-1v-6h3c0.379,0,0.725-0.214,0.895-0.553S22.027,9.703,21.799,9.4z"/>
<path d="M25.5,17c-0.828,0-1.5,0.672-1.5,1.5V21H6v-2.5C6,17.672,5.328,17,4.5,17S3,17.672,3,18.5V21v3.5V26h24v-1.5V21v-2.5  C27,17.672,26.328,17,25.5,17z"/>
</svg>
