<?xml version="1.0" encoding="UTF-8"?>
<!DOCTYPE svg PUBLIC "-//W3C//DTD SVG 1.1 Tiny//EN" "http://www.w3.org/Graphics/SVG/1.1/DTD/svg11-tiny.dtd">
<svg baseProfile="tiny" height="30px" version="1.1" viewBox="0 0 30 30" width="30px" x="0px" xmlns="http://www.w3.org/2000/svg" xmlns:xlink="http://www.w3.org/1999/xlink" y="0px">
<path d="M8,9H3c-1.104,0-2,0.896-2,2v8c0,1.104,0.896,2,2,2h5V9z"/>
<path d="M20,27c-0.167,0-0.334-0.042-0.486-0.126l-9-5C10.197,21.697,10,21.363,10,21V9c0-0.363,0.197-0.697,0.514-0.874l9-5  C19.666,3.042,19.833,3,20,3c0.176,0,0.351,0.046,0.508,0.139C20.813,3.318,21,3.646,21,4v22c0,0.354-0.188,0.682-0.492,0.861  C20.351,26.954,20.176,27,20,27L20,27z"/>
<path d="M23.396,22c-0.177,0-0.356-0.047-0.519-0.146c-0.472-0.287-0.622-0.901-0.335-1.374C23.455,18.979,24,16.93,24,15  s-0.545-3.979-1.458-5.48c-0.287-0.473-0.137-1.087,0.335-1.374c0.473-0.286,1.088-0.136,1.374,0.335C25.346,10.282,26,12.719,26,15  s-0.654,4.718-1.749,6.52C24.063,21.829,23.733,22,23.396,22L23.396,22z"/>
<path d="M26.585,24c-0.187,0-0.375-0.052-0.543-0.161c-0.464-0.3-0.596-0.919-0.295-1.383C27.242,20.15,28,17.643,28,15  s-0.758-5.15-2.253-7.456c-0.301-0.464-0.169-1.083,0.295-1.383c0.462-0.302,1.082-0.169,1.383,0.295C29.134,9.091,30,11.965,30,15  s-0.866,5.909-2.575,8.544C27.233,23.84,26.912,24,26.585,24L26.585,24z"/>
<g fill-opacity="0.5" stroke-opacity="0.5">
<rect fill="none" height="30" width="30"/>
</g>
</svg>
