<?xml version="1.0" encoding="UTF-8"?>
<!DOCTYPE svg PUBLIC "-//W3C//DTD SVG 1.1 Tiny//EN" "http://www.w3.org/Graphics/SVG/1.1/DTD/svg11-tiny.dtd">
<svg baseProfile="tiny" height="30px" version="1.1" viewBox="0 0 30 30" width="30px" x="0px" xmlns="http://www.w3.org/2000/svg" xmlns:xlink="http://www.w3.org/1999/xlink" y="0px">
<path d="M27.335,16.021L13.899,2.586C13.524,2.211,13.016,2,12.485,2H4C3.47,2,2.961,2.211,2.586,2.586S2,3.469,2,4v8.484  c0,0.531,0.211,1.04,0.586,1.415l13.435,13.435c0.781,0.781,2.048,0.781,2.829,0l8.485-8.484  C28.115,18.068,28.115,16.802,27.335,16.021z M6,8C4.896,8,4,7.104,4,6s0.896-2,2-2s2,0.896,2,2S7.104,8,6,8z M17.436,23.092  l-7.778-7.778l5.656-5.657l7.778,7.779L17.436,23.092z"/>
<g fill-opacity="0.5" stroke-opacity="0.5">
<rect fill="none" height="30" width="30"/>
</g>
</svg>
