<?xml version="1.0" encoding="UTF-8"?>
<!DOCTYPE svg PUBLIC "-//W3C//DTD SVG 1.1 Tiny//EN" "http://www.w3.org/Graphics/SVG/1.1/DTD/svg11-tiny.dtd">
<svg baseProfile="tiny" height="15px" version="1.1" viewBox="0 0 15 15" width="15px" x="0px" xmlns="http://www.w3.org/2000/svg" xmlns:xlink="http://www.w3.org/1999/xlink" y="0px">
<rect fill="none" height="15" width="15"/>
<rect fill="none" height="15" width="15"/>
<path d="M1,0c0,4.41,3.589,8,8,8h6V0H1z" fill="#14141E" fill-opacity="0.2" fill-rule="evenodd" stroke-opacity="0.2"/>
<path d="M0,0c0,4.963,4.038,9,9,9h6V0H0z" fill="#14141E" fill-opacity="0.1" fill-rule="evenodd" stroke-opacity="0.1"/>
<linearGradient gradientUnits="userSpaceOnUse" id="SVGID_1_" x1="9" x2="9" y1="5" y2="-41.506">
<stop offset="0" style="stop-color:#E6E6E6"/>
<stop offset="1" style="stop-color:#FFFFFF"/>
</linearGradient>
<path d="M3,0c0,3.037,2.355,5,6,5h6V0H3z" fill="url(#SVGID_1_)" fill-rule="evenodd"/>
<linearGradient gradientUnits="userSpaceOnUse" id="SVGID_2_" x1="8" x2="8" y1="-43.9995" y2="13.7699">
<stop offset="0" style="stop-color:#66CCAD"/>
<stop offset="1" style="stop-color:#3FA990"/>
</linearGradient>
<path d="M9,4C6.243,4,4,2.756,4,0H1c0,4.41,3.589,7,8,7h6V4H9z" fill="url(#SVGID_2_)" fill-rule="evenodd"/>
</svg>
