<?xml version="1.0" encoding="UTF-8"?>
<!DOCTYPE svg PUBLIC "-//W3C//DTD SVG 1.1 Tiny//EN" "http://www.w3.org/Graphics/SVG/1.1/DTD/svg11-tiny.dtd">
<svg baseProfile="tiny" height="30px" version="1.1" viewBox="0 0 30 30" width="30px" x="0px" xmlns="http://www.w3.org/2000/svg" xmlns:xlink="http://www.w3.org/1999/xlink" y="0px">
<path d="M4.854,9H3c-1.104,0-2,0.896-2,2v8c0,1.104,0.896,2,2,2h5v-8.854L4.854,9z"/>
<path d="M21,16.85V4c0-0.354-0.188-0.682-0.492-0.861C20.351,3.046,20.176,3,20,3c-0.167,0-0.334,0.042-0.486,0.126l-7.867,4.371  L21,16.85z"/>
<path d="M10,14.146V21c0,0.363,0.197,0.697,0.514,0.874l9,5C19.666,26.958,19.833,27,20,27c0.176,0,0.351-0.046,0.508-0.139  C20.813,26.682,21,26.354,21,26v-0.853L10,14.146z"/>
<path d="M27.693,26.372c0.389,0.389,0.41,1.005,0.048,1.368c-0.362,0.362-0.978,0.343-1.366-0.046L2.307,3.625  C1.918,3.236,1.896,2.621,2.26,2.258c0.363-0.362,0.979-0.34,1.367,0.049L27.693,26.372z"/>
<g fill-opacity="0.5" stroke-opacity="0.5">
<rect fill="none" height="30" width="30"/>
</g>
</svg>
