<?xml version="1.0" encoding="UTF-8"?>
<!DOCTYPE svg PUBLIC "-//W3C//DTD SVG 1.1 Tiny//EN" "http://www.w3.org/Graphics/SVG/1.1/DTD/svg11-tiny.dtd">
<svg baseProfile="tiny" height="10px" version="1.1" viewBox="0 0 10 10" width="10px" x="0px" xmlns="http://www.w3.org/2000/svg" xmlns:xlink="http://www.w3.org/1999/xlink" y="0px">
<rect fill="none" height="10" width="10"/>
<path d="M7,0v3c0,2.206-1.795,4-4,4H0v2h3c3.3,0,6-2.7,6-6V0H7z" fill="#141414" fill-opacity="0.4" stroke-opacity="0.4"/>
<path d="M0,2v6h3c2.757,0,5-2.243,5-5V2H0z" fill-opacity="0.2" stroke-opacity="0.2"/>
<path d="M0,0v7h3c2.757,0,5-2.243,5-5V0H0z" fill="url(#SVGID_1_)"/>
<path d="M7,0v2c0,2.205-1.794,4-4,4H0v1h3c2.757,0,5-2.243,5-5V0H7z" fill="#FFFFFF" fill-opacity="0.2" stroke-opacity="0.2"/>
<rect fill="none" height="10" width="10"/>
<defs>
<linearGradient gradientUnits="userSpaceOnUse" id="SVGID_1_" x1="4" x2="4" y1="7" y2="-37.5142">
<stop offset="0" style="stop-color:#65B8CC"/>
<stop offset="1" style="stop-color:#306D8C"/>
</linearGradient>
</defs>
</svg>
