<?xml version="1.0" encoding="UTF-8"?>
<!DOCTYPE svg PUBLIC "-//W3C//DTD SVG 1.1 Tiny//EN" "http://www.w3.org/Graphics/SVG/1.1/DTD/svg11-tiny.dtd">
<svg baseProfile="tiny" height="30px" version="1.1" viewBox="0 0 30 30" width="30px" x="0px" xmlns="http://www.w3.org/2000/svg" xmlns:xlink="http://www.w3.org/1999/xlink" y="0px">
<path d="M23.217,4.023l-9-2C14.145,2.008,14.072,2,14,2c-0.226,0-0.446,0.076-0.626,0.22C13.138,2.41,13,2.696,13,3v1v4v11.357  C12.31,19.129,11.549,19,10.75,19C7.574,19,5,21.016,5,23.5S7.574,28,10.75,28S17,25.984,17,23.5c0-0.134,0-9.82,0-13.809  l5.783,1.285C22.855,10.992,22.928,11,23,11c0,0,0.446-0.076,0.626-0.22C23.862,10.59,24,10.304,24,10V5  C24,4.531,23.675,4.126,23.217,4.023z"/>
<g>
<rect fill="none" height="30" width="30"/>
</g>
</svg>
