<?xml version="1.0" encoding="UTF-8"?>
<!DOCTYPE svg PUBLIC "-//W3C//DTD SVG 1.1 Tiny//EN" "http://www.w3.org/Graphics/SVG/1.1/DTD/svg11-tiny.dtd">
<svg baseProfile="tiny" height="30px" version="1.1" viewBox="0 0 30 30" width="30px" x="0px" xmlns="http://www.w3.org/2000/svg" xmlns:xlink="http://www.w3.org/1999/xlink" y="0px">
<g>
<rect fill="none" height="30" width="30"/>
</g>
<path d="M28,5H12c-0.209,0-0.406,0.041-0.596,0.101c-0.032,0.01-0.064,0.018-0.096,0.029c-0.188,0.069-0.359,0.165-0.515,0.284  C10.78,5.424,0.75,13.438,0.75,13.438C0.276,13.818,0,14.393,0,15s0.276,1.182,0.75,1.562c0,0,10.03,8.015,10.044,8.024  c0.155,0.119,0.327,0.215,0.515,0.284c0.031,0.012,0.063,0.02,0.096,0.029C11.594,24.959,11.791,25,12,25h16c1.104,0,2-0.896,2-2V7  C30,5.896,29.104,5,28,5z M24.949,17.828c0.586,0.586,0.586,1.536,0,2.122c-0.585,0.585-1.535,0.585-2.121,0L20,17.122l-2.828,2.828  c-0.586,0.585-1.536,0.585-2.121,0c-0.586-0.586-0.586-1.536,0-2.122L17.879,15l-2.828-2.828c-0.586-0.586-0.586-1.536,0-2.121  c0.585-0.586,1.535-0.586,2.121,0L20,12.879l2.828-2.828c0.586-0.586,1.536-0.586,2.121,0c0.586,0.585,0.586,1.535,0,2.121  L22.121,15L24.949,17.828z"/>
</svg>
