<?xml version="1.0" encoding="UTF-8"?>
<!DOCTYPE svg PUBLIC "-//W3C//DTD SVG 1.1 Tiny//EN" "http://www.w3.org/Graphics/SVG/1.1/DTD/svg11-tiny.dtd">
<svg baseProfile="tiny" height="30px" version="1.1" viewBox="0 0 30 30" width="30px" x="0px" xmlns="http://www.w3.org/2000/svg" xmlns:xlink="http://www.w3.org/1999/xlink" y="0px">
<g fill-opacity="0.5" stroke-opacity="0.5">
<rect fill="none" height="30" width="30"/>
</g>
<path d="M7.672,9.609c0-0.651-0.169-1.237-0.508-1.758s-1.008-1.06-2.008-1.617c-0.724-0.401-1.235-0.741-1.535-1.02  S3.172,4.565,3.172,4.102c0-0.479,0.172-0.854,0.516-1.125S4.489,2.57,5.063,2.57c0.63,0,1.313,0.083,2.047,0.25V1.461  c-0.692-0.156-1.45-0.234-2.273-0.234C3.7,1.227,2.78,1.491,2.074,2.02S1.016,3.339,1.016,4.391c0,0.661,0.159,1.251,0.477,1.77  s0.933,1.032,1.844,1.543c0.833,0.474,1.403,0.858,1.711,1.152s0.461,0.699,0.461,1.215c0,0.547-0.187,0.969-0.559,1.266  s-0.89,0.445-1.551,0.445c-0.698,0-1.497-0.122-2.398-0.367v1.391c0.823,0.214,1.659,0.32,2.508,0.32  c1.386,0,2.426-0.293,3.121-0.879S7.672,10.781,7.672,9.609z"/>
<path d="M13.828,13.289l2.758-9.422h-1.875L12.805,11L11,3.867H8.805l2.453,8.75h1.102c-0.219,0.683-0.441,1.136-0.668,1.359  s-0.538,0.336-0.934,0.336s-0.849-0.06-1.359-0.18v1.344c0.567,0.12,1.097,0.18,1.586,0.18c0.745,0,1.345-0.19,1.801-0.57  S13.589,14.106,13.828,13.289z"/>
<path d="M29.301,4.477c-0.466-0.495-1.165-0.742-2.098-0.742c-1.099,0-1.948,0.433-2.547,1.297c-0.406-0.864-1.216-1.297-2.43-1.297  c-1.156,0-2.042,0.497-2.656,1.492l-0.367-1.359h-1.234V13h2.117V7.445c0-0.724,0.138-1.305,0.414-1.742s0.675-0.656,1.195-0.656  c0.411,0,0.72,0.146,0.926,0.438s0.309,0.727,0.309,1.305V13h2.109V7.445c0-0.729,0.141-1.312,0.422-1.746s0.685-0.652,1.211-0.652  c0.406,0,0.708,0.132,0.906,0.395s0.297,0.712,0.297,1.348V13H30V6.695C30,5.711,29.767,4.972,29.301,4.477z"/>
<polygon points="8.011,17.726 7.02,17.726 4.005,18.676 4.005,19.77 6.151,19.277 6.151,26.906 4.005,26.906 4.005,28 10.041,28   10.041,26.906 8.011,26.906 "/>
<path d="M13.654,25.693c0.193-0.34,0.432-0.651,0.714-0.934s0.675-0.636,1.176-1.06c0.897-0.752,1.468-1.368,1.709-1.849  c0.241-0.481,0.362-0.97,0.362-1.467c0-0.884-0.269-1.553-0.807-2.006c-0.538-0.454-1.324-0.681-2.358-0.681  c-0.839,0-1.7,0.139-2.584,0.417v1.217h0.014c0.843-0.306,1.561-0.458,2.153-0.458c0.561,0,0.98,0.134,1.262,0.399  c0.279,0.268,0.42,0.665,0.42,1.193c0,0.301-0.087,0.604-0.26,0.909s-0.59,0.736-1.251,1.292c-0.552,0.465-1.007,0.893-1.367,1.281  c-0.36,0.391-0.663,0.86-0.909,1.412s-0.369,1.183-0.369,1.894V28h6.098v-1.189h-4.32C13.354,26.405,13.46,26.032,13.654,25.693z"/>
<path d="M23.371,22.593c0.588-0.173,1.039-0.468,1.354-0.886c0.314-0.416,0.472-0.914,0.472-1.493c0-0.839-0.262-1.468-0.786-1.887  s-1.308-0.629-2.352-0.629c-0.692,0-1.468,0.107-2.324,0.321v1.203h0.014c0.843-0.232,1.497-0.349,1.962-0.349  c0.528,0,0.927,0.125,1.192,0.376c0.268,0.251,0.4,0.624,0.4,1.121c0,0.565-0.166,0.984-0.499,1.258s-1.169,0.41-2.509,0.41v1.142  c1.354,0,2.217,0.146,2.591,0.438s0.561,0.772,0.561,1.442c0,0.624-0.156,1.093-0.468,1.404c-0.313,0.313-0.778,0.469-1.398,0.469  c-0.515,0-1.219-0.111-2.112-0.335h-0.014v1.189c0.766,0.214,1.513,0.321,2.242,0.321c1.217,0,2.13-0.261,2.737-0.783  c0.609-0.521,0.913-1.304,0.913-2.348c0-0.634-0.17-1.161-0.509-1.582C24.498,22.975,24.009,22.707,23.371,22.593z"/>
</svg>
