<?xml version="1.0" encoding="UTF-8"?>
<!DOCTYPE svg PUBLIC "-//W3C//DTD SVG 1.1 Tiny//EN" "http://www.w3.org/Graphics/SVG/1.1/DTD/svg11-tiny.dtd">
<svg baseProfile="tiny" height="20px" version="1.1" viewBox="0 0 20 20" width="20px" x="0px" xmlns="http://www.w3.org/2000/svg" xmlns:xlink="http://www.w3.org/1999/xlink" y="0px">
<rect fill="none" height="20" width="20"/>
<rect fill="none" fill-rule="evenodd" height="20" width="20"/>
<path d="M0,10c0-4.419,3.58-8,8-8h12v16H8C3.58,18,0,14.42,0,10z" fill="url(#SVGID_1_)" fill-rule="evenodd"/>
<path d="M1,10c0,3.86,3.14,7,7,7h12v-1H8  c-3.309,0-6-2.691-6-6s2.691-6,6-6h12V3H8C4.14,3,1,6.141,1,10z" fill="#FFFFFF" fill-opacity="0.2" fill-rule="evenodd" stroke-opacity="0.2"/>
<path d="M0,10c0,4.42,3.58,8,8,8h12v-1.001H7.999C4.14,16.999,1,13.859,1,10  s3.14-6.999,6.999-6.999h11H20V2H8C3.58,2,0,5.581,0,10z" fill-opacity="0.2" fill-rule="evenodd" stroke-opacity="0.2"/>
<defs>
<linearGradient gradientTransform="matrix(0 -1 1 0 1020 -1258)" gradientUnits="userSpaceOnUse" id="SVGID_1_" x1="-1260.5" x2="-1276" y1="-1010.0005" y2="-1010.0005">
<stop offset="0" style="stop-color:#B4B4BE"/>
<stop offset="0.2" style="stop-color:#D2D2DC"/>
<stop offset="0.8" style="stop-color:#D2D2DC"/>
<stop offset="1" style="stop-color:#B4B4BE"/>
</linearGradient>
</defs>
</svg>
