<?xml version="1.0" encoding="UTF-8"?>
<!DOCTYPE svg PUBLIC "-//W3C//DTD SVG 1.1 Tiny//EN" "http://www.w3.org/Graphics/SVG/1.1/DTD/svg11-tiny.dtd">
<svg baseProfile="tiny" height="30" viewBox="0 0 30 30" width="30" xmlns="http://www.w3.org/2000/svg" xmlns:xlink="http://www.w3.org/1999/xlink">
<g>
<rect fill-opacity="0.6" height="30" width="30"/>
<rect fill="url(#SVGID_1_)" height="28" width="28" x="1" y="1"/>
<polygon fill-opacity="0.2" points="24,13.88 17.99,13.88 17.99,8 13.99,8 13.99,13.88 8,13.88 8,17.88 13.99,17.88 13.99,24   17.99,24 17.99,17.88 24,17.88 "/>
<rect fill="#FFFFFF" fill-opacity="0.4" height="1" width="28" x="1" y="1"/>
<rect fill-opacity="0.2" height="1" width="28" x="1" y="28"/>
<polygon fill="#FFFFFF" points="23,12.88 16.99,12.88 16.99,7 12.99,7 12.99,12.88 7,12.88 7,16.88 12.99,16.88 12.99,23 16.99,23   16.99,16.88 23,16.88 "/>
<defs>
<linearGradient gradientTransform="matrix(1 0 0 1 -578.9609 -812.0391)" gradientUnits="userSpaceOnUse" id="SVGID_1_" x1="593.9609" x2="593.9609" y1="813.2148" y2="841.2148">
<stop offset="0" style="stop-color:#6DADC1"/>
<stop offset="1" style="stop-color:#3B518A"/>
</linearGradient>
</defs>
</g>
</svg>
