<?xml version="1.0" encoding="UTF-8"?>
<!DOCTYPE svg PUBLIC "-//W3C//DTD SVG 1.1 Tiny//EN" "http://www.w3.org/Graphics/SVG/1.1/DTD/svg11-tiny.dtd">
<svg baseProfile="tiny" height="216px" version="1.1" viewBox="0 0 216 216" width="216px" x="0px" xmlns="http://www.w3.org/2000/svg" xmlns:xlink="http://www.w3.org/1999/xlink" y="0px">
<path d="M108,115c-3.859,0-7-3.141-7-7c0-2.064,0.926-4.029,2.5-5.354V52h9v50.646c1.574,1.324,2.5,3.289,2.5,5.354  C115,111.859,111.859,115,108,115L108,115z" fill-opacity="0.2" stroke-opacity="0.2"/>
<path d="M111.5,103.134V53h-7v50.134c-1.512,1.089-2.5,2.86-2.5,4.866c0,3.313,2.687,6,6,6s6-2.687,6-6  C114,105.994,113.012,104.223,111.5,103.134z" fill="url(#SVGID_1_)"/>
<rect fill="none" height="216" width="216"/>
<defs>
<linearGradient gradientUnits="userSpaceOnUse" id="SVGID_1_" x1="107.9995" x2="107.9995" y1="53.5806" y2="114.0006">
<stop offset="0" style="stop-color:#505050"/>
<stop offset="1" style="stop-color:#3C3C3C"/>
</linearGradient>
</defs>
</svg>
