<?xml version="1.0" encoding="UTF-8"?>
<!DOCTYPE svg PUBLIC "-//W3C//DTD SVG 1.1 Tiny//EN" "http://www.w3.org/Graphics/SVG/1.1/DTD/svg11-tiny.dtd">
<svg baseProfile="tiny" height="30px" version="1.1" viewBox="0 0 30 30" width="30px" x="0px" xmlns="http://www.w3.org/2000/svg" xmlns:xlink="http://www.w3.org/1999/xlink" y="0px">
<path d="M14,24c0-0.453,0.103-0.891,0.291-1.288c-2.271-0.229-4.039-0.983-5.285-2.282c-1.514-1.577-2.27-3.942-2.27-7.096  c0-2.808,0.815-5.012,2.447-6.611c1.631-1.6,3.755-2.398,6.371-2.398c2.488,0,4.404,0.754,5.749,2.262  c1.345,1.51,2.017,3.648,2.017,6.42c0,1.205-0.149,2.201-0.436,3.004C22.924,16.008,22.961,16,23,16c0.438,0,0.88,0.098,1.276,0.285  c0.353,0.164,0.658,0.398,0.915,0.676C25.724,15.854,26,14.492,26,12.855c0-3.437-0.912-6.105-2.734-8.006  C21.442,2.949,18.854,2,15.5,2c-3.373,0-6.157,1.016-8.354,3.049c-2.197,2.032-3.295,4.84-3.295,8.422  c0,3.755,1.066,6.64,3.199,8.654c1.837,1.734,4.229,2.717,7.167,2.959C14.084,24.74,14,24.377,14,24z"/>
<path d="M16.566,7.154c-2.215,0-3.98,0.692-5.298,2.078c-1.317,1.385-1.976,3.295-1.976,5.729c0,1.576,0.373,2.816,1.121,3.719  c0.747,0.902,1.668,1.354,2.762,1.354c0.811,0,1.511-0.189,2.099-0.568c0.588-0.377,1.142-1.059,1.661-2.043  c0.217,0.768,0.59,1.363,1.104,1.807l1.892-1.576c-0.169-0.155-0.303-0.395-0.391-0.744c-0.096-0.377-0.144-0.918-0.144-1.619  c0-1.769,0.318-4.48,0.957-8.135H16.566z M16.293,13.307c-0.219,1.713-0.499,2.907-0.841,3.582C15.11,17.563,14.67,17.9,14.133,17.9  c-0.602,0-1.019-0.242-1.251-0.725c-0.232-0.483-0.349-1.268-0.349-2.352c0-1.695,0.332-3.04,0.998-4.033  c0.665-0.994,1.472-1.49,2.42-1.49h0.848L16.293,13.307z"/>
<path d="M23,30c-0.229,0-0.457-0.08-0.641-0.232l-6-5C16.132,24.578,16,24.297,16,24s0.132-0.578,0.359-0.768l6-5  C22.543,18.078,22.771,18,23,18c0.144,0,0.289,0.031,0.424,0.094C23.775,18.258,24,18.611,24,19v2h5c0.553,0,1,0.447,1,1v4  c0,0.553-0.447,1-1,1h-5v2c0,0.389-0.225,0.74-0.576,0.906C23.289,29.969,23.144,30,23,30L23,30z"/>
<g>
<rect fill="none" height="30" width="30"/>
</g>
</svg>
