<?xml version="1.0" encoding="UTF-8"?>
<!DOCTYPE svg PUBLIC "-//W3C//DTD SVG 1.1 Tiny//EN" "http://www.w3.org/Graphics/SVG/1.1/DTD/svg11-tiny.dtd">
<svg baseProfile="tiny" height="30" viewBox="0 0 30 30" width="30" xmlns="http://www.w3.org/2000/svg" xmlns:xlink="http://www.w3.org/1999/xlink">
<g>
<rect fill="none" height="30" width="30"/>
<path d="M27.799,26.385l-4.348-4.349C25.102,20.063,26,17.6,26,15c0-5.405-4.033-10.077-9.382-10.869l-1.033-0.153  l0.183-1.766L2.201,3.615l4.348,4.348C4.898,9.937,4,12.4,4,15c0,5.405,4.033,10.077,9.382,10.869l1.033,0.153l-0.183,1.766  L27.799,26.385z M14.004,20.909C11.104,20.421,9,17.936,9,15c0-1.251,0.395-2.45,1.125-3.462l4.239,4.241l0.708-6.845l0.925,0.156  C18.896,9.579,21,12.063,21,15c0,1.256-0.392,2.458-1.117,3.469l-4.247-4.247l-0.708,6.844L14.004,20.909z" fill-opacity="0.6" stroke-opacity="0.6"/>
<linearGradient gradientUnits="userSpaceOnUse" id="SVGID_1_" x1="4.0454" x2="24.9205" y1="5.4551" y2="26.3301">
<stop offset="0" style="stop-color:#85AE4A"/>
<stop offset="1" style="stop-color:#2F6F44"/>
</linearGradient>
<path d="M8,15c0-1.931,0.799-3.666,2.068-4.932l3.518,3.518l1.061-10.253L4.394,4.394l3.538,3.538  C6.122,9.741,5,12.239,5,15c0,5.021,3.705,9.166,8.528,9.88l0.309-2.984C10.53,21.338,8,18.462,8,15z" fill="url(#SVGID_1_)"/>
<linearGradient gradientUnits="userSpaceOnUse" id="SVGID_2_" x1="5.4556" x2="26.3306" y1="4.0459" y2="24.921">
<stop offset="0" style="stop-color:#85AE4A"/>
<stop offset="1" style="stop-color:#2F6F44"/>
</linearGradient>
<path d="M16.414,16.414l-1.061,10.253l10.253-1.061l-3.538-3.539C23.878,20.259,25,17.762,25,15  c0-5.021-3.705-9.166-8.528-9.88l-0.309,2.984C19.47,8.661,22,11.538,22,15c0,1.93-0.793,3.673-2.061,4.939L16.414,16.414z" fill="url(#SVGID_2_)"/>
<polygon fill="#FFFFFF" fill-opacity="0.4" points="14.507,4.681 14.646,3.333 4.394,4.394 5.602,5.602 " stroke-opacity="0.4"/>
<path d="M8.033,15.676C8.014,15.893,8,16.111,8,16.333c0,3.414,2.463,6.254,5.702,6.866l0.135-1.304  C10.748,21.375,8.338,18.83,8.033,15.676z" fill="#FFFFFF" fill-opacity="0.4" stroke-opacity="0.4"/>
<path d="M19.939,21.272C21.207,20.006,22,18.263,22,16.333c0-0.228-0.012-0.452-0.033-0.674  c-0.158,1.665-0.905,3.16-2.027,4.28l-3.525-3.525l-0.123,1.193L19.939,21.272z" fill="#FFFFFF" fill-opacity="0.4" stroke-opacity="0.4"/>
<path d="M7.297,8.63C5.863,10.359,5,12.578,5,15c0,0.235,0.016,0.467,0.032,0.698  c0.158-2.506,1.23-4.765,2.899-6.434L7.297,8.63z" fill="#FFFFFF" fill-opacity="0.4" stroke-opacity="0.4"/>
<path d="M22.703,22.702c-0.201,0.243-0.412,0.476-0.635,0.698l2.33,2.331l1.208-0.125L22.703,22.702z" fill="#FFFFFF" fill-opacity="0.4" stroke-opacity="0.4"/>
<path d="M16.472,6.453c4.597,0.681,8.171,4.479,8.496,9.182C24.981,15.424,25,15.214,25,15  c0-5.021-3.705-9.166-8.528-9.88l-0.135,1.305L16.472,6.453z" fill="#FFFFFF" fill-opacity="0.4" stroke-opacity="0.4"/>
</g>
</svg>
