<?xml version="1.0" encoding="UTF-8"?>
<!DOCTYPE svg PUBLIC "-//W3C//DTD SVG 1.1 Tiny//EN" "http://www.w3.org/Graphics/SVG/1.1/DTD/svg11-tiny.dtd">
<svg baseProfile="tiny" height="30" viewBox="0 0 30 30" width="30" xmlns="http://www.w3.org/2000/svg" xmlns:xlink="http://www.w3.org/1999/xlink">
<g>
<rect fill="none" height="30" width="30"/>
<path d="M15.05,28.784c-3.378,0-6.554-1.315-8.942-3.704c-4.692-4.693-4.918-12.188-0.68-17.151L0.505,3.006  L15.76,1.428l-1.578,15.255l-4.847-4.847c-0.931,1.231-1.434,2.727-1.434,4.302c0,1.913,0.743,3.709,2.092,5.058  c1.348,1.348,3.145,2.091,5.058,2.091s3.709-0.743,5.058-2.091c2.788-2.789,2.788-7.327,0-10.115l-0.707-0.707l3.884-3.887  l0.707,0.708c4.931,4.931,4.931,12.955,0,17.886C21.604,27.469,18.428,28.784,15.05,28.784L15.05,28.784z" fill-opacity="0.6"/>
<path d="M23.285,7.901l-2.47,2.472c3.178,3.178,3.178,8.351,0,11.529c-3.179,3.178-8.352,3.178-11.529,0  c-3.18-3.179-3.18-8.352,0-11.529l4.117,4.117l1.235-11.941L2.697,3.784l4.117,4.117c-4.549,4.55-4.549,11.922,0,16.472  c4.549,4.548,11.922,4.548,16.471,0C27.834,19.823,27.834,12.451,23.285,7.901z" fill="url(#SVGID_1_)"/>
<path d="M5.905,8.935c-1.874,2.376-2.694,5.308-2.456,8.174c0.22-2.649,1.338-5.237,3.365-7.266  L5.905,8.935z" fill="#FFFFFF" fill-opacity="0.4" stroke-opacity="0.4"/>
<path d="M23.285,9.843c2.027,2.028,3.146,4.616,3.366,7.266c0.272-3.296-0.844-6.686-3.366-9.207  l-2.47,2.472c0.331,0.331,0.62,0.689,0.883,1.059L23.285,9.843z" fill="#FFFFFF" fill-opacity="0.4" stroke-opacity="0.4"/>
<path d="M6.966,17.108c-0.284,2.397,0.483,4.898,2.32,6.735c3.178,3.178,8.351,3.178,11.529,0  c1.836-1.837,2.604-4.338,2.319-6.735c-0.21,1.753-0.978,3.452-2.319,4.794c-3.179,3.178-8.352,3.178-11.529,0  C7.943,20.561,7.175,18.861,6.966,17.108z" fill="#FFFFFF" fill-opacity="0.4" stroke-opacity="0.4"/>
<polygon fill="#FFFFFF" fill-opacity="0.4" points="14.436,4.511 14.639,2.549 2.697,3.784 4.456,5.544 " stroke-opacity="0.4"/>
<rect fill="none" height="30" width="30"/>
<defs>
<linearGradient gradientUnits="userSpaceOnUse" id="SVGID_1_" x1="2.6978" x2="23.286" y1="3.7852" y2="24.3734">
<stop offset="0" style="stop-color:#85AE4A"/>
<stop offset="1" style="stop-color:#2F6F44"/>
</linearGradient>
</defs>
</g>
</svg>
