<?xml version="1.0" encoding="UTF-8"?>
<!DOCTYPE svg PUBLIC "-//W3C//DTD SVG 1.1 Tiny//EN" "http://www.w3.org/Graphics/SVG/1.1/DTD/svg11-tiny.dtd">
<svg baseProfile="tiny" height="60" viewBox="0 0 60 60" width="60" xmlns="http://www.w3.org/2000/svg" xmlns:xlink="http://www.w3.org/1999/xlink">
<g>
<radialGradient cx="-1627.3687" cy="-2479.0078" gradientTransform="matrix(0.7071 0.7071 -0.7071 0.7071 -564.6201 2940.3716)" gradientUnits="userSpaceOnUse" id="SVGID_1_" r="45.6647">
<stop offset="0" style="stop-color:#93AC5D"/>
<stop offset="0.297" style="stop-color:#93AC5D"/>
<stop offset="0.6667" style="stop-color:#356742"/>
<stop offset="0.7939" style="stop-color:#447B42"/>
<stop offset="1" style="stop-color:#447B42"/>
</radialGradient>
<path d="M20.37,41.951c0.299-0.437,0.233-0.799-0.258-1.332c-0.617-0.666-2.567-3.084-2.968-3.737  c-0.353-0.575-0.411-1.02-0.034-1.71c0.473-0.865,1.915-3.764,8.107-9.956c6.192-6.192,9.084-7.646,9.956-8.108  c0.76-0.399,1.037-0.344,1.711,0.036c0.666,0.376,3.068,2.352,3.734,2.967c0.535,0.492,0.873,0.588,1.301,0.274  c0.752-0.551,13.828-9.843,15.229-10.774c0.85-0.565,1.141-1.062,0.523-1.779c-2.477-2.889-8.594-5.015-10.752-5.399  c-1.922-0.345-3.875-0.873-6.564,0.236c-2.561,1.053-13.076,8.534-21.113,16.571C11.203,27.277,3.722,37.795,2.668,40.352  c-1.108,2.691-0.581,4.645-0.236,6.567c0.387,2.158,2.511,8.275,5.4,10.752c0.718,0.616,1.213,0.323,1.777-0.525  C10.542,55.745,19.852,42.705,20.37,41.951z" fill="url(#SVGID_1_)"/>
<linearGradient gradientTransform="matrix(0.7071 0.7071 -0.7071 0.7071 -564.6201 2940.3716)" gradientUnits="userSpaceOnUse" id="SVGID_2_" x1="-1639.3428" x2="-1638.9111" y1="-2494.9824" y2="-2491.4067">
<stop offset="0" style="stop-color:#3C7440"/>
<stop offset="1" style="stop-color:#1E3A31"/>
</linearGradient>
<path d="M35.172,17.107c0.76-0.399,1.037-0.344,1.711,0.036c0.666,0.376,3.068,2.352,3.734,2.967  c0.535,0.492,0.873,0.588,1.301,0.274c0.047-0.034,0.063-0.046,0.064-0.046c0.252-0.184,1.031-0.739,2.119-1.514  c-0.252-0.205-3.469-2.809-4.801-2.956C36.855,15.598,35.172,17.107,35.172,17.107z" fill="url(#SVGID_2_)"/>
<linearGradient gradientTransform="matrix(0.7071 0.7071 0.7071 -0.7071 -1696.8304 4072.5859)" gradientUnits="userSpaceOnUse" id="SVGID_3_" x1="-1639.3467" x2="-1638.9149" y1="4063.0557" y2="4066.6318">
<stop offset="0" style="stop-color:#3C7440"/>
<stop offset="1" style="stop-color:#1E3A31"/>
</linearGradient>
<path d="M17.092,35.188c-0.401,0.763-0.346,1.039,0.035,1.714c0.376,0.665,2.351,3.067,2.967,3.737  c0.492,0.53,0.587,0.869,0.274,1.297c-0.035,0.049-0.046,0.063-0.046,0.063c-0.183,0.253-0.738,1.032-1.515,2.12  c-0.203-0.252-2.807-3.469-2.956-4.8C15.579,36.875,17.092,35.188,17.092,35.188z" fill="url(#SVGID_3_)"/>
<path d="M2.979,47.466c-0.344-1.923-0.873-3.877,0.235-6.567c1.054-2.557,8.535-13.074,16.573-21.112  C27.825,11.749,38.34,4.268,40.9,3.215c2.689-1.108,4.643-0.581,6.566-0.236c1.98,0.354,7.297,2.178,10.07,4.711  c-2.553-2.815-8.496-4.879-10.619-5.258c-1.922-0.345-3.875-0.873-6.564,0.236c-2.561,1.053-13.076,8.534-21.113,16.571  C11.203,27.277,3.722,37.795,2.668,40.352c-1.108,2.691-0.581,4.645-0.236,6.567c0.378,2.122,2.441,8.065,5.258,10.617  C5.156,54.763,3.333,49.448,2.979,47.466z" fill="#B1BE95" fill-opacity="0.5" stroke-opacity="0.5"/>
<path d="M20.37,41.951c0.299-0.437,0.233-0.799-0.258-1.332c-0.617-0.666-2.567-3.084-2.968-3.737  c-0.353-0.575-0.411-1.02-0.034-1.71c0.473-0.865,1.915-3.764,8.107-9.956c6.192-6.192,9.084-7.646,9.956-8.108  c0.76-0.399,1.037-0.344,1.711,0.036c0.666,0.376,3.068,2.352,3.734,2.967c0.535,0.492,0.873,0.588,1.301,0.274  c0.752-0.551,13.828-9.843,15.229-10.774c0.85-0.565,1.141-1.062,0.523-1.779c-0.291-0.339-0.635-0.665-1.012-0.982  c0.488,0.658,0.197,1.134-0.607,1.667c-1.4,0.932-14.475,10.224-15.227,10.775c-0.43,0.313-0.768,0.218-1.299-0.273  c-0.668-0.618-3.07-2.592-3.738-2.969c-0.672-0.38-0.949-0.436-1.711-0.035c-0.869,0.462-3.763,1.915-9.955,8.107  c-6.192,6.192-7.635,9.092-8.107,9.956c-0.378,0.69-0.32,1.135,0.035,1.711c0.4,0.651,2.351,3.069,2.967,3.736  c0.493,0.533,0.558,0.896,0.259,1.332c-0.518,0.755-9.828,13.794-10.76,15.195c-0.534,0.803-1.009,1.098-1.666,0.606  c0.314,0.378,0.643,0.723,0.982,1.013c0.718,0.616,1.213,0.323,1.777-0.525C10.542,55.745,19.852,42.705,20.37,41.951z" fill="#B1BE95" fill-opacity="0.6" stroke-opacity="0.6"/>
<linearGradient gradientTransform="matrix(0.7071 0.7071 -0.7071 0.7071 -608.1406 2931.3247)" gradientUnits="userSpaceOnUse" id="SVGID_4_" x1="-1610.522" x2="-1610.522" y1="-2533.3467" y2="-2471.428">
<stop offset="0" style="stop-color:#315D3E"/>
<stop offset="0.5" style="stop-color:#1E3A31"/>
<stop offset="1" style="stop-color:#2E593D"/>
</linearGradient>
<path d="M2.899,45.012c1.275-2.776,10.299-14.805,18.804-23.31  c8.505-8.506,20.531-17.529,23.309-18.803c0.527-0.241,1.02-0.411,1.492-0.545c-0.512-0.096-1.031-0.19-1.566-0.26  c-0.086,0.036-0.162,0.063-0.248,0.102c-2.818,1.293-14.972,10.397-23.534,18.958c-8.562,8.562-17.667,20.715-18.96,23.535  c-0.038,0.086-0.063,0.165-0.101,0.25c0.071,0.534,0.165,1.054,0.259,1.564C2.489,46.03,2.658,45.539,2.899,45.012z" fill="url(#SVGID_4_)" fill-opacity="0.5" stroke-opacity="0.5"/>
<rect fill="none" height="60" width="60"/>
</g>
<g transform="matrix(1 0 0 1 30 30)">
<polygon fill="none" points="7.52,0 0,0 0,30 7.52,30 22.479,30 30,30 30,0 22.479,0 "/>
<path d="M7.52,30c-0.699,0-1.352-0.281-1.836-0.793l-0.039-0.041l-0.057-0.07c-0.045-0.047-0.123-0.146-0.193-0.254  l-0.031-0.049l-0.041-0.079c-0.031-0.044-0.094-0.16-0.146-0.284l-0.023-0.057l-0.033-0.117c-0.035-0.096-0.064-0.191-0.084-0.291  c-0.033-0.161-0.051-0.327-0.051-0.498V2.534C4.984,1.137,6.123,0,7.52,0h14.959c1.398,0,2.535,1.137,2.535,2.534v24.933  c0,0.171-0.018,0.337-0.051,0.498c-0.027,0.135-0.066,0.262-0.113,0.387c-0.074,0.188-0.137,0.314-0.207,0.428l-0.039,0.065  c-0.072,0.111-0.156,0.214-0.244,0.313C23.828,29.72,23.178,30,22.479,30H7.52z" fill-opacity="0.35" stroke-opacity="0.35"/>
<linearGradient gradientUnits="userSpaceOnUse" id="SVGID_1__" x1="14.999" x2="14.999" y1="1" y2="28.9273">
<stop offset="0" style="stop-color:#D3D7D5"/>
<stop offset="0.0667" style="stop-color:#D3D7D5"/>
<stop offset="0.2606" style="stop-color:#BFC2C1"/>
<stop offset="0.6606" style="stop-color:#989D9D"/>
<stop offset="0.9636" style="stop-color:#AFB3B2"/>
<stop offset="1" style="stop-color:#5B5B5D"/>
</linearGradient>
<path d="M24.014,27.467c0,0.847-0.688,1.533-1.535,1.533H7.52c-0.848,0-1.535-0.687-1.535-1.533V2.534  C5.984,1.687,6.672,1,7.52,1h14.959c0.848,0,1.535,0.687,1.535,1.534V27.467z" fill="url(#SVGID_1__)"/>
<linearGradient gradientUnits="userSpaceOnUse" id="SVGID_2__" x1="14.999" x2="14.999" y1="1" y2="28.45">
<stop offset="0" style="stop-color:#E7EAE8"/>
<stop offset="0.0667" style="stop-color:#E7EAE8"/>
<stop offset="0.2606" style="stop-color:#D8DCDA"/>
<stop offset="0.6606" style="stop-color:#B7BDBB"/>
<stop offset="1" style="stop-color:#AFB3B2"/>
</linearGradient>
<path d="M22.479,1H7.52C6.672,1,5.984,1.687,5.984,2.534v24.933c0,0.409,0.164,0.779,0.424,1.055  c-0.021-0.094-0.039-0.188-0.039-0.287v-0.768V3.3V2.534c0-0.635,0.516-1.151,1.15-1.151h14.959c0.635,0,1.152,0.517,1.152,1.151  V3.3v24.167v0.768c0,0.099-0.018,0.193-0.041,0.287c0.26-0.275,0.424-0.646,0.424-1.055V2.534C24.014,1.687,23.326,1,22.479,1z" fill="url(#SVGID_2__)"/>
<linearGradient gradientUnits="userSpaceOnUse" id="SVGID_3__" x1="15" x2="15" y1="2.9458" y2="21.7146">
<stop offset="0" style="stop-color:#B8BBBA"/>
<stop offset="1" style="stop-color:#F4FBF6"/>
</linearGradient>
<rect fill="url(#SVGID_3__)" fill-opacity="0.6" height="18.795" stroke-opacity="0.6" width="15.727" x="7.137" y="2.918"/>
<linearGradient gradientUnits="userSpaceOnUse" id="SVGID_4__" x1="14.999" x2="14.999" y1="3.3267" y2="21.3309">
<stop offset="0" style="stop-color:#6E6E6E"/>
<stop offset="1" style="stop-color:#333333"/>
</linearGradient>
<rect fill="url(#SVGID_4__)" height="18.029" width="14.959" x="7.52" y="3.3"/>
<linearGradient gradientUnits="userSpaceOnUse" id="SVGID_5_" x1="15" x2="15" y1="3.71" y2="20.9477">
<stop offset="0" style="stop-color:#70B4B6"/>
<stop offset="0.3879" style="stop-color:#5F8BA1"/>
<stop offset="0.8909" style="stop-color:#455188"/>
<stop offset="1" style="stop-color:#455188"/>
</linearGradient>
<rect fill="url(#SVGID_5_)" height="17.262" width="14.191" x="7.904" y="3.685"/>
<linearGradient gradientUnits="userSpaceOnUse" id="SVGID_6_" x1="15" x2="15" y1="3.9844" y2="10.8451">
<stop offset="0" style="stop-color:#AADAC6"/>
<stop offset="1" style="stop-color:#6A99AA"/>
</linearGradient>
<polygon fill="url(#SVGID_6_)" points="22.096,9.821 7.904,11.356 7.904,4.067 22.096,4.067 "/>
<rect fill="#BCE2D2" height="0.383" width="14.191" x="7.904" y="3.685"/>
<linearGradient gradientUnits="userSpaceOnUse" id="SVGID_7_" x1="14.9404" x2="14.9404" y1="22.1118" y2="27.8145">
<stop offset="0" style="stop-color:#B8BBBA"/>
<stop offset="1" style="stop-color:#FFFFFF"/>
</linearGradient>
<path d="M13.553,27.851c-0.82,0-1.488-0.662-1.488-1.475v-2.805  c0-0.813,0.668-1.476,1.488-1.476h2.773c0.822,0,1.49,0.663,1.49,1.476v2.805c0,0.813-0.668,1.475-1.49,1.475H13.553z" fill="url(#SVGID_7_)" fill-opacity="0.6" stroke-opacity="0.6"/>
<path d="M13.551,27.467c-0.607,0-1.104-0.489-1.104-1.091v-2.805c0-0.602,0.496-1.09,1.104-1.09h2.777  c0.609,0,1.105,0.488,1.105,1.09v2.805c0,0.602-0.496,1.091-1.105,1.091H13.551z" fill="#020202" fill-opacity="0.5" stroke-opacity="0.5"/>
<linearGradient gradientUnits="userSpaceOnUse" id="SVGID_8_" x1="14.9404" x2="14.9404" y1="22.8438" y2="27.0903">
<stop offset="0" style="stop-color:#A8A9AA"/>
<stop offset="0.703" style="stop-color:#59595A"/>
<stop offset="1" style="stop-color:#818283"/>
</linearGradient>
<path d="M17.051,26.376c0,0.391-0.322,0.707-0.719,0.707h-2.785c-0.395,0-0.717-0.316-0.717-0.707v-2.805  c0-0.391,0.322-0.708,0.717-0.708h2.785c0.396,0,0.719,0.317,0.719,0.708V26.376z" fill="url(#SVGID_8_)"/>
<linearGradient gradientUnits="userSpaceOnUse" id="SVGID_9_" x1="14.9404" x2="14.9404" y1="23.5933" y2="26.3081">
<stop offset="0" style="stop-color:#D3D7D5"/>
<stop offset="0.0667" style="stop-color:#D3D7D5"/>
<stop offset="0.2606" style="stop-color:#BFC2C1"/>
<stop offset="0.6606" style="stop-color:#989D9D"/>
<stop offset="0.9636" style="stop-color:#AFB3B2"/>
<stop offset="1" style="stop-color:#5B5B5D"/>
</linearGradient>
<path d="M14.363,26.316c-0.422,0-0.766-0.344-0.766-0.769v-1.149c0-0.424,0.344-0.769,0.766-0.769h1.152  c0.424,0,0.768,0.345,0.768,0.769v1.149c0,0.425-0.344,0.769-0.768,0.769H14.363z" fill="url(#SVGID_9_)"/>
<linearGradient gradientUnits="userSpaceOnUse" id="SVGID_10_" x1="8.833" x2="8.833" y1="22.46" y2="27.0908">
<stop offset="0" style="stop-color:#B8BBBA"/>
<stop offset="1" style="stop-color:#F4FBF6"/>
</linearGradient>
<path d="M8.609,27.083c-0.811,0-1.473-0.66-1.473-1.476v-1.652  c0-0.813,0.662-1.474,1.473-1.474h0.443c0.814,0,1.477,0.66,1.477,1.474v1.652c0,0.815-0.662,1.476-1.477,1.476H8.609z" fill="url(#SVGID_10_)" fill-opacity="0.4" stroke-opacity="0.4"/>
<linearGradient gradientUnits="userSpaceOnUse" id="SVGID_11_" x1="8.832" x2="8.832" y1="22.8452" y2="26.7065">
<stop offset="0" style="stop-color:#222021"/>
<stop offset="1" style="stop-color:#6E6E6F"/>
</linearGradient>
<path d="M8.609,26.7c-0.6,0-1.09-0.49-1.09-1.093v-1.652c0-0.602,0.49-1.092,1.09-1.092h0.443  c0.604,0,1.092,0.49,1.092,1.092v1.652c0,0.603-0.488,1.093-1.092,1.093H8.609z" fill="url(#SVGID_11_)" fill-opacity="0.7" stroke-opacity="0.7"/>
<linearGradient gradientUnits="userSpaceOnUse" id="SVGID_12_" x1="8.833" x2="8.833" y1="23.2339" y2="26.3218">
<stop offset="0" style="stop-color:#B3C77D"/>
<stop offset="0.7273" style="stop-color:#3C743A"/>
<stop offset="1" style="stop-color:#235138"/>
</linearGradient>
<path d="M9.762,25.607c0,0.393-0.316,0.709-0.709,0.709H8.609c-0.389,0-0.705-0.316-0.705-0.709v-1.652  c0-0.392,0.316-0.707,0.705-0.707h0.443c0.393,0,0.709,0.315,0.709,0.707V25.607z" fill="url(#SVGID_12_)"/>
<linearGradient gradientUnits="userSpaceOnUse" id="SVGID_13_" x1="20.835" x2="20.835" y1="22.46" y2="27.0908">
<stop offset="0" style="stop-color:#B8BBBA"/>
<stop offset="1" style="stop-color:#F4FBF6"/>
</linearGradient>
<path d="M20.615,27.083c-0.814,0-1.477-0.66-1.477-1.476v-1.652  c0-0.813,0.662-1.474,1.477-1.474h0.441c0.814,0,1.475,0.66,1.475,1.474v1.652c0,0.815-0.66,1.476-1.475,1.476H20.615z" fill="url(#SVGID_13_)" fill-opacity="0.4" stroke-opacity="0.4"/>
<linearGradient gradientUnits="userSpaceOnUse" id="SVGID_14_" x1="20.835" x2="20.835" y1="22.8452" y2="26.7065">
<stop offset="0" style="stop-color:#222021"/>
<stop offset="1" style="stop-color:#6E6E6F"/>
</linearGradient>
<path d="M20.615,26.7c-0.604,0-1.094-0.49-1.094-1.093v-1.652c0-0.602,0.49-1.092,1.094-1.092  h0.441c0.602,0,1.092,0.49,1.092,1.092v1.652c0,0.603-0.49,1.093-1.092,1.093H20.615z" fill="url(#SVGID_14_)" fill-opacity="0.7" stroke-opacity="0.7"/>
<linearGradient gradientUnits="userSpaceOnUse" id="SVGID_15_" x1="20.8359" x2="20.8359" y1="23.2339" y2="26.3218">
<stop offset="0" style="stop-color:#C6B17B"/>
<stop offset="0.7455" style="stop-color:#98604F"/>
<stop offset="1" style="stop-color:#7F3736"/>
</linearGradient>
<path d="M21.766,25.607c0,0.393-0.318,0.709-0.709,0.709h-0.441c-0.393,0-0.709-0.316-0.709-0.709v-1.652  c0-0.392,0.316-0.707,0.709-0.707h0.441c0.391,0,0.709,0.315,0.709,0.707V25.607z" fill="url(#SVGID_15_)"/>
<rect fill="none" height="30" width="30"/>
</g>
</svg>
