<?xml version="1.0" encoding="UTF-8"?>
<!DOCTYPE svg PUBLIC "-//W3C//DTD SVG 1.1 Tiny//EN" "http://www.w3.org/Graphics/SVG/1.1/DTD/svg11-tiny.dtd">
<svg baseProfile="tiny" height="30px" version="1.1" viewBox="0 0 30 30" width="30px" x="0px" xmlns="http://www.w3.org/2000/svg" xmlns:xlink="http://www.w3.org/1999/xlink" y="0px">
<g fill-opacity="0.5" stroke-opacity="0.5">
<rect fill="none" height="30" width="30"/>
</g>
<path d="M4,17.75V26c0,1.104,0.896,2,2,2h18c1.104,0,2-0.896,2-2v-8.271L15,8L4,17.75z M18,19v7h-6v-7c0-1.104,0.896-2,2-2h2  C17.104,17,18,17.896,18,19z"/>
<path d="M27.346,11.52l-11-10C15.964,1.173,15.482,1,15,1s-0.964,0.173-1.346,0.52l-11,10C2.238,11.899,2,12.437,2,13  s0.238,1.102,0.654,1.48L4,15.703v0.047L15,6l11,9.729v-0.026l1.346-1.223C27.762,14.102,28,13.563,28,13  S27.762,11.899,27.346,11.52z"/>
</svg>
