<?xml version="1.0" encoding="UTF-8"?>
<!DOCTYPE svg PUBLIC "-//W3C//DTD SVG 1.1 Tiny//EN" "http://www.w3.org/Graphics/SVG/1.1/DTD/svg11-tiny.dtd">
<svg baseProfile="tiny" height="30px" version="1.1" viewBox="-1 -1 30 30" width="30px" x="0px" xmlns="http://www.w3.org/2000/svg" xmlns:xlink="http://www.w3.org/1999/xlink" y="0px">
<polyline points="0,28 8,6 16,28 0,28 "/>
<polygon points="21.365,6.977 21.998,5.391 22.631,6.977 24.684,6.977 21.998,0 19.314,6.977 "/>
<polygon points="19.365,11.979 20.564,8.977 18.545,8.977 17.391,11.979 "/>
<polygon points="26.609,11.979 25.453,8.977 23.432,8.977 24.631,11.979 "/>
<path d="M26,15.396l-0.002,0.008L26,15.406h-0.002c-0.002,0.758-0.227,1.461-0.596,2.066l1.447,1.445  c0.682-0.934,1.102-2.072,1.146-3.303L28,15.596l-0.621-1.615H25.43l0.566,1.416H26z"/>
<path d="M18.594,17.471c-0.369-0.605-0.594-1.307-0.596-2.064h-0.002l0.002-0.002l-0.002-0.008H18l0.566-1.416h-1.945L16,15.592  c0.041,1.24,0.461,2.385,1.146,3.324L18.594,17.471z"/>
<path d="M21.998,19.398c-0.719,0-1.383-0.205-1.967-0.537l-1.455,1.457c0.973,0.68,2.15,1.082,3.422,1.082s2.449-0.402,3.42-1.082  l-1.455-1.455C23.381,19.195,22.717,19.398,21.998,19.398z"/>
</svg>
