<?xml version="1.0" encoding="UTF-8"?>
<!DOCTYPE svg PUBLIC "-//W3C//DTD SVG 1.1 Tiny//EN" "http://www.w3.org/Graphics/SVG/1.1/DTD/svg11-tiny.dtd">
<svg baseProfile="tiny" height="30px" version="1.1" viewBox="0 0 30 30" width="30px" x="0px" xmlns="http://www.w3.org/2000/svg" xmlns:xlink="http://www.w3.org/1999/xlink" y="0px">
<rect fill="none" height="30" width="30"/>
<path d="M22.21,3.211l0.707-0.707c0.779-0.777,2.054-0.777,2.83,0s0.776,2.051,0,2.828l-0.707,0.707-2.83-2.828z"/>
<path d="M18.9,29v-1.805l6.233-9.879h-5.823v-2.02h9.551v1.771l-6.271,9.914h6.41v2.02h-10.1z"/>
<path d="M9.701,21.1l-4.442-4.44c-0.431,1.676,0.036,3.572,1.399,4.938,0.865,0.863,1.943,1.365,3.043,1.508v-2.006z"/>
<path d="M24.34,3.918c-3.892-3.891-10.25-3.891-14.14,0l-4.25,4.242c-1.913-0.685-2.637-0.191-3.514,0.686l-1.436,1.434,8.729,8.729h7.58v-5.709h9.664c0.77-3.26-0.1-6.849-2.63-9.382z"/>
<path d="M11.46,29v-1.053l3.637-5.762h-3.398v-1.18h5.571v1.031l-3.657,5.783h3.739v1.18h-5.887z"/>
</svg>
