<?xml version="1.0" encoding="UTF-8"?>
<!DOCTYPE svg PUBLIC "-//W3C//DTD SVG 1.1 Tiny//EN" "http://www.w3.org/Graphics/SVG/1.1/DTD/svg11-tiny.dtd">
<svg baseProfile="tiny" height="60" viewBox="0 0 60 60" width="60" xmlns="http://www.w3.org/2000/svg" xmlns:xlink="http://www.w3.org/1999/xlink">
<g>
<rect fill="none" height="60" width="60"/>
<linearGradient gradientUnits="userSpaceOnUse" id="SVGID_1_" x1="27.8462" x2="27.8462" y1="3.1968" y2="48.3761">
<stop offset="0" style="stop-color:#D3D7D5"/>
<stop offset="0.0667" style="stop-color:#D3D7D5"/>
<stop offset="0.4606" style="stop-color:#BFC2C1"/>
<stop offset="0.7333" style="stop-color:#989D9D"/>
<stop offset="0.9636" style="stop-color:#AFB3B2"/>
<stop offset="1" style="stop-color:#5B5B5D"/>
</linearGradient>
<path d="M51.065,18.041H31.027v-2.398c2.141-1.259,4.403-2.609,4.403-5.143c0-3.896-4.045-7.064-7.938-7.064  c-3.895,0-7.937,3.168-7.937,7.064c0,2.535,2.265,3.891,4.415,5.146v2.396h-5.701c-1.445,0-2.627,1.183-2.627,2.626v13.048h-1.453  c-1.211-2.092-2.594-4.378-5.185-4.378C5.136,29.337,2,33.348,2,37.217c0,3.868,3.136,7.879,7.003,7.879  c2.591,0,3.974-2.286,5.185-4.377h1.453v3.885c0,1.445,1.183,2.627,2.627,2.627h6.205v-3.62c-1.889-1.104-3.882-2.296-3.882-4.526  c0-3.426,3.556-6.213,6.981-6.213s6.983,2.787,6.983,6.213c0,2.229-1.99,3.417-3.873,4.525v3.621h20.383  c1.445,0,2.628-1.182,2.628-2.627V20.667C53.693,19.224,52.51,18.041,51.065,18.041z" fill="url(#SVGID_1_)"/>
<path d="M18.268,18.759h5.701v-0.718h-5.701c-1.445,0-2.627,1.183-2.627,2.626v0.718  C15.641,19.941,16.823,18.759,18.268,18.759z" fill="#FFFFFF"/>
<path d="M27.492,4.153c3.78,0,7.692,2.989,7.918,6.729c0.012-0.125,0.021-0.251,0.021-0.382  c0-3.896-4.045-7.064-7.938-7.064c-3.895,0-7.937,3.168-7.937,7.064c0,0.131,0.01,0.257,0.021,0.382  C19.8,7.143,23.71,4.153,27.492,4.153z" fill="#FFFFFF"/>
<path d="M30.682,43.609v0.717c1.883-1.107,3.873-2.295,3.873-4.523c0-0.113-0.014-0.225-0.021-0.336  C34.321,41.452,32.454,42.566,30.682,43.609z" fill="#FFFFFF"/>
<path d="M9.003,30.055c2.591,0,3.974,2.286,5.185,4.378h1.453v-0.718h-1.453c-1.211-2.092-2.594-4.378-5.185-4.378  C5.136,29.337,2,33.348,2,37.217c0,0.119,0.012,0.238,0.018,0.358C2.204,33.822,5.256,30.055,9.003,30.055z" fill="#FFFFFF"/>
<path d="M51.065,18.041H31.027v0.718h20.038c1.445,0,2.628,1.182,2.628,2.625v-0.718  C53.693,19.224,52.51,18.041,51.065,18.041z" fill="#FFFFFF"/>
<path d="M20.612,39.467c-0.007,0.111-0.021,0.223-0.021,0.336c0,2.229,1.993,3.422,3.882,4.525V43.61  C22.695,42.572,20.827,41.454,20.612,39.467z" fill="#FFFFFF"/>
<path d="M53.693,32.871H40.51l-0.113,0.01L40.34,32.89c-1.32,0.21-2.018,1.202-2.179,1.638  l-1.121,2.339c-0.058,0.08-0.11,0.163-0.155,0.242c-0.064,0.112-0.118,0.222-0.127,0.247c-0.047,0.096-0.09,0.197-0.148,0.367  c-0.1,0.307-0.148,0.6-0.148,0.893v8.615h15.32c0.754,0,1.43-0.326,1.911-0.836V32.871z" fill="#020202" fill-opacity="0.1" stroke-opacity="0.1"/>
<path d="M53.693,33.59H40.51l-0.057,0.009c-0.986,0.157-1.513,0.888-1.645,1.239l-1.151,2.401  c-0.056,0.073-0.106,0.149-0.153,0.231c-0.045,0.078-0.082,0.154-0.102,0.201c-0.037,0.073-0.067,0.15-0.109,0.273  c-0.076,0.233-0.114,0.452-0.114,0.67v8.615h14.603c0.754,0,1.43-0.326,1.911-0.836V33.59z" fill="#020202" fill-opacity="0.2" stroke-opacity="0.2"/>
<linearGradient gradientUnits="userSpaceOnUse" id="SVGID_2_" x1="47.9429" x2="47.9429" y1="34.2842" y2="38.7279">
<stop offset="0" style="stop-color:#98B060"/>
<stop offset="1" style="stop-color:#66924D"/>
</linearGradient>
<path d="M57.619,37.628l-1.189-2.479c0,0-0.269-0.707-1.11-0.841H40.568  c-0.843,0.134-1.111,0.841-1.111,0.841l-1.188,2.479c-0.289,0.325-0.356,0.74-0.371,0.987h20.092  C57.975,38.368,57.908,37.953,57.619,37.628z" fill="url(#SVGID_2_)"/>
<linearGradient gradientUnits="userSpaceOnUse" id="SVGID_3_" x1="47.9487" x2="47.9487" y1="37.0742" y2="57.0715">
<stop offset="0" style="stop-color:#C39072"/>
<stop offset="1" style="stop-color:#984D51"/>
</linearGradient>
<path d="M58,55.128c0,0.793-0.644,1.437-1.436,1.437H39.333c-0.791,0-1.436-0.644-1.436-1.437V38.615  c0-0.793,0.645-1.436,1.436-1.436h17.232c0.792,0,1.436,0.643,1.436,1.436V55.128z" fill="url(#SVGID_3_)"/>
<linearGradient gradientUnits="userSpaceOnUse" id="SVGID_4_" x1="47.9487" x2="47.9487" y1="51.5391" y2="37.1797">
<stop offset="0" style="stop-color:#6F3B44"/>
<stop offset="1" style="stop-color:#C39072"/>
</linearGradient>
<path d="M40.769,51.539h14.359c0.793,0,1.437-0.645,1.437-1.438V37.18H39.333v12.922  C39.333,50.895,39.976,51.539,40.769,51.539z" fill="url(#SVGID_4_)"/>
<linearGradient gradientUnits="userSpaceOnUse" id="SVGID_5_" x1="47.9478" x2="47.9478" y1="50.2227" y2="56.8339">
<stop offset="0" style="stop-color:#6F3B44"/>
<stop offset="1" style="stop-color:#C39072"/>
</linearGradient>
<path d="M55.87,51.326c-0.17,0.104-0.359,0.168-0.564,0.194c-0.047,0.011-0.103,0.019-0.177,0.019H40.769  c-0.074,0-0.13-0.008-0.177-0.019c-0.205-0.026-0.395-0.091-0.564-0.194l-1.929,4.525c0.25,0.424,0.706,0.713,1.233,0.713h17.232  c0.527,0,0.983-0.289,1.232-0.713L55.87,51.326z" fill="url(#SVGID_5_)"/>
<path d="M55.305,52.238c0.205-0.025,0.395-0.092,0.564-0.193l1.731,4.062c0.073-0.078,0.142-0.161,0.196-0.255  l-1.928-4.525c-0.17,0.104-0.359,0.168-0.564,0.194c-0.047,0.011-0.103,0.019-0.177,0.019H40.769c-0.074,0-0.13-0.008-0.177-0.019  c-0.205-0.026-0.395-0.091-0.564-0.194l-1.929,4.525c0.056,0.094,0.124,0.177,0.198,0.255l1.73-4.062  c0.17,0.102,0.359,0.168,0.564,0.193c0.047,0.011,0.103,0.018,0.177,0.018" fill-opacity="0.15" stroke-opacity="0.15"/>
<path d="M39.333,37.18v12.922c0,0.793,0.644,1.438,1.437,1.438h14.359c0.793,0,1.437-0.645,1.437-1.438V37.18H39.333z   M55.846,50.102c0,0.396-0.322,0.719-0.718,0.719H40.769c-0.396,0-0.718-0.322-0.718-0.719V37.896h15.795V50.102z" fill-opacity="0.1" stroke-opacity="0.1"/>
<linearGradient gradientUnits="userSpaceOnUse" id="SVGID_6_" x1="47.9487" x2="47.9487" y1="34.292" y2="37.2548">
<stop offset="0" style="stop-color:#C39072"/>
<stop offset="1" style="stop-color:#984D51"/>
</linearGradient>
<path d="M56.565,35.742c0-0.793-0.644-1.435-1.437-1.435H40.769c-0.793,0-1.437,0.642-1.437,1.435v1.438  h17.232V35.742z" fill="url(#SVGID_6_)"/>
<linearGradient gradientUnits="userSpaceOnUse" id="SVGID_7_" x1="47.8735" x2="47.8735" y1="37.4336" y2="34.3221">
<stop offset="0" style="stop-color:#B17362"/>
<stop offset="1" style="stop-color:#CAA782"/>
</linearGradient>
<path d="M39.333,37.18h17.232c0.465,0,0.874,0.225,1.137,0.568  c-0.027-0.041-0.049-0.082-0.083-0.12l-1.189-2.479c0,0-0.269-0.707-1.11-0.841H40.568c-0.843,0.134-1.111,0.841-1.111,0.841  l-1.188,2.479c-0.102,0.113-0.167,0.237-0.223,0.362C38.28,37.512,38.765,37.18,39.333,37.18z" fill="url(#SVGID_7_)" fill-opacity="0.65" stroke-opacity="0.65"/>
<path d="M57.787,37.869c0.007,0.012,0.011,0.021,0.017,0.033C57.797,37.891,57.792,37.881,57.787,37.869z" fill="#BBCE8B"/>
<path d="M37.985,38.139c-0.003,0.01-0.006,0.02-0.01,0.029C37.979,38.158,37.982,38.148,37.985,38.139z" fill="#BBCE8B"/>
<linearGradient gradientUnits="userSpaceOnUse" id="SVGID_8_" x1="47.9487" x2="47.9487" y1="37.0742" y2="57.0715">
<stop offset="0" style="stop-color:#BEB16A"/>
<stop offset="0.5455" style="stop-color:#CAA782"/>
<stop offset="1" style="stop-color:#B17362"/>
</linearGradient>
<path d="M56.565,37.18H39.333c-0.791,0-1.436,0.643-1.436,1.436v16.513c0,0.793,0.645,1.437,1.436,1.437  h17.232c0.792,0,1.436-0.644,1.436-1.437V38.615C58,37.822,57.357,37.18,56.565,37.18z M57.282,55.128  c0,0.396-0.322,0.718-0.717,0.718H39.333c-0.395,0-0.717-0.322-0.717-0.718V38.615c0-0.396,0.322-0.719,0.717-0.719h17.232  c0.395,0,0.717,0.322,0.717,0.719V55.128z" fill="url(#SVGID_8_)"/>
</g>
</svg>
