<?xml version="1.0" encoding="UTF-8"?>
<!DOCTYPE svg PUBLIC "-//W3C//DTD SVG 1.1 Tiny//EN" "http://www.w3.org/Graphics/SVG/1.1/DTD/svg11-tiny.dtd">
<svg baseProfile="tiny" height="30" viewBox="0 0 30 30" width="30" xmlns="http://www.w3.org/2000/svg" xmlns:xlink="http://www.w3.org/1999/xlink">
<g>
<path d="M4.63,28.028c-0.878,0-1.593-0.714-1.593-1.592v-8.962c0-0.878,0.714-1.593,1.593-1.593h8.962  c0.878,0,1.592,0.715,1.592,1.593v8.962c0,0.877-0.714,1.592-1.592,1.592H4.63z" fill-opacity="0.6"/>
<path d="M17.167,28.028c-0.878,0-1.592-0.714-1.592-1.592v-8.961c0-0.878,0.714-1.593,1.592-1.593h8.963  c0.878,0,1.592,0.714,1.592,1.593v8.961c0,0.877-0.714,1.592-1.592,1.592H17.167z" fill-opacity="0.6"/>
<path d="M17.167,15.49c-0.878,0-1.592-0.714-1.592-1.592V4.937c0-0.877,0.714-1.592,1.592-1.592h8.963  c0.878,0,1.592,0.714,1.592,1.592v8.961c0,0.877-0.714,1.592-1.592,1.592H17.167z" fill-opacity="0.6"/>
<linearGradient gradientUnits="userSpaceOnUse" id="SVGID_1_" x1="9.1099" x2="9.1099" y1="14.7993" y2="29.1976">
<stop offset="0" style="stop-color:#EAEDEB"/>
<stop offset="0.0424" style="stop-color:#EAEDEB"/>
<stop offset="0.2606" style="stop-color:#BDBFBF"/>
<stop offset="0.5394" style="stop-color:#969A9A"/>
<stop offset="1" style="stop-color:#999E9E"/>
</linearGradient>
<path d="M4.63,27.471c-0.571,0-1.036-0.464-1.036-1.034v-8.962c0-0.571,0.465-1.035,1.036-1.035h8.962  c0.57,0,1.034,0.464,1.034,1.035v8.962c0,0.57-0.464,1.034-1.034,1.034H4.63z" fill="url(#SVGID_1_)"/>
<linearGradient gradientUnits="userSpaceOnUse" id="SVGID_2_" x1="21.6484" x2="21.6484" y1="14.2666" y2="29.5001">
<stop offset="0" style="stop-color:#B6D6CA"/>
<stop offset="0.7333" style="stop-color:#566486"/>
<stop offset="1" style="stop-color:#597996"/>
</linearGradient>
<path d="M17.167,27.47c-0.569,0-1.034-0.464-1.034-1.034v-8.961c0-0.571,0.465-1.035,1.034-1.035h8.963  c0.569,0,1.033,0.463,1.033,1.035v8.961c0,0.57-0.464,1.034-1.033,1.034H17.167z" fill="url(#SVGID_2_)"/>
<linearGradient gradientUnits="userSpaceOnUse" id="SVGID_3_" x1="21.6484" x2="21.6484" y1="1.8657" y2="17.1518">
<stop offset="0" style="stop-color:#EAEDEB"/>
<stop offset="0.0424" style="stop-color:#EAEDEB"/>
<stop offset="0.2606" style="stop-color:#BDBFBF"/>
<stop offset="0.5394" style="stop-color:#969A9A"/>
<stop offset="1" style="stop-color:#999E9E"/>
</linearGradient>
<path d="M17.167,14.932c-0.569,0-1.034-0.462-1.034-1.034V4.937c0-0.571,0.465-1.035,1.034-1.035h8.963  c0.569,0,1.033,0.463,1.033,1.035v8.961c0,0.571-0.464,1.034-1.033,1.034H17.167z" fill="url(#SVGID_3_)"/>
<polygon fill-opacity="0.6" points="4.988,10.178 1.52,6.882 6.245,6.136 8.309,1.82 10.479,6.082 15.222,6.71 11.838,10.092   12.706,14.796 8.445,12.624 4.237,14.902 "/>
<radialGradient cx="8.146" cy="58.4453" gradientTransform="matrix(1 0 0 -1 0.1597 62.4922)" gradientUnits="userSpaceOnUse" id="SVGID_4_" r="10.161">
<stop offset="0" style="stop-color:#D1C899"/>
<stop offset="0.14" style="stop-color:#D1C899"/>
<stop offset="0.55" style="stop-color:#B8A259"/>
<stop offset="0.73" style="stop-color:#B2955E"/>
<stop offset="1" style="stop-color:#C2B375"/>
</radialGradient>
<polygon fill="url(#SVGID_4_)" points="5.559,9.985 2.67,7.24 6.605,6.619 8.324,3.023 10.131,6.574 14.081,7.098 11.263,9.915   11.985,13.831 8.436,12.022 4.934,13.92 "/>
<radialGradient cx="8.2612" cy="57.21" gradientTransform="matrix(1 0 0 -1 0.1597 62.4922)" gradientUnits="userSpaceOnUse" id="SVGID_5_" r="14.1249">
<stop offset="0" style="stop-color:#F0EDDC"/>
<stop offset="1" style="stop-color:#B8A259"/>
</radialGradient>
<polygon fill="url(#SVGID_5_)" points="6.766,6.938 8.324,3.663 9.971,6.894 13.797,7.38 14.081,7.098 10.131,6.574 8.324,3.023   6.605,6.619 2.67,7.24 2.96,7.516 "/>
<rect fill="none" height="30" width="30"/>
</g>
</svg>
