<?xml version="1.0" encoding="UTF-8"?>
<!DOCTYPE svg PUBLIC "-//W3C//DTD SVG 1.1 Tiny//EN" "http://www.w3.org/Graphics/SVG/1.1/DTD/svg11-tiny.dtd">
<svg baseProfile="tiny" height="30" viewBox="0 0 30 30" width="30" xmlns="http://www.w3.org/2000/svg" xmlns:xlink="http://www.w3.org/1999/xlink">
<g>
<rect fill="none" height="30" width="30"/>
<rect fill-opacity="0.35" height="12" stroke-opacity="0.35" width="8" x="1" y="15"/>
<rect fill-opacity="0.35" height="18" stroke-opacity="0.35" width="8" x="11" y="9"/>
<rect fill-opacity="0.35" height="24" stroke-opacity="0.35" width="8" x="21" y="3"/>
<linearGradient gradientUnits="userSpaceOnUse" id="SVGID_1_" x1="5" x2="5" y1="16" y2="26.1373">
<stop offset="0" style="stop-color:#C1A775"/>
<stop offset="1" style="stop-color:#A46853"/>
</linearGradient>
<rect fill="url(#SVGID_1_)" height="10" width="6" x="2" y="16"/>
<linearGradient gradientUnits="userSpaceOnUse" id="SVGID_2_" x1="5" x2="5" y1="17" y2="25.1098">
<stop offset="0" style="stop-color:#A8835F"/>
<stop offset="1" style="stop-color:#9A5047"/>
</linearGradient>
<rect fill="url(#SVGID_2_)" height="8" width="4" x="3" y="17"/>
<linearGradient gradientTransform="matrix(-1 0 0 1 11700.957 0)" gradientUnits="userSpaceOnUse" id="SVGID_3_" x1="11685.957" x2="11685.957" y1="4" y2="26">
<stop offset="0" style="stop-color:#E6E6E6"/>
<stop offset="1" style="stop-color:#6F6F6F"/>
</linearGradient>
<rect fill="url(#SVGID_3_)" height="16" width="6" x="12" y="10"/>
<linearGradient gradientTransform="matrix(-1 0 0 1 11700.957 0)" gradientUnits="userSpaceOnUse" id="SVGID_4_" x1="11685.957" x2="11685.957" y1="5.75" y2="25">
<stop offset="0" style="stop-color:#C4C4C4"/>
<stop offset="1" style="stop-color:#4F4F4F"/>
</linearGradient>
<rect fill="url(#SVGID_4_)" height="14" width="4" x="13" y="11"/>
<polygon fill="#FFFFFF" fill-opacity="0.3" points="12,12.389 12,10 14.39,10 " stroke-opacity="0.3"/>
<polygon fill="#FFFFFF" fill-opacity="0.3" points="18,17.703 12,23.703 12,18.047 18,12.047 " stroke-opacity="0.3"/>
<polygon fill="#FFFFFF" fill-opacity="0.3" points="18,23.359 18,26 15.36,26 " stroke-opacity="0.3"/>
<linearGradient gradientTransform="matrix(-1 0 0 1 11720.957 0)" gradientUnits="userSpaceOnUse" id="SVGID_5_" x1="11695.957" x2="11695.957" y1="4" y2="26">
<stop offset="0" style="stop-color:#E6E6E6"/>
<stop offset="1" style="stop-color:#6F6F6F"/>
</linearGradient>
<rect fill="url(#SVGID_5_)" height="22" width="6" x="22" y="4"/>
<linearGradient gradientTransform="matrix(-1 0 0 1 11720.957 0)" gradientUnits="userSpaceOnUse" id="SVGID_6_" x1="11695.957" x2="11695.957" y1="5" y2="25">
<stop offset="0" style="stop-color:#C4C4C4"/>
<stop offset="1" style="stop-color:#4F4F4F"/>
</linearGradient>
<rect fill="url(#SVGID_6_)" height="20" width="4" x="23" y="5"/>
<polygon fill="#FFFFFF" fill-opacity="0.3" points="22,9.639 22,4 27.64,4 " stroke-opacity="0.3"/>
<polygon fill="#FFFFFF" fill-opacity="0.3" points="28,14.953 22,20.953 22,15.297 28,9.297 " stroke-opacity="0.3"/>
<polygon fill="#FFFFFF" fill-opacity="0.3" points="28,20.609 28,26 22.61,26 " stroke-opacity="0.3"/>
<rect fill="none" height="30" width="30"/>
</g>
</svg>
