<?xml version="1.0" encoding="UTF-8"?>
<!DOCTYPE svg PUBLIC "-//W3C//DTD SVG 1.1 Tiny//EN" "http://www.w3.org/Graphics/SVG/1.1/DTD/svg11-tiny.dtd">
<svg baseProfile="tiny" height="30px" version="1.1" viewBox="0 0 30 30" width="30px" x="0px" xmlns="http://www.w3.org/2000/svg" xmlns:xlink="http://www.w3.org/1999/xlink" y="0px">
<g>
<rect fill="none" height="30" width="30"/>
</g>
<rect height="11" width="2" x="26" y="4"/>
<rect height="28" width="2" x="1" y="1"/>
<path d="M23,1H5v28h18c1.105,0,2-0.896,2-2V3C25,1.895,24.105,1,23,1z M9,21c0.014-0.168,0.336-3.576,3.301-3.867  c0.68-0.014,1.5-0.332,1.5-1.18V15.74c0-0.094-0.047-0.184-0.123-0.24C12.674,14.783,12,13.309,12,11.83C12,9.717,13.346,8,15,8  s3,1.717,3,3.83c0,1.479-0.674,2.953-1.678,3.67c-0.076,0.057-0.121,0.146-0.121,0.24v0.213c0,0.934,0.98,1.18,1.498,1.18  C20.664,17.424,20.988,20.832,21,21H9z"/>
</svg>
