<?xml version="1.0" encoding="UTF-8"?>
<!DOCTYPE svg PUBLIC "-//W3C//DTD SVG 1.1 Tiny//EN" "http://www.w3.org/Graphics/SVG/1.1/DTD/svg11-tiny.dtd">
<svg baseProfile="tiny" height="10px" version="1.1" viewBox="0 0 10 10" width="10px" x="0px" xmlns="http://www.w3.org/2000/svg" xmlns:xlink="http://www.w3.org/1999/xlink" y="0px">
<rect fill="none" height="10" width="10"/>
<rect fill="none" height="10" width="10"/>
<path d="M2,10V3c0-1.654,1.346-3,3-3s3,1.346,3,3v7H2z" fill-opacity="0.35" stroke-opacity="0.35"/>
<path d="M5,0C3.343,0,2,1.343,2,3s0,7,0,7h1V3c0-1.104,0.896-2,2-2s2,0.896,2,2v7h1c0,0,0-5.855,0-7  C8,1.343,6.656,0,5,0z" fill-opacity="0.1" stroke-opacity="0.1"/>
</svg>
