<?xml version="1.0" encoding="UTF-8"?>
<!DOCTYPE svg PUBLIC "-//W3C//DTD SVG 1.1 Tiny//EN" "http://www.w3.org/Graphics/SVG/1.1/DTD/svg11-tiny.dtd">
<svg baseProfile="tiny" height="30px" version="1.1" viewBox="0 0 30 30" width="30px" x="0px" xmlns="http://www.w3.org/2000/svg" xmlns:xlink="http://www.w3.org/1999/xlink" y="0px">
<g>
<rect fill="none" height="30" width="30"/>
</g>
<path d="M13.136,8.827c-0.463-0.143-0.937-0.479-0.937-1.177V7.419c0-0.1,0.047-0.196,0.122-0.257C13.325,6.389,14,5.094,14,3.5  c0-2.276-1.346-3.417-3-3.417c-1.655,0-3,1.141-3,3.417c0,1.593,0.674,2.889,1.676,3.661c0.078,0.062,0.122,0.157,0.122,0.257V7.65  c0,0.083-0.014,0.157-0.026,0.231C9.914,8.357,10,8.893,10,9.5c0,1.365-0.431,2.615-1.198,3.583h4.528  C13.121,12.242,13,11.367,13,10.481C13,9.915,13.048,9.362,13.136,8.827z"/>
<path d="M30,26c-0.023-0.284-0.561-6.051-5.501-6.543c-0.862,0-2.501-0.416-2.501-1.996v-0.362c0-0.158,0.078-0.309,0.205-0.404  C23.877,15.479,25,12.985,25,10.481C25,6.905,22.758,4,20,4s-5,2.905-5,6.481c0,2.504,1.123,4.998,2.793,6.213  c0.131,0.096,0.205,0.246,0.205,0.404v0.362c0,1.435-1.364,1.972-2.5,1.996c-0.26,0.025-0.5,0.074-0.735,0.127  C15.509,20.131,16,21.006,16,22v4H30z"/>
<path d="M5.079,16.695C5.618,16.246,6.3,16,7,16c0.436,0,0.875,0.098,1.271,0.282C9.322,16.774,10,17.841,10,19h1.992  c-0.063-0.576-0.526-3.788-3.293-4.08c-0.519,0-1.5-0.266-1.5-1.27v-0.231c0-0.101,0.047-0.196,0.122-0.257  C8.325,12.389,9,11.094,9,9.5c0-2.276-1.346-3.417-3-3.417c-1.655,0-3,1.141-3,3.417c0,1.593,0.674,2.888,1.676,3.662  c0.078,0.061,0.122,0.156,0.122,0.257v0.231c0,0.912-0.817,1.254-1.499,1.27C0.336,15.232,0.012,18.902,0,19.084h2.213L5.079,16.695  z"/>
<path d="M7,30c-0.229,0-0.457-0.079-0.641-0.231l-6-5C0.132,24.578,0,24.297,0,24s0.132-0.578,0.359-0.768l6-5  C6.543,18.079,6.771,18,7,18c0.144,0,0.289,0.031,0.424,0.094C7.775,18.259,8,18.611,8,19v2h5c0.553,0,1,0.448,1,1v4  c0,0.553-0.447,1-1,1H8v2c0,0.389-0.225,0.741-0.576,0.906C7.289,29.969,7.144,30,7,30L7,30z"/>
</svg>
