<?xml version="1.0" encoding="UTF-8"?>
<!DOCTYPE svg PUBLIC "-//W3C//DTD SVG 1.1 Tiny//EN" "http://www.w3.org/Graphics/SVG/1.1/DTD/svg11-tiny.dtd">
<svg baseProfile="tiny" height="30px" version="1.1" viewBox="0 0 30 30" width="30px" x="0px" xmlns="http://www.w3.org/2000/svg" xmlns:xlink="http://www.w3.org/1999/xlink" y="0px">
<circle cx="8.5" cy="25.5" r="2.5"/>
<circle cx="22.5" cy="25.5" r="2.5"/>
<path d="M28,7h-1H6V5V4c0-0.553-0.447-1-1-1H4H2C1.447,3,1,3.447,1,4v1c0,0.553,0.447,1,1,1h1v16c0,0.553,0.448,1,1,1h0.001H5h3.5  h14H26c0.552,0,1-0.447,1-1v-1c0-0.553-0.448-1-1-1H6v-2h17.237H26c0.553,0,1-0.447,1-1c0-0.331-0.172-0.61-0.419-0.792L27.593,10  H28c0.553,0,1-0.447,1-1V8C29,7.447,28.553,7,28,7z M8,16H6v-6h2V16z M12,16h-2v-6h2V16z M16,16h-2v-6h2V16z M20,16h-2v-6h2V16z   M23.566,16H22v-6h2.553L23.566,16z"/>
<g fill-opacity="0.5" stroke-opacity="0.5">
<rect fill="none" height="30" width="30"/>
</g>
</svg>
