<?xml version="1.0" encoding="UTF-8"?>
<!DOCTYPE svg PUBLIC "-//W3C//DTD SVG 1.1 Tiny//EN" "http://www.w3.org/Graphics/SVG/1.1/DTD/svg11-tiny.dtd">
<svg baseProfile="tiny" height="30px" version="1.1" viewBox="0 0 30 30" width="30px" x="0px" xmlns="http://www.w3.org/2000/svg" xmlns:xlink="http://www.w3.org/1999/xlink" y="0px">
<rect fill="none" height="30" width="30"/>
<rect fill="none" height="30" width="30"/>
<path d="M21.885,17.735l2.39,2.39C24.74,19.006,25,17.78,25,16.494c0-0.188-0.006-0.902-0.016-1.088  C24.936,14.613,24.277,14,23.491,14c-0.03,0-0.061,0-0.091,0.002c-0.825,0.049-1.453,0.76-1.405,1.584  c0.008,0.125,0.011,0.781,0.011,0.908C22.006,16.919,21.963,17.333,21.885,17.735z"/>
<path d="M18.231,22.379c-0.826,0.382-1.742,0.602-2.711,0.602H9V21c0-0.357-0.191-0.689-0.502-0.867C8.344,20.045,8.172,20,8,20  c-0.174,0-0.348,0.045-0.504,0.137l-6,3.5C1.189,23.816,1,24.145,1,24.5s0.189,0.686,0.496,0.863l6,3.5C7.652,28.955,7.826,29,8,29  c0.172,0,0.344-0.045,0.498-0.133C8.809,28.689,9,28.357,9,28v-2v-0.027h6.521c1.801,0,3.479-0.514,4.915-1.39L18.231,22.379z"/>
<path d="M11.771,7.622c0.826-0.382,1.741-0.601,2.709-0.601H21V9c0,0.357,0.191,0.689,0.502,0.867C21.656,9.955,21.828,10,22,10  c0.174,0,0.348-0.045,0.504-0.137l6-3.5C28.811,6.186,29,5.855,29,5.5s-0.189-0.684-0.496-0.863l-6-3.5C22.348,1.045,22.174,1,22,1  c-0.172,0-0.344,0.045-0.498,0.133C21.191,1.311,21,1.643,21,2v2v0.027h-6.521c-1.801,0-3.479,0.514-4.915,1.389L11.771,7.622z"/>
<path d="M8.116,12.263l-2.39-2.39C5.26,10.993,5,12.219,5,13.506c0,0.188,0.005,0.902,0.016,1.088C5.064,15.389,5.723,16,6.509,16  c0.03,0,0.061,0,0.091-0.002c0.825-0.049,1.454-0.758,1.405-1.584c-0.008-0.125-0.011-0.781-0.011-0.908  C7.994,13.08,8.038,12.666,8.116,12.263z"/>
<path d="M27.693,26.372c0.389,0.389,0.41,1.005,0.048,1.368c-0.362,0.362-0.978,0.343-1.366-0.046L2.307,3.625  C1.918,3.236,1.896,2.621,2.26,2.258c0.363-0.362,0.979-0.34,1.367,0.049L27.693,26.372z"/>
<g fill-opacity="0.5" stroke-opacity="0.5">
<rect fill="none" height="30" width="30"/>
</g>
</svg>
