<?xml version="1.0" encoding="UTF-8"?>
<!DOCTYPE svg PUBLIC "-//W3C//DTD SVG 1.1 Tiny//EN" "http://www.w3.org/Graphics/SVG/1.1/DTD/svg11-tiny.dtd">
<svg baseProfile="tiny" height="30px" version="1.1" viewBox="0 0 30 30" width="30px" x="0px" xmlns="http://www.w3.org/2000/svg" xmlns:xlink="http://www.w3.org/1999/xlink" y="0px">
<g fill-opacity="0.5" stroke-opacity="0.5">
<rect fill="none" height="30" width="30"/>
</g>
<circle cx="12" cy="9" r="3"/>
<path d="M3,16c0-1.509,1.089-2.647,2.532-2.647c0.428,0,0.851,0.103,1.257,0.306l1.536,0.768c0.208-0.484,0.515-0.914,0.887-1.278  C7.879,12.249,7,10.725,7,9c0-2.757,2.243-5,5-5s5,2.243,5,5c0,1.13-0.391,2.162-1.025,3H23V4c0-1.104-0.896-2-2-2H8V1  c0-0.552-0.447-1-1-1H4C3.447,0,3,0.448,3,1v1C1.896,2,1,2.896,1,4v11c0,1.104,0.896,2,2,2V16z M18,4h3v2h-3V4z"/>
<path d="M29.168,16.555L28,17.333V16c0-1.104-0.896-2-2-2H12c-1.104,0-2,0.896-2,2v11c0,1.104,0.896,2,2,2h14c1.104,0,2-0.896,2-2  v-4.333l1.168,0.778C29.626,23.75,30,23.55,30,23v-6C30,16.45,29.626,16.25,29.168,16.555z M18.5,26c-0.828,0-1.5-0.672-1.5-1.5  s0.672-1.5,1.5-1.5s1.5,0.672,1.5,1.5S19.328,26,18.5,26z M23.5,26c-0.828,0-1.5-0.672-1.5-1.5s0.672-1.5,1.5-1.5s1.5,0.672,1.5,1.5  S24.328,26,23.5,26z"/>
<path d="M8.105,16.553l-2.211-1.105C5.402,15.201,5,15.45,5,16v8c0,0.55,0.402,0.799,0.895,0.553l2.211-1.105  C8.598,23.201,9,22.55,9,22v-4C9,17.45,8.598,16.799,8.105,16.553z"/>
</svg>
