<?xml version="1.0" encoding="UTF-8"?>
<!DOCTYPE svg PUBLIC "-//W3C//DTD SVG 1.1 Tiny//EN" "http://www.w3.org/Graphics/SVG/1.1/DTD/svg11-tiny.dtd">
<svg baseProfile="tiny" height="40px" version="1.1" viewBox="0 0 20 40" width="20px" x="0px" xmlns="http://www.w3.org/2000/svg" xmlns:xlink="http://www.w3.org/1999/xlink" y="0px">
<path d="M0,20c0-5.513,4.485-10,10-10c5.514,0,10,4.487,10,10c0,5.516-4.486,10-10,10  C4.484,30,0,25.516,0,20L0,20z" fill="#E4E4E4"/>
<rect fill="none" height="40" width="20"/>
<circle cx="10.002" cy="20" fill="#969696" r="9.23"/>
<path d="M19.232,20c0-5.098-4.133-9.231-9.231-9.231c-5.098,0-9.229,4.134-9.229,9.231  c0,5.098,4.13,9.229,9.228,9.229C15.1,29.229,19.232,25.098,19.232,20z M1.537,20c0-4.665,3.799-8.462,8.463-8.462  c4.665,0,8.462,3.797,8.462,8.462c0,4.664-3.797,8.463-8.462,8.463C5.336,28.463,1.537,24.664,1.537,20z" fill-opacity="0.2" stroke-opacity="0.2"/>
</svg>
