<?xml version="1.0" encoding="UTF-8"?>
<!DOCTYPE svg PUBLIC "-//W3C//DTD SVG 1.1 Tiny//EN" "http://www.w3.org/Graphics/SVG/1.1/DTD/svg11-tiny.dtd">
<svg baseProfile="tiny" height="60" viewBox="0 0 60 60" width="60" xmlns="http://www.w3.org/2000/svg" xmlns:xlink="http://www.w3.org/1999/xlink">
<g>
<radialGradient cx="29.7026" cy="11.6152" gradientUnits="userSpaceOnUse" id="SVGID_1_" r="38.4093">
<stop offset="0" style="stop-color:#D2C997"/>
<stop offset="0.0727" style="stop-color:#D2C997"/>
<stop offset="0.5152" style="stop-color:#BFA56F"/>
<stop offset="0.703" style="stop-color:#AE804B"/>
<stop offset="1" style="stop-color:#C2AC76"/>
</radialGradient>
<path d="M30,1C13.868,1,6.945,12.993,8.949,25.372c2.001,12.363,9.413,24.197,21.011,24.367v0.004  c0.015,0,0.026-0.002,0.041-0.002c0.016,0,0.027,0.002,0.041,0.002v-0.004c11.598-0.17,19.01-12.004,21.012-24.367  C53.057,12.993,46.133,1,30,1z" fill="url(#SVGID_1_)"/>
<path d="M29.794,43.146c-2.909,0-9.646-0.137-14.811-2.203c3,4.275,6.97,7.426,11.806,8.443  c0.037,0.008,0.074,0.014,0.11,0.021c0.284,0.057,0.57,0.107,0.859,0.15c0.239,0.035,0.481,0.061,0.725,0.086  c0.113,0.012,0.226,0.027,0.34,0.037c0.386,0.031,0.776,0.051,1.171,0.057v0.002c0.044,0,0.085-0.004,0.128-0.006  c0.051,0,0.1-0.006,0.15-0.006c0.342-0.01,0.68-0.031,1.014-0.059c0.23-0.021,0.457-0.047,0.684-0.076  c0.094-0.012,0.186-0.023,0.279-0.035c5.588-0.83,10.082-4.459,13.328-9.445C40.303,42.723,32.951,43.146,29.794,43.146z" fill-opacity="0.1" stroke-opacity="0.1"/>
<linearGradient gradientUnits="userSpaceOnUse" id="SVGID_2_" x1="17.9624" x2="42.0391" y1="51.7617" y2="51.7617">
<stop offset="0" style="stop-color:#A4A8A8"/>
<stop offset="0.1212" style="stop-color:#BFC2C1"/>
<stop offset="0.2848" style="stop-color:#ECEFED"/>
<stop offset="0.6727" style="stop-color:#989D9D"/>
<stop offset="0.8182" style="stop-color:#DBDFDD"/>
<stop offset="0.9636" style="stop-color:#AFB3B2"/>
<stop offset="1" style="stop-color:#5B5B5D"/>
</linearGradient>
<polygon fill="url(#SVGID_2_)" points="17.962,44.523 17.962,56.377 21.099,59 38.9,59 42.039,56.377 42.039,44.523 "/>
<linearGradient gradientUnits="userSpaceOnUse" id="SVGID_3_" x1="42.0391" x2="17.9629" y1="57.54" y2="57.54">
<stop offset="0" style="stop-color:#E2E2E2"/>
<stop offset="0.3" style="stop-color:#969696"/>
<stop offset="0.6727" style="stop-color:#F2F2F2"/>
<stop offset="1" style="stop-color:#B3B3B3"/>
</linearGradient>
<polygon fill="url(#SVGID_3_)" points="17.962,56.377 21.099,59 38.9,59 42.039,56.377 42.039,56.08 17.962,56.08 "/>
<radialGradient cx="29.5933" cy="3.4521" gradientUnits="userSpaceOnUse" id="SVGID_4_" r="18.3714">
<stop offset="0" style="stop-color:#FFFFFF"/>
<stop offset="1" style="stop-color:#D7CBA7"/>
</radialGradient>
<path d="M48.678,14.315c-0.715-2.025-1.75-3.873-3.094-5.452  C42.072,4.738,36.684,2.557,30,2.557c-6.683,0-12.072,2.182-15.583,6.307c-1.344,1.58-2.38,3.427-3.094,5.451  C17.357,14.959,23.618,15.31,30,15.31C36.381,15.312,42.643,14.961,48.678,14.315z" fill="url(#SVGID_4_)" fill-opacity="0.75" stroke-opacity="0.75"/>
<rect fill-opacity="0.25" height="2.207" stroke-opacity="0.25" width="24.077" x="17.962" y="46.975"/>
<rect fill-opacity="0.25" height="2.205" stroke-opacity="0.25" width="24.077" x="17.962" y="51.939"/>
<rect fill="none" height="60" width="60"/>
</g>
</svg>
