<?xml version="1.0" encoding="UTF-8"?>
<!DOCTYPE svg PUBLIC "-//W3C//DTD SVG 1.1 Tiny//EN" "http://www.w3.org/Graphics/SVG/1.1/DTD/svg11-tiny.dtd">
<svg baseProfile="tiny" height="10px" version="1.1" viewBox="0 0 10 10" width="10px" x="0px" xmlns="http://www.w3.org/2000/svg" xmlns:xlink="http://www.w3.org/1999/xlink" y="0px">
<rect fill="none" height="10" width="10"/>
<g>
<path d="M0,0v4c0,3.3,2.7,6,6,6h4V0H0z" fill="url(#SVGID_1_)"/>
<defs>
<linearGradient gradientUnits="userSpaceOnUse" id="SVGID_1_" x1="5" x2="5" y1="10" y2="-89.7654">
<stop offset="0" style="stop-color:#65B8CC"/>
<stop offset="1" style="stop-color:#306D8C"/>
</linearGradient>
</defs>
</g>
<path d="M6,8C3.794,8,2,6.206,2,4V0H1v4c0,2.757,2.243,5,5,5h4V8H6z" fill="#FFFFFF" fill-opacity="0.2" stroke-opacity="0.2"/>
<path d="M6,9C3.243,9,1,6.757,1,4V0H0v4c0,3.3,2.7,6,6,6h4V9H6z" fill-opacity="0.2" stroke-opacity="0.2"/>
</svg>
