<?xml version="1.0" encoding="UTF-8"?>
<!DOCTYPE svg PUBLIC "-//W3C//DTD SVG 1.1 Tiny//EN" "http://www.w3.org/Graphics/SVG/1.1/DTD/svg11-tiny.dtd">
<svg baseProfile="tiny" height="60" viewBox="0 0 60 60" width="60" xmlns="http://www.w3.org/2000/svg" xmlns:xlink="http://www.w3.org/1999/xlink">
<g>
<linearGradient gradientUnits="userSpaceOnUse" id="SVGID_1_" x1="12.8" x2="12.8" y1="35.35" y2="50.07">
<stop offset="0" stop-color="#7B7B7B"/>
<stop offset="0.1455" stop-color="#565656"/>
<stop offset="0.3091" stop-color="#8C8C8C"/>
<stop offset="0.6848" stop-color="#000000"/>
<stop offset="1" stop-color="#646464"/>
</linearGradient>
<path d="M16.68,48.77c0,0.746-0.605,1.352-1.351,1.352h-5.06c-0.747,0-1.352-0.605-1.352-1.352v-12.07c0-0.746,0.604-1.352,1.352-1.352h5.063c0.745,0,1.351,0.605,1.351,1.352v12.07z" fill="url(#SVGID_1_)"/>
<linearGradient gradientUnits="userSpaceOnUse" id="SVGID_2_" x1="47.33" x2="47.33" y1="35.35" y2="50.12">
<stop offset="0" stop-color="#7B7B7B"/>
<stop offset="0.1455" stop-color="#565656"/>
<stop offset="0.3091" stop-color="#8C8C8C"/>
<stop offset="0.6848" stop-color="#000000"/>
<stop offset="1" stop-color="#646464"/>
</linearGradient>
<path d="M51.21,48.77c0,0.746-0.604,1.352-1.352,1.352h-5.063c-0.746,0-1.351-0.605-1.351-1.352v-12.07c0-0.746,0.604-1.352,1.351-1.352h5.063c0.747,0,1.352,0.605,1.352,1.352v12.07z" fill="url(#SVGID_2_)"/>
<linearGradient gradientUnits="userSpaceOnUse" id="SVGID_3_" x1="30" x2="30" y1="9.878" y2="33.23">
<stop offset="0" stop-color="#D6CDA0"/>
<stop offset="0.511" stop-color="#B39C4D"/>
<stop offset="1" stop-color="#B3834D"/>
</linearGradient>
<path d="M45.96,12.92c-0.27-0.631-0.71-1.577-2.432-1.892-1.956-0.358-5.486-1.15-13.37-1.15-7.882,0-11.74,0.76-13.69,1.15-1.576,0.314-2.163,1.261-2.433,1.892-0.271,0.631-4.412,9.908-4.774,14.77l2.342,5.314h36.79l2.342-5.314c-0.36-4.86-4.51-14.14-4.78-14.77z" fill="url(#SVGID_3_)"/>
<linearGradient gradientUnits="userSpaceOnUse" id="SVGID_4_" x1="7.499" x2="52.5" y1="35.35" y2="35.35">
<stop offset="0" stop-color="#996F41"/>
<stop offset="0.25" stop-color="#AD924B"/>
<stop offset="0.75" stop-color="#B39C4D"/>
<stop offset="1" stop-color="#996F41"/>
</linearGradient>
<path d="M52.45,30.84c-0.067-0.902-0.405-3.941-4.505-4.662-4.098-0.721-4.746,2.434-7.296,4.527-2.938,2.414-6.791,2.117-10.48,2.117-3.692,0-7.869,0.297-10.81-2.117-2.55-2.094-3.198-5.248-7.296-4.527-4.099,0.721-4.438,3.76-4.504,4.662-0.361,4.863,1.222,10.61,1.892,12.43,0.444,1.211,2.161,1.352,2.161,1.352h36.79s1.675-0.006,2.161-1.352c0.66-1.82,2.26-7.56,1.9-12.43z" fill="url(#SVGID_4_)"/>
<linearGradient gradientUnits="userSpaceOnUse" id="SVGID_5_" x1="12.06" x2="47.95" y1="21.09" y2="21.09">
<stop offset="0" stop-color="#B3864D"/>
<stop offset="0.511" stop-color="#B39C4D"/>
<stop offset="1" stop-color="#B3834D"/>
</linearGradient>
<path d="M43.53,11.03c-1.956-0.358-5.486-1.15-13.37-1.15-7.882,0-11.74,0.76-13.69,1.15-0.256,0.051-0.48,0.119-0.687,0.199-1.815,3.072-4.801,14.6-3.728,14.42,4.098-0.721,4.746,2.432,7.296,4.525,2.94,2.414,7.117,2.117,10.81,2.117s7.546,0.297,10.48-2.117c2.55-2.094,3.198-5.246,7.296-4.525,1.073,0.188-1.803-11.35-3.688-14.42-0.21-0.09-0.45-0.16-0.72-0.21z" fill="url(#SVGID_5_)"/>
<path d="M12.06,26.18c4.098-0.721,4.746,2.434,7.296,4.527,2.94,2.414,7.117,2.117,10.81,2.117s7.546,0.297,10.48-2.117c2.55-2.094,3.198-5.248,7.296-4.527,1.225,0.216,2.107,0.64,2.753,1.149-0.04-0.358-0.093-0.73-0.163-1.121-0.631-0.454-1.465-0.83-2.59-1.028-4.098-0.721-4.746,2.434-7.296,4.527-2.938,2.414-6.791,2.287-10.48,2.287-3.692,0-7.869,0.127-10.81-2.287-2.55-2.094-3.198-5.248-7.296-4.527-1.125,0.198-1.959,0.574-2.589,1.028-0.07,0.391-0.124,0.763-0.164,1.12,0.642-0.51,1.523-0.93,2.753-1.15z" fill="#191919" fill-opacity="0.2" stroke-opacity="0.2"/>
<path d="M15.36,12.64c2.108-0.423,6.285-1.245,14.81-1.245s12.34,0.857,14.46,1.245c0.126,0.023,0.243,0.051,0.356,0.08-0.255-0.603-0.504-1.113-0.738-1.494-0.212-0.078-0.451-0.146-0.725-0.195-1.956-0.358-5.486-1.15-13.37-1.15-7.882,0-11.74,0.76-13.69,1.15-0.256,0.051-0.48,0.119-0.687,0.199-0.224,0.378-0.465,0.885-0.714,1.481,0.1-0.04,0.2-0.06,0.3-0.08z" fill="#FFFFFF" fill-opacity="0.35" stroke-opacity="0.35"/>
<path d="M10.92,27.73c0.374-0.066,0.729-0.1,1.053-0.1,1.844,0,2.712,1.051,3.914,2.506,0.601,0.725,1.28,1.545,2.15,2.26,2.786,2.287,6.491,2.479,9.747,2.479,0.408,0,0.816-0.002,1.22-0.006,0.393-0.004,0.783-0.006,1.167-0.006,0.388,0,0.777,0.002,1.166,0.006,0.395,0.004,0.791,0.006,1.186,0.006,3.247,0,6.649-0.191,9.437-2.479,0.869-0.715,1.55-1.537,2.149-2.262,1.202-1.453,2.07-2.504,3.913-2.504,0.325,0,0.681,0.033,1.055,0.1,1.315,0.23,2.316,0.721,3.007,1.457-0.471-1.18-1.56-2.553-4.143-3.008-4.098-0.721-4.746,2.434-7.296,4.527-2.938,2.414-6.791,2.117-10.48,2.117-3.692,0-7.869,0.297-10.81-2.117-2.55-2.094-3.198-5.248-7.296-4.527-2.581,0.455-3.67,1.826-4.14,3.006,0.684-0.75,1.685-1.24,3-1.47z" fill="#FFFFFF" fill-opacity="0.35" stroke-opacity="0.35"/>
<linearGradient gradientUnits="userSpaceOnUse" id="SVGID_6_" x1="30" x2="30" y1="44.67" y2="40.16">
<stop offset="0" stop-color="#565656"/>
<stop offset="1" stop-color="#212121"/>
</linearGradient>
<path d="M43.28,39.76h-26.56c-1.493,0-2.702,1.209-2.702,2.701v2.162h31.97v-2.162c-0.01-1.49-1.22-2.7-2.71-2.7z" fill="url(#SVGID_6_)"/>
<path d="M43.28,39.76h-26.56c-1.493,0-2.702,1.209-2.702,2.701v0.811c0-1.492,1.209-2.701,2.702-2.701h26.56c1.492,0,2.702,1.209,2.702,2.701v-0.811c0-1.49-1.21-2.7-2.7-2.7z" fill="#1A1A1A"/>
<ellipse cx="12.55" cy="31.72" fill="#191919" fill-opacity="0.2" rx="3.535" ry="3.172" stroke-opacity="0.2" transform="matrix(-0.9635 0.2678 -0.2678 -0.9635 33.1405 58.9116)"/>
<linearGradient gradientUnits="userSpaceOnUse" id="SVGID_7_" x1="9.062" x2="15.88" y1="32.08" y2="30.19">
<stop offset="0" stop-color="#565656"/>
<stop offset="0.489" stop-color="#000000"/>
<stop offset="1" stop-color="#646464"/>
</linearGradient>
<path d="M9.063,32.08c0.47,1.688,2.374,2.631,4.255,2.109,1.882-0.523,3.026-2.314,2.558-4.004-0.47-1.688-2.375-2.631-4.256-2.107-1.883,0.52-3.028,2.31-2.557,4z" fill="url(#SVGID_7_)"/>
<linearGradient gradientUnits="userSpaceOnUse" id="SVGID_8_" x1="12.2" x2="12.2" y1="28.05" y2="32.98">
<stop offset="0" stop-color="#F2F2F2"/>
<stop offset="1" stop-color="#989D9D"/>
</linearGradient>
<path d="M12,32.98c-1.176,0-2.15-0.668-2.427-1.66-0.165-0.592-0.059-1.225,0.299-1.785,0.376-0.588,0.977-1.02,1.693-1.219,0.274-0.076,0.554-0.115,0.83-0.115,1.177,0,2.151,0.668,2.428,1.66,0.349,1.254-0.546,2.602-1.994,3.004-0.27,0.08-0.55,0.12-0.83,0.12z" fill="url(#SVGID_8_)"/>
<ellipse cx="47.4" cy="31.72" fill="#191919" fill-opacity="0.2" rx="3.535" ry="3.172" stroke-opacity="0.2" transform="matrix(0.9635 0.2678 -0.2678 0.9635 10.2266 -11.5377)"/>
<linearGradient gradientUnits="userSpaceOnUse" id="SVGID_9_" x1="44.02" x2="51.04" y1="31.13" y2="31.13">
<stop offset="0" stop-color="#565656"/>
<stop offset="0.489" stop-color="#000000"/>
<stop offset="1" stop-color="#646464"/>
</linearGradient>
<path d="M50.94,32.08c-0.469,1.688-2.374,2.631-4.254,2.109-1.882-0.523-3.027-2.314-2.558-4.004,0.47-1.688,2.375-2.631,4.255-2.107,1.88,0.52,3.02,2.31,2.56,4z" fill="url(#SVGID_9_)"/>
<linearGradient gradientUnits="userSpaceOnUse" id="SVGID_10_" x1="47.8" x2="47.8" y1="28.09" y2="33.05">
<stop offset="0" stop-color="#F2F2F2"/>
<stop offset="1" stop-color="#989D9D"/>
</linearGradient>
<path d="M48,32.98c-0.279,0-0.558-0.039-0.83-0.115-1.448-0.402-2.343-1.75-1.994-3.004,0.276-0.992,1.251-1.66,2.428-1.66,0.277,0,0.557,0.039,0.83,0.115,0.717,0.199,1.318,0.633,1.693,1.219,0.358,0.561,0.464,1.193,0.299,1.785-0.28,0.99-1.26,1.66-2.43,1.66z" fill="url(#SVGID_10_)"/>
<linearGradient gradientUnits="userSpaceOnUse" id="SVGID_11_" x1="30" x2="30" y1="12.81" y2="24.63">
<stop offset="0" stop-color="#4D4D4D"/>
<stop offset="1" stop-color="#000000"/>
</linearGradient>
<path d="M47.27,23.35c-0.226-0.722-2.567-8.243-2.567-8.243s-0.067-0.812-1.081-1.014c-0.992-0.198-5.62-1.284-13.73-1.284-8.106,0-12.52,1.086-13.51,1.284-1.014,0.202-1.081,1.014-1.081,1.014s-2.341,7.521-2.566,8.243c-0.169,0.539,0.473,0.473,0.473,0.473s5.519,0.811,16.6,0.811,16.99-0.811,16.99-0.811,0.65,0.07,0.48-0.47z" fill="url(#SVGID_11_)"/>
<path d="M43.51,14.62l-0.249-0.052c-3.887-0.811-8.385-1.222-13.37-1.222-7.414,0-11.7,0.91-13.1,1.21-0.123,0.025-0.224,0.047-0.304,0.063-0.563,0.112-0.641,0.47-0.649,0.541l-0.009,0.06-0.013,0.043s-0.959,3.078-1.71,5.489l30.53-4.027c-0.271-0.868-0.456-1.462-0.456-1.462l-0.015-0.059-0.006-0.044c0-0.07-0.07-0.43-0.64-0.54z" fill="#FFFFFF" fill-opacity="0.25" stroke-opacity="0.25"/>
<rect fill="none" height="60" width="60"/>
</g>
</svg>
