<?xml version="1.0" encoding="UTF-8"?>
<!DOCTYPE svg PUBLIC "-//W3C//DTD SVG 1.1 Tiny//EN" "http://www.w3.org/Graphics/SVG/1.1/DTD/svg11-tiny.dtd">
<svg baseProfile="tiny" height="20px" version="1.1" viewBox="0 0 20 20" width="20px" x="0px" xmlns="http://www.w3.org/2000/svg" xmlns:xlink="http://www.w3.org/1999/xlink" y="0px">
<rect fill="none" height="20" width="20"/>
<rect fill="none" height="20" width="20"/>
<path d="M15,10c0,2.757-2.244,5-5,5c-2.758,0-5-2.243-5-5V0h10V10z" fill="url(#SVGID_1_)"/>
<path d="M10,14c2.205,0,4-1.795,4-4V0h1v10c0,2.757-2.244,5-5,5c-2.758,0-5-2.243-5-5V0h1v10  C6,12.205,7.793,14,10,14z" fill="#FFFFFF" fill-opacity="0.2" stroke-opacity="0.2"/>
<defs>
<linearGradient gradientTransform="matrix(0 -1 -1 0 -1412 74)" gradientUnits="userSpaceOnUse" id="SVGID_1_" x1="66.5" x2="66.5" y1="-1426.9995" y2="-1417">
<stop offset="0" style="stop-color:#66B8CC"/>
<stop offset="1" style="stop-color:#3F89A9"/>
</linearGradient>
</defs>
</svg>
