<?xml version="1.0" encoding="UTF-8"?>
<!DOCTYPE svg PUBLIC "-//W3C//DTD SVG 1.1 Tiny//EN" "http://www.w3.org/Graphics/SVG/1.1/DTD/svg11-tiny.dtd">
<svg baseProfile="tiny" height="30px" version="1.1" viewBox="0 0 30 30" width="30px" x="0px" xmlns="http://www.w3.org/2000/svg" xmlns:xlink="http://www.w3.org/1999/xlink" y="0px">
<g fill-opacity="0.5" stroke-opacity="0.5">
<rect fill="none" height="30" width="30"/>
</g>
<path d="M21,15c0-3.309-2.691-6-6-6c-1.206,0-2.327,0.361-3.269,0.976l1.21,1.613C13.545,11.223,14.244,11,15,11  c2.206,0,4,1.795,4,4h-2l3,4l3-4H21z"/>
<path d="M15,19c-2.206,0-4-1.794-4-4h2l-3-4l-3,4h2c0,3.309,2.691,6,6,6c1.206,0,2.327-0.36,3.269-0.975l-1.21-1.613  C16.455,18.777,15.756,19,15,19z"/>
<path d="M8.205,19.919c-0.063-0.329-0.366-0.549-0.673-0.484l-2.431,0.519c-0.007,0.004-0.011,0.008-0.017,0.014  c0.001-0.001-0.001-0.01-0.001-0.01c-0.498-1.825-0.629-3.556-0.63-5.283c0-1.66,0.467-3.848,0.76-4.748l0.003,0.003  c0.001-0.002-0.003-0.005-0.002-0.006l1.861,0.456c0.269,0.066,0.542-0.097,0.656-0.369l1.693-6.137  C9.514,3.556,9.347,3.232,9.05,3.155c0,0-0.276-0.053-1.019-0.128L8.027,3.024C7.648,2.986,7.619,3,7.201,3.016  c-1.252,0.055-2.21,0.527-2.21,0.527C4.613,3.717,3.619,4.576,2.793,6.075C1.965,7.572,0.997,11.86,1,15.225  s0.865,7.081,1.324,8.074c0.727,1.568,2.054,2.781,2.526,3.05c0,0,0.37,0.182,0.962,0.345c0.005,0.001,0.014,0.004,0.021,0.007  c0.058,0.017,0.114,0.03,0.177,0.046l0.004-0.002c0.306,0.074,0.65,0.142,1.032,0.177c0.448,0.039,0.528,0.098,0.929,0.073  c0.001-0.001,0.001-0.001,0.001-0.001c0.742-0.048,1.009-0.103,1.009-0.103c0.308-0.063,0.504-0.383,0.442-0.711L8.205,19.919z"/>
<path d="M27.207,6.075c-0.826-1.499-1.82-2.358-2.198-2.532c0,0-0.958-0.473-2.21-0.527C22.381,3,22.352,2.986,21.973,3.024  l-0.004,0.003c-0.742,0.075-1.019,0.128-1.019,0.128c-0.297,0.077-0.464,0.4-0.376,0.718l1.693,6.137  c0.114,0.272,0.388,0.436,0.656,0.369l1.861-0.456c0.001,0.001-0.003,0.004-0.002,0.006l0.003-0.003  c0.293,0.9,0.76,3.088,0.76,4.748c-0.001,1.728-0.132,3.458-0.63,5.283c0,0-0.002,0.009-0.001,0.01  c-0.006-0.006-0.01-0.01-0.017-0.014l-2.431-0.519c-0.307-0.064-0.609,0.155-0.673,0.484l-1.223,6.261  c-0.062,0.328,0.135,0.648,0.442,0.711c0,0,0.267,0.055,1.009,0.103c0,0,0,0,0.001,0.001c0.4,0.024,0.48-0.034,0.929-0.073  c0.382-0.035,0.727-0.103,1.032-0.177l0.004,0.002c0.063-0.016,0.119-0.029,0.177-0.046c0.008-0.003,0.017-0.006,0.021-0.007  c0.592-0.163,0.962-0.345,0.962-0.345c0.473-0.269,1.8-1.481,2.526-3.05c0.459-0.993,1.321-4.71,1.324-8.074  S28.035,7.572,27.207,6.075z"/>
</svg>
