<?xml version="1.0" encoding="UTF-8"?>
<!DOCTYPE svg PUBLIC "-//W3C//DTD SVG 1.1 Tiny//EN" "http://www.w3.org/Graphics/SVG/1.1/DTD/svg11-tiny.dtd">
<svg baseProfile="tiny" height="30px" version="1.1" viewBox="0 0 30 30" width="30px" x="0px" xmlns="http://www.w3.org/2000/svg" xmlns:xlink="http://www.w3.org/1999/xlink" y="0px">
<rect fill="none" height="30" width="30"/>
<path d="M25.799,6.65L20.85,1.701c-1.172-1.172-3.071-1.172-4.243,0L11.26,7.049l3.545,3.545c0.514,0.076,1.009,0.303,1.404,0.697  c0.395,0.396,0.623,0.891,0.697,1.404l3.545,3.547l5.348-5.348C26.971,9.723,26.971,7.822,25.799,6.65z"/>
<path d="M16.767,13.971c-0.122,0.313-0.306,0.604-0.558,0.855c-0.977,0.977-2.559,0.977-3.535,0c-0.977-0.975-0.977-2.559,0-3.535  c0.252-0.252,0.544-0.436,0.855-0.557L9.138,6.342l-2.12,2.121l1.414,1.414L3.879,14.43c-1.172,1.172-1.172,3.07,0,4.242  l4.949,4.949c1.172,1.172,3.071,1.172,4.243,0l4.552-4.551l1.414,1.414l2.121-2.121L16.767,13.971z"/>
<path d="M18.997,27H15v-3.893l-1.222,1.221c-0.5,0.5-1.114,0.836-1.778,1.016V27H7.981C6.948,27,6.107,27.785,6,28.787V30h15v-1  C21,27.896,20.104,27,18.997,27z"/>
</svg>
