<?xml version="1.0" encoding="UTF-8"?>
<!DOCTYPE svg PUBLIC "-//W3C//DTD SVG 1.1 Tiny//EN" "http://www.w3.org/Graphics/SVG/1.1/DTD/svg11-tiny.dtd">
<svg baseProfile="tiny" height="30px" version="1.1" viewBox="-1 -1 30 30" width="30px" x="0px" xmlns="http://www.w3.org/2000/svg" xmlns:xlink="http://www.w3.org/1999/xlink" y="0px">
<path d="M21,5H2C0.895,5,0,5.895,0,7v19c0,1.104,0.895,2,2,2h19c1.104,0,2-0.896,2-2V7C23,5.895,22.104,5,21,5z M12.75,16.256  l-3-0.554c0,2.007,0,6.882,0,6.949c0,1.25-1.537,2.265-3.125,2.265S3.75,23.901,3.75,22.651s1.287-2.265,2.875-2.265  c0.399,0,0.779,0.064,1.125,0.18v-8.65l0,0l5,0.923V16.256z M13.944,16.959c1.515-1.627,1.454-4.08-0.22-5.623  c-0.027-0.023-0.055-0.045-0.083-0.068l1.505-1.127c2.319,2.195,2.424,5.646,0.309,7.949L13.944,16.959z M17.806,19.854  l-1.499-1.123c2.397-2.723,2.344-6.672-0.146-9.352l1.494-1.121C20.724,11.59,20.777,16.48,17.806,19.854z"/>
<path d="M26,0H7C5.895,0,5,0.895,5,2v1h20v17v3h1c1.104,0,2-0.896,2-2V2C28,0.895,27.104,0,26,0z"/>
</svg>
