<?xml version="1.0" encoding="UTF-8"?>
<!DOCTYPE svg PUBLIC "-//W3C//DTD SVG 1.1 Tiny//EN" "http://www.w3.org/Graphics/SVG/1.1/DTD/svg11-tiny.dtd">
<svg baseProfile="tiny" height="30px" version="1.1" viewBox="0 0 30 30" width="30px" x="0px" xmlns="http://www.w3.org/2000/svg" xmlns:xlink="http://www.w3.org/1999/xlink" y="0px">
<path d="M15,7c-2.757,0-5,2.243-5,5s2.243,5,5,5s5-2.243,5-5S17.757,7,15,7z M15,15c-1.654,0-3-1.346-3-3s1.346-3,3-3s3,1.346,3,3  S16.654,15,15,15z"/>
<path d="M25,3H11H6H5C3.896,3,3,3.896,3,5v14c0,1.104,0.896,2,2,2h20c1.104,0,2-0.896,2-2V5C27,3.896,26.104,3,25,3z M15,19  c-3.866,0-7-3.135-7-7s3.134-7,7-7s7,3.135,7,7S18.866,19,15,19z M25,7h-3V5h3V7z"/>
<path d="M11,1c0-0.553-0.448-1-1-1H7C6.448,0,6,0.447,6,1v1h5V1z"/>
<polygon points="3,22 1,22 1,29 11,29 11,27.086 3,27.086 "/>
<polygon points="27,22 27,27.086 19,27.086 19,29 29,29 29,22 "/>
<g fill-opacity="0.5" stroke-opacity="0.5">
<rect fill="none" height="30" width="30"/>
</g>
</svg>
