<?xml version="1.0" encoding="UTF-8"?>
<!DOCTYPE svg PUBLIC "-//W3C//DTD SVG 1.1 Tiny//EN" "http://www.w3.org/Graphics/SVG/1.1/DTD/svg11-tiny.dtd">
<svg baseProfile="tiny" height="30px" version="1.1" viewBox="0 0 30 30" width="30px" x="0px" xmlns="http://www.w3.org/2000/svg" xmlns:xlink="http://www.w3.org/1999/xlink" y="0px">
<g>
<rect fill="none" height="30" width="30"/>
</g>
<path d="M15,19c0-0.49,0.102-0.955,0.264-1.39c-0.496-0.364-0.865-0.9-0.865-1.702v-0.429c0-0.187,0.093-0.364,0.245-0.478  C16.652,13.566,18,10.619,18,7.659C18,3.434,15.309,0,12,0S6,3.434,6,7.659c0,2.96,1.348,5.907,3.352,7.343  c0.157,0.113,0.245,0.291,0.245,0.478v0.429c0,1.695-1.636,2.33-2.999,2.359C0.673,18.85,0.024,25.664,0,26h15V19z"/>
<path d="M28,17h-9c-1.104,0-2,0.896-2,2v9c0,1.104,0.896,2,2,2h9c1.104,0,2-0.896,2-2v-9C30,17.896,29.104,17,28,17z M19.807,28.555  c-0.752,0-1.361-0.608-1.361-1.359c0-0.75,0.609-1.36,1.361-1.36s1.363,0.61,1.363,1.36C21.17,27.946,20.559,28.555,19.807,28.555z   M25.102,28.555H23.17c0.003-0.08,0.013-0.159,0.013-0.241c0-2.48-2.022-4.5-4.507-4.5c-0.078,0-0.154,0.008-0.23,0.012v-1.928  c0.076-0.002,0.152-0.011,0.23-0.011c3.549,0,6.438,2.883,6.438,6.427C25.113,28.396,25.105,28.475,25.102,28.555z M28.543,28.555  H26.61c0.003-0.082,0.013-0.164,0.013-0.245c0-4.377-3.564-7.936-7.947-7.936c-0.078,0-0.154,0.009-0.23,0.011v-1.928  c0.078-0.002,0.152-0.012,0.23-0.012c5.448,0,9.88,4.425,9.88,9.864C28.556,28.391,28.544,28.473,28.543,28.555z"/>
</svg>
