<?xml version="1.0" encoding="UTF-8"?>
<!DOCTYPE svg PUBLIC "-//W3C//DTD SVG 1.1 Tiny//EN" "http://www.w3.org/Graphics/SVG/1.1/DTD/svg11-tiny.dtd">
<svg baseProfile="tiny" height="84px" version="1.1" viewBox="0 0 84 84" width="84px" x="0px" xmlns="http://www.w3.org/2000/svg" xmlns:xlink="http://www.w3.org/1999/xlink" y="0px">
<g>
<path d="M15.036,21.192v-7.106h18.484V8.085h17.285v6.001h18.158v7.106H15.036z M47.769,14.086v-2.962H36.556v2.962   H47.769z" fill="#3C3C3C"/>
<path d="M50.306,8.585v6.001h18.158v6.106H15.536v-6.106h18.484V8.585H50.306 M36.056,14.586h12.213v-3.962H36.056   V14.586 M51.306,7.585h-1H34.021h-1v1v5.001H15.536h-1v1v6.106v1h1h52.928h1v-1v-6.106v-1h-1H51.306V8.585V7.585L51.306,7.585z    M37.056,11.624h10.213v1.962H37.056V11.624L37.056,11.624z" fill="#FFFFFF"/>
</g>
<g>
<path d="M17.071,75.915V24.023h49.857v51.892H17.071z M56.769,68.806V29.095h-5.109v39.711H56.769z M44.552,68.806   V29.095h-5.107v39.711H44.552z M32.339,68.806V29.095h-5.107v39.711H32.339z" fill="#3C3C3C"/>
<path d="M66.429,24.523v50.892H17.571V24.523H66.429 M51.159,69.306h6.109V28.595h-6.109V69.306 M38.944,69.306   h6.107V28.595h-6.107V69.306 M26.731,69.306h6.107V28.595h-6.107V69.306 M67.429,23.523h-1H17.571h-1v1v50.892v1h1h48.857h1v-1   V24.523V23.523L67.429,23.523z M52.159,29.595h4.109v38.711h-4.109V29.595L52.159,29.595z M39.944,29.595h4.107v38.711h-4.107   V29.595L39.944,29.595z M27.731,29.595h4.107v38.711h-4.107V29.595L27.731,29.595z" fill="#FFFFFF"/>
</g>
<rect fill="none" height="84" width="84"/>
</svg>
