<?xml version="1.0" encoding="UTF-8"?>
<!DOCTYPE svg PUBLIC "-//W3C//DTD SVG 1.1 Tiny//EN" "http://www.w3.org/Graphics/SVG/1.1/DTD/svg11-tiny.dtd">
<svg baseProfile="tiny" height="16px" version="1.1" viewBox="0 0 16 16" width="16px" x="0px" xmlns="http://www.w3.org/2000/svg" xmlns:xlink="http://www.w3.org/1999/xlink" y="0px">
<rect fill="none" height="16" width="16"/>
<path d="M10.29,13.12l-1.668-6.652c0.732-0.26,1.258-0.938,1.258-1.756,0-1.041-0.842-1.883-1.881-1.883-1.04,0-1.883,0.841-1.883,1.883,0,0.817,0.525,1.494,1.254,1.756l-1.661,6.651h-2.42v1.88h9.41v-1.881h-2.413z"/>
<path d="M1.621,4.713c0,2.103,1.152,3.656,1.188,3.708,0.189-0.128,0.511-0.35,0.702-0.478-0.038-0.049-1.046-1.478-1.046-3.23,0-1.896,1.008-3.179,1.046-3.233-0.192-0.13-0.511-0.352-0.698-0.48-0.038,0.053-1.192,1.672-1.192,3.713z"/>
<path d="M3.867,4.713c0,1.398,0.761,2.39,0.797,2.44,0.19-0.127,0.512-0.35,0.702-0.478-0.041-0.054-0.652-0.973-0.652-1.962,0-1.101,0.611-1.913,0.651-1.964-0.189-0.128-0.513-0.349-0.701-0.482-0.036,0.058-0.797,1.02-0.797,2.446z"/>
<path d="M14.38,4.71c0-2.104-1.154-3.657-1.191-3.71-0.19,0.128-0.51,0.35-0.7,0.478,0.033,0.049,1.043,1.48,1.043,3.232,0,1.895-1.01,3.178-1.043,3.231,0.188,0.131,0.51,0.353,0.697,0.481,0.03-0.049,1.19-1.671,1.19-3.712z"/>
<path d="M12.13,4.71c0-1.399-0.761-2.391-0.798-2.442-0.187,0.127-0.511,0.35-0.702,0.479,0.041,0.057,0.654,0.977,0.654,1.963,0,1.101-0.613,1.912-0.652,1.963,0.189,0.127,0.51,0.349,0.699,0.481,0.04-0.055,0.8-1.02,0.8-2.444z"/>
</svg>
