<?xml version="1.0" encoding="UTF-8"?>
<!DOCTYPE svg PUBLIC "-//W3C//DTD SVG 1.1 Tiny//EN" "http://www.w3.org/Graphics/SVG/1.1/DTD/svg11-tiny.dtd">
<svg baseProfile="tiny" height="60" viewBox="0 0 60 60" width="60" xmlns="http://www.w3.org/2000/svg" xmlns:xlink="http://www.w3.org/1999/xlink">
<g>
<rect fill="none" height="60" width="60"/>
<g>
<radialGradient cx="-1374.2305" cy="2708.6123" gradientTransform="matrix(0 1 1 0 -2678.1238 1416.3748)" gradientUnits="userSpaceOnUse" id="SVGID_1_" r="36.2612">
<stop offset="0" style="stop-color:#C0A26F"/>
<stop offset="0.297" style="stop-color:#C0A26F"/>
<stop offset="0.6667" style="stop-color:#954749"/>
<stop offset="0.7939" style="stop-color:#BE8A6B"/>
<stop offset="1" style="stop-color:#BE8A6B"/>
</radialGradient>
<path d="M17.884,35.418c0.413-0.078,0.579-0.318,0.603-0.895c0.027-0.721,0.29-3.172,0.431-3.764   c0.124-0.521,0.342-0.805,0.941-0.98c0.75-0.22,3.188-1.037,10.143-1.038c6.954,0,9.393,0.807,10.141,1.038   c0.651,0.201,0.777,0.389,0.941,0.98c0.162,0.586,0.402,3.043,0.431,3.764c0.024,0.576,0.16,0.82,0.577,0.883   c0.731,0.113,13.291,2.238,14.601,2.502c0.794,0.16,1.237,0.045,1.292-0.705c0.231-3.012-2.009-7.641-3.005-9.067   c-0.887-1.274-1.687-2.667-3.82-3.557c-2.028-0.845-12.133-2.548-21.158-2.548c-9.026-0.001-19.132,1.704-21.159,2.548   c-2.133,0.889-2.935,2.282-3.82,3.555c-0.995,1.429-3.237,6.055-3.006,9.069c0.058,0.748,0.5,0.863,1.292,0.703   C4.62,37.645,17.169,35.549,17.884,35.418z" fill="url(#SVGID_1_)"/>
<linearGradient gradientTransform="matrix(0 1 1 0 -2678.1238 1416.3748)" gradientUnits="userSpaceOnUse" id="SVGID_2_" x1="-1383.7373" x2="-1383.3947" y1="2721.2969" y2="2718.4587">
<stop offset="0" style="stop-color:#905A46"/>
<stop offset="1" style="stop-color:#6B2E36"/>
</linearGradient>
<path d="M40.145,29.779c0.65,0.202,0.775,0.39,0.94,0.981c0.162,0.584,0.401,3.043,0.431,3.762   c0.024,0.578,0.16,0.82,0.576,0.885c0.046,0.008,0.062,0.01,0.063,0.01c0.244,0.039,0.993,0.164,2.039,0.342   c-0.026-0.258-0.37-3.525-1.036-4.357C41.938,29.877,40.145,29.779,40.145,29.779z" fill="url(#SVGID_2_)"/>
<linearGradient gradientTransform="matrix(0 1 -1 0 -3579.3215 1416.3782)" gradientUnits="userSpaceOnUse" id="SVGID_3_" x1="-1383.7422" x2="-1383.3992" y1="-3596.1938" y2="-3599.0347">
<stop offset="0" style="stop-color:#905A46"/>
<stop offset="1" style="stop-color:#6B2E36"/>
</linearGradient>
<path d="M19.841,29.779c-0.654,0.203-0.778,0.39-0.942,0.981c-0.163,0.586-0.404,3.045-0.433,3.766   c-0.021,0.574-0.158,0.818-0.574,0.883c-0.047,0.008-0.061,0.01-0.061,0.01c-0.245,0.039-0.994,0.164-2.041,0.338   c0.028-0.254,0.371-3.523,1.036-4.355C18.043,29.876,19.841,29.779,19.841,29.779z" fill="url(#SVGID_3_)"/>
<linearGradient gradientTransform="matrix(0.7071 0.7071 0.7071 -0.7071 51.2805 -77.5527)" gradientUnits="userSpaceOnUse" id="SVGID_4_" x1="78.5283" x2="43.332" y1="-72.9224" y2="-108.1187">
<stop offset="0" style="stop-color:#D3C59A"/>
<stop offset="1" style="stop-color:#D0BA98"/>
</linearGradient>
<path d="M5.021,28.75c0.887-1.275,1.688-2.668,3.819-3.555   c2.029-0.846,12.134-2.55,21.16-2.549c9.027-0.001,19.13,1.703,21.161,2.549c2.131,0.888,2.933,2.28,3.819,3.554   c0.912,1.311,2.875,5.32,3.009,8.3c0.146-3.016-2.031-7.511-3.009-8.915c-0.888-1.274-1.688-2.666-3.82-3.556   c-2.028-0.845-12.134-2.548-21.158-2.549c-9.027,0.001-19.133,1.706-21.16,2.55c-2.133,0.889-2.935,2.282-3.82,3.555   c-0.979,1.404-3.158,5.899-3.009,8.915C2.146,34.068,4.108,30.06,5.021,28.75z" fill="url(#SVGID_4_)" fill-opacity="0.5" stroke-opacity="0.5"/>
<linearGradient gradientTransform="matrix(0.7071 0.7071 0.7071 -0.7071 51.2805 -77.5527)" gradientUnits="userSpaceOnUse" id="SVGID_5_" x1="82.8936" x2="42.849" y1="-73.0874" y2="-113.132">
<stop offset="0" style="stop-color:#D3C59A"/>
<stop offset="1" style="stop-color:#D0BA98"/>
</linearGradient>
<path d="M17.884,35.418c0.413-0.078,0.579-0.318,0.603-0.895   c0.027-0.721,0.29-3.172,0.431-3.764c0.124-0.521,0.342-0.805,0.941-0.98c0.75-0.22,3.188-1.037,10.143-1.038   c6.954,0,9.393,0.807,10.141,1.038c0.651,0.201,0.777,0.389,0.941,0.98c0.162,0.586,0.402,3.043,0.431,3.764   c0.024,0.576,0.16,0.82,0.577,0.883c0.731,0.113,13.291,2.238,14.601,2.502c0.794,0.16,1.237,0.045,1.292-0.705   c0.027-0.354,0.018-0.73-0.017-1.119c-0.094,0.643-0.526,0.748-1.276,0.594c-1.311-0.262-13.869-2.385-14.6-2.5   c-0.418-0.064-0.553-0.307-0.576-0.883c-0.029-0.719-0.27-3.177-0.433-3.765c-0.163-0.59-0.287-0.777-0.941-0.979   c-0.746-0.229-3.188-1.039-10.14-1.037c-6.954,0-9.393,0.817-10.143,1.037c-0.599,0.176-0.816,0.459-0.94,0.981   c-0.141,0.59-0.403,3.042-0.433,3.763c-0.022,0.576-0.189,0.816-0.603,0.893C17.168,34.32,4.62,36.414,3.309,36.68   c-0.751,0.15-1.183,0.049-1.275-0.596c-0.036,0.389-0.044,0.766-0.018,1.119c0.058,0.748,0.5,0.861,1.292,0.703   C4.62,37.645,17.169,35.549,17.884,35.418z" fill="url(#SVGID_5_)" fill-opacity="0.5" stroke-opacity="0.5"/>
<linearGradient gradientTransform="matrix(0 1 1 0 -2702.5007 1379.2039)" gradientUnits="userSpaceOnUse" id="SVGID_6_" x1="-1353.1973" x2="-1353.1973" y1="2756.7813" y2="2707.613">
<stop offset="0" style="stop-color:#885F4A"/>
<stop offset="0.5" style="stop-color:#4F2430"/>
<stop offset="1" style="stop-color:#885F4A"/>
</linearGradient>
<path d="M6.355,27.326c2.275-0.843,14.095-2.529,23.646-2.53   c9.552,0,21.371,1.687,23.646,2.53c0.431,0.161,0.804,0.343,1.144,0.531c-0.233-0.341-0.472-0.685-0.733-1.024   c-0.069-0.028-0.127-0.056-0.196-0.082c-2.309-0.856-14.245-2.568-23.858-2.568c-9.616,0-21.553,1.71-23.862,2.566   c-0.07,0.028-0.128,0.058-0.198,0.085c-0.26,0.339-0.5,0.685-0.733,1.023C5.554,27.667,5.924,27.487,6.355,27.326z" fill="url(#SVGID_6_)" fill-opacity="0.5" stroke-opacity="0.5"/>
</g>
</g>
</svg>
