<?xml version="1.0" encoding="UTF-8"?>
<!DOCTYPE svg PUBLIC "-//W3C//DTD SVG 1.1 Tiny//EN" "http://www.w3.org/Graphics/SVG/1.1/DTD/svg11-tiny.dtd">
<svg baseProfile="tiny" height="30" viewBox="0 0 30 30" width="30" xmlns="http://www.w3.org/2000/svg" xmlns:xlink="http://www.w3.org/1999/xlink">
<g>
<rect fill="none" height="30" width="30"/>
<path d="M15.591,29c-0.845,0-1.65-0.229-2.338-0.659  c-0.373-0.132-0.747-0.308-1.116-0.522H9.091c-2.506,0-4.545-2.039-4.545-4.545v-0.377c-0.774-0.248-1.49-0.752-2.076-1.477  l-0.092-0.13c-0.146-0.187-0.309-0.417-0.453-0.671c-0.041-0.07-0.077-0.148-0.112-0.227L1.75,20.264  c-0.091-0.181-0.181-0.359-0.256-0.556c-0.049-0.127-0.089-0.267-0.128-0.403L1.29,19.057c-0.037-0.113-0.073-0.227-0.101-0.347  c-0.081-0.358-0.136-0.724-0.165-1.085c-0.028-0.354-0.031-0.715-0.008-1.074c0.007-0.119,0.024-0.234,0.042-0.35l0.029-0.221  c0.018-0.15,0.036-0.301,0.067-0.443c0.038-0.178,0.089-0.346,0.143-0.515l0.05-0.167c0.024-0.086,0.049-0.17,0.079-0.251  c0.091-0.243,0.202-0.466,0.319-0.687c0.026-0.057,0.051-0.107,0.079-0.154c0.136-0.238,0.298-0.471,0.492-0.703  c0.34-0.403,0.707-0.719,1.103-0.949C3.928,5.832,8.905,1,15,1c6.096,0,11.072,4.832,11.581,11.111  c0.394,0.229,0.757,0.537,1.083,0.925c0.213,0.257,0.375,0.489,0.516,0.733l0.072,0.143c0.119,0.227,0.23,0.449,0.322,0.693  c0.029,0.08,0.055,0.164,0.078,0.25l0.051,0.167c0.053,0.169,0.104,0.337,0.143,0.517c0.03,0.143,0.049,0.291,0.066,0.441  l0.029,0.221c0.019,0.115,0.035,0.23,0.043,0.352c0.021,0.357,0.02,0.721-0.01,1.074c-0.027,0.359-0.084,0.725-0.164,1.08  c-0.027,0.124-0.064,0.242-0.104,0.359l-0.067,0.229c-0.039,0.143-0.08,0.283-0.134,0.416c-0.073,0.195-0.165,0.377-0.257,0.557  l-0.063,0.127c-0.035,0.078-0.069,0.154-0.11,0.229c-0.146,0.252-0.308,0.48-0.478,0.699l-0.074,0.105  c-0.838,1.037-1.933,1.622-3.082,1.649c0,0-0.172,0.011-0.217,0.011c-0.733-0.039-1.351-0.279-1.834-0.713  c-0.498,1.057-1.043,2.051-1.623,2.969l-0.047,0.106l-0.08,0.116c-0.186,0.246-0.391,0.49-0.604,0.729  c-0.201,0.218-0.341,0.358-0.483,0.496l-0.105,0.095c-0.133,0.118-0.24,0.213-0.348,0.301C18.43,28.295,17.078,29,15.591,29  L15.591,29z" fill-opacity="0.6" stroke-opacity="0.6"/>
<radialGradient cx="509.0391" cy="887.6172" gradientTransform="matrix(0.9352 0 0 0.9448 -465.1303 -825.3632)" gradientUnits="userSpaceOnUse" id="SVGID_1_" r="18.857">
<stop offset="0" style="stop-color:#F4EDE4"/>
<stop offset="0.5091" style="stop-color:#E8D9CA"/>
<stop offset="0.7636" style="stop-color:#DDC4B0"/>
<stop offset="1" style="stop-color:#BF9C89"/>
</radialGradient>
<path d="M23.583,16.563c-0.045-0.021-0.093-0.024-0.14-0.039V16.52c-0.008,0-0.016-0.002-0.025-0.004  c-0.066-0.018-0.135-0.033-0.207-0.037c-8.628-1.521-12.587-6.369-12.886-5.083c-0.237,1.021-2.656,3.228-3.923,4.332  c0.01,0.047,0.017,0.094,0.026,0.142c0,0,0.046,0.228,0.142,0.612c-0.101,0.01-0.2,0.028-0.295,0.072  c-0.806,0.344-1.059,1.686-0.564,2.991c0.495,1.312,1.548,2.093,2.353,1.749c0.051-0.021,0.094-0.061,0.138-0.087  c0.47,1.065,1.044,2.212,1.749,3.358c1.18,1.422,2.988,3.09,4.984,3.09c2.415,0,3.894-1.34,4.909-2.688  c0.025-0.057,0.053-0.11,0.08-0.155c0.754-1.192,1.363-2.391,1.859-3.504c0.787,0.276,1.801-0.466,2.303-1.726  C24.607,18.277,24.381,16.926,23.583,16.563z" fill="url(#SVGID_1_)"/>
<path d="M19.673,25.178c-0.265-1.736-1.983-3.087-4.082-3.087  c-1.524,0-2.844,0.718-3.561,1.772H9.556c0.133,0.234,0.25,0.466,0.394,0.701c1.18,1.422,2.988,3.09,4.984,3.09  C17.221,27.654,18.663,26.452,19.673,25.178z" fill-opacity="0.2" stroke-opacity="0.2"/>
<linearGradient gradientTransform="matrix(1 0 0 1 -578.9609 -812.0391)" gradientUnits="userSpaceOnUse" id="SVGID_2_" x1="593.8262" x2="593.8262" y1="816.5674" y2="827.6968">
<stop offset="0" style="stop-color:#725B53"/>
<stop offset="0.3758" style="stop-color:#451F1E"/>
<stop offset="1" style="stop-color:#261013"/>
</linearGradient>
<path d="M14.691,4.363c-2.99,0-4.43,1.381-5.541,2.821C7.344,7.467,4.48,9.146,6.503,16.5  c1.267-1.102,3.585-4.086,3.822-5.106c0.302-1.296,4.328,3.652,13.12,5.125c0.103-0.41,0.15-0.653,0.15-0.653  C24.977,9.587,21.973,4.609,14.691,4.363z" fill="url(#SVGID_2_)"/>
<linearGradient gradientTransform="matrix(1 0 0 1 -578.9609 -812.0391)" gradientUnits="userSpaceOnUse" id="SVGID_3_" x1="593.9609" x2="593.9609" y1="825.9395" y2="814.3264">
<stop offset="0" style="stop-color:#848586"/>
<stop offset="0.4727" style="stop-color:#BFC1C1"/>
<stop offset="1" style="stop-color:#E6E9E8"/>
</linearGradient>
<path d="M6.389,13.818c-0.015-0.219-0.031-0.434-0.031-0.656c0-5.068,3.876-9.191,8.642-9.191  c4.766,0,8.643,4.123,8.643,9.191c0,0.223-0.018,0.438-0.031,0.656h1.994c0.014-0.219,0.031-0.434,0.031-0.656  C25.637,6.996,20.875,2,15,2S4.364,6.996,4.364,13.162c0,0.223,0.02,0.438,0.032,0.656H6.389z" fill="url(#SVGID_3_)"/>
<linearGradient gradientTransform="matrix(1 0 0 1 -578.9609 -812.0391)" gradientUnits="userSpaceOnUse" id="SVGID_4_" x1="588.6416" x2="588.6416" y1="838.748" y2="832.9103">
<stop offset="0" style="stop-color:#969696"/>
<stop offset="1" style="stop-color:#464646"/>
</linearGradient>
<path d="M13.818,25.045H9.091c-0.978,0-1.772-0.795-1.772-1.771V20.91H5.545v2.363  c0,1.949,1.596,3.545,3.545,3.545h4.728V25.045z" fill="url(#SVGID_4_)"/>
<linearGradient gradientTransform="matrix(1 0 0 1 -578.9609 -812.0391)" gradientUnits="userSpaceOnUse" id="SVGID_5_" x1="588.6426" x2="588.6426" y1="833.2441" y2="837.6084">
<stop offset="0" style="stop-color:#848586"/>
<stop offset="0.4727" style="stop-color:#BFC1C1"/>
<stop offset="1" style="stop-color:#E6E9E8"/>
</linearGradient>
<path d="M7.318,23.273V22.09v-1.182H5.545v1.182c0,1.95,1.596,3.547,3.545,3.547h4.728v-0.593H9.091  C8.113,25.045,7.318,24.25,7.318,23.273z" fill="url(#SVGID_5_)"/>
<path d="M25.604,13.816C25.277,7.959,20.663,3.313,15,3.313S4.722,7.959,4.396,13.816  c0,0,0,0,0,0.002H6.39c-0.015-0.219-0.031-0.434-0.031-0.656c0-5.068,3.876-9.191,8.642-9.191c4.767,0,8.644,4.123,8.644,9.191  c0,0.223-0.019,0.438-0.031,0.656h1.992C25.604,13.816,25.604,13.816,25.604,13.816z" fill-opacity="0.2" stroke-opacity="0.2"/>
<linearGradient gradientTransform="matrix(1 0 0 1 -578.9609 -812.0391)" gradientUnits="userSpaceOnUse" id="SVGID_6_" x1="594.5518" x2="594.5518" y1="835.2559" y2="839.4011">
<stop offset="0" style="stop-color:#6DADC1"/>
<stop offset="1" style="stop-color:#3B518A"/>
</linearGradient>
<ellipse cx="15.591" cy="25.635" fill="url(#SVGID_6_)" rx="2.954" ry="2.365"/>
<path d="M15.591,24.455c1.376,0,2.521,0.754,2.851,1.771  c0.063-0.189,0.104-0.388,0.104-0.594c0-1.305-1.321-2.359-2.954-2.359c-1.632,0-2.955,1.057-2.955,2.359  c0,0.206,0.043,0.402,0.104,0.594C13.07,25.209,14.215,24.455,15.591,24.455z" fill="#FFFFFF" fill-opacity="0.3" stroke-opacity="0.3"/>
<linearGradient gradientTransform="matrix(1 0 0 1 -578.9609 -812.0391)" gradientUnits="userSpaceOnUse" id="SVGID_7_" x1="583.9141" x2="583.9141" y1="824.873" y2="834.1864">
<stop offset="0" style="stop-color:#7A7A7A"/>
<stop offset="1" style="stop-color:#212121"/>
</linearGradient>
<path d="M2.021,17.547c0.207,2.609,1.889,4.645,3.758,4.539c1.867-0.102,2.29-2.248,2.082-4.857  c-0.207-2.606-0.968-4.688-2.837-4.587C3.156,12.742,1.813,14.939,2.021,17.547z" fill="url(#SVGID_7_)"/>
<linearGradient gradientTransform="matrix(1 0 0 1 -578.9609 -812.0391)" gradientUnits="userSpaceOnUse" id="SVGID_8_" x1="583.1758" x2="583.1758" y1="824.9219" y2="834.177">
<stop offset="0" style="stop-color:#6DADC1"/>
<stop offset="1" style="stop-color:#3B518A"/>
</linearGradient>
<path d="M6.432,18.152c0-2.215-0.646-4.167-1.641-5.467c-1.742,0.27-2.969,2.365-2.77,4.861  c0.204,2.565,1.834,4.563,3.666,4.533C6.156,20.954,6.432,19.605,6.432,18.152z" fill="url(#SVGID_8_)"/>
<path d="M2.064,17.828c0.238-1.885,1.303-3.335,2.727-3.555  c0.897,1.174,1.484,2.893,1.595,4.842c0.026-0.316,0.045-0.637,0.045-0.963c0-2.215-0.646-4.167-1.641-5.467  c-1.742,0.27-2.969,2.365-2.77,4.861C2.029,17.645,2.052,17.732,2.064,17.828z" fill="#FFFFFF" fill-opacity="0.3" stroke-opacity="0.3"/>
<linearGradient gradientTransform="matrix(-1 0 0 1 -1461.9609 -812.0391)" gradientUnits="userSpaceOnUse" id="SVGID_9_" x1="-1487.0063" x2="-1487.0063" y1="824.873" y2="834.1864">
<stop offset="0" style="stop-color:#7A7A7A"/>
<stop offset="1" style="stop-color:#212121"/>
</linearGradient>
<path d="M27.979,17.547c-0.207,2.609-1.889,4.645-3.758,4.539c-1.867-0.102-2.289-2.248-2.082-4.857  c0.207-2.606,0.969-4.688,2.838-4.587C26.844,12.742,28.188,14.939,27.979,17.547z" fill="url(#SVGID_9_)"/>
<linearGradient gradientTransform="matrix(-1 0 0 1 -1461.9609 -812.0391)" gradientUnits="userSpaceOnUse" id="SVGID_10_" x1="-1487.7446" x2="-1487.7446" y1="824.9219" y2="834.177">
<stop offset="0" style="stop-color:#6DADC1"/>
<stop offset="1" style="stop-color:#3B518A"/>
</linearGradient>
<path d="M23.568,18.152c0-2.215,0.646-4.167,1.641-5.467c1.742,0.27,2.969,2.365,2.77,4.861  c-0.203,2.565-1.834,4.563-3.666,4.533C23.844,20.954,23.568,19.605,23.568,18.152z" fill="url(#SVGID_10_)"/>
<path d="M27.936,17.828c-0.235-1.885-1.303-3.335-2.727-3.555  c-0.896,1.174-1.484,2.893-1.596,4.842c-0.025-0.316-0.045-0.637-0.045-0.963c0-2.215,0.646-4.167,1.641-5.467  c1.742,0.27,2.969,2.365,2.77,4.861C27.971,17.645,27.947,17.732,27.936,17.828z" fill="#FFFFFF" fill-opacity="0.3" stroke-opacity="0.3"/>
</g>
</svg>
