<?xml version="1.0" encoding="UTF-8"?>
<!DOCTYPE svg PUBLIC "-//W3C//DTD SVG 1.1 Tiny//EN" "http://www.w3.org/Graphics/SVG/1.1/DTD/svg11-tiny.dtd">
<svg baseProfile="tiny" height="60" viewBox="0 0 60 60" width="60" xmlns="http://www.w3.org/2000/svg" xmlns:xlink="http://www.w3.org/1999/xlink">
<g>
<path d="M56.662,4.616H9.241c-0.738,0-1.336,0.598-1.336,1.337v9.357H50.76c0.734,0,1.334,0.598,1.334,1.336v28.043  h4.568c0.738,0,1.336-0.598,1.336-1.336v-37.4C57.998,5.214,57.4,4.616,56.662,4.616z" fill="#F1F2F2"/>
<linearGradient gradientUnits="userSpaceOnUse" id="SVGID_1_" x1="32.9512" x2="32.9512" y1="44.6895" y2="4.6167">
<stop offset="0" style="stop-color:#757575"/>
<stop offset="0.2424" style="stop-color:#000000"/>
<stop offset="0.8606" style="stop-color:#000000"/>
<stop offset="1" style="stop-color:#363636"/>
</linearGradient>
<path d="M56.662,4.616H9.241c-0.738,0-1.336,0.598-1.336,1.337v9.357H50.76c0.734,0,1.334,0.598,1.334,1.336  v23.696c0.117-0.192,0.32-0.329,0.561-0.329h2.672c0.367,0,0.668,0.302,0.668,0.668v1.336c0,0.367-0.301,0.668-0.668,0.668h-2.672  c-0.24,0-0.443-0.136-0.561-0.329v2.333h4.568c0.738,0,1.336-0.598,1.336-1.336v-37.4C57.998,5.214,57.4,4.616,56.662,4.616z   M13.916,8.623c0,0.368-0.3,0.668-0.667,0.668h-2.671c-0.368,0-0.667-0.3-0.667-0.668V7.287c0-0.367,0.3-0.668,0.667-0.668h2.671  c0.366,0,0.667,0.301,0.667,0.668V8.623z M19.928,8.623c0,0.368-0.301,0.668-0.669,0.668h-2.67c-0.366,0-0.668-0.3-0.668-0.668  V7.287c0-0.367,0.299-0.668,0.668-0.668h2.67c0.368,0,0.669,0.301,0.669,0.668V8.623z M25.941,8.623c0,0.368-0.302,0.668-0.67,0.668  h-2.67c-0.369,0-0.668-0.3-0.668-0.668V7.287c0-0.367,0.3-0.668,0.668-0.668h2.67c0.368,0,0.67,0.301,0.67,0.668V8.623z   M31.951,8.623c0,0.368-0.303,0.668-0.67,0.668h-2.67c-0.369,0-0.668-0.3-0.668-0.668V7.287c0-0.367,0.299-0.668,0.668-0.668h2.67  c0.365,0,0.67,0.301,0.67,0.668V8.623z M37.961,8.623c0,0.368-0.301,0.668-0.668,0.668h-2.672c-0.367,0-0.666-0.3-0.666-0.668V7.287  c0-0.367,0.299-0.668,0.666-0.668h2.672c0.367,0,0.668,0.301,0.668,0.668V8.623z M43.973,8.623c0,0.368-0.301,0.668-0.67,0.668  h-2.67c-0.369,0-0.668-0.3-0.668-0.668V7.287c0-0.367,0.299-0.668,0.668-0.668h2.67c0.369,0,0.67,0.301,0.67,0.668V8.623z   M49.982,8.623c0,0.368-0.299,0.668-0.666,0.668h-2.672c-0.367,0-0.67-0.3-0.67-0.668V7.287c0-0.367,0.301-0.668,0.67-0.668h2.672  c0.365,0,0.666,0.301,0.666,0.668V8.623z M55.994,8.623c0,0.368-0.301,0.668-0.668,0.668h-2.672c-0.367,0-0.668-0.3-0.668-0.668  V7.287c0-0.367,0.301-0.668,0.668-0.668h2.672c0.367,0,0.668,0.301,0.668,0.668V8.623z" fill="url(#SVGID_1_)"/>
<path d="M56.662,44.021H52v0.668h4.662c0.738,0,1.336-0.598,1.336-1.336  v-0.668C57.998,43.425,57.4,44.021,56.662,44.021z" fill="#FFFFFF" fill-opacity="0.1" stroke-opacity="0.1"/>
<linearGradient gradientUnits="userSpaceOnUse" id="SVGID_2_" x1="32.9531" x2="32.9531" y1="37.9053" y2="11.1899">
<stop offset="0" style="stop-color:#000000"/>
<stop offset="0.5" style="stop-color:#666666"/>
<stop offset="1" style="stop-color:#000000"/>
</linearGradient>
<path d="M7.906,11.296v4.015H50.76c0.734,0,1.334,0.598,1.334,1.336v21.365H58V11.296H7.906z" fill="url(#SVGID_2_)"/>
<path d="M56.662,4.616H9.241c-0.738,0-1.336,0.598-1.336,1.337V6.62  c0-0.737,0.598-1.336,1.336-1.336h47.421c0.738,0,1.336,0.599,1.336,1.336V5.953C57.998,5.214,57.4,4.616,56.662,4.616z" fill="#FFFFFF" fill-opacity="0.55" stroke-opacity="0.55"/>
<linearGradient gradientUnits="userSpaceOnUse" id="SVGID_3_" x1="32.9521" x2="32.9521" y1="11.2959" y2="38.0122">
<stop offset="0" style="stop-color:#72B9C3"/>
<stop offset="1" style="stop-color:#546F9F"/>
</linearGradient>
<path d="M54.658,11.296H11.246c-0.736,0-1.335,0.601-1.335,1.335v2.68h40.85c0.734,0,1.334,0.598,1.334,1.336  v21.365h2.564c0.736,0,1.336-0.602,1.336-1.337V12.631C55.994,11.896,55.395,11.296,54.658,11.296z" fill="url(#SVGID_3_)"/>
<path d="M55.928,36.335c0.039-0.087,0.066-0.189,0.066-0.327  C55.994,36.124,55.957,36.228,55.928,36.335z" fill="#FFFFFF" fill-opacity="0.5" stroke-opacity="0.5"/>
<path d="M54.658,36.675h-2.564v0.669h2.564  c0.619,0,1.119-0.436,1.27-1.009C55.758,36.712,55.256,36.675,54.658,36.675z" fill="#FFFFFF" fill-opacity="0.5" stroke-opacity="0.5"/>
<linearGradient gradientUnits="userSpaceOnUse" id="SVGID_4_" x1="32.9521" x2="32.9521" y1="38.0117" y2="11.1903">
<stop offset="0" style="stop-color:#000000"/>
<stop offset="1" style="stop-color:#404040"/>
</linearGradient>
<path d="M54.658,11.296H11.246c-0.736,0-1.335,0.601-1.335,1.335v2.68h0.667v-2.68  c0-0.367,0.299-0.668,0.668-0.668h43.413c0.367,0,0.668,0.3,0.668,0.668v24.044c0,0.369-0.301,0.669-0.668,0.669h-2.564v0.668h2.564  c0.736,0,1.336-0.602,1.336-1.337V12.631C55.994,11.896,55.395,11.296,54.658,11.296z" fill="url(#SVGID_4_)"/>
<path d="M53.322,12.631H12.582c-0.74,0-1.336,0.598-1.336,1.336v1.344  H50.76c0.734,0,1.334,0.598,1.334,1.336v2.861l2.564-0.197v-5.344C54.658,13.229,54.059,12.631,53.322,12.631z" fill="#FFFFFF" fill-opacity="0.2" stroke-opacity="0.2"/>
<path d="M50.76,13.975H7.906v1.336H50.76c0.734,0,1.334,0.598,1.334,1.336V44.69h1.336  V16.646C53.43,15.172,52.232,13.975,50.76,13.975z" fill-opacity="0.15" stroke-opacity="0.15"/>
<path d="M50.76,14.643H7.906v0.668H50.76c0.734,0,1.334,0.598,1.334,1.336v28.043h0.668  V16.646C52.762,15.541,51.863,14.643,50.76,14.643z" fill-opacity="0.3" stroke-opacity="0.3"/>
<path d="M50.76,15.311H3.337C2.597,15.311,2,15.908,2,16.646V54.05c0,0.737,0.597,1.334,1.337,1.334h47.419  c0.738,0,1.338-0.597,1.338-1.334V16.646C52.094,15.908,51.494,15.311,50.76,15.311z" fill="#F1F2F2"/>
<path d="M50.98,54.16H2.892v-4.675H50.98V54.16z M50.98,20.765H2.892  V16.09H50.98V20.765z" fill="#FFFFFF" fill-opacity="0.4" stroke-opacity="0.4"/>
<linearGradient gradientTransform="matrix(1 0 0 -1 2194 2165)" gradientUnits="userSpaceOnUse" id="SVGID_5_" x1="-2166.9531" x2="-2166.9531" y1="2149.6895" y2="2109.6162">
<stop offset="0" style="stop-color:#757575"/>
<stop offset="0.2424" style="stop-color:#000000"/>
<stop offset="0.8606" style="stop-color:#000000"/>
<stop offset="1" style="stop-color:#363636"/>
</linearGradient>
<path d="M50.76,15.311H3.337C2.597,15.311,2,15.908,2,16.646V54.05c0,0.737,0.597,1.334,1.337,1.334h47.419  c0.738,0,1.338-0.597,1.338-1.334V16.646C52.094,15.908,51.494,15.311,50.76,15.311z M8.012,52.713c0,0.367-0.302,0.668-0.668,0.668  H4.672c-0.366,0-0.668-0.3-0.668-0.668v-1.336c0-0.366,0.301-0.668,0.668-0.668h2.671c0.367,0,0.668,0.3,0.668,0.668V52.713z   M8.012,19.316c0,0.368-0.302,0.669-0.668,0.669H4.672c-0.366,0-0.668-0.301-0.668-0.669v-1.335c0-0.366,0.301-0.669,0.668-0.669  h2.671c0.367,0,0.668,0.303,0.668,0.669V19.316z M14.022,52.713c0,0.367-0.301,0.668-0.667,0.668h-2.671  c-0.367,0-0.668-0.3-0.668-0.668v-1.336c0-0.366,0.301-0.668,0.668-0.668h2.671c0.366,0,0.667,0.3,0.667,0.668V52.713z   M14.022,19.316c0,0.368-0.301,0.669-0.667,0.669h-2.671c-0.367,0-0.668-0.301-0.668-0.669v-1.335c0-0.366,0.301-0.669,0.668-0.669  h2.671c0.366,0,0.667,0.303,0.667,0.669V19.316z M20.035,52.713c0,0.367-0.302,0.668-0.667,0.668h-2.671  c-0.368,0-0.668-0.3-0.668-0.668v-1.336c0-0.366,0.301-0.668,0.668-0.668h2.671c0.365,0,0.667,0.3,0.667,0.668V52.713z   M20.035,19.316c0,0.368-0.302,0.669-0.667,0.669h-2.671c-0.368,0-0.668-0.301-0.668-0.669v-1.335c0-0.366,0.301-0.669,0.668-0.669  h2.671c0.365,0,0.667,0.303,0.667,0.669V19.316z M26.046,52.713c0,0.367-0.301,0.668-0.671,0.668h-2.669  c-0.367,0-0.667-0.3-0.667-0.668v-1.336c0-0.366,0.3-0.668,0.667-0.668h2.669c0.369,0,0.671,0.3,0.671,0.668V52.713z M26.046,19.316  c0,0.368-0.301,0.669-0.671,0.669h-2.669c-0.367,0-0.667-0.301-0.667-0.669v-1.335c0-0.366,0.3-0.669,0.667-0.669h2.669  c0.369,0,0.671,0.303,0.671,0.669V19.316z M32.057,52.713c0,0.367-0.303,0.668-0.669,0.668h-2.671c-0.365,0-0.666-0.3-0.666-0.668  v-1.336c0-0.366,0.301-0.668,0.666-0.668h2.671c0.366,0,0.669,0.3,0.669,0.668V52.713z M32.057,19.316  c0,0.368-0.303,0.669-0.669,0.669h-2.671c-0.365,0-0.666-0.301-0.666-0.669v-1.335c0-0.366,0.301-0.669,0.666-0.669h2.671  c0.366,0,0.669,0.303,0.669,0.669V19.316z M38.066,52.713c0,0.367-0.299,0.668-0.666,0.668h-2.672c-0.367,0-0.668-0.3-0.668-0.668  v-1.336c0-0.366,0.301-0.668,0.668-0.668H37.4c0.367,0,0.666,0.3,0.666,0.668V52.713z M38.066,19.316  c0,0.368-0.299,0.669-0.666,0.669h-2.672c-0.367,0-0.668-0.301-0.668-0.669v-1.335c0-0.366,0.301-0.669,0.668-0.669H37.4  c0.367,0,0.666,0.303,0.666,0.669V19.316z M44.08,52.713c0,0.367-0.303,0.668-0.67,0.668h-2.67c-0.367,0-0.67-0.3-0.67-0.668v-1.336  c0-0.366,0.301-0.668,0.67-0.668h2.67c0.367,0,0.67,0.3,0.67,0.668V52.713z M44.08,19.316c0,0.368-0.303,0.669-0.67,0.669h-2.67  c-0.367,0-0.67-0.301-0.67-0.669v-1.335c0-0.366,0.301-0.669,0.67-0.669h2.67c0.367,0,0.67,0.303,0.67,0.669V19.316z M50.09,52.713  c0,0.367-0.301,0.668-0.668,0.668H46.75c-0.367,0-0.668-0.3-0.668-0.668v-1.336c0-0.366,0.301-0.668,0.668-0.668h2.672  c0.367,0,0.668,0.3,0.668,0.668V52.713z M50.09,19.316c0,0.368-0.301,0.669-0.668,0.669H46.75c-0.367,0-0.668-0.301-0.668-0.669  v-1.335c0-0.366,0.301-0.669,0.668-0.669h2.672c0.367,0,0.668,0.303,0.668,0.669V19.316z" fill="url(#SVGID_5_)"/>
<path d="M50.76,15.311H3.337C2.597,15.311,2,15.908,2,16.646v0.667  c0-0.737,0.597-1.335,1.337-1.335h47.419c0.738,0,1.338,0.598,1.338,1.335v-0.667C52.094,15.908,51.494,15.311,50.76,15.311z" fill="#FFFFFF" fill-opacity="0.55" stroke-opacity="0.55"/>
<path d="M3.337,55.384h47.419c0.738,0,1.338-0.597,1.338-1.334v-0.67  c0,0.739-0.6,1.336-1.338,1.336H3.337C2.597,54.716,2,54.119,2,53.38v0.67C2.001,54.787,2.597,55.384,3.337,55.384z" fill="#FFFFFF" fill-opacity="0.1" stroke-opacity="0.1"/>
<linearGradient gradientTransform="matrix(1 0 0 -1 2194 2165)" gradientUnits="userSpaceOnUse" id="SVGID_6_" x1="-2166.9526" x2="-2166.9526" y1="2142.9063" y2="2116.1904">
<stop offset="0" style="stop-color:#000000"/>
<stop offset="0.5" style="stop-color:#666666"/>
<stop offset="1" style="stop-color:#000000"/>
</linearGradient>
<rect fill="url(#SVGID_6_)" height="26.716" width="50.093" x="2.001" y="21.988"/>
<linearGradient gradientTransform="matrix(1 0 0 -1 2194 2165)" gradientUnits="userSpaceOnUse" id="SVGID_7_" x1="-2166.9531" x2="-2166.9531" y1="2117.3115" y2="2142.6904">
<stop offset="0" style="stop-color:#98B060"/>
<stop offset="0.8121" style="stop-color:#326644"/>
<stop offset="1" style="stop-color:#4E8146"/>
</linearGradient>
<path d="M50.09,47.369c0,0.734-0.602,1.335-1.336,1.335H5.341c-0.735,0-1.337-0.601-1.337-1.335V23.325  c0-0.735,0.602-1.337,1.337-1.337h43.413c0.734,0,1.336,0.602,1.336,1.337V47.369z" fill="url(#SVGID_7_)"/>
<path d="M48.754,47.369H5.341c-0.735,0-1.337,0.066-1.337-0.669l0,0  c0,0.735,0.602,1.337,1.337,1.337h43.413c0.734,0,1.336-0.602,1.336-1.337l0,0C50.09,47.436,49.488,47.369,48.754,47.369z" fill="#FFFFFF" fill-opacity="0.5" stroke-opacity="0.5"/>
<linearGradient gradientTransform="matrix(1 0 0 -1 2194 2165)" gradientUnits="userSpaceOnUse" id="SVGID_8_" x1="-2166.9531" x2="-2166.9531" y1="2143.0117" y2="2116.1892">
<stop offset="0" style="stop-color:#000000"/>
<stop offset="1" style="stop-color:#404040"/>
</linearGradient>
<path d="M48.754,22.656c0.367,0,0.668,0.302,0.668,0.669v24.044c0,0.369-0.301,0.668-0.668,0.668H5.341  c-0.369,0-0.668-0.299-0.668-0.668V23.325c0-0.369,0.3-0.669,0.668-0.669H48.754 M48.754,21.988H5.341  c-0.735,0-1.337,0.602-1.337,1.337v24.044c0,0.734,0.602,1.335,1.337,1.335h43.413c0.734,0,1.336-0.601,1.336-1.335V23.325  C50.09,22.59,49.488,21.988,48.754,21.988L48.754,21.988z" fill="url(#SVGID_8_)"/>
<path d="M48.754,30.004v-5.343c0-0.736-0.598-1.336-1.338-1.336H6.675  c-0.737,0-1.334,0.6-1.334,1.336v8.683L48.754,30.004z" fill="#FFFFFF" fill-opacity="0.2" stroke-opacity="0.2"/>
<rect fill="none" height="60" width="60"/>
</g>
</svg>
