<?xml version="1.0" encoding="UTF-8"?>
<!DOCTYPE svg PUBLIC "-//W3C//DTD SVG 1.1 Tiny//EN" "http://www.w3.org/Graphics/SVG/1.1/DTD/svg11-tiny.dtd">
<svg baseProfile="tiny" height="30px" version="1.1" viewBox="0 0 30 30" width="30px" x="0px" xmlns="http://www.w3.org/2000/svg" xmlns:xlink="http://www.w3.org/1999/xlink" y="0px">
<g fill-opacity="0.5" stroke-opacity="0.5">
<rect fill="none" height="30" width="30"/>
</g>
<polygon points="19.957,15.808 22,10 14.15,10 "/>
<polygon points="13.567,9.417 16.54,1 11.238,1 9.648,5.5 "/>
<polygon points="7.484,11.63 7,13 8.854,13 "/>
<path d="M13.875,18.021L12.828,21H10c-0.396,0-0.756,0.234-0.916,0.598c-0.159,0.363-0.089,0.785,0.179,1.078l5.5,6  C14.952,28.883,15.22,29,15.5,29s0.548-0.117,0.737-0.324l3.966-4.326L13.875,18.021z"/>
<path d="M27.693,26.372c0.389,0.389,0.41,1.005,0.048,1.368c-0.362,0.362-0.978,0.343-1.366-0.046L2.307,3.625  C1.918,3.236,1.896,2.621,2.26,2.258c0.363-0.363,0.979-0.341,1.367,0.048L27.693,26.372z"/>
</svg>
