<?xml version="1.0" encoding="UTF-8"?>
<!DOCTYPE svg PUBLIC "-//W3C//DTD SVG 1.1 Tiny//EN" "http://www.w3.org/Graphics/SVG/1.1/DTD/svg11-tiny.dtd">
<svg baseProfile="tiny" height="10px" version="1.1" viewBox="0 0 10 10" width="10px" x="0px" xmlns="http://www.w3.org/2000/svg" xmlns:xlink="http://www.w3.org/1999/xlink" y="0px">
<rect fill="none" height="10" width="10"/>
<path d="M0,3c0,3.859,3.14,7,7,7h3V0H0V3z" fill="#14141E" fill-opacity="0.1" stroke-opacity="0.1"/>
<path d="M1,3c0,3.3,2.7,6,6,6h3V0H1V3z" fill="#14141E" fill-opacity="0.2" stroke-opacity="0.2"/>
<path d="M1,2c0,3.3,2.7,6,6,6h3V0H1V2z" fill="url(#SVGID_1_)" fill-opacity="0.9" stroke-opacity="0.9"/>
<path d="M1,0v2c0,3.3,2.7,6,6,6h3V7H7C4.243,7,2,4.757,2,2V0H1z" fill="#FFFFFF" fill-opacity="0.4" stroke-opacity="0.4"/>
<defs>
<linearGradient gradientUnits="userSpaceOnUse" id="SVGID_1_" x1="5.5" x2="5.5" y1="-70.8745" y2="7.9514">
<stop offset="0" style="stop-color:#FFFFFF"/>
<stop offset="0" style="stop-color:#FDFDFE"/>
<stop offset="0.9" style="stop-color:#E6E6F0"/>
<stop offset="1" style="stop-color:#DCDCE6"/>
</linearGradient>
</defs>
</svg>
