<?xml version="1.0" encoding="UTF-8"?>
<!DOCTYPE svg PUBLIC "-//W3C//DTD SVG 1.1 Tiny//EN" "http://www.w3.org/Graphics/SVG/1.1/DTD/svg11-tiny.dtd">
<svg baseProfile="tiny" height="30" viewBox="0 0 30 30" width="30" xmlns="http://www.w3.org/2000/svg" xmlns:xlink="http://www.w3.org/1999/xlink">
<g>
<polygon fill-opacity="0.6" points="0.149,23.029 10.737,16.228 10.737,20.374 20.562,20.374 20.562,14 26,14 26,25.687   10.737,25.687 10.737,29.831 "/>
<linearGradient gradientUnits="userSpaceOnUse" id="SVGID_1_" x1="13.4995" x2="13.4995" y1="2.3745" y2="28.1255">
<stop offset="0" style="stop-color:#C7B17C"/>
<stop offset="1" style="stop-color:#A86F49"/>
</linearGradient>
<polygon fill="url(#SVGID_1_)" points="21.562,15 21.562,21.374 9.737,21.374 9.737,18.059 2,23.029 9.737,28 9.737,24.687   25,24.687 25,15 "/>
<polygon fill-opacity="0.6" points="4,16 4,4.313 19.263,4.313 19.263,0.169 29.851,6.971 19.263,13.772 19.263,9.626 9.438,9.626   9.438,16 "/>
<linearGradient gradientUnits="userSpaceOnUse" id="SVGID_2_" x1="16.5" x2="16.5" y1="2.375" y2="28.125">
<stop offset="0" style="stop-color:#C7B17C"/>
<stop offset="1" style="stop-color:#A86F49"/>
</linearGradient>
<polygon fill="url(#SVGID_2_)" points="8.438,15 8.438,8.626 20.263,8.626 20.263,11.941 28,6.971 20.263,2 20.263,5.313 5,5.313   5,15 "/>
<rect fill="#FFFFFF" fill-opacity="0.4" height="1" stroke-opacity="0.4" width="3.438" x="21.562" y="15"/>
<rect fill="#FFFFFF" fill-opacity="0.4" height="1" stroke-opacity="0.4" width="11.824" x="9.737" y="21.374"/>
<polygon fill="#FFFFFF" fill-opacity="0.4" points="9.737,19.059 9.737,18.059 2,23.029 2.778,23.529 " stroke-opacity="0.4"/>
<polygon fill="#FFFFFF" fill-opacity="0.4" points="28,6.971 20.263,2 20.263,3 27.222,7.471 " stroke-opacity="0.4"/>
<rect fill="#FFFFFF" fill-opacity="0.4" height="1" stroke-opacity="0.4" width="15.263" x="5" y="5.313"/>
<g fill-opacity="0.5" stroke-opacity="0.5">
<rect fill="none" height="30" width="30"/>
</g>
</g>
<g>
<rect fill-opacity="0.6" height="34.27" stroke-opacity="0.6" style="enable-background:new;" transform="matrix(0.7073 -0.707 0.707 0.7073 -6.2126 14.9968)" width="3.169" x="13.42" y="-2.134"/>
<polygon fill="url(#SVGID_1__)" points="26,26.99,3.015,4.005,4.006,3.014,26.99,26"/>
<rect fill="none" height="30" width="30"/>
<defs>
<linearGradient gradientTransform="matrix(0.8824 0 0 -0.8824 -284.8232 -348.3516)" gradientUnits="userSpaceOnUse" id="SVGID_1__" x1="339.8" x2="339.8" y1="-397.3" y2="-425.3">
<stop offset="0" stop-color="#A8835F"/>
<stop offset="0.2606" stop-color="#A86F5F"/>
<stop offset="1" stop-color="#9A5047"/>
</linearGradient>
</defs>
</g>
</svg>
