<?xml version="1.0" encoding="UTF-8"?>
<!DOCTYPE svg PUBLIC "-//W3C//DTD SVG 1.1 Tiny//EN" "http://www.w3.org/Graphics/SVG/1.1/DTD/svg11-tiny.dtd">
<svg baseProfile="tiny" height="60px" version="1.1" viewBox="0 0 60 60" width="60px" x="0px" xmlns="http://www.w3.org/2000/svg" xmlns:xlink="http://www.w3.org/1999/xlink" y="0px">
<rect fill="#FFFFFF" height="60" width="60"/>
<linearGradient gradientUnits="userSpaceOnUse" id="SVGID_1_" x1="55" x2="55" y1="3.2778" y2="9.9743">
<stop offset="0" style="stop-color:#FAFAFF"/>
<stop offset="0.9" style="stop-color:#D7D7DC"/>
<stop offset="0.9" style="stop-color:#CDCDD2"/>
<stop offset="1" style="stop-color:#C3C3C8"/>
</linearGradient>
<rect fill="url(#SVGID_1_)" height="6.667" width="10" x="50" y="3.333"/>
<rect fill="#AAAAAF" height="0.167" width="10" x="50" y="9.833"/>
<rect fill="#FFFFFF" fill-opacity="0.8" height="6.5" width="0.166" x="50" y="3.333"/>
<polygon fill="#FFFFFF" fill-opacity="0.4" points="59.834,3.333 59.834,9.667 50.166,9.667 50.166,9.833 60,9.833 60,3.333 " stroke-opacity="0.4"/>
<linearGradient gradientUnits="userSpaceOnUse" id="SVGID_2_" x1="5" x2="5" y1="3.2778" y2="9.9743">
<stop offset="0" style="stop-color:#FAFAFF"/>
<stop offset="0.9" style="stop-color:#D7D7DC"/>
<stop offset="0.9" style="stop-color:#CDCDD2"/>
<stop offset="1" style="stop-color:#C3C3C8"/>
</linearGradient>
<rect fill="url(#SVGID_2_)" height="6.667" width="10" y="3.333"/>
<rect fill="#AAAAAF" height="0.167" width="10" y="9.833"/>
<polygon fill="#FFFFFF" fill-opacity="0.4" points="0.166,9.667 0.166,3.333 0,3.333 0,9.833 9.834,9.833 9.834,9.667 " stroke-opacity="0.4"/>
<rect fill-opacity="0.2" height="6.5" width="0.166" x="9.834" y="3.333"/>
<linearGradient gradientUnits="userSpaceOnUse" id="SVGID_3_" x1="29.9995" x2="29.9995" y1="3.2778" y2="9.9743">
<stop offset="0" style="stop-color:#FAFAFF"/>
<stop offset="0.9" style="stop-color:#D7D7DC"/>
<stop offset="0.9" style="stop-color:#CDCDD2"/>
<stop offset="1" style="stop-color:#C3C3C8"/>
</linearGradient>
<rect fill="url(#SVGID_3_)" height="6.667" width="40" x="10" y="3.333"/>
<rect fill="#AAAAAF" height="0.167" width="40" x="10" y="9.833"/>
<rect fill="#FFFFFF" fill-opacity="0.8" height="6.5" width="0.166" x="10" y="3.333"/>
<rect fill-opacity="0.2" height="6.5" width="0.166" x="49.834" y="3.333"/>
<rect fill="#FFFFFF" fill-opacity="0.4" height="0.167" stroke-opacity="0.4" width="39.668" x="10.166" y="9.667"/>
<rect height="3.333" width="60"/>
<path d="M6.334,5.333c0.274,0,0.372,0.186,0.217,0.412L5.283,7.588c-0.156,0.227-0.41,0.227-0.566,0L3.449,5.746  C3.294,5.519,3.392,5.333,3.666,5.333H6.334z" fill="#3C3C3C"/>
<path d="M48,5.333c0.275,0,0.373,0.186,0.217,0.412l-1.268,1.842c-0.154,0.227-0.41,0.227-0.566,0l-1.266-1.842  c-0.156-0.227-0.059-0.412,0.217-0.412H48z" fill="#3C3C3C"/>
<linearGradient gradientTransform="matrix(0 -1 1 0 -415.5 -1253.5)" gradientUnits="userSpaceOnUse" id="SVGID_4_" x1="-1253.9995" x2="-1256.4995" y1="469.499" y2="469.499">
<stop offset="0" style="stop-color:#92DE2F"/>
<stop offset="1" style="stop-color:#19B016"/>
</linearGradient>
<polygon fill="url(#SVGID_4_)" points="52,1.167 51.666,1.167 51.666,2.333 52,2.333 52,3 56.334,3 56.334,0.5 52,0.5 "/>
<rect fill-opacity="0.2" height="1.333" stroke-opacity="0.2" width="0.334" x="55.166" y="1.083"/>
<polygon fill-opacity="0.2" points="53,1.083 53,1.583 52.5,1.583 52.5,1.917 53,1.917 53,2.417 53.334,2.417 53.334,1.917 53.834,1.917   53.834,1.583 53.334,1.583 53.334,1.083 " stroke-opacity="0.2"/>
<rect fill="none" height="2.5" width="5" x="51.5" y="0.5"/>
<linearGradient gradientTransform="matrix(0 1 -1 0 -1249.5 299.5005)" gradientUnits="userSpaceOnUse" id="SVGID_5_" x1="-297.751" x2="-297.751" y1="-1258.1616" y2="-1253.5126">
<stop offset="0" style="stop-color:#47DAFA"/>
<stop offset="1" style="stop-color:#0070FA"/>
</linearGradient>
<rect fill="url(#SVGID_5_)" height="0.5" width="0.666" x="4" y="1.5"/>
<linearGradient gradientTransform="matrix(0 1 -1 0 -1249.5 299.5005)" gradientUnits="userSpaceOnUse" id="SVGID_6_" x1="-297.751" x2="-297.751" y1="-1258.1626" y2="-1253.5135">
<stop offset="0" style="stop-color:#47DAFA"/>
<stop offset="1" style="stop-color:#0070FA"/>
</linearGradient>
<rect fill="url(#SVGID_6_)" height="1" width="0.666" x="5" y="1.25"/>
<linearGradient gradientTransform="matrix(0 1 -1 0 -1249.5 299.5005)" gradientUnits="userSpaceOnUse" id="SVGID_7_" x1="-297.751" x2="-297.751" y1="-1258.1636" y2="-1253.5145">
<stop offset="0" style="stop-color:#47DAFA"/>
<stop offset="1" style="stop-color:#0070FA"/>
</linearGradient>
<rect fill="url(#SVGID_7_)" height="1.5" width="0.666" x="6" y="1"/>
<linearGradient gradientTransform="matrix(0 1 -1 0 -1249.5 299.5005)" gradientUnits="userSpaceOnUse" id="SVGID_8_" x1="-297.751" x2="-297.751" y1="-1258.1646" y2="-1253.5155">
<stop offset="0" style="stop-color:#47DAFA"/>
<stop offset="1" style="stop-color:#0070FA"/>
</linearGradient>
<rect fill="url(#SVGID_8_)" height="2" width="0.666" x="7" y="0.75"/>
<linearGradient gradientTransform="matrix(0 1 -1 0 -1249.5 299.5005)" gradientUnits="userSpaceOnUse" id="SVGID_9_" x1="-297.751" x2="-297.751" y1="-1258.1655" y2="-1253.5165">
<stop offset="0" style="stop-color:#47DAFA"/>
<stop offset="1" style="stop-color:#0070FA"/>
</linearGradient>
<rect fill="url(#SVGID_9_)" height="2.5" width="0.666" x="8" y="0.5"/>
<rect fill="none" height="2.5" width="5" x="3.834" y="0.5"/>
<path d="M2.255,2.5h0.323V1.694l0.588-0.708V0.833h-1.5v0.152l0.589,0.708V2.5L2.255,2.5z" fill="#FFFFFF"/>
<path d="M57.166,2.667h1.168V0.863h-0.341V0.667h-0.499v0.196h-0.328V2.667z" fill="#FFFFFF"/>
<path d="M56.084,5.417H55V4.75c0-0.275-0.182-0.367-0.404-0.205l-1.359,0.994c-0.221,0.162-0.221,0.428,0,0.59  l1.359,0.993C54.818,7.284,55,7.192,55,6.917V6.25h1.084c0.413,0,0.75,0.336,0.75,0.75s-0.337,0.75-0.75,0.75h-2.5  c-0.23,0-0.418,0.187-0.418,0.417c0,0.23,0.188,0.417,0.418,0.417h2.5c0.873,0,1.582-0.71,1.582-1.583S56.957,5.417,56.084,5.417z" fill="#3C3C3C"/>
<linearGradient gradientUnits="userSpaceOnUse" id="SVGID_10_" x1="22.5" x2="22.5" y1="49.917" y2="59.962">
<stop offset="0" style="stop-color:#FAFAFF"/>
<stop offset="0.9" style="stop-color:#D7D7DC"/>
<stop offset="0.9" style="stop-color:#CDCDD2"/>
<stop offset="1" style="stop-color:#C3C3C8"/>
</linearGradient>
<rect fill="url(#SVGID_10_)" height="10" width="15" x="15" y="50"/>
<rect fill="#FFFFFF" fill-opacity="0.9" height="9.667" stroke-opacity="0.9" width="0.166" x="15" y="50.167"/>
<rect fill="#9696A0" fill-opacity="0.5" height="9.667" stroke-opacity="0.5" width="0.166" x="29.834" y="50.167"/>
<linearGradient gradientUnits="userSpaceOnUse" id="SVGID_11_" x1="37.5" x2="37.5" y1="49.917" y2="59.962">
<stop offset="0" style="stop-color:#FAFAFF"/>
<stop offset="0.9" style="stop-color:#D7D7DC"/>
<stop offset="0.9" style="stop-color:#CDCDD2"/>
<stop offset="1" style="stop-color:#C3C3C8"/>
</linearGradient>
<rect fill="url(#SVGID_11_)" height="10" width="15" x="30" y="50"/>
<rect fill="#FFFFFF" fill-opacity="0.9" height="9.667" stroke-opacity="0.9" width="0.166" x="30" y="50.167"/>
<rect fill="#9696A0" fill-opacity="0.5" height="9.667" stroke-opacity="0.5" width="0.166" x="44.834" y="50.167"/>
<linearGradient gradientUnits="userSpaceOnUse" id="SVGID_12_" x1="52.5" x2="52.5" y1="49.917" y2="59.962">
<stop offset="0" style="stop-color:#FAFAFF"/>
<stop offset="0.9" style="stop-color:#D7D7DC"/>
<stop offset="0.9" style="stop-color:#CDCDD2"/>
<stop offset="1" style="stop-color:#C3C3C8"/>
</linearGradient>
<rect fill="url(#SVGID_12_)" height="10" width="15" x="45" y="50"/>
<rect fill="#FFFFFF" fill-opacity="0.9" height="9.667" stroke-opacity="0.9" width="0.166" x="45" y="50.167"/>
<linearGradient gradientUnits="userSpaceOnUse" id="SVGID_13_" x1="7.5" x2="7.5" y1="49.917" y2="59.962">
<stop offset="0" style="stop-color:#FAFAFF"/>
<stop offset="0.9" style="stop-color:#D7D7DC"/>
<stop offset="0.9" style="stop-color:#CDCDD2"/>
<stop offset="1" style="stop-color:#C3C3C8"/>
</linearGradient>
<rect fill="url(#SVGID_13_)" height="10" width="15" y="50"/>
<rect fill-opacity="0.1" height="0.166" stroke-opacity="0.1" width="60" y="59.834"/>
<rect fill="#FFFFFF" fill-opacity="0.4" height="0.167" stroke-opacity="0.4" width="60" y="59.667"/>
<rect fill="#9696A0" fill-opacity="0.5" height="9.667" stroke-opacity="0.5" width="0.166" x="14.834" y="50.167"/>
<circle cx="7.354" cy="55" fill="none" r="2.928" stroke="#505050" stroke-width="0.9352"/>
<circle cx="22.544" cy="55" fill="none" r="2.928" stroke="#505050" stroke-width="0.9352"/>
<circle cx="37.595" cy="55" fill="none" r="2.928" stroke="#505050" stroke-width="0.9352"/>
<circle cx="52.645" cy="55" fill="none" r="2.928" stroke="#505050" stroke-width="0.9352"/>
</svg>
