<?xml version="1.0" encoding="UTF-8"?>
<!DOCTYPE svg PUBLIC "-//W3C//DTD SVG 1.1 Tiny//EN" "http://www.w3.org/Graphics/SVG/1.1/DTD/svg11-tiny.dtd">
<svg baseProfile="tiny" height="60" viewBox="0 0 60 60" width="60" xmlns="http://www.w3.org/2000/svg" xmlns:xlink="http://www.w3.org/1999/xlink">
<g>
<rect fill="none" height="60" width="60"/>
<linearGradient gradientUnits="userSpaceOnUse" id="SVGID_1_" x1="30" x2="30" y1="2.001" y2="57.8555">
<stop offset="0" style="stop-color:#D3D7D5"/>
<stop offset="0.0667" style="stop-color:#D3D7D5"/>
<stop offset="0.2606" style="stop-color:#BFC2C1"/>
<stop offset="0.6606" style="stop-color:#989D9D"/>
<stop offset="0.9636" style="stop-color:#AFB3B2"/>
<stop offset="1" style="stop-color:#5B5B5D"/>
</linearGradient>
<path d="M48.027,54.932c0,1.693-1.375,3.069-3.068,3.069h-29.92c-1.693,0-3.066-1.376-3.066-3.069V5.07  c0-1.696,1.373-3.069,3.066-3.069h29.92c1.693,0,3.068,1.373,3.068,3.069V54.932z" fill="url(#SVGID_1_)"/>
<linearGradient gradientUnits="userSpaceOnUse" id="SVGID_2_" x1="30" x2="30" y1="2.001" y2="56.899">
<stop offset="0" style="stop-color:#E7EAE8"/>
<stop offset="0.0667" style="stop-color:#E7EAE8"/>
<stop offset="0.2606" style="stop-color:#D8DCDA"/>
<stop offset="0.6606" style="stop-color:#B7BDBB"/>
<stop offset="1" style="stop-color:#AFB3B2"/>
</linearGradient>
<path d="M44.959,2.001h-29.92c-1.693,0-3.066,1.373-3.066,3.069v49.861c0,0.82,0.324,1.56,0.848,2.11  c-0.047-0.187-0.08-0.377-0.08-0.575v-1.535V6.602V5.07c0-1.271,1.031-2.304,2.299-2.304h29.92c1.268,0,2.301,1.033,2.301,2.304  v1.531v48.33v1.535c0,0.198-0.033,0.389-0.08,0.575c0.521-0.551,0.848-1.29,0.848-2.11V5.07C48.027,3.374,46.652,2.001,44.959,2.001  z" fill="url(#SVGID_2_)"/>
<linearGradient gradientUnits="userSpaceOnUse" id="SVGID_3_" x1="30" x2="30" y1="5.8916" y2="43.4283">
<stop offset="0" style="stop-color:#B8BBBA"/>
<stop offset="1" style="stop-color:#F4FBF6"/>
</linearGradient>
<rect fill="url(#SVGID_3_)" fill-opacity="0.6" height="37.589" stroke-opacity="0.6" width="31.453" x="14.273" y="5.836"/>
<linearGradient gradientUnits="userSpaceOnUse" id="SVGID_4_" x1="29.999" x2="29.999" y1="6.6548" y2="42.6624">
<stop offset="0" style="stop-color:#6E6E6E"/>
<stop offset="1" style="stop-color:#333333"/>
</linearGradient>
<rect fill="url(#SVGID_4_)" height="36.058" width="29.92" x="15.039" y="6.602"/>
<linearGradient gradientUnits="userSpaceOnUse" id="SVGID_5_" x1="30" x2="30" y1="7.4214" y2="41.894">
<stop offset="0" style="stop-color:#70B4B6"/>
<stop offset="0.3879" style="stop-color:#5F8BA1"/>
<stop offset="0.8909" style="stop-color:#455188"/>
<stop offset="1" style="stop-color:#455188"/>
</linearGradient>
<rect fill="url(#SVGID_5_)" height="34.521" width="28.383" x="15.809" y="7.37"/>
<linearGradient gradientUnits="userSpaceOnUse" id="SVGID_6_" x1="30" x2="30" y1="7.9712" y2="21.69">
<stop offset="0" style="stop-color:#AADAC6"/>
<stop offset="1" style="stop-color:#6A99AA"/>
</linearGradient>
<polygon fill="url(#SVGID_6_)" points="44.191,19.644 15.809,22.712 15.809,8.137 44.191,8.137 "/>
<rect fill="#BCE2D2" height="0.767" width="28.383" x="15.809" y="7.37"/>
<linearGradient gradientUnits="userSpaceOnUse" id="SVGID_7_" x1="30.2236" x2="30.2236" y1="5.8726" y2="2.8032">
<stop offset="0" style="stop-color:#FFFFFF"/>
<stop offset="1" style="stop-color:#D3D7D5"/>
</linearGradient>
<path d="M26.832,5.836c-0.861,0-1.535-0.563-1.535-1.279v-0.51c0-0.718,0.674-1.28,1.535-1.28h6.785  c0.859,0,1.533,0.563,1.533,1.28v0.51c0,0.716-0.674,1.279-1.533,1.279H26.832z" fill="url(#SVGID_7_)"/>
<linearGradient gradientUnits="userSpaceOnUse" id="SVGID_8_" x1="30.2236" x2="30.2236" y1="3.2158" y2="5.1992">
<stop offset="0" style="stop-color:#6F7172"/>
<stop offset="1" style="stop-color:#BFC2C1"/>
</linearGradient>
<path d="M34.383,4.557c0,0.283-0.342,0.514-0.766,0.514h-6.785c-0.424,0-0.768-0.23-0.768-0.514v-0.51  c0-0.283,0.344-0.512,0.768-0.512h6.785c0.424,0,0.766,0.229,0.766,0.512V4.557z" fill="url(#SVGID_8_)"/>
<linearGradient gradientUnits="userSpaceOnUse" id="SVGID_9_" x1="29.8818" x2="29.8818" y1="44.2236" y2="55.628">
<stop offset="0" style="stop-color:#B8BBBA"/>
<stop offset="1" style="stop-color:#FFFFFF"/>
</linearGradient>
<path d="M27.109,55.7c-1.645,0-2.98-1.323-2.98-2.951v-5.606c0-1.627,1.336-2.951,2.98-2.951  h5.545c1.645,0,2.98,1.324,2.98,2.951v5.606c0,1.628-1.336,2.951-2.98,2.951H27.109z" fill="url(#SVGID_9_)" fill-opacity="0.6" stroke-opacity="0.6"/>
<path d="M27.105,54.932c-1.219,0-2.211-0.979-2.211-2.183v-5.606c0-1.204,0.992-2.183,2.211-2.183  h5.553c1.219,0,2.209,0.979,2.209,2.183v5.606c0,1.204-0.99,2.183-2.209,2.183H27.105z" fill="#020202" fill-opacity="0.5" stroke-opacity="0.5"/>
<linearGradient gradientUnits="userSpaceOnUse" id="SVGID_10_" x1="29.8818" x2="29.8818" y1="45.6865" y2="54.1806">
<stop offset="0" style="stop-color:#A8A9AA"/>
<stop offset="0.703" style="stop-color:#59595A"/>
<stop offset="1" style="stop-color:#818283"/>
</linearGradient>
<path d="M34.102,52.749c0,0.783-0.645,1.417-1.438,1.417h-5.566c-0.793,0-1.436-0.634-1.436-1.417v-5.606  c0-0.783,0.643-1.417,1.436-1.417h5.566c0.793,0,1.438,0.634,1.438,1.417V52.749z" fill="url(#SVGID_10_)"/>
<path d="M28.73,52.632c-0.846,0-1.533-0.688-1.533-1.534v-2.303c0-0.847,0.688-1.534,1.533-1.534  h2.303c0.846,0,1.533,0.688,1.533,1.534v2.303c0,0.847-0.688,1.534-1.533,1.534H28.73z" fill="#020202" fill-opacity="0.2" stroke-opacity="0.2"/>
<linearGradient gradientUnits="userSpaceOnUse" id="SVGID_11_" x1="29.8809" x2="29.8809" y1="48.0103" y2="51.8696">
<stop offset="0" style="stop-color:#D3D7D5"/>
<stop offset="0.0667" style="stop-color:#D3D7D5"/>
<stop offset="0.2606" style="stop-color:#BFC2C1"/>
<stop offset="0.6606" style="stop-color:#989D9D"/>
<stop offset="0.9636" style="stop-color:#AFB3B2"/>
<stop offset="1" style="stop-color:#5B5B5D"/>
</linearGradient>
<path d="M28.73,51.863c-0.422,0-0.768-0.345-0.768-0.766v-2.303c0-0.422,0.346-0.767,0.768-0.767h2.303  c0.42,0,0.766,0.345,0.766,0.767v2.303c0,0.421-0.346,0.766-0.766,0.766H28.73z" fill="url(#SVGID_11_)"/>
<linearGradient gradientUnits="userSpaceOnUse" id="SVGID_12_" x1="17.667" x2="17.667" y1="44.917" y2="54.1816">
<stop offset="0" style="stop-color:#B8BBBA"/>
<stop offset="1" style="stop-color:#F4FBF6"/>
</linearGradient>
<path d="M17.223,54.166c-1.625,0-2.949-1.323-2.949-2.951v-3.307  c0-1.624,1.324-2.948,2.949-2.948h0.887c1.627,0,2.951,1.324,2.951,2.948v3.307c0,1.628-1.324,2.951-2.951,2.951H17.223z" fill="url(#SVGID_12_)" fill-opacity="0.4" stroke-opacity="0.4"/>
<linearGradient gradientUnits="userSpaceOnUse" id="SVGID_13_" x1="17.665" x2="17.665" y1="45.6899" y2="53.4106">
<stop offset="0" style="stop-color:#222021"/>
<stop offset="1" style="stop-color:#6E6E6F"/>
</linearGradient>
<path d="M17.223,53.397c-1.203,0-2.184-0.979-2.184-2.183v-3.307  c0-1.201,0.98-2.183,2.184-2.183h0.887c1.205,0,2.182,0.981,2.182,2.183v3.307c0,1.204-0.977,2.183-2.182,2.183H17.223z" fill="url(#SVGID_13_)" fill-opacity="0.7" stroke-opacity="0.7"/>
<linearGradient gradientUnits="userSpaceOnUse" id="SVGID_14_" x1="17.667" x2="17.667" y1="46.4658" y2="52.6426">
<stop offset="0" style="stop-color:#B3C77D"/>
<stop offset="0.7273" style="stop-color:#3C743A"/>
<stop offset="1" style="stop-color:#235138"/>
</linearGradient>
<path d="M19.525,51.215c0,0.783-0.635,1.417-1.416,1.417h-0.887c-0.779,0-1.414-0.634-1.414-1.417v-3.307  c0-0.78,0.635-1.414,1.414-1.414h0.887c0.781,0,1.416,0.634,1.416,1.414V51.215z" fill="url(#SVGID_14_)"/>
<linearGradient gradientUnits="userSpaceOnUse" id="SVGID_15_" x1="41.6719" x2="41.6719" y1="44.917" y2="54.1816">
<stop offset="0" style="stop-color:#B8BBBA"/>
<stop offset="1" style="stop-color:#F4FBF6"/>
</linearGradient>
<path d="M41.229,54.166c-1.625,0-2.949-1.323-2.949-2.951v-3.307  c0-1.624,1.324-2.948,2.949-2.948h0.885c1.627,0,2.951,1.324,2.951,2.948v3.307c0,1.628-1.324,2.951-2.951,2.951H41.229z" fill="url(#SVGID_15_)" fill-opacity="0.4" stroke-opacity="0.4"/>
<linearGradient gradientUnits="userSpaceOnUse" id="SVGID_16_" x1="41.6709" x2="41.6709" y1="45.6899" y2="53.4106">
<stop offset="0" style="stop-color:#222021"/>
<stop offset="1" style="stop-color:#6E6E6F"/>
</linearGradient>
<path d="M41.229,53.397c-1.203,0-2.184-0.979-2.184-2.183v-3.307  c0-1.201,0.98-2.183,2.184-2.183h0.885c1.205,0,2.184,0.981,2.184,2.183v3.307c0,1.204-0.979,2.183-2.184,2.183H41.229z" fill="url(#SVGID_16_)" fill-opacity="0.7" stroke-opacity="0.7"/>
<linearGradient gradientUnits="userSpaceOnUse" id="SVGID_17_" x1="41.6719" x2="41.6719" y1="46.4658" y2="52.6426">
<stop offset="0" style="stop-color:#C6B17B"/>
<stop offset="0.7455" style="stop-color:#98604F"/>
<stop offset="1" style="stop-color:#7F3736"/>
</linearGradient>
<path d="M43.531,51.215c0,0.783-0.637,1.417-1.418,1.417h-0.885c-0.781,0-1.416-0.634-1.416-1.417v-3.307  c0-0.78,0.635-1.414,1.416-1.414h0.885c0.781,0,1.418,0.634,1.418,1.414V51.215z" fill="url(#SVGID_17_)"/>
<rect fill="none" height="60" width="60"/>
</g>
<g transform="matrix(1 0 0 1 30 30)">
<rect fill="none" height="30" width="30" x="0.002"/>
<path d="M20.752,15.001H1.27c-0.555,0-0.998,0.273-1.186,0.73c-0.186,0.459-0.059,0.966,0.34,1.355l10.515,10.314  c0.339,0.335,0.687,0.404,0.918,0.404c0.565,0,1.165-0.448,1.165-1.28v-4.398h7.73c0.842,0,1.527-0.69,1.527-1.538v-4.051  C22.279,15.69,21.594,15.001,20.752,15.001z" fill-opacity="0.35" stroke-opacity="0.35"/>
<path d="M29.58,12.911L19.063,2.596c-0.339-0.333-0.685-0.402-0.916-0.402c-0.564,0-1.165,0.449-1.165,1.281v4.399  h-7.73c-0.842,0-1.525,0.689-1.525,1.537v4.051c0,0.847,0.684,1.535,1.525,1.535h19.482c0.555,0,0.998-0.273,1.186-0.73  C30.105,13.808,29.979,13.301,29.58,12.911z" fill-opacity="0.35" stroke-opacity="0.35"/>
<linearGradient gradientUnits="userSpaceOnUse" id="SVGID_1__" x1="11.1406" x2="11.1406" y1="16.103" y2="27.0009">
<stop offset="0" style="stop-color:#D6DFCB"/>
<stop offset="0.9879" style="stop-color:#2E6B4D"/>
<stop offset="1" style="stop-color:#2E6B4D"/>
</linearGradient>
<path d="M21.279,20.589c0,0.294-0.236,0.538-0.527,0.538h-8.205c-0.287,0-0.525,0.241-0.525,0.537v4.861  c0,0.295-0.172,0.37-0.38,0.165L1.125,16.373c-0.211-0.205-0.144-0.372,0.145-0.372h19.482c0.289,0,0.527,0.241,0.527,0.537V20.589z  " fill="url(#SVGID_1__)"/>
<linearGradient gradientUnits="userSpaceOnUse" id="SVGID_2__" x1="11.7783" x2="11.7783" y1="17.0737" y2="24.8819">
<stop offset="0" style="stop-color:#88A372"/>
<stop offset="0.2545" style="stop-color:#426E4B"/>
<stop offset="0.5091" style="stop-color:#1C3837"/>
<stop offset="1" style="stop-color:#1C3837"/>
</linearGradient>
<path d="M3.336,17.06h16.885v3.009h-7.674c-0.872,0-1.584,0.715-1.584,1.596v2.878L3.336,17.06z" fill="url(#SVGID_2__)"/>
<linearGradient gradientUnits="userSpaceOnUse" id="SVGID_3__" x1="18.8643" x2="18.8643" y1="3.2227" y2="14.1618">
<stop offset="0" style="stop-color:#D6DFCB"/>
<stop offset="0.4909" style="stop-color:#D6DFCB"/>
<stop offset="0.9879" style="stop-color:#2E6B4D"/>
<stop offset="1" style="stop-color:#2E6B4D"/>
</linearGradient>
<path d="M8.727,9.411c0-0.296,0.235-0.537,0.525-0.537h8.206c0.288,0,0.524-0.242,0.524-0.538V3.475  c0-0.297,0.172-0.37,0.381-0.165l10.516,10.315c0.211,0.205,0.144,0.372-0.145,0.372H9.252c-0.289,0-0.525-0.241-0.525-0.535V9.411z  " fill="url(#SVGID_3__)"/>
<linearGradient gradientUnits="userSpaceOnUse" id="SVGID_4__" x1="18.2266" x2="18.2266" y1="5.4292" y2="12.9712">
<stop offset="0" style="stop-color:#B7CC97"/>
<stop offset="0.703" style="stop-color:#426E4B"/>
<stop offset="0.9879" style="stop-color:#1C3837"/>
<stop offset="1" style="stop-color:#1C3837"/>
</linearGradient>
<path d="M9.785,12.938V9.933h7.673c0.872,0,1.583-0.718,1.583-1.597V5.458l7.627,7.48H9.785z" fill="url(#SVGID_4__)"/>
<rect fill="none" height="30" width="30" x="0.002"/>
</g>
</svg>
