<?xml version="1.0" encoding="UTF-8"?>
<!DOCTYPE svg PUBLIC "-//W3C//DTD SVG 1.1 Tiny//EN" "http://www.w3.org/Graphics/SVG/1.1/DTD/svg11-tiny.dtd">
<svg baseProfile="tiny" height="10px" version="1.1" viewBox="0 0 10 10" width="10px" x="0px" xmlns="http://www.w3.org/2000/svg" xmlns:xlink="http://www.w3.org/1999/xlink" y="0px">
<path d="M5,0C2.239,0,0,2.239,0,5c0,2.762,2.239,5,5,5c2.762,0,5-2.238,5-5C10,2.239,7.762,0,5,0z M5,6.5  C4.172,6.5,3.5,5.828,3.5,5c0-0.828,0.672-1.5,1.5-1.5c0.828,0,1.5,0.672,1.5,1.5C6.5,5.828,5.828,6.5,5,6.5z" fill-opacity="0.5" stroke-opacity="0.5"/>
<path d="M5,1C2.791,1,1,2.791,1,5s1.791,4,4,4s4-1.791,4-4S7.209,1,5,1z M5,7.5C3.619,7.5,2.5,6.38,2.5,5  c0-1.381,1.119-2.5,2.5-2.5c1.38,0,2.5,1.119,2.5,2.5C7.5,6.38,6.38,7.5,5,7.5z" fill="#FFFF00"/>
</svg>
