<?xml version="1.0" encoding="UTF-8"?>
<!DOCTYPE svg PUBLIC "-//W3C//DTD SVG 1.1 Tiny//EN" "http://www.w3.org/Graphics/SVG/1.1/DTD/svg11-tiny.dtd">
<svg baseProfile="tiny" height="30px" version="1.1" viewBox="0 0 30 30" width="30px" x="0px" xmlns="http://www.w3.org/2000/svg" xmlns:xlink="http://www.w3.org/1999/xlink" y="0px">
<path d="M7,0C5.899,0,4.862,0.26,3.937,0.713c3.864,1.889,4.169,4.746,4.103,5.953H9h2L7,12L3,6.666h2h1.043  c0.074-0.533,0.172-3.057-4.017-4.59C0.774,3.34,0,5.079,0,7c0,3.865,3.134,7,7,7s7-3.135,7-7C14,3.133,10.866,0,7,0z"/>
<rect height="11" width="2" x="28" y="5"/>
<path d="M3,15.051V30h2V15.769C4.298,15.608,3.629,15.364,3,15.051z"/>
<path d="M25,2H14.479C15.438,3.432,16,5.15,16,7c0,0.84-0.124,1.65-0.34,2.422C16.064,9.161,16.516,9,17,9c1.654,0,3,1.717,3,3.83  c0,1.479-0.674,2.953-1.678,3.671c-0.076,0.057-0.121,0.146-0.121,0.239v0.214c0,0.934,0.98,1.18,1.498,1.18  C22.664,18.425,22.988,21.832,23,22H11c0.014-0.168,0.336-3.575,3.301-3.866c0.68-0.015,1.5-0.332,1.5-1.18V16.74  c0-0.094-0.047-0.183-0.123-0.239C14.674,15.783,14,14.31,14,12.83c0-0.071,0.014-0.138,0.017-0.208C12.365,14.678,9.836,16,7,16v14  h18c1.104,0,2-0.896,2-2V4C27,2.896,26.104,2,25,2z"/>
</svg>
