<?xml version="1.0" encoding="UTF-8"?>
<!DOCTYPE svg PUBLIC "-//W3C//DTD SVG 1.1 Tiny//EN" "http://www.w3.org/Graphics/SVG/1.1/DTD/svg11-tiny.dtd">
<svg baseProfile="tiny" height="30px" version="1.1" viewBox="0 0 30 30" width="30px" x="0px" xmlns="http://www.w3.org/2000/svg" xmlns:xlink="http://www.w3.org/1999/xlink" y="0px">
<polygon points="24.722,22.301 5.279,22.303 9.48,29.03 11.544,27.742 9.672,24.738 9.684,24.738 9.684,24.738 24.722,24.738 "/>
<polygon points="20.521,12.994 18.452,14.281 20.326,17.285 5.279,17.287 5.279,19.721 24.722,19.719 "/>
<path d="M11.948,5.938c0.667-0.516,1.048-1.234,1.048-2.08c0-0.721-0.28-1.381-0.786-1.861c-0.56-0.529-1.36-0.807-2.314-0.807  c-1.161,0-2.173,0.43-2.685,0.793L6.904,2.203l0.697,1.863l0.526-0.377c0.332-0.233,0.93-0.506,1.528-0.506  c0.501,0,1.096,0.15,1.096,0.871c0,0.853-1.104,1.039-1.531,1.039H8.039v1.92h1.187c0.305,0,1.838,0.064,1.85,1.327  c0.002,0.153-0.023,0.54-0.323,0.841c-0.271,0.27-0.684,0.41-1.233,0.41c-0.747,0-1.458-0.309-1.758-0.486L7.238,8.789l-0.672,1.883  l0.328,0.215c0.489,0.322,1.477,0.699,2.638,0.699c2.619,0,3.811-1.674,3.811-3.227C13.343,7.321,12.807,6.439,11.948,5.938z"/>
<path d="M19.335,5.537v1.98h1.902v1.938c-0.253,0.067-0.592,0.124-1.121,0.124c-1.966,0-3.136-1.236-3.136-3.304  c0-1.015,0.304-1.854,0.885-2.427c0.573-0.564,1.404-0.863,2.403-0.863c0.761,0,1.355,0.113,1.872,0.355l0.518,0.246l0.606-1.949  l-0.391-0.188c-0.457-0.225-1.412-0.483-2.577-0.483c-3.354,0-5.604,2.157-5.604,5.364c0,1.559,0.536,2.969,1.468,3.868  c0.974,0.931,2.237,1.386,3.869,1.386c1.535,0,2.75-0.422,3.084-0.551l0.321-0.125V5.537H19.335z"/>
<rect fill="none" height="30" width="30"/>
</svg>
