<?xml version="1.0" encoding="UTF-8"?>
<!DOCTYPE svg PUBLIC "-//W3C//DTD SVG 1.1 Tiny//EN" "http://www.w3.org/Graphics/SVG/1.1/DTD/svg11-tiny.dtd">
<svg baseProfile="tiny" height="30px" version="1.1" viewBox="0 0 30 30" width="30px" x="0px" xmlns="http://www.w3.org/2000/svg" xmlns:xlink="http://www.w3.org/1999/xlink" y="0px">
<g>
<rect fill="none" height="30" width="30"/>
</g>
<path d="M10.299,17.467c0.053-0.006,0.277-0.016,0.332-0.021C9.006,15.738,8,13.139,8,10.48c0-3.686,1.954-6.82,4.67-7.988  C11.854,0.986,10.515,0,9,0C6.519,0,4.5,2.641,4.5,5.892c0,2.276,1.011,4.544,2.514,5.648c0.117,0.087,0.184,0.224,0.184,0.367  v0.329c0,1.305-1.227,1.793-2.249,1.814C0.504,14.499,0.018,19.741,0,20h5.387C6.514,18.701,8.1,17.686,10.299,17.467z"/>
<path d="M22,10.48c0,2.66-1.008,5.26-2.638,6.968c0.046,0.005,0.091,0.009,0.137,0.009c0.066,0,0.132,0.003,0.198,0.01  c2.21,0.221,3.803,1.229,4.932,2.533H30c-0.021-0.259-0.504-5.501-4.951-5.949c-0.776,0-2.25-0.378-2.25-1.814v-0.329  c0-0.144,0.07-0.28,0.184-0.367c1.507-1.104,2.518-3.372,2.518-5.648C25.5,2.641,23.481,0,21,0c-1.515,0-2.854,0.986-3.67,2.492  C20.046,3.66,22,6.795,22,10.48z"/>
<path d="M5,26c0.02-0.285,0.561-6.051,5.498-6.543c1.136-0.025,2.5-0.563,2.5-1.996v-0.363c0-0.158-0.074-0.309-0.205-0.404  C11.123,15.479,10,12.984,10,10.48C10,6.904,12.242,4,15,4s5,2.904,5,6.48c0,2.504-1.123,4.998-2.797,6.213  c-0.127,0.096-0.205,0.246-0.205,0.404v0.363c0,1.58,1.639,1.996,2.501,1.996C24.439,19.949,24.977,25.715,25,26H5z"/>
</svg>
