<?xml version="1.0" encoding="UTF-8"?>
<!DOCTYPE svg PUBLIC "-//W3C//DTD SVG 1.1 Tiny//EN" "http://www.w3.org/Graphics/SVG/1.1/DTD/svg11-tiny.dtd">
<svg baseProfile="tiny" height="60" viewBox="0 0 60 60" width="60" xmlns="http://www.w3.org/2000/svg" xmlns:xlink="http://www.w3.org/1999/xlink">
<g>
<rect fill="none" height="60" width="60"/>
<linearGradient gradientTransform="matrix(1 0 0 -1 2194 3656.9473)" gradientUnits="userSpaceOnUse" id="SVGID_1_" x1="-2164" x2="-2164" y1="3649.3477" y2="3604.5469">
<stop offset="0" style="stop-color:#757575"/>
<stop offset="0.2424" style="stop-color:#000000"/>
<stop offset="0.8606" style="stop-color:#000000"/>
<stop offset="1" style="stop-color:#363636"/>
</linearGradient>
<path d="M56.506,7.6H3.493C2.666,7.6,2,8.27,2,9.094v41.813C2,51.732,2.666,52.4,3.493,52.4h53.013  C57.33,52.4,58,51.732,58,50.906V9.094C58,8.27,57.33,7.6,56.506,7.6z M8.719,49.413c0,0.412-0.336,0.748-0.745,0.748H4.986  c-0.412,0-0.748-0.336-0.748-0.748V47.92c0-0.41,0.336-0.746,0.748-0.746h2.987c0.409,0,0.745,0.336,0.745,0.746V49.413z   M8.719,12.08c0,0.41-0.336,0.746-0.745,0.746H4.986c-0.412,0-0.748-0.336-0.748-0.746v-1.493c0-0.409,0.336-0.748,0.748-0.748  h2.987c0.409,0,0.745,0.339,0.745,0.748V12.08z M15.438,49.413c0,0.412-0.335,0.748-0.745,0.748h-2.987  c-0.412,0-0.747-0.336-0.747-0.748V47.92c0-0.41,0.335-0.746,0.747-0.746h2.987c0.41,0,0.745,0.336,0.745,0.746V49.413z   M15.438,12.08c0,0.41-0.335,0.746-0.745,0.746h-2.987c-0.412,0-0.747-0.336-0.747-0.746v-1.493c0-0.409,0.335-0.748,0.747-0.748  h2.987c0.41,0,0.745,0.339,0.745,0.748V12.08z M22.159,49.413c0,0.412-0.337,0.748-0.747,0.748h-2.986  c-0.41,0-0.746-0.336-0.746-0.748V47.92c0-0.41,0.335-0.746,0.746-0.746h2.986c0.41,0,0.747,0.336,0.747,0.746V49.413z   M22.159,12.08c0,0.41-0.337,0.746-0.747,0.746h-2.986c-0.41,0-0.746-0.336-0.746-0.746v-1.493c0-0.409,0.335-0.748,0.746-0.748  h2.986c0.41,0,0.747,0.339,0.747,0.748V12.08z M28.88,49.413c0,0.412-0.337,0.748-0.747,0.748h-2.986  c-0.411,0-0.746-0.336-0.746-0.748V47.92c0-0.41,0.335-0.746,0.746-0.746h2.986c0.41,0,0.747,0.336,0.747,0.746V49.413z   M28.88,12.08c0,0.41-0.337,0.746-0.747,0.746h-2.986c-0.411,0-0.746-0.336-0.746-0.746v-1.493c0-0.409,0.335-0.748,0.746-0.748  h2.986c0.41,0,0.747,0.339,0.747,0.748V12.08z M35.6,49.413c0,0.412-0.338,0.748-0.747,0.748h-2.985  c-0.412,0-0.748-0.336-0.748-0.748V47.92c0-0.41,0.336-0.746,0.748-0.746h2.985c0.409,0,0.747,0.336,0.747,0.746V49.413z   M35.6,12.08c0,0.41-0.338,0.746-0.747,0.746h-2.985c-0.412,0-0.748-0.336-0.748-0.746v-1.493c0-0.409,0.336-0.748,0.748-0.748  h2.985c0.409,0,0.747,0.339,0.747,0.748V12.08z M42.318,49.413c0,0.412-0.335,0.748-0.745,0.748h-2.987  c-0.412,0-0.746-0.336-0.746-0.748V47.92c0-0.41,0.334-0.746,0.746-0.746h2.987c0.41,0,0.745,0.336,0.745,0.746V49.413z   M42.318,12.08c0,0.41-0.335,0.746-0.745,0.746h-2.987c-0.412,0-0.746-0.336-0.746-0.746v-1.493c0-0.409,0.334-0.748,0.746-0.748  h2.987c0.41,0,0.745,0.339,0.745,0.748V12.08z M49.039,49.413c0,0.412-0.336,0.748-0.746,0.748h-2.987  c-0.41,0-0.745-0.336-0.745-0.748V47.92c0-0.41,0.335-0.746,0.745-0.746h2.987c0.41,0,0.746,0.336,0.746,0.746V49.413z   M49.039,12.08c0,0.41-0.336,0.746-0.746,0.746h-2.987c-0.41,0-0.745-0.336-0.745-0.746v-1.493c0-0.409,0.335-0.748,0.745-0.748  h2.987c0.41,0,0.746,0.339,0.746,0.748V12.08z M55.761,49.413c0,0.412-0.339,0.748-0.748,0.748h-2.987  c-0.41,0-0.745-0.336-0.745-0.748V47.92c0-0.41,0.335-0.746,0.745-0.746h2.987c0.409,0,0.748,0.336,0.748,0.746V49.413z   M55.761,12.08c0,0.41-0.339,0.746-0.748,0.746h-2.987c-0.41,0-0.745-0.336-0.745-0.746v-1.493c0-0.409,0.335-0.748,0.745-0.748  h2.987c0.409,0,0.748,0.339,0.748,0.748V12.08z" fill="url(#SVGID_1_)"/>
<path d="M56.506,7.6H3.493C2.666,7.6,2,8.27,2,9.094v0.745  c0-0.824,0.666-1.493,1.493-1.493h53.013C57.33,8.346,58,9.015,58,9.839V9.094C58,8.27,57.33,7.6,56.506,7.6z" fill="#FFFFFF" fill-opacity="0.55" stroke-opacity="0.55"/>
<path d="M3.493,52.4h53.013C57.33,52.4,58,51.732,58,50.906v-0.745  c0,0.824-0.67,1.493-1.494,1.493H3.493C2.666,51.654,2,50.985,2,50.161v0.745C2,51.732,2.666,52.4,3.493,52.4z" fill="#FFFFFF" fill-opacity="0.1" stroke-opacity="0.1"/>
<linearGradient gradientTransform="matrix(1 0 0 -1 2194 3656.9473)" gradientUnits="userSpaceOnUse" id="SVGID_2_" x1="-2164" x2="-2164" y1="3641.7637" y2="3611.8926">
<stop offset="0" style="stop-color:#000000"/>
<stop offset="0.5" style="stop-color:#666666"/>
<stop offset="1" style="stop-color:#000000"/>
</linearGradient>
<rect fill="url(#SVGID_2_)" height="29.871" width="56" x="2" y="15.064"/>
<linearGradient gradientTransform="matrix(1 0 0 -1 2194 3656.9473)" gradientUnits="userSpaceOnUse" id="SVGID_3_" x1="-2164.0005" x2="-2164.0005" y1="3612.0117" y2="3641.8828">
<stop offset="0" style="stop-color:#72B9C3"/>
<stop offset="1" style="stop-color:#546F9F"/>
</linearGradient>
<path d="M55.761,43.441c0,0.821-0.673,1.494-1.493,1.494H5.732c-0.82,0-1.494-0.673-1.494-1.494V16.559  c0-0.819,0.674-1.494,1.494-1.494h48.535c0.82,0,1.493,0.675,1.493,1.494V43.441z" fill="url(#SVGID_3_)"/>
<path d="M54.268,43.441H5.732c-0.82,0-1.494,0.074-1.494-0.748l0,0  c0,0.822,0.674,1.493,1.494,1.493h48.535c0.82,0,1.493-0.671,1.493-1.493l0,0C55.761,43.516,55.088,43.441,54.268,43.441z" fill="#FFFFFF" fill-opacity="0.5" stroke-opacity="0.5"/>
<linearGradient gradientTransform="matrix(1 0 0 -1 2194 3656.9473)" gradientUnits="userSpaceOnUse" id="SVGID_4_" x1="-2164.0005" x2="-2164.0005" y1="3641.8828" y2="3611.8926">
<stop offset="0" style="stop-color:#000000"/>
<stop offset="1" style="stop-color:#404040"/>
</linearGradient>
<path d="M54.268,15.813c0.41,0,0.745,0.336,0.745,0.745v26.883c0,0.412-0.335,0.745-0.745,0.745H5.732  c-0.411,0-0.746-0.333-0.746-0.745V16.559c0-0.409,0.335-0.745,0.746-0.745H54.268 M54.268,15.064H5.732  c-0.82,0-1.494,0.675-1.494,1.494v26.883c0,0.821,0.674,1.494,1.494,1.494h48.535c0.82,0,1.493-0.673,1.493-1.494V16.559  C55.761,15.739,55.088,15.064,54.268,15.064L54.268,15.064z" fill="url(#SVGID_4_)"/>
<path d="M54.268,24.025v-5.974c0-0.824-0.67-1.493-1.494-1.493H7.226  c-0.824,0-1.493,0.669-1.493,1.493v9.709L54.268,24.025z" fill="#FFFFFF" fill-opacity="0.2" stroke-opacity="0.2"/>
<rect fill="none" height="60" width="60"/>
</g>
<g transform="matrix(1 0 0 1 30 30)">
<rect fill="none" height="30" width="30"/>
<rect fill="none" height="30" width="30"/>
<path d="M4.452,29.001c-1.903,0-3.451-1.549-3.451-3.453V4.453c0-1.903,1.548-3.452,3.451-3.452h21.095  c1.905,0,3.454,1.548,3.454,3.452v21.095c0,1.904-1.549,3.453-3.454,3.453H4.452z" fill-opacity="0.35" stroke-opacity="0.35"/>
<path d="M27.932,25.493c0,1.346-1.092,2.438-2.44,2.438H4.508c-1.347,0-2.438-1.093-2.438-2.438V4.509  c0-1.348,1.091-2.44,2.438-2.44h20.983c1.348,0,2.44,1.093,2.44,2.44V25.493z" fill="#D6C1A9"/>
<linearGradient gradientTransform="matrix(1 0 0 -1 2194 3347.6641)" gradientUnits="userSpaceOnUse" id="SVGID_1__" x1="-2190.8022" x2="-2167.4888" y1="3344.4668" y2="3321.1533">
<stop offset="0" style="stop-color:#A66C59"/>
<stop offset="0.5" style="stop-color:#B78C65"/>
<stop offset="1" style="stop-color:#9B5D55"/>
</linearGradient>
<path d="M4.508,27.188c-0.935,0-1.697-0.761-1.697-1.695V4.509c0-0.937,0.763-1.696,1.697-1.696h20.983  c0.937,0,1.697,0.762,1.697,1.696v20.984c0,0.935-0.76,1.695-1.697,1.695H4.508z" fill="url(#SVGID_1__)"/>
<linearGradient gradientTransform="matrix(1 0 0 -1 2194 3347.6641)" gradientUnits="userSpaceOnUse" id="SVGID_2__" x1="-2178.999" x2="-2178.999" y1="3345.792" y2="3319.6384">
<stop offset="0" style="stop-color:#976059"/>
<stop offset="0.5" style="stop-color:#B78C65"/>
<stop offset="1" style="stop-color:#793436"/>
</linearGradient>
<path d="M25.547,2.413c1.125,0,2.041,0.916,2.041,2.04v21.095c0,1.124-0.917,2.04-2.041,2.04H4.452  c-1.124,0-2.038-0.916-2.038-2.04V4.453c0-1.124,0.915-2.04,2.038-2.04H25.547 M25.547,2.001H4.452  c-1.353,0-2.451,1.098-2.451,2.452v21.095c0,1.354,1.098,2.453,2.451,2.453h21.095c1.354,0,2.454-1.1,2.454-2.453V4.453  C28.001,3.099,26.901,2.001,25.547,2.001L25.547,2.001z" fill="url(#SVGID_2__)"/>
<circle cx="8.615" cy="21.385" fill="#FFFFFF" r="2.508"/>
<path d="M20.547,23.614h3.345c0-9.651-7.854-17.506-17.505-17.506v3.344C14.196,9.453,20.547,15.805,20.547,23.614z" fill="#FFFFFF"/>
<path d="M14.466,23.614h3.343c0-6.299-5.124-11.424-11.422-11.424v3.345C10.842,15.535,14.466,19.158,14.466,23.614z  " fill="#FFFFFF"/>
</g>
</svg>
