<?xml version="1.0" encoding="UTF-8"?>
<!DOCTYPE svg PUBLIC "-//W3C//DTD SVG 1.1 Tiny//EN" "http://www.w3.org/Graphics/SVG/1.1/DTD/svg11-tiny.dtd">
<svg baseProfile="tiny" height="60" viewBox="0 0 60 60" width="60" xmlns="http://www.w3.org/2000/svg" xmlns:xlink="http://www.w3.org/1999/xlink">
<g>
<rect fill="none" height="60" width="60"/>
<radialGradient cx="-2058.7837" cy="-2250.877" gradientTransform="matrix(0.7071 0.7071 -0.7071 0.7071 -98.2555 3084.1135)" gradientUnits="userSpaceOnUse" id="SVGID_1_" r="45.6653">
<stop offset="0" style="stop-color:#6FB2B5"/>
<stop offset="0.297" style="stop-color:#6FB2B5"/>
<stop offset="0.6667" style="stop-color:#4C5F94"/>
<stop offset="0.7939" style="stop-color:#679FAD"/>
<stop offset="1" style="stop-color:#679FAD"/>
</radialGradient>
<path d="M20.37,41.951c0.3-0.437,0.234-0.799-0.258-1.333c-0.617-0.665-2.567-3.083-2.968-3.735  c-0.353-0.575-0.412-1.021-0.034-1.711c0.473-0.864,1.915-3.763,8.107-9.956c6.191-6.192,9.085-7.646,9.956-8.107  c0.76-0.4,1.038-0.345,1.711,0.035c0.666,0.377,3.069,2.352,3.735,2.967c0.534,0.492,0.872,0.588,1.299,0.274  c0.752-0.551,13.828-9.843,15.229-10.775c0.85-0.564,1.141-1.061,0.524-1.778c-2.476-2.889-8.594-5.015-10.751-5.399  c-1.923-0.345-3.876-0.872-6.567,0.235c-2.559,1.054-13.075,8.536-21.112,16.572C11.203,27.277,3.722,37.795,2.668,40.352  c-1.108,2.691-0.581,4.645-0.236,6.567c0.386,2.158,2.51,8.275,5.399,10.752c0.718,0.615,1.213,0.323,1.777-0.525  C10.542,55.745,19.852,42.705,20.37,41.951z" fill="url(#SVGID_1_)"/>
<linearGradient gradientTransform="matrix(0.7071 0.7071 -0.7071 0.7071 -98.2555 3084.1135)" gradientUnits="userSpaceOnUse" id="SVGID_2_" x1="-2070.7568" x2="-2070.3252" y1="-2266.8511" y2="-2263.2749">
<stop offset="0" style="stop-color:#5A7E9E"/>
<stop offset="1" style="stop-color:#1D1A33"/>
</linearGradient>
<path d="M35.172,17.108c0.76-0.4,1.038-0.345,1.711,0.035c0.666,0.377,3.069,2.352,3.735,2.967  c0.534,0.492,0.872,0.588,1.299,0.274c0.048-0.035,0.062-0.046,0.064-0.046c0.253-0.184,1.032-0.738,2.12-1.514  c-0.251-0.204-3.468-2.809-4.8-2.956C36.857,15.598,35.172,17.108,35.172,17.108z" fill="url(#SVGID_2_)"/>
<linearGradient gradientTransform="matrix(0.7071 0.7071 0.7071 -0.7071 -2128.2356 5114.0977)" gradientUnits="userSpaceOnUse" id="SVGID_3_" x1="-2070.7607" x2="-2070.3289" y1="5104.5752" y2="5108.1523">
<stop offset="0" style="stop-color:#5A7E9E"/>
<stop offset="1" style="stop-color:#1D1A33"/>
</linearGradient>
<path d="M17.092,35.188c-0.401,0.763-0.346,1.039,0.035,1.713c0.376,0.666,2.351,3.069,2.967,3.738  c0.493,0.531,0.587,0.869,0.274,1.298c-0.035,0.047-0.046,0.062-0.046,0.062c-0.183,0.253-0.738,1.032-1.515,2.119  c-0.204-0.252-2.807-3.467-2.956-4.799C15.579,36.875,17.092,35.188,17.092,35.188z" fill="url(#SVGID_3_)"/>
<linearGradient gradientUnits="userSpaceOnUse" id="SVGID_4_" x1="47.9224" x2="3.9991" y1="3.9307" y2="47.854">
<stop offset="0" style="stop-color:#C4E6D4"/>
<stop offset="1" style="stop-color:#7DA8B4"/>
</linearGradient>
<path d="M2.979,47.467c-0.344-1.925-0.873-3.878,0.235-6.567  c1.054-2.559,8.535-13.075,16.573-21.112C27.825,11.749,38.341,4.269,40.9,3.215c2.691-1.108,4.644-0.581,6.567-0.236  c1.981,0.354,7.296,2.178,10.069,4.711c-2.552-2.815-8.496-4.879-10.617-5.258c-1.923-0.345-3.876-0.872-6.567,0.235  c-2.559,1.054-13.075,8.536-21.112,16.572C11.203,27.277,3.722,37.795,2.668,40.352c-1.108,2.691-0.581,4.645-0.236,6.567  c0.378,2.122,2.441,8.065,5.258,10.617C5.156,54.763,3.333,49.448,2.979,47.467z" fill="url(#SVGID_4_)" fill-opacity="0.6" stroke-opacity="0.6"/>
<linearGradient gradientUnits="userSpaceOnUse" id="SVGID_5_" x1="54.3535" x2="3.9474" y1="3.2017" y2="53.6078">
<stop offset="0" style="stop-color:#C4E6D4"/>
<stop offset="1" style="stop-color:#7DA8B4"/>
</linearGradient>
<path d="M20.37,41.951c0.3-0.437,0.234-0.799-0.258-1.333  c-0.617-0.665-2.567-3.083-2.968-3.735c-0.353-0.575-0.412-1.021-0.034-1.711c0.473-0.864,1.915-3.763,8.107-9.956  c6.191-6.192,9.085-7.646,9.956-8.107c0.76-0.4,1.038-0.345,1.711,0.035c0.666,0.377,3.069,2.352,3.735,2.967  c0.534,0.492,0.872,0.588,1.299,0.274c0.752-0.551,13.828-9.843,15.229-10.775c0.85-0.564,1.141-1.061,0.524-1.778  c-0.292-0.339-0.634-0.665-1.013-0.982c0.49,0.657,0.198,1.134-0.607,1.666C54.65,9.447,41.576,18.739,40.825,19.29  c-0.431,0.314-0.767,0.219-1.3-0.273c-0.668-0.616-3.07-2.591-3.738-2.968c-0.672-0.38-0.948-0.436-1.71-0.034  c-0.871,0.46-3.764,1.914-9.956,8.106c-6.193,6.192-7.635,9.092-8.107,9.956c-0.378,0.69-0.319,1.135,0.035,1.711  c0.4,0.651,2.351,3.069,2.967,3.736c0.493,0.533,0.559,0.896,0.259,1.332c-0.517,0.755-9.828,13.794-10.76,15.195  c-0.533,0.803-1.008,1.098-1.665,0.606c0.314,0.378,0.644,0.723,0.981,1.013c0.718,0.615,1.213,0.323,1.777-0.525  C10.542,55.745,19.852,42.705,20.37,41.951z" fill="url(#SVGID_5_)" fill-opacity="0.6" stroke-opacity="0.6"/>
<linearGradient gradientTransform="matrix(0.7071 0.7071 -0.7071 0.7071 -141.776 3075.0667)" gradientUnits="userSpaceOnUse" id="SVGID_6_" x1="-2041.9355" x2="-2041.9355" y1="-2305.2153" y2="-2243.2966">
<stop offset="0" style="stop-color:#5A7E9E"/>
<stop offset="0.5091" style="stop-color:#1D1A33"/>
<stop offset="1" style="stop-color:#516C8F"/>
</linearGradient>
<path d="M2.899,45.012c1.275-2.777,10.299-14.804,18.804-23.31c8.505-8.506,20.532-17.529,23.308-18.803  c0.527-0.241,1.02-0.411,1.493-0.545c-0.511-0.096-1.03-0.19-1.565-0.26c-0.086,0.036-0.163,0.063-0.25,0.102  c-2.818,1.293-14.971,10.397-23.533,18.959C12.595,29.717,3.489,41.869,2.195,44.688c-0.038,0.087-0.063,0.166-0.101,0.25  c0.07,0.535,0.166,1.055,0.259,1.565C2.489,46.03,2.658,45.539,2.899,45.012z" fill="url(#SVGID_6_)"/>
<rect fill="none" height="60" width="60"/>
</g>
<g>
<rect fill="none" height="30" width="30"/>
<rect fill="none" height="30" width="30"/>
<path d="M20.74,16.008L21.732,17L30,8.733l-4.488-4.486l-4.131,4.132l1.613-6.023l-6.129-1.643l-2.32,8.654  l-4.027-4.185L0,16.008h5.752v3.212c0,6.398,4.527,10.067,12.42,10.067h0.943v-8.079h-0.943c-0.998,0-2.881-0.416-2.881-1.988  v-3.212H20.74z M18.381,11.377l-0.969,0.969l-1.594-1.655L18.381,11.377z" fill-opacity="0.35" stroke-opacity="0.35"/>
<linearGradient gradientTransform="matrix(1 0 0 -1 2194 3121.6689)" gradientUnits="userSpaceOnUse" id="SVGID_1__" x1="-2183.5244" x2="-2183.5244" y1="3114.3159" y2="3092.6184">
<stop offset="0" style="stop-color:#C6957B"/>
<stop offset="1" style="stop-color:#73414B"/>
</linearGradient>
<path d="M14.346,19.22v-4.157h4.369l-8.201-8.521l-8.277,8.521h4.461v4.157c0,7.027,5.848,9.122,11.475,9.122  v-6.188C16.438,22.154,14.346,21.298,14.346,19.22z" fill="url(#SVGID_1__)"/>
<linearGradient gradientUnits="userSpaceOnUse" id="SVGID_2__" x1="10.4756" x2="10.4756" y1="6.6836" y2="23.1265">
<stop offset="0" style="stop-color:#C8A885"/>
<stop offset="1" style="stop-color:#73414B"/>
</linearGradient>
<polygon fill="url(#SVGID_2__)" points="10.514,7.505 17.787,15.063 18.715,15.063 10.514,6.542 2.236,15.063 3.172,15.063 "/>
<linearGradient gradientUnits="userSpaceOnUse" id="SVGID_3__" x1="16.2588" x2="16.2588" y1="6.6821" y2="23.1266">
<stop offset="0" style="stop-color:#C8A885"/>
<stop offset="1" style="stop-color:#73414B"/>
</linearGradient>
<path d="M14.346,19.22v0.964c0,2.077,2.092,2.934,3.826,2.934v-0.963  C16.438,22.154,14.346,21.298,14.346,19.22z" fill="url(#SVGID_3__)"/>
<linearGradient gradientUnits="userSpaceOnUse" id="SVGID_4__" x1="19.6777" x2="17.6734" y1="2.3481" y2="10.087">
<stop offset="0" style="stop-color:#CDB18B"/>
<stop offset="0.703" style="stop-color:#985954"/>
<stop offset="1" style="stop-color:#BE997B"/>
</linearGradient>
<polygon fill="url(#SVGID_4__)" points="15.459,9.616 17.533,1.871 21.836,3.024 19.762,10.768 "/>
<linearGradient gradientUnits="userSpaceOnUse" id="SVGID_5__" x1="19.5371" x2="17.755" y1="2.8726" y2="9.7783">
<stop offset="0" style="stop-color:#C39072"/>
<stop offset="0.7939" style="stop-color:#88444B"/>
<stop offset="1" style="stop-color:#AF7563"/>
</linearGradient>
<polygon fill="url(#SVGID_5__)" points="19.445,10.223 16.004,9.3 17.85,2.416 21.291,3.338 "/>
<linearGradient gradientUnits="userSpaceOnUse" id="SVGID_6__" x1="27.0137" x2="20.1654" y1="7.1484" y2="14.1638">
<stop offset="0" style="stop-color:#CDB18B"/>
<stop offset="0.703" style="stop-color:#985954"/>
<stop offset="1" style="stop-color:#BE997B"/>
</linearGradient>
<polygon fill="url(#SVGID_6__)" points="18.582,12.513 25.512,5.584 28.662,8.733 21.732,15.663 "/>
<linearGradient gradientUnits="userSpaceOnUse" id="SVGID_7_" x1="26.7764" x2="20.5396" y1="7.4414" y2="13.7339">
<stop offset="0" style="stop-color:#C39072"/>
<stop offset="0.7939" style="stop-color:#88444B"/>
<stop offset="1" style="stop-color:#AF7563"/>
</linearGradient>
<polygon fill="url(#SVGID_7_)" points="21.732,15.034 19.213,12.513 25.512,6.213 28.031,8.733 "/>
</g>
<g transform="matrix(1 0 0 1 30 30)">
<linearGradient gradientUnits="userSpaceOnUse" id="SVGID_1___" x1="12.38" x2="17.62" y1="23.65" y2="23.65">
<stop offset="0" stop-color="#898A8B"/>
<stop offset="0.2606" stop-color="#BFC2C1"/>
<stop offset="0.6606" stop-color="#5D5F61"/>
<stop offset="1" stop-color="#979A9A"/>
</linearGradient>
<rect fill="url(#SVGID_1___)" height="7.853" width="5.105" x="12.45" y="19.72"/>
<path d="M12.45,24.66c0.82,0.199,1.673,0.315,2.553,0.315,0.881,0,1.732-0.116,2.553-0.315v-4.294h-5.105v4.285z" fill="#020202" fill-opacity="0.2" stroke-opacity="0.2"/>
<path d="M12.45,24.02c0.82,0.199,1.673,0.315,2.553,0.315,0.881,0,1.732-0.116,2.553-0.315v-4.294h-5.105v4.288z" fill="#020202" fill-opacity="0.2" stroke-opacity="0.2"/>
<linearGradient gradientUnits="userSpaceOnUse" id="SVGID_2___" x1="15" x2="15" y1="1.975" y2="23.67">
<stop offset="0" stop-color="#F2F2F2"/>
<stop offset="0.3212" stop-color="#E6E6E6"/>
<stop offset="1" stop-color="#666666"/>
</linearGradient>
<path d="M15,23.7c-5.98,0-10.85-4.867-10.85-10.85s4.87-10.85,10.85-10.85c5.982,0,10.85,4.866,10.85,10.85s-4.87,10.85-10.85,10.85z" fill="url(#SVGID_2___)"/>
<linearGradient gradientUnits="userSpaceOnUse" id="SVGID_3___" x1="15" x2="15" y1="2.614" y2="23.03">
<stop offset="0" stop-color="#D3D7D5"/>
<stop offset="0.0667" stop-color="#D3D7D5"/>
<stop offset="0.2606" stop-color="#BFC2C1"/>
<stop offset="0.6606" stop-color="#7F8384"/>
<stop offset="1" stop-color="#AFB3B2"/>
</linearGradient>
<circle cx="15" cy="12.85" fill="url(#SVGID_3___)" r="10.21"/>
<path d="M15,21.99c-5.315,0-9.657-4.23-9.843-9.5-0.004,0.116-0.009,0.231-0.009,0.349,0,5.431,4.419,9.851,9.852,9.851s9.852-4.42,9.852-9.851c0-0.117-0.005-0.232-0.009-0.349-0.18,5.27-4.52,9.5-9.84,9.5z" fill="#FFFFFF" fill-opacity="0.1" stroke-opacity="0.1"/>
<path d="M23.3,12.41c0,4.704-3.715,9.346-8.299,9.345-4.58-0.003-8.292-4.646-8.291-9.35,0.002-4.706,3.718-8.517,8.298-8.517,4.57,0.001,8.29,3.814,8.29,8.517z" fill="#222021" fill-opacity="0.3" stroke-opacity="0.3"/>
<path d="M15,21.07c-2.387-0.002-4.63-0.932-6.315-2.619-1.688-1.688-2.615-3.932-2.614-6.318,0-4.923,4.009-8.929,8.935-8.929,2.387,0,4.632,0.931,6.317,2.618,1.688,1.688,2.616,3.933,2.615,6.318-0.002,4.924-4.01,8.93-8.934,8.93h-0.014z" fill="#222021" fill-opacity="0.2" stroke-opacity="0.2"/>
<linearGradient gradientUnits="userSpaceOnUse" id="SVGID_4___" x1="15" x2="15" y1="3.721" y2="20.35">
<stop offset="0" stop-color="#CFCFCF"/>
<stop offset="0.1091" stop-color="#CFCFCF"/>
<stop offset="0.6848" stop-color="#121212"/>
<stop offset="1" stop-color="#A6A6A6"/>
</linearGradient>
<path d="M15,20.43c-2.216-0.002-4.298-0.864-5.864-2.432-1.567-1.566-2.428-3.65-2.427-5.866,0-4.573,3.723-8.293,8.296-8.293,2.218,0.001,4.3,0.864,5.866,2.432s2.43,3.651,2.428,5.867c-0.001,4.573-3.723,8.292-8.295,8.292h-0.004z" fill="url(#SVGID_4___)"/>
<linearGradient gradientUnits="userSpaceOnUse" id="SVGID_5___" x1="15" x2="15" y1="4.368" y2="19.72">
<stop offset="0" stop-color="#F2F2F2"/>
<stop offset="1" stop-color="#636566"/>
</linearGradient>
<circle cx="15" cy="12.13" fill="url(#SVGID_5___)" r="7.657"/>
<linearGradient gradientUnits="userSpaceOnUse" id="SVGID_6___" x1="15" x2="15" y1="5.772" y2="18.45">
<stop offset="0" stop-color="#1A1A1A"/>
<stop offset="0.503" stop-color="#343434"/>
<stop offset="0.7515" stop-color="#9E9E9E"/>
<stop offset="1" stop-color="#CFCFCF"/>
</linearGradient>
<path d="M15,18.51c-1.706-0.001-3.309-0.666-4.514-1.871-1.204-1.206-1.867-2.808-1.867-4.512,0-3.517,2.862-6.378,6.382-6.378,1.706,0,3.308,0.664,4.513,1.871,1.205,1.205,1.868,2.808,1.867,4.513,0,3.51-2.86,6.37-6.38,6.37z" fill="url(#SVGID_6___)"/>
<radialGradient cx="25.77" cy="10.27" gradientTransform="matrix(1.0143 3.000000e-004 -3.000000e-004 1.0141 -10.5185 2.1979)" gradientUnits="userSpaceOnUse" id="SVGID_7__" r="6.499">
<stop offset="0" stop-color="#000000"/>
<stop offset="0.5917" stop-color="#000000"/>
<stop offset="0.627" stop-color="#050505"/>
<stop offset="0.7652" stop-color="#121212"/>
<stop offset="0.8876" stop-color="#171717"/>
<stop offset="1" stop-color="#171717"/>
</radialGradient>
<path d="M20.74,12.14c0,3.172-2.574,5.74-5.744,5.74-3.175-0.001-5.743-2.573-5.741-5.745,0-3.171,2.573-5.742,5.745-5.74,3.17-0.009,5.74,2.562,5.74,5.74z" fill="url(#SVGID_7__)"/>
<radialGradient cx="21.65" cy="5.066" gradientTransform="matrix(1.0143 0 0 1.0141 -9.5579 3.1299)" gradientUnits="userSpaceOnUse" id="SVGID_8_" r="10.35">
<stop offset="0" stop-color="#242424"/>
<stop offset="0.4303" stop-color="#242424"/>
<stop offset="0.7818" stop-color="#000000"/>
<stop offset="1" stop-color="#000000"/>
</radialGradient>
<circle cx="15" cy="12.13" fill="url(#SVGID_8_)" r="4.712"/>
<radialGradient cx="23.96" cy="3.55" gradientTransform="matrix(1.0143 3.000000e-004 -3.000000e-004 1.0141 -10.5185 2.1979)" gradientUnits="userSpaceOnUse" id="SVGID_9_" r="11.36">
<stop offset="0" stop-color="#8D4AAB"/>
<stop offset="0.3091" stop-color="#8D4AAB"/>
<stop offset="0.4364" stop-color="#532961"/>
<stop offset="0.8061" stop-color="#070F0F"/>
<stop offset="1" stop-color="#070F0F"/>
</radialGradient>
<path d="M19.21,12.13c0,2.326-1.886,4.21-4.212,4.21-2.326-0.002-4.213-1.888-4.213-4.212,0.004-2.327,1.89-4.21,4.213-4.21,2.33,0.003,4.21,1.888,4.21,4.21z" fill="url(#SVGID_9_)"/>
<radialGradient cx="25.17" cy="13.25" gradientTransform="matrix(1.0143 3.000000e-004 -3.000000e-004 1.0141 -10.5185 2.1979)" gradientUnits="userSpaceOnUse" id="SVGID_10_" r="4.611">
<stop offset="0" stop-color="#264932"/>
<stop offset="0.7879" stop-color="#000000"/>
<stop offset="1" stop-color="#000000"/>
</radialGradient>
<path d="M19.21,12.13c0,2.326-1.886,4.21-4.212,4.21-2.326-0.002-4.213-1.888-4.213-4.212,0,0,1.444,2.569,4.213,2.569,2.77,0,4.21-2.57,4.21-2.57z" fill="url(#SVGID_10_)"/>
<linearGradient gradientUnits="userSpaceOnUse" id="SVGID_11_" x1="14.98" x2="14.98" y1="7.065" y2="12.09">
<stop offset="0" stop-color="#FAFDFB"/>
<stop offset="1" stop-color="#808080"/>
</linearGradient>
<path d="M14.98,12.07c1.828,0,3.549-0.277,5.067-0.765-0.431-2.41-2.532-4.239-5.067-4.239-2.532,0-4.632,1.83-5.065,4.239,1.515,0.49,3.235,0.77,5.065,0.77z" fill="url(#SVGID_11_)" fill-opacity="0.35" stroke-opacity="0.35"/>
<linearGradient gradientUnits="userSpaceOnUse" id="SVGID_12_" x1="5.762" x2="24.29" y1="26.72" y2="26.72">
<stop offset="0" stop-color="#898A8B"/>
<stop offset="0.2606" stop-color="#BFC2C1"/>
<stop offset="0.6606" stop-color="#5D5F61"/>
<stop offset="1" stop-color="#979A9A"/>
</linearGradient>
<path d="M24.24,28c0.025-0.635,0.04-0.508,0.04-0.639v-0.035c0-1.037-0.852-1.879-1.901-1.879h-14.72c-1.05,0-1.9,0.842-1.9,1.879v0.035c0,0.131,0.014,0.004,0.04,0.639h18.44z" fill="url(#SVGID_12_)"/>
<path d="M5.879,26.7h18.29c-0.084-0.234-0.212-0.444-0.377-0.626h-17.53c-0.164,0.19-0.293,0.4-0.377,0.63z" fill="#FFFFFF" fill-opacity="0.2" stroke-opacity="0.2"/>
<path d="M5.772,27.36c0.007,0.13,0.017,0.32,0.03,0.64h18.44c0.012-0.316,0.022-0.508,0.028-0.639h-18.5z" fill="#020202" fill-opacity="0.2" stroke-opacity="0.2"/>
<path d="M6.255,26.07h17.54c-0.348-0.383-0.846-0.627-1.407-0.627h-14.72c-0.56,0.01-1.059,0.25-1.407,0.63z" fill="#FFFFFF" fill-opacity="0.4" stroke-opacity="0.4"/>
<rect fill="none" height="30" width="30"/>
</g>
</svg>
