<?xml version="1.0" encoding="UTF-8"?>
<!DOCTYPE svg PUBLIC "-//W3C//DTD SVG 1.1 Tiny//EN" "http://www.w3.org/Graphics/SVG/1.1/DTD/svg11-tiny.dtd">
<svg baseProfile="tiny" height="30px" version="1.1" viewBox="0 0 30 30" width="30px" x="0px" xmlns="http://www.w3.org/2000/svg" xmlns:xlink="http://www.w3.org/1999/xlink" y="0px">
<path d="M17,21c0,1.104-0.896,2-2,2l0,0c-1.104,0-2-0.896-2-2V10c0-1.104,0.896-2,2-2l0,0c1.104,0,2,0.896,2,2V21z"/>
<path d="M11,18c0,0.553-0.447,1-1,1l0,0c-0.553,0-1-0.447-1-1v-5c0-0.553,0.447-1,1-1l0,0c0.553,0,1,0.447,1,1V18z"/>
<path d="M7,18c0,0.553-0.447,1-1,1l0,0c-0.553,0-1-0.447-1-1v-5c0-0.553,0.447-1,1-1l0,0c0.553,0,1,0.447,1,1V18z"/>
<path d="M3,18c0,0.553-0.447,1-1,1l0,0c-0.553,0-1-0.447-1-1v-5c0-0.553,0.447-1,1-1l0,0c0.553,0,1,0.447,1,1V18z"/>
<path d="M21,18c0,0.553-0.447,1-1,1l0,0c-0.553,0-1-0.447-1-1v-5c0-0.553,0.447-1,1-1l0,0c0.553,0,1,0.447,1,1V18z"/>
<path d="M25,18c0,0.553-0.447,1-1,1l0,0c-0.553,0-1-0.447-1-1v-5c0-0.553,0.447-1,1-1l0,0c0.553,0,1,0.447,1,1V18z"/>
<path d="M29,18c0,0.553-0.447,1-1,1l0,0c-0.553,0-1-0.447-1-1v-5c0-0.553,0.447-1,1-1l0,0c0.553,0,1,0.447,1,1V18z"/>
<g fill-opacity="0.5" stroke-opacity="0.5">
<rect fill="none" height="30" width="30"/>
</g>
</svg>
