<?xml version="1.0" encoding="UTF-8"?>
<!DOCTYPE svg PUBLIC "-//W3C//DTD SVG 1.1 Tiny//EN" "http://www.w3.org/Graphics/SVG/1.1/DTD/svg11-tiny.dtd">
<svg baseProfile="tiny" height="60" viewBox="0 0 60 60" width="60" xmlns="http://www.w3.org/2000/svg" xmlns:xlink="http://www.w3.org/1999/xlink">
<g>
<rect fill="none" height="60" width="60"/>
<linearGradient gradientTransform="matrix(1 0 0 -1 8.3999 35.04)" gradientUnits="userSpaceOnUse" id="SVGID_1_" x1="21.5996" x2="21.5996" y1="23.4971" y2="-23.1007">
<stop offset="0" style="stop-color:#F0F4F1"/>
<stop offset="0.7308" style="stop-color:#838585"/>
<stop offset="1" style="stop-color:#D3DBD7"/>
</linearGradient>
<path d="M6.505,55.064C6.505,56.68,7.809,58,9.401,58h41.197  c1.594,0,2.896-1.32,2.896-2.936V14.48c0-1.615-1.303-2.937-2.896-2.937H9.401c-1.592,0-2.896,1.321-2.896,2.937V55.064z" fill="url(#SVGID_1_)" fill-opacity="0.6" stroke-opacity="0.6"/>
<linearGradient gradientTransform="matrix(1 0 0 -1 8.3999 35.04)" gradientUnits="userSpaceOnUse" id="SVGID_2_" x1="21.6001" x2="21.6001" y1="22.0293" y2="-21.623">
<stop offset="0" style="stop-color:#E7EBE8"/>
<stop offset="0.6727" style="stop-color:#A4A9A8"/>
<stop offset="1" style="stop-color:#C9CCCB"/>
</linearGradient>
<path d="M50.598,56.531H9.401c-0.789,0-1.427-0.66-1.427-1.477V14.48c0-0.809,0.638-1.469,1.427-1.469h41.197  c0.785,0,1.428,0.66,1.428,1.469v40.575C52.025,55.871,51.383,56.531,50.598,56.531L50.598,56.531z" fill="url(#SVGID_2_)"/>
<g>
<path d="M24,47.958c-6.556,0-11.892-5.335-11.892-11.896   c0-6.556,5.335-11.889,11.892-11.889c6.557,0,11.891,5.333,11.891,11.889C35.891,42.623,30.557,47.958,24,47.958L24,47.958z" fill-opacity="0.5" stroke-opacity="0.5"/>
<linearGradient gradientTransform="matrix(1 0 0 -1 8.3999 35.04)" gradientUnits="userSpaceOnUse" id="SVGID_3_" x1="3.5708" x2="26.8214" y1="-0.2554" y2="-0.2554">
<stop offset="0" style="stop-color:#262626"/>
<stop offset="0.3879" style="stop-color:#CCCCCC"/>
<stop offset="0.7091" style="stop-color:#262626"/>
<stop offset="1" style="stop-color:#757575"/>
</linearGradient>
<path d="M35.453,35.295c0,6.323-5.125,11.454-11.454,11.454c-6.323,0-11.453-5.131-11.453-11.454   c0-6.332,5.13-11.453,11.453-11.453C30.328,23.842,35.453,28.963,35.453,35.295z" fill="url(#SVGID_3_)"/>
<linearGradient gradientTransform="matrix(1 0 0 -1 8.3999 35.04)" gradientUnits="userSpaceOnUse" id="SVGID_4_" x1="15.6006" x2="15.6006" y1="9.3652" y2="-9.4998">
<stop offset="0" style="stop-color:#999999"/>
<stop offset="1" style="stop-color:#000000"/>
</linearGradient>
<path d="M24,45.249c-6.04,0-10.953-4.913-10.953-10.954c0-6.04,4.914-10.953,10.953-10.953   s10.954,4.913,10.954,10.953C34.953,40.336,30.039,45.249,24,45.249L24,45.249z" fill="url(#SVGID_4_)"/>
<path d="M13.188,16.536c0,4.259,2.52,8.104,6.36,9.848v6.69   c0,2.451,1.996,4.451,4.451,4.451c2.456,0,4.452-2,4.452-4.451v-6.69c3.84-1.744,6.359-5.589,6.359-9.848   c0-1.805-0.455-3.5-1.24-4.992H14.428C13.643,13.036,13.188,14.731,13.188,16.536z" fill-opacity="0.25" stroke-opacity="0.25"/>
<path d="M20.329,18.189v16.886c0,2.028,1.644,3.672,3.671,3.672   c2.027,0,3.67-1.644,3.67-3.672V18.189H20.329z" fill-opacity="0.5" stroke-opacity="0.5"/>
<linearGradient gradientTransform="matrix(1 0 0 -1 8.3999 35.04)" gradientUnits="userSpaceOnUse" id="SVGID_5_" x1="11.9292" x2="19.27" y1="7.5596" y2="7.5596">
<stop offset="0" style="stop-color:#6E6E6E"/>
<stop offset="0.3455" style="stop-color:#E0E0E0"/>
<stop offset="0.7515" style="stop-color:#838383"/>
<stop offset="1" style="stop-color:#C9C9C9"/>
</linearGradient>
<path d="M20.329,17.206v16.877c0,2.028,1.644,3.672,3.671,3.672c2.027,0,3.67-1.644,3.67-3.672V17.206   H20.329z" fill="url(#SVGID_5_)"/>
<path d="M20.329,22.951c1.151,0.404,2.382,0.635,3.671,0.635   c1.29,0,2.52-0.23,3.67-0.635v-9.646h-7.341V22.951z" fill-opacity="0.5" stroke-opacity="0.5"/>
<radialGradient cx="15.5718" cy="32.6318" gradientTransform="matrix(1 0 0 -1 8.3999 35.04)" gradientUnits="userSpaceOnUse" id="SVGID_6_" r="19.0015">
<stop offset="0" style="stop-color:#B6C393"/>
<stop offset="0.1333" style="stop-color:#B6C393"/>
<stop offset="0.4848" style="stop-color:#5E8D4A"/>
<stop offset="0.7091" style="stop-color:#356742"/>
<stop offset="0.8545" style="stop-color:#447B42"/>
<stop offset="1" style="stop-color:#8DA369"/>
</radialGradient>
<path d="M34.059,12.059c0,5.56-4.502,10.057-10.059,10.057c-5.556,0-10.058-4.497-10.058-10.057   C13.941,6.505,18.443,2,24,2C29.557,2,34.059,6.505,34.059,12.059z" fill="url(#SVGID_6_)"/>
</g>
<g>
<path d="M44.482,31.73c-3.273,0-5.938-2.663-5.938-5.939   c0-3.271,2.664-5.934,5.938-5.934s5.936,2.663,5.936,5.934C50.418,29.068,47.756,31.73,44.482,31.73L44.482,31.73z" fill-opacity="0.5" stroke-opacity="0.5"/>
<linearGradient gradientTransform="matrix(1 0 0 -1 8.3999 35.04)" gradientUnits="userSpaceOnUse" id="SVGID_7_" x1="30.0771" x2="41.6829" y1="9.6299" y2="9.6299">
<stop offset="0" style="stop-color:#262626"/>
<stop offset="0.3879" style="stop-color:#CCCCCC"/>
<stop offset="0.7091" style="stop-color:#262626"/>
<stop offset="1" style="stop-color:#757575"/>
</linearGradient>
<path d="M50.199,25.41c0,3.157-2.558,5.717-5.717,5.717c-3.156,0-5.718-2.56-5.718-5.717   c0-3.161,2.562-5.717,5.718-5.717C47.642,19.693,50.199,22.249,50.199,25.41z" fill="url(#SVGID_7_)"/>
<linearGradient gradientTransform="matrix(1 0 0 -1 8.3999 35.04)" gradientUnits="userSpaceOnUse" id="SVGID_8_" x1="36.082" x2="36.082" y1="14.4321" y2="5.0154">
<stop offset="0" style="stop-color:#C39072"/>
<stop offset="0.7939" style="stop-color:#88444B"/>
<stop offset="1" style="stop-color:#AF7563"/>
</linearGradient>
<path d="M44.482,30.377c-3.016,0-5.469-2.451-5.469-5.467c0-3.017,2.453-5.469,5.469-5.469   c3.014,0,5.469,2.452,5.469,5.469C49.951,27.926,47.498,30.377,44.482,30.377L44.482,30.377z" fill="url(#SVGID_8_)"/>
</g>
<g>
<path d="M44.48,50.206c-3.271,0-5.937-2.661-5.937-5.938   c0-3.271,2.664-5.933,5.937-5.933s5.938,2.662,5.938,5.933C50.418,47.545,47.754,50.206,44.48,50.206L44.48,50.206z" fill-opacity="0.5" stroke-opacity="0.5"/>
<linearGradient gradientTransform="matrix(1 0 0 -1 8.3999 35.04)" gradientUnits="userSpaceOnUse" id="SVGID_9_" x1="30.0771" x2="41.6834" y1="-8.8452" y2="-8.8452">
<stop offset="0" style="stop-color:#262626"/>
<stop offset="0.3879" style="stop-color:#CCCCCC"/>
<stop offset="0.7091" style="stop-color:#262626"/>
<stop offset="1" style="stop-color:#757575"/>
</linearGradient>
<circle cx="44.48" cy="43.885" fill="url(#SVGID_9_)" r="5.718"/>
<linearGradient gradientTransform="matrix(1 0 0 -1 8.3999 35.04)" gradientUnits="userSpaceOnUse" id="SVGID_10_" x1="36.0811" x2="36.0811" y1="-4.0439" y2="-13.4606">
<stop offset="0" style="stop-color:#72B9C3"/>
<stop offset="0.1576" style="stop-color:#72B9C3"/>
<stop offset="0.8242" style="stop-color:#546F9F"/>
<stop offset="1" style="stop-color:#5A82A7"/>
</linearGradient>
<path d="M44.48,48.854c-3.015,0-5.467-2.453-5.467-5.47c0-3.015,2.452-5.466,5.467-5.466   c3.016,0,5.469,2.451,5.469,5.466C49.949,46.4,47.496,48.854,44.48,48.854L44.48,48.854z" fill="url(#SVGID_10_)"/>
</g>
</g>
</svg>
