<?xml version="1.0" encoding="UTF-8"?>
<!DOCTYPE svg PUBLIC "-//W3C//DTD SVG 1.1 Tiny//EN" "http://www.w3.org/Graphics/SVG/1.1/DTD/svg11-tiny.dtd">
<svg baseProfile="tiny" height="30px" version="1.1" viewBox="0 0 30 30" width="30px" x="0px" xmlns="http://www.w3.org/2000/svg" xmlns:xlink="http://www.w3.org/1999/xlink" y="0px">
<g fill-opacity="0.5" stroke-opacity="0.5">
<rect fill="none" height="30" width="30"/>
</g>
<path d="M28.908,18.236l-7.671-2.057c-0.341-0.139-0.547-0.473-0.461-0.799l0.571-2.26c-0.002,0-0.008,0-0.01,0  c0.001,0,0.002-0.002,0.002-0.002c-1.125-0.355-3.859-0.922-5.933-0.924c-2.159,0.002-4.325,0.162-6.604,0.766  c0,0-0.009,0.002-0.012,0.002c0.006,0.008,0.012,0.014,0.017,0.02l0.648,2.953c0.081,0.375-0.194,0.738-0.608,0.816l-7.822,1.486  c-0.412,0.076-0.811-0.162-0.891-0.537c0,0-0.068-0.324-0.126-1.223l-0.001-0.002c-0.031-0.49,0.042-0.586,0.092-1.131  c0.043-0.465,0.126-0.885,0.219-1.254c0,0-0.003-0.002-0.002-0.004c0.019-0.074,0.039-0.145,0.059-0.217  c0.002-0.008,0.005-0.018,0.006-0.025c0.203-0.719,0.43-1.17,0.43-1.17c0.338-0.572,1.855-2.186,3.813-3.068  C5.867,9.049,10.514,8,14.718,8c4.205-0.002,9.565,1.174,11.438,2.178s2.946,2.211,3.165,2.67c0,0,0.59,1.164,0.658,2.688  c0.023,0.51,0.037,0.543-0.01,1.002l-0.003,0.004v-0.004c-0.094,0.908-0.161,1.244-0.161,1.244  C29.71,18.139,29.308,18.344,28.908,18.236z"/>
</svg>
