<?xml version="1.0" encoding="UTF-8"?>
<!DOCTYPE svg PUBLIC "-//W3C//DTD SVG 1.1 Tiny//EN" "http://www.w3.org/Graphics/SVG/1.1/DTD/svg11-tiny.dtd">
<svg baseProfile="tiny" height="30px" version="1.1" viewBox="-3 0 30 30" width="30px" x="0px" xmlns="http://www.w3.org/2000/svg" xmlns:xlink="http://www.w3.org/1999/xlink" y="0px">
<path d="M18,23.051V23h-3c-1.103,0-2-0.898-2-2v-7.007l3.002-0.002c0.784-0.001,1.496-0.46,1.82-1.175  C17.941,12.553,18,12.271,18,11.992c0-0.477-0.17-0.947-0.496-1.318l-7-7.992C10.125,2.248,9.576,2,9,2  C8.423,2,7.875,2.249,7.494,2.684l-6.999,8C0.17,11.055,0,11.525,0,12c0,0.28,0.059,0.563,0.18,0.827  C0.504,13.541,1.217,14,2.002,14L5,13.998V20c0,4.418,3.582,8,8,8h5v-0.051c1.141-0.231,2-1.24,2-2.449S19.141,23.282,18,23.051z"/>
<rect height="3.615" transform="matrix(0.903 -0.4296 0.4296 0.903 -1.1617 10.8206)" width="6.283" x="20.244" y="6.176"/>
<rect height="3.615" transform="matrix(0.3908 -0.9205 0.9205 0.3908 7.7888 18.9653)" width="6.283" x="15.08" y="1.791"/>
</svg>
