<?xml version="1.0" encoding="UTF-8"?>
<!DOCTYPE svg PUBLIC "-//W3C//DTD SVG 1.1 Tiny//EN" "http://www.w3.org/Graphics/SVG/1.1/DTD/svg11-tiny.dtd">
<svg baseProfile="tiny" height="30px" version="1.1" viewBox="0 0 30 30" width="30px" x="0px" xmlns="http://www.w3.org/2000/svg" xmlns:xlink="http://www.w3.org/1999/xlink" y="0px">
<path d="M7.744,11.378c-0.412,0-0.72,0.2-0.939,0.612c-0.239,0.446-0.36,1.295-0.36,2.521c0,1.159,0.121,2.035,0.359,2.604  c0.218,0.519,0.525,0.771,0.94,0.771c0.41,0,0.717-0.214,0.938-0.654c0.24-0.479,0.362-1.394,0.362-2.72  c0-1.196-0.12-2.038-0.358-2.502C8.467,11.584,8.159,11.378,7.744,11.378z"/>
<path d="M27,4H3C1.896,4,1,4.896,1,6v18c0,1.104,0.896,2,2,2h24c1.104,0,2-0.896,2-2V6C29,4.896,28.104,4,27,4z M10.495,17.789  C10.09,18.53,9.49,19,8.711,19.188c0.06,0.196,0.139,0.349,0.236,0.456c0.063,0.07,0.251,0.187,0.801,0.187h0.2v1.326H9.361  c-0.765,0-1.36-0.161-1.77-0.479c-0.389-0.302-0.683-0.812-0.873-1.517c-0.763-0.225-1.35-0.707-1.746-1.435  c-0.405-0.743-0.61-1.825-0.61-3.216c0-1.521,0.283-2.668,0.841-3.404c0.57-0.755,1.425-1.138,2.541-1.138  c1.12,0,1.978,0.384,2.55,1.14c0.56,0.74,0.844,1.885,0.844,3.402C11.138,15.906,10.921,17.01,10.495,17.789z M17.026,11.65  l-0.257-0.076c-0.44-0.131-0.837-0.196-1.18-0.196c-0.548,0-0.947,0.237-1.22,0.727c-0.29,0.521-0.438,1.321-0.438,2.384  c0,1.24,0.151,2.135,0.451,2.66c0.282,0.496,0.694,0.737,1.259,0.737c0.352,0,0.731-0.057,1.13-0.168l0.254-0.071v1.413l-0.148,0.04  c-0.479,0.129-0.976,0.194-1.476,0.194c-1.172,0-2.07-0.384-2.668-1.14c-0.586-0.742-0.884-1.959-0.884-3.619  c0-1.492,0.299-2.634,0.889-3.395c0.602-0.777,1.51-1.171,2.698-1.171c0.477,0,0.961,0.065,1.44,0.194l0.148,0.04V11.65z   M20.788,11.472h-0.721v6.32h0.721V19.2h-3.459v-1.408h0.721v-6.32h-0.721v-1.408h3.459V11.472z M26.56,11.472h-2.877v2.359h2.244  v1.42h-2.244V19.2h-2.012v-9.137h4.889V11.472z"/>
<g fill-opacity="0.5" stroke-opacity="0.5">
<rect fill="none" height="30" width="30"/>
</g>
</svg>
