<?xml version="1.0" encoding="UTF-8"?>
<!DOCTYPE svg PUBLIC "-//W3C//DTD SVG 1.1 Tiny//EN" "http://www.w3.org/Graphics/SVG/1.1/DTD/svg11-tiny.dtd">
<svg baseProfile="tiny" height="60" viewBox="0 0 60 60" width="60" xmlns="http://www.w3.org/2000/svg" xmlns:xlink="http://www.w3.org/1999/xlink">
<g>
<rect fill="none" height="60" width="60"/>
<linearGradient gradientUnits="userSpaceOnUse" id="SVGID_1_" x1="29.998" x2="29.998" y1="5.7212" y2="28.1196">
<stop offset="0" style="stop-color:#AFB3B2"/>
<stop offset="1" style="stop-color:#595A5B"/>
</linearGradient>
<path d="M49.198,26.8c0,0.885-0.717,1.6-1.601,1.6H12.398c-0.883,0-1.6-0.715-1.6-1.6V7.601  c0-0.883,0.717-1.6,1.6-1.6h35.199c0.884,0,1.601,0.717,1.601,1.6V26.8z" fill="url(#SVGID_1_)"/>
<linearGradient gradientUnits="userSpaceOnUse" id="SVGID_2_" x1="29.999" x2="29.999" y1="17.6411" y2="46.4399">
<stop offset="0" style="stop-color:#E0E3E1"/>
<stop offset="0.6909" style="stop-color:#C5CCC9"/>
<stop offset="1" style="stop-color:#9DA1A1"/>
</linearGradient>
<path d="M57.998,43.6c0,1.769-1.432,3.2-3.201,3.2H5.199C3.434,46.8,2,45.368,2,43.6V21.2  c0-1.766,1.434-3.199,3.199-3.199h49.598c1.77,0,3.201,1.434,3.201,3.199V43.6z" fill="url(#SVGID_2_)"/>
<linearGradient gradientUnits="userSpaceOnUse" id="SVGID_3_" x1="30" x2="30" y1="18.9814" y2="45.166">
<stop offset="0" style="stop-color:#BFC2C1"/>
<stop offset="0.3515" style="stop-color:#E0E3E1"/>
<stop offset="0.6545" style="stop-color:#989D9D"/>
<stop offset="0.9636" style="stop-color:#AFB3B2"/>
<stop offset="1" style="stop-color:#5B5B5D"/>
</linearGradient>
<path d="M54.8,45.493H5.199c-1.043,0-1.893-0.849-1.893-1.893V21.2c0-1.043,0.85-1.892,1.893-1.892H54.8  c1.044,0,1.893,0.849,1.893,1.892v22.4C56.692,44.645,55.844,45.493,54.8,45.493L54.8,45.493z" fill="url(#SVGID_3_)"/>
<linearGradient gradientUnits="userSpaceOnUse" id="SVGID_4_" x1="29.998" x2="29.998" y1="37.9102" y2="45.1094">
<stop offset="0" style="stop-color:#131314"/>
<stop offset="0.2424" style="stop-color:#262628"/>
<stop offset="1" style="stop-color:#454646"/>
</linearGradient>
<rect fill="url(#SVGID_4_)" height="7.199" width="38.399" x="10.799" y="38"/>
<rect fill="#FFFFFF" fill-opacity="0.2" height="1.307" stroke-opacity="0.2" width="38.399" x="10.799" y="36.693"/>
<rect fill="#6E6E6F" height="0.799" width="36.797" x="11.6" y="54.8"/>
<linearGradient gradientUnits="userSpaceOnUse" id="SVGID_5_" x1="29.998" x2="29.998" y1="42.6509" y2="54.6499">
<stop offset="0" style="stop-color:#595A5B"/>
<stop offset="0.7879" style="stop-color:#989D9D"/>
<stop offset="1" style="stop-color:#AFB3B2"/>
</linearGradient>
<polygon fill="url(#SVGID_5_)" points="49.198,42.801 48.396,42.801 11.6,42.801 10.799,42.801 10.799,43.6 11.6,43.6 11.6,54.8   48.396,54.8 48.396,43.6 49.198,43.6 "/>
<rect fill="#020202" fill-opacity="0.15" height="12" stroke-opacity="0.15" width="35.199" x="12.398" y="6.001"/>
<linearGradient gradientUnits="userSpaceOnUse" id="SVGID_6_" x1="30" x2="30" y1="2.002" y2="18.7534">
<stop offset="0" style="stop-color:#D9D9D9"/>
<stop offset="0.5382" style="stop-color:#B3B3B3"/>
<stop offset="1" style="stop-color:#B3B3B3"/>
</linearGradient>
<rect fill="url(#SVGID_6_)" height="15.999" width="33.599" x="13.2" y="2.002"/>
<path d="M21.665,2.002c0,0,14.519,2.2,19.918,9.599  c0,0,4.081-5.6,5.216-2.555C46.226,6.105,41.045,1.897,21.665,2.002z" fill="#050505" fill-opacity="0.05" fill-rule="evenodd" stroke-opacity="0.05"/>
<path d="M21.665,2.002c0,0,14.519,0.6,19.918,8.001  c0,0,4.081-4.801,5.216-0.957C46.226,6.105,41.045,1.897,21.665,2.002z" fill="#050505" fill-opacity="0.1" fill-rule="evenodd" stroke-opacity="0.1"/>
<linearGradient gradientUnits="userSpaceOnUse" id="SVGID_7_" x1="34.9932" x2="33.4854" y1="2.6978" y2="8.2986">
<stop offset="0" style="stop-color:#FFFFFF"/>
<stop offset="0.0061" style="stop-color:#FFFFFF"/>
<stop offset="1" style="stop-color:#D9D9D9"/>
</linearGradient>
<path d="M21.665,2.002c0,0,14.519,0.13,19.918,7.528  c0,0,3.866-4.768,5.216-0.484C46.226,6.105,41.045,1.897,21.665,2.002z" fill="url(#SVGID_7_)" fill-rule="evenodd"/>
<rect fill="#020202" fill-opacity="0.2" height="12.798" stroke-opacity="0.2" width="35.199" x="12.398" y="42.801"/>
<linearGradient gradientUnits="userSpaceOnUse" id="SVGID_8_" x1="30" x2="30" y1="40.3994" y2="58.4715">
<stop offset="0" style="stop-color:#F5F5F5"/>
<stop offset="0.8606" style="stop-color:#8F8F8F"/>
<stop offset="1" style="stop-color:#A6A6A6"/>
</linearGradient>
<rect fill="url(#SVGID_8_)" height="17.601" width="33.599" x="13.2" y="40.399"/>
<linearGradient gradientUnits="userSpaceOnUse" id="SVGID_9_" x1="30" x2="30" y1="39.6006" y2="57.6697">
<stop offset="0" style="stop-color:#F5F5F5"/>
<stop offset="0.7818" style="stop-color:#CCCCCC"/>
<stop offset="1" style="stop-color:#D1D1D1"/>
</linearGradient>
<polygon fill="url(#SVGID_9_)" points="46.799,57.198 38.332,57.198 34.611,57.112 20.8,55.063 14.338,51.975 13.642,51.294   13.2,50.225 13.2,39.601 46.799,39.601 "/>
<linearGradient gradientUnits="userSpaceOnUse" id="SVGID_10_" x1="38.749" x2="22.3049" y1="37.021" y2="56.1539">
<stop offset="0" style="stop-color:#D4EDDD"/>
<stop offset="0.3758" style="stop-color:#5F8BA1"/>
<stop offset="0.6909" style="stop-color:#455188"/>
<stop offset="1" style="stop-color:#455188"/>
</linearGradient>
<polygon fill="url(#SVGID_10_)" points="45.199,54.8 22.799,54.8 14.801,52.398 14.801,39.601 45.199,39.601 "/>
<linearGradient gradientTransform="matrix(0.8734 -0.108 0.1257 0.9176 55.8475 218.6808)" gradientUnits="userSpaceOnUse" id="SVGID_11_" x1="-7.1758" x2="-5.4868" y1="-190.3931" y2="-184.663">
<stop offset="0" style="stop-color:#8FB34D"/>
<stop offset="1" style="stop-color:#2B644B"/>
</linearGradient>
<path d="M32.764,41.259c0,0-10.45,3.05-11.486,13.332C21.277,54.591,32.56,51.987,32.764,41.259z" fill="url(#SVGID_11_)"/>
<linearGradient gradientUnits="userSpaceOnUse" id="SVGID_12_" x1="24.5244" x2="17.7473" y1="44.6128" y2="48.3141">
<stop offset="0" style="stop-color:#8FB34D"/>
<stop offset="1" style="stop-color:#2B644B"/>
</linearGradient>
<path d="M18.223,39.601c0,0,6.994,6.28,6.553,15.199h-1.977l-7.998-3.039v-12.16H18.223z" fill="url(#SVGID_12_)"/>
<linearGradient gradientUnits="userSpaceOnUse" id="SVGID_13_" x1="13.4502" x2="18.0304" y1="47.0591" y2="46.2696">
<stop offset="0" style="stop-color:#8FB34D"/>
<stop offset="1" style="stop-color:#2B644B"/>
</linearGradient>
<path d="M14.801,39.601v12.798c0,0,4.039,1.376,4.026,0.881c-0.196-7.036-2.468-11.459-4.024-13.679H14.801z  " fill="url(#SVGID_13_)"/>
<linearGradient gradientUnits="userSpaceOnUse" id="SVGID_14_" x1="29.6777" x2="37.6251" y1="46.6196" y2="52.8009">
<stop offset="0" style="stop-color:#8FB34D"/>
<stop offset="1" style="stop-color:#2B644B"/>
</linearGradient>
<path d="M22.893,54.8c0,0,2.605-8.37,20.937-10.631c0,0-1.723,7.344-9.751,10.631H22.893z" fill="url(#SVGID_14_)"/>
<linearGradient gradientUnits="userSpaceOnUse" id="SVGID_15_" x1="38.2305" x2="26.6075" y1="43.4058" y2="56.9659">
<stop offset="0" style="stop-color:#8FB34D"/>
<stop offset="1" style="stop-color:#2B644B"/>
</linearGradient>
<path d="M43.801,44.278c0.018-0.069,0.028-0.109,0.028-0.109C25.092,46.172,22.893,54.8,22.893,54.8h0.479  C23.372,54.8,24.978,46.563,43.801,44.278z" fill="url(#SVGID_15_)"/>
<linearGradient gradientUnits="userSpaceOnUse" id="SVGID_16_" x1="39.4199" x2="34.4577" y1="53.3096" y2="48.4554">
<stop offset="0" style="stop-color:#8FB34D"/>
<stop offset="1" style="stop-color:#2B644B"/>
</linearGradient>
<path d="M27.33,54.8c0,0,6.406-2.688,16.471-10.521c-0.225,2.718-2.982,8.391-9.723,10.521H27.33z" fill="url(#SVGID_16_)"/>
<rect fill="#FFFFFF" fill-opacity="0.3" height="0.801" stroke-opacity="0.3" width="21.6" x="23.6" y="53.999"/>
<path d="M38.332,57.198c0,0-14.518-1.398-19.918-8.799  c0,0-3.866,6.038-5.214,1.756C13.774,53.095,18.955,57.304,38.332,57.198z" fill="#050505" fill-opacity="0.1" fill-rule="evenodd" stroke-opacity="0.1"/>
<path d="M38.332,57.198c0,0-14.508-0.513-19.908-7.91  c0,0-3.876,5.149-5.224,0.867C13.774,53.095,18.955,57.304,38.332,57.198z" fill="#050505" fill-opacity="0.2" fill-rule="evenodd" stroke-opacity="0.2"/>
<linearGradient gradientUnits="userSpaceOnUse" id="SVGID_17_" x1="25.8027" x2="24.4534" y1="53.5825" y2="57.1418">
<stop offset="0" style="stop-color:#FEFEFE"/>
<stop offset="0.8182" style="stop-color:#E3E3E3"/>
<stop offset="1" style="stop-color:#DEDEDE"/>
</linearGradient>
<path d="M38.332,57.198c0,0-14.518-0.13-19.918-7.527  c0,0-3.866,4.767-5.214,0.484C13.774,53.095,18.955,57.304,38.332,57.198z" fill="url(#SVGID_17_)" fill-rule="evenodd"/>
<rect fill="#020202" fill-opacity="0.1" height="0.802" stroke-opacity="0.1" width="33.599" x="13.2" y="41.999"/>
<rect fill="#020202" fill-opacity="0.2" height="0.799" stroke-opacity="0.2" width="33.599" x="13.2" y="41.2"/>
<rect fill="#020202" fill-opacity="0.3" height="0.801" stroke-opacity="0.3" width="33.599" x="13.2" y="40.399"/>
<rect fill="#020202" fill-opacity="0.5" height="0.799" stroke-opacity="0.5" width="33.599" x="13.2" y="39.601"/>
<rect fill="#020202" fill-opacity="0.3" height="0.799" stroke-opacity="0.3" width="38.399" x="10.799" y="17.202"/>
<rect fill="#020202" fill-opacity="0.1" height="0.802" stroke-opacity="0.1" width="38.399" x="10.799" y="16.4"/>
<path d="M8.4,18.001V21.2c0,2.205,1.793,3.999,3.998,3.999h35.199c2.205,0,4-1.794,4-3.999v-3.199H8.4  z" fill="#FFFFFF" fill-opacity="0.2" stroke-opacity="0.2"/>
<linearGradient gradientUnits="userSpaceOnUse" id="SVGID_18_" x1="29.999" x2="29.999" y1="17.9209" y2="24.3213">
<stop offset="0" style="stop-color:#A2A6A5"/>
<stop offset="0.7576" style="stop-color:#262628"/>
<stop offset="1" style="stop-color:#202020"/>
</linearGradient>
<path d="M9.199,18.001V21.2c0,1.769,1.434,3.201,3.199,3.201h35.199c1.767,0,3.201-1.433,3.201-3.201v-3.199  H9.199z" fill="url(#SVGID_18_)"/>
<rect fill="#FFFFFF" fill-opacity="0.2" height="1.307" stroke-opacity="0.2" width="41.6" x="9.199" y="18.001"/>
<linearGradient gradientUnits="userSpaceOnUse" id="SVGID_19_" x1="53.1973" x2="53.1973" y1="41.2002" y2="44.4434">
<stop offset="0" style="stop-color:#5C5F62"/>
<stop offset="1" style="stop-color:#E3E3E3"/>
</linearGradient>
<path d="M54.797,43.597c0,0.441-0.359,0.799-0.799,0.799h-1.6c-0.441,0-0.801-0.357-0.801-0.799v-1.598  c0-0.441,0.359-0.799,0.801-0.799h1.6c0.439,0,0.799,0.357,0.799,0.799V43.597z" fill="url(#SVGID_19_)"/>
<linearGradient gradientUnits="userSpaceOnUse" id="SVGID_20_" x1="53.1982" x2="53.1982" y1="41.9692" y2="43.616">
<stop offset="0" style="stop-color:#C6B17B"/>
<stop offset="0.7455" style="stop-color:#98604F"/>
<stop offset="1" style="stop-color:#7F3736"/>
</linearGradient>
<rect fill="url(#SVGID_20_)" height="1.598" width="1.6" x="52.398" y="41.999"/>
<linearGradient gradientUnits="userSpaceOnUse" id="SVGID_21_" x1="53.1973" x2="53.1973" y1="36.4004" y2="39.6486">
<stop offset="0" style="stop-color:#5C5F62"/>
<stop offset="1" style="stop-color:#C4C4C4"/>
</linearGradient>
<path d="M54.797,38.799c0,0.444-0.357,0.802-0.801,0.802h-1.598c-0.441,0-0.801-0.357-0.801-0.802v-1.6  c0-0.441,0.359-0.799,0.801-0.799h1.598c0.443,0,0.801,0.357,0.801,0.799V38.799z" fill="url(#SVGID_21_)"/>
<linearGradient gradientUnits="userSpaceOnUse" id="SVGID_22_" x1="53.1973" x2="53.1973" y1="37.1694" y2="38.8182">
<stop offset="0" style="stop-color:#B3C77D"/>
<stop offset="0.7273" style="stop-color:#3C743A"/>
<stop offset="1" style="stop-color:#235138"/>
</linearGradient>
<rect fill="url(#SVGID_22_)" height="1.6" width="1.598" x="52.398" y="37.199"/>
<rect fill="none" height="60" width="60"/>
</g>
</svg>
