<?xml version="1.0" encoding="UTF-8"?>
<!DOCTYPE svg PUBLIC "-//W3C//DTD SVG 1.1 Tiny//EN" "http://www.w3.org/Graphics/SVG/1.1/DTD/svg11-tiny.dtd">
<svg baseProfile="tiny" height="30" viewBox="0 0 30 30" width="30" xmlns="http://www.w3.org/2000/svg" xmlns:xlink="http://www.w3.org/1999/xlink">
<g>
<rect fill="none" height="30" width="30"/>
<path d="M15,29C7.279,29,1,22.719,1,15C1,7.279,7.279,1,15,1c7.719,0,14,6.279,14,14C29,22.719,22.719,29,15,29  L15,29z" fill-opacity="0.6"/>
<circle cx="15" cy="15" fill="url(#SVGID_1_)" r="13"/>
<g fill-opacity="0.2" stroke-opacity="0.2">
<g>
<path d="M24.99,12.631c-0.283-0.748-1.309-2.688-2.809-4.158c0.483-2.043-0.764-2.379-1.248-2.457    c-0.865-0.055-2.594-0.715-4.186-0.203c-2.305,0.74-4.67,3.051-6.592,5.797C8.193,14.395,7.414,19.094,7,19.234    c0.57,1.799,2.896,4.215,2.896,4.215s-0.687,2.191,1.361,2.535c1.986,0.205,3.936-1.619,3.936-1.619s9.661-1.873,7.774-11.104    C23.006,13.275,24.684,12.729,24.99,12.631z M14.783,20.25c-0.049,0.412-2.373,3.385-3.342,2.664    c-0.914-0.68-1.818-1.74-2.335-3.156c0.023-0.025,1.533-0.443,1.566-0.422c-1.491-6.658,4.111-7.711,4.111-7.711    c0.015,0.002-2.349,2.613-1.457,6.775c-0.005-0.049,1.341-0.365,1.989-0.572C15.531,18.402,14.892,19.322,14.783,20.25z     M16.575,20.842c-0.015-0.004,3.059-3.283,2.171-7.441c0.003,0.045-1.344,0.363-1.99,0.57c-0.559-1.488,0.066-5.105,1.385-5.938    c0.785-0.236,2.498,0.49,3.758,2.094c0.424,0.539-0.709,1.391-0.74,1.373C22.646,18.154,16.575,20.842,16.575,20.842z"/>
</g>
</g>
<path d="M15,3c7.012,0,12.71,5.555,12.975,12.5  C27.98,15.332,28,15.168,28,15c0-7.18-5.82-13-13-13C7.82,2,2,7.82,2,15c0,0.168,0.019,0.332,0.025,0.5C2.29,8.555,7.989,3,15,3z" fill="#FFFFFF" fill-opacity="0.4" stroke-opacity="0.4"/>
<g>
<path d="M23.777,11.643c-0.282-0.749-1.31-2.688-2.81-4.159c0.485-2.042-0.762-2.379-1.247-2.456   c-2.119-0.134-2.896,0.569-3.568,1.059c-1.259,0.916-4.097,0.759-7.208,4.535c-1.964,2.784-1.265,7.073-1.265,7.073   s-1.479,0.41-1.893,0.551c0.57,1.8,2.896,4.216,2.896,4.216s-0.687,2.19,1.361,2.534c1.986,0.205,3.936-1.618,3.936-1.618   s9.662-1.874,7.774-11.104C21.793,12.287,23.471,11.74,23.777,11.643z M12.717,22.777c-1.05,0.313-3.757-1.092-4.824-4.008   c0.023-0.026,1.533-0.443,1.566-0.424c-1.491-6.658,4.822-8.379,4.822-8.379c0.015,0.003-3.06,3.281-2.167,7.443   c-0.005-0.051,1.341-0.366,1.989-0.573C14.662,18.326,14.037,21.945,12.717,22.777z M15.363,19.854   c-0.015-0.004,3.059-3.283,2.17-7.44c0.004,0.046-1.344,0.363-1.99,0.571c-0.558-1.489,0.066-5.106,1.385-5.938   c1.049-0.315,3.758,1.09,4.822,4.009c-0.021,0.024-1.533,0.441-1.564,0.424C21.676,18.131,15.363,19.854,15.363,19.854z" fill="#FFFFFF"/>
</g>
<rect fill="none" height="30" width="30"/>
<defs>
<linearGradient gradientTransform="matrix(1 0 0 1 -578.9609 -812.0391)" gradientUnits="userSpaceOnUse" id="SVGID_1_" x1="593.9609" x2="593.9609" y1="814.3145" y2="844.0474">
<stop offset="0" style="stop-color:#6DADC1"/>
<stop offset="1" style="stop-color:#3B518A"/>
</linearGradient>
</defs>
</g>
</svg>
