<?xml version="1.0" encoding="UTF-8"?>
<!DOCTYPE svg PUBLIC "-//W3C//DTD SVG 1.1 Tiny//EN" "http://www.w3.org/Graphics/SVG/1.1/DTD/svg11-tiny.dtd">
<svg baseProfile="tiny" height="30" viewBox="0 0 30 30" width="30" xmlns="http://www.w3.org/2000/svg" xmlns:xlink="http://www.w3.org/1999/xlink">
<g>
<rect fill="none" height="30" width="30"/>
<path d="M15,29C7.279,29,1,22.719,1,15C1,7.279,7.279,1,15,1c7.719,0,14,6.279,14,14C29,22.719,22.719,29,15,29  L15,29z" fill-opacity="0.6"/>
<linearGradient gradientTransform="matrix(1 0 0 1 -578.9609 -812.0391)" gradientUnits="userSpaceOnUse" id="SVGID_1_" x1="593.9609" x2="593.9609" y1="814.3145" y2="844.0474">
<stop offset="0" style="stop-color:#6DADC1"/>
<stop offset="1" style="stop-color:#3B518A"/>
</linearGradient>
<circle cx="15" cy="15" fill="url(#SVGID_1_)" r="13"/>
<path d="M15,3c7.012,0,12.71,5.555,12.975,12.5  C27.98,15.332,28,15.168,28,15c0-7.18-5.82-13-13-13C7.82,2,2,7.82,2,15c0,0.168,0.019,0.332,0.025,0.5C2.29,8.555,7.989,3,15,3z" fill="#FFFFFF" fill-opacity="0.4" stroke-opacity="0.4"/>
<polygon fill-opacity="0.2" points="25.839,14.5 7.454,14.5 7.454,11.5 20.253,11.5 18.975,9.57   21.477,7.914 " stroke-opacity="0.2"/>
<polygon fill-opacity="0.2" points="6.454,16.5 24.839,16.5 24.839,19.5 12.04,19.5 13.318,21.428   10.817,23.086 " stroke-opacity="0.2"/>
<polygon fill="#FFFFFF" points="24.839,13.5 6.454,13.5 6.454,10.5 19.253,10.5 17.975,8.57 20.477,6.914 "/>
<polygon fill="#FFFFFF" points="5.454,15.5 23.839,15.5 23.839,18.5 11.04,18.5 12.318,20.428 9.817,22.086 "/>
<rect fill="none" height="30" width="30"/>
</g>
<g>
<linearGradient gradientTransform="matrix(1 0 0 -1 -267.4805 -330.8975)" gradientUnits="userSpaceOnUse" id="SVGID_1__" x1="274.9814" x2="274.9814" y1="-359.3721" y2="-352.3351">
<stop offset="0" style="stop-color:#FFFFFF"/>
<stop offset="0.66" style="stop-color:#E1E1E1"/>
<stop offset="1" style="stop-color:#BABCBB"/>
</linearGradient>
<polygon fill="url(#SVGID_1__)" points="12.601,28.542 2.4,28.542 2.4,22.27 7.5,18.343 12.601,22.27 "/>
<linearGradient gradientTransform="matrix(1 0 0 -1 -267.4805 -330.8975)" gradientUnits="userSpaceOnUse" id="SVGID_2_" x1="274.9795" x2="274.9795" y1="-354.4097" y2="-359.3443">
<stop offset="0" style="stop-color:#FFFFFF"/>
<stop offset="0.66" style="stop-color:#E1E1E1"/>
<stop offset="1" style="stop-color:#BABCBB"/>
</linearGradient>
<path d="M7.5,18.857l4.693,3.613v5.665H2.809v-5.666L7.5,18.857 M7.5,18.343L2.4,22.27v6.273h10.2V22.27  L7.5,18.343L7.5,18.343z" fill="url(#SVGID_2_)"/>
<polygon fill-opacity="0.2" points="12.601,23.826 12.601,22.27 7.5,18.343 2.4,22.27 2.4,23.952   7.5,19.872 " stroke-opacity="0.2"/>
<polygon fill="#727272" points="12.601,23.826 12.601,22.27 7.5,18.343 2.4,22.27 2.4,23.952 7.5,18.853 "/>
<linearGradient gradientTransform="matrix(1 0 0 -1 -267.4805 -330.8975)" gradientUnits="userSpaceOnUse" id="SVGID_3_" x1="274.9805" x2="274.9805" y1="-354.707" y2="-359.5847">
<stop offset="0" style="stop-color:#92603E"/>
<stop offset="1" style="stop-color:#713631"/>
</linearGradient>
<rect fill="url(#SVGID_3_)" height="4.59" width="3.061" x="5.971" y="23.952"/>
<linearGradient gradientTransform="matrix(1 0 0 -1 -267.4805 -330.8975)" gradientUnits="userSpaceOnUse" id="SVGID_4_" x1="274.9814" x2="274.9814" y1="-359.4072" y2="-354.8671">
<stop offset="0" style="stop-color:#92603E"/>
<stop offset="1" style="stop-color:#713631"/>
</linearGradient>
<path d="M8.622,24.36v3.774H6.378V24.36H8.622 M9.031,23.952H5.971v4.59h3.061V23.952L9.031,23.952z" fill="url(#SVGID_4_)"/>
<linearGradient gradientTransform="matrix(1 0 0 -1 -267.4805 -330.8975)" gradientUnits="userSpaceOnUse" id="SVGID_5_" x1="274.9795" x2="274.9795" y1="-346.8545" y2="-354.5899">
<stop offset="0" style="stop-color:#A8835F"/>
<stop offset="0.26" style="stop-color:#A86F5F"/>
<stop offset="1" style="stop-color:#9A5047"/>
</linearGradient>
<path d="M7.5,18.343l5.101,5.1l1.02-1.02c0,0-5.502-5.488-5.759-5.76c-0.255-0.271-0.422-0.285-0.738,0.016  C6.81,16.979,1.38,22.422,1.38,22.422l1.021,1.02L7.5,18.343z" fill="url(#SVGID_5_)"/>
<radialGradient cx="-3057.9365" cy="-384.3403" gradientTransform="matrix(0.125 0 0 -0.125 389.692 -31.3322)" gradientUnits="userSpaceOnUse" id="SVGID_6_" r="65.2801">
<stop offset="0" style="stop-color:#D4C9A4"/>
<stop offset="1" style="stop-color:#AF6151"/>
</radialGradient>
<path d="M7.125,17.087c0.316-0.301,0.481-0.285,0.738-0.016c0.225,0.24,4.56,4.564,5.553,5.556l0.204-0.205  c0,0-5.502-5.488-5.759-5.76c-0.255-0.271-0.422-0.285-0.738,0.016C6.81,16.979,1.38,22.422,1.38,22.422l0.205,0.204  C2.569,21.638,6.846,17.353,7.125,17.087z" fill="url(#SVGID_6_)"/>
<rect fill-opacity="0.2" height="0.511" stroke-opacity="0.2" width="3.061" x="5.971" y="23.952"/>
<rect fill="none" height="30" width="30"/>
</g>
<g>
<rect fill-opacity="0.6" height="34.27" stroke-opacity="0.6" style="enable-background:new;" transform="matrix(0.7073 -0.707 0.707 0.7073 -6.2126 14.9968)" width="3.169" x="13.42" y="-2.134"/>
<polygon fill="url(#SVGID_1___)" points="26,26.99,3.015,4.005,4.006,3.014,26.99,26"/>
<rect fill="none" height="30" width="30"/>
<defs>
<linearGradient gradientTransform="matrix(0.8824 0 0 -0.8824 -284.8232 -348.3516)" gradientUnits="userSpaceOnUse" id="SVGID_1___" x1="339.8" x2="339.8" y1="-397.3" y2="-425.3">
<stop offset="0" stop-color="#A8835F"/>
<stop offset="0.2606" stop-color="#A86F5F"/>
<stop offset="1" stop-color="#9A5047"/>
</linearGradient>
</defs>
</g>
</svg>
