<?xml version="1.0" encoding="UTF-8"?>
<!DOCTYPE svg PUBLIC "-//W3C//DTD SVG 1.1 Tiny//EN" "http://www.w3.org/Graphics/SVG/1.1/DTD/svg11-tiny.dtd">
<svg baseProfile="tiny" height="30px" version="1.1" viewBox="0 0 30 30" width="30px" x="0px" xmlns="http://www.w3.org/2000/svg" xmlns:xlink="http://www.w3.org/1999/xlink" y="0px">
<g>
<rect fill="none" height="30" width="30"/>
</g>
<path d="M13.137,8.828c-0.463-0.144-0.938-0.479-0.938-1.178V7.42c0-0.101,0.047-0.196,0.123-0.258C13.326,6.39,14,5.094,14,3.501  c0-2.276-1.346-3.417-3-3.417S8.001,1.225,8.001,3.501c0,1.593,0.673,2.889,1.675,3.661C9.754,7.224,9.799,7.319,9.799,7.42v0.23  c0,0.092-0.014,0.175-0.029,0.256C9.909,8.379,10,8.9,10,9.501c0,1.364-0.43,2.614-1.197,3.583h4.527  C13.121,12.242,13,11.367,13,10.482C13,9.916,13.049,9.363,13.137,8.828z"/>
<path d="M0,19.084c0.012-0.181,0.336-3.851,3.3-4.164c0.681-0.016,1.499-0.357,1.499-1.27v-0.23c0-0.101-0.045-0.196-0.123-0.258  c-1.002-0.772-1.675-2.068-1.675-3.661c0-2.276,1.345-3.417,2.999-3.417s3,1.141,3,3.417c0,1.593-0.674,2.889-1.678,3.661  c-0.076,0.062-0.123,0.157-0.123,0.258v0.23c0,1.005,0.982,1.27,1.5,1.27c2.965,0.313,3.287,3.983,3.301,4.164H0z"/>
<path d="M23.892,6.42c-0.572-0.92-1.335-1.627-2.208-2.034l-6.652,6.651c0.078,1.186,0.396,2.342,0.899,3.344L23.892,6.42z"/>
<path d="M25,10.482c0-0.727-0.096-1.424-0.267-2.076l-7.649,7.649c0.225,0.237,0.458,0.456,0.709,0.64  c0.131,0.096,0.205,0.246,0.205,0.404v0.361c0,1.436-1.363,1.973-2.5,1.996C10.561,19.95,10.021,25.717,10,26h1.382l13.325-13.324  C24.891,11.966,25,11.227,25,10.482z"/>
<path d="M15.462,7.779l3.675-3.676C17.5,4.476,16.138,5.879,15.462,7.779z"/>
<path d="M28.353,26H30c-0.006-0.082-0.061-0.641-0.254-1.394L28.353,26z"/>
<path d="M24.923,19.531c-0.142-0.025-0.274-0.059-0.423-0.074c-0.732,0-2.01-0.307-2.386-1.359L14.211,26h4.242L24.923,19.531z"/>
<path d="M28.961,22.563c-0.447-0.838-1.085-1.656-1.991-2.25L21.281,26h4.242L28.961,22.563z"/>
</svg>
