<?xml version="1.0" encoding="UTF-8"?>
<!DOCTYPE svg PUBLIC "-//W3C//DTD SVG 1.1 Tiny//EN" "http://www.w3.org/Graphics/SVG/1.1/DTD/svg11-tiny.dtd">
<svg baseProfile="tiny" height="30px" version="1.1" viewBox="0 0 30 30" width="30px" x="0px" xmlns="http://www.w3.org/2000/svg" xmlns:xlink="http://www.w3.org/1999/xlink" y="0px">
<g>
<rect fill="none" height="30" width="30"/>
</g>
<path d="M10.299,17.467c0.053-0.005,0.277-0.016,0.332-0.021C9.006,15.738,8,13.14,8,10.481c0-3.686,1.954-6.821,4.67-7.988  C11.854,0.987,10.515,0,9,0C6.519,0,4.5,2.641,4.5,5.892c0,2.276,1.011,4.543,2.514,5.648c0.117,0.087,0.184,0.224,0.184,0.367v0.33  c0,1.304-1.227,1.792-2.249,1.814C0.504,14.5,0.018,19.742,0,20h5.387C6.514,18.701,8.1,17.687,10.299,17.467z"/>
<path d="M15,19c0-2.104,1.64-3.816,3.706-3.97C19.511,13.754,20,12.124,20,10.481C20,6.905,17.758,4,15,4s-5,2.905-5,6.481  c0,2.504,1.123,4.998,2.793,6.213c0.131,0.096,0.205,0.246,0.205,0.404v0.362c0,1.435-1.364,1.972-2.5,1.996  C5.561,19.949,5.02,25.716,5,26h10V19z"/>
<path d="M22,10.481c0,1.588-0.365,3.15-1.002,4.519h6.512c-0.644-0.486-1.445-0.846-2.461-0.948c-0.776,0-2.25-0.378-2.25-1.814  v-0.33c0-0.144,0.07-0.28,0.184-0.367c1.507-1.105,2.518-3.372,2.518-5.648C25.5,2.641,23.481,0,21,0  c-1.515,0-2.854,0.987-3.67,2.493C20.046,3.66,22,6.796,22,10.481z"/>
<path d="M28,17h-9c-1.104,0-2,0.896-2,2v9c0,1.104,0.896,2,2,2h9c1.104,0,2-0.896,2-2v-9C30,17.896,29.104,17,28,17z M19.807,28.555  c-0.752,0-1.361-0.608-1.361-1.359c0-0.75,0.609-1.36,1.361-1.36s1.363,0.61,1.363,1.36C21.17,27.946,20.559,28.555,19.807,28.555z   M25.102,28.555H23.17c0.003-0.08,0.013-0.159,0.013-0.241c0-2.48-2.022-4.5-4.507-4.5c-0.078,0-0.154,0.008-0.23,0.012v-1.928  c0.076-0.002,0.152-0.011,0.23-0.011c3.549,0,6.438,2.883,6.438,6.427C25.113,28.396,25.105,28.475,25.102,28.555z M28.543,28.555  H26.61c0.003-0.082,0.013-0.164,0.013-0.245c0-4.377-3.564-7.937-7.947-7.937c-0.078,0-0.154,0.01-0.23,0.012v-1.928  c0.078-0.002,0.152-0.012,0.23-0.012c5.448,0,9.88,4.425,9.88,9.864C28.556,28.391,28.544,28.473,28.543,28.555z"/>
</svg>
