<?xml version="1.0" encoding="UTF-8"?>
<!DOCTYPE svg PUBLIC "-//W3C//DTD SVG 1.1 Tiny//EN" "http://www.w3.org/Graphics/SVG/1.1/DTD/svg11-tiny.dtd">
<svg baseProfile="tiny" height="30px" version="1.1" viewBox="0 0 30 30" width="30px" x="0px" xmlns="http://www.w3.org/2000/svg" xmlns:xlink="http://www.w3.org/1999/xlink" y="0px">
<path d="M5.688,7.103C6.1,6.574,6.574,6.1,7.103,5.688L5.636,4.222c-0.391-0.391-1.023-0.391-1.414,0s-0.391,1.024,0,1.414  L5.688,7.103z"/>
<path d="M12,4c0.339,0,0.672,0.028,1,0.069V2c0-0.553-0.447-1-1-1s-1,0.447-1,1v2.069C11.328,4.028,11.661,4,12,4z"/>
<path d="M18.312,7.103l1.467-1.467c0.391-0.392,0.391-1.023,0-1.415c-0.391-0.39-1.023-0.391-1.415,0l-1.467,1.467  C17.426,6.099,17.9,6.573,18.312,7.103z"/>
<path d="M4,12c0-0.34,0.028-0.672,0.069-1H2c-0.553,0-1,0.447-1,1s0.447,1,1,1h2.069C4.028,12.672,4,12.34,4,12z"/>
<path d="M7.339,16.002c0.122-0.451,0.28-0.885,0.463-1.307C7.3,13.916,7,12.994,7,12c0-2.757,2.243-5,5-5  c1.637,0,3.079,0.802,3.992,2.021C16.161,9.013,16.329,9,16.5,9c0.654,0,1.293,0.066,1.91,0.193C17.328,6.726,14.867,5,12,5  c-3.866,0-7,3.134-7,7c0,1.527,0.495,2.938,1.326,4.088C6.658,16.041,6.995,16.008,7.339,16.002z"/>
<path d="M18.949,27C18.969,26.834,19,26.672,19,26.5c0-2.481-2.019-4.5-4.5-4.5c-0.33,0-0.65,0.041-0.96,0.108  c-0.126-0.319-0.278-0.624-0.452-0.916C13.54,21.072,14.011,21,14.5,21c3.032,0,5.5,2.467,5.5,5.5c0,0.17-0.016,0.334-0.031,0.5  h8.818C28.923,26.522,29,26.021,29,25.5c0-2.92-2.279-5.303-5.154-5.482C23.947,19.527,24,19.02,24,18.5c0-4.142-3.359-7.5-7.5-7.5  c-4.034,0-7.317,3.19-7.484,7.186C8.529,18.068,8.023,18,7.5,18C3.91,18,1,20.91,1,24.5c0,0.887,0.179,1.73,0.5,2.5H18.949z"/>
<g fill-opacity="0.5" stroke-opacity="0.5">
<rect fill="none" height="30" width="30"/>
</g>
</svg>
