<?xml version="1.0" encoding="UTF-8"?>
<!DOCTYPE svg PUBLIC "-//W3C//DTD SVG 1.1 Tiny//EN" "http://www.w3.org/Graphics/SVG/1.1/DTD/svg11-tiny.dtd">
<svg baseProfile="tiny" height="16px" version="1.1" viewBox="0 0 16 16" width="16px" x="0px" xmlns="http://www.w3.org/2000/svg" xmlns:xlink="http://www.w3.org/1999/xlink" y="0px">
<rect fill="none" height="16" width="16"/>
<path d="M8.001,2.001c-3.86,0-7,2.384-7,5.313,0,1.571,0.909,3.051,2.495,4.066l0.157,2.62,2.277-1.632c0.672,0.158,1.362,0.26,2.071,0.26,3.859,0,7-2.384,7-5.314s-3.14-5.315-6.999-5.315zm0,9.429c-0.557,0-1.145-0.074-1.796-0.228l-0.531-0.125-0.953,0.68-0.063-1.061-0.515-0.33c-1.234-0.789-1.941-1.903-1.941-3.055,0-2.229,2.656-4.113,5.799-4.113s5.8,1.884,5.8,4.113c0,2.23-2.66,4.115-5.799,4.115z"/>
<rect height="1.359" width="7.281" x="4.359" y="5.32"/>
<rect height="1.359" width="5" x="4.359" y="7.82"/>
</svg>
