<?xml version="1.0" encoding="UTF-8"?>
<!DOCTYPE svg PUBLIC "-//W3C//DTD SVG 1.1 Tiny//EN" "http://www.w3.org/Graphics/SVG/1.1/DTD/svg11-tiny.dtd">
<svg baseProfile="tiny" height="30" viewBox="0 0 30 30" width="30" xmlns="http://www.w3.org/2000/svg" xmlns:xlink="http://www.w3.org/1999/xlink">
<g>
<rect fill="none" height="30" width="30"/>
<path d="M29.813,21.146c-0.168-0.236-0.379-0.377-1.244-0.93  c-2.185-1.396-3.445-2.377-3.756-2.9c0.68-0.59,1.246-1.319,1.623-2.104c0.813-1.688,0.664-5.425,0.646-5.798  C27.081,7.225,24.279,5,22.266,5h-0.541c-2.014,0-4.813,2.225-4.813,4.379c-0.015,0.417-0.122,4.122,0.633,5.807  c0.356,0.798,0.924,1.544,1.627,2.145c-0.295,0.47-1.26,1.247-2.864,2.313c-2.51-1.551-3.942-2.637-4.252-3.217  c0.787-0.644,1.444-1.451,1.882-2.323c0.923-1.842,0.751-5.937,0.729-6.349C14.664,5.396,11.545,3,9.303,3H8.686  c-2.242,0-5.36,2.396-5.359,4.719c-0.018,0.457-0.14,4.52,0.717,6.36c0.413,0.888,1.072,1.712,1.888,2.368  c-0.353,0.609-1.813,1.707-4.353,3.268c-0.967,0.594-1.201,0.742-1.38,0.982L0,20.963V27h30v-5.594L29.813,21.146z" fill-opacity="0.6" stroke-opacity="0.6"/>
<linearGradient gradientTransform="matrix(1 0 0 -1 -289.4805 -383.0195)" gradientUnits="userSpaceOnUse" id="SVGID_1_" x1="298.4795" x2="298.4795" y1="-387.0615" y2="-409.2758">
<stop offset="0" style="stop-color:#6DADC1"/>
<stop offset="1" style="stop-color:#3B518A"/>
</linearGradient>
<path d="M10.998,16.348c-0.008-0.125,0-0.252,0.004-0.38c0.852-0.585,1.589-1.415,2.039-2.311  c0.831-1.661,0.623-5.901,0.623-5.901C13.664,6.026,11.023,4,9.303,4H8.686c-1.72,0-4.36,2.026-4.36,3.756  c0,0-0.155,4.226,0.624,5.901c0.425,0.912,1.178,1.752,2.049,2.335c0.003,0.117,0.011,0.236,0.004,0.354  C6.896,18.044,1.274,20.928,1,21.295V26h16v-4.701C16.725,20.93,11.104,18.044,10.998,16.348z" fill="url(#SVGID_1_)"/>
<linearGradient gradientTransform="matrix(1 0 0 -1 -289.4805 -383.0195)" gradientUnits="userSpaceOnUse" id="SVGID_2_" x1="298.4795" x2="298.4795" y1="-387.0615" y2="-409.2013">
<stop offset="0" style="stop-color:#6DADC1"/>
<stop offset="0.7212" style="stop-color:#3B518A"/>
<stop offset="0.7836" style="stop-color:#486698"/>
<stop offset="0.9249" style="stop-color:#6295B3"/>
<stop offset="1" style="stop-color:#6BA8BE"/>
</linearGradient>
<path d="M10.998,16.348c-0.008-0.125,0-0.252,0.004-0.38c0.852-0.585,1.589-1.415,2.039-2.311  c0.831-1.661,0.623-5.901,0.623-5.901C13.664,6.026,11.023,4,9.303,4H8.686c-1.72,0-4.36,2.026-4.36,3.756  c0,0-0.155,4.226,0.624,5.901c0.425,0.912,1.178,1.752,2.049,2.335c0.003,0.117,0.011,0.236,0.004,0.354  C6.896,18.044,1.274,20.928,1,21.295V26h16v-4.701C16.725,20.93,11.104,18.044,10.998,16.348z M16.111,25.107H1.889v-3.358  c0.188-0.12,0.441-0.274,0.676-0.42c2.75-1.688,5.225-3.335,5.324-4.925c0.007-0.12,0.005-0.234,0-0.35l-0.01-0.466L7.49,15.248  c-0.756-0.505-1.389-1.225-1.736-1.971c-0.563-1.21-0.58-4.371-0.54-5.487c0.001-1.157,2.109-2.897,3.472-2.897h0.617  c1.363,0,3.473,1.74,3.473,2.863c0.076,1.594-0.001,4.444-0.529,5.498c-0.377,0.753-1.014,1.474-1.746,1.976l-0.374,0.258  l-0.013,0.456c-0.007,0.205-0.01,0.334-0.002,0.461c0.1,1.591,2.574,3.238,5.324,4.928c0.234,0.146,0.488,0.3,0.675,0.421V25.107  L16.111,25.107z" fill="url(#SVGID_2_)"/>
<linearGradient gradientTransform="matrix(1 0 0 -1 -289.4805 -383.0195)" gradientUnits="userSpaceOnUse" id="SVGID_3_" x1="311.4805" x2="311.4805" y1="-389.3994" y2="-408.9525">
<stop offset="0" style="stop-color:#A8835F"/>
<stop offset="0.2606" style="stop-color:#A86F5F"/>
<stop offset="1" style="stop-color:#9A5047"/>
</linearGradient>
<path d="M23.748,17.225c-0.007-0.115,0-0.229,0.004-0.346c0.744-0.531,1.391-1.286,1.783-2.102  c0.729-1.508,0.546-5.363,0.546-5.363c0-1.572-2.31-3.414-3.815-3.414h-0.541c-1.504,0-3.813,1.842-3.813,3.414  c0,0-0.138,3.842,0.545,5.363c0.371,0.831,1.03,1.594,1.793,2.124c0.003,0.107,0.01,0.218,0.004,0.324  c-0.094,1.543-5.012,4.162-5.252,4.498V26h14v-4.273C28.76,21.391,23.842,18.768,23.748,17.225z" fill="url(#SVGID_3_)"/>
<linearGradient gradientTransform="matrix(1 0 0 -1 -289.4805 -383.0195)" gradientUnits="userSpaceOnUse" id="SVGID_4_" x1="311.4805" x2="311.4805" y1="-389.0576" y2="-412.6398">
<stop offset="0" style="stop-color:#A8835F"/>
<stop offset="0.2606" style="stop-color:#A86F5F"/>
<stop offset="1" style="stop-color:#B18A7D"/>
</linearGradient>
<path d="M23.748,17.225c-0.007-0.115,0-0.229,0.004-0.346c0.744-0.531,1.391-1.286,1.783-2.102  c0.729-1.508,0.546-5.363,0.546-5.363c0-1.572-2.31-3.414-3.815-3.414h-0.541c-1.504,0-3.813,1.842-3.813,3.414  c0,0-0.138,3.842,0.545,5.363c0.371,0.831,1.03,1.594,1.793,2.124c0.003,0.107,0.01,0.218,0.004,0.324  c-0.094,1.543-5.012,4.162-5.252,4.498V26h14v-4.273C28.76,21.391,23.842,18.768,23.748,17.225z M28.125,25.092h-12.25v-2.904  c0.158-0.104,0.361-0.233,0.551-0.354c2.984-1.903,4.617-3.194,4.699-4.552c0.006-0.114,0.004-0.223,0-0.331l-0.016-0.466  l-0.375-0.338c-0.647-0.451-1.189-1.09-1.484-1.752c-0.434-0.963-0.516-3.545-0.466-4.946c0.001-0.993,1.813-2.539,2.94-2.539h0.539  c1.127,0,2.941,1.546,2.941,2.506c0.066,1.443,0.001,4.016-0.453,4.955c-0.322,0.671-0.868,1.312-1.497,1.76l-0.364,0.263  l-0.015,0.459c-0.006,0.188-0.01,0.31-0.002,0.43c0.082,1.357,1.715,2.648,4.698,4.555c0.189,0.121,0.393,0.25,0.552,0.355  L28.125,25.092L28.125,25.092z" fill="url(#SVGID_4_)"/>
<path d="M7.972,27L8,25.973c0.074-2.632,1.977-3.813,3.234-4.597l0.156-0.097  l1.674-0.842c-0.006-0.01-0.012-0.019-0.018-0.026c-0.166-0.231-0.371-0.522-0.547-0.863c-0.744-1.44-0.995-2.394-0.995-3.774  c0-2.632,2.001-4.772,4.462-4.772h0.103c2.445,0.019,4.43,2.152,4.43,4.772c0,1.381-0.252,2.334-0.995,3.774  c-0.177,0.341-0.382,0.63-0.546,0.861c-0.016,0.021-0.029,0.041-0.045,0.063c0,0,1.6,0.973,1.746,1.06  c1.303,0.776,3.271,1.95,3.342,4.44L24.027,27H7.972z" fill-opacity="0.6" stroke-opacity="0.6"/>
<linearGradient gradientTransform="matrix(1 0 0 -1 -289.4805 -383.0195)" gradientUnits="userSpaceOnUse" id="SVGID_5_" x1="305.4805" x2="305.4805" y1="-408.9155" y2="-387.0308">
<stop offset="0" style="stop-color:#FFFFFF"/>
<stop offset="1" style="stop-color:#CEB991"/>
</linearGradient>
<path d="M23,26c-0.063-2.188-2.088-3.122-3.289-3.873l-1.715-1.043c-0.707-0.488,0.129-1.05,0.617-1.995  c0.725-1.401,0.885-2.181,0.885-3.315c0-2.063-1.536-3.772-3.463-3.772c-0.012,0-0.021,0.003-0.035,0.005  C15.988,12.003,15.979,12,15.967,12c-1.928,0-3.462,1.71-3.462,3.771c0,1.137,0.159,1.916,0.884,3.316  c0.488,0.947,1.324,1.506,0.617,1.995l-2.085,1.043C10.72,22.878,9.062,23.813,9,26H23z" fill="url(#SVGID_5_)"/>
<rect fill="none" height="30" width="30"/>
</g>
</svg>
