<?xml version="1.0" encoding="UTF-8"?>
<!DOCTYPE svg PUBLIC "-//W3C//DTD SVG 1.1 Tiny//EN" "http://www.w3.org/Graphics/SVG/1.1/DTD/svg11-tiny.dtd">
<svg baseProfile="tiny" height="60" viewBox="0 0 60 60" width="60" xmlns="http://www.w3.org/2000/svg" xmlns:xlink="http://www.w3.org/1999/xlink">
<g>
<rect fill="none" height="60" width="60"/>
<linearGradient gradientTransform="matrix(1 0 0 -1 2194 3656.9473)" gradientUnits="userSpaceOnUse" id="SVGID_1_" x1="-2164" x2="-2164" y1="3649.3477" y2="3604.5469">
<stop offset="0" style="stop-color:#757575"/>
<stop offset="0.2424" style="stop-color:#000000"/>
<stop offset="0.8606" style="stop-color:#000000"/>
<stop offset="1" style="stop-color:#363636"/>
</linearGradient>
<path d="M56.506,7.6H3.493C2.666,7.6,2,8.27,2,9.094v41.813C2,51.732,2.666,52.4,3.493,52.4h53.013  C57.33,52.4,58,51.732,58,50.906V9.094C58,8.27,57.33,7.6,56.506,7.6z M8.719,49.413c0,0.412-0.336,0.748-0.745,0.748H4.986  c-0.412,0-0.748-0.336-0.748-0.748V47.92c0-0.41,0.336-0.746,0.748-0.746h2.987c0.409,0,0.745,0.336,0.745,0.746V49.413z   M8.719,12.08c0,0.41-0.336,0.746-0.745,0.746H4.986c-0.412,0-0.748-0.336-0.748-0.746v-1.493c0-0.409,0.336-0.748,0.748-0.748  h2.987c0.409,0,0.745,0.339,0.745,0.748V12.08z M15.438,49.413c0,0.412-0.335,0.748-0.745,0.748h-2.987  c-0.412,0-0.747-0.336-0.747-0.748V47.92c0-0.41,0.335-0.746,0.747-0.746h2.987c0.41,0,0.745,0.336,0.745,0.746V49.413z   M15.438,12.08c0,0.41-0.335,0.746-0.745,0.746h-2.987c-0.412,0-0.747-0.336-0.747-0.746v-1.493c0-0.409,0.335-0.748,0.747-0.748  h2.987c0.41,0,0.745,0.339,0.745,0.748V12.08z M22.159,49.413c0,0.412-0.337,0.748-0.747,0.748h-2.986  c-0.41,0-0.746-0.336-0.746-0.748V47.92c0-0.41,0.335-0.746,0.746-0.746h2.986c0.41,0,0.747,0.336,0.747,0.746V49.413z   M22.159,12.08c0,0.41-0.337,0.746-0.747,0.746h-2.986c-0.41,0-0.746-0.336-0.746-0.746v-1.493c0-0.409,0.335-0.748,0.746-0.748  h2.986c0.41,0,0.747,0.339,0.747,0.748V12.08z M28.88,49.413c0,0.412-0.337,0.748-0.747,0.748h-2.986  c-0.411,0-0.746-0.336-0.746-0.748V47.92c0-0.41,0.335-0.746,0.746-0.746h2.986c0.41,0,0.747,0.336,0.747,0.746V49.413z   M28.88,12.08c0,0.41-0.337,0.746-0.747,0.746h-2.986c-0.411,0-0.746-0.336-0.746-0.746v-1.493c0-0.409,0.335-0.748,0.746-0.748  h2.986c0.41,0,0.747,0.339,0.747,0.748V12.08z M35.6,49.413c0,0.412-0.338,0.748-0.747,0.748h-2.985  c-0.412,0-0.748-0.336-0.748-0.748V47.92c0-0.41,0.336-0.746,0.748-0.746h2.985c0.409,0,0.747,0.336,0.747,0.746V49.413z   M35.6,12.08c0,0.41-0.338,0.746-0.747,0.746h-2.985c-0.412,0-0.748-0.336-0.748-0.746v-1.493c0-0.409,0.336-0.748,0.748-0.748  h2.985c0.409,0,0.747,0.339,0.747,0.748V12.08z M42.318,49.413c0,0.412-0.335,0.748-0.745,0.748h-2.987  c-0.412,0-0.746-0.336-0.746-0.748V47.92c0-0.41,0.334-0.746,0.746-0.746h2.987c0.41,0,0.745,0.336,0.745,0.746V49.413z   M42.318,12.08c0,0.41-0.335,0.746-0.745,0.746h-2.987c-0.412,0-0.746-0.336-0.746-0.746v-1.493c0-0.409,0.334-0.748,0.746-0.748  h2.987c0.41,0,0.745,0.339,0.745,0.748V12.08z M49.039,49.413c0,0.412-0.336,0.748-0.746,0.748h-2.987  c-0.41,0-0.745-0.336-0.745-0.748V47.92c0-0.41,0.335-0.746,0.745-0.746h2.987c0.41,0,0.746,0.336,0.746,0.746V49.413z   M49.039,12.08c0,0.41-0.336,0.746-0.746,0.746h-2.987c-0.41,0-0.745-0.336-0.745-0.746v-1.493c0-0.409,0.335-0.748,0.745-0.748  h2.987c0.41,0,0.746,0.339,0.746,0.748V12.08z M55.761,49.413c0,0.412-0.339,0.748-0.748,0.748h-2.987  c-0.41,0-0.745-0.336-0.745-0.748V47.92c0-0.41,0.335-0.746,0.745-0.746h2.987c0.409,0,0.748,0.336,0.748,0.746V49.413z   M55.761,12.08c0,0.41-0.339,0.746-0.748,0.746h-2.987c-0.41,0-0.745-0.336-0.745-0.746v-1.493c0-0.409,0.335-0.748,0.745-0.748  h2.987c0.409,0,0.748,0.339,0.748,0.748V12.08z" fill="url(#SVGID_1_)"/>
<path d="M56.506,7.6H3.493C2.666,7.6,2,8.27,2,9.094v0.745  c0-0.824,0.666-1.493,1.493-1.493h53.013C57.33,8.346,58,9.015,58,9.839V9.094C58,8.27,57.33,7.6,56.506,7.6z" fill="#FFFFFF" fill-opacity="0.55" stroke-opacity="0.55"/>
<path d="M3.493,52.4h53.013C57.33,52.4,58,51.732,58,50.906v-0.745  c0,0.824-0.67,1.493-1.494,1.493H3.493C2.666,51.654,2,50.985,2,50.161v0.745C2,51.732,2.666,52.4,3.493,52.4z" fill="#FFFFFF" fill-opacity="0.1" stroke-opacity="0.1"/>
<linearGradient gradientTransform="matrix(1 0 0 -1 2194 3656.9473)" gradientUnits="userSpaceOnUse" id="SVGID_2_" x1="-2164" x2="-2164" y1="3641.7637" y2="3611.8926">
<stop offset="0" style="stop-color:#000000"/>
<stop offset="0.5" style="stop-color:#666666"/>
<stop offset="1" style="stop-color:#000000"/>
</linearGradient>
<rect fill="url(#SVGID_2_)" height="29.871" width="56" x="2" y="15.064"/>
<linearGradient gradientTransform="matrix(1 0 0 -1 2194 3656.9473)" gradientUnits="userSpaceOnUse" id="SVGID_3_" x1="-2164.0005" x2="-2164.0005" y1="3612.0117" y2="3641.8828">
<stop offset="0" style="stop-color:#72B9C3"/>
<stop offset="1" style="stop-color:#546F9F"/>
</linearGradient>
<path d="M55.761,43.441c0,0.821-0.673,1.494-1.493,1.494H5.732c-0.82,0-1.494-0.673-1.494-1.494V16.559  c0-0.819,0.674-1.494,1.494-1.494h48.535c0.82,0,1.493,0.675,1.493,1.494V43.441z" fill="url(#SVGID_3_)"/>
<path d="M54.268,43.441H5.732c-0.82,0-1.494,0.074-1.494-0.748l0,0  c0,0.822,0.674,1.493,1.494,1.493h48.535c0.82,0,1.493-0.671,1.493-1.493l0,0C55.761,43.516,55.088,43.441,54.268,43.441z" fill="#FFFFFF" fill-opacity="0.5" stroke-opacity="0.5"/>
<linearGradient gradientTransform="matrix(1 0 0 -1 2194 3656.9473)" gradientUnits="userSpaceOnUse" id="SVGID_4_" x1="-2164.0005" x2="-2164.0005" y1="3641.8828" y2="3611.8926">
<stop offset="0" style="stop-color:#000000"/>
<stop offset="1" style="stop-color:#404040"/>
</linearGradient>
<path d="M54.268,15.813c0.41,0,0.745,0.336,0.745,0.745v26.883c0,0.412-0.335,0.745-0.745,0.745H5.732  c-0.411,0-0.746-0.333-0.746-0.745V16.559c0-0.409,0.335-0.745,0.746-0.745H54.268 M54.268,15.064H5.732  c-0.82,0-1.494,0.675-1.494,1.494v26.883c0,0.821,0.674,1.494,1.494,1.494h48.535c0.82,0,1.493-0.673,1.493-1.494V16.559  C55.761,15.739,55.088,15.064,54.268,15.064L54.268,15.064z" fill="url(#SVGID_4_)"/>
<path d="M54.268,24.025v-5.974c0-0.824-0.67-1.493-1.494-1.493H7.226  c-0.824,0-1.493,0.669-1.493,1.493v9.709L54.268,24.025z" fill="#FFFFFF" fill-opacity="0.2" stroke-opacity="0.2"/>
<rect fill="none" height="60" width="60"/>
</g>
<g transform="matrix(1 0 0 1 30 30)">
<polygon fill="none" points="30,22.402 30,12.467 30,0 0,0 0,30 30,30 "/>
<path d="M2.609,27.517c-1.533,0-2.604-1.071-2.604-2.604L0,10.432c0-4.383,3.566-7.949,7.951-7.949  c4.386,0.002,7.953,3.571,7.951,7.956v0.398c0.064-0.008,0.13-0.012,0.195-0.012h12.262c0.904,0,1.641,0.736,1.641,1.642v9.936  c0,0.905-0.736,1.642-1.641,1.642H16.098c-0.067,0-0.135-0.005-0.2-0.013l-0.001,0.882c0,1.386-1.217,2.604-2.604,2.604H2.609z" fill-opacity="0.35" stroke-opacity="0.35"/>
<linearGradient gradientUnits="userSpaceOnUse" id="SVGID_1__" x1="7.9512" x2="7.9512" y1="3.3208" y2="26.41">
<stop offset="0" style="stop-color:#F2F2F2"/>
<stop offset="0.3212" style="stop-color:#E6E6E6"/>
<stop offset="1" style="stop-color:#666666"/>
</linearGradient>
<path d="M14.902,10.438c0.002-3.84-3.109-6.953-6.949-6.955C4.113,3.481,1,6.594,1,10.432  c0,0.088,0.006,14.48,0.006,14.48c0,0.936,0.588,1.604,1.604,1.604h10.684c0.842,0,1.604-0.788,1.604-1.604  C14.896,24.912,14.902,10.524,14.902,10.438z" fill="url(#SVGID_1__)"/>
<linearGradient gradientUnits="userSpaceOnUse" id="SVGID_2__" x1="7.9512" x2="7.9512" y1="3.646" y2="26.0921">
<stop offset="0" style="stop-color:#D2D3D2"/>
<stop offset="0.1212" style="stop-color:#D2D3D2"/>
<stop offset="0.5091" style="stop-color:#B2B6B5"/>
<stop offset="0.5091" style="stop-color:#A2A5A5"/>
<stop offset="0.6606" style="stop-color:#808485"/>
<stop offset="0.9758" style="stop-color:#AFB3B2"/>
<stop offset="0.9758" style="stop-color:#5B5B5D"/>
<stop offset="1" style="stop-color:#AFB3B2"/>
<stop offset="1" style="stop-color:#5B5B5D"/>
</linearGradient>
<path d="M2.609,26.195c-0.803,0-1.283-0.479-1.283-1.283c0,0-0.006-14.393-0.006-14.48  c0-3.654,2.975-6.629,6.631-6.629c3.658,0.002,6.633,2.979,6.631,6.635c0,0.087-0.006,14.475-0.006,14.475  c0,0.648-0.637,1.283-1.283,1.283H2.609z" fill="url(#SVGID_2__)"/>
<path d="M13.986,10.71c-0.002,3.333-2.703,6.621-6.037,6.619c-3.332-0.001-6.033-3.291-6.033-6.622  c0.002-3.334,2.705-6.032,6.037-6.032C11.287,4.676,13.986,7.378,13.986,10.71z" fill="#222021" fill-opacity="0.5" stroke-opacity="0.5"/>
<linearGradient gradientUnits="userSpaceOnUse" id="SVGID_3__" x1="7.9512" x2="7.9512" y1="4.4121" y2="16.5024">
<stop offset="0" style="stop-color:#CFCFCF"/>
<stop offset="0.1091" style="stop-color:#CFCFCF"/>
<stop offset="0.6848" style="stop-color:#121212"/>
<stop offset="1" style="stop-color:#A6A6A6"/>
</linearGradient>
<circle cx="7.951" cy="10.464" fill="url(#SVGID_3__)" r="6.012"/>
<linearGradient gradientUnits="userSpaceOnUse" id="SVGID_4__" x1="7.9512" x2="7.9512" y1="4.6738" y2="16.122">
<stop offset="0" style="stop-color:#F2F2F2"/>
<stop offset="1" style="stop-color:#636566"/>
</linearGradient>
<circle cx="7.951" cy="10.465" fill="url(#SVGID_4__)" r="5.711"/>
<linearGradient gradientTransform="matrix(1 3.000000e-004 -3.000000e-004 1 -0.7997 -0.83)" gradientUnits="userSpaceOnUse" id="SVGID_5_" x1="5.46" x2="12.0483" y1="7.9976" y2="14.5859">
<stop offset="0" style="stop-color:#1A1A1A"/>
<stop offset="0.503" style="stop-color:#343434"/>
<stop offset="0.7515" style="stop-color:#9E9E9E"/>
<stop offset="1" style="stop-color:#CFCFCF"/>
</linearGradient>
<circle cx="7.952" cy="10.464" fill="url(#SVGID_5_)" r="4.659"/>
<radialGradient cx="148.6523" cy="-52.0352" gradientTransform="matrix(0.9568 3.000000e-004 -3.000000e-004 0.9568 -133.8237 60.5787)" gradientUnits="userSpaceOnUse" id="SVGID_6_" r="5.2276">
<stop offset="0" style="stop-color:#000000"/>
<stop offset="0.5917" style="stop-color:#000000"/>
<stop offset="0.627" style="stop-color:#050505"/>
<stop offset="0.7652" style="stop-color:#121212"/>
<stop offset="0.8876" style="stop-color:#171717"/>
<stop offset="1" style="stop-color:#171717"/>
</radialGradient>
<circle cx="7.952" cy="10.464" fill="url(#SVGID_6_)" r="4.358"/>
<radialGradient cx="145.7949" cy="-41.3301" gradientTransform="matrix(0.9651 0 0 0.965 -134.7423 47.3895)" gradientUnits="userSpaceOnUse" id="SVGID_7_" r="8.3282">
<stop offset="0" style="stop-color:#242424"/>
<stop offset="0.4303" style="stop-color:#242424"/>
<stop offset="0.7818" style="stop-color:#000000"/>
<stop offset="1" style="stop-color:#000000"/>
</radialGradient>
<circle cx="7.951" cy="10.464" fill="url(#SVGID_7_)" r="3.607"/>
<radialGradient cx="146.1094" cy="-80.7524" gradientTransform="matrix(0.9448 3.000000e-004 -3.000000e-004 0.9449 -131.0246 81.9801)" gradientUnits="userSpaceOnUse" id="SVGID_8_" r="9.1349">
<stop offset="0" style="stop-color:#8D4AAB"/>
<stop offset="0.3091" style="stop-color:#8D4AAB"/>
<stop offset="0.4364" style="stop-color:#532961"/>
<stop offset="0.8061" style="stop-color:#070F0F"/>
<stop offset="1" style="stop-color:#070F0F"/>
</radialGradient>
<circle cx="7.951" cy="10.464" fill="url(#SVGID_8_)" r="3.156"/>
<radialGradient cx="147.0527" cy="-162.396" gradientTransform="matrix(0.9448 3.000000e-004 -3.000000e-004 0.8996 -131.0251 159.1253)" gradientUnits="userSpaceOnUse" id="SVGID_9_" r="3.709">
<stop offset="0" style="stop-color:#264932"/>
<stop offset="0.7879" style="stop-color:#000000"/>
<stop offset="1" style="stop-color:#000000"/>
</radialGradient>
<path d="M11.107,10.575c-0.001,1.659-1.414,3.005-3.156,3.004s-3.156-1.348-3.156-3.006  c0,0,1.082,1.833,3.156,1.833C10.025,12.407,11.107,10.575,11.107,10.575z" fill="url(#SVGID_9_)"/>
<linearGradient gradientUnits="userSpaceOnUse" id="SVGID_10_" x1="7.9346" x2="7.9346" y1="6.584" y2="10.4348">
<stop offset="0" style="stop-color:#FAFDFB"/>
<stop offset="1" style="stop-color:#808080"/>
</linearGradient>
<path d="M7.936,10.416c1.398,0,2.717-0.213,3.879-0.586c-0.33-1.846-1.939-3.246-3.879-3.246  s-3.549,1.4-3.881,3.245C5.219,10.203,6.537,10.416,7.936,10.416z" fill="url(#SVGID_10_)" fill-opacity="0.35" stroke-opacity="0.35"/>
<linearGradient gradientUnits="userSpaceOnUse" id="SVGID_11_" x1="22.2285" x2="22.2285" y1="11.7466" y2="22.9921">
<stop offset="0" style="stop-color:#F2F2F2"/>
<stop offset="0.3212" style="stop-color:#E6E6E6"/>
<stop offset="1" style="stop-color:#666666"/>
</linearGradient>
<path d="M29,22.402c0,0.354-0.287,0.642-0.641,0.642H16.098c-0.354,0-0.641-0.288-0.641-0.642v-9.936  c0-0.354,0.287-0.642,0.641-0.642h12.262c0.354,0,0.641,0.288,0.641,0.642V22.402z" fill="url(#SVGID_11_)"/>
<linearGradient gradientUnits="userSpaceOnUse" id="SVGID_12_" x1="22.2285" x2="22.2285" y1="12.0703" y2="22.6757">
<stop offset="0" style="stop-color:#D2D3D2"/>
<stop offset="0.1212" style="stop-color:#D2D3D2"/>
<stop offset="0.5091" style="stop-color:#B2B6B5"/>
<stop offset="0.5091" style="stop-color:#A2A5A5"/>
<stop offset="0.6606" style="stop-color:#808485"/>
<stop offset="0.9758" style="stop-color:#AFB3B2"/>
<stop offset="0.9758" style="stop-color:#5B5B5D"/>
<stop offset="1" style="stop-color:#AFB3B2"/>
<stop offset="1" style="stop-color:#5B5B5D"/>
</linearGradient>
<path d="M16.098,22.725c-0.178,0-0.32-0.145-0.32-0.322v-9.936c0-0.178,0.143-0.322,0.32-0.322h12.262  c0.176,0,0.32,0.145,0.32,0.322v9.936c0,0.178-0.145,0.322-0.32,0.322H16.098z" fill="url(#SVGID_12_)"/>
<linearGradient gradientUnits="userSpaceOnUse" id="SVGID_13_" x1="14.9092" x2="13.6655" y1="17.4346" y2="17.4346">
<stop offset="0" style="stop-color:#D3D4D4"/>
<stop offset="1" style="stop-color:#EDEDED"/>
</linearGradient>
<path d="M14.9,13.788h-1.279v7.293h1.275C14.898,18.812,14.9,15.968,14.9,13.788z" fill="url(#SVGID_13_)"/>
<linearGradient gradientUnits="userSpaceOnUse" id="SVGID_14_" x1="14.9092" x2="13.975" y1="17.4341" y2="17.4341">
<stop offset="0" style="stop-color:#5F5F5F"/>
<stop offset="1" style="stop-color:#000000"/>
</linearGradient>
<rect fill="url(#SVGID_14_)" height="6.651" width="0.961" x="13.941" y="14.108"/>
<linearGradient gradientUnits="userSpaceOnUse" id="SVGID_15_" x1="15.4912" x2="14.3045" y1="17.4346" y2="17.4346">
<stop offset="0" style="stop-color:#CFCFCF"/>
<stop offset="0.1091" style="stop-color:#CFCFCF"/>
<stop offset="0.6848" style="stop-color:#121212"/>
<stop offset="1" style="stop-color:#A6A6A6"/>
</linearGradient>
<rect fill="url(#SVGID_15_)" height="6.01" width="1.221" x="14.262" y="14.43"/>
<rect fill-opacity="0.25" height="6.01" stroke-opacity="0.25" width="0.346" x="15.137" y="14.43"/>
<rect fill="none" height="30" width="30"/>
</g>
</svg>
