<?xml version="1.0" encoding="UTF-8"?>
<!DOCTYPE svg PUBLIC "-//W3C//DTD SVG 1.1 Tiny//EN" "http://www.w3.org/Graphics/SVG/1.1/DTD/svg11-tiny.dtd">
<svg baseProfile="tiny" height="20px" version="1.1" viewBox="0 0 40 20" width="40px" x="0px" xmlns="http://www.w3.org/2000/svg" xmlns:xlink="http://www.w3.org/1999/xlink" y="0px">
<path d="M40,16c0,2.209-1.791,4-4,4H4c-2.209,0-4-1.791-4-4V4c0-2.209,1.791-4,4-4h32c2.209,0,4,1.791,4,4V16z" fill="#828282"/>
<path d="M13.325,16.887l-0.756-2.883H8.605l-0.773,2.883H5.634L9.414,3.782h2.848l3.621,13.105H13.325z   M12.208,12.527L10.6,6.014l-1.652,6.513H12.208z" fill="#FFFFFF"/>
<path d="M21.35,16.887h-4.07V3.782h4.376c1.254,0,2.195,0.265,2.822,0.795s0.939,1.323,0.939,2.377  c0,1.5-0.727,2.508-2.18,3.023c1.67,0.381,2.506,1.454,2.506,3.217c0,1.23-0.367,2.152-1.1,2.768S22.814,16.887,21.35,16.887z   M19.697,9.345h1.186c0.721,0,1.25-0.173,1.588-0.519c0.336-0.346,0.504-0.894,0.504-1.644c0-0.639-0.152-1.119-0.461-1.441  c-0.307-0.322-0.766-0.483-1.375-0.483h-1.442V9.345z M19.697,15.41h1.327c0.779,0,1.344-0.181,1.693-0.541  c0.348-0.36,0.521-0.953,0.521-1.779c0-0.773-0.18-1.346-0.539-1.715c-0.361-0.369-0.926-0.553-1.693-0.553h-1.309V15.41z" fill="#FFFFFF"/>
<path d="M32.23,17.027c-1.67,0-2.926-0.532-3.766-1.596c-0.842-1.063-1.262-2.811-1.262-5.243  c0-2.18,0.424-3.816,1.27-4.909c0.848-1.093,2.117-1.639,3.811-1.639c0.691,0,1.385,0.094,2.082,0.281V5.46  c-0.691-0.205-1.309-0.308-1.854-0.308c-0.932,0-1.629,0.415-2.092,1.244s-0.695,2.07-0.695,3.722c0,1.922,0.24,3.301,0.717,4.139  c0.479,0.838,1.193,1.258,2.148,1.258c0.557,0,1.148-0.088,1.775-0.264v1.494C33.668,16.934,32.957,17.027,32.23,17.027z" fill="#FFFFFF"/>
</svg>
