<?xml version="1.0" encoding="UTF-8"?>
<!DOCTYPE svg PUBLIC "-//W3C//DTD SVG 1.1 Tiny//EN" "http://www.w3.org/Graphics/SVG/1.1/DTD/svg11-tiny.dtd">
<svg baseProfile="tiny" height="10px" version="1.1" viewBox="0 0 10 10" width="10px" x="0px" xmlns="http://www.w3.org/2000/svg" xmlns:xlink="http://www.w3.org/1999/xlink" y="0px">
<rect fill="none" height="10" width="10"/>
<path d="M7,7C4.794,7,3,5.206,3,3V0H1v3c0,3.3,2.7,6,6,6h3V7H7z" fill="#14141E" fill-opacity="0.4" stroke-opacity="0.4"/>
<path d="M2,2v1c0,2.757,2.243,5,5,5h3V2H2z" fill-opacity="0.2" stroke-opacity="0.2"/>
<path d="M2,0v2c0,2.757,2.243,5,5,5h3V0H2z" fill="url(#SVGID_1_)"/>
<path d="M7,6C4.794,6,3,4.205,3,2V0H2v2c0,2.757,2.243,5,5,5h3V6H7z" fill="#FFFFFF" fill-opacity="0.2" stroke-opacity="0.2"/>
<rect fill="none" height="10" width="10"/>
<defs>
<linearGradient gradientUnits="userSpaceOnUse" id="SVGID_1_" x1="6" x2="6" y1="-37.9995" y2="6.9338">
<stop offset="0" style="stop-color:#BEBEC3"/>
<stop offset="1" style="stop-color:#8C8C91"/>
</linearGradient>
</defs>
</svg>
