<?xml version="1.0" encoding="UTF-8"?>
<!DOCTYPE svg PUBLIC "-//W3C//DTD SVG 1.1 Tiny//EN" "http://www.w3.org/Graphics/SVG/1.1/DTD/svg11-tiny.dtd">
<svg baseProfile="tiny" height="15px" version="1.1" viewBox="0 0 15 15" width="15px" x="0px" xmlns="http://www.w3.org/2000/svg" xmlns:xlink="http://www.w3.org/1999/xlink" y="0px">
<rect fill="none" height="15" width="15"/>
<rect fill="none" height="15" width="15"/>
<path d="M0,0c0,4.963,4.038,9,9,9h6V0H0z" fill="#14141E" fill-opacity="0.1" fill-rule="evenodd" stroke-opacity="0.1"/>
<path d="M1,0c0,4.411,3.589,8,8,8h6V0H1z" fill="#14141E" fill-opacity="0.2" fill-rule="evenodd" stroke-opacity="0.2"/>
<path d="M1,0c0,4.411,3.589,7,8,7h6V0H1z" fill="url(#SVGID_1_)" fill-rule="evenodd"/>
<path d="M9,6C5.516,6,2,4.145,2,0H1c0,4.411,3.589,7,8,7h6V6H9z" fill-opacity="0.2" fill-rule="evenodd" stroke-opacity="0.2"/>
<path d="M9,5C6.232,5,3,3.691,3,0H2c0,4.145,3.516,6,7,6h6V5  H9z" fill="#FFFFFF" fill-opacity="0.2" fill-rule="evenodd" stroke-opacity="0.2"/>
<defs>
<linearGradient gradientUnits="userSpaceOnUse" id="SVGID_1_" x1="8" x2="8" y1="-43.3301" y2="7.1102">
<stop offset="0" style="stop-color:#66CCAD"/>
<stop offset="1" style="stop-color:#3FA990"/>
</linearGradient>
</defs>
</svg>
