<?xml version="1.0" encoding="UTF-8"?>
<!DOCTYPE svg PUBLIC "-//W3C//DTD SVG 1.1 Tiny//EN" "http://www.w3.org/Graphics/SVG/1.1/DTD/svg11-tiny.dtd">
<svg baseProfile="tiny" height="30px" version="1.1" viewBox="0 0 30 30" width="30px" x="0px" xmlns="http://www.w3.org/2000/svg" xmlns:xlink="http://www.w3.org/1999/xlink" y="0px">
<rect fill="none" height="30" width="30"/>
<path d="M12.262,24.475c-1.676,0.432-3.574-0.029-4.943-1.393c-1.368-1.359-1.839-3.256-1.41-4.928L12.262,24.475z"/>
<path d="M14,23c0-1.467,0.359-2.85,0.985-4.074L5.954,9.943c-1.916-0.683-2.642-0.19-3.519,0.688L1,12.067l13.311,13.239  C14.115,24.568,14,23.799,14,23z"/>
<path d="M23,14c1.723,0,3.328,0.495,4.697,1.338c0.115-0.205,0.221-0.418,0.298-0.65c0.314-0.936,0.326-1.95,0.152-2.916  c0,0-0.413-2.225-2.375-4.551l0.066-0.066c0.778-0.778,0.775-2.048-0.004-2.826C25.055,3.553,23.779,3.555,23,4.332L22.943,4.39  c-2.385-2.043-4.697-2.466-4.697-2.466c-0.968-0.171-1.985-0.156-2.924,0.16c-1.508,0.507-2.375,1.876-3.349,3.055  c-0.616,0.747-1.2,1.535-1.847,2.256C9.37,8.238,8.64,8.787,7.99,9.147l8.118,8.075C17.761,15.255,20.235,14,23,14z"/>
<path d="M23,16c-3.865,0-7,3.135-7,7c0,3.867,3.135,7,7,7s7-3.133,7-7C30,19.135,26.865,16,23,16z M24,24v4h-2v-4h-4v-2h4v-4h2v4h4  v2H24z"/>
</svg>
