<?xml version="1.0" encoding="UTF-8"?>
<!DOCTYPE svg PUBLIC "-//W3C//DTD SVG 1.1 Tiny//EN" "http://www.w3.org/Graphics/SVG/1.1/DTD/svg11-tiny.dtd">
<svg baseProfile="tiny" height="30px" version="1.1" viewBox="0 0 30 30" width="30px" x="0px" xmlns="http://www.w3.org/2000/svg" xmlns:xlink="http://www.w3.org/1999/xlink" y="0px">
<path d="M3,7v16h24V7H3z M24,10.5V18v2v1h-5h-3H6v-1v-6h3v6h2v-4h3v4h2v-8h3v8h2v-2v-7.5V9h3V10.5z"/>
<path d="M29,6V5c0-1.104-0.896-2-2-2H3C1.896,3,1,3.896,1,5v1H29z"/>
<path d="M1,24v1c0,1.104,0.896,2,2,2h24c1.104,0,2-0.896,2-2v-1H1z"/>
<g fill-opacity="0.5" stroke-opacity="0.5">
<rect fill="none" height="30" width="30"/>
</g>
</svg>
