<?xml version="1.0" encoding="UTF-8"?>
<!DOCTYPE svg PUBLIC "-//W3C//DTD SVG 1.1 Tiny//EN" "http://www.w3.org/Graphics/SVG/1.1/DTD/svg11-tiny.dtd">
<svg baseProfile="tiny" height="15px" version="1.1" viewBox="0 0 15 15" width="15px" x="0px" xmlns="http://www.w3.org/2000/svg" xmlns:xlink="http://www.w3.org/1999/xlink" y="0px">
<rect fill="none" height="15" width="15"/>
<rect fill="none" height="15" width="15"/>
<path d="M0,0v6c0,4.963,4.038,9,9,9h6V0H0z" fill="#14141E" fill-opacity="0.1" fill-rule="evenodd" stroke-opacity="0.1"/>
<path d="M1,0v6c0,4.412,3.589,8,8,8h6V0H1z" fill="#14141E" fill-opacity="0.2" fill-rule="evenodd" stroke-opacity="0.2"/>
<path d="M1,0v5c0,4.411,3.589,8,8,8h6V0H1z" fill="url(#SVGID_1_)" fill-rule="evenodd"/>
<path d="M9,12.001c-3.86,0-7-3.14-7-7V0H1v5.001c0,4.411,3.589,8,8,8h6v-1H9  z" fill-opacity="0.2" fill-rule="evenodd" stroke-opacity="0.2"/>
<path d="M9,11.001c-3.309,0-6-2.691-6-6V0H2v5.001  c0,3.86,3.14,7,7,7h6v-1H9z" fill="#FFFFFF" fill-opacity="0.2" fill-rule="evenodd" stroke-opacity="0.2"/>
<defs>
<linearGradient gradientUnits="userSpaceOnUse" id="SVGID_1_" x1="8" x2="8" y1="13" y2="-37.8115">
<stop offset="0" style="stop-color:#65B8CC"/>
<stop offset="1" style="stop-color:#306D8C"/>
</linearGradient>
</defs>
</svg>
