<?xml version="1.0" encoding="UTF-8"?>
<!DOCTYPE svg PUBLIC "-//W3C//DTD SVG 1.1 Tiny//EN" "http://www.w3.org/Graphics/SVG/1.1/DTD/svg11-tiny.dtd">
<svg baseProfile="tiny" height="15px" version="1.1" viewBox="0 0 15 15" width="15px" x="0px" xmlns="http://www.w3.org/2000/svg" xmlns:xlink="http://www.w3.org/1999/xlink" y="0px">
<rect fill="none" height="15" width="15"/>
<rect fill="none" fill-rule="evenodd" height="15" width="15"/>
<path d="M11,6c-4.611,0-7.485-2.655-8.638-5.14  C2.032,0.149,1.552,0,1.207,0C0.652,0,0.191,0.406,0.031,1.036L0,1.157V15h15V6H11z" fill="#14141E" fill-opacity="0.1" fill-rule="evenodd" stroke-opacity="0.1"/>
<path d="M11,7C6,7,2.797,4.173,1.455,1.281  C1.161,0.648,1,1.282,1,1.282V15h14V7H11z" fill="url(#SVGID_1_)" fill-rule="evenodd"/>
<path d="M11,7C6,7,2.797,4.174,1.455,1.282C1.161,0.649,1,1.283,1,1.283V15  h1V3.971C3.843,6.177,6.843,8,11,8h4V7H11z" fill-opacity="0.2" fill-rule="evenodd" stroke-opacity="0.2"/>
<path d="M11,8C6.843,8,3.843,6.177,2,3.971V15h1V6.334  C5.191,8.067,7.957,9,11,9h4V8H11z" fill="#FFFFFF" fill-opacity="0.2" fill-rule="evenodd" stroke-opacity="0.2"/>
<defs>
<linearGradient gradientUnits="userSpaceOnUse" id="SVGID_1_" x1="8" x2="8" y1="7.0005" y2="57.7603">
<stop offset="0" style="stop-color:#66B8CC"/>
<stop offset="1" style="stop-color:#3F89A9"/>
</linearGradient>
</defs>
</svg>
