<?xml version="1.0" encoding="UTF-8"?>
<!DOCTYPE svg PUBLIC "-//W3C//DTD SVG 1.1 Tiny//EN" "http://www.w3.org/Graphics/SVG/1.1/DTD/svg11-tiny.dtd">
<svg baseProfile="tiny" height="60" viewBox="0 0 60 60" width="60" xmlns="http://www.w3.org/2000/svg" xmlns:xlink="http://www.w3.org/1999/xlink">
<g>
<radialGradient cx="-1627.3687" cy="-2479.0078" gradientTransform="matrix(0.7071 0.7071 -0.7071 0.7071 -564.6201 2940.3716)" gradientUnits="userSpaceOnUse" id="SVGID_1_" r="45.6647">
<stop offset="0" style="stop-color:#93AC5D"/>
<stop offset="0.297" style="stop-color:#93AC5D"/>
<stop offset="0.6667" style="stop-color:#356742"/>
<stop offset="0.7939" style="stop-color:#447B42"/>
<stop offset="1" style="stop-color:#447B42"/>
</radialGradient>
<path d="M20.37,41.951c0.299-0.437,0.233-0.799-0.258-1.332c-0.617-0.666-2.567-3.084-2.968-3.737  c-0.353-0.575-0.411-1.02-0.034-1.71c0.473-0.865,1.915-3.764,8.107-9.956c6.192-6.192,9.084-7.646,9.956-8.108  c0.76-0.399,1.037-0.344,1.711,0.036c0.666,0.376,3.068,2.352,3.734,2.967c0.535,0.492,0.873,0.588,1.301,0.274  c0.752-0.551,13.828-9.843,15.229-10.774c0.85-0.565,1.141-1.062,0.523-1.779c-2.477-2.889-8.594-5.015-10.752-5.399  c-1.922-0.345-3.875-0.873-6.564,0.236c-2.561,1.053-13.076,8.534-21.113,16.571C11.203,27.277,3.722,37.795,2.668,40.352  c-1.108,2.691-0.581,4.645-0.236,6.567c0.387,2.158,2.511,8.275,5.4,10.752c0.718,0.616,1.213,0.323,1.777-0.525  C10.542,55.745,19.852,42.705,20.37,41.951z" fill="url(#SVGID_1_)"/>
<linearGradient gradientTransform="matrix(0.7071 0.7071 -0.7071 0.7071 -564.6201 2940.3716)" gradientUnits="userSpaceOnUse" id="SVGID_2_" x1="-1639.3428" x2="-1638.9111" y1="-2494.9824" y2="-2491.4067">
<stop offset="0" style="stop-color:#3C7440"/>
<stop offset="1" style="stop-color:#1E3A31"/>
</linearGradient>
<path d="M35.172,17.107c0.76-0.399,1.037-0.344,1.711,0.036c0.666,0.376,3.068,2.352,3.734,2.967  c0.535,0.492,0.873,0.588,1.301,0.274c0.047-0.034,0.063-0.046,0.064-0.046c0.252-0.184,1.031-0.739,2.119-1.514  c-0.252-0.205-3.469-2.809-4.801-2.956C36.855,15.598,35.172,17.107,35.172,17.107z" fill="url(#SVGID_2_)"/>
<linearGradient gradientTransform="matrix(0.7071 0.7071 0.7071 -0.7071 -1696.8304 4072.5859)" gradientUnits="userSpaceOnUse" id="SVGID_3_" x1="-1639.3467" x2="-1638.9149" y1="4063.0557" y2="4066.6318">
<stop offset="0" style="stop-color:#3C7440"/>
<stop offset="1" style="stop-color:#1E3A31"/>
</linearGradient>
<path d="M17.092,35.188c-0.401,0.763-0.346,1.039,0.035,1.714c0.376,0.665,2.351,3.067,2.967,3.737  c0.492,0.53,0.587,0.869,0.274,1.297c-0.035,0.049-0.046,0.063-0.046,0.063c-0.183,0.253-0.738,1.032-1.515,2.12  c-0.203-0.252-2.807-3.469-2.956-4.8C15.579,36.875,17.092,35.188,17.092,35.188z" fill="url(#SVGID_3_)"/>
<path d="M2.979,47.466c-0.344-1.923-0.873-3.877,0.235-6.567c1.054-2.557,8.535-13.074,16.573-21.112  C27.825,11.749,38.34,4.268,40.9,3.215c2.689-1.108,4.643-0.581,6.566-0.236c1.98,0.354,7.297,2.178,10.07,4.711  c-2.553-2.815-8.496-4.879-10.619-5.258c-1.922-0.345-3.875-0.873-6.564,0.236c-2.561,1.053-13.076,8.534-21.113,16.571  C11.203,27.277,3.722,37.795,2.668,40.352c-1.108,2.691-0.581,4.645-0.236,6.567c0.378,2.122,2.441,8.065,5.258,10.617  C5.156,54.763,3.333,49.448,2.979,47.466z" fill="#B1BE95" fill-opacity="0.5" stroke-opacity="0.5"/>
<path d="M20.37,41.951c0.299-0.437,0.233-0.799-0.258-1.332c-0.617-0.666-2.567-3.084-2.968-3.737  c-0.353-0.575-0.411-1.02-0.034-1.71c0.473-0.865,1.915-3.764,8.107-9.956c6.192-6.192,9.084-7.646,9.956-8.108  c0.76-0.399,1.037-0.344,1.711,0.036c0.666,0.376,3.068,2.352,3.734,2.967c0.535,0.492,0.873,0.588,1.301,0.274  c0.752-0.551,13.828-9.843,15.229-10.774c0.85-0.565,1.141-1.062,0.523-1.779c-0.291-0.339-0.635-0.665-1.012-0.982  c0.488,0.658,0.197,1.134-0.607,1.667c-1.4,0.932-14.475,10.224-15.227,10.775c-0.43,0.313-0.768,0.218-1.299-0.273  c-0.668-0.618-3.07-2.592-3.738-2.969c-0.672-0.38-0.949-0.436-1.711-0.035c-0.869,0.462-3.763,1.915-9.955,8.107  c-6.192,6.192-7.635,9.092-8.107,9.956c-0.378,0.69-0.32,1.135,0.035,1.711c0.4,0.651,2.351,3.069,2.967,3.736  c0.493,0.533,0.558,0.896,0.259,1.332c-0.518,0.755-9.828,13.794-10.76,15.195c-0.534,0.803-1.009,1.098-1.666,0.606  c0.314,0.378,0.643,0.723,0.982,1.013c0.718,0.616,1.213,0.323,1.777-0.525C10.542,55.745,19.852,42.705,20.37,41.951z" fill="#B1BE95" fill-opacity="0.6" stroke-opacity="0.6"/>
<linearGradient gradientTransform="matrix(0.7071 0.7071 -0.7071 0.7071 -608.1406 2931.3247)" gradientUnits="userSpaceOnUse" id="SVGID_4_" x1="-1610.522" x2="-1610.522" y1="-2533.3467" y2="-2471.428">
<stop offset="0" style="stop-color:#315D3E"/>
<stop offset="0.5" style="stop-color:#1E3A31"/>
<stop offset="1" style="stop-color:#2E593D"/>
</linearGradient>
<path d="M2.899,45.012c1.275-2.776,10.299-14.805,18.804-23.31  c8.505-8.506,20.531-17.529,23.309-18.803c0.527-0.241,1.02-0.411,1.492-0.545c-0.512-0.096-1.031-0.19-1.566-0.26  c-0.086,0.036-0.162,0.063-0.248,0.102c-2.818,1.293-14.972,10.397-23.534,18.958c-8.562,8.562-17.667,20.715-18.96,23.535  c-0.038,0.086-0.063,0.165-0.101,0.25c0.071,0.534,0.165,1.054,0.259,1.564C2.489,46.03,2.658,45.539,2.899,45.012z" fill="url(#SVGID_4_)" fill-opacity="0.5" stroke-opacity="0.5"/>
<rect fill="none" height="60" width="60"/>
</g>
<g transform="matrix(1 0 0 1 30 30)">
<linearGradient gradientUnits="userSpaceOnUse" id="SVGID_1__" x1="12.38" x2="17.62" y1="23.65" y2="23.65">
<stop offset="0" stop-color="#898A8B"/>
<stop offset="0.2606" stop-color="#BFC2C1"/>
<stop offset="0.6606" stop-color="#5D5F61"/>
<stop offset="1" stop-color="#979A9A"/>
</linearGradient>
<rect fill="url(#SVGID_1__)" height="7.853" width="5.105" x="12.45" y="19.72"/>
<path d="M12.45,24.66c0.82,0.199,1.673,0.315,2.553,0.315,0.881,0,1.732-0.116,2.553-0.315v-4.294h-5.105v4.285z" fill="#020202" fill-opacity="0.2" stroke-opacity="0.2"/>
<path d="M12.45,24.02c0.82,0.199,1.673,0.315,2.553,0.315,0.881,0,1.732-0.116,2.553-0.315v-4.294h-5.105v4.288z" fill="#020202" fill-opacity="0.2" stroke-opacity="0.2"/>
<linearGradient gradientUnits="userSpaceOnUse" id="SVGID_2__" x1="15" x2="15" y1="1.975" y2="23.67">
<stop offset="0" stop-color="#F2F2F2"/>
<stop offset="0.3212" stop-color="#E6E6E6"/>
<stop offset="1" stop-color="#666666"/>
</linearGradient>
<path d="M15,23.7c-5.98,0-10.85-4.867-10.85-10.85s4.87-10.85,10.85-10.85c5.982,0,10.85,4.866,10.85,10.85s-4.87,10.85-10.85,10.85z" fill="url(#SVGID_2__)"/>
<linearGradient gradientUnits="userSpaceOnUse" id="SVGID_3__" x1="15" x2="15" y1="2.614" y2="23.03">
<stop offset="0" stop-color="#D3D7D5"/>
<stop offset="0.0667" stop-color="#D3D7D5"/>
<stop offset="0.2606" stop-color="#BFC2C1"/>
<stop offset="0.6606" stop-color="#7F8384"/>
<stop offset="1" stop-color="#AFB3B2"/>
</linearGradient>
<circle cx="15" cy="12.85" fill="url(#SVGID_3__)" r="10.21"/>
<path d="M15,21.99c-5.315,0-9.657-4.23-9.843-9.5-0.004,0.116-0.009,0.231-0.009,0.349,0,5.431,4.419,9.851,9.852,9.851s9.852-4.42,9.852-9.851c0-0.117-0.005-0.232-0.009-0.349-0.18,5.27-4.52,9.5-9.84,9.5z" fill="#FFFFFF" fill-opacity="0.1" stroke-opacity="0.1"/>
<path d="M23.3,12.41c0,4.704-3.715,9.346-8.299,9.345-4.58-0.003-8.292-4.646-8.291-9.35,0.002-4.706,3.718-8.517,8.298-8.517,4.57,0.001,8.29,3.814,8.29,8.517z" fill="#222021" fill-opacity="0.3" stroke-opacity="0.3"/>
<path d="M15,21.07c-2.387-0.002-4.63-0.932-6.315-2.619-1.688-1.688-2.615-3.932-2.614-6.318,0-4.923,4.009-8.929,8.935-8.929,2.387,0,4.632,0.931,6.317,2.618,1.688,1.688,2.616,3.933,2.615,6.318-0.002,4.924-4.01,8.93-8.934,8.93h-0.014z" fill="#222021" fill-opacity="0.2" stroke-opacity="0.2"/>
<linearGradient gradientUnits="userSpaceOnUse" id="SVGID_4__" x1="15" x2="15" y1="3.721" y2="20.35">
<stop offset="0" stop-color="#CFCFCF"/>
<stop offset="0.1091" stop-color="#CFCFCF"/>
<stop offset="0.6848" stop-color="#121212"/>
<stop offset="1" stop-color="#A6A6A6"/>
</linearGradient>
<path d="M15,20.43c-2.216-0.002-4.298-0.864-5.864-2.432-1.567-1.566-2.428-3.65-2.427-5.866,0-4.573,3.723-8.293,8.296-8.293,2.218,0.001,4.3,0.864,5.866,2.432s2.43,3.651,2.428,5.867c-0.001,4.573-3.723,8.292-8.295,8.292h-0.004z" fill="url(#SVGID_4__)"/>
<linearGradient gradientUnits="userSpaceOnUse" id="SVGID_5_" x1="15" x2="15" y1="4.368" y2="19.72">
<stop offset="0" stop-color="#F2F2F2"/>
<stop offset="1" stop-color="#636566"/>
</linearGradient>
<circle cx="15" cy="12.13" fill="url(#SVGID_5_)" r="7.657"/>
<linearGradient gradientUnits="userSpaceOnUse" id="SVGID_6_" x1="15" x2="15" y1="5.772" y2="18.45">
<stop offset="0" stop-color="#1A1A1A"/>
<stop offset="0.503" stop-color="#343434"/>
<stop offset="0.7515" stop-color="#9E9E9E"/>
<stop offset="1" stop-color="#CFCFCF"/>
</linearGradient>
<path d="M15,18.51c-1.706-0.001-3.309-0.666-4.514-1.871-1.204-1.206-1.867-2.808-1.867-4.512,0-3.517,2.862-6.378,6.382-6.378,1.706,0,3.308,0.664,4.513,1.871,1.205,1.205,1.868,2.808,1.867,4.513,0,3.51-2.86,6.37-6.38,6.37z" fill="url(#SVGID_6_)"/>
<radialGradient cx="25.77" cy="10.27" gradientTransform="matrix(1.0143 3.000000e-004 -3.000000e-004 1.0141 -10.5185 2.1979)" gradientUnits="userSpaceOnUse" id="SVGID_7_" r="6.499">
<stop offset="0" stop-color="#000000"/>
<stop offset="0.5917" stop-color="#000000"/>
<stop offset="0.627" stop-color="#050505"/>
<stop offset="0.7652" stop-color="#121212"/>
<stop offset="0.8876" stop-color="#171717"/>
<stop offset="1" stop-color="#171717"/>
</radialGradient>
<path d="M20.74,12.14c0,3.172-2.574,5.74-5.744,5.74-3.175-0.001-5.743-2.573-5.741-5.745,0-3.171,2.573-5.742,5.745-5.74,3.17-0.009,5.74,2.562,5.74,5.74z" fill="url(#SVGID_7_)"/>
<radialGradient cx="21.65" cy="5.066" gradientTransform="matrix(1.0143 0 0 1.0141 -9.5579 3.1299)" gradientUnits="userSpaceOnUse" id="SVGID_8_" r="10.35">
<stop offset="0" stop-color="#242424"/>
<stop offset="0.4303" stop-color="#242424"/>
<stop offset="0.7818" stop-color="#000000"/>
<stop offset="1" stop-color="#000000"/>
</radialGradient>
<circle cx="15" cy="12.13" fill="url(#SVGID_8_)" r="4.712"/>
<radialGradient cx="23.96" cy="3.55" gradientTransform="matrix(1.0143 3.000000e-004 -3.000000e-004 1.0141 -10.5185 2.1979)" gradientUnits="userSpaceOnUse" id="SVGID_9_" r="11.36">
<stop offset="0" stop-color="#8D4AAB"/>
<stop offset="0.3091" stop-color="#8D4AAB"/>
<stop offset="0.4364" stop-color="#532961"/>
<stop offset="0.8061" stop-color="#070F0F"/>
<stop offset="1" stop-color="#070F0F"/>
</radialGradient>
<path d="M19.21,12.13c0,2.326-1.886,4.21-4.212,4.21-2.326-0.002-4.213-1.888-4.213-4.212,0.004-2.327,1.89-4.21,4.213-4.21,2.33,0.003,4.21,1.888,4.21,4.21z" fill="url(#SVGID_9_)"/>
<radialGradient cx="25.17" cy="13.25" gradientTransform="matrix(1.0143 3.000000e-004 -3.000000e-004 1.0141 -10.5185 2.1979)" gradientUnits="userSpaceOnUse" id="SVGID_10_" r="4.611">
<stop offset="0" stop-color="#264932"/>
<stop offset="0.7879" stop-color="#000000"/>
<stop offset="1" stop-color="#000000"/>
</radialGradient>
<path d="M19.21,12.13c0,2.326-1.886,4.21-4.212,4.21-2.326-0.002-4.213-1.888-4.213-4.212,0,0,1.444,2.569,4.213,2.569,2.77,0,4.21-2.57,4.21-2.57z" fill="url(#SVGID_10_)"/>
<linearGradient gradientUnits="userSpaceOnUse" id="SVGID_11_" x1="14.98" x2="14.98" y1="7.065" y2="12.09">
<stop offset="0" stop-color="#FAFDFB"/>
<stop offset="1" stop-color="#808080"/>
</linearGradient>
<path d="M14.98,12.07c1.828,0,3.549-0.277,5.067-0.765-0.431-2.41-2.532-4.239-5.067-4.239-2.532,0-4.632,1.83-5.065,4.239,1.515,0.49,3.235,0.77,5.065,0.77z" fill="url(#SVGID_11_)" fill-opacity="0.35" stroke-opacity="0.35"/>
<linearGradient gradientUnits="userSpaceOnUse" id="SVGID_12_" x1="5.762" x2="24.29" y1="26.72" y2="26.72">
<stop offset="0" stop-color="#898A8B"/>
<stop offset="0.2606" stop-color="#BFC2C1"/>
<stop offset="0.6606" stop-color="#5D5F61"/>
<stop offset="1" stop-color="#979A9A"/>
</linearGradient>
<path d="M24.24,28c0.025-0.635,0.04-0.508,0.04-0.639v-0.035c0-1.037-0.852-1.879-1.901-1.879h-14.72c-1.05,0-1.9,0.842-1.9,1.879v0.035c0,0.131,0.014,0.004,0.04,0.639h18.44z" fill="url(#SVGID_12_)"/>
<path d="M5.879,26.7h18.29c-0.084-0.234-0.212-0.444-0.377-0.626h-17.53c-0.164,0.19-0.293,0.4-0.377,0.63z" fill="#FFFFFF" fill-opacity="0.2" stroke-opacity="0.2"/>
<path d="M5.772,27.36c0.007,0.13,0.017,0.32,0.03,0.64h18.44c0.012-0.316,0.022-0.508,0.028-0.639h-18.5z" fill="#020202" fill-opacity="0.2" stroke-opacity="0.2"/>
<path d="M6.255,26.07h17.54c-0.348-0.383-0.846-0.627-1.407-0.627h-14.72c-0.56,0.01-1.059,0.25-1.407,0.63z" fill="#FFFFFF" fill-opacity="0.4" stroke-opacity="0.4"/>
<rect fill="none" height="30" width="30"/>
</g>
</svg>
