<?xml version="1.0" encoding="UTF-8"?>
<!DOCTYPE svg PUBLIC "-//W3C//DTD SVG 1.1 Tiny//EN" "http://www.w3.org/Graphics/SVG/1.1/DTD/svg11-tiny.dtd">
<svg baseProfile="tiny" height="82px" version="1.1" viewBox="0 0 82 82" width="82px" x="0px" xmlns="http://www.w3.org/2000/svg" xmlns:xlink="http://www.w3.org/1999/xlink" y="0px">
<path d="M7,82c-3.859,0-7-3.141-7-7V7c0-3.86,3.141-7,7-7h68c3.859,0,7,3.14,7,7v68  c0,3.859-3.141,7-7,7H7z" fill="#14141E" fill-opacity="0.1" stroke-opacity="0.1"/>
<path d="M81,75c0,3.3-2.7,6-6,6H7c-3.3,0-6-2.7-6-6V8c0-3.3,2.7-6,6-6h68c3.3,0,6,2.7,6,6V75z" fill="#14141E" fill-opacity="0.2" stroke-opacity="0.2"/>
<path d="M81,74c0,3.3-2.7,6-6,6H7c-3.3,0-6-2.7-6-6V7c0-3.3,2.7-6,6-6h68c3.3,0,6,2.7,6,6V74z" fill="url(#SVGID_1_)"/>
<path d="M75,2H7C4.243,2,2,4.243,2,7v67c0,2.757,2.243,5,5,5h68c2.757,0,5-2.243,5-5V7  C80,4.243,77.757,2,75,2z M79,74c0,2.205-1.794,4-4,4H7c-2.206,0-4-1.795-4-4V7c0-2.206,1.794-4,4-4h68c2.206,0,4,1.794,4,4V74z" fill="#FFFFFF" fill-opacity="0.2" stroke-opacity="0.2"/>
<path d="M75,1H7C3.7,1,1,3.7,1,7v67c0,3.3,2.7,6,6,6h68c3.3,0,6-2.7,6-6V7C81,3.7,78.3,1,75,1z M80,74  c0,2.757-2.243,5-5,5H7c-2.757,0-5-2.243-5-5V7c0-2.757,2.243-5,5-5h68c2.757,0,5,2.243,5,5V74z" fill-opacity="0.2" stroke-opacity="0.2"/>
<g>
<g>
<path d="M29.049,20.702c0,1.813-1.472,3.284-3.284,3.284h-7.116c-1.813,0-3.284-1.471-3.284-3.284V16.87    c0-1.814,1.471-3.284,3.284-3.284h7.116c1.813,0,3.284,1.47,3.284,3.284V20.702z" fill="#FFFFFF"/>
<path d="M47.844,20.702c0,1.813-1.472,3.284-3.285,3.284h-7.115c-1.815,0-3.284-1.471-3.284-3.284V16.87    c0-1.814,1.469-3.284,3.284-3.284h7.115c1.813,0,3.285,1.47,3.285,3.284V20.702z" fill="#FFFFFF"/>
<path d="M66.636,20.702c0,1.813-1.471,3.284-3.284,3.284h-7.115c-1.813,0-3.284-1.471-3.284-3.284V16.87    c0-1.814,1.471-3.284,3.284-3.284h7.115c1.813,0,3.284,1.47,3.284,3.284V20.702z" fill="#FFFFFF"/>
<path d="M29.049,35.755c0,1.813-1.472,3.284-3.284,3.284h-7.116c-1.813,0-3.284-1.471-3.284-3.284v-3.831    c0-1.815,1.471-3.284,3.284-3.284h7.116c1.813,0,3.284,1.469,3.284,3.284V35.755z" fill="#FFFFFF"/>
<path d="M47.844,35.755c0,1.813-1.472,3.284-3.285,3.284h-7.115c-1.815,0-3.284-1.471-3.284-3.284v-3.831    c0-1.815,1.469-3.284,3.284-3.284h7.115c1.813,0,3.285,1.469,3.285,3.284V35.755z" fill="#FFFFFF"/>
<path d="M66.636,35.755c0,1.813-1.471,3.284-3.284,3.284h-7.115c-1.813,0-3.284-1.471-3.284-3.284v-3.831    c0-1.815,1.471-3.284,3.284-3.284h7.115c1.813,0,3.284,1.469,3.284,3.284V35.755z" fill="#FFFFFF"/>
<path d="M29.049,50.534c0,1.813-1.472,3.284-3.284,3.284h-7.116c-1.813,0-3.284-1.471-3.284-3.284v-3.831    c0-1.815,1.471-3.284,3.284-3.284h7.116c1.813,0,3.284,1.469,3.284,3.284V50.534z" fill="#FFFFFF"/>
<path d="M47.844,50.534c0,1.813-1.472,3.284-3.285,3.284h-7.115c-1.815,0-3.284-1.471-3.284-3.284v-3.831    c0-1.815,1.469-3.284,3.284-3.284h7.115c1.813,0,3.285,1.469,3.285,3.284V50.534z" fill="#FFFFFF"/>
<path d="M47.844,65.13c0,1.815-1.472,3.284-3.285,3.284h-7.115c-1.815,0-3.284-1.469-3.284-3.284v-3.831    c0-1.813,1.469-3.284,3.284-3.284h7.115c1.813,0,3.285,1.471,3.285,3.284V65.13z" fill="#FFFFFF"/>
<path d="M66.636,50.534c0,1.813-1.471,3.284-3.284,3.284h-7.115c-1.813,0-3.284-1.471-3.284-3.284v-3.831    c0-1.815,1.471-3.284,3.284-3.284h7.115c1.813,0,3.284,1.469,3.284,3.284V50.534z" fill="#FFFFFF"/>
</g>
</g>
<defs>
<linearGradient gradientUnits="userSpaceOnUse" id="SVGID_1_" x1="41.0005" x2="41.0005" y1="80" y2="1.0005">
<stop offset="0" style="stop-color:#65B8CC"/>
<stop offset="1" style="stop-color:#306D8C"/>
</linearGradient>
</defs>
</svg>
