<?xml version="1.0" encoding="UTF-8"?>
<!DOCTYPE svg PUBLIC "-//W3C//DTD SVG 1.1 Tiny//EN" "http://www.w3.org/Graphics/SVG/1.1/DTD/svg11-tiny.dtd">
<svg baseProfile="tiny" height="30" viewBox="0 0 30 30" width="30" xmlns="http://www.w3.org/2000/svg" xmlns:xlink="http://www.w3.org/1999/xlink">
<g>
<g>
<rect fill="none" height="30" width="30"/>
</g>
<path d="M14.05,27.266c-0.25-0.904-2.137-3.52-5.009-5.513  c-0.451-0.313-0.938-0.623-1.437-0.942C4.647,18.923,0.967,16.572,1,11.517C1.042,5.269,4.802,2,8.495,2  c2.596,0,4.931,1.478,6.507,4.038c1.564-2.464,3.938-3.929,6.52-3.929c3.572,0,7.437,2.926,7.479,9.351  c0.032,4.867-3.461,7.167-6.267,9.017c-0.61,0.402-1.204,0.793-1.744,1.198c-2.774,2.083-4.815,4.783-5.003,5.56L15.08,29  L14.05,27.266z" fill-opacity="0.6" fill-rule="evenodd" stroke-opacity="0.6"/>
<radialGradient cx="30.8457" cy="15.8979" gradientTransform="matrix(0.9286 0 0 0.984 -13.6423 -6.1737)" gradientUnits="userSpaceOnUse" id="SVGID_1_" r="13.8351">
<stop offset="0" style="stop-color:#CC9A88"/>
<stop offset="1" style="stop-color:#914145"/>
</radialGradient>
<path d="M14.994,8.245C11.629-0.077,2.064,1.864,2,11.523  c-0.035,5.305,4.555,7.288,7.611,9.408c2.963,2.057,5.072,4.87,5.403,6.068c0.283-1.174,2.632-4.066,5.375-6.125  c3-2.252,7.646-4.104,7.611-9.409C27.937,1.783,18.205,0.255,14.994,8.245z" fill="url(#SVGID_1_)" fill-rule="evenodd"/>
<path d="M14.994,9.245  c3.146-7.832,12.552-6.514,12.984,2.659c0.006-0.146,0.022-0.286,0.021-0.438c-0.063-9.683-9.795-11.211-13.006-3.221  C11.629-0.077,2.064,1.864,2,11.523C2,11.675,2.015,11.815,2.021,11.962C2.448,2.796,11.696,1.088,14.994,9.245z" fill="#FFFFFF" fill-opacity="0.3" fill-rule="evenodd" stroke-opacity="0.3"/>
</g>
</svg>
