<?xml version="1.0" encoding="UTF-8"?>
<!DOCTYPE svg PUBLIC "-//W3C//DTD SVG 1.1 Tiny//EN" "http://www.w3.org/Graphics/SVG/1.1/DTD/svg11-tiny.dtd">
<svg baseProfile="tiny" height="50px" version="1.1" viewBox="0 0 25 50" width="25px" x="0px" xmlns="http://www.w3.org/2000/svg" xmlns:xlink="http://www.w3.org/1999/xlink" y="0px">
<rect fill="none" height="50" width="25"/>
<path d="M0,45c0,3,1.8,5,4,5h21v-5H0z" fill-opacity="0.3" stroke-opacity="0.3"/>
<path d="M0,44c0,3,1.8,5,4,5h21v-5H0z" fill-opacity="0.5" stroke-opacity="0.5"/>
<polygon fill-opacity="0.1" points="3,3 3,45 6,45 6,6 25,6 25,3 " stroke-opacity="0.1"/>
<polygon fill-opacity="0.3" points="3,3 3,45 5,45 5,5 25,5 25,3 " stroke-opacity="0.3"/>
<path d="M4,44V4h21V0H4C1.8,0,0,1.8,0,4v40c0,2.2,1.8,4,4,4h21v-4H4z" fill="url(#SVGID_1_)"/>
<rect fill-opacity="0.4" height="1" stroke-opacity="0.4" width="21" x="4" y="4"/>
<defs>
<linearGradient gradientUnits="userSpaceOnUse" id="SVGID_1_" x1="12.5" x2="12.5" y1="0" y2="48.0744">
<stop offset="0" style="stop-color:#6BD7FF"/>
<stop offset="0.3" style="stop-color:#00BAFF"/>
<stop offset="0.7" style="stop-color:#0083CA"/>
<stop offset="1" style="stop-color:#00BAFF"/>
</linearGradient>
</defs>
</svg>
