<?xml version="1.0" encoding="UTF-8"?>
<!DOCTYPE svg PUBLIC "-//W3C//DTD SVG 1.1 Tiny//EN" "http://www.w3.org/Graphics/SVG/1.1/DTD/svg11-tiny.dtd">
<svg baseProfile="tiny" height="60" viewBox="0 0 60 60" width="60" xmlns="http://www.w3.org/2000/svg" xmlns:xlink="http://www.w3.org/1999/xlink">
<g>
<linearGradient gradientUnits="userSpaceOnUse" id="SVGID_1_" x1="26.4722" x2="33.4727" y1="32.4502" y2="32.4502">
<stop offset="0" style="stop-color:#6A6C6E"/>
<stop offset="0.0788" style="stop-color:#ABB0AF"/>
<stop offset="0.3152" style="stop-color:#FFFFFF"/>
<stop offset="0.7333" style="stop-color:#9A9C9C"/>
<stop offset="1" style="stop-color:#C8CAC9"/>
</linearGradient>
<path d="M26.472,10.75v42.014c0,0.766,0.626,1.387,1.399,1.387h4.201c0.773,0,1.4-0.621,1.4-1.387V10.75  H26.472z" fill="url(#SVGID_1_)"/>
<linearGradient gradientUnits="userSpaceOnUse" id="SVGID_2_" x1="29.9995" x2="29.9995" y1="5.6274" y2="33.0842">
<stop offset="0" style="stop-color:#A8A9AA"/>
<stop offset="1" style="stop-color:#222021"/>
</linearGradient>
<path d="M57.893,7.582c-0.316-1.029-1.268-1.732-2.346-1.732H30.322h-0.35H4.453  c-1.078,0-2.029,0.703-2.345,1.732c-0.316,1.029,0.078,2.145,0.971,2.747l23.394,22.586v-9.161L12.455,10.75h17.518h0.35h17.223  L33.473,23.975v9.074l23.449-22.72C57.814,9.727,58.207,8.611,57.893,7.582z" fill="url(#SVGID_2_)"/>
<path d="M2.108,8.384C2.423,7.354,3.375,6.55,4.453,6.55h25.52h0.35h25.225  c1.078,0,2.029,0.804,2.346,1.834c0.033,0.106,0.053,0.214,0.07,0.322c0.063-0.368,0.043-0.751-0.07-1.124  c-0.316-1.029-1.268-1.732-2.346-1.732H30.322h-0.35H4.453c-1.078,0-2.029,0.703-2.345,1.732C1.993,7.955,1.975,8.338,2.037,8.706  C2.054,8.598,2.075,8.49,2.108,8.384z" fill="#FFFFFF" fill-opacity="0.6" stroke-opacity="0.6"/>
<polygon fill="#FFFFFF" fill-opacity="0.6" points="34.184,24.717 48.693,10.742 47.58,10.742 34.184,23.428 " stroke-opacity="0.6"/>
<polygon fill="#FFFFFF" fill-opacity="0.6" points="11.317,10.753 25.783,24.498 25.783,23.216 12.451,10.753 " stroke-opacity="0.6"/>
<linearGradient gradientUnits="userSpaceOnUse" id="SVGID_3_" x1="29.9995" x2="29.9995" y1="6.481" y2="32.1174">
<stop offset="0" style="stop-color:#EDEFEE"/>
<stop offset="0.5" style="stop-color:#BCBEBE"/>
<stop offset="0.5" style="stop-color:#A5A6A7"/>
<stop offset="1" style="stop-color:#C9CBCA"/>
</linearGradient>
<path d="M34.172,24.738L49.715,10.05H10.251l15.521,14.472v7.094L3.479,9.755  C2.829,9.315,2.55,8.527,2.777,7.787s0.9-1.237,1.676-1.237h51.094c0.775,0,1.449,0.497,1.676,1.237s-0.053,1.528-0.693,1.962  L34.172,31.855V24.738z" fill="url(#SVGID_3_)"/>
<linearGradient gradientUnits="userSpaceOnUse" id="SVGID_4_" x1="45.7363" x2="45.7363" y1="7.9927" y2="30.6518">
<stop offset="0" style="stop-color:#69696A"/>
<stop offset="1" style="stop-color:#000000"/>
</linearGradient>
<path d="M57.148,7.602c-0.129,0.295-0.336,0.557-0.619,0.748L34.172,30.455v1.4L56.529,9.749  c0.641-0.434,0.92-1.222,0.693-1.962C57.203,7.723,57.176,7.662,57.148,7.602z" fill="url(#SVGID_4_)"/>
<linearGradient gradientUnits="userSpaceOnUse" id="SVGID_5_" x1="14.2354" x2="14.2354" y1="7.9922" y2="30.666">
<stop offset="0" style="stop-color:#69696A"/>
<stop offset="1" style="stop-color:#000000"/>
</linearGradient>
<path d="M2.851,7.6C2.825,7.662,2.797,7.723,2.777,7.787C2.55,8.527,2.829,9.315,3.479,9.755l22.293,21.86  v-1.4L3.479,8.354C3.191,8.16,2.982,7.896,2.851,7.6z" fill="url(#SVGID_5_)"/>
<path d="M2.777,8.487c0.227-0.74,0.9-1.237,1.676-1.237h51.094c0.775,0,1.449,0.497,1.676,1.237  c0.018,0.058,0.027,0.116,0.037,0.174c0.061-0.283,0.053-0.582-0.037-0.874c-0.227-0.74-0.9-1.237-1.676-1.237H4.453  c-0.775,0-1.449,0.497-1.676,1.237c-0.09,0.291-0.098,0.59-0.038,0.873C2.75,8.603,2.759,8.545,2.777,8.487z" fill="#FFFFFF"/>
<path d="M32.072,53.45h-4.201c-0.772,0-1.399-0.621-1.399-1.387v0.7c0,0.766,0.626,1.387,1.399,1.387h4.201  c0.773,0,1.4-0.621,1.4-1.387v-0.7C33.473,52.829,32.846,53.45,32.072,53.45z" fill-opacity="0.4" stroke-opacity="0.4"/>
<path d="M32.072,52.736h-4.201c-0.772,0-1.399-0.621-1.399-1.387v0.7c0,0.766,0.626,1.387,1.399,1.387h4.201  c0.773,0,1.4-0.621,1.4-1.387v-0.7C33.473,52.115,32.846,52.736,32.072,52.736z" fill-opacity="0.2" stroke-opacity="0.2"/>
<rect fill-opacity="0.3" height="0.7" stroke-opacity="0.3" width="7" x="26.472" y="10.75"/>
<rect fill-opacity="0.2" height="0.7" stroke-opacity="0.2" width="7" x="26.472" y="11.45"/>
<rect fill-opacity="0.1" height="2.8" stroke-opacity="0.1" width="7" x="26.472" y="10.75"/>
<rect fill="none" height="60" width="60"/>
</g>
</svg>
