<?xml version="1.0" encoding="UTF-8"?>
<!DOCTYPE svg PUBLIC "-//W3C//DTD SVG 1.1 Tiny//EN" "http://www.w3.org/Graphics/SVG/1.1/DTD/svg11-tiny.dtd">
<svg baseProfile="tiny" height="60" viewBox="0 0 60 60" width="60" xmlns="http://www.w3.org/2000/svg" xmlns:xlink="http://www.w3.org/1999/xlink">
<g>
<radialGradient cx="30.1362" cy="20.3848" gradientUnits="userSpaceOnUse" id="SVGID_1_" r="35.3912">
<stop offset="0" style="stop-color:#FFFFFF"/>
<stop offset="0.303" style="stop-color:#FFFFFF"/>
<stop offset="0.6667" style="stop-color:#BFC3C2"/>
<stop offset="1" style="stop-color:#EBEBEB"/>
</radialGradient>
<path d="M30,57.201c-10.93,0-20.163-8.713-20.163-19.025V13.439c0-9.115,6.905-9.869,14.599-9.869  c0.865,0,1.755,0.008,2.665,0.018c0.946,0.01,1.915,0.02,2.899,0.02s1.952-0.01,2.898-0.02c0.91-0.01,1.802-0.018,2.666-0.018  c7.693,0,14.598,0.754,14.598,9.869v24.736C50.162,48.488,40.93,57.201,30,57.201L30,57.201z" fill="url(#SVGID_1_)"/>
<radialGradient cx="17.4287" cy="-2.4482" gradientTransform="matrix(0.9655 0 0 0.9655 13.3019 23.1178)" gradientUnits="userSpaceOnUse" id="SVGID_2_" r="35.1983">
<stop offset="0" style="stop-color:#CED2D0"/>
<stop offset="0.303" style="stop-color:#CED2D0"/>
<stop offset="0.703" style="stop-color:#909495"/>
<stop offset="0.8909" style="stop-color:#B7BBBA"/>
<stop offset="1" style="stop-color:#DEE3E0"/>
</radialGradient>
<path d="M49.17,38.176c0,9.961-8.847,18.033-19.17,18.033c-10.32,0-19.17-8.072-19.17-18.033V13.439  C10.83,3.48,19.481,4.6,30,4.6s19.17-1.119,19.17,8.84V38.176z" fill="url(#SVGID_2_)"/>
<radialGradient cx="17.4282" cy="-12.0474" gradientTransform="matrix(0.9655 0 0 0.9655 13.3019 23.1178)" gradientUnits="userSpaceOnUse" id="SVGID_3_" r="26.0563">
<stop offset="0" style="stop-color:#CED2D0"/>
<stop offset="0.3273" style="stop-color:#CED2D0"/>
<stop offset="0.8" style="stop-color:#989D9D"/>
<stop offset="0.9333" style="stop-color:#BCC1BF"/>
<stop offset="1" style="stop-color:#CED2D0"/>
</radialGradient>
<path d="M49.17,22.729v-9.289c0-9.918-8.58-8.85-19.039-8.84v18.129H49.17z" fill="url(#SVGID_3_)"/>
<linearGradient gradientUnits="userSpaceOnUse" id="SVGID_4_" x1="45.9238" x2="34.694" y1="7.1699" y2="18.7923">
<stop offset="0" style="stop-color:#FFFFFF"/>
<stop offset="1" style="stop-color:#BBBFBE"/>
</linearGradient>
<path d="M30.719,22.139V5.186c0.744-0.002,1.477-0.01,2.197-0.018  c0.9-0.008,1.781-0.018,2.64-0.018c7.626,0,13.026,0.594,13.026,8.289v8.699H30.719z" fill="url(#SVGID_4_)" fill-opacity="0.15" stroke-opacity="0.15"/>
<radialGradient cx="17.4297" cy="-12.0474" gradientTransform="matrix(0.9655 0 0 0.9655 13.3019 23.1178)" gradientUnits="userSpaceOnUse" id="SVGID_5_" r="26.0574">
<stop offset="0" style="stop-color:#CED2D0"/>
<stop offset="0.3273" style="stop-color:#CED2D0"/>
<stop offset="0.8" style="stop-color:#989D9D"/>
<stop offset="0.9333" style="stop-color:#BCC1BF"/>
<stop offset="1" style="stop-color:#CED2D0"/>
</radialGradient>
<path d="M10.92,22.729v-9.289c0-9.918,8.579-8.85,19.039-8.84v18.129H10.92z" fill="url(#SVGID_5_)"/>
<linearGradient gradientUnits="userSpaceOnUse" id="SVGID_6_" x1="14.0469" x2="28.9546" y1="7.2695" y2="22.1773">
<stop offset="0" style="stop-color:#FFFFFF"/>
<stop offset="1" style="stop-color:#BBBFBE"/>
</linearGradient>
<path d="M11.509,22.139v-8.699c0-7.695,5.398-8.289,13.026-8.289  c0.857,0,1.736,0.01,2.639,0.018c0.719,0.008,1.453,0.016,2.196,0.018v16.953H11.509z" fill="url(#SVGID_6_)" fill-opacity="0.15" stroke-opacity="0.15"/>
<linearGradient gradientUnits="userSpaceOnUse" id="SVGID_7_" x1="29.5425" x2="29.5425" y1="4.5718" y2="22.785">
<stop offset="0" style="stop-color:#FFFFFF"/>
<stop offset="1" style="stop-color:#D8DAD9"/>
</linearGradient>
<path d="M30.131,4.594c-0.389,0.002-0.781,0.004-1.177,0.004v18.1h1.177V4.594z" fill="url(#SVGID_7_)"/>
<linearGradient gradientUnits="userSpaceOnUse" id="SVGID_8_" x1="10.9199" x2="49.1699" y1="22.1396" y2="22.1396">
<stop offset="0" style="stop-color:#747474"/>
<stop offset="0.5" style="stop-color:#4D4D4D"/>
<stop offset="1" style="stop-color:#747474"/>
</linearGradient>
<rect fill="url(#SVGID_8_)" height="1.178" width="38.25" x="10.92" y="21.551"/>
<linearGradient gradientUnits="userSpaceOnUse" id="SVGID_9_" x1="30.7192" x2="30.7192" y1="4.5718" y2="22.8164">
<stop offset="0" style="stop-color:#747474"/>
<stop offset="0.9697" style="stop-color:#4E4E4E"/>
<stop offset="1" style="stop-color:#4D4D4D"/>
</linearGradient>
<path d="M31.309,4.594c-0.39,0.002-0.782,0.004-1.178,0.006v18.129h1.178V4.594z" fill="url(#SVGID_9_)"/>
<linearGradient gradientUnits="userSpaceOnUse" id="SVGID_10_" x1="10.9199" x2="49.1699" y1="23.3164" y2="23.3164">
<stop offset="0" style="stop-color:#C6C9C8"/>
<stop offset="0.5" style="stop-color:#FFFFFF"/>
<stop offset="1" style="stop-color:#C6C9C8"/>
</linearGradient>
<rect fill="url(#SVGID_10_)" height="1.176" width="38.25" x="10.92" y="22.729"/>
<linearGradient gradientUnits="userSpaceOnUse" id="SVGID_11_" x1="30.0015" x2="30.0015" y1="19.0859" y2="4.4878">
<stop offset="0" style="stop-color:#A6AAAA"/>
<stop offset="1" style="stop-color:#444344"/>
</linearGradient>
<path d="M34.609,14.773V4.564c-1.479,0.01-7.738,0.01-9.217,0v10.209c0,2.545,2.063,4.607,4.607,4.607  S34.609,17.318,34.609,14.773z" fill="url(#SVGID_11_)"/>
<linearGradient gradientUnits="userSpaceOnUse" id="SVGID_12_" x1="30.0005" x2="30.0005" y1="4.4292" y2="18.0821">
<stop offset="0" style="stop-color:#767677"/>
<stop offset="1" style="stop-color:#222021"/>
</linearGradient>
<path d="M30,18.205c-2.216,0-4.019-1.805-4.019-4.021V4.57c0.36,0.002,7.677,0.002,8.039,0v9.613  C34.021,16.4,32.218,18.205,30,18.205L30,18.205z" fill="url(#SVGID_12_)"/>
<linearGradient gradientUnits="userSpaceOnUse" id="SVGID_13_" x1="29.9995" x2="29.9995" y1="4.3652" y2="16.8027">
<stop offset="0" style="stop-color:#595757"/>
<stop offset="0.3212" style="stop-color:#B5B5B5"/>
<stop offset="0.6303" style="stop-color:#595959"/>
<stop offset="0.8242" style="stop-color:#898889"/>
<stop offset="1" style="stop-color:#333333"/>
</linearGradient>
<path d="M30,16.853c-1.784,0-3.235-1.451-3.235-3.235V7.715c0-1.783,1.451-3.237,3.235-3.237  s3.235,1.454,3.235,3.237v5.902C33.235,15.401,31.784,16.853,30,16.853L30,16.853z" fill="url(#SVGID_13_)"/>
<linearGradient gradientUnits="userSpaceOnUse" id="SVGID_14_" x1="29.9995" x2="29.9995" y1="4.9658" y2="16.2196">
<stop offset="0" style="stop-color:#3C3A3A"/>
<stop offset="0.3212" style="stop-color:#939393"/>
<stop offset="0.4788" style="stop-color:#898889"/>
<stop offset="0.6848" style="stop-color:#2B2B2B"/>
<stop offset="0.8788" style="stop-color:#595959"/>
<stop offset="1" style="stop-color:#333333"/>
</linearGradient>
<path d="M30,16.265c-1.46,0-2.648-1.188-2.648-2.647V7.715c0-1.46,1.188-2.647,2.648-2.647  s2.648,1.188,2.648,2.647v5.902C32.648,15.076,31.46,16.265,30,16.265L30,16.265z" fill="url(#SVGID_14_)"/>
<rect fill="none" height="60" width="60"/>
</g>
</svg>
