<?xml version="1.0" encoding="UTF-8"?>
<!DOCTYPE svg PUBLIC "-//W3C//DTD SVG 1.1 Tiny//EN" "http://www.w3.org/Graphics/SVG/1.1/DTD/svg11-tiny.dtd">
<svg baseProfile="tiny" height="60" viewBox="0 0 60 60" width="60" xmlns="http://www.w3.org/2000/svg" xmlns:xlink="http://www.w3.org/1999/xlink">
<g>
<rect fill="none" height="60" width="60"/>
<linearGradient gradientTransform="matrix(1 0 0 -1 -282.4805 -346.0195)" gradientUnits="userSpaceOnUse" id="SVGID_1_" x1="312.4795" x2="312.4795" y1="-347.8892" y2="-403.8838">
<stop offset="0" style="stop-color:#F2F2F2"/>
<stop offset="0.25" style="stop-color:#708A9C"/>
<stop offset="0.73" style="stop-color:#314172"/>
<stop offset="1" style="stop-color:#91CBCE"/>
</linearGradient>
<path d="M30,57.997C14.562,57.997,2,45.439,2,30C2,14.564,14.562,2.002,30,2.002  c15.437,0,28,12.561,28,27.998C58,45.439,45.437,57.997,30,57.997L30,57.997z" fill="url(#SVGID_1_)"/>
<radialGradient cx="312.2188" cy="-353.9521" gradientTransform="matrix(1 0 0 -1 -282.4805 -346.0195)" gradientUnits="userSpaceOnUse" id="SVGID_2_" r="51.3861">
<stop offset="0" style="stop-color:#B4DCCA"/>
<stop offset="0.15" style="stop-color:#B4DCCA"/>
<stop offset="0.75" style="stop-color:#3D568F"/>
<stop offset="1" style="stop-color:#416D98"/>
</radialGradient>
<path d="M57.198,30c0,15.023-12.18,27.198-27.198,27.198C14.979,57.198,2.802,45.023,2.802,30  C2.802,14.982,14.979,2.802,30,2.802C45.019,2.802,57.198,14.982,57.198,30z" fill="url(#SVGID_2_)"/>
<linearGradient gradientTransform="matrix(1 0 0 -1 -282.4805 -346.0195)" gradientUnits="userSpaceOnUse" id="SVGID_3_" x1="312.4805" x2="312.4805" y1="-357.0225" y2="-394.2217">
<stop offset="0" style="stop-color:#5385B2"/>
<stop offset="1" style="stop-color:#7DC4BD"/>
</linearGradient>
<path d="M29.998,48.545c-5.093,0-9.503-1.832-13.104-5.451c-3.609-3.623-5.436-8.038-5.436-13.12  c0-5.058,1.832-9.457,5.446-13.076c3.621-3.612,8.026-5.441,13.093-5.441c5.093,0,9.503,1.827,13.109,5.43  c3.604,3.604,5.436,8.005,5.436,13.087c0,2.963-0.612,5.579-1.812,7.774c-1.537,2.821-3.797,4.262-6.723,4.262  c-2.53,0-4.466-1.123-5.768-3.338c-1.409,1.153-3.133,1.736-5.143,1.736c-2.812,0-5.106-1.098-6.817-3.253  c-1.549-1.952-2.334-4.358-2.334-7.156c0-2.812,0.789-5.208,2.345-7.125c1.679-2.096,3.973-3.162,6.806-3.162  c1.447,0,2.702,0.278,3.753,0.827V20.13h5.344v13.714c0,2.966,1.27,2.966,1.813,2.966c0.39,0,1.587,0,2.543-2.438  c0.522-1.359,0.789-2.841,0.789-4.397c0-3.666-1.279-6.715-3.925-9.331c-2.603-2.575-5.772-3.881-9.419-3.881  c-3.71,0-6.776,1.26-9.374,3.85c-2.595,2.592-3.858,5.655-3.858,9.36c0,3.712,1.271,6.78,3.876,9.384  c2.57,2.581,5.713,3.884,9.355,3.884h0.798v5.305H29.998L29.998,48.545z M29.1,24.964c-1.16,0-2.03,0.509-2.665,1.547  c-0.594,0.959-0.894,2.133-0.894,3.488c0,4.619,2.029,5.152,3.558,5.152c1.513,0,3.529-0.549,3.529-5.321  C32.629,25.467,30.613,24.964,29.1,24.964L29.1,24.964z" fill="url(#SVGID_3_)"/>
<path d="M47.741,29.974c0,2.843-0.572,5.306-1.715,7.387c-1.39,2.563-3.396,3.846-6.018,3.846  c-2.552,0-4.395-1.282-5.543-3.846c-1.383,1.496-3.175,2.247-5.366,2.247c-2.57,0-4.629-0.982-6.188-2.95  c-1.44-1.818-2.164-4.029-2.164-6.659c0-2.641,0.726-4.844,2.164-6.617c1.539-1.917,3.601-2.871,6.188-2.871  c1.929,0,3.448,0.523,4.554,1.577v-1.156h3.741v12.913c0,2.511,0.868,3.767,2.613,3.767c1.424,0,2.519-0.985,3.287-2.947  c0.562-1.462,0.847-3.022,0.847-4.691c0-3.859-1.388-7.156-4.164-9.899c-2.771-2.744-6.101-4.111-9.982-4.111  c-3.896,0-7.209,1.36-9.939,4.083c-2.726,2.726-4.091,6.03-4.091,9.928c0,3.892,1.366,7.212,4.109,9.95  c2.733,2.745,6.045,4.118,9.922,4.118v3.703c-4.892,0-9.074-1.74-12.538-5.216c-3.468-3.483-5.203-7.674-5.203-12.555  c0-4.87,1.738-9.034,5.214-12.512c3.481-3.467,7.65-5.205,12.527-5.205c4.892,0,9.075,1.728,12.542,5.199  C46.006,20.913,47.741,25.087,47.741,29.974z M33.43,29.832c0-3.78-1.444-5.665-4.33-5.665c-1.443,0-2.563,0.64-3.346,1.932  c-0.68,1.087-1.01,2.386-1.01,3.901c0,3.971,1.449,5.954,4.354,5.954C31.985,35.954,33.43,33.915,33.43,29.832z" fill="#FFFFFF"/>
</g>
<g transform="matrix(1 0 0 1 30 30)">
<path d="M15,29.505c-0.657,0-1.337-0.048-2.019-0.144l-0.594-0.082l-0.435-1.304c-0.171-0.517-0.3-1.313-0.3-1.854  v-0.687c-0.006-0.031-0.063-0.11-0.102-0.131l-1.339-0.548l-0.099-0.032c-0.06,0-0.112,0.021-0.127,0.031l-0.479,0.479  c-0.383,0.383-1.038,0.855-1.522,1.098l-1.232,0.612l-0.477-0.36c-1.081-0.815-2.042-1.775-2.856-2.854L3.057,23.25l0.616-1.23  c0.246-0.489,0.718-1.144,1.099-1.523l0.484-0.485c0.018-0.026,0.033-0.119,0.021-0.157L4.72,18.511  c-0.041-0.095-0.118-0.151-0.159-0.158l-0.676,0.001c-0.545,0-1.343-0.13-1.855-0.302l-1.303-0.434l-0.083-0.594  C0.548,16.346,0.5,15.666,0.5,15.005s0.048-1.34,0.144-2.02l0.083-0.594l1.305-0.434c0.507-0.171,1.306-0.301,1.853-0.301h0.687  c0.031-0.006,0.108-0.062,0.127-0.099l0.553-1.344c0.04-0.098,0.025-0.19,0-0.224L4.772,9.511C4.387,9.125,3.915,8.47,3.674,7.987  L3.059,6.758L3.42,6.279c0.814-1.079,1.774-2.04,2.855-2.855l0.479-0.362l1.231,0.617c0.486,0.244,1.14,0.715,1.522,1.097  l0.487,0.485c0.008,0.005,0.06,0.025,0.119,0.025l0.034-0.017l0.064-0.014l1.285-0.531c0.094-0.04,0.15-0.118,0.156-0.16l0-0.676  c0-0.543,0.129-1.34,0.301-1.854l0.435-1.304l0.594-0.083c0.676-0.095,1.356-0.143,2.02-0.143c0.662,0,1.342,0.048,2.02,0.143  l0.595,0.083l0.434,1.305c0.17,0.515,0.301,1.312,0.301,1.853v0.687c0.006,0.031,0.063,0.11,0.1,0.129l1.341,0.551l0.098,0.031  c0.061,0,0.113-0.02,0.129-0.031l0.478-0.478c0.385-0.385,1.038-0.856,1.521-1.098l1.233-0.613l0.476,0.36  c1.08,0.813,2.041,1.773,2.856,2.855l0.362,0.479L26.27,8.106c-0.253,0.506-0.391,0.758-1.04,1.407L24.744,10  c-0.017,0.026-0.032,0.119-0.021,0.158l0.557,1.344c0.04,0.093,0.117,0.15,0.158,0.156l0.678,0c0.544,0,1.343,0.13,1.854,0.302  l1.303,0.433l0.083,0.594c0.095,0.677,0.144,1.356,0.144,2.021c0,0.666-0.049,1.345-0.144,2.021l-0.085,0.593l-1.303,0.434  c-0.508,0.172-1.305,0.302-1.853,0.302h-0.688c-0.032,0.006-0.109,0.063-0.131,0.102l-0.547,1.339  c-0.04,0.097-0.026,0.191-0.002,0.226l0.479,0.479c0.383,0.381,0.857,1.038,1.099,1.525l0.613,1.226l-0.36,0.479  c-0.815,1.08-1.774,2.041-2.854,2.855l-0.479,0.361l-1.231-0.615c-0.485-0.244-1.14-0.716-1.521-1.097l-0.487-0.486  c-0.006-0.004-0.059-0.023-0.119-0.023l-0.031,0.017l-0.066,0.015l-1.284,0.529c-0.094,0.04-0.15,0.118-0.156,0.159v0.677  c0,0.54-0.129,1.337-0.301,1.853l-0.434,1.306l-0.595,0.082C16.335,29.457,15.656,29.505,15,29.505L15,29.505z M15,11.208  c-2.094,0-3.798,1.704-3.798,3.798c0,2.094,1.704,3.798,3.798,3.798s3.797-1.704,3.797-3.798C18.797,12.912,17.094,11.208,15,11.208  L15,11.208z" fill-opacity="0.35" stroke-opacity="0.35"/>
<linearGradient gradientTransform="matrix(1 0 0 -1 -267.4805 -360.0195)" gradientUnits="userSpaceOnUse" id="SVGID_1__" x1="282.4795" x2="282.4795" y1="-361.4912" y2="-388.438">
<stop offset="0" style="stop-color:#FFFFFF"/>
<stop offset="0.1" style="stop-color:#FFFFFF"/>
<stop offset="0.74" style="stop-color:#939595"/>
<stop offset="1" style="stop-color:#C8C8C8"/>
</linearGradient>
<path d="M26.116,12.624H25.43c-0.437,0-0.906-0.339-1.042-0.754l-0.531-1.285  c-0.196-0.389-0.105-0.96,0.204-1.269l0.485-0.486c0.615-0.615,0.659-0.759,0.916-1.271l0.349-0.695  c-0.761-1.008-1.659-1.906-2.668-2.666l-0.694,0.346c-0.389,0.195-0.961,0.608-1.271,0.917l-0.485,0.486  c-0.31,0.309-0.882,0.401-1.271,0.203L18.138,5.62c-0.417-0.137-0.755-0.608-0.755-1.044V3.889c0-0.437-0.113-1.134-0.251-1.548  l-0.246-0.735C16.269,1.519,15.641,1.472,15,1.472c-0.641,0-1.27,0.047-1.886,0.133L12.869,2.34  c-0.138,0.415-0.251,1.111-0.251,1.548v0.687c0,0.436-0.339,0.906-0.754,1.042l-1.285,0.53C10.19,6.346,9.62,6.254,9.311,5.946  L8.824,5.46C8.515,5.151,7.942,4.739,7.553,4.543L6.858,4.195C5.851,4.956,4.953,5.854,4.192,6.862l0.347,0.694  c0.195,0.391,0.608,0.963,0.917,1.272l0.486,0.486c0.309,0.309,0.4,0.88,0.202,1.269l-0.531,1.286  c-0.136,0.415-0.605,0.754-1.042,0.754H3.884c-0.438,0-1.134,0.112-1.548,0.252l-0.736,0.245c-0.086,0.617-0.134,1.245-0.134,1.886  c0,0.64,0.047,1.269,0.134,1.885l0.736,0.246c0.414,0.139,1.11,0.251,1.548,0.251h0.687c0.438,0,0.906,0.34,1.042,0.755l0.53,1.284  c0.198,0.389,0.106,0.961-0.203,1.269l-0.486,0.486c-0.309,0.308-0.721,0.882-0.917,1.271L4.19,23.146  c0.761,1.008,1.659,1.905,2.667,2.665l0.694-0.345c0.391-0.196,0.963-0.608,1.271-0.917l0.486-0.485  c0.309-0.309,0.881-0.401,1.27-0.203l1.284,0.529c0.416,0.138,0.755,0.608,0.755,1.044v0.687c0,0.438,0.113,1.133,0.251,1.549  l0.245,0.734c0.617,0.086,1.245,0.134,1.886,0.134c0.64,0,1.267-0.048,1.886-0.134l0.244-0.734c0.138-0.416,0.251-1.111,0.251-1.549  v-0.687c0-0.438,0.34-0.906,0.755-1.043l1.284-0.53c0.391-0.197,0.959-0.105,1.269,0.203l0.485,0.485  c0.31,0.309,0.882,0.721,1.272,0.917l0.695,0.347c1.008-0.76,1.904-1.657,2.665-2.666l-0.347-0.693  c-0.194-0.391-0.608-0.964-0.918-1.271l-0.483-0.486c-0.31-0.309-0.4-0.88-0.204-1.27l0.529-1.284  c0.14-0.416,0.607-0.755,1.044-0.755h0.688c0.435,0,1.132-0.111,1.547-0.251l0.736-0.246c0.087-0.615,0.134-1.245,0.134-1.885  c0-0.641-0.047-1.269-0.134-1.886l-0.736-0.245C27.249,12.736,26.553,12.624,26.116,12.624z M15,19.771  c-2.632,0-4.765-2.133-4.765-4.765c0-2.631,2.132-4.765,4.765-4.765c2.63,0,4.764,2.134,4.764,4.765  C19.764,17.638,17.63,19.771,15,19.771z" fill="url(#SVGID_1__)"/>
<linearGradient gradientTransform="matrix(1 0 0 -1 -267.4805 -360.0195)" gradientUnits="userSpaceOnUse" id="SVGID_2__" x1="277.6816" x2="287.2746" y1="-377.2241" y2="-377.2241">
<stop offset="0" style="stop-color:#7A7A7A"/>
<stop offset="0.5" style="stop-color:#FFFFFF"/>
<stop offset="1" style="stop-color:#7A7A7A"/>
</linearGradient>
<path d="M15,19.771c2.63,0,4.764-2.133,4.764-4.765c0-0.125-0.01-0.246-0.018-0.367  c-0.188,2.459-2.239,4.398-4.746,4.398c-2.508,0-4.558-1.939-4.746-4.398c-0.01,0.122-0.019,0.243-0.019,0.367  C10.235,17.638,12.367,19.771,15,19.771z" fill="url(#SVGID_2__)"/>
<linearGradient gradientTransform="matrix(1 0 0 -1 -267.4805 -360.0195)" gradientUnits="userSpaceOnUse" id="SVGID_3__" x1="282.4805" x2="282.4805" y1="-383.0635" y2="-366.7921">
<stop offset="0" style="stop-color:#FFFFFF"/>
<stop offset="0.52" style="stop-color:#C8C8C8"/>
<stop offset="1" style="stop-color:#939595"/>
</linearGradient>
<path d="M15,6.52c-4.687,0-8.487,3.8-8.487,8.487s3.8,8.486,8.487,8.486s8.487-3.799,8.487-8.486  S19.687,6.52,15,6.52z M15,21.563c-3.621,0-6.559-2.935-6.559-6.557c0-3.622,2.937-6.558,6.559-6.558  c3.62,0,6.557,2.936,6.557,6.558C21.557,18.629,18.619,21.563,15,21.563z" fill="url(#SVGID_3__)"/>
<rect fill="none" height="30" width="30"/>
</g>
</svg>
