<?xml version="1.0" encoding="UTF-8"?>
<!DOCTYPE svg PUBLIC "-//W3C//DTD SVG 1.1 Tiny//EN" "http://www.w3.org/Graphics/SVG/1.1/DTD/svg11-tiny.dtd">
<svg baseProfile="tiny" height="30px" version="1.1" viewBox="0 0 30 30" width="30px" x="0px" xmlns="http://www.w3.org/2000/svg" xmlns:xlink="http://www.w3.org/1999/xlink" y="0px">
<g fill-opacity="0.5" stroke-opacity="0.5">
<rect fill="none" height="30" width="30"/>
</g>
<path d="M27,4H3C1.896,4,1,4.896,1,6v18c0,1.104,0.896,2,2,2h24c1.104,0,2-0.896,2-2V6C29,4.896,28.104,4,27,4z M10.235,19.2H4.661  v-1.338h1.84v-6.088l-1.84,0.422v-1.335l2.724-0.859l1.11-0.009v7.869h1.74V19.2z M16.763,19.2h-5.627v-0.839  c0-0.635,0.112-1.209,0.334-1.704c0.219-0.49,0.493-0.916,0.815-1.265c0.313-0.338,0.713-0.714,1.19-1.116  c0.546-0.459,0.891-0.813,1.027-1.053c0.13-0.23,0.196-0.459,0.196-0.681c0-0.394-0.1-0.689-0.298-0.877  c-0.201-0.191-0.518-0.288-0.943-0.288c-0.482,0-1.08,0.128-1.778,0.38h-0.2l-0.08-0.188v-1.19l0.14-0.044  c0.774-0.243,1.539-0.367,2.275-0.367c0.931,0,1.655,0.212,2.15,0.63c0.506,0.427,0.763,1.057,0.763,1.873  c0,0.455-0.112,0.908-0.332,1.347c-0.222,0.441-0.717,0.98-1.515,1.648c-0.424,0.358-0.755,0.657-0.995,0.896  c-0.229,0.229-0.424,0.482-0.58,0.758c-0.116,0.202-0.191,0.424-0.227,0.658h3.684V19.2z M25.622,19.2h-1.994v-5.435l-1.325,2.529  h-0.916l-1.331-2.531V19.2h-2v-9.137h1.669l2.123,4.042l2.123-4.042h1.651V19.2z"/>
</svg>
