<?xml version="1.0" encoding="UTF-8"?>
<!DOCTYPE svg PUBLIC "-//W3C//DTD SVG 1.1 Tiny//EN" "http://www.w3.org/Graphics/SVG/1.1/DTD/svg11-tiny.dtd">
<svg baseProfile="tiny" height="60" viewBox="0 0 60 60" width="60" xmlns="http://www.w3.org/2000/svg" xmlns:xlink="http://www.w3.org/1999/xlink">
<g>
<rect fill="none" height="60" width="60" x="0"/>
<linearGradient gradientTransform="matrix(1 0 0 -1 -271.0195 -232.4805)" gradientUnits="userSpaceOnUse" id="SVGID_1_" x1="301.0195" x2="301.0195" y1="-240.6152" y2="-287.0708">
<stop offset="0" style="stop-color:#EFF2F0"/>
<stop offset="0.2" style="stop-color:#EFF2F0"/>
<stop offset="0.8606" style="stop-color:#828586"/>
<stop offset="1" style="stop-color:#B3B8B7"/>
</linearGradient>
<path d="M55.501,8.382H4.5C3.673,8.382,3,9.054,3,9.883v43.162c0,0.826,0.673,1.498,1.5,1.498h51.001  c0.826,0,1.5-0.672,1.5-1.498V9.883C57.001,9.054,56.327,8.382,55.501,8.382L55.501,8.382z" fill="url(#SVGID_1_)"/>
<linearGradient gradientTransform="matrix(1 0 0 -1 -271.0195 -232.4805)" gradientUnits="userSpaceOnUse" id="SVGID_2_" x1="301.0195" x2="301.0195" y1="-241.6206" y2="-285.9926">
<stop offset="0" style="stop-color:#E0E3E1"/>
<stop offset="0.2364" style="stop-color:#CBCFCD"/>
<stop offset="0.9636" style="stop-color:#8D9292"/>
<stop offset="1" style="stop-color:#8D9292"/>
</linearGradient>
<path d="M4.5,53.785c-0.409,0-0.742-0.334-0.742-0.74V9.883c0-0.411,0.333-0.743,0.742-0.743h51.001  c0.41,0,0.742,0.333,0.742,0.743v43.162c0,0.406-0.332,0.74-0.742,0.74H4.5z" fill="url(#SVGID_2_)"/>
<linearGradient gradientTransform="matrix(1 0 0 -1 -271.0195 -232.4805)" gradientUnits="userSpaceOnUse" id="SVGID_3_" x1="300.9824" x2="300.9824" y1="-243.6255" y2="-284.2258">
<stop offset="0" style="stop-color:#717172"/>
<stop offset="1" style="stop-color:#000000"/>
</linearGradient>
<rect fill="url(#SVGID_3_)" fill-opacity="0.4" height="41.061" stroke-opacity="0.4" width="48.965" x="5.48" y="10.892"/>
<linearGradient gradientTransform="matrix(1 0 0 -1 -271.0195 -232.4805)" gradientUnits="userSpaceOnUse" id="SVGID_4_" x1="291.541" x2="282.9478" y1="-278.6968" y2="-287.29">
<stop offset="0" style="stop-color:#737373"/>
<stop offset="0.2485" style="stop-color:#737373"/>
<stop offset="0.703" style="stop-color:#DEDEDE"/>
<stop offset="1" style="stop-color:#DEDEDE"/>
</linearGradient>
<rect fill="url(#SVGID_4_)" height="27.873" width="46.164" x="6.905" y="22.815"/>
<linearGradient gradientTransform="matrix(1 0 0 -1 -271.0195 -232.4805)" gradientUnits="userSpaceOnUse" id="SVGID_5_" x1="301.0195" x2="301.0195" y1="-255.1953" y2="-283.0328">
<stop offset="0" style="stop-color:#FFFFFF"/>
<stop offset="1" style="stop-color:#CCCCCC"/>
</linearGradient>
<path d="M53.081,50.625c0,0-30.833,0-32.895,0c-1.003,0-6.479-6.617-6.479-6.617s-6.788-5.709-6.788-6.063  c0-0.688,0-15.191,0-15.191h46.162V50.625z" fill="url(#SVGID_5_)"/>
<linearGradient gradientTransform="matrix(1 0 0 -1 -271.0195 -232.4805)" gradientUnits="userSpaceOnUse" id="SVGID_6_" x1="293.7813" x2="293.7813" y1="-278.7661" y2="-259.8767">
<stop offset="0" style="stop-color:#303030"/>
<stop offset="1" style="stop-color:#000000"/>
</linearGradient>
<path d="M28.694,46.221H16.827v-2.05h4.31V30.482l-4.31,0.805v-2.049l5.934-1.958h1.624v16.891h4.31  L28.694,46.221L28.694,46.221z" fill="url(#SVGID_6_)"/>
<linearGradient gradientTransform="matrix(1 0 0 -1 -271.0195 -232.4805)" gradientUnits="userSpaceOnUse" id="SVGID_7_" x1="308.2676" x2="308.2676" y1="-278.7661" y2="-259.8762">
<stop offset="0" style="stop-color:#303030"/>
<stop offset="1" style="stop-color:#000000"/>
</linearGradient>
<path d="M43.173,46.221H31.32v-1.486c0-1.266,0.285-2.49,0.857-3.674c0.57-1.185,2.061-2.677,4.469-4.478  c1.396-1.043,2.289-1.858,2.681-2.451c0.389-0.592,0.584-1.182,0.584-1.769c0-0.94-0.339-1.684-1.011-2.224  c-0.674-0.541-1.545-0.811-2.616-0.811c-0.902,0-2.455,0.207-4.66,0.621V27.75c1.883-0.395,3.53-0.592,4.946-0.592  c2.074,0,3.693,0.458,4.857,1.375c1.162,0.916,1.744,2.162,1.744,3.74c0,0.688-0.141,1.397-0.424,2.133  c-0.283,0.732-0.727,1.404-1.328,2.01c-0.602,0.607-1.471,1.342-2.604,2.201c-1.285,0.961-2.17,1.707-2.656,2.238  c-0.484,0.531-0.854,1.088-1.107,1.67c-0.252,0.582-0.389,1.141-0.41,1.678h8.529L43.173,46.221L43.173,46.221z" fill="url(#SVGID_7_)"/>
<linearGradient gradientTransform="matrix(1 0 0 -1 -271.0195 -232.4805)" gradientUnits="userSpaceOnUse" id="SVGID_8_" x1="301.0195" x2="301.0195" y1="-244.7197" y2="-255.0341">
<stop offset="0" style="stop-color:#C6957B"/>
<stop offset="1" style="stop-color:#73414B"/>
</linearGradient>
<rect fill="url(#SVGID_8_)" height="10.453" width="46.162" x="6.919" y="12.301"/>
<rect fill="#222021" fill-opacity="0.4" height="7.614" stroke-opacity="0.4" width="6.012" x="41.637" y="8.382"/>
<rect fill="#222021" fill-opacity="0.4" height="7.614" stroke-opacity="0.4" width="6.012" x="12.63" y="8.382"/>
<linearGradient gradientTransform="matrix(1 0 0 -1 -271.0195 -232.4805)" gradientUnits="userSpaceOnUse" id="SVGID_9_" x1="312.6953" x2="318.8543" y1="-249.5625" y2="-249.5625">
<stop offset="0" style="stop-color:#C39179"/>
<stop offset="0.497" style="stop-color:#E2CEBB"/>
<stop offset="1" style="stop-color:#C39179"/>
</linearGradient>
<ellipse cx="44.676" cy="17.082" fill="url(#SVGID_9_)" rx="3.051" ry="2.87"/>
<linearGradient gradientTransform="matrix(1 0 0 -1 -271.0195 -232.4805)" gradientUnits="userSpaceOnUse" id="SVGID_10_" x1="283.6484" x2="289.8074" y1="-249.5625" y2="-249.5625">
<stop offset="0" style="stop-color:#C39179"/>
<stop offset="0.497" style="stop-color:#E2CEBB"/>
<stop offset="1" style="stop-color:#C39179"/>
</linearGradient>
<ellipse cx="15.629" cy="17.082" fill="url(#SVGID_10_)" rx="3.049" ry="2.87"/>
<linearGradient gradientTransform="matrix(1 0 0 -1 -271.0195 -232.4805)" gradientUnits="userSpaceOnUse" id="SVGID_11_" x1="315.6953" x2="315.6953" y1="-246.5366" y2="-251.6692">
<stop offset="0" style="stop-color:#351A25"/>
<stop offset="1" style="stop-color:#803F4F"/>
</linearGradient>
<path d="M47.727,16.346c0,1.686-1.367,3.05-3.049,3.05c-1.685,0-3.052-1.364-3.052-3.05  c0-1.681,1.367-3.048,3.052-3.048C46.357,13.297,47.727,14.665,47.727,16.346z" fill="url(#SVGID_11_)"/>
<linearGradient gradientTransform="matrix(1 0 0 -1 -271.0195 -232.4805)" gradientUnits="userSpaceOnUse" id="SVGID_12_" x1="313.5303" x2="317.8512" y1="-244.3633" y2="-244.3633">
<stop offset="0" style="stop-color:#B5B5B5"/>
<stop offset="0.1152" style="stop-color:#FEFDFD"/>
<stop offset="0.6788" style="stop-color:#595959"/>
<stop offset="0.9455" style="stop-color:#D4D3D3"/>
<stop offset="1" style="stop-color:#D4D3D3"/>
</linearGradient>
<path d="M44.678,5.458c-1.201,0-2.179,0.977-2.179,2.178v8.494c0,1.202,0.978,2.177,2.179,2.177  c1.198,0,2.178-0.975,2.178-2.177V7.636C46.854,6.435,45.876,5.458,44.678,5.458z" fill="url(#SVGID_12_)"/>
<linearGradient gradientTransform="matrix(1 0 0 -1 -271.0195 -232.4805)" gradientUnits="userSpaceOnUse" id="SVGID_13_" x1="286.6484" x2="286.6484" y1="-246.5366" y2="-251.6692">
<stop offset="0" style="stop-color:#351A25"/>
<stop offset="1" style="stop-color:#803F4F"/>
</linearGradient>
<path d="M18.678,16.346c0,1.686-1.366,3.05-3.05,3.05s-3.048-1.364-3.048-3.05  c0-1.681,1.365-3.048,3.048-3.048C17.312,13.297,18.678,14.665,18.678,16.346z" fill="url(#SVGID_13_)"/>
<linearGradient gradientTransform="matrix(1 0 0 -1 -271.0195 -232.4805)" gradientUnits="userSpaceOnUse" id="SVGID_14_" x1="284.4844" x2="288.8053" y1="-244.3633" y2="-244.3633">
<stop offset="0" style="stop-color:#B5B5B5"/>
<stop offset="0.1152" style="stop-color:#FEFDFD"/>
<stop offset="0.6788" style="stop-color:#595959"/>
<stop offset="0.9455" style="stop-color:#D4D3D3"/>
<stop offset="1" style="stop-color:#D4D3D3"/>
</linearGradient>
<path d="M15.628,5.458c-1.202,0-2.175,0.977-2.175,2.178v8.494c0,1.202,0.973,2.177,2.175,2.177  s2.18-0.975,2.18-2.177V7.636C17.808,6.435,16.83,5.458,15.628,5.458z" fill="url(#SVGID_14_)"/>
<polygon fill="#55313A" points="53.081,23.051 6.919,23.051 6.919,22.455 53.081,22.455 "/>
<linearGradient gradientTransform="matrix(1 0 0 1 -528.0195 -588.4805)" gradientUnits="userSpaceOnUse" id="SVGID_15_" x1="546.5391" x2="540.9523" y1="627.8145" y2="633.4014">
<stop offset="0" style="stop-color:#FFFFFF"/>
<stop offset="0.297" style="stop-color:#FFFFFF"/>
<stop offset="0.5576" style="stop-color:#E6E6E6"/>
<stop offset="0.7515" style="stop-color:#BCBCBC"/>
<stop offset="1" style="stop-color:#8E8E8E"/>
</linearGradient>
<path d="M8.216,39.958c-0.314-0.347-0.896-0.692-1.297-2.185c0,0,0.66,3.056,9.701,0.041  c0,12.81,3.768,12.81,3.768,12.81c-0.831,0-1.987-0.479-2.573-1.063L8.216,39.958z" fill="url(#SVGID_15_)"/>
<path d="M6.932,37.82c-0.004-0.016-0.009-0.029-0.013-0.045C6.919,37.775,6.923,37.792,6.932,37.82z" fill="#FFFFFF"/>
<path d="M15.776,38.941c0,6.371,1.427,9.572,2.861,11.182c0.529,0.277,1.13,0.467,1.644,0.49  c-0.609-0.115-3.662-1.266-3.662-12.797c-8.417,2.805-9.568,0.354-9.688,0.004c0.13,0.469,0.277,0.816,0.429,1.092  C8.604,39.878,11.029,40.523,15.776,38.941z" fill="#FFFFFF" fill-opacity="0.75"/>
</g>
<g transform="matrix(1 0 0 1 30 30)">
<polygon fill="none" points="0.414,0 0.414,10.485 0,10.899 0.414,11.313 0.414,30 19.1,30 19.514,30.414 19.928,30 30.414,30   30.414,0 "/>
<path d="M13.769,24.668c-0.003,0.001-0.44,0.125-0.44,0.125l-0.022-0.021L12.8,24.867l-0.025-0.025  c-0.205,0.02-0.411,0.03-0.618,0.03c-1.746,0-3.402-0.694-4.662-1.954c-1.416-1.414-2.113-3.354-1.924-5.279L5.55,17.618l0.09-0.501  L5.634,17.11l0.032-0.128c0.023-0.113,0.049-0.226,0.079-0.338L0,10.899l2.238-2.238c0.623-0.625,1.393-1.296,2.627-1.358  C4.924,7.3,4.988,7.298,5.054,7.298c0.11,0,0.226,0.005,0.346,0.015L5.58,7.334c0.188,0.025,0.352,0.054,0.521,0.092  c0,0,0.277,0.066,0.313,0.076l4.098-4.098C12.707,1.209,15.636,0,18.76,0c2.05,0,4.037,0.526,5.792,1.527  c0.53-0.355,1.14-0.541,1.763-0.541c0.834,0,1.616,0.323,2.203,0.91c1.08,1.08,1.205,2.759,0.375,3.979  c2.574,4.525,1.834,10.311-1.883,14.027l-4.096,4.096c0,0.002,0.068,0.29,0.068,0.29c0.044,0.201,0.072,0.357,0.092,0.505  c0.011,0.083,0.021,0.159,0.026,0.23c0.015,0.178,0.019,0.354,0.011,0.519c-0.062,1.237-0.732,2.009-1.357,2.634l-2.24,2.238  L13.769,24.668z" fill-opacity="0.35" stroke-opacity="0.35"/>
<linearGradient gradientTransform="matrix(0.7071 0.7071 -0.7071 0.7071 -924.0166 637.3657)" gradientUnits="userSpaceOnUse" id="SVGID_1__" x1="218.7148" x2="229.6865" y1="-1096.7686" y2="-1096.7686">
<stop offset="0" style="stop-color:#696A6B"/>
<stop offset="0.297" style="stop-color:#A2A4A4"/>
<stop offset="0.7091" style="stop-color:#494A4B"/>
<stop offset="1" style="stop-color:#727475"/>
</linearGradient>
<path d="M8,14.656L8,14.656c-2.029,2.029-1.943,5.411,0.201,7.555c2.143,2.143,5.527,2.232,7.557,0.203l0,0  L8,14.656z" fill="url(#SVGID_1__)"/>
<linearGradient gradientTransform="matrix(1 0 0 1 0 9.765625e-004)" gradientUnits="userSpaceOnUse" id="SVGID_2__" x1="3.21" x2="21.4822" y1="8.9229" y2="27.1951">
<stop offset="0" style="stop-color:#C2A770"/>
<stop offset="0.2" style="stop-color:#DED7B3"/>
<stop offset="0.3879" style="stop-color:#D2C49B"/>
<stop offset="0.4182" style="stop-color:#C6B285"/>
<stop offset="0.6667" style="stop-color:#AA8250"/>
<stop offset="0.8545" style="stop-color:#CDBE93"/>
<stop offset="1" style="stop-color:#BCA162"/>
</linearGradient>
<path d="M21.777,23.721L6.693,8.637c-2.041-0.73-2.813-0.205-3.748,0.731l-1.531,1.531L19.514,29l1.533-1.531  C21.982,26.532,22.508,25.761,21.777,23.721z" fill="url(#SVGID_2__)"/>
<linearGradient gradientTransform="matrix(0.7071 0.7071 -0.7071 0.7071 -924.0166 637.3657)" gradientUnits="userSpaceOnUse" id="SVGID_3__" x1="221.9707" x2="226.2741" y1="-1120.2998" y2="-1120.2998">
<stop offset="0" style="stop-color:#C2A770"/>
<stop offset="0.1939" style="stop-color:#DED7B3"/>
<stop offset="0.703" style="stop-color:#AA8250"/>
<stop offset="0.8848" style="stop-color:#CDBE93"/>
<stop offset="1" style="stop-color:#BCA162"/>
</linearGradient>
<path d="M27.057,6.375l0.754-0.755c0.83-0.829,0.83-2.188,0-3.017c-0.83-0.83-2.188-0.83-3.018,0  l-0.754,0.754L27.057,6.375z" fill="url(#SVGID_3__)"/>
<path d="M27.057,6.375l0.754-0.755c0.045-0.045,0.08-0.098,0.119-0.146  c-0.385-0.581-0.832-1.134-1.344-1.645c-0.512-0.512-1.064-0.96-1.646-1.346c-0.047,0.041-0.1,0.074-0.146,0.12l-0.754,0.754  L27.057,6.375z" fill="#5E2D29" fill-opacity="0.2" stroke-opacity="0.2"/>
<path d="M26.869,3.546c-0.492-0.492-1.023-0.924-1.58-1.299c-0.178,0.095-0.346,0.207-0.494,0.355  l-0.473,0.473l3.018,3.017l0.471-0.472c0.148-0.148,0.262-0.318,0.357-0.495C27.791,4.568,27.359,4.038,26.869,3.546z" fill="#5E2D29" fill-opacity="0.1" stroke-opacity="0.1"/>
<linearGradient gradientUnits="userSpaceOnUse" id="SVGID_4__" x1="26.3223" x2="14.1095" y1="4.0923" y2="16.3051">
<stop offset="0" style="stop-color:#E6E0C8"/>
<stop offset="1" style="stop-color:#AF8C5A"/>
</linearGradient>
<path d="M21.777,23.721l4.525-4.525c4.148-4.147,4.148-10.936,0-15.084s-10.936-4.148-15.084,0L6.693,8.637  L21.777,23.721z" fill="url(#SVGID_4__)"/>
<linearGradient gradientUnits="userSpaceOnUse" id="SVGID_5__" x1="13.1172" x2="27.4319" y1="2.9941" y2="17.3088">
<stop offset="0" style="stop-color:#C2A770"/>
<stop offset="0.2545" style="stop-color:#DED7B3"/>
<stop offset="0.503" style="stop-color:#C9B78A"/>
<stop offset="0.5152" style="stop-color:#C4AE80"/>
<stop offset="0.6667" style="stop-color:#AA8250"/>
<stop offset="0.8545" style="stop-color:#CDBE93"/>
<stop offset="1" style="stop-color:#BCA162"/>
</linearGradient>
<path d="M7.258,8.637l4.244-4.242C13.432,2.464,16.01,1.4,18.76,1.4c2.752,0,5.33,1.063,7.26,2.994  c1.932,1.931,2.994,4.509,2.994,7.259c0,2.751-1.063,5.329-2.994,7.26l-4.242,4.242L7.258,8.637z" fill="url(#SVGID_5__)"/>
<rect fill="#5E2D29" fill-opacity="0.2" height="0.401" stroke-opacity="0.2" transform="matrix(0.7071 0.7071 -0.7071 0.7071 15.546 -5.4806)" width="21.332" x="3.723" y="15.825"/>
<path d="M13.619,23.671c0.143-0.041,0.285-0.087,0.426-0.141l-7.162-7.161c-0.053,0.14-0.1,0.281-0.141,0.425  L13.619,23.671z" fill-opacity="0.2" stroke-opacity="0.2"/>
<rect fill="#5E2D29" fill-opacity="0.1" height="0.4" stroke-opacity="0.1" transform="matrix(0.7071 0.7071 -0.7071 0.7071 15.429 -5.7637)" width="21.332" x="4.006" y="15.543"/>
<path d="M13.133,23.786c0.156-0.029,0.309-0.063,0.461-0.106L6.734,16.82c-0.043,0.151-0.078,0.305-0.107,0.459  L13.133,23.786z" fill-opacity="0.1" stroke-opacity="0.1"/>
<path d="M4.85,8.302l17.262,17.263c0.037-0.485-0.059-1.074-0.334-1.844L6.693,8.637  C5.924,8.36,5.336,8.266,4.85,8.302z" fill="#EFEDD9" fill-opacity="0.5" stroke-opacity="0.5"/>
<path d="M6.693,8.637c-0.195-0.07-0.379-0.128-0.553-0.176l15.813,15.813  c-0.047-0.173-0.105-0.357-0.176-0.553L6.693,8.637z" fill="#EFEDD9" fill-opacity="0.5" stroke-opacity="0.5"/>
<rect fill="#522523" fill-opacity="0.2" height="0.401" stroke-opacity="0.2" transform="matrix(0.7071 0.7071 -0.7071 0.7071 17.1142 -1.697)" width="25.598" x="-2.194" y="19.608"/>
<rect fill="#522523" fill-opacity="0.1" height="0.398" stroke-opacity="0.1" transform="matrix(0.7071 0.7071 -0.7071 0.7071 16.9952 -1.9808)" width="25.599" x="-1.911" y="19.326"/>
<linearGradient gradientUnits="userSpaceOnUse" id="SVGID_6__" x1="21.6523" x2="21.6523" y1="1.7822" y2="16.0367">
<stop offset="0" style="stop-color:#FFFFFF"/>
<stop offset="1" style="stop-color:#CDBD92"/>
</linearGradient>
<path d="M27.348,15.49c-2.314-1.359-4.715-3.255-6.941-5.482  c-2.229-2.228-4.123-4.628-5.482-6.942l-0.236-0.403l0.436-0.172c1.156-0.455,2.375-0.686,3.627-0.686  c2.615,0,5.162,1.047,6.986,2.873c2.775,2.774,3.635,6.941,2.188,10.614l-0.172,0.435L27.348,15.49z" fill="url(#SVGID_6__)" fill-opacity="0.5" stroke-opacity="0.5"/>
<rect fill="none" height="30" width="30" x="0.414"/>
</g>
</svg>
