<?xml version="1.0" encoding="UTF-8"?>
<!DOCTYPE svg PUBLIC "-//W3C//DTD SVG 1.1 Tiny//EN" "http://www.w3.org/Graphics/SVG/1.1/DTD/svg11-tiny.dtd">
<svg baseProfile="tiny" height="60" viewBox="0 0 60 60" width="60" xmlns="http://www.w3.org/2000/svg" xmlns:xlink="http://www.w3.org/1999/xlink">
<g>
<radialGradient cx="-1627.3687" cy="-2479.0078" gradientTransform="matrix(0.7071 0.7071 -0.7071 0.7071 -564.6201 2940.3716)" gradientUnits="userSpaceOnUse" id="SVGID_1_" r="45.6647">
<stop offset="0" style="stop-color:#93AC5D"/>
<stop offset="0.297" style="stop-color:#93AC5D"/>
<stop offset="0.6667" style="stop-color:#356742"/>
<stop offset="0.7939" style="stop-color:#447B42"/>
<stop offset="1" style="stop-color:#447B42"/>
</radialGradient>
<path d="M20.37,41.951c0.299-0.437,0.233-0.799-0.258-1.332c-0.617-0.666-2.567-3.084-2.968-3.737  c-0.353-0.575-0.411-1.02-0.034-1.71c0.473-0.865,1.915-3.764,8.107-9.956c6.192-6.192,9.084-7.646,9.956-8.108  c0.76-0.399,1.037-0.344,1.711,0.036c0.666,0.376,3.068,2.352,3.734,2.967c0.535,0.492,0.873,0.588,1.301,0.274  c0.752-0.551,13.828-9.843,15.229-10.774c0.85-0.565,1.141-1.062,0.523-1.779c-2.477-2.889-8.594-5.015-10.752-5.399  c-1.922-0.345-3.875-0.873-6.564,0.236c-2.561,1.053-13.076,8.534-21.113,16.571C11.203,27.277,3.722,37.795,2.668,40.352  c-1.108,2.691-0.581,4.645-0.236,6.567c0.387,2.158,2.511,8.275,5.4,10.752c0.718,0.616,1.213,0.323,1.777-0.525  C10.542,55.745,19.852,42.705,20.37,41.951z" fill="url(#SVGID_1_)"/>
<linearGradient gradientTransform="matrix(0.7071 0.7071 -0.7071 0.7071 -564.6201 2940.3716)" gradientUnits="userSpaceOnUse" id="SVGID_2_" x1="-1639.3428" x2="-1638.9111" y1="-2494.9824" y2="-2491.4067">
<stop offset="0" style="stop-color:#3C7440"/>
<stop offset="1" style="stop-color:#1E3A31"/>
</linearGradient>
<path d="M35.172,17.107c0.76-0.399,1.037-0.344,1.711,0.036c0.666,0.376,3.068,2.352,3.734,2.967  c0.535,0.492,0.873,0.588,1.301,0.274c0.047-0.034,0.063-0.046,0.064-0.046c0.252-0.184,1.031-0.739,2.119-1.514  c-0.252-0.205-3.469-2.809-4.801-2.956C36.855,15.598,35.172,17.107,35.172,17.107z" fill="url(#SVGID_2_)"/>
<linearGradient gradientTransform="matrix(0.7071 0.7071 0.7071 -0.7071 -1696.8304 4072.5859)" gradientUnits="userSpaceOnUse" id="SVGID_3_" x1="-1639.3467" x2="-1638.9149" y1="4063.0557" y2="4066.6318">
<stop offset="0" style="stop-color:#3C7440"/>
<stop offset="1" style="stop-color:#1E3A31"/>
</linearGradient>
<path d="M17.092,35.188c-0.401,0.763-0.346,1.039,0.035,1.714c0.376,0.665,2.351,3.067,2.967,3.737  c0.492,0.53,0.587,0.869,0.274,1.297c-0.035,0.049-0.046,0.063-0.046,0.063c-0.183,0.253-0.738,1.032-1.515,2.12  c-0.203-0.252-2.807-3.469-2.956-4.8C15.579,36.875,17.092,35.188,17.092,35.188z" fill="url(#SVGID_3_)"/>
<path d="M2.979,47.466c-0.344-1.923-0.873-3.877,0.235-6.567c1.054-2.557,8.535-13.074,16.573-21.112  C27.825,11.749,38.34,4.268,40.9,3.215c2.689-1.108,4.643-0.581,6.566-0.236c1.98,0.354,7.297,2.178,10.07,4.711  c-2.553-2.815-8.496-4.879-10.619-5.258c-1.922-0.345-3.875-0.873-6.564,0.236c-2.561,1.053-13.076,8.534-21.113,16.571  C11.203,27.277,3.722,37.795,2.668,40.352c-1.108,2.691-0.581,4.645-0.236,6.567c0.378,2.122,2.441,8.065,5.258,10.617  C5.156,54.763,3.333,49.448,2.979,47.466z" fill="#B1BE95" fill-opacity="0.5" stroke-opacity="0.5"/>
<path d="M20.37,41.951c0.299-0.437,0.233-0.799-0.258-1.332c-0.617-0.666-2.567-3.084-2.968-3.737  c-0.353-0.575-0.411-1.02-0.034-1.71c0.473-0.865,1.915-3.764,8.107-9.956c6.192-6.192,9.084-7.646,9.956-8.108  c0.76-0.399,1.037-0.344,1.711,0.036c0.666,0.376,3.068,2.352,3.734,2.967c0.535,0.492,0.873,0.588,1.301,0.274  c0.752-0.551,13.828-9.843,15.229-10.774c0.85-0.565,1.141-1.062,0.523-1.779c-0.291-0.339-0.635-0.665-1.012-0.982  c0.488,0.658,0.197,1.134-0.607,1.667c-1.4,0.932-14.475,10.224-15.227,10.775c-0.43,0.313-0.768,0.218-1.299-0.273  c-0.668-0.618-3.07-2.592-3.738-2.969c-0.672-0.38-0.949-0.436-1.711-0.035c-0.869,0.462-3.763,1.915-9.955,8.107  c-6.192,6.192-7.635,9.092-8.107,9.956c-0.378,0.69-0.32,1.135,0.035,1.711c0.4,0.651,2.351,3.069,2.967,3.736  c0.493,0.533,0.558,0.896,0.259,1.332c-0.518,0.755-9.828,13.794-10.76,15.195c-0.534,0.803-1.009,1.098-1.666,0.606  c0.314,0.378,0.643,0.723,0.982,1.013c0.718,0.616,1.213,0.323,1.777-0.525C10.542,55.745,19.852,42.705,20.37,41.951z" fill="#B1BE95" fill-opacity="0.6" stroke-opacity="0.6"/>
<linearGradient gradientTransform="matrix(0.7071 0.7071 -0.7071 0.7071 -608.1406 2931.3247)" gradientUnits="userSpaceOnUse" id="SVGID_4_" x1="-1610.522" x2="-1610.522" y1="-2533.3467" y2="-2471.428">
<stop offset="0" style="stop-color:#315D3E"/>
<stop offset="0.5" style="stop-color:#1E3A31"/>
<stop offset="1" style="stop-color:#2E593D"/>
</linearGradient>
<path d="M2.899,45.012c1.275-2.776,10.299-14.805,18.804-23.31  c8.505-8.506,20.531-17.529,23.309-18.803c0.527-0.241,1.02-0.411,1.492-0.545c-0.512-0.096-1.031-0.19-1.566-0.26  c-0.086,0.036-0.162,0.063-0.248,0.102c-2.818,1.293-14.972,10.397-23.534,18.958c-8.562,8.562-17.667,20.715-18.96,23.535  c-0.038,0.086-0.063,0.165-0.101,0.25c0.071,0.534,0.165,1.054,0.259,1.564C2.489,46.03,2.658,45.539,2.899,45.012z" fill="url(#SVGID_4_)" fill-opacity="0.5" stroke-opacity="0.5"/>
<rect fill="none" height="60" width="60"/>
</g>
<g transform="matrix(1 0 0 1 30 30)">
<polygon fill="none" points="0,11.605 0,11.61 0,22.205 0,22.21 0,30 30,30 30,0 0,0 "/>
<path d="M4.541,29.085v-2.15c-0.734-0.043-1.318-0.653-1.318-1.397v-0.819  H2.514C1.128,24.718,0,23.591,0,22.205V11.61c0-1.387,1.128-2.515,2.514-2.515h0.703V8.334h0.006v-1.58  c0-0.744,0.584-1.354,1.318-1.397V0.915H25.46v4.441c0.734,0.043,1.318,0.653,1.318,1.397v1.58l0.005,0.762h0.704  c1.386,0,2.513,1.128,2.513,2.515v10.595c0,1.386-1.127,2.513-2.513,2.513h-0.709v0.819c0,0.744-0.584,1.354-1.318,1.397v2.15H4.541  z" fill-opacity="0.35" fill-rule="evenodd" stroke-opacity="0.35"/>
<linearGradient gradientUnits="userSpaceOnUse" id="SVGID_1__" x1="15.0005" x2="15.0005" y1="6.3018" y2="10.8418">
<stop offset="0" style="stop-color:#D3D7D5"/>
<stop offset="0.3273" style="stop-color:#BFC2C1"/>
<stop offset="1" style="stop-color:#5B5B5D"/>
</linearGradient>
<path d="M25.778,10.497c0,0.22-0.179,0.397-0.399,0.397H4.622c-0.22,0-0.399-0.178-0.399-0.397V6.754  c0-0.221,0.179-0.399,0.399-0.399h20.756c0.221,0,0.399,0.179,0.399,0.399V10.497z" fill="url(#SVGID_1__)"/>
<rect fill="#020202" fill-opacity="0.3" height="0.38" stroke-opacity="0.3" width="21.567" x="4.217" y="9.712"/>
<rect fill="#020202" fill-opacity="0.15" height="0.378" stroke-opacity="0.15" width="21.567" x="4.217" y="9.334"/>
<linearGradient gradientUnits="userSpaceOnUse" id="SVGID_2__" x1="15.0005" x2="15.0005" y1="1.915" y2="10.6297">
<stop offset="0" style="stop-color:#D9D9D9"/>
<stop offset="0.5382" style="stop-color:#B3B3B3"/>
<stop offset="1" style="stop-color:#B3B3B3"/>
</linearGradient>
<rect fill="url(#SVGID_2__)" height="8.323" width="18.919" x="5.541" y="1.915"/>
<linearGradient gradientUnits="userSpaceOnUse" id="SVGID_3__" x1="15.0005" x2="15.0005" y1="1.835" y2="9.598">
<stop offset="0" style="stop-color:#EDEDED"/>
<stop offset="1" style="stop-color:#BDBDBD"/>
</linearGradient>
<polygon fill="url(#SVGID_3__)" points="24.46,5.21 24.46,10.238 5.541,10.238 5.541,1.915 12.667,1.915 16.569,2.111 23.704,4.152   24.272,4.748 "/>
<rect fill="#020202" fill-opacity="0.5" height="0.376" stroke-opacity="0.5" width="13.621" x="8.19" y="7.213"/>
<rect fill="#020202" fill-opacity="0.2" height="0.379" stroke-opacity="0.2" width="13.621" x="8.19" y="6.834"/>
<rect fill="#020202" fill-opacity="0.2" height="0.38" stroke-opacity="0.2" width="18.919" x="5.541" y="9.712"/>
<rect fill="#020202" fill-opacity="0.1" height="0.378" stroke-opacity="0.1" width="18.919" x="5.541" y="9.334"/>
<rect fill="#020202" fill-opacity="0.03" height="0.379" stroke-opacity="0.03" width="18.919" x="5.541" y="8.955"/>
<rect fill="#020202" fill-opacity="0.5" height="0.376" stroke-opacity="0.5" width="13.621" x="8.19" y="4.942"/>
<rect fill="#020202" fill-opacity="0.2" height="0.38" stroke-opacity="0.2" width="13.621" x="8.19" y="4.563"/>
<path d="M12.572,1.916c0,0,6.867,1.039,9.42,4.539  c0,0,1.93-2.649,2.467-1.208C24.188,3.855,21.738,1.864,12.572,1.916z" fill="#050505" fill-opacity="0.05" fill-rule="evenodd" stroke-opacity="0.05"/>
<path d="M12.572,1.916c0,0,6.867,0.282,9.42,3.781  c0,0,1.93-2.271,2.467-0.45C24.188,3.855,21.738,1.864,12.572,1.916z" fill="#050505" fill-opacity="0.1" fill-rule="evenodd" stroke-opacity="0.1"/>
<linearGradient gradientUnits="userSpaceOnUse" id="SVGID_4__" x1="18.876" x2="18.1627" y1="2.2437" y2="4.8932">
<stop offset="0" style="stop-color:#FFFFFF"/>
<stop offset="0.0061" style="stop-color:#FFFFFF"/>
<stop offset="1" style="stop-color:#D9D9D9"/>
</linearGradient>
<path d="M12.572,1.916c0,0,6.867,0.059,9.42,3.56  c0,0,1.83-2.256,2.467-0.229C24.188,3.855,21.738,1.864,12.572,1.916z" fill="url(#SVGID_4__)" fill-rule="evenodd"/>
<linearGradient gradientUnits="userSpaceOnUse" id="SVGID_5_" x1="15" x2="15" y1="9.9375" y2="23.5596">
<stop offset="0" style="stop-color:#BFC2C1"/>
<stop offset="0.3515" style="stop-color:#E0E3E1"/>
<stop offset="0.6545" style="stop-color:#989D9D"/>
<stop offset="0.9636" style="stop-color:#AFB3B2"/>
<stop offset="1" style="stop-color:#5B5B5D"/>
</linearGradient>
<path d="M29,22.205c0,0.835-0.677,1.513-1.513,1.513H2.514C1.678,23.718,1,23.04,1,22.205V11.61  c0-0.835,0.678-1.515,1.514-1.515h24.973c0.836,0,1.513,0.68,1.513,1.515V22.205z" fill="url(#SVGID_5_)"/>
<linearGradient gradientUnits="userSpaceOnUse" id="SVGID_6_" x1="15.0005" x2="15.0005" y1="26.0552" y2="23.3401">
<stop offset="0" style="stop-color:#D3D7D5"/>
<stop offset="0.3273" style="stop-color:#BFC2C1"/>
<stop offset="1" style="stop-color:#5B5B5D"/>
</linearGradient>
<path d="M4.223,23.718v1.819c0,0.221,0.179,0.399,0.399,0.399h20.756c0.221,0,0.399-0.179,0.399-0.399v-1.819  H4.223z" fill="url(#SVGID_6_)"/>
<rect fill="#020202" fill-opacity="0.3" height="0.377" stroke-opacity="0.3" width="21.551" x="4.226" y="23.729"/>
<rect fill="#020202" fill-opacity="0.15" height="0.379" stroke-opacity="0.15" width="21.551" x="4.226" y="24.105"/>
<linearGradient gradientUnits="userSpaceOnUse" id="SVGID_7_" x1="15" x2="15" y1="9.9375" y2="23.5596">
<stop offset="0" style="stop-color:#E7EAE8"/>
<stop offset="0.0667" style="stop-color:#E7EAE8"/>
<stop offset="0.2606" style="stop-color:#D8DCDA"/>
<stop offset="0.6606" style="stop-color:#B7BDBB"/>
<stop offset="1" style="stop-color:#AFB3B2"/>
</linearGradient>
<path d="M27.487,10.096H2.514C1.678,10.096,1,10.775,1,11.61v10.595c0,0.835,0.678,1.513,1.514,1.513  c-0.626,0-1.135-0.51-1.135-1.135v-0.378V11.988V11.61c0-0.626,0.509-1.135,1.135-1.135h24.973c0.626,0,1.135,0.509,1.135,1.135  v0.378v10.217v0.378c0,0.625-0.509,1.135-1.135,1.135c0.836,0,1.513-0.678,1.513-1.513V11.61C29,10.775,28.323,10.096,27.487,10.096  z" fill="url(#SVGID_7_)"/>
<linearGradient gradientUnits="userSpaceOnUse" id="SVGID_8_" x1="10.4932" x2="10.4932" y1="11.9312" y2="15.3514">
<stop offset="0" style="stop-color:#6A6B6C"/>
<stop offset="1" style="stop-color:#E8EEEA"/>
</linearGradient>
<path d="M5.005,15.329c-0.417,0-0.758-0.344-0.758-0.766v-1.874  c0-0.423,0.34-0.766,0.758-0.766h10.978c0.417,0,0.757,0.343,0.757,0.766v1.874c0,0.422-0.34,0.766-0.757,0.766H5.005z" fill="url(#SVGID_8_)" fill-opacity="0.4" stroke-opacity="0.4"/>
<linearGradient gradientUnits="userSpaceOnUse" id="SVGID_9_" x1="10.4912" x2="10.4912" y1="12.3164" y2="14.996">
<stop offset="0" style="stop-color:#171717"/>
<stop offset="1" style="stop-color:#2E2E2E"/>
</linearGradient>
<path d="M16.356,14.563c0,0.21-0.17,0.383-0.379,0.383H5.005c-0.209,0-0.378-0.173-0.378-0.383v-1.874  c0-0.213,0.169-0.384,0.378-0.384h10.972c0.209,0,0.379,0.171,0.379,0.384V14.563z" fill="url(#SVGID_9_)"/>
<linearGradient gradientUnits="userSpaceOnUse" id="SVGID_10_" x1="10.4912" x2="10.4912" y1="9.2769" y2="15.8769">
<stop offset="0" style="stop-color:#7DC7BB"/>
<stop offset="0.1455" style="stop-color:#7DC7BB"/>
<stop offset="0.5576" style="stop-color:#6292A3"/>
<stop offset="0.8727" style="stop-color:#455188"/>
<stop offset="1" style="stop-color:#4E6591"/>
</linearGradient>
<rect fill="url(#SVGID_10_)" height="1.874" width="10.972" x="5.005" y="12.689"/>
<linearGradient gradientUnits="userSpaceOnUse" id="SVGID_11_" x1="10.4912" x2="10.4912" y1="10.1255" y2="15.6464">
<stop offset="0" style="stop-color:#7DC7BB"/>
<stop offset="0.1455" style="stop-color:#7DC7BB"/>
<stop offset="0.5576" style="stop-color:#77A6AD"/>
<stop offset="0.8727" style="stop-color:#455188"/>
<stop offset="1" style="stop-color:#4E6591"/>
</linearGradient>
<polygon fill="url(#SVGID_11_)" points="5.005,13.688 15.977,13.419 15.977,12.679 5.005,12.679 "/>
<linearGradient gradientUnits="userSpaceOnUse" id="SVGID_12_" x1="24.9111" x2="24.9111" y1="11.897" y2="14.1399">
<stop offset="0" style="stop-color:#636363"/>
<stop offset="0.2" style="stop-color:#4D4D4D"/>
<stop offset="0.7212" style="stop-color:#242424"/>
<stop offset="1" style="stop-color:#373737"/>
</linearGradient>
<path d="M24.553,14.085c-0.398,0-0.723-0.323-0.723-0.722v-0.717  c0-0.397,0.324-0.723,0.723-0.723h0.717c0.399,0,0.722,0.325,0.722,0.723v0.717c0,0.398-0.323,0.722-0.722,0.722H24.553z" fill="url(#SVGID_12_)" fill-opacity="0.8" stroke-opacity="0.8"/>
<path d="M25.27,14.085h-0.717c-0.398,0-0.723-0.323-0.723-0.722v0.36c0,0.399,0.324,0.724,0.723,0.724  h0.717c0.399,0,0.722-0.324,0.722-0.724v-0.36C25.992,13.762,25.669,14.085,25.27,14.085z" fill="#222021" fill-opacity="0.4" stroke-opacity="0.4"/>
<linearGradient gradientUnits="userSpaceOnUse" id="SVGID_13_" x1="24.9111" x2="24.9111" y1="12.2661" y2="13.76">
<stop offset="0" style="stop-color:#A2A4A4"/>
<stop offset="0.1333" style="stop-color:#848686"/>
<stop offset="0.2606" style="stop-color:#7D7E7F"/>
<stop offset="0.6606" style="stop-color:#494A4B"/>
<stop offset="1" style="stop-color:#727475"/>
</linearGradient>
<path d="M25.631,13.363c0,0.201-0.162,0.36-0.361,0.36h-0.717c-0.2,0-0.362-0.159-0.362-0.36v-0.717  c0-0.201,0.163-0.362,0.362-0.362h0.717c0.199,0,0.361,0.161,0.361,0.362V13.363z" fill="url(#SVGID_13_)"/>
<linearGradient gradientUnits="userSpaceOnUse" id="SVGID_14_" x1="22.0195" x2="22.0195" y1="11.897" y2="14.1399">
<stop offset="0" style="stop-color:#636363"/>
<stop offset="0.2" style="stop-color:#4D4D4D"/>
<stop offset="0.7212" style="stop-color:#242424"/>
<stop offset="1" style="stop-color:#373737"/>
</linearGradient>
<path d="M21.662,14.085c-0.398,0-0.723-0.323-0.723-0.722v-0.717  c0-0.397,0.325-0.723,0.723-0.723h0.716c0.398,0,0.723,0.325,0.723,0.723v0.717c0,0.398-0.325,0.722-0.723,0.722H21.662z" fill="url(#SVGID_14_)" fill-opacity="0.8" stroke-opacity="0.8"/>
<path d="M22.378,14.085h-0.716c-0.398,0-0.723-0.323-0.723-0.722v0.36  c0,0.399,0.325,0.724,0.723,0.724h0.716c0.398,0,0.723-0.324,0.723-0.724v-0.36C23.101,13.762,22.776,14.085,22.378,14.085z" fill="#222021" fill-opacity="0.4" stroke-opacity="0.4"/>
<linearGradient gradientUnits="userSpaceOnUse" id="SVGID_15_" x1="22.02" x2="22.02" y1="12.2661" y2="13.76">
<stop offset="0" style="stop-color:#A2A4A4"/>
<stop offset="0.1333" style="stop-color:#848686"/>
<stop offset="0.2606" style="stop-color:#7D7E7F"/>
<stop offset="0.6606" style="stop-color:#494A4B"/>
<stop offset="1" style="stop-color:#727475"/>
</linearGradient>
<path d="M22.74,13.363c0,0.201-0.163,0.36-0.362,0.36h-0.716c-0.2,0-0.362-0.159-0.362-0.36v-0.717  c0-0.201,0.162-0.362,0.362-0.362h0.716c0.2,0,0.362,0.161,0.362,0.362V13.363z" fill="url(#SVGID_15_)"/>
<linearGradient gradientUnits="userSpaceOnUse" id="SVGID_16_" x1="19.1279" x2="19.1279" y1="11.897" y2="14.1399">
<stop offset="0" style="stop-color:#636363"/>
<stop offset="0.2" style="stop-color:#4D4D4D"/>
<stop offset="0.7212" style="stop-color:#242424"/>
<stop offset="1" style="stop-color:#373737"/>
</linearGradient>
<path d="M18.77,14.085c-0.399,0-0.723-0.323-0.723-0.722v-0.717  c0-0.397,0.324-0.723,0.723-0.723h0.716c0.399,0,0.723,0.325,0.723,0.723v0.717c0,0.398-0.324,0.722-0.723,0.722H18.77z" fill="url(#SVGID_16_)" fill-opacity="0.8" stroke-opacity="0.8"/>
<path d="M19.486,14.085H18.77c-0.399,0-0.723-0.323-0.723-0.722v0.36c0,0.399,0.324,0.724,0.723,0.724  h0.716c0.399,0,0.723-0.324,0.723-0.724v-0.36C20.209,13.762,19.885,14.085,19.486,14.085z" fill="#222021" fill-opacity="0.4" stroke-opacity="0.4"/>
<linearGradient gradientUnits="userSpaceOnUse" id="SVGID_17_" x1="19.1279" x2="19.1279" y1="12.2661" y2="13.76">
<stop offset="0" style="stop-color:#A2A4A4"/>
<stop offset="0.1333" style="stop-color:#848686"/>
<stop offset="0.2606" style="stop-color:#7D7E7F"/>
<stop offset="0.6606" style="stop-color:#494A4B"/>
<stop offset="1" style="stop-color:#727475"/>
</linearGradient>
<path d="M19.848,13.363c0,0.201-0.162,0.36-0.362,0.36H18.77c-0.199,0-0.361-0.159-0.361-0.36v-0.717  c0-0.201,0.162-0.362,0.361-0.362h0.716c0.2,0,0.362,0.161,0.362,0.362V13.363z" fill="url(#SVGID_17_)"/>
<linearGradient gradientUnits="userSpaceOnUse" id="SVGID_18_" x1="24.9111" x2="24.9111" y1="14.7876" y2="17.0325">
<stop offset="0" style="stop-color:#636363"/>
<stop offset="0.2" style="stop-color:#4D4D4D"/>
<stop offset="0.7212" style="stop-color:#242424"/>
<stop offset="1" style="stop-color:#373737"/>
</linearGradient>
<path d="M24.553,16.978c-0.398,0-0.723-0.324-0.723-0.724v-0.717  c0-0.399,0.324-0.723,0.723-0.723h0.717c0.399,0,0.722,0.323,0.722,0.723v0.717c0,0.399-0.323,0.724-0.722,0.724H24.553z" fill="url(#SVGID_18_)" fill-opacity="0.8" stroke-opacity="0.8"/>
<path d="M25.27,16.978h-0.717c-0.398,0-0.723-0.324-0.723-0.724v0.36c0,0.4,0.324,0.724,0.723,0.724  h0.717c0.399,0,0.722-0.323,0.722-0.724v-0.36C25.992,16.653,25.669,16.978,25.27,16.978z" fill="#222021" fill-opacity="0.4" stroke-opacity="0.4"/>
<linearGradient gradientUnits="userSpaceOnUse" id="SVGID_19_" x1="24.9111" x2="24.9111" y1="15.1587" y2="16.6506">
<stop offset="0" style="stop-color:#A2A4A4"/>
<stop offset="0.1333" style="stop-color:#848686"/>
<stop offset="0.2606" style="stop-color:#7D7E7F"/>
<stop offset="0.6606" style="stop-color:#494A4B"/>
<stop offset="1" style="stop-color:#727475"/>
</linearGradient>
<path d="M25.631,16.254c0,0.201-0.162,0.36-0.361,0.36h-0.717c-0.2,0-0.362-0.159-0.362-0.36v-0.717  c0-0.199,0.163-0.36,0.362-0.36h0.717c0.199,0,0.361,0.161,0.361,0.36V16.254z" fill="url(#SVGID_19_)"/>
<linearGradient gradientUnits="userSpaceOnUse" id="SVGID_20_" x1="22.0195" x2="22.0195" y1="14.7876" y2="17.0325">
<stop offset="0" style="stop-color:#636363"/>
<stop offset="0.2" style="stop-color:#4D4D4D"/>
<stop offset="0.7212" style="stop-color:#242424"/>
<stop offset="1" style="stop-color:#373737"/>
</linearGradient>
<path d="M21.662,16.978c-0.398,0-0.723-0.324-0.723-0.724v-0.717  c0-0.399,0.325-0.723,0.723-0.723h0.716c0.398,0,0.723,0.323,0.723,0.723v0.717c0,0.399-0.325,0.724-0.723,0.724H21.662z" fill="url(#SVGID_20_)" fill-opacity="0.8" stroke-opacity="0.8"/>
<path d="M22.378,16.978h-0.716c-0.398,0-0.723-0.324-0.723-0.724v0.36c0,0.4,0.325,0.724,0.723,0.724  h0.716c0.398,0,0.723-0.323,0.723-0.724v-0.36C23.101,16.653,22.776,16.978,22.378,16.978z" fill="#222021" fill-opacity="0.4" stroke-opacity="0.4"/>
<linearGradient gradientUnits="userSpaceOnUse" id="SVGID_21_" x1="22.02" x2="22.02" y1="15.1587" y2="16.6506">
<stop offset="0" style="stop-color:#A2A4A4"/>
<stop offset="0.1333" style="stop-color:#848686"/>
<stop offset="0.2606" style="stop-color:#7D7E7F"/>
<stop offset="0.6606" style="stop-color:#494A4B"/>
<stop offset="1" style="stop-color:#727475"/>
</linearGradient>
<path d="M22.74,16.254c0,0.201-0.163,0.36-0.362,0.36h-0.716c-0.2,0-0.362-0.159-0.362-0.36v-0.717  c0-0.199,0.162-0.36,0.362-0.36h0.716c0.2,0,0.362,0.161,0.362,0.36V16.254z" fill="url(#SVGID_21_)"/>
<linearGradient gradientUnits="userSpaceOnUse" id="SVGID_22_" x1="19.1279" x2="19.1279" y1="14.7876" y2="17.0325">
<stop offset="0" style="stop-color:#636363"/>
<stop offset="0.2" style="stop-color:#4D4D4D"/>
<stop offset="0.7212" style="stop-color:#242424"/>
<stop offset="1" style="stop-color:#373737"/>
</linearGradient>
<path d="M18.77,16.978c-0.399,0-0.723-0.324-0.723-0.724v-0.717  c0-0.399,0.324-0.723,0.723-0.723h0.716c0.399,0,0.723,0.323,0.723,0.723v0.717c0,0.399-0.324,0.724-0.723,0.724H18.77z" fill="url(#SVGID_22_)" fill-opacity="0.8" stroke-opacity="0.8"/>
<path d="M19.486,16.978H18.77c-0.399,0-0.723-0.324-0.723-0.724v0.36c0,0.4,0.324,0.724,0.723,0.724  h0.716c0.399,0,0.723-0.323,0.723-0.724v-0.36C20.209,16.653,19.885,16.978,19.486,16.978z" fill="#222021" fill-opacity="0.4" stroke-opacity="0.4"/>
<linearGradient gradientUnits="userSpaceOnUse" id="SVGID_23_" x1="19.1279" x2="19.1279" y1="15.1587" y2="16.6506">
<stop offset="0" style="stop-color:#A2A4A4"/>
<stop offset="0.1333" style="stop-color:#848686"/>
<stop offset="0.2606" style="stop-color:#7D7E7F"/>
<stop offset="0.6606" style="stop-color:#494A4B"/>
<stop offset="1" style="stop-color:#727475"/>
</linearGradient>
<path d="M19.848,16.254c0,0.201-0.162,0.36-0.362,0.36H18.77c-0.199,0-0.361-0.159-0.361-0.36v-0.717  c0-0.199,0.162-0.36,0.361-0.36h0.716c0.2,0,0.362,0.161,0.362,0.36V16.254z" fill="url(#SVGID_23_)"/>
<linearGradient gradientUnits="userSpaceOnUse" id="SVGID_24_" x1="24.9111" x2="24.9111" y1="17.6792" y2="19.9231">
<stop offset="0" style="stop-color:#636363"/>
<stop offset="0.2" style="stop-color:#4D4D4D"/>
<stop offset="0.7212" style="stop-color:#242424"/>
<stop offset="1" style="stop-color:#373737"/>
</linearGradient>
<path d="M24.553,19.868c-0.398,0-0.723-0.322-0.723-0.723V18.43  c0-0.398,0.324-0.724,0.723-0.724h0.717c0.399,0,0.722,0.325,0.722,0.724v0.716c0,0.4-0.323,0.723-0.722,0.723H24.553z" fill="url(#SVGID_24_)" fill-opacity="0.8" stroke-opacity="0.8"/>
<path d="M25.27,19.868h-0.717c-0.398,0-0.723-0.322-0.723-0.723v0.361c0,0.4,0.324,0.725,0.723,0.725  h0.717c0.399,0,0.722-0.324,0.722-0.725v-0.361C25.992,19.546,25.669,19.868,25.27,19.868z" fill="#222021" fill-opacity="0.4" stroke-opacity="0.4"/>
<linearGradient gradientUnits="userSpaceOnUse" id="SVGID_25_" x1="24.9111" x2="24.9111" y1="18.0513" y2="19.5432">
<stop offset="0" style="stop-color:#A2A4A4"/>
<stop offset="0.1333" style="stop-color:#848686"/>
<stop offset="0.2606" style="stop-color:#7D7E7F"/>
<stop offset="0.6606" style="stop-color:#494A4B"/>
<stop offset="1" style="stop-color:#727475"/>
</linearGradient>
<path d="M25.631,19.146c0,0.199-0.162,0.361-0.361,0.361h-0.717c-0.2,0-0.362-0.162-0.362-0.361V18.43  c0-0.199,0.163-0.36,0.362-0.36h0.717c0.199,0,0.361,0.161,0.361,0.36V19.146z" fill="url(#SVGID_25_)"/>
<linearGradient gradientUnits="userSpaceOnUse" id="SVGID_26_" x1="22.0195" x2="22.0195" y1="17.6792" y2="19.9231">
<stop offset="0" style="stop-color:#636363"/>
<stop offset="0.2" style="stop-color:#4D4D4D"/>
<stop offset="0.7212" style="stop-color:#242424"/>
<stop offset="1" style="stop-color:#373737"/>
</linearGradient>
<path d="M21.662,19.868c-0.398,0-0.723-0.322-0.723-0.723V18.43  c0-0.398,0.325-0.724,0.723-0.724h0.716c0.398,0,0.723,0.325,0.723,0.724v0.716c0,0.4-0.325,0.723-0.723,0.723H21.662z" fill="url(#SVGID_26_)" fill-opacity="0.8" stroke-opacity="0.8"/>
<path d="M22.378,19.868h-0.716c-0.398,0-0.723-0.322-0.723-0.723v0.361c0,0.4,0.325,0.725,0.723,0.725  h0.716c0.398,0,0.723-0.324,0.723-0.725v-0.361C23.101,19.546,22.776,19.868,22.378,19.868z" fill="#222021" fill-opacity="0.4" stroke-opacity="0.4"/>
<linearGradient gradientUnits="userSpaceOnUse" id="SVGID_27_" x1="22.02" x2="22.02" y1="18.0513" y2="19.5432">
<stop offset="0" style="stop-color:#A2A4A4"/>
<stop offset="0.1333" style="stop-color:#848686"/>
<stop offset="0.2606" style="stop-color:#7D7E7F"/>
<stop offset="0.6606" style="stop-color:#494A4B"/>
<stop offset="1" style="stop-color:#727475"/>
</linearGradient>
<path d="M22.74,19.146c0,0.199-0.163,0.361-0.362,0.361h-0.716c-0.2,0-0.362-0.162-0.362-0.361V18.43  c0-0.199,0.162-0.36,0.362-0.36h0.716c0.2,0,0.362,0.161,0.362,0.36V19.146z" fill="url(#SVGID_27_)"/>
<linearGradient gradientUnits="userSpaceOnUse" id="SVGID_28_" x1="19.1279" x2="19.1279" y1="17.6792" y2="19.9231">
<stop offset="0" style="stop-color:#636363"/>
<stop offset="0.2" style="stop-color:#4D4D4D"/>
<stop offset="0.7212" style="stop-color:#242424"/>
<stop offset="1" style="stop-color:#373737"/>
</linearGradient>
<path d="M18.77,19.868c-0.399,0-0.723-0.322-0.723-0.723V18.43  c0-0.398,0.324-0.724,0.723-0.724h0.716c0.399,0,0.723,0.325,0.723,0.724v0.716c0,0.4-0.324,0.723-0.723,0.723H18.77z" fill="url(#SVGID_28_)" fill-opacity="0.8" stroke-opacity="0.8"/>
<path d="M19.486,19.868H18.77c-0.399,0-0.723-0.322-0.723-0.723v0.361c0,0.4,0.324,0.725,0.723,0.725  h0.716c0.399,0,0.723-0.324,0.723-0.725v-0.361C20.209,19.546,19.885,19.868,19.486,19.868z" fill="#222021" fill-opacity="0.4" stroke-opacity="0.4"/>
<linearGradient gradientUnits="userSpaceOnUse" id="SVGID_29_" x1="19.1279" x2="19.1279" y1="18.0513" y2="19.5432">
<stop offset="0" style="stop-color:#A2A4A4"/>
<stop offset="0.1333" style="stop-color:#848686"/>
<stop offset="0.2606" style="stop-color:#7D7E7F"/>
<stop offset="0.6606" style="stop-color:#494A4B"/>
<stop offset="1" style="stop-color:#727475"/>
</linearGradient>
<path d="M19.848,19.146c0,0.199-0.162,0.361-0.362,0.361H18.77c-0.199,0-0.361-0.162-0.361-0.361V18.43  c0-0.199,0.162-0.36,0.361-0.36h0.716c0.2,0,0.362,0.161,0.362,0.36V19.146z" fill="url(#SVGID_29_)"/>
<linearGradient gradientTransform="matrix(-1 0 0 -1 -7634.4854 1952.6084)" gradientUnits="userSpaceOnUse" id="SVGID_30_" x1="-7649.4858" x2="-7649.4858" y1="1924.5239" y2="1930.8613">
<stop offset="0" style="stop-color:#D9D9D9"/>
<stop offset="0.5382" style="stop-color:#B3B3B3"/>
<stop offset="1" style="stop-color:#B3B3B3"/>
</linearGradient>
<rect fill="url(#SVGID_30_)" height="6.053" width="18.919" x="5.541" y="22.032"/>
<linearGradient gradientUnits="userSpaceOnUse" id="SVGID_31_" x1="15.0005" x2="15.0005" y1="21.604" y2="23.7331">
<stop offset="0" style="stop-color:#171717"/>
<stop offset="1" style="stop-color:#2E2E2E"/>
</linearGradient>
<path d="M24.568,21.584H5.433c-0.21,0-0.382,0.172-0.382,0.383v1.751H24.95v-1.751  C24.95,21.756,24.779,21.584,24.568,21.584z" fill="url(#SVGID_31_)"/>
<path d="M24.568,21.206H5.433c-0.21,0-0.382,0.171-0.382,0.384v0.377  c0-0.211,0.171-0.383,0.382-0.383h19.135c0.211,0,0.382,0.172,0.382,0.383V21.59C24.95,21.377,24.779,21.206,24.568,21.206z" fill="#FFFFFF" fill-opacity="0.35" stroke-opacity="0.35"/>
<linearGradient gradientTransform="matrix(-1 0 0 -1 -7634.4854 1952.6084)" gradientUnits="userSpaceOnUse" id="SVGID_32_" x1="-7649.4858" x2="-7649.4858" y1="1924.4653" y2="1930.1107">
<stop offset="0" style="stop-color:#EDEDED"/>
<stop offset="1" style="stop-color:#BDBDBD"/>
</linearGradient>
<polygon fill="url(#SVGID_32_)" points="5.541,24.79 5.541,22.032 24.46,22.032 24.46,28.085 17.334,28.085 13.432,27.889   6.298,25.848 5.729,25.252 "/>
<rect fill="#020202" fill-opacity="0.3" height="0.38" stroke-opacity="0.3" width="18.919" x="5.541" y="22.032"/>
<rect fill="#020202" fill-opacity="0.15" height="0.378" stroke-opacity="0.15" width="18.919" x="5.541" y="22.412"/>
<rect fill="#020202" fill-opacity="0.05" height="0.378" stroke-opacity="0.05" width="18.919" x="5.541" y="22.79"/>
<rect fill="#020202" fill-opacity="0.5" height="0.376" stroke-opacity="0.5" width="13.621" x="8.19" y="24.682"/>
<rect fill="#020202" fill-opacity="0.2" height="0.38" stroke-opacity="0.2" width="13.621" x="8.19" y="25.058"/>
<path d="M17.429,28.084c0,0-6.867-1.039-9.421-4.539  c0,0-1.929,2.649-2.467,1.208C5.813,26.145,8.263,28.136,17.429,28.084z" fill="#050505" fill-opacity="0.05" fill-rule="evenodd" stroke-opacity="0.05"/>
<path d="M17.429,28.084c0,0-6.867-0.282-9.421-3.781  c0,0-1.929,2.271-2.467,0.45C5.813,26.145,8.263,28.136,17.429,28.084z" fill="#050505" fill-opacity="0.1" fill-rule="evenodd" stroke-opacity="0.1"/>
<linearGradient gradientTransform="matrix(-1 0 0 -1 -7634.4854 1952.6084)" gradientUnits="userSpaceOnUse" id="SVGID_33_" x1="-7645.6104" x2="-7646.3232" y1="1924.8521" y2="1927.5011">
<stop offset="0" style="stop-color:#FFFFFF"/>
<stop offset="0.0061" style="stop-color:#FFFFFF"/>
<stop offset="1" style="stop-color:#D9D9D9"/>
</linearGradient>
<path d="M17.429,28.084c0,0-6.867-0.059-9.421-3.56  c0,0-1.829,2.256-2.467,0.229C5.813,26.145,8.263,28.136,17.429,28.084z" fill="url(#SVGID_33_)" fill-rule="evenodd"/>
<rect fill="none" height="30" width="30" x="0"/>
</g>
</svg>
