<?xml version="1.0" encoding="UTF-8"?>
<!DOCTYPE svg PUBLIC "-//W3C//DTD SVG 1.1 Tiny//EN" "http://www.w3.org/Graphics/SVG/1.1/DTD/svg11-tiny.dtd">
<svg baseProfile="tiny" height="60" viewBox="0 0 60 60" width="60" xmlns="http://www.w3.org/2000/svg" xmlns:xlink="http://www.w3.org/1999/xlink">
<g>
<rect fill="none" height="60" width="60"/>
<linearGradient gradientUnits="userSpaceOnUse" id="SVGID_1_" x1="29.9995" x2="29.9995" y1="1.8594" y2="57.8613">
<stop offset="0" style="stop-color:#FFFFFF"/>
<stop offset="1" style="stop-color:#F2F2F2"/>
</linearGradient>
<path d="M6.787,44.293c0,0.829,0.478,1.986,1.064,2.572l9.925,9.926c0.586,0.585,1.743,1.064,2.573,1.064  h32.864V2.145H6.787V44.293z" fill="url(#SVGID_1_)"/>
<linearGradient gradientUnits="userSpaceOnUse" id="SVGID_2_" x1="29.9995" x2="29.9995" y1="3.8799" y2="55.861">
<stop offset="0" style="stop-color:#F9F9F9"/>
<stop offset="1" style="stop-color:#E6E6E6"/>
</linearGradient>
<path d="M20.349,55.855c-0.298,0-0.949-0.27-1.16-0.48l-9.924-9.924c-0.21-0.21-0.479-0.859-0.479-1.158  V4.145h42.426v51.71H20.349z" fill="url(#SVGID_2_)"/>
<path d="M30,46.05c-8.882,0-16.107-7.333-16.107-16.346c0-9.014,7.226-16.348,16.107-16.348  c8.881,0,16.107,7.334,16.107,16.348C46.107,38.717,38.881,46.05,30,46.05L30,46.05z" fill-opacity="0.2" stroke-opacity="0.2"/>
<ellipse cx="30" cy="29.703" fill-opacity="0.2" rx="15.107" ry="15.347" stroke-opacity="0.2"/>
<linearGradient gradientUnits="userSpaceOnUse" id="SVGID_3_" x1="30.0005" x2="30.0005" y1="43.7314" y2="13.2561">
<stop offset="0" style="stop-color:#2A3662"/>
<stop offset="1" style="stop-color:#546F9F"/>
</linearGradient>
<ellipse cx="30" cy="28.561" fill="url(#SVGID_3_)" rx="15.107" ry="15.346"/>
<radialGradient cx="-23.8765" cy="20.2261" gradientTransform="matrix(0.9797 0 0 0.9952 53.1776 3.1224)" gradientUnits="userSpaceOnUse" id="SVGID_4_" r="18.5636">
<stop offset="0" style="stop-color:#B4DFC6"/>
<stop offset="0.5" style="stop-color:#72B9C3"/>
<stop offset="1" style="stop-color:#546F9F"/>
</radialGradient>
<ellipse cx="30" cy="28.561" fill="url(#SVGID_4_)" rx="14.721" ry="14.953"/>
<linearGradient gradientUnits="userSpaceOnUse" id="SVGID_5_" x1="29.9995" x2="29.9995" y1="13.4756" y2="43.5901">
<stop offset="0" style="stop-color:#6DACBC"/>
<stop offset="0.497" style="stop-color:#5778A3"/>
<stop offset="1" style="stop-color:#A6CDC2"/>
</linearGradient>
<path d="M30,13.607c-8.129,0-14.721,6.696-14.721,14.954c0,8.259,6.592,14.953,14.721,14.953  c8.131,0,14.721-6.693,14.721-14.953C44.721,20.303,38.131,13.607,30,13.607z M30,42.205c-7.645,0-13.862-6.316-13.862-14.079  c0-7.766,6.218-14.082,13.862-14.082s13.861,6.316,13.861,14.082C43.861,35.889,37.645,42.205,30,42.205z" fill="url(#SVGID_5_)" fill-opacity="0.3" stroke-opacity="0.3"/>
<linearGradient gradientUnits="userSpaceOnUse" id="SVGID_6_" x1="15.5205" x2="17.8594" y1="30.5957" y2="30.5957">
<stop offset="0" style="stop-color:#59595A"/>
<stop offset="1" style="stop-color:#000000"/>
</linearGradient>
<path d="M16.661,28.317c-0.156-0.211-0.51-0.211-0.666-0.211c-0.308,0-0.473,0.223-0.475,0.442  v0.015v0.022c0,0.384,0.021,0.816,0.065,1.34c0.01,0.098,0.02,0.197,0.033,0.296l0.018,0.144c0.04,0.313,0.086,0.618,0.139,0.913  l0.024,0.13c0.022,0.118,0.044,0.231,0.067,0.347c0.064,0.291,0.141,0.592,0.236,0.924c0.013,0.049,0.025,0.098,0.036,0.144  c0.021,0.078,0.039,0.155,0.063,0.231l0.005,0.01l0.007,0.023c0-0.006-0.005-0.018-0.005-0.025l0.844-0.059  c0.014-0.134,0.019-0.273,0.014-0.413c-0.007-0.216-0.016-0.483-0.077-0.71l0.785-1.069l0.084-0.115v-0.146v-0.833v-0.182  l-0.127-0.127L16.661,28.317z" fill="url(#SVGID_6_)" fill-opacity="0.3" stroke-opacity="0.3"/>
<linearGradient gradientUnits="userSpaceOnUse" id="SVGID_7_" x1="20.0322" x2="44.5176" y1="26.2412" y2="26.2412">
<stop offset="0" style="stop-color:#59595A"/>
<stop offset="1" style="stop-color:#000000"/>
</linearGradient>
<path d="M44.512,25.63c-0.01-0.056-0.021-0.098-0.031-0.137  c-0.008-0.03-0.014-0.061-0.021-0.088c-0.072-0.355-0.166-0.72-0.273-1.094l-0.014-0.04c-0.021-0.083-0.047-0.168-0.072-0.251  c-0.133-0.42-0.277-0.823-0.43-1.193c-0.02-0.045-0.041-0.089-0.061-0.134l-0.029-0.071c-0.148-0.34-0.309-0.679-0.477-1.004  l-0.023-0.042c-0.033-0.065-0.066-0.13-0.1-0.194c-0.211-0.38-0.424-0.746-0.648-1.082c-0.021-0.036-0.047-0.073-0.072-0.111  c-0.02-0.022-0.031-0.042-0.047-0.066c-0.213-0.313-0.438-0.618-0.668-0.907l-0.047-0.059c-0.031-0.038-0.061-0.08-0.094-0.12  c-0.268-0.326-0.551-0.644-0.844-0.943c-0.041-0.039-0.084-0.081-0.125-0.124L40.4,17.936c-0.264-0.263-0.545-0.522-0.834-0.768  l-0.057-0.05c-0.027-0.027-0.059-0.051-0.088-0.075c-0.314-0.264-0.656-0.522-1.014-0.771c-0.041-0.03-0.086-0.06-0.131-0.088  l-0.055-0.037c-0.32-0.215-0.656-0.422-0.99-0.611l-0.051-0.029c-0.029-0.017-0.059-0.031-0.084-0.049  c-0.375-0.202-0.764-0.394-1.158-0.567l-0.1-0.041l-0.109-0.045c-0.105-0.044-0.209-0.081-0.313-0.119  c-0.055-0.019-0.107-0.038-0.158-0.057l-0.201-0.076l-0.182,0.116c-0.117,0.076-0.59,0.351-0.869,0.51  c-0.309-0.041-1.057-0.136-1.811-0.21c0.23-0.023,0.555-0.05,1.006-0.081l0.064-0.861l-0.033-0.009  c-0.027-0.006-0.055-0.013-0.082-0.02l-0.064-0.012l-0.053-0.011c-0.461-0.094-0.896-0.163-1.326-0.208h-0.004l-0.061-0.006  c-0.492-0.051-0.991-0.077-1.488-0.077c-0.438,0-0.891,0.024-1.384,0.072c-0.078,0.007-0.149,0.015-0.228,0.023  c-0.488,0.055-0.915,0.122-1.319,0.205l-0.016,0.002l-0.009,0.001c-0.426,0.091-0.853,0.202-1.311,0.343  c-0.039,0.014-0.08,0.027-0.12,0.04l-0.092,0.03c-0.387,0.125-0.766,0.266-1.125,0.417c-0.028,0.013-0.051,0.021-0.071,0.028  l-0.055,0.023c-0.397,0.172-0.796,0.366-1.19,0.582c-0.042,0.022-0.083,0.047-0.125,0.071l-0.052,0.029  c-0.109,0.064-0.221,0.134-0.33,0.202l-0.143,0.093l-0.791,0.49l0.875,0.297c0.132,0.045,0.272,0.067,0.42,0.067  c0.471,0,0.928-0.236,1.295-0.424c0.147-0.077,0.366-0.19,0.457-0.208c0.107,0.032,0.215,0.049,0.323,0.049  c0.399,0,0.729-0.221,1.019-0.415l0.077-0.05c0.097-0.03,0.258-0.091,0.578-0.213c0.329-0.126,0.928-0.354,1.088-0.392  c0.31-0.004,0.679-0.049,0.942-0.215c0.248,0.042,0.688,0.112,1.143,0.172c-0.033,0.021-0.065,0.042-0.095,0.07  c-0.146,0.137-0.94,0.382-1.185,0.414c-0.457,0.057-0.639,0.292-0.712,0.476c-0.094,0.242-0.04,0.483,0.056,0.679  c-0.174,0.115-0.385,0.244-0.566,0.342c0-0.004,0.002-0.009,0.002-0.014c0.064-0.371,0.114-0.638-0.064-0.852  c-0.09-0.111-0.224-0.172-0.364-0.172c-0.21,0-0.371,0.13-0.502,0.259c-0.366,0.359-0.588,0.808-0.672,0.977l-0.016,0.031  l-0.014,0.025c-0.157,0.31-0.223,0.527-0.136,1.21c-0.039,0.028-0.154,0.073-0.313,0.073c-0.02,0-0.039-0.001-0.055-0.002  c-0.104-0.114-0.246-0.179-0.406-0.179l0,0c-0.37,0-0.873,0.423-1.497,1.257l-0.199,0.268l0.203,0.266l0.188,0.246  c-2.972,2.334-2.994,2.467-3.023,2.661c-0.007,0.02-0.033,0.1-0.068,0.211c-0.442,1.398-0.688,2.445-0.449,3.004  c0.554,1.298,1.179,2.511,1.987,2.577c0.07,0.006,0.147,0.009,0.233,0.009c0.739,0,1.94-0.229,2.518-0.348  c0.105,0.204,0.237,0.442,0.307,0.57l0.129,0.231l0.261-0.009c0,0,0.141-0.005,0.315-0.005c0.203,0,0.338,0.007,0.425,0.014  c0.314,0.937,0.917,3.093,0.805,3.539l-0.003,0.002c-1.014,1.548,0.216,3.563,0.808,4.532c0.048,0.077,0.089,0.146,0.125,0.205  c0.228,0.661,0.505,1.098,1.089,1.098c0.043,0,0.09-0.004,0.132-0.004c0.033-0.003,0.069-0.005,0.104-0.005  c0.066,0,0.11,0.009,0.159,0.026l0.055,0.02l0.056,0.004c0.109,0.01,0.214,0.023,0.32,0.039c0.177,0.025,0.364,0.052,0.556,0.052  c0.508,0,0.909-0.195,1.258-0.614c0.014,0,0.025-0.001,0.037-0.003c0.367-0.052,0.504-0.239,0.549-0.404  c0.029-0.028,0.064-0.063,0.094-0.091c0.146-0.133,0.316-0.292,0.436-0.481c0.051-0.032,0.113-0.068,0.182-0.109  c0.117-0.073,0.25-0.154,0.354-0.21c0.092-0.027,0.174-0.084,0.234-0.16c0.148-0.184,0.119-0.394,0.094-0.563  c-0.025-0.172-0.051-0.35,0.043-0.541c0.52-0.256,1.445-0.881,1.594-0.984v0.012c-0.008,0.084-0.033,0.309-0.07,0.451  c-0.197,0.199-0.359,0.503-0.414,0.605l-0.031,0.066l-0.012,0.074c-0.012,0.098-0.066,0.608,0.215,0.938  c0.143,0.165,0.346,0.258,0.574,0.258c0.07,0,0.146-0.01,0.223-0.028c0.727-0.167,2.01-1.935,2.113-2.91  c0.053-0.473-0.129-0.842-0.494-1.017l-0.273-0.131l-0.217,0.216l-0.791,0.806c-0.268,0.025-0.479,0.106-0.619,0.234  c0.008-0.344-0.025-0.696-0.061-1.04c-0.109-1.036-0.129-1.695,0.496-2.146l0.031-0.023l0.029-0.028  c0.223-0.233,0.475-0.438,0.74-0.654c0.619-0.506,1.26-1.028,1.643-1.975l0.016-0.041c0.123-0.323,0.309-0.811,0.059-1.182  c-0.063-0.091-0.193-0.233-0.441-0.286c0.326-0.131,0.576-0.237,0.6-0.246l0.076-0.032l0.059-0.058l1.34-1.304l0.195-0.192  l-0.086-0.263c-0.012-0.034-0.086-0.239-0.291-0.535c0.391,0.053,0.729,0.148,0.834,0.234c0.043,0.088,0.121,0.283,0.209,0.488  c1.471,3.528,1.678,3.708,2.063,3.715c0.014,0,0.025,0.001,0.035,0.003c0.029,0.001,0.059,0.002,0.082,0.002  c0.221,0,0.344-0.114,0.398-0.181c0.16-0.196,0.117-0.437,0.1-0.526l-0.006-0.03c-0.018-0.212-0.006-1.162,0.023-1.94  c0.002,0.003,0.004,0.004,0.004,0.007l0.791-0.319L44.512,25.63z M32.908,21.317c-0.061,0.001-0.129,0.005-0.199,0.006  c-0.227,0.013-0.486,0.023-0.742,0.023c-0.672,0-0.826-0.083-0.842-0.095c-0.081-0.057-0.162-0.101-0.247-0.133  c0.153-0.035,0.327-0.155,0.507-0.508c0.176,0.348,0.416,0.657,0.785,0.657c0.1,0,0.195-0.024,0.287-0.071  C32.582,21.2,32.785,21.27,32.908,21.317z M32.645,19.408c-0.053,0-0.094-0.002-0.125-0.004c0.033-0.091,0.076-0.145,0.107-0.175  c0.043,0.067,0.104,0.125,0.166,0.175C32.74,19.407,32.691,19.408,32.645,19.408z M29.963,20.323  c0.231,0.46,0.402,0.658,0.539,0.745c-0.334,0.027-0.586,0.242-0.796,0.448c-0.146-0.052-0.397-0.206-0.473-0.314  c-0.043-0.064-0.097-0.119-0.156-0.167C29.444,20.928,29.766,20.583,29.963,20.323z M28.69,19.986l-0.48-0.025l-1.606-0.078  c0.198-0.164,0.385-0.318,0.493-0.409c0.03-0.012,0.145-0.043,0.427-0.043c0.17,0,0.332,0.012,0.438,0.021L28.69,19.986z" fill="url(#SVGID_7_)" fill-opacity="0.3" stroke-opacity="0.3"/>
<radialGradient cx="-23.4248" cy="14.9639" gradientTransform="matrix(0.9797 0 0 0.9952 53.1776 3.1224)" gradientUnits="userSpaceOnUse" id="SVGID_8_" r="16.9456">
<stop offset="0" style="stop-color:#71A949"/>
<stop offset="0.3152" style="stop-color:#71A949"/>
<stop offset="0.7273" style="stop-color:#3E7E53"/>
<stop offset="1" style="stop-color:#254F55"/>
</radialGradient>
<path d="M15.949,28.552c0,0,0,0,0,0.002c0,0.003,0,0.006,0,0.01c0,0.446,0.029,0.886,0.065,1.32  c0.013,0.144,0.032,0.286,0.048,0.43c0.038,0.298,0.084,0.594,0.135,0.887c0.031,0.153,0.06,0.309,0.09,0.463  c0.066,0.301,0.146,0.6,0.229,0.893c0.035,0.121,0.062,0.246,0.097,0.363c0.007,0.013,0.011,0.025,0.013,0.039  c0.012-0.117,0.016-0.234,0.012-0.355c-0.027-0.86-0.163-0.75-0.163-0.75l0.955-1.305v-0.833l-1.12-1.138  C16.309,28.578,15.949,28.521,15.949,28.552z" fill="url(#SVGID_8_)"/>
<radialGradient cx="-23.4033" cy="14.9658" gradientTransform="matrix(0.9797 0 0 0.9952 53.1776 3.1224)" gradientUnits="userSpaceOnUse" id="SVGID_9_" r="16.9596">
<stop offset="0" style="stop-color:#71A949"/>
<stop offset="0.3152" style="stop-color:#71A949"/>
<stop offset="0.7273" style="stop-color:#3E7E53"/>
<stop offset="1" style="stop-color:#254F55"/>
</radialGradient>
<path d="M24.947,15.643c0.412,0.139,0.751-0.143,1.136-0.394c0.136-0.027,1.647-0.641,1.813-0.641  c0.163,0,0.712-0.021,0.849-0.243c0,0,2.365,0.419,2.724,0.279c0.192-0.077,1.009-0.144,1.708-0.189  c-0.037-0.009-0.076-0.02-0.113-0.029c-0.039-0.008-0.074-0.013-0.113-0.021c-0.439-0.091-0.885-0.162-1.336-0.208  c0,0-0.006,0-0.01-0.002c-0.476-0.048-0.957-0.074-1.447-0.074c-0.453,0-0.901,0.027-1.345,0.07  c-0.077,0.007-0.153,0.016-0.233,0.026c-0.428,0.047-0.853,0.11-1.27,0.195c-0.007,0.003-0.016,0.003-0.021,0.004  c-0.433,0.09-0.855,0.203-1.272,0.331c-0.071,0.023-0.141,0.047-0.209,0.069c-0.37,0.123-0.734,0.257-1.091,0.405  c-0.041,0.019-0.084,0.035-0.125,0.051c-0.394,0.171-0.775,0.359-1.15,0.563c-0.056,0.03-0.11,0.064-0.165,0.095  c-0.161,0.09-0.311,0.19-0.467,0.288C23.581,16.479,24.538,15.503,24.947,15.643z" fill="url(#SVGID_9_)"/>
<radialGradient cx="-23.4023" cy="14.9634" gradientTransform="matrix(0.9797 0 0 0.9952 53.1776 3.1224)" gradientUnits="userSpaceOnUse" id="SVGID_10_" r="16.9557">
<stop offset="0" style="stop-color:#B7CC97"/>
<stop offset="0.3152" style="stop-color:#B7CC97"/>
<stop offset="0.7273" style="stop-color:#568E4C"/>
<stop offset="1" style="stop-color:#255541"/>
</radialGradient>
<path d="M44.09,25.703c-0.016-0.073-0.037-0.142-0.053-0.213c-0.07-0.356-0.164-0.708-0.266-1.054  c-0.025-0.094-0.051-0.189-0.08-0.282c-0.125-0.394-0.264-0.781-0.416-1.159c-0.029-0.065-0.061-0.131-0.09-0.196  c-0.143-0.333-0.297-0.658-0.463-0.977c-0.037-0.077-0.078-0.155-0.117-0.23c-0.197-0.359-0.406-0.709-0.627-1.051  c-0.041-0.059-0.084-0.114-0.121-0.173c-0.205-0.303-0.42-0.596-0.648-0.881c-0.043-0.055-0.088-0.114-0.135-0.173  c-0.262-0.314-0.533-0.619-0.82-0.914c-0.047-0.05-0.098-0.098-0.15-0.148c-0.26-0.259-0.535-0.511-0.813-0.75  c-0.047-0.04-0.092-0.083-0.141-0.123c-0.316-0.261-0.645-0.511-0.982-0.746c-0.061-0.042-0.119-0.082-0.182-0.121  c-0.311-0.211-0.631-0.411-0.961-0.595c-0.047-0.025-0.088-0.053-0.133-0.077c-0.365-0.199-0.74-0.383-1.123-0.55  c-0.07-0.029-0.139-0.055-0.205-0.085c-0.15-0.063-0.303-0.112-0.455-0.17c-0.182,0.118-1.016,0.597-1.016,0.597  s-3.622-0.502-3.869-0.251c-0.249,0.251-1.213,0.508-1.434,0.537c-0.219,0.03-0.674,0.148-0.129,0.832  c-0.081,0.084-1.642,1.186-1.642,0.686c0-0.502,0.351-1.4-0.139-0.919c-0.351,0.346-0.563,0.813-0.605,0.902  c-0.115,0.223-0.187,0.328-0.104,0.97c0.085,0.642-1.005,0.64-1.08,0.473c-0.196-0.445-1.274,0.999-1.274,0.999l0.455,0.594  c0,0-3.181,2.486-3.206,2.654c-0.028,0.168-0.822,2.328-0.547,2.97c0.274,0.644,0.969,2.262,1.626,2.313  c0.861,0.072,2.951-0.398,2.951-0.398c0.055,0.142,0.45,0.854,0.45,0.854s1.021-0.036,1.081,0.077  c0.018,0.038,1.234,3.668,0.832,4.149c-0.957,1.456,0.547,3.589,0.965,4.312c0.419,1.238,0.688,0.684,1.239,0.889  c0.679,0.058,1.25,0.313,1.826-0.439c0.166-0.141,0.451-0.029,0.451-0.225c0-0.107,0.494-0.427,0.619-0.729  c0.133-0.063,0.475-0.297,0.707-0.41c0.211-0.014-0.201-0.586,0.217-1.191c0.451-0.182,1.666-1.014,1.666-1.014  c0.057-1.223-0.592-2.729,0.617-3.595c0.777-0.807,1.799-1.266,2.295-2.493c0.139-0.361,0.441-1.104-0.438-0.881  c-0.826,0.212-1.75,0.26-1.313-0.109c-0.051-0.456-0.6-0.667-1.092-1.111c-0.254-0.614-0.654-1.704-0.654-1.704l-0.875-1.349  l0.107-0.279l1.041,1.555l1.037,1.276c0.383,1.277,0.711,1.388,0.711,1.388c0.574-0.205,1.939-0.775,1.939-0.775l1.342-1.306  c0,0-0.139-0.417-0.684-0.943l-0.41-0.25c-0.09,0.257-0.566,0.352-0.566,0.352l-1.156-1.406l0.43-0.088l0.332,0.641l0.795,0.279  c0,0,0.219-0.163,0.629,0.267c0.334-0.028,1.635,0.065,1.938,0.457c0.061,0.077,1.611,4.015,1.918,4.02  c0.137,0.001,0.232,0.055,0.189-0.184c-0.055-0.11,0-2.585,0.08-3.115c0.209-0.448,0.242-0.001,0.734,0.853  C44.094,25.745,44.094,25.724,44.09,25.703z M30.432,16.162c0.106-0.329,0.738-0.441,0.738-0.441s-0.183,0.339-0.141,0.514  c0.041,0.177-0.288,0.287-0.323,0.702c-0.038,0.416-0.789,0.171-0.851,0.026S30.319,16.489,30.432,16.162z M33.125,21.748  c-0.467,0-1.863,0.141-2.247-0.138c-0.386-0.278-0.686,0.029-0.962,0.309c-0.182,0.18-0.841-0.187-1.034-0.467  c-0.191-0.279-0.839-0.259-0.839-0.259l0.147-0.796l-1.859-0.09l-1.058,0.315l-0.992,0.028l0.557-0.269l0.693-0.167  c0,0,1.008-0.841,1.31-1.092c0.258-0.212,1.276-0.094,1.276-0.094l1.121,0.821c0,0-0.249,0.643-0.358,0.78  c0.411-0.027,0.896-0.786,0.896-0.786c-0.873-0.816-0.839-1.094-0.839-1.094l1.152,0.822l0.01,0.007c0,0,0.467,1.116,0.661,1.116  c0.189,0,0.436-0.768,0.436-0.768l0.326-0.083c0.146,0.352,0.42,1.147,0.748,0.961c0.189-0.105,0.5-0.01,0.855,0.129  c0.359,0.138,0.602-0.075,0.895,0.185C33.982,22.268,33.318,21.805,33.125,21.748z M33.855,19.828  c-0.479-0.187-2.102,0.418-1.74-0.569c0.193-0.536,0.691-0.646,0.863-0.292c0.043,0.147,0.586,0.374,0.582,0.065  c-0.004-0.308,0.543-0.47,0.621-0.241C33.889,19.003,35.322,20.112,33.855,19.828z M36.918,20.767  c-0.268-0.219,0.117-0.404-0.275-0.746c-0.563-0.491-1.002-0.702-0.234-1.097c0.945-0.122,0.152,0.307,0.309,0.563  c0.084,0.136,0.563,0.593,0.938,1.153C37.963,21.104,37.182,20.984,36.918,20.767z" fill="url(#SVGID_10_)"/>
<radialGradient cx="-23.4043" cy="14.9697" gradientTransform="matrix(0.9797 0 0 0.9952 53.1776 3.1224)" gradientUnits="userSpaceOnUse" id="SVGID_11_" r="16.9518">
<stop offset="0" style="stop-color:#71A949"/>
<stop offset="0.3152" style="stop-color:#71A949"/>
<stop offset="0.7273" style="stop-color:#3E7E53"/>
<stop offset="1" style="stop-color:#254F55"/>
</radialGradient>
<path d="M37.297,33.482l-0.91,0.925c0,0-0.549,0-0.576,0.224c-0.012,0.094-0.045,0.508-0.135,0.719  c-0.182,0.13-0.402,0.557-0.402,0.557s-0.113,0.823,0.492,0.683C36.373,36.451,38.232,33.93,37.297,33.482z" fill="url(#SVGID_11_)"/>
<linearGradient gradientTransform="matrix(1 0 0 -1 -257 -286)" gradientUnits="userSpaceOnUse" id="SVGID_12_" x1="287" x2="287" y1="-288.5059" y2="-343.9819">
<stop offset="0" style="stop-color:#F1F1F1"/>
<stop offset="1" style="stop-color:#B4B6B6"/>
</linearGradient>
<path d="M52.459,2.898v54.203h-32.11c-0.626,0-1.599-0.401-2.04-0.846l-9.925-9.924  c-0.443-0.441-0.845-1.413-0.845-2.039V2.898H52.459 M53.213,2.145H6.787v42.148c0,0.829,0.478,1.986,1.064,2.572l9.925,9.926  c0.586,0.585,1.743,1.064,2.573,1.064h32.864V2.145L53.213,2.145z" fill="url(#SVGID_12_)"/>
<linearGradient gradientTransform="matrix(1 0 0 -1 -257 -286)" gradientUnits="userSpaceOnUse" id="SVGID_13_" x1="275.5117" x2="269.9254" y1="-332.5654" y2="-338.1517">
<stop offset="0" style="stop-color:#FFFFFF"/>
<stop offset="0.35" style="stop-color:#E6E6E6"/>
<stop offset="0.7515" style="stop-color:#BCBCBC"/>
<stop offset="1" style="stop-color:#8E8E8E"/>
</linearGradient>
<path d="M8.208,47.189c-0.314-0.348-0.896-0.695-1.297-2.184c0,0,0.66,3.054,9.701,0.04  c0,12.81,3.768,12.81,3.768,12.81c-0.831,0-1.987-0.479-2.573-1.064L8.208,47.189z" fill="url(#SVGID_13_)"/>
</g>
<g transform="matrix(1 0 0 1 30 30)">
<polygon fill="none" points="30.414,14.408 30.414,0 0.414,0 0.414,14.41 0,14.824 0.414,15.237 0.414,30 30.414,30 30.414,15.236   30.828,14.821 "/>
<path d="M2.749,29.823V17.57L0,14.824l0.706-0.707C1.213,13.608,13.143,1.649,13.861,0.962  c0.387-0.368,0.914-0.786,1.589-0.786c0.687,0,1.172,0.42,1.518,0.785c0.457,0.484,8.802,8.816,13.151,13.154l0.708,0.706  l-2.747,2.749v12.253H2.749z" fill-opacity="0.35" stroke-opacity="0.35"/>
<linearGradient gradientUnits="userSpaceOnUse" id="SVGID_1__" x1="15.415" x2="15.415" y1="28.6694" y2="12.5688">
<stop offset="0" style="stop-color:#FFFFFF"/>
<stop offset="0.6606" style="stop-color:#E1E1E1"/>
<stop offset="1" style="stop-color:#BABCBB"/>
</linearGradient>
<polygon fill="url(#SVGID_1__)" points="27.081,28.823 3.749,28.823 3.749,14.473 15.414,5.489 27.081,14.473 "/>
<linearGradient gradientUnits="userSpaceOnUse" id="SVGID_2__" x1="15.415" x2="15.415" y1="17.313" y2="28.6013">
<stop offset="0" style="stop-color:#FFFFFF"/>
<stop offset="0.6606" style="stop-color:#E1E1E1"/>
<stop offset="1" style="stop-color:#BABCBB"/>
</linearGradient>
<path d="M15.414,6.668l10.736,8.264V27.89H4.682V14.932L15.414,6.668 M15.414,5.489L3.749,14.473v14.351  h23.333V14.473L15.414,5.489L15.414,5.489z" fill="url(#SVGID_2__)"/>
<polygon fill-opacity="0.2" points="27.081,18.033 27.081,14.473 15.414,5.489 3.749,14.473 3.749,18.322 15.414,8.99 " stroke-opacity="0.2"/>
<polygon fill="#727272" points="27.081,18.033 27.081,14.473 15.414,5.489 3.749,14.473 3.749,18.322 15.414,6.655 "/>
<linearGradient gradientUnits="userSpaceOnUse" id="SVGID_3__" x1="15.416" x2="15.416" y1="17.9946" y2="29.1519">
<stop offset="0" style="stop-color:#92603E"/>
<stop offset="1" style="stop-color:#713631"/>
</linearGradient>
<rect fill="url(#SVGID_3__)" height="10.501" width="7.001" x="11.916" y="18.322"/>
<linearGradient gradientUnits="userSpaceOnUse" id="SVGID_4__" x1="15.416" x2="15.416" y1="28.7466" y2="18.3602">
<stop offset="0" style="stop-color:#92603E"/>
<stop offset="1" style="stop-color:#713631"/>
</linearGradient>
<path d="M17.98,19.257v8.633h-5.133v-8.633H17.98 M18.917,18.322h-7.001v10.501h7.001V18.322L18.917,18.322z" fill="url(#SVGID_4__)"/>
<linearGradient gradientUnits="userSpaceOnUse" id="SVGID_5__" x1="15.4136" x2="15.4136" y1="0.0352" y2="17.7271">
<stop offset="0" style="stop-color:#A8835F"/>
<stop offset="0.2606" style="stop-color:#A86F5F"/>
<stop offset="1" style="stop-color:#9A5047"/>
</linearGradient>
<path d="M15.414,5.489l11.667,11.667l2.333-2.333c0,0-12.586-12.554-13.171-13.175  c-0.587-0.62-0.965-0.652-1.689,0.035c-0.719,0.688-13.14,13.14-13.14,13.14l2.335,2.333L15.414,5.489z" fill="url(#SVGID_5__)"/>
<radialGradient cx="15.2969" cy="1.7559" gradientUnits="userSpaceOnUse" id="SVGID_6__" r="18.6679">
<stop offset="0" style="stop-color:#D4C9A4"/>
<stop offset="1" style="stop-color:#AF6151"/>
</radialGradient>
<path d="M14.553,2.616c0.724-0.688,1.102-0.653,1.689-0.034c0.516,0.549,10.433,10.442,12.705,12.709  l0.467-0.468c0,0-12.586-12.554-13.171-13.175c-0.587-0.62-0.965-0.652-1.689,0.035c-0.719,0.688-13.14,13.14-13.14,13.14  l0.467,0.465C4.134,13.029,13.917,3.225,14.553,2.616z" fill="url(#SVGID_6__)"/>
<rect fill-opacity="0.2" height="1.168" stroke-opacity="0.2" width="7.001" x="11.916" y="18.322"/>
<rect fill="none" height="30" width="30" x="0.414"/>
</g>
</svg>
