<?xml version="1.0" encoding="UTF-8"?>
<!DOCTYPE svg PUBLIC "-//W3C//DTD SVG 1.1 Tiny//EN" "http://www.w3.org/Graphics/SVG/1.1/DTD/svg11-tiny.dtd">
<svg baseProfile="tiny" height="60" viewBox="0 0 60 60" width="60" xmlns="http://www.w3.org/2000/svg" xmlns:xlink="http://www.w3.org/1999/xlink">
<g>
<rect fill="none" height="60" width="60"/>
<linearGradient gradientUnits="userSpaceOnUse" id="SVGID_1_" x1="30" x2="30" y1="11.647" y2="52.3348">
<stop offset="0" style="stop-color:#C39072"/>
<stop offset="0.7939" style="stop-color:#88444B"/>
<stop offset="1" style="stop-color:#AF7563"/>
</linearGradient>
<path d="M58,50.776c0,0.858-0.697,1.556-1.557,1.556H3.555C2.694,52.332,2,51.635,2,50.776V13.443  c0-0.859,0.694-1.556,1.555-1.556h52.889c0.859,0,1.557,0.696,1.557,1.556V50.776z" fill="url(#SVGID_1_)"/>
<path d="M56.443,11.888H3.555C2.694,11.888,2,12.584,2,13.443v12.056l56-6.158v-5.897  C58,12.584,57.303,11.888,56.443,11.888z" fill="#FFFFFF" fill-opacity="0.1" stroke-opacity="0.1"/>
<path d="M56.443,12.666c0.428,0,0.777,0.349,0.777,0.777v37.333c0,0.428-0.35,0.778-0.777,0.778H3.555  c-0.43,0-0.778-0.351-0.778-0.778V13.443c0-0.429,0.349-0.777,0.778-0.777H56.443 M56.443,11.888H3.555  C2.694,11.888,2,12.584,2,13.443v37.333c0,0.858,0.694,1.556,1.555,1.556h52.889c0.859,0,1.557-0.697,1.557-1.556V13.443  C58,12.584,57.303,11.888,56.443,11.888L56.443,11.888z" fill="#995145"/>
<path d="M56.443,51.555H3.555C2.694,51.555,2,50.857,2,49.999v0.777c0,0.858,0.694,1.556,1.555,1.556h52.889  c0.859,0,1.557-0.697,1.557-1.556v-0.777C58,50.857,57.303,51.555,56.443,51.555z" fill="#46232D"/>
<path d="M56.443,11.888H3.555C2.694,11.888,2,12.584,2,13.443v0.778c0-0.86,0.694-1.556,1.555-1.556  h52.889c0.859,0,1.557,0.695,1.557,1.556v-0.778C58,12.584,57.303,11.888,56.443,11.888z" fill="#FFFFFF" fill-opacity="0.6" stroke-opacity="0.6"/>
<linearGradient gradientUnits="userSpaceOnUse" id="SVGID_2_" x1="45.9424" x2="45.9424" y1="32.6411" y2="20.912">
<stop offset="0" style="stop-color:#434343"/>
<stop offset="1" style="stop-color:#222021"/>
</linearGradient>
<circle cx="45.942" cy="26.611" fill="url(#SVGID_2_)" r="6.946"/>
<linearGradient gradientUnits="userSpaceOnUse" id="SVGID_3_" x1="45.9424" x2="45.9424" y1="33.9702" y2="28.6358">
<stop offset="0" style="stop-color:#D9D9D9"/>
<stop offset="1" style="stop-color:#404040"/>
</linearGradient>
<path d="M45.943,33.558c-3.754,0-6.803-2.979-6.935-6.698c-0.003,0.084-0.013,0.163-0.013,0.248  c0,3.836,3.109,6.946,6.947,6.946c3.836,0,6.945-3.11,6.945-6.946c0-0.085-0.01-0.164-0.01-0.248  C52.744,30.578,49.695,33.558,45.943,33.558z" fill="url(#SVGID_3_)"/>
<linearGradient gradientUnits="userSpaceOnUse" id="SVGID_4_" x1="45.9443" x2="45.9443" y1="35.3247" y2="17.436">
<stop offset="0" style="stop-color:#B36B4D"/>
<stop offset="1" style="stop-color:#733A43"/>
</linearGradient>
<path d="M45.943,35.609c-4.933,0-8.944-4.013-8.944-8.943c0-4.933,4.012-8.945,8.944-8.945  s8.945,4.013,8.945,8.945C54.889,31.597,50.876,35.609,45.943,35.609L45.943,35.609z M45.943,18.888  c-4.29,0-7.778,3.488-7.778,7.778c0,4.287,3.488,7.776,7.778,7.776c4.287,0,7.779-3.489,7.779-7.776  C53.723,22.376,50.23,18.888,45.943,18.888L45.943,18.888z" fill="url(#SVGID_4_)"/>
<linearGradient gradientUnits="userSpaceOnUse" id="SVGID_5_" x1="45.9434" x2="45.9434" y1="20.5371" y2="32.7461">
<stop offset="0" style="stop-color:#CBCBCB"/>
<stop offset="1" style="stop-color:#4F4F4F"/>
</linearGradient>
<circle cx="45.943" cy="26.642" fill="url(#SVGID_5_)" r="6.104"/>
<linearGradient gradientUnits="userSpaceOnUse" id="SVGID_6_" x1="45.9434" x2="45.9434" y1="20.9736" y2="32.3105">
<stop offset="0" style="stop-color:#FFFFFF"/>
<stop offset="0.2848" style="stop-color:#FFFFFF"/>
<stop offset="0.7212" style="stop-color:#7B7B7B"/>
<stop offset="1" style="stop-color:#A7A7A7"/>
</linearGradient>
<circle cx="45.943" cy="26.642" fill="url(#SVGID_6_)" r="5.67"/>
<linearGradient gradientUnits="userSpaceOnUse" id="SVGID_7_" x1="45.9434" x2="45.9434" y1="21.4746" y2="31.9404">
<stop offset="0" style="stop-color:#D9D9D9"/>
<stop offset="0.8242" style="stop-color:#636363"/>
<stop offset="1" style="stop-color:#636363"/>
</linearGradient>
<path d="M50.705,24.468c0.303,0.662,0.471,1.396,0.471,2.174c0,2.889-2.342,5.233-5.232,5.233  c-2.888,0-5.232-2.345-5.232-5.233s2.345-5.232,5.232-5.232C48.058,21.409,49.879,22.663,50.705,24.468z" fill="url(#SVGID_7_)"/>
<linearGradient gradientUnits="userSpaceOnUse" id="SVGID_8_" x1="45.9434" x2="45.9434" y1="25.4961" y2="22.9348">
<stop offset="0" style="stop-color:#636363"/>
<stop offset="1" style="stop-color:#323232"/>
</linearGradient>
<polygon fill="url(#SVGID_8_)" points="44.636,25.397 45.943,22.782 47.251,25.397 "/>
<linearGradient gradientUnits="userSpaceOnUse" id="SVGID_9_" x1="20.2773" x2="20.2773" y1="30.6846" y2="20.667">
<stop offset="0" style="stop-color:#636363"/>
<stop offset="0.6667" style="stop-color:#515151"/>
<stop offset="1" style="stop-color:#323232"/>
</linearGradient>
<rect fill="url(#SVGID_9_)" height="10.889" width="28" x="6.277" y="20.055"/>
<rect fill="#D9D9D9" height="0.777" width="28" x="6.277" y="30.943"/>
<polygon fill="#A8A9AA" points="31.945,25.499 31.945,27.832 29.609,27.832 29.609,26.276 28.832,26.276 28.832,27.832   26.498,27.832 26.498,26.276 25.723,26.276 25.723,27.832 23.387,27.832 23.387,26.276 22.61,26.276 22.61,27.832 20.277,27.832   20.277,25.499 19.499,25.499 19.499,27.832 17.166,27.832 17.166,26.276 16.388,26.276 16.388,27.832 14.056,27.832 14.056,26.276   13.276,26.276 13.276,27.832 10.944,27.832 10.944,26.276 10.165,26.276 10.165,27.832 8.609,27.832 8.609,25.499 7.833,25.499   7.833,28.609 8.609,28.609 10.165,28.609 10.944,28.609 13.276,28.609 14.056,28.609 16.388,28.609 17.166,28.609 19.499,28.609   20.277,28.609 22.61,28.609 23.387,28.609 25.723,28.609 26.498,28.609 28.832,28.609 29.609,28.609 31.945,28.609 32.721,28.609   32.721,27.832 32.721,25.499 "/>
<rect fill="#9D4349" height="10.889" width="1.556" x="20.301" y="20.055"/>
<linearGradient gradientUnits="userSpaceOnUse" id="SVGID_10_" x1="9.127" x2="9.127" y1="40.2437" y2="43.355">
<stop offset="0" style="stop-color:#88444B"/>
<stop offset="1" style="stop-color:#C39072"/>
</linearGradient>
<circle cx="9.127" cy="41.832" fill="url(#SVGID_10_)" r="1.556"/>
<linearGradient gradientUnits="userSpaceOnUse" id="SVGID_11_" x1="9.126" x2="9.126" y1="40.7729" y2="42.8472">
<stop offset="0" style="stop-color:#000000"/>
<stop offset="1" style="stop-color:#383838"/>
</linearGradient>
<circle cx="9.126" cy="41.832" fill="url(#SVGID_11_)" r="1.039"/>
<linearGradient gradientUnits="userSpaceOnUse" id="SVGID_12_" x1="13.7295" x2="13.7295" y1="40.2437" y2="43.355">
<stop offset="0" style="stop-color:#88444B"/>
<stop offset="1" style="stop-color:#C39072"/>
</linearGradient>
<path d="M15.285,41.832c0,0.858-0.693,1.556-1.556,1.556c-0.857,0-1.555-0.697-1.555-1.556  c0-0.861,0.697-1.556,1.555-1.556C14.592,40.276,15.285,40.971,15.285,41.832z" fill="url(#SVGID_12_)"/>
<linearGradient gradientUnits="userSpaceOnUse" id="SVGID_13_" x1="13.7295" x2="13.7295" y1="40.7729" y2="42.8472">
<stop offset="0" style="stop-color:#000000"/>
<stop offset="1" style="stop-color:#383838"/>
</linearGradient>
<circle cx="13.73" cy="41.832" fill="url(#SVGID_13_)" r="1.038"/>
<linearGradient gradientUnits="userSpaceOnUse" id="SVGID_14_" x1="18.3955" x2="18.3955" y1="40.2437" y2="43.355">
<stop offset="0" style="stop-color:#88444B"/>
<stop offset="1" style="stop-color:#C39072"/>
</linearGradient>
<circle cx="18.396" cy="41.832" fill="url(#SVGID_14_)" r="1.555"/>
<linearGradient gradientUnits="userSpaceOnUse" id="SVGID_15_" x1="18.3955" x2="18.3955" y1="40.7729" y2="42.8472">
<stop offset="0" style="stop-color:#000000"/>
<stop offset="1" style="stop-color:#383838"/>
</linearGradient>
<circle cx="18.396" cy="41.832" fill="url(#SVGID_15_)" r="1.038"/>
<linearGradient gradientUnits="userSpaceOnUse" id="SVGID_16_" x1="23.0615" x2="23.0615" y1="40.2437" y2="43.355">
<stop offset="0" style="stop-color:#88444B"/>
<stop offset="1" style="stop-color:#C39072"/>
</linearGradient>
<circle cx="23.062" cy="41.832" fill="url(#SVGID_16_)" r="1.556"/>
<linearGradient gradientUnits="userSpaceOnUse" id="SVGID_17_" x1="23.0635" x2="23.0635" y1="40.7729" y2="42.8472">
<stop offset="0" style="stop-color:#000000"/>
<stop offset="1" style="stop-color:#383838"/>
</linearGradient>
<circle cx="23.063" cy="41.832" fill="url(#SVGID_17_)" r="1.038"/>
<linearGradient gradientUnits="userSpaceOnUse" id="SVGID_18_" x1="27.7295" x2="27.7295" y1="40.2437" y2="43.355">
<stop offset="0" style="stop-color:#88444B"/>
<stop offset="1" style="stop-color:#C39072"/>
</linearGradient>
<circle cx="27.729" cy="41.832" fill="url(#SVGID_18_)" r="1.556"/>
<linearGradient gradientUnits="userSpaceOnUse" id="SVGID_19_" x1="27.7295" x2="27.7295" y1="40.7729" y2="42.8472">
<stop offset="0" style="stop-color:#000000"/>
<stop offset="1" style="stop-color:#383838"/>
</linearGradient>
<circle cx="27.729" cy="41.832" fill="url(#SVGID_19_)" r="1.037"/>
<linearGradient gradientUnits="userSpaceOnUse" id="SVGID_20_" x1="32.3965" x2="32.3965" y1="40.2437" y2="43.355">
<stop offset="0" style="stop-color:#88444B"/>
<stop offset="1" style="stop-color:#C39072"/>
</linearGradient>
<circle cx="32.396" cy="41.832" fill="url(#SVGID_20_)" r="1.556"/>
<linearGradient gradientUnits="userSpaceOnUse" id="SVGID_21_" x1="32.3965" x2="32.3965" y1="40.7729" y2="42.8472">
<stop offset="0" style="stop-color:#000000"/>
<stop offset="1" style="stop-color:#383838"/>
</linearGradient>
<circle cx="32.396" cy="41.832" fill="url(#SVGID_21_)" r="1.037"/>
<linearGradient gradientUnits="userSpaceOnUse" id="SVGID_22_" x1="9.127" x2="9.127" y1="44.9106" y2="48.022">
<stop offset="0" style="stop-color:#88444B"/>
<stop offset="1" style="stop-color:#C39072"/>
</linearGradient>
<circle cx="9.127" cy="46.499" fill="url(#SVGID_22_)" r="1.556"/>
<linearGradient gradientUnits="userSpaceOnUse" id="SVGID_23_" x1="9.126" x2="9.126" y1="45.4399" y2="47.5142">
<stop offset="0" style="stop-color:#000000"/>
<stop offset="1" style="stop-color:#383838"/>
</linearGradient>
<circle cx="9.126" cy="46.499" fill="url(#SVGID_23_)" r="1.039"/>
<linearGradient gradientUnits="userSpaceOnUse" id="SVGID_24_" x1="13.7295" x2="13.7295" y1="44.9106" y2="48.022">
<stop offset="0" style="stop-color:#88444B"/>
<stop offset="1" style="stop-color:#C39072"/>
</linearGradient>
<path d="M15.285,46.499c0,0.858-0.693,1.556-1.556,1.556c-0.857,0-1.555-0.697-1.555-1.556  c0-0.861,0.697-1.556,1.555-1.556C14.592,44.943,15.285,45.638,15.285,46.499z" fill="url(#SVGID_24_)"/>
<linearGradient gradientUnits="userSpaceOnUse" id="SVGID_25_" x1="13.7295" x2="13.7295" y1="45.4399" y2="47.5142">
<stop offset="0" style="stop-color:#000000"/>
<stop offset="1" style="stop-color:#383838"/>
</linearGradient>
<circle cx="13.73" cy="46.499" fill="url(#SVGID_25_)" r="1.038"/>
<linearGradient gradientUnits="userSpaceOnUse" id="SVGID_26_" x1="18.3955" x2="18.3955" y1="44.9106" y2="48.022">
<stop offset="0" style="stop-color:#88444B"/>
<stop offset="1" style="stop-color:#C39072"/>
</linearGradient>
<circle cx="18.396" cy="46.499" fill="url(#SVGID_26_)" r="1.555"/>
<linearGradient gradientUnits="userSpaceOnUse" id="SVGID_27_" x1="18.3955" x2="18.3955" y1="45.4399" y2="47.5142">
<stop offset="0" style="stop-color:#000000"/>
<stop offset="1" style="stop-color:#383838"/>
</linearGradient>
<circle cx="18.396" cy="46.499" fill="url(#SVGID_27_)" r="1.038"/>
<linearGradient gradientUnits="userSpaceOnUse" id="SVGID_28_" x1="23.0615" x2="23.0615" y1="44.9106" y2="48.022">
<stop offset="0" style="stop-color:#88444B"/>
<stop offset="1" style="stop-color:#C39072"/>
</linearGradient>
<circle cx="23.062" cy="46.499" fill="url(#SVGID_28_)" r="1.556"/>
<linearGradient gradientUnits="userSpaceOnUse" id="SVGID_29_" x1="23.0635" x2="23.0635" y1="45.4399" y2="47.5142">
<stop offset="0" style="stop-color:#000000"/>
<stop offset="1" style="stop-color:#383838"/>
</linearGradient>
<circle cx="23.063" cy="46.499" fill="url(#SVGID_29_)" r="1.038"/>
<linearGradient gradientUnits="userSpaceOnUse" id="SVGID_30_" x1="27.7295" x2="27.7295" y1="44.9106" y2="48.022">
<stop offset="0" style="stop-color:#88444B"/>
<stop offset="1" style="stop-color:#C39072"/>
</linearGradient>
<circle cx="27.729" cy="46.499" fill="url(#SVGID_30_)" r="1.556"/>
<linearGradient gradientUnits="userSpaceOnUse" id="SVGID_31_" x1="27.7295" x2="27.7295" y1="45.4399" y2="47.5142">
<stop offset="0" style="stop-color:#000000"/>
<stop offset="1" style="stop-color:#383838"/>
</linearGradient>
<circle cx="27.729" cy="46.499" fill="url(#SVGID_31_)" r="1.037"/>
<linearGradient gradientUnits="userSpaceOnUse" id="SVGID_32_" x1="32.3965" x2="32.3965" y1="44.9106" y2="48.022">
<stop offset="0" style="stop-color:#88444B"/>
<stop offset="1" style="stop-color:#C39072"/>
</linearGradient>
<circle cx="32.396" cy="46.499" fill="url(#SVGID_32_)" r="1.556"/>
<linearGradient gradientUnits="userSpaceOnUse" id="SVGID_33_" x1="32.3965" x2="32.3965" y1="45.4399" y2="47.5142">
<stop offset="0" style="stop-color:#000000"/>
<stop offset="1" style="stop-color:#383838"/>
</linearGradient>
<circle cx="32.396" cy="46.499" fill="url(#SVGID_33_)" r="1.037"/>
<linearGradient gradientUnits="userSpaceOnUse" id="SVGID_34_" x1="36.999" x2="36.999" y1="40.2437" y2="43.355">
<stop offset="0" style="stop-color:#88444B"/>
<stop offset="1" style="stop-color:#C39072"/>
</linearGradient>
<circle cx="36.999" cy="41.832" fill="url(#SVGID_34_)" r="1.556"/>
<linearGradient gradientUnits="userSpaceOnUse" id="SVGID_35_" x1="36.999" x2="36.999" y1="40.7729" y2="42.8472">
<stop offset="0" style="stop-color:#000000"/>
<stop offset="1" style="stop-color:#383838"/>
</linearGradient>
<circle cx="36.999" cy="41.832" fill="url(#SVGID_35_)" r="1.037"/>
<linearGradient gradientUnits="userSpaceOnUse" id="SVGID_36_" x1="41.666" x2="41.666" y1="40.2437" y2="43.355">
<stop offset="0" style="stop-color:#88444B"/>
<stop offset="1" style="stop-color:#C39072"/>
</linearGradient>
<circle cx="41.666" cy="41.832" fill="url(#SVGID_36_)" r="1.556"/>
<linearGradient gradientUnits="userSpaceOnUse" id="SVGID_37_" x1="41.666" x2="41.666" y1="40.7729" y2="42.8472">
<stop offset="0" style="stop-color:#000000"/>
<stop offset="1" style="stop-color:#383838"/>
</linearGradient>
<circle cx="41.666" cy="41.832" fill="url(#SVGID_37_)" r="1.037"/>
<linearGradient gradientUnits="userSpaceOnUse" id="SVGID_38_" x1="46.333" x2="46.333" y1="40.2437" y2="43.355">
<stop offset="0" style="stop-color:#88444B"/>
<stop offset="1" style="stop-color:#C39072"/>
</linearGradient>
<circle cx="46.333" cy="41.832" fill="url(#SVGID_38_)" r="1.556"/>
<linearGradient gradientUnits="userSpaceOnUse" id="SVGID_39_" x1="46.333" x2="46.333" y1="40.7729" y2="42.8472">
<stop offset="0" style="stop-color:#000000"/>
<stop offset="1" style="stop-color:#383838"/>
</linearGradient>
<circle cx="46.333" cy="41.832" fill="url(#SVGID_39_)" r="1.037"/>
<linearGradient gradientUnits="userSpaceOnUse" id="SVGID_40_" x1="50.999" x2="50.999" y1="40.2437" y2="43.355">
<stop offset="0" style="stop-color:#88444B"/>
<stop offset="1" style="stop-color:#C39072"/>
</linearGradient>
<path d="M52.553,41.832c0,0.858-0.691,1.556-1.553,1.556c-0.858,0-1.556-0.697-1.556-1.556  c0-0.861,0.697-1.556,1.556-1.556C51.861,40.276,52.553,40.971,52.553,41.832z" fill="url(#SVGID_40_)"/>
<linearGradient gradientUnits="userSpaceOnUse" id="SVGID_41_" x1="50.999" x2="50.999" y1="40.7729" y2="42.8472">
<stop offset="0" style="stop-color:#000000"/>
<stop offset="1" style="stop-color:#383838"/>
</linearGradient>
<path d="M52.037,41.832c0,0.573-0.467,1.037-1.037,1.037c-0.573,0-1.039-0.464-1.039-1.037  s0.466-1.037,1.039-1.037C51.57,40.795,52.037,41.259,52.037,41.832z" fill="url(#SVGID_41_)"/>
<linearGradient gradientUnits="userSpaceOnUse" id="SVGID_42_" x1="36.999" x2="36.999" y1="44.9106" y2="48.022">
<stop offset="0" style="stop-color:#88444B"/>
<stop offset="1" style="stop-color:#C39072"/>
</linearGradient>
<circle cx="36.999" cy="46.499" fill="url(#SVGID_42_)" r="1.556"/>
<linearGradient gradientUnits="userSpaceOnUse" id="SVGID_43_" x1="36.999" x2="36.999" y1="45.4399" y2="47.5142">
<stop offset="0" style="stop-color:#000000"/>
<stop offset="1" style="stop-color:#383838"/>
</linearGradient>
<circle cx="36.999" cy="46.499" fill="url(#SVGID_43_)" r="1.037"/>
<linearGradient gradientUnits="userSpaceOnUse" id="SVGID_44_" x1="41.666" x2="41.666" y1="44.9106" y2="48.022">
<stop offset="0" style="stop-color:#88444B"/>
<stop offset="1" style="stop-color:#C39072"/>
</linearGradient>
<circle cx="41.666" cy="46.499" fill="url(#SVGID_44_)" r="1.556"/>
<linearGradient gradientUnits="userSpaceOnUse" id="SVGID_45_" x1="41.666" x2="41.666" y1="45.4399" y2="47.5142">
<stop offset="0" style="stop-color:#000000"/>
<stop offset="1" style="stop-color:#383838"/>
</linearGradient>
<circle cx="41.666" cy="46.499" fill="url(#SVGID_45_)" r="1.037"/>
<linearGradient gradientUnits="userSpaceOnUse" id="SVGID_46_" x1="46.333" x2="46.333" y1="44.9106" y2="48.022">
<stop offset="0" style="stop-color:#88444B"/>
<stop offset="1" style="stop-color:#C39072"/>
</linearGradient>
<circle cx="46.333" cy="46.499" fill="url(#SVGID_46_)" r="1.556"/>
<linearGradient gradientUnits="userSpaceOnUse" id="SVGID_47_" x1="46.333" x2="46.333" y1="45.4399" y2="47.5142">
<stop offset="0" style="stop-color:#000000"/>
<stop offset="1" style="stop-color:#383838"/>
</linearGradient>
<circle cx="46.333" cy="46.499" fill="url(#SVGID_47_)" r="1.037"/>
<linearGradient gradientUnits="userSpaceOnUse" id="SVGID_48_" x1="50.999" x2="50.999" y1="44.9106" y2="48.022">
<stop offset="0" style="stop-color:#88444B"/>
<stop offset="1" style="stop-color:#C39072"/>
</linearGradient>
<path d="M52.553,46.499c0,0.858-0.691,1.556-1.553,1.556c-0.858,0-1.556-0.697-1.556-1.556  c0-0.861,0.697-1.556,1.556-1.556C51.861,44.943,52.553,45.638,52.553,46.499z" fill="url(#SVGID_48_)"/>
<linearGradient gradientUnits="userSpaceOnUse" id="SVGID_49_" x1="50.999" x2="50.999" y1="45.4399" y2="47.5142">
<stop offset="0" style="stop-color:#000000"/>
<stop offset="1" style="stop-color:#383838"/>
</linearGradient>
<path d="M52.037,46.499c0,0.573-0.467,1.037-1.037,1.037c-0.573,0-1.039-0.464-1.039-1.037  s0.466-1.037,1.039-1.037C51.57,45.462,52.037,45.926,52.037,46.499z" fill="url(#SVGID_49_)"/>
<linearGradient gradientUnits="userSpaceOnUse" id="SVGID_50_" x1="49.833" x2="49.833" y1="11.5854" y2="6.285">
<stop offset="0" style="stop-color:#CBCBCB"/>
<stop offset="0.1576" style="stop-color:#808080"/>
<stop offset="0.6545" style="stop-color:#E5E5E5"/>
<stop offset="1" style="stop-color:#4F4F4F"/>
</linearGradient>
<rect fill="url(#SVGID_50_)" height="5.443" width="6.999" x="46.333" y="6.444"/>
<linearGradient gradientUnits="userSpaceOnUse" id="SVGID_51_" x1="37.3877" x2="37.3877" y1="10.1592" y2="7.1295">
<stop offset="0" style="stop-color:#CBCBCB"/>
<stop offset="0.1576" style="stop-color:#808080"/>
<stop offset="0.6545" style="stop-color:#E5E5E5"/>
<stop offset="1" style="stop-color:#4F4F4F"/>
</linearGradient>
<rect fill="url(#SVGID_51_)" height="3.111" width="17.89" x="28.443" y="7.221"/>
<linearGradient gradientUnits="userSpaceOnUse" id="SVGID_52_" x1="19.1104" x2="19.1104" y1="9.4683" y2="7.9534">
<stop offset="0" style="stop-color:#CBCBCB"/>
<stop offset="0.1576" style="stop-color:#808080"/>
<stop offset="0.6545" style="stop-color:#E5E5E5"/>
<stop offset="1" style="stop-color:#4F4F4F"/>
</linearGradient>
<rect fill="url(#SVGID_52_)" height="1.556" width="18.666" x="9.777" y="7.999"/>
<linearGradient gradientUnits="userSpaceOnUse" id="SVGID_53_" x1="8.6104" x2="8.6104" y1="10.1592" y2="7.1295">
<stop offset="0" style="stop-color:#CBCBCB"/>
<stop offset="0.1576" style="stop-color:#808080"/>
<stop offset="0.6545" style="stop-color:#E5E5E5"/>
<stop offset="1" style="stop-color:#4F4F4F"/>
</linearGradient>
<rect fill="url(#SVGID_53_)" height="3.111" width="2.334" x="7.443" y="7.221"/>
<path d="M49.832,11.498c-1.285,0-2.333-1.047-2.333-2.332c0-1.288,1.048-2.334,2.333-2.334s2.334,1.046,2.334,2.334  C52.166,10.451,51.117,11.498,49.832,11.498L49.832,11.498z" fill-opacity="0.2" stroke-opacity="0.2"/>
<circle cx="49.833" cy="9.166" fill-opacity="0.2" r="1.944" stroke-opacity="0.2"/>
<linearGradient gradientUnits="userSpaceOnUse" id="SVGID_54_" x1="49.8311" x2="49.8311" y1="8.0317" y2="10.2999">
<stop offset="0" style="stop-color:#E5E5E5"/>
<stop offset="0.7576" style="stop-color:#A7A7A7"/>
<stop offset="1" style="stop-color:#CBCBCB"/>
</linearGradient>
<circle cx="49.831" cy="9.166" fill="url(#SVGID_54_)" r="1.556"/>
<linearGradient gradientUnits="userSpaceOnUse" id="SVGID_55_" x1="49.8311" x2="49.8311" y1="7.6592" y2="10.6737">
<stop offset="0" style="stop-color:#FFFFFF"/>
<stop offset="0.2848" style="stop-color:#FFFFFF"/>
<stop offset="0.7212" style="stop-color:#7B7B7B"/>
<stop offset="1" style="stop-color:#A7A7A7"/>
</linearGradient>
<path d="M49.832,7.999C50.475,7.999,51,8.521,51,9.166c0,0.643-0.525,1.166-1.168,1.166  s-1.166-0.523-1.166-1.166C48.666,8.521,49.189,7.999,49.832,7.999 M49.832,7.61c-0.859,0-1.557,0.694-1.557,1.556  c0,0.858,0.697,1.556,1.557,1.556c0.857,0,1.555-0.697,1.555-1.556C51.387,8.305,50.689,7.61,49.832,7.61L49.832,7.61z" fill="url(#SVGID_55_)"/>
<rect fill="none" height="60" width="60"/>
</g>
<g transform="matrix(1 0 0 1 30 30)">
<rect fill="none" height="30" width="30"/>
<path d="M15,29.5C7.004,29.5,0.5,22.996,0.5,15C0.5,7.004,7.004,0.5,15,0.5  c7.995,0,14.5,6.505,14.5,14.5S22.995,29.5,15,29.5L15,29.5z" fill-opacity="0.35" stroke-opacity="0.35"/>
<radialGradient cx="435.2295" cy="910.6348" gradientTransform="matrix(0.618 0 0 0.618 -253.9715 -552.4329)" gradientUnits="userSpaceOnUse" id="SVGID_1__" r="28.704">
<stop offset="0" style="stop-color:#B4DFC6"/>
<stop offset="0.5" style="stop-color:#72B9C3"/>
<stop offset="1" style="stop-color:#546F9F"/>
</radialGradient>
<circle cx="15" cy="15" fill="url(#SVGID_1__)" r="13.464"/>
<path d="M27.983,14.263c-0.299-5.259-3.704-9.788-8.679-11.54l-0.605,0.1L15.18,2.15  l-4.386,2.615l-0.165,1.102H8.083l1.006,1.71L6.365,9.8l-0.635,2.744l2.25,3.987l2.297-0.469l0.839,0.723l0.655,0.064l0.433,1.691  l-0.571,1.484l2.084,5.332h2.126l2.107-1.701v-0.695l0.557-0.863l0.459-0.236c-0.116,0.18-0.3,0.586-0.3,0.586  c-0.02,0.139,0.299,2.855,1.234,2.643c0.711-0.16,3.248-4.873,3.296-5.322c0.096-0.887-0.387-1.252-0.683-1.391l-0.329-0.156  l-1.515,1.52c-0.162,0.012-0.309,0.039-0.44,0.078v-1.26l1.645-1.605l0.837-2.698l1.275-1.038l-0.28-0.508l0.962-0.926l-0.538-0.979  l0.41,0.049l2.396,5.362l0.49-0.39c-0.015-0.262-0.043-0.521-0.073-0.779L27.983,14.263z M15.161,8.231l-0.2-0.535h1.202  l0.586,1.316h-0.871V8.23L15.161,8.231L15.161,8.231z M19.129,10.882l0.961,1.402l0.064,0.168l-0.984-0.595l-0.234-0.848  L19.129,10.882z M20.573,13.331l0.29,0.29l-0.375,0.084l-0.085-0.104L20.573,13.331z M13.06,3.903l0.611,0.946l-0.694,0.212  l-0.271-0.154L13.06,3.903z" fill-opacity="0.3" stroke-opacity="0.3"/>
<linearGradient gradientTransform="matrix(1.7647 0 0 1.7647 -572.9794 -733.5799)" gradientUnits="userSpaceOnUse" id="SVGID_2__" x1="333.1904" x2="333.1904" y1="416.6045" y2="431.9054">
<stop offset="0" style="stop-color:#6DACBC"/>
<stop offset="0.497" style="stop-color:#5778A3"/>
<stop offset="1" style="stop-color:#D3E0D8"/>
</linearGradient>
<path d="M15,1.536C7.564,1.536,1.536,7.565,1.536,15  c0,7.439,6.029,13.464,13.464,13.464c7.438,0,13.465-6.027,13.465-13.464C28.465,7.565,22.438,1.536,15,1.536z M15,27.428  C8.146,27.428,2.571,21.854,2.571,15C2.571,8.147,8.146,2.571,15,2.571S27.428,8.147,27.428,15  C27.428,21.854,21.854,27.428,15,27.428z" fill="url(#SVGID_2__)" fill-opacity="0.3" stroke-opacity="0.3"/>
<radialGradient cx="333.6309" cy="418.627" gradientTransform="matrix(1.7647 0 0 1.7647 -572.9794 -733.5799)" gradientUnits="userSpaceOnUse" id="SVGID_3__" r="9.0429">
<stop offset="0" style="stop-color:#96BE67"/>
<stop offset="0.3152" style="stop-color:#96BE67"/>
<stop offset="0.7273" style="stop-color:#468D53"/>
<stop offset="1" style="stop-color:#387463"/>
</radialGradient>
<path d="M22.296,18.848l-1.401,1.402c0,0-0.848,0-0.887,0.336c-0.02,0.145-0.065,0.771-0.208,1.094  c-0.282,0.195-0.619,0.842-0.619,0.842s-0.175,1.25,0.761,1.037C20.871,23.35,23.734,19.523,22.296,18.848z" fill="url(#SVGID_3__)"/>
<radialGradient cx="333.6299" cy="418.6211" gradientTransform="matrix(1.7647 0 0 1.7647 -572.9794 -733.5799)" gradientUnits="userSpaceOnUse" id="SVGID_4__" r="10.4663">
<stop offset="0" style="stop-color:#96BE67"/>
<stop offset="0.3152" style="stop-color:#96BE67"/>
<stop offset="0.7273" style="stop-color:#468D53"/>
<stop offset="1" style="stop-color:#387463"/>
</radialGradient>
<path d="M19.132,3.213c-0.23,0.087-0.387,0.146-0.387,0.146l-3.463-0.663L13.583,3.76l0.894,1.383  l-1.563,0.48l-0.842-0.48l0.296-0.84l-1.098,0.76l-0.196,1.324H8.988L9.759,7.7l-2.932,2.39l-0.552,2.387l1.088,2.107L8.018,15  l2.297-0.469l0.839,0.721l0.763,0.074l0.83,3.246l-0.552,1.436l1.22,2.697l0.343,1.119h2.126l1.202-0.65l0.905-1.053V20.85  l1.724-0.881v-1.885l0.681-1.297l1.521-1.366l0.363-1.585l-1.988,0.443l-0.522-0.637l0.371-0.594l-1.411-0.854l-0.601-2.164  l1.042-0.68l0.96,1.402l0.359,0.922l0.722,0.721l0.842,0.44l0.936-0.151l1.039-1l-0.731-1.334l-0.921,0.24l-0.833-0.991l0.791-0.552  l2.482,0.301v0.883l2.161,4.452l0.491-0.393C27.176,9.158,23.783,4.849,19.132,3.213z M18.004,9.23l-1.134,0.3h-1.511V8.749h-1.443  L12.774,9.05l-1.741-0.482l-0.482-0.901l2.404-0.541h2.406L15,6.164h1.202l0.67,1.503l1.134,0.398V9.23H18.004z M20.589,7.247  l-2.044-0.361V6.165l1.022-0.24l0.3-0.36l0.722,0.6V7.247L20.589,7.247z" fill="url(#SVGID_4__)"/>
</g>
</svg>
