<?xml version="1.0" encoding="UTF-8"?>
<!DOCTYPE svg PUBLIC "-//W3C//DTD SVG 1.1 Tiny//EN" "http://www.w3.org/Graphics/SVG/1.1/DTD/svg11-tiny.dtd">
<svg baseProfile="tiny" height="30px" version="1.1" viewBox="0 0 30 30" width="30px" x="0px" xmlns="http://www.w3.org/2000/svg" xmlns:xlink="http://www.w3.org/1999/xlink" y="0px">
<g fill-opacity="0.5" stroke-opacity="0.5">
<rect fill="none" height="30" width="30"/>
</g>
<polygon points="17.277,26.467 19.396,28.59 13.74,30 15.156,24.346 "/>
<polygon points="16.217,23.285 20.451,27.523 30,17.975 25.756,13.732 16.209,23.279 "/>
<path d="M13.216,23.859c0.151-0.603,1.387-1.802,1.579-1.994l9.547-9.547c0.194-0.194,0.419-0.34,0.658-0.438V3c0-1.104-0.896-2-2-2  H5C3.896,1,3,1.896,3,3v24c0,1.104,0.896,2,2,2h6.929L13.216,23.859z M10,6h11v2H10V6z M9,8H7V6h2V8z"/>
<path d="M21.865,28.938c-0.023,0.023-0.052,0.04-0.076,0.063H23c1.104,0,2-0.896,2-2v-1.197L21.865,28.938z"/>
</svg>
