<?xml version="1.0" encoding="UTF-8"?>
<!DOCTYPE svg PUBLIC "-//W3C//DTD SVG 1.1 Tiny//EN" "http://www.w3.org/Graphics/SVG/1.1/DTD/svg11-tiny.dtd">
<svg baseProfile="tiny" height="60" viewBox="0 0 60 60" width="60" xmlns="http://www.w3.org/2000/svg" xmlns:xlink="http://www.w3.org/1999/xlink">
<g>
<rect fill="none" height="60" width="60"/>
<path d="M46.69,42.35c-1.665-0.866-9.918-3.756-10.07-3.936l-0.002,0.002c-0.934-1.068-0.896-3.433-0.43-4.46,0.001-0.001,0.002-0.001,0.002-0.002,0.032-0.071,0.065-0.139,0.104-0.197,0.113-0.177,0.219-0.354,0.326-0.533,0.813-1.329,1.494-2.651,2.054-3.892,1.009,0.349,2.307-0.59,2.95-2.18,0.667-1.645,0.379-3.354-0.645-3.815-0.058-0.026-0.119-0.03-0.178-0.048v-0.002c0.133-0.521,0.191-0.826,0.191-0.826,1.77-7.934-2.078-14.22-11.4-14.53-3.832,0-5.617,0.578-7.039,2.398-2.313,0.357-6.039,3.642-3.453,12.93-0.098,0.016-0.195,0.031-0.289,0.071-1.032,0.436-1.355,2.128-0.724,3.782,0.633,1.653,1.983,2.643,3.017,2.208,0.063-0.027,0.117-0.072,0.176-0.11,0.568,1.279,1.266,2.646,2.104,4.02h-0.01c0.022,0.037,0.046,0.073,0.067,0.11,0.023,0.038,0.045,0.076,0.068,0.114,0.002,0.003,0.005,0.005,0.007,0.008,0.061,0.101,0.12,0.201,0.185,0.301,0.532,0.833,0.663,3.229-0.166,4.457-0.208,0.283-8.346,3.135-10.23,4.136-2.161,1.147-5.688,3.782-5.688,9.723h44.76c-0.01-5.95-4.04-8.86-5.7-9.73z" fill="url(#SVGID_1)"/>
<path d="M7.659,51.07c-0.022,0.323-0.037,0.655-0.037,1h44.76c0-0.345-0.017-0.676-0.042-1h-44.68z" fill="#FFFFFF" fill-opacity="0.15"/>
<path d="M22.55,11.33c1.422-1.82,3.207-2.398,7.039-2.398,7.565,0.252,11.52,4.44,11.8,10.25,0.15-6.32-3.81-10.99-11.8-11.25-3.832,0-5.617,0.578-7.039,2.398-1.81,0.279-4.472,2.367-4.311,7.704,0.18-4.6,2.62-6.44,4.31-6.7z" fill="#FFFFFF" fill-opacity="0.5"/>
<path d="M36.62,38.42c-0.441-0.505-0.66-1.3-0.725-2.106-0.086,1.09,0.098,2.389,0.725,3.106l0.002-0.002c0.154,0.18,8.407,3.069,10.07,3.936,1.566,0.816,5.225,3.453,5.645,8.723h0.042c0-5.94-4.024-8.856-5.687-9.723-1.665-0.866-9.918-3.756-10.07-3.936z" fill="#FFFFFF" fill-opacity="0.5"/>
<path d="M13.31,43.35c1.885-1.001,10.02-3.853,10.23-4.136,0.508-0.752,0.652-1.938,0.568-2.938-0.053,0.717-0.225,1.429-0.568,1.938-0.208,0.283-8.346,3.135-10.23,4.136-2.161,1.147-5.688,3.782-5.688,9.723h0.037c0.37-5.24,3.621-7.64,5.651-8.72z" fill="#FFFFFF" fill-opacity="0.5"/>
<defs>
<linearGradient gradientUnits="userSpaceOnUse" id="SVGID_1" x1="30" x2="30" y1="8.6" y2="52.35">
<stop offset="0" stop-color="#8E8E8E"/>
<stop offset="1" stop-color="#444444"/>
</linearGradient>
</defs>
</g>
<g transform="matrix(1 0 0 1 30 30)">
<linearGradient gradientUnits="userSpaceOnUse" id="SVGID_1_" x1="15" x2="15" y1="4.4043" y2="25.2544">
<stop offset="0" style="stop-color:#E3E3E3"/>
<stop offset="1" style="stop-color:#9B9B9B"/>
</linearGradient>
<path d="M2.436,25.41C1.644,25.41,1,24.767,1,23.974V6.025C1,5.233,1.644,4.59,2.436,4.59h25.129  C28.356,4.59,29,5.233,29,6.025v17.949c0,0.793-0.645,1.436-1.436,1.436H2.436z" fill="url(#SVGID_1_)"/>
<linearGradient gradientUnits="userSpaceOnUse" id="SVGID_2_" x1="15" x2="15" y1="4.77" y2="24.9003">
<stop offset="0" style="stop-color:#F5F5F5"/>
<stop offset="0.7818" style="stop-color:#CCCCCC"/>
<stop offset="1" style="stop-color:#D1D1D1"/>
</linearGradient>
<path d="M28.641,23.974c0,0.594-0.482,1.076-1.076,1.076H2.436c-0.594,0-1.077-0.482-1.077-1.076V6.025  c0-0.594,0.483-1.076,1.077-1.076h25.129c0.594,0,1.076,0.482,1.076,1.076V23.974z" fill="url(#SVGID_2_)"/>
<linearGradient gradientUnits="userSpaceOnUse" id="SVGID_3_" x1="14.9995" x2="14.9995" y1="5.27" y2="24.6558">
<stop offset="0" style="stop-color:#FFFFFF"/>
<stop offset="1" style="stop-color:#DEDEDE"/>
</linearGradient>
<path d="M27.565,5.667c0.197,0,0.358,0.161,0.358,0.358v17.949c0,0.197-0.161,0.359-0.358,0.359H2.436  c-0.198,0-0.359-0.162-0.359-0.359V6.025c0-0.197,0.161-0.358,0.359-0.358H27.565 M27.565,5.308H2.436  c-0.396,0-0.718,0.321-0.718,0.718v17.949c0,0.396,0.322,0.719,0.718,0.719h25.129c0.395,0,0.717-0.322,0.717-0.719V6.025  C28.282,5.629,27.959,5.308,27.565,5.308L27.565,5.308z" fill="url(#SVGID_3_)"/>
<rect fill="#020202" fill-opacity="0.2" height="11.847" stroke-opacity="0.2" width="10.769" x="3.872" y="9.52"/>
<rect fill="#FFFFFF" height="11.845" width="10.769" x="3.872" y="8.803"/>
<linearGradient gradientUnits="userSpaceOnUse" id="SVGID_4_" x1="9.2568" x2="9.2568" y1="20.3306" y2="9.2026">
<stop offset="0" style="stop-color:#75B1BE"/>
<stop offset="1" style="stop-color:#A6C8C1"/>
</linearGradient>
<rect fill="url(#SVGID_4_)" height="11.128" width="10.052" x="4.231" y="9.16"/>
<linearGradient gradientUnits="userSpaceOnUse" id="SVGID_5_" x1="4.9492" x2="12.8466" y1="14.8813" y2="14.8813">
<stop offset="0" style="stop-color:#425A81"/>
<stop offset="1" style="stop-color:#242954"/>
</linearGradient>
<path d="M12.469,17.257c-0.234-0.121-1.141-0.449-1.627-0.633l-0.021-0.008h0  c-0.005-0.002-0.009-0.004-0.014-0.006l-0.275-0.109c-0.194-0.221-0.172-0.729-0.064-0.898c0.022-0.033,0.042-0.066,0.063-0.102  h-0.004c0.157-0.256,0.291-0.51,0.398-0.75c0.194,0.068,0.444-0.113,0.568-0.418c0.129-0.318,0.073-0.646-0.125-0.736  c-0.011-0.004-0.022-0.005-0.034-0.008c0-0.002,0-0.002,0-0.002c0.025-0.1,0.037-0.158,0.037-0.158  c0.341-1.527-0.4-2.738-2.195-2.798c-0.737,0-1.091,0.336-1.365,0.687c-0.446,0.068-1.151,0.477-0.653,2.264  c-0.019,0.003-0.038,0.006-0.056,0.014c-0.2,0.084-0.262,0.41-0.14,0.728c0.122,0.318,0.382,0.51,0.581,0.426  c0.011-0.006,0.022-0.016,0.033-0.021c0.109,0.246,0.245,0.508,0.406,0.773H7.982c0.007,0.012,0.015,0.025,0.022,0.037  c0.001,0.002,0.002,0.004,0.004,0.006l0,0.002c0.013,0.018,0.024,0.037,0.036,0.057c0.104,0.162,0.125,0.629-0.041,0.861  l-0.286,0.125c-0.48,0.188-1.407,0.525-1.675,0.668c-0.417,0.223-1.095,0.729-1.095,1.873h8.615  C13.564,17.986,12.789,17.425,12.469,17.257z M11.31,13.584c-0.011-0.003-0.021-0.006-0.031-0.006  c-0.015-0.003-0.027-0.006-0.042-0.009c-0.002-0.001-0.003-0.001-0.005-0.001C11.256,13.573,11.283,13.578,11.31,13.584z   M7.161,13.581c0.003-0.003,0.009-0.008,0.012-0.011c0,0.002,0.001,0.004,0.002,0.008C7.17,13.578,7.166,13.58,7.161,13.581z" fill="url(#SVGID_5_)"/>
<rect fill="#020202" fill-opacity="0.5" height="1" stroke-opacity="0.5" width="9.333" x="16.795" y="17.265"/>
<rect fill="#020202" fill-opacity="0.5" height="1" stroke-opacity="0.5" width="9.333" x="16.795" y="12.266"/>
<rect fill="#020202" fill-opacity="0.2" height="0.541" stroke-opacity="0.2" width="9.333" x="16.795" y="11.725"/>
<rect fill="#020202" fill-opacity="0.2" height="0.541" stroke-opacity="0.2" width="9.333" x="16.795" y="16.724"/>
<rect fill="none" height="30" width="30"/>
</g>
</svg>
