<?xml version="1.0" encoding="UTF-8"?>
<!DOCTYPE svg PUBLIC "-//W3C//DTD SVG 1.1 Tiny//EN" "http://www.w3.org/Graphics/SVG/1.1/DTD/svg11-tiny.dtd">
<svg baseProfile="tiny" height="30" viewBox="0 0 30 30" width="30" xmlns="http://www.w3.org/2000/svg" xmlns:xlink="http://www.w3.org/1999/xlink">
<g>
<g>
<rect fill="none" height="30" width="30"/>
</g>
<circle cx="15" cy="15" fill-opacity="0.6" r="14" stroke-opacity="0.6"/>
<radialGradient cx="15" cy="3.7026" gradientUnits="userSpaceOnUse" id="SVGID_1_" r="23.0618">
<stop offset="0" style="stop-color:#DDD7B2"/>
<stop offset="0.7818" style="stop-color:#B3964D"/>
<stop offset="1" style="stop-color:#B39C4D"/>
</radialGradient>
<path d="M15,28C7.832,28,2,22.168,2,15C2,7.832,7.832,2,15,2s13,5.832,13,13C28,22.168,22.168,28,15,28L15,28  z" fill="url(#SVGID_1_)"/>
<path d="M15,3c6.999,0,12.709,5.564,12.975,12.5C27.981,15.333,28,15.169,28,15  c0-7.168-5.832-13-13-13S2,7.832,2,15c0,0.169,0.019,0.333,0.025,0.5C2.291,8.564,8.001,3,15,3z" fill="#FFFFFF" fill-opacity="0.3" stroke-opacity="0.3"/>
<path d="M20.797,24.961c-0.095,0.545-0.393,0.946-0.664,0.898l-10.835-1.9  c-0.272-0.048-0.415-0.527-0.319-1.072l0,0c0.096-0.544,0.393-0.945,0.664-0.898l10.836,1.901  C20.75,23.938,20.893,24.416,20.797,24.961L20.797,24.961z" fill="#FFFFFF" fill-opacity="0.4" stroke-opacity="0.4"/>
<path d="M20.971,23.977c-0.096,0.544-0.394,0.945-0.666,0.898L9.471,22.974c-0.272-0.048-0.416-0.526-0.32-1.071l0,0  c0.096-0.545,0.394-0.946,0.666-0.898l10.834,1.9C20.923,22.952,21.066,23.432,20.971,23.977L20.971,23.977z" fill-opacity="0.4" stroke-opacity="0.4"/>
<path d="M20.884,24.469c-0.048,0.271-0.307,0.453-0.579,0.406L9.471,22.974c-0.272-0.048-0.454-0.307-0.406-0.579  l0,0c0.048-0.271,0.307-0.453,0.578-0.406l10.836,1.901C20.75,23.938,20.932,24.196,20.884,24.469L20.884,24.469z" fill="#2F2021"/>
<path d="M28,14c0,0.553-0.205,1-0.459,1H16.459C16.205,15,16,14.553,16,14l0,0c0-0.553,0.205-1,0.459-1h11.082  C27.795,13,28,13.447,28,14L28,14z" fill-opacity="0.4" stroke-opacity="0.4"/>
<linearGradient gradientUnits="userSpaceOnUse" id="SVGID_2_" x1="22.4746" x2="22.4746" y1="8.208" y2="18.834">
<stop offset="0" style="stop-color:#997642"/>
<stop offset="1" style="stop-color:#E5E1C3"/>
</linearGradient>
<path d="M22.475,19c2.863,0,5.221-2.201,5.475-5H17C17.254,16.799,19.611,19,22.475,19z" fill="url(#SVGID_2_)"/>
<path d="M22.475,18c2.314,0,4.197-1.753,4.449-4h-8.898C18.277,16.247,20.16,18,22.475,18z" fill="#FFFFFF"/>
<path d="M27.762,15c0.092-0.322,0.156-0.656,0.188-1H17c0.031,0.344,0.096,0.678,0.188,1H27.762z" fill-opacity="0.2" stroke-opacity="0.2"/>
<path d="M23.525,16c1.207,0,2.217-0.86,2.449-2h-4.898C21.309,15.14,22.318,16,23.525,16z" fill="#22243E"/>
<path d="M28,13c0,0.553-0.205,1-0.459,1H16.459C16.205,14,16,13.553,16,13l0,0  c0-0.553,0.205-1,0.459-1h11.082C27.795,12,28,12.447,28,13L28,13z" fill="#FFFFFF" fill-opacity="0.3" stroke-opacity="0.3"/>
<path d="M28,13.5c0,0.276-0.205,0.5-0.459,0.5H16.459C16.205,14,16,13.776,16,13.5l0,0c0-0.276,0.205-0.5,0.459-0.5  h11.082C27.795,13,28,13.224,28,13.5L28,13.5z" fill="#2F2021"/>
<path d="M15,14c0,0.553-0.205,1-0.459,1H3.459C3.205,15,3,14.553,3,14l0,0c0-0.553,0.205-1,0.459-1h11.082  C14.795,13,15,13.447,15,14L15,14z" fill-opacity="0.4" stroke-opacity="0.4"/>
<linearGradient gradientUnits="userSpaceOnUse" id="SVGID_3_" x1="9.4746" x2="9.4746" y1="8.208" y2="18.834">
<stop offset="0" style="stop-color:#997642"/>
<stop offset="1" style="stop-color:#E5E1C3"/>
</linearGradient>
<path d="M9.475,19c2.863,0,5.221-2.201,5.475-5H4C4.254,16.799,6.611,19,9.475,19z" fill="url(#SVGID_3_)"/>
<path d="M9.475,18c2.314,0,4.197-1.753,4.449-4H5.025C5.277,16.247,7.16,18,9.475,18z" fill="#FFFFFF"/>
<path d="M14.762,15c0.092-0.322,0.156-0.656,0.188-1H4c0.031,0.344,0.096,0.678,0.188,1H14.762z" fill-opacity="0.2" stroke-opacity="0.2"/>
<path d="M10.525,16c1.207,0,2.217-0.86,2.449-2H8.076C8.309,15.14,9.318,16,10.525,16z" fill="#22243E"/>
<path d="M15,13c0,0.553-0.205,1-0.459,1H3.459C3.205,14,3,13.553,3,13l0,0c0-0.553,0.205-1,0.459-1  h11.082C14.795,12,15,12.447,15,13L15,13z" fill="#FFFFFF" fill-opacity="0.3" stroke-opacity="0.3"/>
<path d="M15,13.5c0,0.276-0.205,0.5-0.459,0.5H3.459C3.205,14,3,13.776,3,13.5l0,0C3,13.224,3.205,13,3.459,13  h11.082C14.795,13,15,13.224,15,13.5L15,13.5z" fill="#2F2021"/>
</g>
</svg>
