<?xml version="1.0" encoding="UTF-8"?>
<!DOCTYPE svg PUBLIC "-//W3C//DTD SVG 1.1 Tiny//EN" "http://www.w3.org/Graphics/SVG/1.1/DTD/svg11-tiny.dtd">
<svg baseProfile="tiny" height="30px" version="1.1" viewBox="0 0 30 30" width="30px" x="0px" xmlns="http://www.w3.org/2000/svg" xmlns:xlink="http://www.w3.org/1999/xlink" y="0px">
<path d="M10.572,19.428c-0.359-0.361-0.68-0.746-0.982-1.139l-1.542,1.542c-0.766-0.451-1.767-0.354-2.425,0.304l-2.828,2.828  l4.242,4.242l2.828-2.828c0.659-0.658,0.756-1.658,0.304-2.425l1.542-1.542C11.318,20.107,10.934,19.787,10.572,19.428z"/>
<path d="M12.028,7.879c0.348-0.68,0.803-1.319,1.372-1.889c2.93-2.928,7.678-2.928,10.607,0.002s2.93,7.678,0,10.605  c-0.568,0.569-1.207,1.024-1.888,1.373l2.194,2.193c0.643-0.408,1.254-0.885,1.814-1.445c4.102-4.1,4.102-10.748,0-14.848  c-4.1-4.102-10.748-4.102-14.85-0.002c-0.561,0.561-1.037,1.173-1.445,1.816L12.028,7.879z"/>
<path d="M8.27,12.416c0.246,2.303,1.247,4.539,3.012,6.303c1.764,1.765,4,2.766,6.302,3.012L8.27,12.416z"/>
<path d="M1.381,27.205l1.414,1.414c0.781,0.781,2.047,0.781,2.828,0l-4.242-4.242C0.6,25.158,0.6,26.424,1.381,27.205z"/>
<g fill-opacity="0.5" stroke-opacity="0.5">
<rect fill="none" height="30" width="30"/>
</g>
<path d="M27.693,26.372c0.389,0.389,0.41,1.005,0.048,1.368c-0.362,0.362-0.978,0.343-1.366-0.046L2.307,3.625  C1.918,3.236,1.896,2.621,2.26,2.258c0.363-0.362,0.979-0.34,1.367,0.049L27.693,26.372z"/>
</svg>
