<?xml version="1.0" encoding="UTF-8"?>
<!DOCTYPE svg PUBLIC "-//W3C//DTD SVG 1.1 Tiny//EN" "http://www.w3.org/Graphics/SVG/1.1/DTD/svg11-tiny.dtd">
<svg baseProfile="tiny" height="84px" version="1.1" viewBox="0 0 84 84" width="84px" x="0px" xmlns="http://www.w3.org/2000/svg" xmlns:xlink="http://www.w3.org/1999/xlink" y="0px">
<g>
<linearGradient gradientUnits="userSpaceOnUse" id="SVGID_1_" x1="41.9995" x2="41.9995" y1="7.0425" y2="80.7841">
<stop offset="0" style="stop-color:#66B8CC"/>
<stop offset="1" style="stop-color:#3F89A9"/>
</linearGradient>
<path d="M16.435,18.82l17.105-3.017l-0.98-5.552l16.053-2.831l0.979,5.553l16.803-2.963l1.171,6.634   l-49.961,8.811L16.435,18.82z M36.408,15.299l10.315-1.819l-0.473-2.682l-10.315,1.819L36.408,15.299z" fill="url(#SVGID_1_)"/>
<path d="M48.207,8l0.98,5.553l16.802-2.963l0.997,5.649L18.01,24.876l-0.997-5.65l17.105-3.017l-0.98-5.552   L48.207,8 M36.002,15.878l11.301-1.993l-0.646-3.666l-11.3,1.993L36.002,15.878 M49.018,6.842l-0.984,0.174L32.965,9.673   L31.98,9.846l0.174,0.985l0.807,4.566L16.84,18.241l-0.985,0.173l0.174,0.985l0.997,5.65l0.174,0.984l0.985-0.174l48.976-8.637   l0.984-0.173l-0.174-0.985l-0.997-5.649L66.8,9.432l-0.984,0.174l-15.817,2.789l-0.807-4.568L49.018,6.842L49.018,6.842z    M36.514,13.023l9.332-1.646l0.299,1.696l-9.332,1.646L36.514,13.023L36.514,13.023z" fill="#FFFFFF"/>
</g>
<g>
<linearGradient gradientUnits="userSpaceOnUse" id="SVGID_2_" x1="43.3232" x2="43.3232" y1="6.7163" y2="77.1645">
<stop offset="0" style="stop-color:#66B8CC"/>
<stop offset="1" style="stop-color:#3F89A9"/>
</linearGradient>
<path d="M19.87,76.5V27.684h46.905V76.5H19.87z M57.169,69.76V32.509h-4.74V69.76H57.169z M45.69,69.76   V32.509h-4.739V69.76H45.69z M34.215,69.76V32.509h-4.738V69.76H34.215z" fill="url(#SVGID_2_)"/>
<path d="M66.275,28.184V76H20.37V28.184H66.275 M51.929,70.26h5.74V32.009h-5.74V70.26 M40.452,70.26h5.739V32.009   h-5.739V70.26 M28.977,70.26h5.738V32.009h-5.738V70.26 M67.275,27.184h-1H20.37h-1v1V76v1h1h45.905h1v-1V28.184V27.184   L67.275,27.184z M52.929,33.009h3.74V69.26h-3.74V33.009L52.929,33.009z M41.452,33.009h3.739V69.26h-3.739V33.009L41.452,33.009z    M29.977,33.009h3.738V69.26h-3.738V33.009L29.977,33.009z" fill="#FFFFFF"/>
</g>
<rect fill="none" height="84" width="84"/>
</svg>
