<?xml version="1.0" encoding="UTF-8"?>
<!DOCTYPE svg PUBLIC "-//W3C//DTD SVG 1.1 Tiny//EN" "http://www.w3.org/Graphics/SVG/1.1/DTD/svg11-tiny.dtd">
<svg baseProfile="tiny" height="60" viewBox="0 0 60 60" width="60" xmlns="http://www.w3.org/2000/svg" xmlns:xlink="http://www.w3.org/1999/xlink">
<g>
<g>
<g>
<linearGradient gradientUnits="userSpaceOnUse" id="SVGID_1_" x1="29.9995" x2="29.9995" y1="49.8477" y2="54.1016">
<stop offset="0" style="stop-color:#E4E0C1"/>
<stop offset="1" style="stop-color:#B39C4D"/>
</linearGradient>
<rect fill="url(#SVGID_1_)" height="4.254" width="56" x="2" y="49.848"/>
<linearGradient gradientUnits="userSpaceOnUse" id="SVGID_2_" x1="6.7896" x2="13.5899" y1="18.2217" y2="18.2217">
<stop offset="0" style="stop-color:#ABB0AF"/>
<stop offset="0.3152" style="stop-color:#FFFFFF"/>
<stop offset="0.7333" style="stop-color:#9A9C9C"/>
<stop offset="1" style="stop-color:#C8CAC9"/>
</linearGradient>
<path d="M14.522,30c0,0.301-0.243,0.545-0.544,0.545H6.354c-0.301,0-0.544-0.244-0.544-0.545L7.444,6.443    c0-0.301,0.243-0.545,0.544-0.545h4.356c0.301,0,0.545,0.244,0.545,0.545L14.522,30z" fill="url(#SVGID_2_)"/>
<rect fill="#FFFFFF" fill-opacity="0.5" height="0.709" stroke-opacity="0.5" width="56" x="2" y="49.848"/>
<linearGradient gradientUnits="userSpaceOnUse" id="SVGID_3_" x1="29.9995" x2="29.9995" y1="18.8145" y2="49.3814">
<stop offset="0" style="stop-color:#FAFAFA"/>
<stop offset="1" style="stop-color:#CFCFCF"/>
</linearGradient>
<polygon fill="url(#SVGID_3_)" points="47.367,18.536 17.595,18.536 17.595,28.538 3.418,28.538 3.418,49.848 56.582,49.848     56.582,27.164   "/>
<linearGradient gradientUnits="userSpaceOnUse" id="SVGID_4_" x1="10.5063" x2="10.5063" y1="30.7095" y2="27.4292">
<stop offset="0" style="stop-color:#7A7A7A"/>
<stop offset="1" style="stop-color:#1A1A1A"/>
</linearGradient>
<rect fill="url(#SVGID_4_)" height="2.836" width="14.177" x="3.418" y="27.829"/>
<linearGradient gradientUnits="userSpaceOnUse" id="SVGID_5_" x1="29.9995" x2="29.9995" y1="44.1777" y2="49.1389">
<stop offset="0" style="stop-color:#7E675C"/>
<stop offset="1" style="stop-color:#583636"/>
</linearGradient>
<rect fill="url(#SVGID_5_)" height="5.67" width="53.164" x="3.418" y="44.178"/>
<rect fill-opacity="0.4" height="0.709" stroke-opacity="0.4" width="53.164" x="3.418" y="49.139"/>
<rect fill-opacity="0.2" height="0.709" stroke-opacity="0.2" width="53.164" x="3.418" y="48.43"/>
<rect fill="#E6E6E6" height="0.709" width="53.164" x="3.418" y="44.178"/>
<rect fill="#705950" fill-opacity="0.4" height="0.709" stroke-opacity="0.4" width="56" x="2" y="53.393"/>
<linearGradient gradientUnits="userSpaceOnUse" id="SVGID_6_" x1="12.2778" x2="12.2778" y1="49.9531" y2="35.3014">
<stop offset="0" style="stop-color:#684E48"/>
<stop offset="1" style="stop-color:#43292B"/>
</linearGradient>
<rect fill="url(#SVGID_6_)" height="14.887" width="10.634" x="6.961" y="34.961"/>
<linearGradient gradientUnits="userSpaceOnUse" id="SVGID_7_" x1="12.2778" x2="12.2778" y1="35.5713" y2="49.5233">
<stop offset="0" style="stop-color:#BAA287"/>
<stop offset="1" style="stop-color:#70504A"/>
</linearGradient>
<rect fill="url(#SVGID_7_)" height="14.176" width="9.216" x="7.67" y="35.672"/>
<linearGradient gradientUnits="userSpaceOnUse" id="SVGID_8_" x1="12.2778" x2="12.2778" y1="36.2832" y2="49.5394">
<stop offset="0" style="stop-color:#7E675C"/>
<stop offset="1" style="stop-color:#583636"/>
</linearGradient>
<rect fill="url(#SVGID_8_)" height="13.469" width="7.798" x="8.379" y="36.379"/>
<rect fill-opacity="0.2" height="4.252" stroke-opacity="0.2" width="2.836" x="13.234" y="40.988"/>
<linearGradient gradientUnits="userSpaceOnUse" id="SVGID_9_" x1="14.6523" x2="14.6523" y1="41.6748" y2="44.466">
<stop offset="0" style="stop-color:#FFFFFF"/>
<stop offset="0.6606" style="stop-color:#E1E1E1"/>
<stop offset="1" style="stop-color:#BABCBB"/>
</linearGradient>
<rect fill="url(#SVGID_9_)" height="2.836" width="1.418" x="13.943" y="41.695"/>
<g>
<rect fill-opacity="0.2" height="5.67" stroke-opacity="0.2" width="9.215" x="21.375" y="26.545"/>
<linearGradient gradientUnits="userSpaceOnUse" id="SVGID_10_" x1="25.9824" x2="25.9824" y1="31.5059" y2="27.2524">
<stop offset="0" style="stop-color:#FFFFFF"/>
<stop offset="1" style="stop-color:#C8C9C9"/>
</linearGradient>
<rect fill="url(#SVGID_10_)" height="4.254" width="7.797" x="22.084" y="27.252"/>
<linearGradient gradientUnits="userSpaceOnUse" id="SVGID_11_" x1="25.9824" x2="25.9824" y1="27.9629" y2="30.7969">
<stop offset="0" style="stop-color:#7A7A7A"/>
<stop offset="1" style="stop-color:#3B3B3B"/>
</linearGradient>
<rect fill="url(#SVGID_11_)" height="2.834" width="6.379" x="22.793" y="27.963"/>
<rect fill-opacity="0.2" height="5.67" stroke-opacity="0.2" width="9.215" x="31.299" y="26.545"/>
<linearGradient gradientUnits="userSpaceOnUse" id="SVGID_12_" x1="35.9063" x2="35.9063" y1="31.5059" y2="27.2524">
<stop offset="0" style="stop-color:#FFFFFF"/>
<stop offset="1" style="stop-color:#C8C9C9"/>
</linearGradient>
<rect fill="url(#SVGID_12_)" height="4.254" width="7.797" x="32.008" y="27.252"/>
<linearGradient gradientUnits="userSpaceOnUse" id="SVGID_13_" x1="35.9063" x2="35.9063" y1="27.9629" y2="30.7969">
<stop offset="0" style="stop-color:#7A7A7A"/>
<stop offset="1" style="stop-color:#3B3B3B"/>
</linearGradient>
<rect fill="url(#SVGID_13_)" height="2.834" width="6.38" x="32.717" y="27.963"/>
<rect fill-opacity="0.2" height="5.672" stroke-opacity="0.2" width="9.215" x="21.375" y="34.342"/>
<linearGradient gradientUnits="userSpaceOnUse" id="SVGID_14_" x1="25.9824" x2="25.9824" y1="39.3027" y2="35.0508">
<stop offset="0" style="stop-color:#FFFFFF"/>
<stop offset="1" style="stop-color:#C8C9C9"/>
</linearGradient>
<rect fill="url(#SVGID_14_)" height="4.252" width="7.797" x="22.084" y="35.051"/>
<linearGradient gradientUnits="userSpaceOnUse" id="SVGID_15_" x1="25.9824" x2="25.9824" y1="35.7598" y2="38.5957">
<stop offset="0" style="stop-color:#7A7A7A"/>
<stop offset="1" style="stop-color:#3B3B3B"/>
</linearGradient>
<rect fill="url(#SVGID_15_)" height="2.836" width="6.379" x="22.793" y="35.76"/>
<rect fill-opacity="0.2" height="5.672" stroke-opacity="0.2" width="9.215" x="31.299" y="34.342"/>
<linearGradient gradientUnits="userSpaceOnUse" id="SVGID_16_" x1="35.9063" x2="35.9063" y1="39.3027" y2="35.0508">
<stop offset="0" style="stop-color:#FFFFFF"/>
<stop offset="1" style="stop-color:#C8C9C9"/>
</linearGradient>
<rect fill="url(#SVGID_16_)" height="4.252" width="7.797" x="32.008" y="35.051"/>
<linearGradient gradientUnits="userSpaceOnUse" id="SVGID_17_" x1="35.9063" x2="35.9063" y1="35.7598" y2="38.5957">
<stop offset="0" style="stop-color:#7A7A7A"/>
<stop offset="1" style="stop-color:#3B3B3B"/>
</linearGradient>
<rect fill="url(#SVGID_17_)" height="2.836" width="6.38" x="32.717" y="35.76"/>
<rect fill-opacity="0.2" height="5.67" stroke-opacity="0.2" width="9.216" x="41.223" y="26.545"/>
<linearGradient gradientUnits="userSpaceOnUse" id="SVGID_18_" x1="45.8301" x2="45.8301" y1="31.5059" y2="27.2524">
<stop offset="0" style="stop-color:#FFFFFF"/>
<stop offset="1" style="stop-color:#C8C9C9"/>
</linearGradient>
<rect fill="url(#SVGID_18_)" height="4.254" width="7.798" x="41.932" y="27.252"/>
<linearGradient gradientUnits="userSpaceOnUse" id="SVGID_19_" x1="45.8301" x2="45.8301" y1="27.9629" y2="30.7969">
<stop offset="0" style="stop-color:#7A7A7A"/>
<stop offset="1" style="stop-color:#3B3B3B"/>
</linearGradient>
<rect fill="url(#SVGID_19_)" height="2.834" width="6.38" x="42.641" y="27.963"/>
<rect fill-opacity="0.2" height="5.672" stroke-opacity="0.2" width="9.216" x="41.223" y="34.342"/>
<linearGradient gradientUnits="userSpaceOnUse" id="SVGID_20_" x1="45.8301" x2="45.8301" y1="39.3027" y2="35.0508">
<stop offset="0" style="stop-color:#FFFFFF"/>
<stop offset="1" style="stop-color:#C8C9C9"/>
</linearGradient>
<rect fill="url(#SVGID_20_)" height="4.252" width="7.798" x="41.932" y="35.051"/>
<linearGradient gradientUnits="userSpaceOnUse" id="SVGID_21_" x1="45.8301" x2="45.8301" y1="35.7598" y2="38.5957">
<stop offset="0" style="stop-color:#7A7A7A"/>
<stop offset="1" style="stop-color:#3B3B3B"/>
</linearGradient>
<rect fill="url(#SVGID_21_)" height="2.836" width="6.38" x="42.641" y="35.76"/>
</g>
<linearGradient gradientUnits="userSpaceOnUse" id="SVGID_22_" x1="6.3506" x2="13.9824" y1="17.9492" y2="17.9492">
<stop offset="0" style="stop-color:#4D4D4D"/>
<stop offset="0.3818" style="stop-color:#7A7A7A"/>
<stop offset="0.7091" style="stop-color:#1A1A1A"/>
<stop offset="1" style="stop-color:#4D4D4D"/>
</linearGradient>
<polygon fill="url(#SVGID_22_)" points="6.941,13.695 6.351,22.203 13.982,22.203 13.393,13.695   "/>
<linearGradient gradientUnits="userSpaceOnUse" id="SVGID_23_" x1="51.2598" x2="52.737" y1="24.3311" y2="22.7358">
<stop offset="0" style="stop-color:#7A7A7A"/>
<stop offset="0.5091" style="stop-color:#7A7A7A"/>
<stop offset="1" style="stop-color:#1A1A1A"/>
</linearGradient>
<polygon fill="url(#SVGID_23_)" points="47.367,17.827 47.367,20.663 56.582,29.291 56.582,26.455   "/>
<linearGradient gradientUnits="userSpaceOnUse" id="SVGID_24_" x1="32.4805" x2="32.4805" y1="20.5488" y2="17.8204">
<stop offset="0" style="stop-color:#7A7A7A"/>
<stop offset="1" style="stop-color:#1A1A1A"/>
</linearGradient>
<rect fill="url(#SVGID_24_)" height="2.836" width="29.772" x="17.595" y="17.827"/>
</g>
<rect fill="none" height="60" width="60"/>
</g>
</g>
</svg>
