<?xml version="1.0" encoding="UTF-8"?>
<!DOCTYPE svg PUBLIC "-//W3C//DTD SVG 1.1 Tiny//EN" "http://www.w3.org/Graphics/SVG/1.1/DTD/svg11-tiny.dtd">
<svg baseProfile="tiny" height="30" viewBox="0 0 30 30" width="30" xmlns="http://www.w3.org/2000/svg" xmlns:xlink="http://www.w3.org/1999/xlink">
<g>
<rect fill="none" height="30" width="30"/>
<path d="M10.465,29L6,22.303V9h4v12.092L12.605,25h5.789L21,21.092V5h-6v13.5c0,0.275,0.224,0.5,0.5,0.5  s0.5-0.225,0.5-0.5V6h4v12.5c0,2.481-2.019,4.5-4.5,4.5S11,20.981,11,18.5V4c0-1.654,1.346-3,3-3h8c1.654,0,3,1.346,3,3v18.303  L20.535,29H10.465z" fill-opacity="0.6"/>
<path d="M22,2h-8c-1.101,0-2,0.9-2,2v14.5c0,1.934,1.567,3.5,3.5,3.5s3.5-1.566,3.5-3.5V7h-2v11.5  c0,0.827-0.673,1.5-1.5,1.5S14,19.327,14,18.5V4h8v17.395L18.93,26H12.07L9,21.395V10H7v12l4,6h9l4-6V4C24,2.9,23.101,2,22,2z" fill="url(#SVGID_1_)"/>
<defs>
<linearGradient gradientUnits="userSpaceOnUse" id="SVGID_1_" x1="15.5005" x2="15.5005" y1="28" y2="2.0005">
<stop offset="0" style="stop-color:#8D8E8E"/>
<stop offset="0.6545" style="stop-color:#D9D9D9"/>
<stop offset="1" style="stop-color:#B0B2B1"/>
</linearGradient>
</defs>
</g>
</svg>
