<?xml version="1.0" encoding="UTF-8"?>
<!DOCTYPE svg PUBLIC "-//W3C//DTD SVG 1.1 Tiny//EN" "http://www.w3.org/Graphics/SVG/1.1/DTD/svg11-tiny.dtd">
<svg baseProfile="tiny" height="60" viewBox="0 0 60 60" width="60" xmlns="http://www.w3.org/2000/svg" xmlns:xlink="http://www.w3.org/1999/xlink">
<g>
<rect fill="none" height="60" width="60"/>
<rect fill="none" height="60" width="60"/>
<linearGradient gradientTransform="matrix(1 0 0 -1 2194 3656.9473)" gradientUnits="userSpaceOnUse" id="SVGID_1_" x1="-2162.3384" x2="-2162.3384" y1="3603.7246" y2="3654.8755">
<stop offset="0" style="stop-color:#2A3662"/>
<stop offset="1" style="stop-color:#546F9F"/>
</linearGradient>
<circle cx="31.662" cy="27.76" fill="url(#SVGID_1_)" r="25.76"/>
<radialGradient cx="-2106.918" cy="3745.7734" gradientTransform="matrix(0.961 0 0 -0.9609 2056.0444 3618.1604)" gradientUnits="userSpaceOnUse" id="SVGID_2_" r="32.2687">
<stop offset="0" style="stop-color:#B4DFC6"/>
<stop offset="0.5" style="stop-color:#72B9C3"/>
<stop offset="1" style="stop-color:#546F9F"/>
</radialGradient>
<path d="M56.761,27.759c0,13.864-11.234,25.097-25.099,25.097c-13.863,0-25.101-11.232-25.101-25.097  c0-13.859,11.239-25.099,25.101-25.099C45.53,2.66,56.761,13.899,56.761,27.759z" fill="url(#SVGID_2_)"/>
<linearGradient gradientTransform="matrix(1 0 0 -1 2194 3656.9473)" gradientUnits="userSpaceOnUse" id="SVGID_3_" x1="-2162.3384" x2="-2162.3384" y1="3654.5078" y2="3603.9641">
<stop offset="0" style="stop-color:#6DACBC"/>
<stop offset="0.497" style="stop-color:#5778A3"/>
<stop offset="1" style="stop-color:#A6CDC2"/>
</linearGradient>
<path d="M31.663,2.66c-13.863,0-25.101,11.239-25.101,25.099  c0,13.864,11.239,25.097,25.101,25.097c13.864,0,25.099-11.232,25.099-25.097C56.761,13.899,45.53,2.66,31.663,2.66z M31.663,50.659  c-13.033,0-23.638-10.598-23.638-23.63c0-13.034,10.603-23.637,23.638-23.637c13.033,0,23.634,10.603,23.634,23.637  C55.296,40.06,44.696,50.659,31.663,50.659z" fill="url(#SVGID_3_)" fill-opacity="0.3" stroke-opacity="0.3"/>
<linearGradient gradientTransform="matrix(1 0 0 -1 2194 3656.9473)" gradientUnits="userSpaceOnUse" id="SVGID_4_" x1="-2187.0283" x2="-2183.0366" y1="3625.7734" y2="3625.7734">
<stop offset="0" style="stop-color:#59595A"/>
<stop offset="1" style="stop-color:#000000"/>
</linearGradient>
<path d="M8.918,27.351c-0.268-0.357-0.871-0.357-1.137-0.357  c-0.525,0-0.804,0.376-0.809,0.742v0.023l0.001,0.038c-0.001,0.646,0.035,1.37,0.113,2.251c0.016,0.164,0.036,0.331,0.057,0.498  l0.028,0.241c0.067,0.521,0.145,1.033,0.235,1.531l0.041,0.218c0.038,0.198,0.075,0.391,0.117,0.583  c0.107,0.488,0.238,0.993,0.399,1.552c0.023,0.08,0.044,0.159,0.065,0.239c0.036,0.132,0.07,0.261,0.11,0.388l0.006,0.017  l0.014,0.04c-0.003-0.012-0.009-0.028-0.012-0.045l1.44-0.097c0.022-0.227,0.028-0.46,0.022-0.691  c-0.012-0.364-0.025-0.813-0.129-1.191l1.337-1.796l0.145-0.194v-0.244v-1.4v-0.303l-0.215-0.215L8.918,27.351z" fill="url(#SVGID_4_)" fill-opacity="0.3" stroke-opacity="0.3"/>
<linearGradient gradientTransform="matrix(1 0 0 -1 2194 3656.9473)" gradientUnits="userSpaceOnUse" id="SVGID_5_" x1="-2179.3354" x2="-2137.5874" y1="3633.083" y2="3633.083">
<stop offset="0" style="stop-color:#59595A"/>
<stop offset="1" style="stop-color:#000000"/>
</linearGradient>
<path d="M56.406,22.84c-0.019-0.094-0.034-0.161-0.052-0.229  c-0.013-0.051-0.024-0.101-0.034-0.15c-0.128-0.595-0.285-1.208-0.472-1.832l-0.02-0.071c-0.041-0.14-0.082-0.281-0.127-0.42  c-0.227-0.706-0.473-1.38-0.732-2.003c-0.031-0.078-0.066-0.149-0.1-0.226l-0.055-0.119c-0.246-0.57-0.523-1.139-0.813-1.688  l-0.036-0.071c-0.057-0.107-0.111-0.216-0.17-0.321c-0.354-0.642-0.728-1.251-1.103-1.819c-0.04-0.06-0.085-0.122-0.13-0.184  c-0.027-0.038-0.054-0.075-0.078-0.111c-0.363-0.525-0.743-1.037-1.138-1.525l-0.076-0.099c-0.053-0.065-0.106-0.133-0.161-0.199  c-0.459-0.55-0.941-1.08-1.441-1.583c-0.068-0.067-0.139-0.138-0.211-0.209l-0.061-0.057c-0.45-0.44-0.93-0.878-1.422-1.289  l-0.097-0.083c-0.05-0.046-0.101-0.087-0.15-0.128c-0.536-0.441-1.118-0.875-1.725-1.291c-0.075-0.052-0.153-0.101-0.229-0.15  l-0.092-0.061c-0.546-0.362-1.115-0.709-1.688-1.023l-0.085-0.052c-0.049-0.028-0.096-0.054-0.144-0.082  c-0.636-0.341-1.3-0.66-1.976-0.951l-0.17-0.068l-0.186-0.077c-0.177-0.073-0.355-0.136-0.531-0.197  c-0.093-0.03-0.182-0.063-0.275-0.097l-0.339-0.127l-0.308,0.195c-0.203,0.129-1.01,0.589-1.484,0.859  c-0.526-0.07-1.801-0.23-3.089-0.355c0.396-0.036,0.946-0.082,1.719-0.133l0.108-1.446l-0.059-0.017  c-0.047-0.012-0.092-0.024-0.139-0.035l-0.111-0.021l-0.088-0.017c-0.789-0.159-1.529-0.273-2.264-0.351L34.57,2.925l-0.103-0.011  c-0.84-0.083-1.693-0.127-2.539-0.127c-0.744,0-1.517,0.04-2.361,0.122c-0.13,0.013-0.256,0.025-0.385,0.038  C28.35,3.041,27.62,3.151,26.93,3.292l-0.024,0.002l-0.017,0.003c-0.727,0.149-1.457,0.338-2.232,0.573  c-0.068,0.022-0.139,0.044-0.207,0.067l-0.156,0.052c-0.658,0.212-1.303,0.444-1.92,0.7c-0.051,0.021-0.086,0.032-0.121,0.046  l-0.094,0.038c-0.678,0.288-1.354,0.615-2.028,0.977c-0.073,0.037-0.142,0.079-0.212,0.118l-0.084,0.054  c-0.189,0.103-0.381,0.223-0.569,0.34l-0.244,0.153l-1.345,0.821l1.494,0.499c0.223,0.076,0.463,0.111,0.711,0.111  c0.805,0,1.582-0.395,2.209-0.713c0.252-0.125,0.627-0.317,0.779-0.346c0.182,0.054,0.369,0.082,0.55,0.082  c0.685,0,1.244-0.368,1.739-0.694l0.135-0.087c0.16-0.052,0.434-0.154,0.98-0.359c0.561-0.209,1.58-0.593,1.854-0.658  c0.527-0.005,1.16-0.079,1.609-0.359c0.422,0.07,1.174,0.188,1.945,0.289c-0.057,0.034-0.112,0.07-0.158,0.115  c-0.251,0.232-1.605,0.642-2.02,0.695c-0.779,0.098-1.092,0.49-1.217,0.801c-0.163,0.403-0.064,0.808,0.094,1.139  c-0.295,0.194-0.656,0.41-0.966,0.575c0,0,0.003-0.015,0.005-0.023c0.111-0.622,0.191-1.071-0.11-1.431  c-0.153-0.184-0.38-0.289-0.624-0.289c-0.354,0-0.631,0.22-0.854,0.436c-0.626,0.604-1.004,1.356-1.145,1.641l-0.026,0.052  l-0.023,0.042c-0.271,0.519-0.382,0.887-0.231,2.028c-0.064,0.05-0.264,0.124-0.534,0.124c-0.036,0-0.07-0.001-0.095-0.004  c-0.176-0.189-0.42-0.298-0.693-0.298l0,0c-0.63,0-1.488,0.709-2.551,2.107l-0.342,0.451l0.347,0.446l0.323,0.411  c-5.066,3.918-5.104,4.14-5.157,4.468c-0.009,0.03-0.054,0.165-0.115,0.352c-0.754,2.348-1.174,4.104-0.765,5.044  c0.942,2.179,2.006,4.212,3.383,4.325c0.122,0.01,0.256,0.015,0.398,0.015c1.265,0,3.311-0.382,4.295-0.584  c0.182,0.341,0.402,0.738,0.527,0.956l0.217,0.39l0.445-0.015c0.004,0,0.239-0.009,0.539-0.009c0.342,0,0.573,0.011,0.723,0.021  c0.536,1.571,1.563,5.189,1.373,5.943l-0.004,0.002c-1.732,2.597,0.368,5.982,1.377,7.607c0.078,0.129,0.15,0.244,0.213,0.345  c0.389,1.108,0.861,1.841,1.856,1.841c0.075,0,0.149-0.004,0.227-0.01c0.058-0.002,0.115-0.004,0.175-0.004  c0.109,0,0.189,0.012,0.271,0.042l0.09,0.032l0.097,0.008c0.187,0.016,0.368,0.042,0.544,0.068c0.309,0.042,0.625,0.084,0.947,0.084  c0.868,0,1.555-0.327,2.148-1.028c0.023-0.003,0.044-0.005,0.067-0.008c0.622-0.086,0.854-0.398,0.935-0.678  c0.045-0.047,0.107-0.104,0.157-0.15c0.245-0.226,0.538-0.493,0.739-0.811c0.091-0.054,0.193-0.114,0.311-0.183  c0.2-0.124,0.428-0.26,0.605-0.352c0.157-0.05,0.297-0.142,0.401-0.271c0.251-0.31,0.2-0.659,0.157-0.941  c-0.041-0.291-0.084-0.592,0.072-0.911c0.889-0.428,2.466-1.479,2.721-1.652l-0.002,0.021c-0.016,0.141-0.057,0.517-0.119,0.757  c-0.336,0.335-0.617,0.845-0.704,1.018l-0.06,0.113l-0.018,0.125c-0.023,0.164-0.113,1.021,0.367,1.575  c0.242,0.277,0.59,0.432,0.978,0.432c0.124,0,0.253-0.016,0.384-0.047c1.234-0.279,3.426-3.249,3.604-4.888  c0.086-0.789-0.223-1.409-0.846-1.703l-0.465-0.221l-0.367,0.364l-1.352,1.353c-0.457,0.043-0.814,0.179-1.057,0.393  c0.014-0.578-0.043-1.17-0.104-1.745c-0.186-1.74-0.222-2.848,0.846-3.602l0.054-0.04l0.046-0.047  c0.387-0.392,0.813-0.734,1.264-1.099c1.059-0.85,2.152-1.729,2.804-3.315l0.027-0.067c0.209-0.543,0.524-1.361,0.097-1.984  c-0.107-0.155-0.33-0.395-0.75-0.478c0.556-0.225,0.98-0.399,1.023-0.417l0.129-0.052l0.1-0.097l2.281-2.19l0.334-0.321  l-0.146-0.441c-0.021-0.057-0.144-0.401-0.494-0.897c0.666,0.09,1.236,0.251,1.424,0.393c0.069,0.147,0.207,0.477,0.352,0.822  c2.512,5.918,2.863,6.224,3.518,6.233c0.025,0,0.045,0.002,0.061,0.005c0.055,0.002,0.101,0.004,0.145,0.004  c0.371,0,0.584-0.188,0.677-0.303c0.273-0.328,0.196-0.73,0.169-0.88l-0.01-0.052c-0.031-0.354-0.012-1.946,0.039-3.254  c0.004,0.002,0.004,0.006,0.008,0.011l1.346-0.534L56.406,22.84z M36.622,15.6c-0.104,0.004-0.217,0.009-0.338,0.014  c-0.388,0.02-0.828,0.038-1.268,0.038c-1.147,0-1.409-0.142-1.438-0.157c-0.135-0.1-0.275-0.174-0.42-0.226  c0.26-0.059,0.557-0.259,0.863-0.853c0.303,0.586,0.712,1.104,1.342,1.104c0.171,0,0.332-0.043,0.488-0.122  C36.063,15.401,36.413,15.522,36.622,15.6z M36.17,12.397c-0.086,0-0.156-0.004-0.211-0.009c0.059-0.153,0.129-0.243,0.186-0.293  c0.071,0.111,0.169,0.209,0.277,0.294C36.334,12.395,36.252,12.397,36.17,12.397z M31.6,13.933c0.394,0.771,0.686,1.103,0.916,1.246  c-0.57,0.047-1.001,0.409-1.354,0.752c-0.248-0.081-0.678-0.343-0.808-0.526c-0.075-0.106-0.165-0.199-0.265-0.279  C30.713,14.948,31.262,14.369,31.6,13.933z M29.428,13.366l-0.817-0.039l-2.737-0.134c0.332-0.275,0.65-0.534,0.837-0.686  c0.05-0.018,0.246-0.073,0.728-0.073c0.291,0,0.569,0.021,0.746,0.035L29.428,13.366z" fill="url(#SVGID_5_)" fill-opacity="0.3" stroke-opacity="0.3"/>
<radialGradient cx="-2106.0845" cy="3754.9141" gradientTransform="matrix(0.961 0 0 -0.9609 2056.0444 3618.1604)" gradientUnits="userSpaceOnUse" id="SVGID_6_" r="29.4754">
<stop offset="0" style="stop-color:#71A949"/>
<stop offset="0.3152" style="stop-color:#71A949"/>
<stop offset="0.7273" style="stop-color:#3E7E53"/>
<stop offset="1" style="stop-color:#254F55"/>
</radialGradient>
<path d="M7.703,27.745L7.703,27.745c0,0.009,0.001,0.014,0.001,0.022c0,0.747,0.047,1.484,0.112,2.218  c0.021,0.236,0.056,0.476,0.083,0.718c0.065,0.5,0.14,0.998,0.228,1.488c0.051,0.258,0.097,0.521,0.152,0.774  c0.114,0.508,0.244,1.008,0.386,1.501c0.06,0.204,0.107,0.411,0.169,0.61c0.009,0.023,0.019,0.04,0.023,0.061  c0.02-0.189,0.026-0.39,0.02-0.594C8.83,33.103,8.6,33.288,8.6,33.288l1.629-2.19v-1.402l-1.91-1.908  C8.319,27.787,7.704,27.69,7.703,27.745z" fill="url(#SVGID_6_)"/>
<radialGradient cx="-2106.0928" cy="3754.918" gradientTransform="matrix(0.961 0 0 -0.9609 2056.0444 3618.1604)" gradientUnits="userSpaceOnUse" id="SVGID_7_" r="29.4765">
<stop offset="0" style="stop-color:#71A949"/>
<stop offset="0.3152" style="stop-color:#71A949"/>
<stop offset="0.7273" style="stop-color:#3E7E53"/>
<stop offset="1" style="stop-color:#254F55"/>
</radialGradient>
<path d="M23.042,6.076c0.706,0.233,1.282-0.24,1.939-0.66c0.231-0.049,2.81-1.076,3.089-1.076  s1.216-0.036,1.448-0.409c0,0,4.035,0.702,4.644,0.468c0.33-0.13,1.723-0.24,2.914-0.317c-0.066-0.014-0.127-0.036-0.195-0.05  c-0.064-0.015-0.125-0.023-0.191-0.035c-0.75-0.152-1.505-0.272-2.277-0.35c-0.008,0-0.012,0-0.02-0.003  c-0.81-0.082-1.633-0.124-2.467-0.124c-0.773,0-1.535,0.045-2.291,0.117c-0.133,0.015-0.266,0.025-0.397,0.043  c-0.731,0.079-1.456,0.186-2.165,0.328c-0.013,0.005-0.025,0.005-0.037,0.008c-0.736,0.152-1.459,0.34-2.168,0.559  c-0.121,0.035-0.238,0.077-0.362,0.115c-0.626,0.202-1.248,0.427-1.856,0.678c-0.071,0.031-0.145,0.057-0.215,0.087  c-0.67,0.286-1.322,0.602-1.96,0.941c-0.097,0.053-0.188,0.108-0.282,0.163c-0.271,0.149-0.527,0.32-0.793,0.481  C20.713,7.479,22.349,5.842,23.042,6.076z" fill="url(#SVGID_7_)"/>
<radialGradient cx="-2106.0928" cy="3754.9209" gradientTransform="matrix(0.961 0 0 -0.9609 2056.0444 3618.1604)" gradientUnits="userSpaceOnUse" id="SVGID_8_" r="29.4743">
<stop offset="0" style="stop-color:#B7CC97"/>
<stop offset="0.3152" style="stop-color:#B7CC97"/>
<stop offset="0.7273" style="stop-color:#568E4C"/>
<stop offset="1" style="stop-color:#255541"/>
</radialGradient>
<path d="M55.685,22.962c-0.026-0.122-0.06-0.237-0.083-0.356c-0.127-0.601-0.28-1.19-0.455-1.773  c-0.045-0.154-0.092-0.316-0.143-0.474c-0.211-0.659-0.445-1.31-0.709-1.941c-0.047-0.112-0.1-0.223-0.15-0.331  c-0.242-0.56-0.504-1.104-0.789-1.639c-0.066-0.128-0.131-0.259-0.199-0.383c-0.336-0.604-0.691-1.194-1.074-1.768  c-0.064-0.1-0.137-0.192-0.203-0.292c-0.35-0.507-0.717-0.997-1.102-1.477c-0.078-0.094-0.152-0.192-0.233-0.287  c-0.442-0.532-0.909-1.044-1.396-1.534c-0.082-0.085-0.172-0.17-0.259-0.252c-0.444-0.437-0.907-0.857-1.387-1.258  c-0.079-0.069-0.157-0.139-0.237-0.206c-0.537-0.439-1.1-0.857-1.678-1.254c-0.1-0.069-0.203-0.135-0.307-0.2  c-0.531-0.354-1.079-0.686-1.643-0.998c-0.074-0.042-0.148-0.087-0.225-0.129c-0.625-0.336-1.262-0.642-1.916-0.924  c-0.117-0.049-0.232-0.096-0.348-0.145c-0.254-0.104-0.521-0.188-0.777-0.282c-0.306,0.195-1.729,1.001-1.729,1.001  s-6.18-0.846-6.602-0.426c-0.423,0.426-2.068,0.854-2.441,0.903c-0.376,0.049-1.151,0.247-0.221,1.396  c-0.139,0.141-2.795,1.99-2.795,1.15s0.594-2.348-0.24-1.54c-0.599,0.577-0.957,1.364-1.034,1.51  c-0.195,0.375-0.315,0.554-0.174,1.632c0.142,1.077-1.719,1.07-1.845,0.791c-0.332-0.746-2.174,1.676-2.174,1.676l0.776,0.996  c0,0-5.421,4.177-5.468,4.456c-0.048,0.282-1.399,3.907-0.93,4.984c0.468,1.079,1.652,3.797,2.771,3.888  c1.47,0.12,5.032-0.673,5.032-0.673c0.097,0.236,0.768,1.43,0.768,1.43s1.747-0.058,1.843,0.133  c0.033,0.063,2.104,6.157,1.422,6.965c-1.632,2.444,0.932,6.024,1.645,7.235c0.715,2.08,1.176,1.148,2.115,1.489  c1.155,0.101,2.129,0.528,3.111-0.735c0.285-0.235,0.77-0.049,0.77-0.376c0-0.183,0.84-0.718,1.057-1.223  c0.226-0.105,0.811-0.498,1.205-0.688c0.36-0.023-0.34-0.986,0.372-2.002c0.769-0.303,2.842-1.7,2.842-1.7  c0.095-2.05-1.01-4.581,1.05-6.033c1.326-1.355,3.068-2.126,3.912-4.183c0.232-0.61,0.756-1.854-0.744-1.48  c-1.41,0.354-2.981,0.435-2.236-0.187c-0.086-0.761-1.022-1.12-1.863-1.863c-0.436-1.028-1.118-2.86-1.118-2.86l-1.491-2.266  l0.186-0.468l1.773,2.609l1.771,2.142c0.65,2.143,1.209,2.33,1.209,2.33c0.98-0.345,3.311-1.305,3.311-1.305l2.281-2.19  c0,0-0.233-0.697-1.16-1.583l-0.703-0.418c-0.152,0.43-0.965,0.59-0.965,0.59l-1.973-2.361l0.733-0.147l0.565,1.076l1.356,0.47  c0,0,0.377-0.274,1.073,0.446c0.568-0.047,2.788,0.108,3.306,0.765c0.102,0.13,2.748,6.739,3.271,6.749  c0.229,0.002,0.395,0.091,0.32-0.309c-0.094-0.188,0-4.338,0.14-5.229c0.354-0.753,0.412-0.002,1.25,1.428  C55.696,23.033,55.692,22.997,55.685,22.962z M32.397,6.947c0.184-0.552,1.258-0.739,1.258-0.739s-0.308,0.568-0.236,0.859  c0.072,0.298-0.49,0.483-0.554,1.182c-0.061,0.694-1.343,0.287-1.447,0.043C31.311,8.049,32.208,7.497,32.397,6.947z M36.993,16.324  c-0.795,0-3.18,0.235-3.834-0.234c-0.658-0.467-1.168,0.05-1.639,0.52c-0.311,0.303-1.434-0.314-1.765-0.782  c-0.325-0.467-1.429-0.434-1.429-0.434l0.251-1.335l-3.171-0.154l-1.802,0.528l-1.694,0.05l0.95-0.454l1.181-0.278  c0,0,1.721-1.414,2.235-1.834c0.435-0.356,2.177-0.155,2.177-0.155l1.91,1.378c0,0-0.424,1.08-0.611,1.312  c0.701-0.047,1.525-1.321,1.525-1.321c-1.488-1.368-1.428-1.832-1.428-1.832l1.963,1.377l0.02,0.012c0,0,0.795,1.874,1.127,1.874  c0.326,0,0.744-1.289,0.744-1.289l0.559-0.142c0.248,0.593,0.715,1.929,1.272,1.614c0.323-0.177,0.854-0.015,1.462,0.218  c0.611,0.235,1.025-0.124,1.521,0.31C38.452,17.195,37.321,16.419,36.993,16.324z M38.239,13.102  c-0.818-0.311-3.587,0.704-2.969-0.957c0.33-0.896,1.179-1.083,1.469-0.487c0.076,0.247,0.998,0.625,0.99,0.108  c-0.006-0.518,0.928-0.791,1.063-0.406C38.293,11.716,40.737,13.58,38.239,13.102z M43.454,14.675  c-0.453-0.364,0.205-0.679-0.465-1.252c-0.959-0.822-1.708-1.176-0.401-1.841c1.612-0.202,0.263,0.515,0.529,0.943  c0.144,0.23,0.956,0.996,1.593,1.938C45.238,15.244,43.905,15.038,43.454,14.675z" fill="url(#SVGID_8_)"/>
<radialGradient cx="-2106.0933" cy="3754.916" gradientTransform="matrix(0.961 0 0 -0.9609 2056.0444 3618.1604)" gradientUnits="userSpaceOnUse" id="SVGID_9_" r="29.4698">
<stop offset="0" style="stop-color:#71A949"/>
<stop offset="0.3152" style="stop-color:#71A949"/>
<stop offset="0.7273" style="stop-color:#3E7E53"/>
<stop offset="1" style="stop-color:#254F55"/>
</radialGradient>
<path d="M44.104,36.019l-1.555,1.552c0,0-0.934,0-0.979,0.378c-0.021,0.159-0.075,0.853-0.23,1.209  c-0.311,0.217-0.684,0.931-0.684,0.931s-0.191,1.382,0.839,1.146C42.526,41.001,45.698,36.77,44.104,36.019z" fill="url(#SVGID_9_)"/>
<path d="M32.02,52.439c1.859,0,3.664-0.209,5.408-0.589  c-0.047-0.059-0.086-0.12-0.137-0.174l-9.057-9.324c-0.522-0.537-1.239-0.847-1.97-0.847c-0.685,0-1.324,0.265-1.804,0.751  l-1.373,1.418l-0.568,0.573l-0.524,0.537c-1.987-1.927-3.765-4.139-5.697-7.06c-1.067-1.62-1.986-3.592-2.57-4.956l-0.213-0.51  c0,0-0.291-0.718-0.39-0.975l-0.032-0.082c-0.081-0.211-0.153-0.408-0.221-0.601l-0.031-0.083l2.215-0.77  c1.222-0.414,1.915-1.688,1.638-3.071l-0.009-0.045l-1.386-4.235l-2.734-8.158c-0.193-0.582-0.564-1.064-1.032-1.394  c-2.904,4.096-4.617,9.095-4.617,14.496C6.917,41.205,18.155,52.439,32.02,52.439z" fill="#020202" fill-opacity="0.1" stroke-opacity="0.1"/>
<path d="M32.02,52.439c1.563,0,3.09-0.15,4.576-0.422l-8.889-9.153  c-0.386-0.396-0.912-0.624-1.442-0.624c-0.485,0-0.936,0.188-1.274,0.531l-1.381,1.42l-0.561,0.568l-0.51,0.523l0.004,0.005  l-0.523,0.535c-2.243-2.087-4.219-4.489-6.334-7.693c-1.095-1.661-2.036-3.678-2.634-5.074l-0.19-0.45l-0.029-0.071  c0,0-0.292-0.723-0.393-0.981l-0.035-0.087c-0.082-0.216-0.156-0.415-0.229-0.614c0,0-0.144-0.406-0.174-0.493l0.085-0.354  l2.731-0.951c0.866-0.294,1.355-1.214,1.161-2.187l-0.008-0.044l-1.373-4.188l-2.734-8.161c-0.144-0.43-0.412-0.781-0.752-1.024  c-2.648,3.98-4.198,8.756-4.198,13.893C6.917,41.205,18.155,52.439,32.02,52.439z" fill="#020202" fill-opacity="0.2" stroke-opacity="0.2"/>
<radialGradient cx="-2983.5728" cy="4023.543" gradientTransform="matrix(0.9654 -0.0107 -0.0107 -0.9654 2968.4299 3872.1846)" gradientUnits="userSpaceOnUse" id="SVGID_10_" r="42.6078">
<stop offset="0" style="stop-color:#ECEFED"/>
<stop offset="0.8364" style="stop-color:#ECEFED"/>
<stop offset="0.8909" style="stop-color:#ADB2B1"/>
<stop offset="0.9515" style="stop-color:#818587"/>
<stop offset="1" style="stop-color:#888E8F"/>
</radialGradient>
<path d="M22.051,46.847c-2.873-2.563-5.037-5.372-6.979-8.311c-1.865-2.832-3.556-7.079-4.079-8.93  l-7.54-10.621c-0.429,0.711-1.107,3.264-0.794,6.717c0.316,3.454,3.534,11.814,7.313,17.545c3.782,5.731,9.389,11.118,11.269,12.311  c2.959,1.878,6.523,2.493,7.608,2.439c0,0,1.002-0.118,2.367-0.597C31.803,57.196,22.051,46.847,22.051,46.847z" fill="url(#SVGID_10_)"/>
<path d="M12.413,33.434c-0.661-1.542-1.174-2.953-1.418-3.827L3.658,19.27  c-0.077,0.108-0.12,0.173-0.12,0.173c-0.126,0.207-0.266,0.55-0.406,0.977c-0.142,0.722-0.214,1.466-0.202,2.229  C3.002,28.046,7.083,32.497,12.413,33.434z" fill-opacity="0.05" stroke-opacity="0.05"/>
<path d="M12.099,32.685c-0.507-1.242-0.899-2.348-1.104-3.078l-7.363-10.37  C3.548,19.356,3.5,19.429,3.5,19.429c-0.118,0.195-0.25,0.522-0.383,0.925c-0.134,0.682-0.202,1.383-0.19,2.105  C2.997,27.635,6.961,31.889,12.099,32.685z" fill-opacity="0.05" stroke-opacity="0.05"/>
<path d="M3.443,19.407c-0.105,0.177-0.226,0.472-0.348,0.839  c-0.123,0.617-0.183,1.256-0.172,1.911c0.064,4.82,3.858,8.755,8.702,9.323c-0.278-0.742-0.495-1.39-0.632-1.874L3.596,19.185  C3.496,19.325,3.443,19.407,3.443,19.407z" fill-opacity="0.1" stroke-opacity="0.1"/>
<radialGradient cx="-3022.0488" cy="4026.5146" gradientTransform="matrix(0.9664 -0.0083 -0.013 -0.9569 2980.2107 3844.9014)" gradientUnits="userSpaceOnUse" id="SVGID_11_" r="14.7389">
<stop offset="0" style="stop-color:#D3D7D5"/>
<stop offset="0.0424" style="stop-color:#D3D7D5"/>
<stop offset="0.4" style="stop-color:#BDC0BF"/>
<stop offset="0.7333" style="stop-color:#82898B"/>
<stop offset="1" style="stop-color:#ACB2B1"/>
</radialGradient>
<path d="M10.993,29.606l1.577-0.554c0,0-3.343-14.954-4.669-14.266c-0.667,0.348-0.66,0.538-1.335,1.026  c-2.014,1.464-3.112,3.174-3.112,3.174c-0.092,0.155-0.197,0.415-0.303,0.737c-0.105,0.54-0.161,1.102-0.153,1.672  c0.06,4.353,3.581,7.891,8.007,8.225C11,29.616,10.995,29.611,10.993,29.606z" fill="url(#SVGID_11_)"/>
<path d="M21.933,48.33c-0.311,0.874-0.481,1.802-0.47,2.769  c0.031,2.291,1.062,4.354,2.695,5.889c2.064,0.771,3.951,1.047,4.689,1.01c0,0,1.002-0.118,2.367-0.597  c0.492-0.171-6.277-7.469-8.48-9.823L21.933,48.33z" fill-opacity="0.05" stroke-opacity="0.05"/>
<path d="M22.125,47.537c-0.313,0.871-0.481,1.799-0.47,2.766  c0.043,3.142,1.947,5.86,4.748,7.363c0.927,0.218,1.705,0.318,2.198,0.331c0.013,0,0.032,0.002,0.045,0c0,0,1-0.115,2.37-0.594  c0.508-0.179-6.761-7.982-8.693-10.055L22.125,47.537z" fill-opacity="0.1" stroke-opacity="0.1"/>
<radialGradient cx="-3005.0166" cy="3996.4961" gradientTransform="matrix(0.9664 -0.0083 -0.013 -0.9569 2980.2107 3844.9014)" gradientUnits="userSpaceOnUse" id="SVGID_12_" r="14.9991">
<stop offset="0" style="stop-color:#D3D7D5"/>
<stop offset="0.0424" style="stop-color:#D3D7D5"/>
<stop offset="0.4" style="stop-color:#BDC0BF"/>
<stop offset="0.7333" style="stop-color:#82898B"/>
<stop offset="1" style="stop-color:#ACB2B1"/>
</radialGradient>
<path d="M33.125,56.564c0.785-0.42,0.984-0.408,1.625-0.887c1.178-0.891-10.615-10.968-10.615-10.968  l-2.057,2.111c-0.277,0.833-0.428,1.724-0.415,2.648c0.062,4.526,3.869,8.17,8.542,8.24C30.997,57.499,32.036,57.146,33.125,56.564z  " fill="url(#SVGID_12_)"/>
<path d="M11.808,29.311l0.762-0.258c0,0-3.343-14.954-4.669-14.266  c-0.35,0.181-0.515,0.322-0.688,0.481L11.808,29.311z" fill="#020202" fill-opacity="0.1" stroke-opacity="0.1"/>
<linearGradient gradientTransform="matrix(0.9999 -0.0111 -0.0111 -0.9999 3135.2356 3906.9067)" gradientUnits="userSpaceOnUse" id="SVGID_13_" x1="-3082.8984" x2="-3077.6428" y1="3928.3984" y2="3911.7034">
<stop offset="0" style="stop-color:#ECEFED"/>
<stop offset="0.0424" style="stop-color:#ECEFED"/>
<stop offset="0.4" style="stop-color:#D6D9D7"/>
<stop offset="0.7333" style="stop-color:#9EA7A5"/>
<stop offset="1" style="stop-color:#D4DAD7"/>
</linearGradient>
<path d="M12.57,29.056l2.016-0.703c0.523-0.176,0.792-0.756,0.676-1.346l-1.356-4.141l-2.734-8.162  c-0.214-0.641-0.854-1.006-1.43-0.813c0,0-0.515,0.211-1.837,0.898L12.57,29.056z" fill="url(#SVGID_13_)"/>
<path d="M24.135,44.708l-0.563,0.568l10.516,10.866  c0.227-0.158,0.457-0.313,0.662-0.468C35.928,54.784,24.135,44.708,24.135,44.708z" fill="#020202" fill-opacity="0.1" stroke-opacity="0.1"/>
<linearGradient gradientTransform="matrix(0.9999 -0.0111 -0.0111 -0.9999 3135.2356 3906.9067)" gradientUnits="userSpaceOnUse" id="SVGID_14_" x1="-3066.7827" x2="-3055.8347" y1="3897.6836" y2="3885.627">
<stop offset="0" style="stop-color:#ECEFED"/>
<stop offset="0.0424" style="stop-color:#ECEFED"/>
<stop offset="0.4" style="stop-color:#D6D9D7"/>
<stop offset="0.7333" style="stop-color:#9EA7A5"/>
<stop offset="1" style="stop-color:#D4DAD7"/>
</linearGradient>
<path d="M34.749,55.673c1.176-0.889,1.558-1.273,1.558-1.273c0.438-0.448,0.407-1.204-0.071-1.697  l-9.057-9.322c-0.478-0.496-1.222-0.544-1.66-0.097l-1.383,1.425L34.749,55.673z" fill="url(#SVGID_14_)"/>
</g>
</svg>
