<?xml version="1.0" encoding="UTF-8"?>
<!DOCTYPE svg PUBLIC "-//W3C//DTD SVG 1.1 Tiny//EN" "http://www.w3.org/Graphics/SVG/1.1/DTD/svg11-tiny.dtd">
<svg baseProfile="tiny" height="486px" version="1.1" viewBox="0 0 360 486" width="360px" x="0px" xmlns="http://www.w3.org/2000/svg" xmlns:xlink="http://www.w3.org/1999/xlink" y="0px">
<rect fill="#FFFFFF" height="486" width="360"/>
<linearGradient gradientUnits="userSpaceOnUse" id="SVGID_1_" x1="330" x2="330" y1="19.6665" y2="59.8465">
<stop offset="0" style="stop-color:#FAFAFF"/>
<stop offset="0.9" style="stop-color:#D7D7DC"/>
<stop offset="0.9" style="stop-color:#CDCDD2"/>
<stop offset="1" style="stop-color:#C3C3C8"/>
</linearGradient>
<rect fill="url(#SVGID_1_)" height="40" width="60" x="300" y="20"/>
<rect fill="#AAAAAF" height="1" width="60" x="300" y="59"/>
<rect fill="#FFFFFF" fill-opacity="0.8" height="39" width="1" x="300" y="20"/>
<polygon fill="#FFFFFF" fill-opacity="0.4" points="359,20 359,58 301,58 301,59 360,59 360,20 " stroke-opacity="0.4"/>
<linearGradient gradientUnits="userSpaceOnUse" id="SVGID_2_" x1="30" x2="30" y1="19.6665" y2="59.8465">
<stop offset="0" style="stop-color:#FAFAFF"/>
<stop offset="0.9" style="stop-color:#D7D7DC"/>
<stop offset="0.9" style="stop-color:#CDCDD2"/>
<stop offset="1" style="stop-color:#C3C3C8"/>
</linearGradient>
<rect fill="url(#SVGID_2_)" height="40" width="60" y="20"/>
<rect fill="#AAAAAF" height="1" width="60" y="59"/>
<polygon fill="#FFFFFF" fill-opacity="0.4" points="1,58 1,20 0,20 0,59 59,59 59,58 " stroke-opacity="0.4"/>
<rect fill-opacity="0.2" height="39" width="1" x="59" y="20"/>
<linearGradient gradientUnits="userSpaceOnUse" id="SVGID_3_" x1="179.9995" x2="179.9995" y1="19.6665" y2="59.8465">
<stop offset="0" style="stop-color:#FAFAFF"/>
<stop offset="0.9" style="stop-color:#D7D7DC"/>
<stop offset="0.9" style="stop-color:#CDCDD2"/>
<stop offset="1" style="stop-color:#C3C3C8"/>
</linearGradient>
<rect fill="url(#SVGID_3_)" height="40" width="240" x="60" y="20"/>
<rect fill="#AAAAAF" height="1" width="240" x="60" y="59"/>
<rect fill="#FFFFFF" fill-opacity="0.8" height="39" width="1" x="60" y="20"/>
<rect fill-opacity="0.2" height="39" width="1" x="299" y="20"/>
<rect fill="#FFFFFF" fill-opacity="0.4" height="1" stroke-opacity="0.4" width="238" x="61" y="58"/>
<rect height="20" width="360"/>
<g>
<path d="M38,32c1.65,0,2.235,1.112,1.301,2.472l-7.602,11.056c-0.935,1.36-2.464,1.36-3.398,0l-7.602-11.056   C19.765,33.112,20.35,32,22,32H38z" fill="#3C3C3C"/>
</g>
<g>
<path d="M288,32c1.65,0,2.234,1.112,1.301,2.472l-7.602,11.056c-0.934,1.36-2.465,1.36-3.398,0l-7.602-11.056   C269.766,33.112,270.35,32,272,32H288z" fill="#3C3C3C"/>
</g>
<linearGradient gradientTransform="matrix(0 -1 1 0 -478.5 -890.5)" gradientUnits="userSpaceOnUse" id="SVGID_4_" x1="-893.4995" x2="-908.4995" y1="802.499" y2="802.499">
<stop offset="0" style="stop-color:#92DE2F"/>
<stop offset="1" style="stop-color:#19B016"/>
</linearGradient>
<polygon fill="url(#SVGID_4_)" points="312,7 310,7 310,14 312,14 312,18 338,18 338,3 312,3 "/>
<rect fill-opacity="0.2" height="8" stroke-opacity="0.2" width="2" x="331" y="6.5"/>
<polygon fill-opacity="0.2" points="318,6.5 318,9.5 315,9.5 315,11.5 318,11.5 318,14.5 320,14.5 320,11.5 323,11.5 323,9.5 320,9.5   320,6.5 " stroke-opacity="0.2"/>
<rect fill="none" height="15" width="30" x="309" y="3"/>
<rect fill="url(#SVGID_5_)" height="3" width="4" x="24" y="9"/>
<rect fill="url(#SVGID_5_)" height="6" width="4" x="30" y="7.5"/>
<rect fill="url(#SVGID_7_)" height="9" width="4" x="36" y="6"/>
<rect fill="url(#SVGID_5_)" height="12" width="4" x="42" y="4.5"/>
<rect fill="url(#SVGID_7_)" height="15" width="4" x="48" y="3"/>
<rect fill="none" height="15" width="30" x="23" y="3"/>
<path d="M13.53,15h1.942v-4.838L19,5.91V5h-9v0.91l3.53,4.252V15L13.53,15z" fill="#FFFFFF"/>
<path d="M343,16h7V5.176h-2.042V4h-2.992v1.176H343V16z" fill="#FFFFFF"/>
<g>
<path d="M330,41.5c0,1.65-1.09,2.204-2.422,1.23l-8.156-5.96c-1.332-0.974-1.332-2.566,0-3.54l8.156-5.96   C328.91,26.296,330,26.85,330,28.5V41.5z" fill="#3C3C3C"/>
</g>
<path d="M324.5,35h12c3.85,0,7,3.15,7,7l0,0  c0,3.85-3.15,7-7,7h-15" fill="none" stroke="#3C3C3C" stroke-linecap="round" stroke-width="5"/>
<linearGradient gradientUnits="userSpaceOnUse" id="SVGID_10_" x1="179.9995" x2="179.9995" y1="60" y2="110">
<stop offset="0" style="stop-color:#E6E6EB"/>
<stop offset="1" style="stop-color:#CDCDD2"/>
</linearGradient>
<rect fill="url(#SVGID_10_)" height="50" width="360" y="60"/>
<rect fill="#B4B4B4" height="1" width="360" y="109"/>
<rect fill="#FFFFFF" fill-opacity="0.9" height="1" stroke-opacity="0.9" width="360" y="60"/>
<rect fill-opacity="0.6" height="30" stroke-opacity="0.6" width="30" x="12" y="70"/>
<linearGradient gradientUnits="userSpaceOnUse" id="SVGID_11_" x1="27" x2="27" y1="71.1748" y2="99.1748">
<stop offset="0" style="stop-color:#4EDEFF"/>
<stop offset="1" style="stop-color:#048CC6"/>
</linearGradient>
<rect fill="url(#SVGID_11_)" height="28" width="28" x="13" y="71"/>
<polygon fill-opacity="0.2" points="36,83.879 29.99,83.879 29.99,78 25.99,78 25.99,83.879 20,83.879 20,87.879 25.99,87.879 25.99,94   29.99,94 29.99,87.879 36,87.879 " stroke-opacity="0.2"/>
<rect fill="#FFFFFF" fill-opacity="0.4" height="1" stroke-opacity="0.4" width="28" x="13" y="71"/>
<rect fill-opacity="0.2" height="1" stroke-opacity="0.2" width="28" x="13" y="98"/>
<polygon fill="#FFFFFF" points="35,82.879 28.99,82.879 28.99,77 24.99,77 24.99,82.879 19,82.879 19,86.879 24.99,86.879 24.99,93   28.99,93 28.99,86.879 35,86.879 "/>
<linearGradient gradientUnits="userSpaceOnUse" id="SVGID_12_" x1="179.9995" x2="179.9995" y1="110" y2="160">
<stop offset="0" style="stop-color:#FAFAFA"/>
<stop offset="0.83" style="stop-color:#FAFAFA"/>
<stop offset="1" style="stop-color:#EBEBF0"/>
</linearGradient>
<rect fill="url(#SVGID_12_)" height="50" width="360" y="110"/>
<rect fill="#DCDCDC" height="1" width="360" y="159"/>
<rect fill="#FFFFFF" height="1" width="360" y="158"/>
<linearGradient gradientUnits="userSpaceOnUse" id="SVGID_13_" x1="179.9995" x2="179.9995" y1="160" y2="210">
<stop offset="0" style="stop-color:#FAFAFA"/>
<stop offset="0.83" style="stop-color:#FAFAFA"/>
<stop offset="1" style="stop-color:#EBEBF0"/>
</linearGradient>
<rect fill="url(#SVGID_13_)" height="50" width="360" y="160"/>
<rect fill="#DCDCDC" height="1" width="360" y="209"/>
<rect fill="#FFFFFF" height="1" width="360" y="208"/>
<rect fill-opacity="0.8" height="23.133" width="30.037" x="12" y="121.044"/>
<linearGradient gradientTransform="matrix(1 0 0 1 990.3379 -184.3555)" gradientUnits="userSpaceOnUse" id="SVGID_14_" x1="-963.3193" x2="-963.3193" y1="288.9365" y2="329.0609">
<stop offset="0" style="stop-color:#FFFFFF"/>
<stop offset="1" style="stop-color:#A5A5A5"/>
</linearGradient>
<rect fill="url(#SVGID_14_)" height="21.131" width="28.037" x="13" y="122.045"/>
<rect fill="#FFFFFF" fill-opacity="0.5" height="1.001" width="28.037" x="13" y="122.045"/>
<rect fill-opacity="0.3" height="1.001" width="28.037" x="13" y="142.175"/>
<rect fill="#FFFFFF" height="16.795" width="23.703" x="15.166" y="124.213"/>
<linearGradient gradientTransform="matrix(1 0 0 1 990.3379 -184.3555)" gradientUnits="userSpaceOnUse" id="SVGID_15_" x1="-963.3203" x2="-963.3203" y1="308.4102" y2="327.536">
<stop offset="0" style="stop-color:#1C1C1C"/>
<stop offset="0.5" style="stop-color:#636363"/>
<stop offset="1" style="stop-color:#808080"/>
</linearGradient>
<rect fill="url(#SVGID_15_)" height="14.793" width="21.703" x="16.166" y="125.214"/>
<linearGradient gradientTransform="matrix(1 0 0 1 990.3379 -184.3555)" gradientUnits="userSpaceOnUse" id="SVGID_16_" x1="-963.3213" x2="-963.3213" y1="313.3691" y2="325.6874">
<stop offset="0" style="stop-color:#C6FF45"/>
<stop offset="1" style="stop-color:#4B8B00"/>
</linearGradient>
<path d="M37.869,134.086c-1.313-2.563-3.679-4.275-6.389-4.275c-3.396,0-6.262,2.688-7.178,6.362  c-0.893-1.84-2.446-3.064-4.228-3.064c-1.581,0-2.991,0.97-3.911,2.481v4.411h21.703L37.869,134.086L37.869,134.086z" fill="url(#SVGID_16_)"/>
<rect fill-opacity="0.8" height="21.021" width="27.871" x="13.082" y="174.099"/>
<linearGradient gradientTransform="matrix(1 0 0 1 990.3379 -184.3555)" gradientUnits="userSpaceOnUse" id="SVGID_17_" x1="-963.3203" x2="-963.3203" y1="358.3281" y2="379.7901">
<stop offset="0" style="stop-color:#FEAB0E"/>
<stop offset="0.3091" style="stop-color:#FEAB0E"/>
<stop offset="0.7879" style="stop-color:#FFDA33"/>
<stop offset="1" style="stop-color:#FFE692"/>
</linearGradient>
<rect fill="url(#SVGID_17_)" height="19.02" width="25.871" x="14.082" y="175.1"/>
<polygon fill="#FFFFFF" fill-opacity="0.4" points="27.016,182.106 14.32,194.119 15.482,194.119 27.016,184.108 38.551,194.119   39.713,194.119 "/>
<linearGradient gradientTransform="matrix(1 0 0 1 990.3379 -184.3555)" gradientUnits="userSpaceOnUse" id="SVGID_18_" x1="-963.3203" x2="-963.3203" y1="359.7939" y2="398.7026">
<stop offset="0" style="stop-color:#C9700B"/>
<stop offset="0.1576" style="stop-color:#C9700B"/>
<stop offset="0.7333" style="stop-color:#FFDA33"/>
<stop offset="1" style="stop-color:#FFE692"/>
</linearGradient>
<polygon fill="url(#SVGID_18_)" fill-opacity="0.5" points="39.953,175.1 27.152,176.101 14.082,175.1 14.082,175.27   22.898,185.121 14.082,194.055 14.082,194.223 14.221,194.213 23.361,185.562 27.016,189.217 30.672,185.562 39.813,194.213   39.953,194.223 39.953,194.055 31.158,185.121 39.953,175.27 "/>
<linearGradient gradientTransform="matrix(1 0 0 1 990.3379 -184.3555)" gradientUnits="userSpaceOnUse" id="SVGID_19_" x1="-963.3213" x2="-963.3213" y1="358.9834" y2="376.1277">
<stop offset="0" style="stop-color:#FFF273"/>
<stop offset="1" style="stop-color:#FFFFFF"/>
</linearGradient>
<polygon fill="url(#SVGID_19_)" points="14.209,175.1 27.016,187.215 39.824,175.1 "/>
<linearGradient gradientUnits="userSpaceOnUse" id="SVGID_20_" x1="60" x2="60" y1="425.5" y2="485.77">
<stop offset="0" style="stop-color:#66B8CC"/>
<stop offset="0.9" style="stop-color:#3F89A9"/>
<stop offset="0.9" style="stop-color:#3880A4"/>
<stop offset="1" style="stop-color:#3278A0"/>
</linearGradient>
<rect fill="url(#SVGID_20_)" height="60" width="120" y="426"/>
<path d="M0,426v60h120v-60H0z M119,485H1v-58h118V485z" fill-opacity="0.2" stroke-opacity="0.2"/>
<linearGradient gradientUnits="userSpaceOnUse" id="SVGID_21_" x1="179.9995" x2="179.9995" y1="425.5" y2="485.77">
<stop offset="0" style="stop-color:#FAFAFF"/>
<stop offset="0.9" style="stop-color:#D7D7DC"/>
<stop offset="0.9" style="stop-color:#CDCDD2"/>
<stop offset="1" style="stop-color:#C3C3C8"/>
</linearGradient>
<rect fill="url(#SVGID_21_)" height="60" width="120" x="120" y="426"/>
<linearGradient gradientUnits="userSpaceOnUse" id="SVGID_22_" x1="300" x2="300" y1="425.5" y2="485.77">
<stop offset="0" style="stop-color:#FAFAFF"/>
<stop offset="0.9" style="stop-color:#D7D7DC"/>
<stop offset="0.9" style="stop-color:#CDCDD2"/>
<stop offset="1" style="stop-color:#C3C3C8"/>
</linearGradient>
<rect fill="url(#SVGID_22_)" height="60" width="120" x="240" y="426"/>
<rect fill-opacity="0.1" height="1" stroke-opacity="0.1" width="240" x="120" y="485"/>
<rect fill="#FFFFFF" fill-opacity="0.4" height="1" stroke-opacity="0.4" width="240" x="120" y="484"/>
<rect fill="#FFFFFF" fill-opacity="0.9" height="58" stroke-opacity="0.9" width="1" x="120" y="427"/>
<rect fill="none" height="40" width="40" x="40" y="436"/>
<g>
<g>
<path d="M41.376,456c0.019,10.268,8.353,18.605,18.624,18.624c10.268-0.019,18.607-8.356,18.624-18.624    c-0.017-10.268-8.356-18.607-18.624-18.625C49.729,437.393,41.395,445.732,41.376,456z M49.439,459.484l-0.924,1.229    c0,0-0.086,2.324-0.092,2.423c-0.076,0.225-0.693,0.148-0.932,0.148c-0.807,0.761,0.421,1.424,0.217,1.895    c-0.197,0.457-0.454,0.971-0.773,1.432c-2.256-2.883-4.664-8.228-3.11-14.514c0.196,0.094,0.442,0.332,0.75,0.756    c0.337,0.467,0.313,1.104,0.631,1.394c0.378,0.347,0.784,1.573,0.784,1.573l1.043,1.125l2.408,1.56v0.979H49.439z M72.341,465.007    c-0.702,0.229-0.458-0.546-0.458-0.546s0.629-1.391,0.643-1.501c0.033-0.263,0.863-0.524,0.863-0.524l0.553-0.877    C74.762,461.393,73.805,464.527,72.341,465.007z M66.613,441.048c0.264,0.034,0.184,0.284,0.479,0.284    c0.101,0,0.53-0.111,1.054-0.258c4.179,2.173,7.342,6.029,8.584,10.674c-0.055-0.003-0.088-0.008-0.088-0.008    s-0.1-0.065-0.246-0.16l-0.516-1.021l-0.816-0.066L73.4,449.09c0,0,0.44,1.131,1.172,1.664c0.476,0.033,0.799-0.031,0.822-0.008    c0.521,1.373-0.594,3.061-1.887,3.372c-0.162-0.704-0.306-0.979-0.512-1.58l-2.266-3.081l-0.131,0.324l1.045,1.591    c0,0,0.74,1.241,1.047,1.961c0.588,0.522,0.703,0.739,0.763,1.272c0.207,0.066,0.37,0.078,1.022-0.162    c0.988-0.363,0.424,1.162,0.262,1.588c-0.592,1.445-0.723,1.332-1.655,2.279c-1.44,1.019-0.668,2.793-0.731,4.229    c0,0-1.455,0.979-1.994,1.192c-0.5,0.713-0.01,1.389-0.262,1.406c-0.766,0.25-1.925,1.437-2.123,1.6    c-0.688,0.889-1.113,1.017-1.923,0.945c-2.257-0.638-1.577-2.983-1.678-3.244c-0.276-0.898-1.153-1.029-0.013-2.746    c0.479-0.564,0.045-1.822-0.827-3.043c-0.4-0.563,0.28-1.869,0.229-1.877c-1.462-0.272-1.765-0.93-1.828-1.096    c0,0-2.975,0.594-4.002,0.508c-0.787-0.063-2.488-2.101-2.816-2.854c-0.327-0.755,0.619-3.301,0.654-3.496    c0.033-0.197,2.244-1.732,2.244-1.732l1.504-1.465l-0.9-0.443c0,0,0.186-1.838,1.014-1.373c0.087,0.05,0.555,0.146,1.082,0.1    c0.559-0.352-0.611-0.813-0.484-1.288c0.029-0.112,0.463-0.165,0.026-0.56c-0.696-0.631-0.194-1.09,0.239-1.198    c0.48,0.177,0.785,0.608,0.785,1.198c0,0.592,1.559-0.27,1.654-0.37c-0.695-0.501-1.045-1.294-0.785-1.327    c0.268-0.036,1.422-0.335,1.717-0.633C64.157,440.449,66.348,441.018,66.613,441.048z M57.624,440.73    c0.215-0.104,0.614,0.104,0.89,0.063c0.276-0.041,0.521,0.063,0.521,0.063s-0.491,0.23-0.705,0.271    C58.115,441.169,57.809,440.959,57.624,440.73z M55.486,439.866c1.533-0.454,3.158-0.699,4.836-0.699    c1.305,0,2.576,0.147,3.796,0.427c-1.636,0.352-3.429-0.07-3.429-0.07c-0.164,0.263-0.905,0.125-1.101,0.125    c-0.198,0-1.213,0.838-2.168,0.758c-0.459,0.295-0.864,0.623-1.358,0.46c-0.492-0.164-1.436,0.653-1.795,0.688    c-0.49,0.154-0.725,0.118-0.793-0.025C54.6,440.841,55.059,440.279,55.486,439.866z M52.275,441.191l-0.95,1.119    c0,0-0.196,0.588-0.306,0.74c-0.108,0.152-0.653,0.742-0.653,0.742l-0.457-0.195l-0.066-0.24c0,0-0.502,0.152-0.502,0.457    c0,0.306-1.938,1.574-2.522,2.037C48.281,443.936,50.143,442.342,52.275,441.191z" fill="#FFFFFF"/>
<path d="M64.55,442.609c0.171,0.152,0.739,0.465,0.825-0.047c0.085-0.514-0.452-1.293-0.452-1.293    s-0.54,0.131-0.403,0.48S64.381,442.459,64.55,442.609z" fill="#FFFFFF"/>
<path d="M68.768,445.863c0,0,0.515-0.094,1.015,0.1c1.418,0.286,0.977-0.234,0.304-0.6    c-0.238-0.129-0.583-0.316-0.4-0.559c-0.158-0.255-0.5-0.074-0.742,0.191c-0.243,0.266-0.771-0.121-0.932,0.37    C67.85,445.855,68.652,446.085,68.768,445.863z" fill="#FFFFFF"/>
<path d="M62.225,445.034c-0.348,0.296-1.313,1.204-1.313,1.204l-1.345,0.479l1.213,0.189l1.244-0.368l1.951,0.129    l0.318,0.919c0,0,2.137,1.059,2.342,0.844c0.316-0.326,0.486-0.795,0.963-0.469c0.478,0.328,1.252,0.329,1.812,0.329    c0.231,0.067,1.053,0.61,1.03-0.739c-0.362-0.304-2.353-0.177-2.916-1.48l-0.285,0.041c0,0,0.189,0.92-0.041,0.902    c-0.536-0.039-1.096-1-1.096-1l-0.104-0.408l-1.4-0.793c0,0-0.008,0.233,1.084,1.19c0,0-0.369,0.631-0.857,0.664    c0.123-0.164,0.216-0.655,0.216-0.655l-1.345-1.076C63.693,444.936,62.52,444.784,62.225,445.034z" fill="#FFFFFF"/>
<path d="M72.08,446.314c0.381,0.356,0.218,0.623,0.471,0.848c0.252,0.225,0.842,0.25,0.463-0.262    c-0.459-0.616-0.938-1.096-1.045-1.248c-0.203-0.283,0.115-0.879-0.42-0.625C71.234,445.586,71.534,445.807,72.08,446.314z" fill="#FFFFFF"/>
</g>
</g>
<path d="M196.674,467.354l-5.824-5.83c1.336-2.258,2.119-4.891,2.119-7.705c0-8.369-6.787-15.152-15.152-15.152  c-8.367,0-15.15,6.783-15.15,15.15c0,8.365,6.783,15.152,15.15,15.152c3.111,0,5.998-0.939,8.404-2.549l5.693,5.693  c0.875,0.875,2.297,0.875,3.172,0l1.588-1.588C197.553,469.65,197.553,468.23,196.674,467.354z M177.816,465.182  c-6.273,0-11.361-5.088-11.361-11.363s5.088-11.363,11.361-11.363c6.275,0,11.363,5.088,11.363,11.363  C189.182,460.092,184.092,465.182,177.816,465.182z M179.334,447.334h-2.668v5.332h-5.332v2.668h5.332v5.332h2.668v-5.332h5.332  v-2.668h-5.332V447.334z" fill="#3C3C3C"/>
<rect fill="none" height="40" width="40" x="160" y="436"/>
<path d="M316.674,467.354l-5.824-5.83c1.336-2.258,2.119-4.891,2.119-7.705c0-8.369-6.787-15.152-15.152-15.152  c-8.367,0-15.15,6.783-15.15,15.15c0,8.365,6.783,15.152,15.15,15.152c3.111,0,5.998-0.939,8.404-2.549l5.693,5.693  c0.875,0.875,2.297,0.875,3.172,0l1.588-1.588C317.553,469.65,317.553,468.23,316.674,467.354z M297.816,465.182  c-6.273,0-11.361-5.088-11.361-11.363s5.088-11.363,11.361-11.363c6.275,0,11.363,5.088,11.363,11.363  C309.182,460.092,304.092,465.182,297.816,465.182z M296.666,452.666h-5.332v2.668h5.332h2.668h5.332v-2.668h-5.332H296.666z" fill="#3C3C3C"/>
<rect fill="none" height="40" width="40" x="280" y="436"/>
<rect fill="#FFFFFF" fill-opacity="0.9" height="58" stroke-opacity="0.9" width="1" x="240" y="427"/>
<rect fill="#9696A0" fill-opacity="0.5" height="58" stroke-opacity="0.5" width="1" x="239" y="427"/>
<path d="M1,427v3v55h118v-55v-3H1z M118,484H2v-54h116V484z" fill="#FFFFFF" fill-opacity="0.2" stroke-opacity="0.2"/>
<rect fill="none" height="71.71" width="71.63" x="31.249" y="304.29"/>
<linearGradient gradientTransform="matrix(1 0 0 -1 872.707 -547.8535)" gradientUnits="userSpaceOnUse" id="SVGID_23_" x1="-818.8013" x2="-818.8013" y1="-861.4771" y2="-906.4761">
<stop offset="0" style="stop-color:#D1D7D9"/>
<stop offset="0.07" style="stop-color:#D1D7D9"/>
<stop offset="0.26" style="stop-color:#BDC2C4"/>
<stop offset="0.66" style="stop-color:#949DA1"/>
<stop offset="0.96" style="stop-color:#ADB3B5"/>
<stop offset="1" style="stop-color:#595C5E"/>
</linearGradient>
<path d="M68.521,355.508c0,1.617-1.313,2.928-2.923,2.928H42.21c-1.612,0-2.923-1.314-2.923-2.928v-39.515  c0-1.615,1.313-2.927,2.923-2.927H65.6c1.61,0,2.925,1.313,2.925,2.927L68.521,355.508L68.521,355.508z" fill="url(#SVGID_23_)"/>
<linearGradient gradientTransform="matrix(1 0 0 -1 872.707 -547.8535)" gradientUnits="userSpaceOnUse" id="SVGID_24_" x1="-818.8022" x2="-818.8022" y1="-860.9219" y2="-905.2533">
<stop offset="0" style="stop-color:#D5D7DB"/>
<stop offset="0.67" style="stop-color:#85878A"/>
<stop offset="1" style="stop-color:#808184"/>
</linearGradient>
<path d="M65.596,313.068H42.21c-1.612,0-2.923,1.315-2.923,2.927v39.515c0,0.776,0.313,1.484,0.811,2.013  c-0.045-0.177-0.078-0.356-0.078-0.55v-1.463v-38.049v-1.466c0-1.21,0.98-2.191,2.19-2.191h23.388c1.209,0,2.188,0.981,2.188,2.191  v1.466v38.049v1.463c0,0.189-0.027,0.373-0.076,0.55c0.498-0.522,0.813-1.232,0.813-2.013v-39.515  C68.521,314.38,67.212,313.068,65.596,313.068z" fill="url(#SVGID_24_)"/>
<linearGradient gradientTransform="matrix(1 0 0 -1 872.707 -547.8535)" gradientUnits="userSpaceOnUse" id="SVGID_25_" x1="-818.8018" x2="-818.8018" y1="-864.6211" y2="-893.1293">
<stop offset="0" style="stop-color:#878B8C"/>
<stop offset="1" style="stop-color:#B1BABD"/>
</linearGradient>
<rect fill="url(#SVGID_25_)" fill-opacity="0.6" height="28.539" width="24.85" x="41.48" y="316.727"/>
<linearGradient gradientTransform="matrix(1 0 0 -1 872.707 -547.8535)" gradientUnits="userSpaceOnUse" id="SVGID_26_" x1="-818.8022" x2="-818.8022" y1="-865.3496" y2="-892.3885">
<stop offset="0" style="stop-color:#3D3D3D"/>
<stop offset="1" style="stop-color:#1A1A1A"/>
</linearGradient>
<rect fill="url(#SVGID_26_)" height="27.075" width="23.39" x="42.21" y="317.457"/>
<linearGradient gradientTransform="matrix(1 0 0 -1 872.707 -547.8535)" gradientUnits="userSpaceOnUse" id="SVGID_27_" x1="-818.8022" x2="-818.8022" y1="-866.0811" y2="-891.6562">
<stop offset="0" style="stop-color:#3BC8EB"/>
<stop offset="0.39" style="stop-color:#2D9BD2"/>
<stop offset="0.89" style="stop-color:#1347BA"/>
<stop offset="1" style="stop-color:#1347BA"/>
</linearGradient>
<rect fill="url(#SVGID_27_)" height="25.608" width="21.925" x="42.942" y="318.192"/>
<linearGradient gradientTransform="matrix(1 0 0 -1 872.707 -547.8535)" gradientUnits="userSpaceOnUse" id="SVGID_28_" x1="-818.8022" x2="-818.8022" y1="-866.6543" y2="-876.9822">
<stop offset="0" style="stop-color:#85EFFF"/>
<stop offset="1" style="stop-color:#3BA1D9"/>
</linearGradient>
<polygon fill="url(#SVGID_28_)" points="64.867,326.971 42.942,329.9 42.942,318.922 64.867,318.922 "/>
<rect fill="#9FE4FF" height="0.729" width="21.925" x="42.942" y="318.192"/>
<linearGradient gradientTransform="matrix(1 0 0 -1 872.707 -547.8535)" gradientUnits="userSpaceOnUse" id="SVGID_29_" x1="-818.4209" x2="-818.4209" y1="-864.6221" y2="-861.6934">
<stop offset="0" style="stop-color:#CFCFCF"/>
<stop offset="1" style="stop-color:#808385"/>
</linearGradient>
<path d="M51.678,316.727c-0.818,0-1.461-0.534-1.461-1.219v-0.486c0-0.687,0.643-1.22,1.461-1.22h5.216  c0.815,0,1.462,0.533,1.462,1.22v0.486c0,0.687-0.646,1.223-1.462,1.223h-5.216V316.727z" fill="url(#SVGID_29_)"/>
<linearGradient gradientTransform="matrix(1 0 0 -1 872.707 -547.8535)" gradientUnits="userSpaceOnUse" id="SVGID_30_" x1="-818.4209" x2="-818.4209" y1="-862.0874" y2="-863.9773">
<stop offset="0" style="stop-color:#343838"/>
<stop offset="1" style="stop-color:#7D8182"/>
</linearGradient>
<path d="M57.623,315.508c0,0.272-0.322,0.487-0.728,0.487h-5.218c-0.402,0-0.729-0.219-0.729-0.487v-0.486  c0-0.271,0.326-0.485,0.729-0.485h5.218c0.399,0,0.728,0.222,0.728,0.485V315.508z" fill="url(#SVGID_30_)"/>
<linearGradient gradientTransform="matrix(1 0 0 -1 872.707 -547.8535)" gradientUnits="userSpaceOnUse" id="SVGID_31_" x1="-818.8018" x2="-818.8018" y1="-893.8818" y2="-904.027">
<stop offset="0" style="stop-color:#878B8C"/>
<stop offset="1" style="stop-color:#B1BABD"/>
</linearGradient>
<path d="M51.629,356.239c-1.564,0-2.84-1.265-2.84-2.815v-4.616  c0-1.55,1.271-2.813,2.84-2.813h4.554c1.563,0,2.839,1.264,2.839,2.813v4.616c0,1.553-1.273,2.815-2.841,2.815H51.629  L51.629,356.239z" fill="url(#SVGID_31_)" fill-opacity="0.6"/>
<path d="M51.623,355.508c-1.16,0-2.104-0.938-2.104-2.082v-4.614c0-1.147,0.941-2.08,2.104-2.08  h4.562c1.159,0,2.104,0.937,2.104,2.08v4.614c0,1.146-0.941,2.082-2.104,2.082H51.623L51.623,355.508z" fill="#020202" fill-opacity="0.5"/>
<linearGradient gradientTransform="matrix(1 0 0 -1 872.707 -547.8535)" gradientUnits="userSpaceOnUse" id="SVGID_32_" x1="-818.8037" x2="-818.8037" y1="-895.2803" y2="-902.6409">
<stop offset="0" style="stop-color:#D1D7D9"/>
<stop offset="0.07" style="stop-color:#D1D7D9"/>
<stop offset="0.26" style="stop-color:#BDC2C4"/>
<stop offset="0.66" style="stop-color:#949DA1"/>
<stop offset="0.96" style="stop-color:#ADB3B5"/>
<stop offset="1" style="stop-color:#595C5E"/>
</linearGradient>
<path d="M57.557,353.426c0,0.745-0.612,1.352-1.366,1.352h-4.571c-0.756,0-1.369-0.606-1.369-1.352v-4.616  c0-0.742,0.613-1.351,1.369-1.351h4.571c0.754,0,1.366,0.604,1.366,1.351V353.426z" fill="url(#SVGID_32_)"/>
<path d="M53.174,353.313c-0.81,0-1.465-0.653-1.465-1.462v-1.465  c0-0.812,0.654-1.464,1.465-1.464h1.46c0.807,0,1.463,0.652,1.463,1.464v1.465c0,0.809-0.654,1.462-1.463,1.462H53.174z" fill="#020202" fill-opacity="0.5"/>
<linearGradient gradientTransform="matrix(1 0 0 -1 872.707 -547.8535)" gradientUnits="userSpaceOnUse" id="SVGID_33_" x1="-818.8042" x2="-818.8042" y1="-897.502" y2="-900.4408">
<stop offset="0" style="stop-color:#A6A8AB"/>
<stop offset="0.7" style="stop-color:#58595B"/>
<stop offset="1" style="stop-color:#808184"/>
</linearGradient>
<path d="M53.174,352.577c-0.404,0-0.73-0.326-0.73-0.729v-1.465c0-0.398,0.328-0.729,0.73-0.729h1.46  c0.4,0,0.729,0.329,0.729,0.729v1.465c0,0.4-0.328,0.729-0.729,0.729H53.174z" fill="url(#SVGID_33_)"/>
<linearGradient gradientTransform="matrix(1 0 0 -1 872.707 -547.8535)" gradientUnits="userSpaceOnUse" id="SVGID_34_" x1="-828.3027" x2="-828.3027" y1="-894.5508" y2="-902.6424">
<stop offset="0" style="stop-color:#878B8C"/>
<stop offset="1" style="stop-color:#B1BABD"/>
</linearGradient>
<path d="M44.405,354.777c-1.611,0-2.925-1.264-2.925-2.817v-2.421  c0-1.55,1.313-2.813,2.925-2.813l0,0c1.61,0,2.923,1.264,2.923,2.813v2.421C47.328,353.514,46.014,354.777,44.405,354.777  L44.405,354.777z" fill="url(#SVGID_34_)" fill-opacity="0.6"/>
<linearGradient gradientTransform="matrix(1 0 0 -1 872.707 -547.8535)" gradientUnits="userSpaceOnUse" id="SVGID_35_" x1="-828.3008" x2="-828.3008" y1="-895.2793" y2="-901.9127">
<stop offset="0" style="stop-color:#231F20"/>
<stop offset="1" style="stop-color:#6D6E70"/>
</linearGradient>
<path d="M44.405,354.042c-1.193,0-2.162-0.933-2.162-2.082v-2.421  c0-1.147,0.969-2.08,2.162-2.08l0,0c1.192,0,2.163,0.933,2.163,2.084v2.421C46.566,353.111,45.598,354.042,44.405,354.042  L44.405,354.042z" fill="url(#SVGID_35_)" fill-opacity="0.7"/>
<linearGradient gradientTransform="matrix(1 0 0 -1 872.707 -547.8535)" gradientUnits="userSpaceOnUse" id="SVGID_36_" x1="-828.3032" x2="-828.3032" y1="-896.0176" y2="-901.1686">
<stop offset="0" style="stop-color:#C6FF45"/>
<stop offset="0.73" style="stop-color:#66A00E"/>
<stop offset="1" style="stop-color:#387300"/>
</linearGradient>
<path d="M45.805,351.96c0,0.748-0.627,1.353-1.399,1.353l0,0c-0.775,0-1.402-0.604-1.402-1.353v-2.421  c0-0.743,0.627-1.351,1.402-1.351l0,0c0.772,0,1.399,0.605,1.399,1.354V351.96z" fill="url(#SVGID_36_)"/>
<linearGradient gradientTransform="matrix(1 0 0 -1 872.707 -547.8535)" gradientUnits="userSpaceOnUse" id="SVGID_37_" x1="-809.3008" x2="-809.3008" y1="-894.5508" y2="-902.6424">
<stop offset="0" style="stop-color:#878B8C"/>
<stop offset="1" style="stop-color:#B1BABD"/>
</linearGradient>
<path d="M63.457,354.777c-1.641,0-2.977-1.264-2.977-2.817v-2.421  c0-1.55,1.336-2.813,2.977-2.813h-0.104c1.643,0,2.979,1.264,2.979,2.813v2.421c0,1.554-1.336,2.817-2.977,2.817H63.457  L63.457,354.777z" fill="url(#SVGID_37_)" fill-opacity="0.6"/>
<linearGradient gradientTransform="matrix(1 0 0 -1 872.707 -547.8535)" gradientUnits="userSpaceOnUse" id="SVGID_38_" x1="-809.2998" x2="-809.2998" y1="-895.2793" y2="-901.9127">
<stop offset="0" style="stop-color:#231F20"/>
<stop offset="1" style="stop-color:#6D6E70"/>
</linearGradient>
<path d="M63.457,354.042c-1.215,0-2.199-0.933-2.199-2.082v-2.421  c0-1.147,0.984-2.08,2.199-2.08h-0.104c1.217,0,2.203,0.933,2.203,2.08v2.421c0,1.147-0.986,2.082-2.203,2.082H63.457z" fill="url(#SVGID_38_)" fill-opacity="0.7"/>
<linearGradient gradientTransform="matrix(1 0 0 -1 872.707 -547.8535)" gradientUnits="userSpaceOnUse" id="SVGID_39_" x1="-809.3018" x2="-809.3018" y1="-896.0186" y2="-901.1683">
<stop offset="0" style="stop-color:#FFC142"/>
<stop offset="0.75" style="stop-color:#CF4E18"/>
<stop offset="1" style="stop-color:#B52100"/>
</linearGradient>
<path d="M64.781,351.96c0,0.748-0.641,1.353-1.43,1.353h0.105c-0.789,0-1.428-0.604-1.428-1.353v-2.421  c0-0.743,0.639-1.351,1.428-1.351h-0.105c0.789,0,1.43,0.605,1.43,1.351V351.96z" fill="url(#SVGID_39_)"/>
<rect fill="#020202" fill-opacity="0.2" height="45.363" width="1.46" x="56.829" y="313.068"/>
<rect fill="#020202" fill-opacity="0.1" height="45.363" width="2.924" x="57.557" y="313.068"/>
<linearGradient gradientTransform="matrix(1 0 0 -1 872.707 -547.8535)" gradientUnits="userSpaceOnUse" id="SVGID_40_" x1="-797.2446" x2="-797.2446" y1="-860.9258" y2="-913.4673">
<stop offset="0" style="stop-color:#D1D7D9"/>
<stop offset="0.07" style="stop-color:#D1D7D9"/>
<stop offset="0.26" style="stop-color:#BDC2C4"/>
<stop offset="0.66" style="stop-color:#949DA1"/>
<stop offset="0.96" style="stop-color:#ADB3B5"/>
<stop offset="1" style="stop-color:#595C5E"/>
</linearGradient>
<path d="M92.636,362.826c0,1.615-1.31,2.929-2.921,2.929H61.211c-1.611,0-2.924-1.313-2.924-2.929v-46.827  c0-1.615,1.313-2.927,2.924-2.927h28.506c1.611,0,2.921,1.315,2.921,2.927L92.636,362.826L92.636,362.826z" fill="url(#SVGID_40_)"/>
<linearGradient gradientTransform="matrix(1 0 0 -1 872.707 -547.8535)" gradientUnits="userSpaceOnUse" id="SVGID_41_" x1="-797.2446" x2="-797.2446" y1="-860.9219" y2="-912.5552">
<stop offset="0" style="stop-color:#E4EBED"/>
<stop offset="0.07" style="stop-color:#E4EBED"/>
<stop offset="0.26" style="stop-color:#D6DCDE"/>
<stop offset="0.66" style="stop-color:#B2BEC2"/>
<stop offset="1" style="stop-color:#ADB3B5"/>
</linearGradient>
<path d="M89.715,313.068H61.211c-1.611,0-2.924,1.315-2.924,2.927v46.827c0,0.778,0.313,1.482,0.813,2.014  c-0.045-0.178-0.078-0.355-0.078-0.549v-1.465v-45.361v-1.466c0-1.21,0.98-2.191,2.189-2.191h28.504  c1.209,0,2.188,0.981,2.188,2.191v1.466v45.361v1.465c0,0.188-0.031,0.373-0.076,0.549c0.498-0.523,0.811-1.229,0.811-2.014v-46.827  C92.636,314.38,91.328,313.068,89.715,313.068z" fill="url(#SVGID_41_)"/>
<linearGradient gradientTransform="matrix(1 0 0 -1 872.707 -547.8535)" gradientUnits="userSpaceOnUse" id="SVGID_42_" x1="-797.2441" x2="-797.2441" y1="-864.6318" y2="-899.7132">
<stop offset="0" style="stop-color:#B6BBBD"/>
<stop offset="1" style="stop-color:#F0FBFF"/>
</linearGradient>
<rect fill="url(#SVGID_42_)" fill-opacity="0.6" height="35.124" width="29.965" x="60.48" y="316.727"/>
<linearGradient gradientTransform="matrix(1 0 0 -1 872.707 -547.8535)" gradientUnits="userSpaceOnUse" id="SVGID_43_" x1="-797.2432" x2="-797.2432" y1="-865.3613" y2="-898.9704">
<stop offset="0" style="stop-color:#6E6E6E"/>
<stop offset="1" style="stop-color:#333333"/>
</linearGradient>
<rect fill="url(#SVGID_43_)" height="33.658" width="28.506" x="61.211" y="317.457"/>
<linearGradient gradientTransform="matrix(1 0 0 -1 872.707 -547.8535)" gradientUnits="userSpaceOnUse" id="SVGID_44_" x1="-797.2432" x2="-797.2432" y1="-866.0928" y2="-898.2414">
<stop offset="0" style="stop-color:#3BC8EB"/>
<stop offset="0.39" style="stop-color:#2D9BD2"/>
<stop offset="0.89" style="stop-color:#1347BA"/>
<stop offset="1" style="stop-color:#1347BA"/>
</linearGradient>
<rect fill="url(#SVGID_44_)" height="32.193" width="27.041" x="61.943" y="318.192"/>
<linearGradient gradientTransform="matrix(1 0 0 -1 872.707 -547.8535)" gradientUnits="userSpaceOnUse" id="SVGID_45_" x1="-797.2432" x2="-797.2432" y1="-866.6309" y2="-879.0234">
<stop offset="0" style="stop-color:#85EFFF"/>
<stop offset="1" style="stop-color:#3BA1D9"/>
</linearGradient>
<polygon fill="url(#SVGID_45_)" points="88.984,329.167 61.943,332.094 61.943,318.922 88.984,318.922 "/>
<rect fill="#9FE4FF" height="0.729" width="27.041" x="61.943" y="318.192"/>
<linearGradient gradientTransform="matrix(1 0 0 -1 872.707 -547.8535)" gradientUnits="userSpaceOnUse" id="SVGID_46_" x1="-797.3574" x2="-797.3574" y1="-900.4639" y2="-911.3424">
<stop offset="0" style="stop-color:#B6BBBD"/>
<stop offset="1" style="stop-color:#FFFFFF"/>
</linearGradient>
<path d="M72.707,363.556c-1.564,0-2.84-1.265-2.84-2.815v-5.352  c0-1.552,1.271-2.815,2.84-2.815h5.285c1.563,0,2.839,1.268,2.839,2.815v5.352c0,1.551-1.271,2.815-2.839,2.815H72.707  L72.707,363.556z" fill="url(#SVGID_46_)" fill-opacity="0.6"/>
<path d="M72.705,362.826c-1.162,0-2.104-0.935-2.104-2.08v-5.352  c0-1.147,0.941-2.082,2.104-2.082h5.293c1.162,0,2.104,0.938,2.104,2.082v5.352c0,1.147-0.942,2.08-2.104,2.08H72.705z" fill="#020202" fill-opacity="0.5"/>
<linearGradient gradientTransform="matrix(1 0 0 -1 872.707 -547.8535)" gradientUnits="userSpaceOnUse" id="SVGID_47_" x1="-797.3569" x2="-797.3569" y1="-901.8623" y2="-909.9554">
<stop offset="0" style="stop-color:#A6A8AB"/>
<stop offset="0.7" style="stop-color:#58595B"/>
<stop offset="1" style="stop-color:#808184"/>
</linearGradient>
<path d="M79.37,360.742c0,0.741-0.61,1.351-1.364,1.351h-5.307c-0.756,0-1.369-0.604-1.369-1.351v-5.352  c0-0.746,0.613-1.354,1.369-1.354h5.307c0.754,0,1.364,0.606,1.364,1.354V360.742z" fill="url(#SVGID_47_)"/>
<path d="M74.254,360.631c-0.809,0-1.465-0.657-1.465-1.467v-2.193  c0-0.81,0.656-1.465,1.465-1.465h2.189c0.811,0,1.463,0.655,1.463,1.465v2.193c0,0.81-0.652,1.467-1.463,1.467H74.254z" fill="#020202" fill-opacity="0.2"/>
<linearGradient gradientTransform="matrix(1 0 0 -1 872.707 -547.8535)" gradientUnits="userSpaceOnUse" id="SVGID_48_" x1="-797.3574" x2="-797.3574" y1="-904.0752" y2="-907.7556">
<stop offset="0" style="stop-color:#D1D7D9"/>
<stop offset="0.07" style="stop-color:#D1D7D9"/>
<stop offset="0.26" style="stop-color:#BDC2C4"/>
<stop offset="0.66" style="stop-color:#949DA1"/>
<stop offset="0.96" style="stop-color:#ADB3B5"/>
<stop offset="1" style="stop-color:#595C5E"/>
</linearGradient>
<path d="M74.254,359.897c-0.4,0-0.729-0.328-0.729-0.729v-2.193c0-0.398,0.328-0.729,0.729-0.729h2.189  c0.402,0,0.73,0.329,0.73,0.729v2.193c0,0.399-0.328,0.729-0.73,0.729H74.254z" fill="url(#SVGID_48_)"/>
<linearGradient gradientTransform="matrix(1 0 0 -1 872.707 -547.8535)" gradientUnits="userSpaceOnUse" id="SVGID_49_" x1="-808.9922" x2="-808.9922" y1="-901.1221" y2="-909.9692">
<stop offset="0" style="stop-color:#B6BBBD"/>
<stop offset="1" style="stop-color:#F0FBFF"/>
</linearGradient>
<path d="M63.293,362.091c-1.549,0-2.813-1.265-2.813-2.815v-3.149  c0-1.553,1.262-2.815,2.813-2.815h0.846c1.551,0,2.812,1.265,2.812,2.815v3.149c0,1.555-1.263,2.815-2.812,2.815H63.293  L63.293,362.091z" fill="url(#SVGID_49_)" fill-opacity="0.4"/>
<linearGradient gradientTransform="matrix(1 0 0 -1 872.707 -547.8535)" gradientUnits="userSpaceOnUse" id="SVGID_50_" x1="-808.9922" x2="-808.9922" y1="-901.8643" y2="-909.2257">
<stop offset="0" style="stop-color:#231F20"/>
<stop offset="1" style="stop-color:#6D6E70"/>
</linearGradient>
<path d="M63.293,361.362c-1.146,0-2.082-0.935-2.082-2.083v-3.149  c0-1.147,0.936-2.082,2.082-2.082h0.846c1.146,0,2.08,0.935,2.08,2.084v3.149c0,1.148-0.936,2.083-2.08,2.083L63.293,361.362  L63.293,361.362z" fill="url(#SVGID_50_)" fill-opacity="0.7"/>
<linearGradient gradientTransform="matrix(1 0 0 -1 872.707 -547.8535)" gradientUnits="userSpaceOnUse" id="SVGID_51_" x1="-808.9941" x2="-808.9941" y1="-902.6035" y2="-908.4987">
<stop offset="0" style="stop-color:#C6FF45"/>
<stop offset="0.73" style="stop-color:#66A00E"/>
<stop offset="1" style="stop-color:#387300"/>
</linearGradient>
<path d="M65.486,359.279c0,0.745-0.604,1.355-1.352,1.355h-0.846c-0.74,0-1.35-0.606-1.35-1.355v-3.149  c0-0.743,0.605-1.354,1.35-1.354h0.846c0.746,0,1.352,0.604,1.352,1.354V359.279z" fill="url(#SVGID_51_)"/>
<linearGradient gradientTransform="matrix(1 0 0 -1 872.707 -547.8535)" gradientUnits="userSpaceOnUse" id="SVGID_52_" x1="-786.123" x2="-786.123" y1="-901.1221" y2="-909.9692">
<stop offset="0" style="stop-color:#B6BBBD"/>
<stop offset="1" style="stop-color:#F0FBFF"/>
</linearGradient>
<path d="M86.162,362.091c-1.551,0-2.814-1.265-2.814-2.815v-3.149  c0-1.553,1.266-2.815,2.814-2.815h0.846c1.549,0,2.813,1.265,2.813,2.815v3.149c0,1.555-1.266,2.815-2.813,2.815H86.162z" fill="url(#SVGID_52_)" fill-opacity="0.4"/>
<linearGradient gradientTransform="matrix(1 0 0 -1 872.707 -547.8535)" gradientUnits="userSpaceOnUse" id="SVGID_53_" x1="-786.123" x2="-786.123" y1="-901.8643" y2="-909.2258">
<stop offset="0" style="stop-color:#231F20"/>
<stop offset="1" style="stop-color:#6D6E70"/>
</linearGradient>
<path d="M86.162,361.362c-1.146,0-2.08-0.935-2.08-2.083v-3.149  c0-1.147,0.934-2.082,2.08-2.082h0.846c1.146,0,2.078,0.935,2.078,2.082v3.149c0,1.148-0.934,2.083-2.078,2.083H86.162z" fill="url(#SVGID_53_)" fill-opacity="0.7"/>
<linearGradient gradientTransform="matrix(1 0 0 -1 872.707 -547.8535)" gradientUnits="userSpaceOnUse" id="SVGID_54_" x1="-786.124" x2="-786.124" y1="-902.6045" y2="-908.4996">
<stop offset="0" style="stop-color:#FFC142"/>
<stop offset="0.75" style="stop-color:#CF4E18"/>
<stop offset="1" style="stop-color:#B52100"/>
</linearGradient>
<path d="M88.355,359.279c0,0.745-0.604,1.355-1.35,1.355H86.16c-0.746,0-1.352-0.606-1.352-1.355v-3.149  c0-0.745,0.605-1.354,1.352-1.354h0.846c0.742,0,1.352,0.604,1.352,1.354L88.355,359.279L88.355,359.279z" fill="url(#SVGID_54_)"/>
<rect fill="none" height="71.706" width="71.622" x="31.249" y="304.29"/>
<polygon fill-opacity="0.1" points="60.236,347.236 50.482,347.238 50.486,335.934 60.236,335.934 60.236,328.617 73.938,341.949   60.236,354.419 "/>
<polygon fill-opacity="0.2" points="60.965,346.507 51.215,346.509 51.217,336.669 60.965,336.667 60.965,330.35 72.887,341.945   60.967,352.698 "/>
<linearGradient gradientTransform="matrix(1 0 0 -1 872.707 -547.8535)" gradientUnits="userSpaceOnUse" id="SVGID_55_" x1="-810.8164" x2="-810.8164" y1="-879.2744" y2="-898.1596">
<stop offset="0" style="stop-color:#C6FF45"/>
<stop offset="0.73" style="stop-color:#66A00E"/>
<stop offset="1" style="stop-color:#387300"/>
</linearGradient>
<polygon fill="url(#SVGID_55_)" points="61.697,350.982 71.834,341.214 61.697,331.347 61.697,336.665 51.948,336.667   51.947,345.777 61.697,345.773 "/>
<polygon fill="#FFFFFF" points="71.834,341.214 61.697,331.347 61.697,332.08 71.457,341.576 "/>
<polygon fill="#FFFFFF" points="51.948,337.399 61.697,337.394 61.697,336.665 51.948,336.667 51.947,345.777 51.947,345.777 "/>
<rect fill="none" height="71.71" width="71.627" x="144.188" y="304.29"/>
<linearGradient gradientTransform="matrix(1 0 0 -1 872.707 -547.8535)" gradientUnits="userSpaceOnUse" id="SVGID_56_" x1="-691.9785" x2="-691.9785" y1="-862.8774" y2="-911.1762">
<stop offset="0" style="stop-color:#FFFFFF"/>
<stop offset="1" style="stop-color:#CCCCCC"/>
</linearGradient>
<path d="M201.924,362.826c0,0.074-0.654,0.729-1.467,0.729h-39.463c-0.811,0-1.461-0.655-1.461-1.465  v-46.098c0-0.81,0.65-1.463,1.461-1.463h39.467c0.809,0,1.463,0.651,1.463,2.19V362.826L201.924,362.826z" fill="url(#SVGID_56_)"/>
<linearGradient gradientTransform="matrix(1 0 0 -1 872.707 -547.8535)" gradientUnits="userSpaceOnUse" id="SVGID_57_" x1="-673.3447" x2="-669.5009" y1="-875.1484" y2="-875.1484">
<stop offset="0" style="stop-color:#808080"/>
<stop offset="0.9" style="stop-color:#F0F0F0"/>
<stop offset="0.91" style="stop-color:#FFFFFF"/>
<stop offset="1" style="stop-color:#FFFFFF"/>
</linearGradient>
<path d="M202.739,332.293c0.397-0.201,0.646-0.606,0.646-1.054v-8.329c0-0.439-0.248-0.853-0.646-1.054  l-3.062-1.067v13.012L202.739,332.293z" fill="url(#SVGID_57_)"/>
<polygon fill="#231F20" fill-opacity="0.35" points="199.6,331.101 202.578,332.264 200.268,333.394 199.6,333.374 "/>
<linearGradient gradientTransform="matrix(1 0 0 -1 872.707 -547.8535)" gradientUnits="userSpaceOnUse" id="SVGID_58_" x1="-669.644" x2="-673.6714" y1="-887.3672" y2="-887.3672">
<stop offset="0" style="stop-color:#AFE865"/>
<stop offset="0.05" style="stop-color:#AFE865"/>
<stop offset="0.06" style="stop-color:#68B339"/>
<stop offset="1" style="stop-color:#136101"/>
</linearGradient>
<path d="M202.594,344.729c0.395-0.201,0.645-0.61,0.645-1.056v-8.327c0-0.439-0.249-0.854-0.645-1.056  l-3.383-1.282v13.011L202.594,344.729z" fill="url(#SVGID_58_)"/>
<polygon fill="#231F20" fill-opacity="0.35" points="198.58,343.729 202.266,345.003 199.652,346.02 198.572,345.992 "/>
<linearGradient gradientTransform="matrix(1 0 0 -1 872.707 -547.8535)" gradientUnits="userSpaceOnUse" id="SVGID_59_" x1="-669.6938" x2="-673.8968" y1="-900.1011" y2="-900.1011">
<stop offset="0" style="stop-color:#B8D6E9"/>
<stop offset="0.07" style="stop-color:#5CB2E9"/>
<stop offset="1" style="stop-color:#005BCC"/>
</linearGradient>
<path d="M202.684,357.899c0.395-0.197,0.645-0.604,0.645-1.052v-9.205c0-0.438-0.25-0.853-0.645-1.052  l-3.758-1.286v13.887L202.684,357.899z" fill="url(#SVGID_59_)"/>
<rect fill="#404041" fill-opacity="0.2" height="49.025" width="16.811" x="183.65" y="314.532"/>
<rect fill="#404041" fill-opacity="0.2" height="49.025" width="16.811" x="182.92" y="314.532"/>
<linearGradient gradientTransform="matrix(1 0 0 -1 872.707 -547.8535)" gradientUnits="userSpaceOnUse" id="SVGID_60_" x1="-694.9043" x2="-694.9043" y1="-861.5645" y2="-911.4137">
<stop offset="0" style="stop-color:#B2F56E"/>
<stop offset="0.53" style="stop-color:#439020"/>
<stop offset="1" style="stop-color:#0D4D07"/>
</linearGradient>
<path d="M198.996,362.826c0,0.812-0.65,1.467-1.463,1.467h-39.465c-0.807,0-1.461-0.655-1.461-1.467v-47.561  c0-0.812,0.654-1.464,1.461-1.464h39.467c0.813,0,1.463,0.652,1.463,1.464L198.996,362.826L198.996,362.826z" fill="url(#SVGID_60_)"/>
<linearGradient gradientTransform="matrix(1 0 0 -1 872.707 -547.8535)" gradientUnits="userSpaceOnUse" id="SVGID_61_" x1="-692.3457" x2="-692.3457" y1="-861.4097" y2="-925.1943">
<stop offset="0" style="stop-color:#CDEDBD"/>
<stop offset="0.99" style="stop-color:#139900"/>
<stop offset="1" style="stop-color:#139900"/>
</linearGradient>
<path d="M197.533,314.532c0.402,0,0.73,0.329,0.73,0.729v47.561c0,0.403-0.328,0.729-0.73,0.729h-35.078  v-49.023L197.533,314.532 M197.533,313.802h-35.807v50.489h35.807c0.813,0,1.463-0.653,1.463-1.467v-47.559  C198.996,314.454,198.346,313.802,197.533,313.802L197.533,313.802z" fill="url(#SVGID_61_)"/>
<linearGradient gradientTransform="matrix(1 0 0 -1 872.707 -547.8535)" gradientUnits="userSpaceOnUse" id="SVGID_62_" x1="-713.5391" x2="-713.5391" y1="-861.4097" y2="-912.8713">
<stop offset="0" style="stop-color:#F2F2F2"/>
<stop offset="1" style="stop-color:#A0A0A0"/>
</linearGradient>
<path d="M158.07,313.802c-0.807,0-1.461,0.652-1.461,1.464v47.561c0,0.812,0.654,1.465,1.461,1.465h3.656  v-50.489H158.07z" fill="url(#SVGID_62_)"/>
<rect fill="#737373" height="50.489" width="0.729" x="160.996" y="313.802"/>
<linearGradient gradientTransform="matrix(1 0 0 -1 872.707 -547.8535)" gradientUnits="userSpaceOnUse" id="SVGID_63_" x1="-712.0771" x2="-712.0771" y1="-861.4097" y2="-912.8724">
<stop offset="0" style="stop-color:#FFFFFF"/>
<stop offset="1" style="stop-color:#E6E6E6"/>
</linearGradient>
<rect fill="url(#SVGID_63_)" height="50.489" width="0.729" x="160.266" y="313.802"/>
<rect fill="none" height="71.706" width="71.623" x="144.188" y="304.29"/>
<linearGradient gradientTransform="matrix(1 0 0 -1 872.707 -547.8535)" gradientUnits="userSpaceOnUse" id="SVGID_64_" x1="-691.9897" x2="-691.9897" y1="-879.0957" y2="-902.6153">
<stop offset="0" style="stop-color:#FFFFFF"/>
<stop offset="1" style="stop-color:#CFCFCF"/>
</linearGradient>
<path d="M188.385,345.535c-0.969-0.503-3.568-2.188-3.66-2.287l0,0c-0.543-0.624-0.521-1.999-0.25-2.597l0,0  c0.02-0.043,0.039-0.08,0.063-0.113c0.064-0.105,0.127-0.21,0.189-0.315l0,0c0.475-0.77,0.867-1.542,1.189-2.268  c0.588,0.203,1.344-0.342,1.719-1.271c0.387-0.956,0.221-1.949-0.375-2.22c-0.033-0.018-0.07-0.02-0.105-0.025v-0.002  c0.074-0.305,0.107-0.479,0.107-0.479c1.023-4.612-1.209-8.276-6.626-8.452c-2.228,0-3.3,1.017-4.124,2.068  c-1.346,0.209-3.477,1.441-1.973,6.843c-0.061,0.014-0.111,0.021-0.168,0.043c-0.604,0.257-0.789,1.24-0.422,2.2  c0.367,0.962,1.148,1.538,1.752,1.284c0.037-0.018,0.066-0.043,0.104-0.063c0.33,0.743,0.734,1.537,1.229,2.34h-0.002  c0.016,0.023,0.031,0.055,0.051,0.08c0.012,0.02,0.02,0.029,0.025,0.05c0,0.002,0,0.002,0.002,0.004  c0.035,0.061,0.07,0.117,0.105,0.178c0.309,0.479,0.387,1.875-0.098,2.59c-0.111,0.165-2.959,1.82-4.057,2.405  c-1.256,0.667-3.307,2.201-3.307,5.654h21.927C191.688,347.734,189.352,346.041,188.385,345.535z M177.625,330.523  c0,0-0.018-0.004-0.02-0.004C177.611,330.52,177.617,330.523,177.625,330.523z M177.715,330.543  c-0.006-0.002-0.014-0.004-0.018-0.006C177.701,330.539,177.709,330.541,177.715,330.543z M177.484,330.541  c-0.006,0.006-0.014,0.008-0.021,0.01C177.471,330.545,177.479,330.543,177.484,330.541z M177.547,330.521c0,0-0.016,0-0.021,0.002  C177.531,330.521,177.539,330.521,177.547,330.521z M177.432,330.586c-0.002,0.006-0.012,0.008-0.016,0.016  C177.42,330.594,177.428,330.588,177.432,330.586z M174.555,334.422c0.012-0.014,0.021-0.021,0.035-0.031  c0.002,0.008,0.004,0.016,0.006,0.021C174.578,334.416,174.564,334.422,174.555,334.422z" fill="url(#SVGID_64_)"/>
<rect fill="#DEFEAC" fill-opacity="0.5" height="0.729" width="21.923" x="169.766" y="351.193"/>
<linearGradient gradientTransform="matrix(1 0 0 -1 872.707 -547.8535)" gradientUnits="userSpaceOnUse" id="SVGID_65_" x1="-570.3711" x2="-570.3711" y1="-868.2715" y2="-913.1845">
<stop offset="0" style="stop-color:#4FB7EB"/>
<stop offset="1" style="stop-color:#1755B3"/>
</linearGradient>
<polygon fill="url(#SVGID_65_)" points="311.775,320.418 319.246,321.44 319.246,363.21 306.09,365.012 292.935,362.393   285.426,363.808 "/>
<linearGradient gradientTransform="matrix(1 0 0 -1 872.707 -547.8535)" gradientUnits="userSpaceOnUse" id="SVGID_66_" x1="-573.1948" x2="-573.1948" y1="-881.5" y2="-913.1532">
<stop offset="0" style="stop-color:#8EFFF5"/>
<stop offset="1" style="stop-color:#1D9DD8"/>
</linearGradient>
<polygon fill="url(#SVGID_66_)" points="306.09,332.566 306.09,365.012 292.935,362.393 292.935,351.629 "/>
<polygon fill-opacity="0.25" points="312.648,320.547 306.09,334.418 292.935,353.5 286.492,363.626 283.422,364.195   310.332,320.224 "/>
<linearGradient gradientTransform="matrix(1 0 0 -1 872.707 -547.8535)" gradientUnits="userSpaceOnUse" id="SVGID_67_" x1="-585.3931" x2="-585.3931" y1="-867.8745" y2="-912.8557">
<stop offset="0" style="stop-color:#FEEFA7"/>
<stop offset="1" style="stop-color:#FFC501"/>
</linearGradient>
<polygon fill="url(#SVGID_67_)" points="308,322.303 305.99,333.14 292.935,352.093 285.473,363.815 279.05,365.012 266.628,362.67   266.628,320.541 278.685,319.638 292.935,321.618 306.09,319.638 "/>
<linearGradient gradientTransform="matrix(1 0 0 -1 872.707 -547.8535)" gradientUnits="userSpaceOnUse" id="SVGID_68_" x1="-586.7148" x2="-586.7148" y1="-911.0186" y2="-869.0273">
<stop offset="0" style="stop-color:#E69400"/>
<stop offset="1" style="stop-color:#F9DE4F"/>
</linearGradient>
<polygon fill="url(#SVGID_68_)" points="292.935,321.618 292.935,352.093 285.473,363.815 279.05,365.012 279.05,319.69 "/>
<linearGradient gradientTransform="matrix(1 0 0 -1 872.707 -547.8535)" gradientUnits="userSpaceOnUse" id="SVGID_69_" x1="-563.7646" x2="-563.7646" y1="-880.5571" y2="-868.2318">
<stop offset="0" style="stop-color:#E69400"/>
<stop offset="1" style="stop-color:#F9DE4F"/>
</linearGradient>
<polygon fill="url(#SVGID_69_)" points="306.09,319.638 306.09,332.989 311.795,320.418 "/>
<path d="M279.78,364.871l11.182-16.788l-4.71-2.347l-7.144,9.894l-6.978,8.066l-2.23-0.412  l9.153-10.789l5.374-7.65l-5.63-2.774l-12.18-2.498v-1.287l12.645,2.616l5.903,2.899l6.655-9.354l-12.977-6.485l-12.229-2.148v-1.99  l12.623,2.115l13.592,6.794l3.896-6.627l-3.804-1.338l-5.647-3.908l2.691,0.373l2.972,2.173l4.427,1.614l2.615-4.447l2.563-0.364  l-3.408,5.76l4.86,2.618l2.128-3.374l2.195-5.256l1.232,0.168l-3.453,7.467c0,0-8.451,13.117-13.153,20.161l-11.388,16.799  L279.78,364.871z M291.802,347.104l-4.769-2.427l6.551-9.229l4.387,2.13L291.802,347.104z M294.633,333.624l4.596,2.294l4.099-6.269  l-4.825-2.6L294.633,333.624L294.633,333.624z" fill="#FFFFFF" fill-opacity="0.25"/>
<linearGradient gradientTransform="matrix(1 0 0 -1 872.707 -547.8535)" gradientUnits="userSpaceOnUse" id="SVGID_70_" x1="-584.7378" x2="-584.7378" y1="-912.4316" y2="-879.5201">
<stop offset="0" style="stop-color:#FCE28D"/>
<stop offset="0.8121" style="stop-color:#FEF7DF"/>
<stop offset="1" style="stop-color:#FEF7DF"/>
</linearGradient>
<path d="M308.527,319.968l-2.408,5.777c0,0-1.302,2.063-2.021,3.193l-5.339-2.875l3.434-5.793l-1.74,0.235  l-2.975,4.868l-4.503-1.654l-3.323-2.565l-2.061-0.281l5.362,3.656l4.149,1.462l-4.163,7.088l-13.754-6.868l-12.564-2.126v1.443  l12.277,2.146l13.311,6.653l-0.156,0.271l-6.79,9.543l-6.192-3.024l-12.447-2.557l0.004,0.727l12.41,2.585l5.806,2.858l-5.767,8.097  l-8.864,10.519l1.646,0.311l7.218-8.368l7.087-9.898l5.269,2.601l-11.268,16.819l1.022-0.191l11.767-17.663l13.185-19.873  l3.178-6.996L308.527,319.968z M292.944,345.527l-1.23,1.898l-5.126-2.626l6.429-9.144l0.505-0.667l5,2.496L292.944,345.527z   M299.316,336.268l-5.063-2.527l4.145-7.047l5.313,2.858L299.316,336.268z" fill="url(#SVGID_70_)"/>
<polygon fill="#FFFFFF" points="300.967,358.081 306.1,347.254 310.711,358.081 306.1,355.285 "/>
<polygon fill-opacity="0.4" points="310.711,358.081 306.1,347.254 306.1,355.285 "/>
<path d="M284.105,318.155c-1.02,0-1.842,0.813-1.842,1.813c0,0.993,0.822,1.809,1.842,1.809  c1.016,0,1.84-0.815,1.84-1.809C285.947,318.965,285.121,318.155,284.105,318.155z" fill="none"/>
<rect fill="none" height="71.71" width="71.628" x="257.123" y="304.29"/>
<path d="M284.217,345.545l5.246-9.09l9.076-5.251l-9.076-5.246l-2.563-5.179l-4.963-0.69l-2.962,5.863  l-9.079,5.246l9.081,5.251L284.217,345.545z M286.553,326.23h2.637v2.635h-2.637V326.23z M286.553,333.546h2.637v2.636h-2.637  V333.546z M279.251,326.23h2.632v2.635h-2.632V326.23z M279.251,333.546h2.632v2.636h-2.632V333.546z" fill-opacity="0.25"/>
<linearGradient gradientTransform="matrix(1 0 0 -1 872.707 -547.8535)" gradientUnits="userSpaceOnUse" id="SVGID_71_" x1="-588.4883" x2="-588.4883" y1="-865.8726" y2="-891.3674">
<stop offset="0" style="stop-color:#DAFF8C"/>
<stop offset="0.1879" style="stop-color:#DAFF8C"/>
<stop offset="1" style="stop-color:#77C949"/>
</linearGradient>
<polygon fill="url(#SVGID_71_)" points="297.082,330.469 289.92,326.332 289.92,328.865 285.822,328.865 285.822,324.766   288.354,324.766 284.217,317.597 280.083,324.766 282.611,324.766 282.611,328.865 278.519,328.865 278.519,326.332   271.355,330.469 278.519,334.613 278.519,332.082 282.611,332.082 282.611,336.178 280.083,336.178 284.217,343.35 288.354,336.178   285.822,336.178 285.822,332.082 289.92,332.082 289.92,334.613 "/>
<linearGradient gradientTransform="matrix(1 0 0 -1 872.707 -547.8535)" gradientUnits="userSpaceOnUse" id="SVGID_72_" x1="-588.4883" x2="-588.4883" y1="-867.0586" y2="-890.0279">
<stop offset="0" style="stop-color:#AEE737"/>
<stop offset="0.7273" style="stop-color:#66A00E"/>
<stop offset="1" style="stop-color:#387300"/>
</linearGradient>
<polygon fill="url(#SVGID_72_)" points="281.348,336.909 283.342,336.909 283.342,331.347 277.791,331.347 277.791,333.345   272.818,330.469 277.791,327.599 277.791,329.595 283.342,329.595 283.342,324.036 281.348,324.036 284.217,319.059   287.088,324.036 285.094,324.036 285.094,329.595 290.647,329.595 290.647,327.599 295.619,330.469 290.647,333.345   290.647,331.347 285.094,331.347 285.094,336.909 287.088,336.909 284.217,341.885 "/>
<path d="M284.217,334.806c-1.979,0-3.597-1.613-3.597-3.605c0-1.984,1.61-3.604,3.597-3.604  s3.604,1.615,3.604,3.604C287.816,333.19,286.203,334.806,284.217,334.806L284.217,334.806z" fill-opacity="0.25"/>
<linearGradient gradientTransform="matrix(1 0 0 -1 872.707 -547.8535)" gradientUnits="userSpaceOnUse" id="SVGID_73_" x1="-588.4893" x2="-588.4893" y1="-875.4971" y2="-881.4367">
<stop offset="0" style="stop-color:#DAFF8C"/>
<stop offset="0.1879" style="stop-color:#DAFF8C"/>
<stop offset="1" style="stop-color:#77C949"/>
</linearGradient>
<circle cx="284.217" cy="330.556" fill="url(#SVGID_73_)" r="2.953"/>
<linearGradient gradientTransform="matrix(1 0 0 -1 872.707 -547.8535)" gradientUnits="userSpaceOnUse" id="SVGID_74_" x1="-588.4873" x2="-588.4873" y1="-876.1348" y2="-880.775">
<stop offset="0" style="stop-color:#AEE737"/>
<stop offset="0.7273" style="stop-color:#66A00E"/>
<stop offset="1" style="stop-color:#387300"/>
</linearGradient>
<path d="M284.217,332.86c-1.27,0-2.299-1.034-2.299-2.308c0-1.272,1.029-2.307,2.299-2.307  c1.271,0,2.305,1.032,2.305,2.307C286.518,331.826,285.488,332.86,284.217,332.86L284.217,332.86z" fill="url(#SVGID_74_)"/>
<rect fill="none" height="35.855" width="35.813" x="292.935" y="340.145"/>
<rect fill="none" height="35.854" width="35.811" x="292.935" y="340.145"/>
<path d="M311.018,353.266c0.584,0,1.055-0.145,1.408-0.434c0.354-0.29,0.529-0.687,0.529-1.197  c0-0.49-0.182-0.888-0.547-1.183c-0.363-0.295-0.826-0.445-1.391-0.445c-0.594,0-1.063,0.146-1.408,0.439  c-0.344,0.293-0.514,0.688-0.514,1.188c0,0.509,0.176,0.907,0.531,1.197C309.973,353.119,310.439,353.266,311.018,353.266z" fill-opacity="0.1"/>
<path d="M311.018,352.898c0.584,0,1.055-0.143,1.408-0.433c0.354-0.289,0.529-0.686,0.529-1.196  c0-0.491-0.182-0.886-0.547-1.183c-0.363-0.298-0.826-0.446-1.391-0.446c-0.594,0-1.063,0.146-1.408,0.438  c-0.344,0.295-0.514,0.691-0.514,1.19c0,0.509,0.176,0.907,0.531,1.196C309.973,352.756,310.439,352.898,311.018,352.898z" fill-opacity="0.2"/>
<linearGradient gradientTransform="matrix(0.0078 0 0 -0.0078 -1115.7148 -562.4685)" gradientUnits="userSpaceOnUse" id="SVGID_75_" x1="295.0654" x2="295.0654" y1="-109383.8438" y2="-109435">
<stop offset="0" style="stop-color:#E5FFB2"/>
<stop offset="0.39" style="stop-color:#6AAB18"/>
<stop offset="0.68" style="stop-color:#247307"/>
<stop offset="1" style="stop-color:#C2FF4A"/>
</linearGradient>
<ellipse cx="310.84" cy="358.071" fill="url(#SVGID_75_)" rx="12.791" ry="12.805"/>
<radialGradient cx="310.8408" cy="358.0713" gradientTransform="matrix(0.0078 0 0 -0.0078 -1115.7871 -571.1272)" gradientUnits="userSpaceOnUse" id="SVGID_76_" r="12.4316">
<stop offset="0" style="stop-color:#AFED23"/>
<stop offset="0.81" style="stop-color:#358C0C"/>
<stop offset="1" style="stop-color:#67AD1A"/>
</radialGradient>
<path d="M310.84,370.51c-6.849,0-12.424-5.578-12.424-12.437c0-6.86,5.573-12.44,12.424-12.44  s12.426,5.578,12.426,12.438C323.264,364.93,317.69,370.51,310.84,370.51L310.84,370.51z" fill="url(#SVGID_76_)"/>
<polygon fill-opacity="0.1" points="308.006,356.781 309.227,356.781 309.227,367.36 312.781,367.36 312.781,354.758   308.006,354.758 "/>
<polygon fill-opacity="0.2" points="308.006,356.413 309.227,356.413 309.227,366.995 312.781,366.995 312.781,354.39   308.006,354.39 "/>
<linearGradient gradientTransform="matrix(0.0078 0 0 -0.0078 -1115.7148 -562.4685)" gradientUnits="userSpaceOnUse" id="SVGID_77_" x1="297.3262" x2="297.3262" y1="-16267.0059" y2="-16271.7813">
<stop offset="0" style="stop-color:#F6FDFF"/>
<stop offset="1" style="stop-color:#ADB3B5"/>
</linearGradient>
<polygon fill="url(#SVGID_77_)" points="308.006,356.052 309.227,356.052 309.227,366.629 312.781,366.629 312.781,354.024   308.006,354.024 "/>
<linearGradient gradientTransform="matrix(0.0078 0 0 -0.0078 -1115.7148 -562.4685)" gradientUnits="userSpaceOnUse" id="SVGID_78_" x1="288.0889" x2="288.0889" y1="-16268.0781" y2="-16271.9414">
<stop offset="0" style="stop-color:#F6FDFF"/>
<stop offset="1" style="stop-color:#ADB3B5"/>
</linearGradient>
<path d="M311.004,352.719c0.586,0,1.055-0.146,1.408-0.435c0.354-0.291,0.529-0.69,0.529-1.196  c0-0.493-0.18-0.888-0.545-1.185c-0.363-0.296-0.828-0.444-1.393-0.444c-0.592,0-1.061,0.145-1.406,0.438  c-0.348,0.291-0.52,0.689-0.52,1.19c0,0.506,0.176,0.905,0.529,1.196C309.961,352.573,310.426,352.719,311.004,352.719z" fill="url(#SVGID_78_)"/>
<defs>
<linearGradient gradientTransform="matrix(0 1 -1 0 -886.5 362.5005)" gradientUnits="userSpaceOnUse" id="SVGID_5_" x1="-352.001" x2="-352.001" y1="-938.4995" y2="-910.578">
<stop offset="0" style="stop-color:#47DAFA"/>
<stop offset="1" style="stop-color:#0070FA"/>
</linearGradient>
</defs>
<defs>
<linearGradient gradientTransform="matrix(0 1 -1 0 -886.5 362.5005)" gradientUnits="userSpaceOnUse" id="SVGID_7_" x1="-352.001" x2="-352.001" y1="-938.4995" y2="-910.578">
<stop offset="0" style="stop-color:#47DAFA"/>
<stop offset="1" style="stop-color:#0070FA"/>
</linearGradient>
</defs>
</svg>
