<?xml version="1.0" encoding="UTF-8"?>
<!DOCTYPE svg PUBLIC "-//W3C//DTD SVG 1.1 Tiny//EN" "http://www.w3.org/Graphics/SVG/1.1/DTD/svg11-tiny.dtd">
<svg baseProfile="tiny" height="34px" version="1.1" viewBox="0 0 34 34" width="34px" x="0px" xmlns="http://www.w3.org/2000/svg" xmlns:xlink="http://www.w3.org/1999/xlink" y="0px">
<rect fill="none" height="34" width="34" y="0"/>
<rect fill="#141414" fill-opacity="0.2" height="34" stroke-opacity="0.2" width="34"/>
<linearGradient gradientUnits="userSpaceOnUse" id="SVGID_1_" x1="0.834" x2="100.8408" y1="17" y2="17">
<stop offset="0" style="stop-color:#282828"/>
<stop offset="0.5" style="stop-color:#78787D"/>
<stop offset="1" style="stop-color:#282828"/>
</linearGradient>
<rect fill="url(#SVGID_1_)" height="32" width="33" x="1" y="1"/>
<linearGradient gradientUnits="userSpaceOnUse" id="SVGID_2_" x1="1" x2="101.1662" y1="32" y2="32">
<stop offset="0" style="stop-color:#505050"/>
<stop offset="0.5" style="stop-color:#FAFAFA"/>
<stop offset="1" style="stop-color:#505050"/>
</linearGradient>
<rect fill="url(#SVGID_2_)" fill-opacity="0.8" height="2" width="33" x="1" y="31"/>
<linearGradient gradientUnits="userSpaceOnUse" id="SVGID_3_" x1="17.5" x2="17.5" y1="15" y2="1">
<stop offset="0" style="stop-color:#DCDCDC"/>
<stop offset="1" style="stop-color:#141414"/>
</linearGradient>
<rect fill="url(#SVGID_3_)" fill-opacity="0.3" height="14" width="33" x="1" y="1"/>
<linearGradient gradientUnits="userSpaceOnUse" id="SVGID_4_" x1="0.834" x2="101.0032" y1="17" y2="17">
<stop offset="0" style="stop-color:#000000;stop-opacity:0.8"/>
<stop offset="0.2" style="stop-color:#000000;stop-opacity:0.2"/>
<stop offset="0.4" style="stop-color:#000000;stop-opacity:0"/>
<stop offset="0.6" style="stop-color:#000000;stop-opacity:0"/>
<stop offset="0.8" style="stop-color:#000000;stop-opacity:0.2"/>
<stop offset="1" style="stop-color:#000000;stop-opacity:0.8"/>
</linearGradient>
<rect fill="url(#SVGID_4_)" height="32" width="33" x="1" y="1"/>
<polygon fill-opacity="0.1" points="1,1 1,33 3,33 4,6 34,6 34,1 "/>
<polygon fill-opacity="0.1" points="1,1 1,33 2,33 2,5 34,5 34,1 "/>
<rect fill-opacity="0.1" height="3" width="33" x="1" y="1"/>
<rect fill-opacity="0.1" height="2" width="33" x="1" y="1"/>
<rect fill-opacity="0.1" height="1" width="33" x="1" y="1"/>
</svg>
