<?xml version="1.0" encoding="UTF-8"?>
<!DOCTYPE svg PUBLIC "-//W3C//DTD SVG 1.1 Tiny//EN" "http://www.w3.org/Graphics/SVG/1.1/DTD/svg11-tiny.dtd">
<svg baseProfile="tiny" height="30" viewBox="0 0 30 30" width="30" xmlns="http://www.w3.org/2000/svg" xmlns:xlink="http://www.w3.org/1999/xlink">
<g>
<rect fill="none" height="30" width="30"/>
<path d="M1,22.653c0-0.762,0.097-1.988,0.553-3.504c0.707-2.346,3.97-7.439,7.274-10.745  c3.348-3.345,7.787-6.116,9.228-6.665c2.32-0.878,4.919-0.822,5.796-0.596c0.122,0.036,0.678,0.226,1.427,0.645l0.269,0.155  c0.457,0.277,0.864,0.562,1.24,0.875c0.144,0.12,0.25,0.199,0.342,0.268c0.207,0.151,0.402,0.294,0.691,0.625  c0.65,0.74,0.876,1.075,0.915,1.134C28.908,5.112,29,5.422,29,5.741c0,0.584-0.294,1.132-0.789,1.469l-7.078,4.819  c-0.4,0.271-0.894,0.374-1.353,0.282c-0.435-0.088-0.803-0.339-1.042-0.708l-1.274-1.993c-1.575,1.008-3.029,2.209-4.648,3.831  c-1.037,1.037-2.093,2.485-2.829,3.622L9.4,17.799L10.156,18l0.813,0.484c0.488,0.286,0.785,0.814,0.785,1.413  c0,0.242-0.049,0.481-0.143,0.707l-0.021,0.054l-1.453,2.543l-2.851,4.91c-0.233,0.408-0.625,0.711-1.071,0.832  c-0.422,0.113-0.86,0.058-1.23-0.158c-0.077-0.049-0.36-0.24-0.998-0.754l-0.056-0.01l-0.173-0.168  c-0.331-0.271-0.432-0.377-0.681-0.652l-0.153-0.168c-1.228-1.344-1.721-2.822-1.742-2.885C1.025,23.706,1,23.02,1,22.653L1,22.653z  " fill-opacity="0.6" stroke-opacity="0.6"/>
<linearGradient gradientTransform="matrix(-4.371139e-008 1 1 4.371139e-008 396.0192 -292.4791)" gradientUnits="userSpaceOnUse" id="SVGID_1_" x1="305.3745" x2="305.3745" y1="-369.2378" y2="-394.3224">
<stop offset="0" style="stop-color:#85AE4A"/>
<stop offset="1" style="stop-color:#2F6F44"/>
</linearGradient>
<path d="M17.757,8.34c-2.193,1.274-3.96,2.8-5.603,4.441c-1.58,1.581-3.231,4.096-3.815,5.221L2.07,23.858  c-0.185-0.516-0.284-2.254,0.374-4.439c0.66-2.188,3.843-7.157,7.042-10.354c3.198-3.196,7.526-5.93,8.897-6.451  c2.161-0.817,4.542-0.744,5.235-0.566c0,0,0.631,0.208,1.449,0.697C25.418,2.955,17.757,8.34,17.757,8.34z" fill="url(#SVGID_1_)"/>
<radialGradient cx="314.1274" cy="-383.3599" gradientTransform="matrix(-4.371139e-008 1 1 4.371139e-008 396.0192 -292.4791)" gradientUnits="userSpaceOnUse" id="SVGID_2_" r="11.9051">
<stop offset="0" style="stop-color:#85AE4A"/>
<stop offset="1" style="stop-color:#2F6F44"/>
</radialGradient>
<path d="M6.479,27.641l2.846-4.904l1.426-2.494c0.153-0.363,0.055-0.771-0.259-0.957l-1.207-0.717H9.283  l-0.944-0.566c0.002-0.002,0.008-0.006,0.01-0.008c-2.9-0.369-5.641,1.449-6.255,4.246c-0.08,0.371-0.12,0.738-0.122,1.102  c0.025,0.223,0.061,0.403,0.099,0.517c0,0,0.436,1.332,1.543,2.543c0.369,0.405,0.383,0.444,0.77,0.755  c0.001,0.002,0.003,0.002,0.007,0.004c0.76,0.615,1.062,0.816,1.062,0.816C5.798,28.176,6.259,28.028,6.479,27.641z" fill="url(#SVGID_2_)"/>
<path d="M9.285,18.569l1.207,0.717c0.313,0.186,0.412,0.594,0.259,0.957  l-1.426,2.494l-2.846,4.904c-0.221,0.387-0.682,0.535-1.028,0.334c0,0-0.304-0.201-1.067-0.82L9.285,18.569z" fill="#FFFFFF" fill-opacity="0.4" stroke-opacity="0.4"/>
<radialGradient cx="297.7944" cy="-368.7876" gradientTransform="matrix(-4.371139e-008 1 1 4.371139e-008 396.0192 -292.4791)" gradientUnits="userSpaceOnUse" id="SVGID_3_" r="12.0638">
<stop offset="0" style="stop-color:#85AE4A"/>
<stop offset="1" style="stop-color:#2F6F44"/>
</radialGradient>
<path d="M20.607,11.257l7.076-4.818c0.373-0.252,0.494-0.738,0.27-1.084c0,0-0.195-0.301-0.832-1.027  c-0.001,0,0-0.002-0.002-0.002c-0.348-0.395-0.478-0.414-0.929-0.789c-0.628-0.521-1.253-0.888-1.733-1.126  C21.432,1.84,18.492,3.688,17.854,6.6c-0.134,0.595-0.152,1.187-0.082,1.762l1.046,1.637l0.707,1.101  C19.746,11.445,20.232,11.513,20.607,11.257z" fill="url(#SVGID_3_)"/>
<path d="M27.119,4.327c0.639,0.728,0.834,1.029,0.834,1.029  c0.225,0.346,0.104,0.832-0.27,1.084l-7.076,4.818c-0.374,0.255-0.861,0.188-1.082-0.159l-0.707-1.101L27.119,4.327z" fill="#FFFFFF" fill-opacity="0.4" stroke-opacity="0.4"/>
<rect fill="none" height="30" width="30"/>
</g>
<g>
<rect fill-opacity="0.6" height="34.27" stroke-opacity="0.6" style="enable-background:new;" transform="matrix(0.7073 -0.707 0.707 0.7073 -6.2126 14.9968)" width="3.169" x="13.42" y="-2.134"/>
<polygon fill="url(#SVGID_1__)" points="26,26.99,3.015,4.005,4.006,3.014,26.99,26"/>
<rect fill="none" height="30" width="30"/>
<defs>
<linearGradient gradientTransform="matrix(0.8824 0 0 -0.8824 -284.8232 -348.3516)" gradientUnits="userSpaceOnUse" id="SVGID_1__" x1="339.8" x2="339.8" y1="-397.3" y2="-425.3">
<stop offset="0" stop-color="#A8835F"/>
<stop offset="0.2606" stop-color="#A86F5F"/>
<stop offset="1" stop-color="#9A5047"/>
</linearGradient>
</defs>
</g>
</svg>
