<?xml version="1.0" encoding="UTF-8"?>
<!DOCTYPE svg PUBLIC "-//W3C//DTD SVG 1.1 Tiny//EN" "http://www.w3.org/Graphics/SVG/1.1/DTD/svg11-tiny.dtd">
<svg baseProfile="tiny" height="30px" version="1.1" viewBox="0 0 30 30" width="30px" x="0px" xmlns="http://www.w3.org/2000/svg" xmlns:xlink="http://www.w3.org/1999/xlink" y="0px">
<rect fill="none" height="30" width="30"/>
<path d="M25,1H5C2.791,1,1,2.791,1,5v20c0,2.209,1.791,4,4,4h20c2.209,0,4-1.791,4-4V5C29,2.791,27.209,1,25,1z M2.001,5.001  C2.001,3.347,3.347,2,5,2h20c0.461,0,0.893,0.113,1.283,0.3L2.301,26.284c-0.187-0.391-0.3-0.822-0.3-1.283V5.001z M27.999,25.001  c0,1.653-1.345,2.999-2.998,2.999H5c-0.462,0-0.895-0.113-1.286-0.301L27.698,3.715c0.188,0.392,0.301,0.824,0.301,1.286V25.001z"/>
</svg>
