<?xml version="1.0" encoding="UTF-8"?>
<!DOCTYPE svg PUBLIC "-//W3C//DTD SVG 1.1 Tiny//EN" "http://www.w3.org/Graphics/SVG/1.1/DTD/svg11-tiny.dtd">
<svg baseProfile="tiny" height="60" viewBox="0 0 60 60" width="60" xmlns="http://www.w3.org/2000/svg" xmlns:xlink="http://www.w3.org/1999/xlink">
<g>
<rect fill="none" height="60" width="60"/>
<linearGradient gradientUnits="userSpaceOnUse" id="SVGID_1_" x1="30" x2="30" y1="9.8965" y2="49.8018">
<stop offset="0" style="stop-color:#E4E0C1"/>
<stop offset="0.5091" style="stop-color:#B39C4D"/>
<stop offset="1" style="stop-color:#AC8A4A"/>
</linearGradient>
<polygon fill="url(#SVGID_1_)" points="58,50.4 2,50.4 2,9.6 30.463,10.4 58,9.6 "/>
<linearGradient gradientUnits="userSpaceOnUse" id="SVGID_2_" x1="30" x2="30" y1="9.7017" y2="50.6398">
<stop offset="0" style="stop-color:#AD8C4A"/>
<stop offset="0.3394" style="stop-color:#F4F3E6"/>
<stop offset="1" style="stop-color:#D1C794"/>
</linearGradient>
<path d="M57.385,10.22v39.56H2.613V10.22H57.385 M58,9.6L29.802,9.936L2,9.6v40.8h56V9.6L58,9.6z" fill="url(#SVGID_2_)"/>
<polygon fill="#B59659" fill-opacity="0.3" points="2,49.71 58,49.71 58,48.916 29.998,24.328 2,48.916 " stroke-opacity="0.3"/>
<polygon fill="#A97B48" fill-opacity="0.3" points="2,50.4 58,50.4 58,49.603 29.998,25.019 2,49.603 " stroke-opacity="0.3"/>
<linearGradient gradientTransform="matrix(-1 0 0 -1 -1801.0049 1240.3164)" gradientUnits="userSpaceOnUse" id="SVGID_3_" x1="-1831.0049" x2="-1831.0049" y1="1214.7607" y2="1190.0703">
<stop offset="0" style="stop-color:#AE804B"/>
<stop offset="0.7273" style="stop-color:#C2AC76"/>
<stop offset="1" style="stop-color:#D2C997"/>
</linearGradient>
<polygon fill="url(#SVGID_3_)" points="58,50.38 29.998,25.689 2,50.38 "/>
<linearGradient gradientUnits="userSpaceOnUse" id="SVGID_4_" x1="30" x2="30" y1="25.4995" y2="51.0736">
<stop offset="0" style="stop-color:#E9E5CB"/>
<stop offset="1" style="stop-color:#D1C794"/>
</linearGradient>
<polygon fill="url(#SVGID_4_)" points="58,50.38 29.998,25.689 2,50.38 29.998,26.563 "/>
<polygon fill="#A97B48" fill-opacity="0.3" points="30.057,10.4 2,9.6 29.998,38.617 58,9.6 " stroke-opacity="0.3"/>
<polygon fill="#88573A" fill-opacity="0.4" points="30.006,10.4 2,9.6 29.998,37.091 58,9.6 " stroke-opacity="0.4"/>
<polygon fill="#784833" fill-opacity="0.4" points="29.904,10.297 2,9.6 29.998,35.802 58,9.6 " stroke-opacity="0.4"/>
<linearGradient gradientUnits="userSpaceOnUse" id="SVGID_5_" x1="30" x2="30" y1="32.9619" y2="8.0088">
<stop offset="0" style="stop-color:#C2B470"/>
<stop offset="0.25" style="stop-color:#DED7B3"/>
<stop offset="1" style="stop-color:#FDFCFA"/>
</linearGradient>
<polygon fill="url(#SVGID_5_)" points="2,9.6 29.998,34.29 58,9.6 "/>
<rect fill="none" height="60" width="60"/>
</g>
<g transform="matrix(1 0 0 1 30 0)">
<polygon fill-opacity="0.35" points="23.487,5.563 16.725,12.331 19.341,2.565 12.047,0.611 8.829,12.621   14.825,14.229 12.973,16.083 18.312,21.421 28.829,10.901 " stroke-opacity="0.35"/>
<linearGradient gradientTransform="matrix(1 0 0 -1 -282.4805 -376.0195)" gradientUnits="userSpaceOnUse" id="SVGID_1__" x1="297.9736" x2="295.2261" y1="-378.1689" y2="-388.7774">
<stop offset="0" style="stop-color:#CDB18B"/>
<stop offset="0.703" style="stop-color:#985954"/>
<stop offset="1" style="stop-color:#BE997B"/>
</linearGradient>
<polygon fill="url(#SVGID_1__)" points="9.714,12.11 12.558,1.496 18.453,3.077 15.611,13.691 "/>
<linearGradient gradientTransform="matrix(1 0 0 -1 -282.4805 -376.0195)" gradientUnits="userSpaceOnUse" id="SVGID_2__" x1="297.7822" x2="295.3409" y1="-378.8926" y2="-388.3527">
<stop offset="0" style="stop-color:#C39072"/>
<stop offset="0.7939" style="stop-color:#88444B"/>
<stop offset="1" style="stop-color:#AF7563"/>
</linearGradient>
<polygon fill="url(#SVGID_2__)" points="15.18,12.942 10.463,11.679 12.989,2.246 17.706,3.508 "/>
<linearGradient gradientTransform="matrix(1 0 0 -1 -282.4805 -376.0195)" gradientUnits="userSpaceOnUse" id="SVGID_3__" x1="308.0273" x2="298.6434" y1="-384.7505" y2="-394.3634">
<stop offset="0" style="stop-color:#CDB18B"/>
<stop offset="0.703" style="stop-color:#985954"/>
<stop offset="1" style="stop-color:#BE997B"/>
</linearGradient>
<polygon fill="url(#SVGID_3__)" points="13.995,16.083 23.487,6.585 27.805,10.901 18.312,20.398 "/>
<linearGradient gradientTransform="matrix(1 0 0 -1 -282.4805 -376.0195)" gradientUnits="userSpaceOnUse" id="SVGID_4__" x1="307.7012" x2="299.1582" y1="-385.1528" y2="-393.7721">
<stop offset="0" style="stop-color:#C39072"/>
<stop offset="0.7939" style="stop-color:#88444B"/>
<stop offset="1" style="stop-color:#AF7563"/>
</linearGradient>
<polygon fill="url(#SVGID_4__)" points="18.312,19.532 14.858,16.083 23.487,7.449 26.944,10.901 "/>
<rect fill="none" height="30" width="30"/>
</g>
</svg>
