<?xml version="1.0" encoding="UTF-8"?>
<!DOCTYPE svg PUBLIC "-//W3C//DTD SVG 1.1 Tiny//EN" "http://www.w3.org/Graphics/SVG/1.1/DTD/svg11-tiny.dtd">
<svg baseProfile="tiny" height="16px" version="1.1" viewBox="0 0 16 16" width="16px" x="0px" xmlns="http://www.w3.org/2000/svg" xmlns:xlink="http://www.w3.org/1999/xlink" y="0px">
<circle cx="8" cy="8" fill-opacity="0.1" r="8" stroke-opacity="0.1"/>
<path d="M8,15c-3.86,0-7-3.141-7-7c0-3.86,3.14-7,7-7c3.859,0,7,3.14,7,7C15,11.859,11.859,15,8,15L8,15z" fill="url(#SVGID_1_)"/>
<path d="M8,2C4.691,2,2,4.691,2,8s2.691,6,6,6s6-2.691,6-6S11.309,2,8,2z M8,13c-2.757,0-5-2.244-5-5  c0-2.757,2.243-5,5-5s5,2.243,5,5C13,10.756,10.757,13,8,13z" fill="#FFFFFF" fill-opacity="0.2" stroke-opacity="0.2"/>
<path d="M8,1C4.14,1,1,4.14,1,8c0,3.859,3.14,7,7,7c3.859,0,7-3.141,7-7C15,4.14,11.859,1,8,1z M8,14  c-3.309,0-6-2.691-6-6s2.691-6,6-6s6,2.691,6,6S11.309,14,8,14z" fill-opacity="0.2" stroke-opacity="0.2"/>
<defs>
<linearGradient gradientUnits="userSpaceOnUse" id="SVGID_1_" x1="7.9995" x2="7.9995" y1="1" y2="15.0005">
<stop offset="0" style="stop-color:#66B8CC"/>
<stop offset="1" style="stop-color:#3F89A9"/>
</linearGradient>
</defs>
</svg>
