<?xml version="1.0" encoding="UTF-8"?>
<!DOCTYPE svg PUBLIC "-//W3C//DTD SVG 1.1 Tiny//EN" "http://www.w3.org/Graphics/SVG/1.1/DTD/svg11-tiny.dtd">
<svg baseProfile="tiny" height="60" viewBox="0 0 60 60" width="60" xmlns="http://www.w3.org/2000/svg" xmlns:xlink="http://www.w3.org/1999/xlink">
<g>
<rect fill="none" height="60" width="60"/>
<linearGradient gradientTransform="matrix(-0.7071 -0.7071 -0.4471 0.4471 4918.8623 1940.7473)" gradientUnits="userSpaceOnUse" id="SVGID_1_" x1="4811.7705" x2="4804.6846" y1="3354.4326" y2="3354.4326">
<stop offset="0" style="stop-color:#292929"/>
<stop offset="0.3455" style="stop-color:#8C8C8C"/>
<stop offset="0.7" style="stop-color:#171717"/>
<stop offset="1" style="stop-color:#646464"/>
</linearGradient>
<polygon fill="url(#SVGID_1_)" points="17.729,47.067 12.72,42.057 20.639,34.138 25.649,39.148 "/>
<linearGradient gradientTransform="matrix(-1 0 0 1 4302.3848 0)" gradientUnits="userSpaceOnUse" id="SVGID_2_" x1="4287.2246" x2="4294.4331" y1="52.2168" y2="45.0081">
<stop offset="0" style="stop-color:#B3B3B3"/>
<stop offset="0.3758" style="stop-color:#969696"/>
<stop offset="0.7515" style="stop-color:#FFFFFF"/>
<stop offset="1" style="stop-color:#D5D5D5"/>
</linearGradient>
<path d="M2.565,50.126c-0.754,0.753-0.754,1.987,0,2.74l4.568,4.568c0.752,0.754,1.986,0.754,2.74,0  l10.505-10.505c0.753-0.754,0.753-1.986,0-2.74L15.81,39.62c-0.752-0.753-1.984-0.752-2.738,0L2.565,50.126z" fill="url(#SVGID_2_)"/>
<linearGradient gradientTransform="matrix(-0.7071 -0.7071 -0.5071 0.5071 5299.6968 1575.5687)" gradientUnits="userSpaceOnUse" id="SVGID_3_" x1="4824.3057" x2="4813.9697" y1="3708.6299" y2="3708.6299">
<stop offset="0" style="stop-color:#E2E4E3"/>
<stop offset="0.3333" style="stop-color:#B2B6B5"/>
<stop offset="0.3333" style="stop-color:#A2A5A5"/>
<stop offset="0.6848" style="stop-color:#6D6F70"/>
<stop offset="1" style="stop-color:#AFB3B2"/>
</linearGradient>
<polygon fill="url(#SVGID_3_)" points="10.976,56.332 3.668,49.023 11.857,40.833 19.165,48.143 "/>
<path d="M36.649,25.261c-7.902,0-15.16-1.912-20.893-5.105C17.397,10.043,26.169,2.321,36.743,2.321  c10.541,0,19.287,7.673,20.97,17.737C51.954,23.309,44.632,25.261,36.649,25.261z" fill="#FFFFFF" fill-opacity="0.2" stroke-opacity="0.2"/>
<linearGradient gradientTransform="matrix(-0.9773 0 0 0.9773 4277.1611 57.5776)" gradientUnits="userSpaceOnUse" id="SVGID_4_" x1="4338.9121" x2="4338.9121" y1="-19.5293" y2="-50.7046">
<stop offset="0" style="stop-color:#B7CC97"/>
<stop offset="0.4667" style="stop-color:#347940"/>
<stop offset="1" style="stop-color:#173636"/>
</linearGradient>
<circle cx="36.742" cy="23.257" fill="url(#SVGID_4_)" fill-opacity="0.7" r="15.233" stroke-opacity="0.7"/>
<linearGradient gradientUnits="userSpaceOnUse" id="SVGID_5_" x1="36.7432" x2="36.7432" y1="44.6318" y2="1.9579">
<stop offset="0" style="stop-color:#C2C8C6"/>
<stop offset="0.1939" style="stop-color:#9EA2A2"/>
<stop offset="0.697" style="stop-color:#D6D9D7"/>
<stop offset="0.897" style="stop-color:#EFF2F0"/>
<stop offset="1" style="stop-color:#EFF2F0"/>
</linearGradient>
<path d="M36.743,2c-11.738,0-21.258,9.518-21.258,21.257s9.52,21.257,21.258,21.257  s21.258-9.518,21.258-21.257S48.481,2,36.743,2z M36.743,39.287c-8.413,0-16.07-7.617-16.07-16.03C20.673,14.844,28.33,7,36.743,7  c8.414,0,16.216,7.844,16.216,16.257C52.959,31.67,45.157,39.287,36.743,39.287z" fill="url(#SVGID_5_)"/>
<linearGradient gradientUnits="userSpaceOnUse" id="SVGID_6_" x1="36.7422" x2="36.7422" y1="2.2324" y2="42.8653">
<stop offset="0" style="stop-color:#E7EBE8"/>
<stop offset="0.5818" style="stop-color:#C7CBC9"/>
<stop offset="0.8545" style="stop-color:#919595"/>
<stop offset="0.9758" style="stop-color:#CDD1CF"/>
<stop offset="1" style="stop-color:#CDD1CF"/>
</linearGradient>
<path d="M36.743,3.063c-11.151,0-20.195,9.042-20.195,20.193c0,11.151,9.044,20.194,20.195,20.194  c11.152,0,20.193-9.043,20.193-20.194C56.937,12.105,47.896,3.063,36.743,3.063z M36.743,39.287c-8.413,0-16.07-7.617-16.07-16.03  C20.673,14.844,28.33,7,36.743,7c8.414,0,16.216,7.844,16.216,16.257C52.959,31.67,45.157,39.287,36.743,39.287z" fill="url(#SVGID_6_)"/>
<linearGradient gradientUnits="userSpaceOnUse" id="SVGID_7_" x1="36.7422" x2="36.7422" y1="39.6108" y2="7.5044">
<stop offset="0" style="stop-color:#E7EBE8"/>
<stop offset="1" style="stop-color:#535557"/>
</linearGradient>
<path d="M36.743,6.96c-9.002,0-16.298,7.297-16.298,16.297s7.296,16.297,16.298,16.297  c9,0,16.296-7.297,16.296-16.297S45.743,6.96,36.743,6.96z M36.743,38.491c-8.413,0-15.234-6.821-15.234-15.234  c0-8.413,6.821-15.233,15.234-15.233c8.414,0,15.232,6.821,15.232,15.233C51.976,31.67,45.157,38.491,36.743,38.491z" fill="url(#SVGID_7_)"/>
<path d="M36.653,24.873c-5.037,0-9.799-0.81-14.051-2.244c0.332-7.532,6.525-13.543,14.141-13.543  c7.594,0,13.775,5.979,14.135,13.484C46.583,24.04,41.76,24.873,36.653,24.873z" fill="#FFFFFF" fill-opacity="0.2" stroke-opacity="0.2"/>
<path d="M36.642,10.138c7.035,0,12.868,5.031,14.165,11.688c-0.722-7.15-6.722-12.74-14.063-12.74  c-6.607,0-12.139,4.527-13.705,10.646C25.038,14.141,30.366,10.138,36.642,10.138z" fill="#FFFFFF" fill-opacity="0.4" stroke-opacity="0.4"/>
<rect fill="none" height="60" width="60"/>
</g>
</svg>
