<?xml version="1.0" encoding="UTF-8"?>
<!DOCTYPE svg PUBLIC "-//W3C//DTD SVG 1.1 Tiny//EN" "http://www.w3.org/Graphics/SVG/1.1/DTD/svg11-tiny.dtd">
<svg baseProfile="tiny" height="30" viewBox="0 0 30 30" width="30" xmlns="http://www.w3.org/2000/svg" xmlns:xlink="http://www.w3.org/1999/xlink">
<g>
<rect fill="none" fill-opacity="0.5" height="30" stroke-opacity="0.5" width="30"/>
<path d="M15,30c-8.271,0-15-6.73-15-15s6.729-15,15-15,15,6.729,15,15-6.73,15-15,15z" fill-opacity="0.6" stroke-opacity="0.6"/>
<path d="M15,29c-7.721,0-14-6.28-14-14s6.279-14,14-14,14,6.28,14,14-6.28,14-14,14z" fill="url(#SVGID_1_)"/>
<path d="M15,1c-7.721,0-14,6.28-14,14s6.279,14,14,14c-7.169,0-13-5.83-13-13s5.831-13,13-13,13,5.832,13,13-5.831,13-13,13c7.721,0,14-6.28,14-14s-6.28-14-14-14z" fill-opacity="0.1" stroke-opacity="0.1"/>
<path d="M15,2c7.551,0,13.71,6.013,13.98,13.5,0-0.17,0.02-0.33,0.02-0.5,0-7.72-6.279-14-14-14s-14,6.28-14,14c0,0.169,0.02,0.333,0.025,0.5,0.266-7.487,6.424-13.5,13.98-13.5z" fill-opacity="0.1" stroke-opacity="0.1"/>
<defs>
<linearGradient gradientUnits="userSpaceOnUse" id="SVGID_1_" x1="15" x2="15" y1="1.219" y2="29.44">
<stop offset="0" stop-color="#E1E1E1"/>
<stop offset="1" stop-color="#FFFFFF"/>
</linearGradient>
</defs>
</g>
</svg>
