<?xml version="1.0" encoding="UTF-8"?>
<!DOCTYPE svg PUBLIC "-//W3C//DTD SVG 1.1 Tiny//EN" "http://www.w3.org/Graphics/SVG/1.1/DTD/svg11-tiny.dtd">
<svg baseProfile="tiny" height="30px" version="1.1" viewBox="0 0 30 30" width="30px" x="0px" xmlns="http://www.w3.org/2000/svg" xmlns:xlink="http://www.w3.org/1999/xlink" y="0px">
<g fill-opacity="0.5" stroke-opacity="0.5">
<rect fill="none" height="30" width="30"/>
</g>
<polygon points="7.79,8.82 5.865,5.946 4.046,5.946 6.243,8.82 "/>
<polygon points="16.467,8.303 19,5 17.424,5 15.72,7 14,5 12.424,5 14.957,8.303 "/>
<path d="M5.394,8.9c-1.107,0-2.283,0.171-3.527,0.513v1.528c1.217-0.362,2.259-0.544,3.128-0.544c0.533,0,0.967,0.087,1.302,0.262  c0.335,0.174,0.574,0.42,0.718,0.738c0.144,0.317,0.215,0.774,0.215,1.368v1.118c-1.107,0-2.037,0.05-2.789,0.148  c-0.752,0.1-1.401,0.305-1.947,0.615c-0.548,0.312-0.952,0.718-1.216,1.221c-0.263,0.502-0.395,1.105-0.395,1.81  c0,1.101,0.304,1.957,0.913,2.568c0.607,0.612,1.452,0.918,2.532,0.918c1.559,0,2.707-0.629,3.445-1.887L8.213,21h1.2v-8.295  c0-1.313-0.358-2.275-1.077-2.887C7.619,9.206,6.638,8.9,5.394,8.9z M7.229,17.012c0,0.827-0.21,1.481-0.63,1.963  c-0.421,0.482-1.004,0.723-1.749,0.723c-0.588,0-1.032-0.177-1.332-0.533c-0.302-0.354-0.451-0.857-0.451-1.507  c0-0.766,0.229-1.369,0.687-1.81c0.458-0.441,1.278-0.662,2.461-0.662h1.015V17.012z"/>
<polygon points="19.861,10.397 19.861,9.074 11.945,9.074 11.945,10.603 17.277,10.603 11.525,19.656 11.525,21 19.994,21   19.994,19.462 14.088,19.462 "/>
<path d="M28.998,19.441c-0.471,0.157-1.142,0.236-2.01,0.236c-1.004,0-1.764-0.409-2.275-1.226c-0.514-0.817-0.77-1.991-0.77-3.522  c0-1.429,0.258-2.541,0.774-3.338c0.516-0.796,1.272-1.194,2.271-1.194c0.772,0,1.416,0.082,1.928,0.246V9.156  c-0.725-0.17-1.397-0.256-2.02-0.256c-1.702,0-2.999,0.521-3.892,1.563c-0.892,1.043-1.338,2.518-1.338,4.425  c0,2.044,0.41,3.601,1.23,4.671c0.82,1.069,2.051,1.604,3.691,1.604c0.175,0,0.332-0.022,0.501-0.03  c-0.234,0.652-0.441,1.331-0.612,1.866H25v1h2v-0.002h1c0.088,0.041,0.368-1.639,0.73-3.088c0.087-0.021,0.183-0.029,0.268-0.054  V19.441z"/>
</svg>
