<?xml version="1.0" encoding="UTF-8"?>
<!DOCTYPE svg PUBLIC "-//W3C//DTD SVG 1.1 Tiny//EN" "http://www.w3.org/Graphics/SVG/1.1/DTD/svg11-tiny.dtd">
<svg baseProfile="tiny" height="30px" version="1.1" viewBox="0 0 30 30" width="30px" x="0px" xmlns="http://www.w3.org/2000/svg" xmlns:xlink="http://www.w3.org/1999/xlink" y="0px">
<path d="M16.283,24.273c-0.041-0.088-0.061-0.183-0.093-0.273H3V6h24v9.914l2,2.4V6c0-1.104-0.896-2-2-2H3C1.896,4,1,4.896,1,6v18  c0,1.104,0.896,2,2,2h16C17.842,26,16.775,25.322,16.283,24.273z"/>
<path d="M20.013,17.099C19.401,16.277,19,14.979,19,13.5c0-2.485,1.119-4.5,2.5-4.5s2.5,2.015,2.5,4.5  c0,0.172-0.018,0.336-0.028,0.503C23.981,14.003,23.99,14,24,14c0.75,0,1.453,0.291,2,0.786V7H4v16h12  c0-0.699,0.246-1.38,0.692-1.918L20.013,17.099z M5,17v-1v-2l4-3l4,3l2-2l3.057,2.445c0.1,0.977,0.355,1.84,0.724,2.555H5z"/>
<g fill-opacity="0.5" stroke-opacity="0.5">
<rect fill="none" height="30" width="30"/>
</g>
<path d="M18,23c0-0.229,0.079-0.457,0.231-0.641l5-6C23.422,16.132,23.703,16,24,16s0.578,0.132,0.768,0.359l5,6  C29.921,22.543,30,22.771,30,23c0,0.144-0.031,0.289-0.095,0.424C29.741,23.775,29.388,24,29,24h-2v5c0,0.553-0.448,1-1,1h-4  c-0.553,0-1-0.447-1-1v-5h-2c-0.389,0-0.741-0.225-0.906-0.576C18.031,23.289,18,23.144,18,23L18,23z"/>
</svg>
