<?xml version="1.0" encoding="UTF-8"?>
<!DOCTYPE svg PUBLIC "-//W3C//DTD SVG 1.1 Tiny//EN" "http://www.w3.org/Graphics/SVG/1.1/DTD/svg11-tiny.dtd">
<svg baseProfile="tiny" height="30" viewBox="0 0 30 30" width="30" xmlns="http://www.w3.org/2000/svg" xmlns:xlink="http://www.w3.org/1999/xlink">
<g>
<polygon fill-opacity="0.6" points="27,29 27,1 3,1 3,22.414 9.586,29 " stroke-opacity="0.6"/>
<linearGradient gradientTransform="matrix(-1 0 0 1 -1444 0)" gradientUnits="userSpaceOnUse" id="SVGID_1_" x1="-1459" x2="-1459" y1="2" y2="28.0005">
<stop offset="0" style="stop-color:#FFFFFF"/>
<stop offset="1" style="stop-color:#C8C8C8"/>
</linearGradient>
<polygon fill="url(#SVGID_1_)" points="26,2 26,28 10,28 4,22 4,2 "/>
<polygon fill="#FFFFFF" points="4,22 10,22 10,28 "/>
<linearGradient gradientUnits="userSpaceOnUse" id="SVGID_2_" x1="14.9995" x2="14.9995" y1="-2.375" y2="7.0009">
<stop offset="0" style="stop-color:#83CABF"/>
<stop offset="1" style="stop-color:#3E678C"/>
</linearGradient>
<rect fill="url(#SVGID_2_)" height="5.393" width="22" x="4" y="2"/>
<rect fill="#FFFFFF" fill-opacity="0.4" height="1" stroke-opacity="0.4" width="22" x="4" y="2"/>
<polygon fill="#646464" points="9,18.502 6.332,15.5 9,12.498 9,11 5,15.5 9,20 "/>
<polygon fill="#646464" points="21,18.502 23.668,15.5 21,12.498 21,11 25,15.5 21,20 "/>
<rect fill="none" height="30" width="30"/>
<rect fill="#646464" height="2" width="2" x="10" y="14.5"/>
<rect fill="#646464" height="2" width="2" x="14" y="14.5"/>
<rect fill="#646464" height="2" width="2" x="18" y="14.5"/>
</g>
</svg>
