<?xml version="1.0" encoding="UTF-8"?>
<!DOCTYPE svg PUBLIC "-//W3C//DTD SVG 1.1 Tiny//EN" "http://www.w3.org/Graphics/SVG/1.1/DTD/svg11-tiny.dtd">
<svg baseProfile="tiny" height="30px" version="1.1" viewBox="0 0 30 30" width="30px" x="0px" xmlns="http://www.w3.org/2000/svg" xmlns:xlink="http://www.w3.org/1999/xlink" y="0px">
<g fill-opacity="0.5" stroke-opacity="0.5">
<rect fill="none" height="30" width="30"/>
</g>
<path d="M7,0v10.282L2.563,5.986L1,7.549l5.543,5.336L1,18.286l1.563,1.562L7,15.554V26  l8-8l-5.539-5.115L15,8L7,0z M11.477,18.025l-2.473,2.473v-4.944L11.477,18.025z M9.004,10.282V5.336l2.473,2.473L9.004,10.282z" fill-rule="evenodd"/>
<path d="M14.024,22.311c1.686-1.18,3.509-1.919,5.389-2.189L20,19.554v0.512  C20.332,20.035,20.665,20,21,20c0.336,0,0.67,0.035,1.004,0.066v-0.513l0.564,0.564c1.822,0.259,3.589,0.968,5.231,2.082L28,22  l-5.539-5.115L28,12l-8-8v10.282l-4.438-4.296L14,11.549l5.543,5.336L14,22.286L14.024,22.311z M22.004,9.336l2.473,2.473  l-2.473,2.474V9.336z" fill-rule="evenodd"/>
<path d="M30,27c-2.453-3.123-5.586-5-9-5s-6.545,1.877-9,5h2.654  c0.695-0.709,1.522-1.385,2.463-1.921C17.047,25.376,17,25.682,17,26c0,2.21,1.793,4,4,4c2.209,0,4-1.79,4-4  c0-0.318-0.047-0.625-0.117-0.922c0.941,0.536,1.769,1.213,2.463,1.922H30z M21,28c-1.104,0-2-0.447-2-1s0.896-1,2-1  c1.105,0,2,0.447,2,1S22.105,28,21,28z" fill-rule="evenodd"/>
</svg>
