<?xml version="1.0" encoding="UTF-8"?>
<!DOCTYPE svg PUBLIC "-//W3C//DTD SVG 1.1 Tiny//EN" "http://www.w3.org/Graphics/SVG/1.1/DTD/svg11-tiny.dtd">
<svg baseProfile="tiny" height="30px" version="1.1" viewBox="0 0 30 30" width="30px" x="0px" xmlns="http://www.w3.org/2000/svg" xmlns:xlink="http://www.w3.org/1999/xlink" y="0px">
<rect fill="none" height="30" width="30"/>
<polygon points="24.722,22.285 24.722,24.719 20.315,24.719 20.317,24.719 14.341,24.719 16.375,22.285 "/>
<polygon points="5.279,22.283 10.576,22.283 8.524,24.719 5.279,24.719 "/>
<polygon points="24.722,17.268 24.722,19.702 18.53,19.702 20.564,17.268 "/>
<polygon points="5.279,19.699 5.279,17.268 14.804,17.268 12.753,19.702 "/>
<polygon points="21.421,14.546 21.5,14.607 21.448,14.668 10.38,27.857 9.381,29.049 7.515,27.482 8.938,25.787 19.631,13.043 "/>
<polygon points="20.336,3.321 20.336,0.952 9.633,0.952 9.633,11.567 20.336,11.567 20.336,9.199 11.931,9.199 11.931,7.411   18.34,7.411 18.34,5.109 11.931,5.109 11.931,3.321 "/>
</svg>
