<?xml version="1.0" encoding="UTF-8"?>
<!DOCTYPE svg PUBLIC "-//W3C//DTD SVG 1.1 Tiny//EN" "http://www.w3.org/Graphics/SVG/1.1/DTD/svg11-tiny.dtd">
<svg baseProfile="tiny" height="52px" version="1.1" viewBox="0 0 26 52" width="26px" x="0px" xmlns="http://www.w3.org/2000/svg" xmlns:xlink="http://www.w3.org/1999/xlink" y="0px">
<rect fill="none" height="52" width="26" y="0"/>
<path d="M0,52h16c5.523,0,10-4.478,10-10V0H0V52z" fill="#BEBEC8" fill-rule="evenodd"/>
<path d="M16,51c4.963,0,9-4.037,9-9V0H0v51H16z" fill="url(#SVGID_1_)" fill-rule="evenodd"/>
<rect fill="#BEBEC8" fill-rule="evenodd" height="1" width="25"/>
<path d="M16,49c3.859,0,7-3.141,7-7V3H0V2h24v40  c0,4.411-3.588,8-8,8H0v-1H16z" fill="#FFFFFF" fill-opacity="0.1" fill-rule="evenodd" stroke-opacity="0.1"/>
<path d="M16,50c4.412,0,8-3.589,8-8V2H0V1h25v41c0,4.963-4.037,9-9,9H0v-1  H16z" fill-opacity="0.2" fill-rule="evenodd" stroke-opacity="0.2"/>
<defs>
<linearGradient gradientTransform="matrix(-1 0 0 1 -1640 0)" gradientUnits="userSpaceOnUse" id="SVGID_1_" x1="-1652.5" x2="-1652.5" y1="51" y2="0.1572">
<stop offset="0" style="stop-color:#65B8CC"/>
<stop offset="1" style="stop-color:#306D8C"/>
</linearGradient>
</defs>
</svg>
