<?xml version="1.0" ?>
<!DOCTYPE svg  PUBLIC '-//W3C//DTD SVG 1.1//EN'  'http://www.w3.org/Graphics/SVG/1.1/DTD/svg11.dtd'>
<svg height="60" viewBox="0 0 60 60" width="60" xmlns="http://www.w3.org/2000/svg" xmlns:xlink="http://www.w3.org/1999/xlink">
<g opacity="0.5">
<linearGradient gradientUnits="userSpaceOnUse" id="SVGID_1_" x1="29.54" x2="29.54" y1="8.111" y2="49.9">

<stop offset="0" stop-color="#666666"/>

<stop offset="1" stop-color="#000000"/>

</linearGradient>
<path d="M22.91,9.039c0.511-0.425,1.472-0.771,2.136-0.771h20.48c0.664,0,1.207,0.542,1.207,1.206v39.21c0,0.663-0.543,1.206-1.207,1.206h-31.98c-0.663,0-1.207-0.543-1.207-1.206v-29.69c0-0.663,0.418-1.553,0.929-1.977l9.63-7.991z" fill="url(#SVGID_1_)"/>
<linearGradient gradientUnits="userSpaceOnUse" id="SVGID_2_" x1="29.54" x2="29.54" y1="7.959" y2="50.51">

<stop offset="0" stop-color="#999999"/>

<stop offset="1" stop-color="#333333"/>

</linearGradient>
<path d="M45.77,8.571c0.338,0,0.611,0.274,0.611,0.612v39.8c0,0.338-0.273,0.612-0.611,0.612h-32.45c-0.338,0-0.612-0.274-0.612-0.612v-30.13c0-0.49,0.344-1.222,0.721-1.535l9.78-8.105c0.412-0.342,1.242-0.642,1.777-0.642h20.79m0.004-0.614h-20.79c-0.674,0-1.648,0.352-2.167,0.781l-9.78,8.107c-0.519,0.43-0.943,1.332-0.943,2.006v30.13c0,0.673,0.551,1.225,1.225,1.225h32.45c0.673,0,1.225-0.552,1.225-1.225v-39.82c-0.01-0.674-0.56-1.225-1.23-1.225z" fill="url(#SVGID_2_)"/>
<linearGradient gradientUnits="userSpaceOnUse" id="SVGID_3_" x1="29.54" x2="29.54" y1="9.65" y2="48.37">

<stop offset="0" stop-color="#A2A4A4"/>

<stop offset="0.2606" stop-color="#7D7E7F"/>

<stop offset="0.8182" stop-color="#494A4B"/>

<stop offset="1" stop-color="#727475"/>

</linearGradient>
<path d="M15.15,48.37c-0.673,0-1.224-0.551-1.224-1.225v-27.35c0-0.673,0.423-1.577,0.94-2.009l8.629-7.198c0.517-0.432,1.491-0.784,2.165-0.784h18.26c0.673,0,1.224,0.552,1.224,1.225v36.12c0,0.674-0.551,1.225-1.224,1.225h-28.77z" fill="url(#SVGID_3_)"/>
<path d="M43.93,47.76h-28.78c-0.673,0-1.224-0.552-1.224-1.224v0.611c0,0.674,0.551,1.225,1.224,1.225h28.78c0.673,0,1.224-0.551,1.224-1.225v-0.611c0,0.65-0.55,1.21-1.22,1.21z" fill="#808080"/>
<linearGradient gradientUnits="userSpaceOnUse" id="SVGID_4_" x1="29.54" x2="29.54" y1="39.8" y2="45.46">

<stop offset="0" stop-color="#252525"/>

<stop offset="1" stop-color="#5A5B5C"/>

</linearGradient>
<rect fill="url(#SVGID_4_)" height="5.511" width="27.55" x="15.76" y="39.8"/>
<linearGradient gradientUnits="userSpaceOnUse" id="SVGID_5_" x1="42.09" x2="42.09" y1="19.59" y2="11.02">

<stop offset="0" stop-color="#666666"/>

<stop offset="1" stop-color="#282828"/>

</linearGradient>
<rect fill="url(#SVGID_5_)" height="8.571" width="3.674" x="40.26" y="11.02"/>
<linearGradient gradientUnits="userSpaceOnUse" id="SVGID_6_" x1="42.09" x2="42.09" y1="11.49" y2="19.86">

<stop offset="0" stop-color="#D5D19D"/>

<stop offset="0.33" stop-color="#B9A56D"/>

<stop offset="0.66" stop-color="#AD9861"/>

<stop offset="1" stop-color="#B38E4E"/>

</linearGradient>
<rect fill="url(#SVGID_6_)" height="7.959" width="2.449" x="40.87" y="11.63"/>
<rect fill="#CBCBCB" height="0.612" width="3.674" x="40.26" y="18.98"/>
<linearGradient gradientUnits="userSpaceOnUse" id="SVGID_7_" x1="36.58" x2="36.58" y1="19.59" y2="11.02">

<stop offset="0" stop-color="#666666"/>

<stop offset="1" stop-color="#282828"/>

</linearGradient>
<rect fill="url(#SVGID_7_)" height="8.571" width="3.673" x="34.74" y="11.02"/>
<linearGradient gradientUnits="userSpaceOnUse" id="SVGID_8_" x1="36.58" x2="36.58" y1="11.49" y2="19.86">

<stop offset="0" stop-color="#D5D19D"/>

<stop offset="0.33" stop-color="#B9A56D"/>

<stop offset="0.66" stop-color="#AD9861"/>

<stop offset="1" stop-color="#B38E4E"/>

</linearGradient>
<rect fill="url(#SVGID_8_)" height="7.959" width="2.449" x="35.36" y="11.63"/>
<rect fill="#CBCBCB" height="0.612" width="3.673" x="34.74" y="18.98"/>
<linearGradient gradientUnits="userSpaceOnUse" id="SVGID_9_" x1="31.07" x2="31.07" y1="19.59" y2="11.02">

<stop offset="0" stop-color="#666666"/>

<stop offset="1" stop-color="#282828"/>

</linearGradient>
<rect fill="url(#SVGID_9_)" height="8.571" width="3.673" x="29.24" y="11.02"/>
<linearGradient gradientUnits="userSpaceOnUse" id="SVGID_10_" x1="31.07" x2="31.07" y1="11.49" y2="19.86">

<stop offset="0" stop-color="#D5D19D"/>

<stop offset="0.33" stop-color="#B9A56D"/>

<stop offset="0.66" stop-color="#AD9861"/>

<stop offset="1" stop-color="#B38E4E"/>

</linearGradient>
<rect fill="url(#SVGID_10_)" height="7.959" width="2.449" x="29.85" y="11.63"/>
<rect fill="#CBCBCB" height="0.612" width="3.673" x="29.24" y="18.98"/>
<linearGradient gradientUnits="userSpaceOnUse" id="SVGID_11_" x1="25.56" x2="25.56" y1="19.59" y2="11.02">

<stop offset="0" stop-color="#666666"/>

<stop offset="1" stop-color="#282828"/>

</linearGradient>
<rect fill="url(#SVGID_11_)" height="8.571" width="3.673" x="23.72" y="11.02"/>
<linearGradient gradientUnits="userSpaceOnUse" id="SVGID_12_" x1="25.56" x2="25.56" y1="11.49" y2="19.86">

<stop offset="0" stop-color="#D5D19D"/>

<stop offset="0.33" stop-color="#B9A56D"/>

<stop offset="0.66" stop-color="#AD9861"/>

<stop offset="1" stop-color="#B38E4E"/>

</linearGradient>
<rect fill="url(#SVGID_12_)" height="7.959" width="2.449" x="24.34" y="11.63"/>
<rect fill="#CBCBCB" height="0.612" width="3.673" x="23.72" y="18.98"/>
<rect fill="#8C8C8C" height="0.613" width="27.55" x="15.76" y="44.69"/>
<path d="M45.77,7.959h-20.79c-0.674,0-1.648,0.352-2.167,0.781l-9.78,8.107c-0.4,0.332-0.743,0.947-0.878,1.52,0,0,1.004-0.828,1.269-1.049l9.78-8.105c0.412-0.342,1.242-0.642,1.777-0.642h20.78c0.611,0,1.225,0.612,1.225,0.612-0.01-0.675-0.56-1.226-1.23-1.226z" fill="#CCCCCC"/>
<rect fill="none" height="60" width="60"/>
</g>
</svg>
