<?xml version="1.0" encoding="UTF-8"?>
<!DOCTYPE svg PUBLIC "-//W3C//DTD SVG 1.1 Tiny//EN" "http://www.w3.org/Graphics/SVG/1.1/DTD/svg11-tiny.dtd">
<svg baseProfile="tiny" height="30px" version="1.1" viewBox="0 0 30 30" width="30px" x="0px" xmlns="http://www.w3.org/2000/svg" xmlns:xlink="http://www.w3.org/1999/xlink" y="0px">
<g>
<rect fill="none" height="30" width="30"/>
</g>
<path d="M23,14c0.552,0,1.09,0.058,1.615,0.153C24.854,13.818,25,13.423,25,13c0-0.689-0.355-1.33-0.939-1.696l-16-9.999  C7.736,1.102,7.369,1,7,1C6.666,1,6.332,1.084,6.03,1.25C5.395,1.604,5,2.273,5,3v20c0,0.727,0.395,1.396,1.03,1.75  C6.332,24.916,6.666,25,7,25c0.369,0,0.736-0.102,1.061-0.305l6.221-3.888C15.264,16.903,18.795,14,23,14z"/>
<path d="M23,16c-3.865,0-7,3.135-7,7c0,3.867,3.135,7,7,7s7-3.133,7-7C30,19.135,26.865,16,23,16z M22,23.992v-0.016v-1.98v-4.004h2  v4.004h4v1.996H22z"/>
</svg>
