<?xml version="1.0" encoding="UTF-8"?>
<!DOCTYPE svg PUBLIC "-//W3C//DTD SVG 1.1 Tiny//EN" "http://www.w3.org/Graphics/SVG/1.1/DTD/svg11-tiny.dtd">
<svg baseProfile="tiny" height="30px" version="1.1" viewBox="0 0 30 30" width="30px" x="0px" xmlns="http://www.w3.org/2000/svg" xmlns:xlink="http://www.w3.org/1999/xlink" y="0px">
<g fill-opacity="0.5" stroke-opacity="0.5">
<rect fill="none" height="30" width="30"/>
</g>
<path d="M12.461,13.885L18,9l-8-8v10.282L5.563,6.986L4,8.549l5.543,5.336L4,19.286  l1.563,1.562L10,16.554V27l4-4c0-2.19,0.788-4.198,2.094-5.761L12.461,13.885z M12.004,6.336l2.473,2.473l-2.473,2.474V6.336z   M12.004,21.498v-4.944l2.473,2.472L12.004,21.498z" fill-rule="evenodd"/>
<path d="M23,16c-3.866,0-7,3.134-7,7s3.134,7,7,7s7-3.134,7-7S26.866,16,23,16z M24,24v4h-2v-4h-4v-2h4v-4h2v4h4v2H24z"/>
</svg>
