<?xml version="1.0" encoding="UTF-8"?>
<!DOCTYPE svg PUBLIC "-//W3C//DTD SVG 1.1 Tiny//EN" "http://www.w3.org/Graphics/SVG/1.1/DTD/svg11-tiny.dtd">
<svg baseProfile="tiny" height="60" viewBox="0 0 60 60" width="60" xmlns="http://www.w3.org/2000/svg" xmlns:xlink="http://www.w3.org/1999/xlink">
<g>
<linearGradient gradientUnits="userSpaceOnUse" id="SVGID_1_" x1="30" x2="30" y1="4.39" y2="58.45">
<stop offset="0" stop-color="#F2F2F2"/>
<stop offset="1" stop-color="#A8A8A8"/>
</linearGradient>
<path d="M17.36,1s6.154,1.286,10.78,5.642c-13.61,0.95-24.36,12.29-24.36,26.14,0,14.48,11.74,26.22,26.22,26.22s26.22-11.93,26.22-26.22c0-14.28-13.11-31.78-38.86-31.78z" fill="url(#SVGID_1_)"/>
<linearGradient gradientUnits="userSpaceOnUse" id="SVGID_2_" x1="36.79" x2="36.79" y1="5.052" y2="31.46">
<stop offset="0" stop-color="#FFFFFF"/>
<stop offset="1" stop-color="#CFD3D1"/>
</linearGradient>
<path d="M56.15,32.73l0.066,0.055c0-14.28-13.11-31.78-38.86-31.78,0,0,36.7,2.018,38.79,31.73z" fill="url(#SVGID_2_)"/>
<linearGradient gradientUnits="userSpaceOnUse" id="SVGID_3_" x1="30" x2="30" y1="9.028" y2="57.83">
<stop offset="0" stop-color="#F5F5F5"/>
<stop offset="0.05" stop-color="#F5F5F5"/>
<stop offset="0.7818" stop-color="#CCCCCC"/>
<stop offset="1" stop-color="#D1D1D1"/>
</linearGradient>
<path d="M54.52,33.18c0,13.54-10.98,24.52-24.52,24.52s-24.52-10.98-24.52-24.52c-0.003-13.54,10.98-24.52,24.52-24.52s24.52,10.98,24.52,24.52z" fill="url(#SVGID_3_)"/>
<linearGradient gradientUnits="userSpaceOnUse" id="SVGID_4_" x1="30" x2="30" y1="24.82" y2="40.68">
<stop offset="0" stop-color="#C39072"/>
<stop offset="1" stop-color="#984D51"/>
</linearGradient>
<path d="M40.38,24.82c-4.26,0-7.725,3.465-7.725,7.72,0,1.766,0.602,3.385,1.598,4.686h-8.513c0.998-1.301,1.598-2.92,1.598-4.686,0-4.255-3.465-7.72-7.724-7.72-4.26,0-7.726,3.465-7.726,7.72,0,4.262,3.466,7.727,7.726,7.727h20.77c4.26,0,7.723-3.465,7.723-7.727-0.01-4.25-3.48-7.72-7.74-7.72zm-25.45,7.72c0-2.58,2.101-4.681,4.685-4.681,2.583,0,4.685,2.102,4.685,4.681,0,2.584-2.102,4.686-4.685,4.686-2.59,0-4.69-2.1-4.69-4.69zm25.45,4.69c-2.584,0-4.686-2.102-4.686-4.686,0-2.58,2.102-4.681,4.686-4.681,2.583,0,4.684,2.102,4.684,4.681,0.01,2.59-2.09,4.69-4.68,4.69z" fill="url(#SVGID_4_)"/>
<rect fill="none" height="60" width="60"/>
</g>
<g transform="matrix(1 0 0 1 30 0)">
<polygon fill-opacity="0.35" points="23.487,5.563 16.725,12.331 19.341,2.565 12.047,0.611 8.829,12.621   14.825,14.229 12.973,16.083 18.312,21.421 28.829,10.901 " stroke-opacity="0.35"/>
<linearGradient gradientTransform="matrix(1 0 0 -1 -282.4805 -376.0195)" gradientUnits="userSpaceOnUse" id="SVGID_1__" x1="297.9736" x2="295.2261" y1="-378.1689" y2="-388.7774">
<stop offset="0" style="stop-color:#CDB18B"/>
<stop offset="0.703" style="stop-color:#985954"/>
<stop offset="1" style="stop-color:#BE997B"/>
</linearGradient>
<polygon fill="url(#SVGID_1__)" points="9.714,12.11 12.558,1.496 18.453,3.077 15.611,13.691 "/>
<linearGradient gradientTransform="matrix(1 0 0 -1 -282.4805 -376.0195)" gradientUnits="userSpaceOnUse" id="SVGID_2__" x1="297.7822" x2="295.3409" y1="-378.8926" y2="-388.3527">
<stop offset="0" style="stop-color:#C39072"/>
<stop offset="0.7939" style="stop-color:#88444B"/>
<stop offset="1" style="stop-color:#AF7563"/>
</linearGradient>
<polygon fill="url(#SVGID_2__)" points="15.18,12.942 10.463,11.679 12.989,2.246 17.706,3.508 "/>
<linearGradient gradientTransform="matrix(1 0 0 -1 -282.4805 -376.0195)" gradientUnits="userSpaceOnUse" id="SVGID_3__" x1="308.0273" x2="298.6434" y1="-384.7505" y2="-394.3634">
<stop offset="0" style="stop-color:#CDB18B"/>
<stop offset="0.703" style="stop-color:#985954"/>
<stop offset="1" style="stop-color:#BE997B"/>
</linearGradient>
<polygon fill="url(#SVGID_3__)" points="13.995,16.083 23.487,6.585 27.805,10.901 18.312,20.398 "/>
<linearGradient gradientTransform="matrix(1 0 0 -1 -282.4805 -376.0195)" gradientUnits="userSpaceOnUse" id="SVGID_4__" x1="307.7012" x2="299.1582" y1="-385.1528" y2="-393.7721">
<stop offset="0" style="stop-color:#C39072"/>
<stop offset="0.7939" style="stop-color:#88444B"/>
<stop offset="1" style="stop-color:#AF7563"/>
</linearGradient>
<polygon fill="url(#SVGID_4__)" points="18.312,19.532 14.858,16.083 23.487,7.449 26.944,10.901 "/>
<rect fill="none" height="30" width="30"/>
</g>
</svg>
