<?xml version="1.0" encoding="UTF-8"?>
<!DOCTYPE svg PUBLIC "-//W3C//DTD SVG 1.1 Tiny//EN" "http://www.w3.org/Graphics/SVG/1.1/DTD/svg11-tiny.dtd">
<svg baseProfile="tiny" height="30" viewBox="0 0 30 30" width="30" xmlns="http://www.w3.org/2000/svg" xmlns:xlink="http://www.w3.org/1999/xlink">
<g>
<rect fill="none" height="30" width="30"/>
<path d="M18,29c-6.065,0-11-4.935-11-11v-3H0L11,0.333L22,15h-8v3c0,2.206,1.795,4,4,4s4-1.794,4-4v-1h7v1  C29,24.065,24.065,29,18,29L18,29z" fill-opacity="0.6" stroke-opacity="0.6"/>
<path d="M23,18c0,2.757-2.243,5-5,5s-5-2.243-5-5v-4h7L11,2L2,14h6v4c0,5.5,4.5,10,10,10s10-4.5,10-10H23z" fill="url(#SVGID_1_)"/>
<path d="M13,18v1c0,2.757,2.243,5,5,5s5-2.243,5-5h4.949C27.982,18.671,28,18.338,28,18h-5  c0,2.757-2.243,5-5,5S13,20.757,13,18z" fill="#FFFFFF" fill-opacity="0.4" stroke-opacity="0.4"/>
<polygon fill="#FFFFFF" fill-opacity="0.4" points="11,3 19.25,14 20,14 11,2 2,14 2.75,14 " stroke-opacity="0.4"/>
<rect fill="none" height="30" width="30"/>
<defs>
<linearGradient gradientUnits="userSpaceOnUse" id="SVGID_1_" x1="14.9995" x2="14.9995" y1="2" y2="28.0005">
<stop offset="0" style="stop-color:#B36B4D"/>
<stop offset="1" style="stop-color:#5A2633"/>
</linearGradient>
</defs>
</g>
</svg>
