<?xml version="1.0" encoding="UTF-8"?>
<!DOCTYPE svg PUBLIC "-//W3C//DTD SVG 1.1 Tiny//EN" "http://www.w3.org/Graphics/SVG/1.1/DTD/svg11-tiny.dtd">
<svg baseProfile="tiny" height="30px" version="1.1" viewBox="0 0 30 30" width="30px" x="0px" xmlns="http://www.w3.org/2000/svg" xmlns:xlink="http://www.w3.org/1999/xlink" y="0px">
<g fill-opacity="0.5" stroke-opacity="0.5">
<rect fill="none" height="30" width="30"/>
</g>
<path d="M24,9.5c0-2.192-0.887-4.185-2.33-5.692c-0.176-0.063-0.41-0.089-0.679,0.035l-1.033,3.445C19.831,7.71,19.441,8,19,8  s-0.831-0.29-0.958-0.713l-1.737-5.79C15.955,1.19,15.502,1,15,1s-0.955,0.19-1.305,0.497l-1.737,5.79C11.831,7.71,11.441,8,11,8  s-0.831-0.29-0.958-0.713L9.009,3.842C8.74,3.718,8.506,3.745,8.33,3.808C6.887,5.315,6,7.308,6,9.5c0,4.375,3.5,7.975,8,8.444V29h2  V17.944C20.5,17.475,24,13.875,24,9.5z"/>
<path d="M25.842,17.461C25.652,17.163,25.329,17,24.999,17c-0.181,0-0.364,0.049-0.528,0.152l-8,5  c-0.227,0.142-0.388,0.367-0.446,0.628s-0.011,0.534,0.134,0.759c0.918,1.436,2.638,2.327,4.487,2.327  c1.144,0,2.271-0.335,3.262-0.968C26.57,23.193,27.42,19.928,25.842,17.461z"/>
<path d="M13.529,22.285l-8-5c-0.164-0.103-0.348-0.151-0.528-0.151c-0.33,0-0.653,0.163-0.843,0.461  c-1.578,2.466-0.729,5.733,1.935,7.437C7.084,25.665,8.211,26,9.354,26c1.85,0,3.569-0.893,4.487-2.327  c0.145-0.225,0.192-0.498,0.134-0.759S13.756,22.428,13.529,22.285z"/>
</svg>
