<?xml version="1.0" encoding="UTF-8"?>
<!DOCTYPE svg PUBLIC "-//W3C//DTD SVG 1.1 Tiny//EN" "http://www.w3.org/Graphics/SVG/1.1/DTD/svg11-tiny.dtd">
<svg baseProfile="tiny" height="10px" version="1.1" viewBox="0 0 10 10" width="10px" x="0px" xmlns="http://www.w3.org/2000/svg" xmlns:xlink="http://www.w3.org/1999/xlink" y="0px">
<rect fill="none" height="10" width="10"/>
<path d="M9,7c0-3.3-2.7-6-6-6H0v2h3c2.205,0,4,1.794,4,4v3h2V7z" fill="#14141E" fill-opacity="0.4" stroke-opacity="0.4"/>
<path d="M8,7c0-2.757-2.243-5-5-5H0v8h8V7z" fill="url(#SVGID_1_)"/>
<path d="M8,7c0-2.757-2.243-5-5-5H0v1h3c2.206,0,4,1.795,4,4v3h1V7z" fill="#FFFFFF" fill-opacity="0.2" stroke-opacity="0.2"/>
<rect fill="none" height="10" width="10"/>
<defs>
<linearGradient gradientUnits="userSpaceOnUse" id="SVGID_1_" x1="4" x2="4" y1="46.876" y2="2.1216">
<stop offset="0" style="stop-color:#AAAAAF"/>
<stop offset="1" style="stop-color:#78787D"/>
</linearGradient>
</defs>
</svg>
