<?xml version="1.0" encoding="UTF-8"?>
<!DOCTYPE svg PUBLIC "-//W3C//DTD SVG 1.1 Tiny//EN" "http://www.w3.org/Graphics/SVG/1.1/DTD/svg11-tiny.dtd">
<svg baseProfile="tiny" height="25px" version="1.1" viewBox="0 0 25 25" width="25px" x="0px" xmlns="http://www.w3.org/2000/svg" xmlns:xlink="http://www.w3.org/1999/xlink" y="0px">
<path d="M15.313,9.813L12.506,1.13L9.689,9.813H0.545l7.416,5.367L5.109,23.87l7.396-5.396  l7.385,5.396l-2.844-8.689l7.408-5.367H15.313z" fill="#AAAAAA" fill-opacity="0.8" stroke-opacity="0.8"/>
<path d="M24.455,9.813h-9.143L12.506,1.13L9.689,9.813H0.545l7.416,5.367L5.109,23.87l7.396-5.396l7.385,5.396  l-2.844-8.689L24.455,9.813z M17.977,21.235l-5.471-4l-5.477,3.994l2.111-6.431l-5.506-3.984h6.783l2.084-6.436l2.082,6.436h6.787  l-5.5,3.984L17.977,21.235z" fill-opacity="0.2" stroke-opacity="0.2"/>
<rect fill="none" height="25" width="25"/>
</svg>
