<?xml version="1.0" encoding="UTF-8"?>
<!DOCTYPE svg PUBLIC "-//W3C//DTD SVG 1.1 Tiny//EN" "http://www.w3.org/Graphics/SVG/1.1/DTD/svg11-tiny.dtd">
<svg baseProfile="tiny" height="30px" version="1.1" viewBox="0 0 30 30" width="30px" x="0px" xmlns="http://www.w3.org/2000/svg" xmlns:xlink="http://www.w3.org/1999/xlink" y="0px">
<g fill-opacity="0.5" stroke-opacity="0.5">
<rect fill="none" height="30" width="30"/>
</g>
<path d="M15,9c-1.654,0-3,1.346-3,3s1.346,3,3,3s3-1.346,3-3S16.654,9,15,9z M15,13c-0.551,0-1-0.448-1-1s0.449-1,1-1s1,0.448,1,1  S15.551,13,15,13z"/>
<path d="M24,1H6C4.9,1,4,1.9,4,3v24c0,1.1,0.9,2,2,2h18c1.1,0,2-0.9,2-2V3C26,1.9,25.1,1,24,1z M14,27H6v-8.695  c0.811,1.152,1.844,2.131,3.025,2.901L12,16v6.563c0.646,0.184,1.311,0.324,2,0.387V27z M24,27h-8v-3h8V27z M15,21  c-0.688,0-1.355-0.084-2-0.23V16c0-0.453-0.305-0.851-0.743-0.967C12.172,15.011,12.085,15,12,15c-0.353,0-0.688,0.187-0.868,0.504  l-1.929,3.375C7.246,17.229,6,14.761,6,12c0-4.971,4.029-9,9-9s9,4.029,9,9S19.971,21,15,21z"/>
</svg>
