<?xml version="1.0" encoding="UTF-8"?>
<!DOCTYPE svg PUBLIC "-//W3C//DTD SVG 1.1 Tiny//EN" "http://www.w3.org/Graphics/SVG/1.1/DTD/svg11-tiny.dtd">
<svg baseProfile="tiny" height="30px" version="1.1" viewBox="0 0 30 30" width="30px" x="0px" xmlns="http://www.w3.org/2000/svg" xmlns:xlink="http://www.w3.org/1999/xlink" y="0px">
<g fill-opacity="0.5" stroke-opacity="0.5">
<rect fill="none" height="30" width="30"/>
</g>
<polygon points="15,3 1,15.5 15,28 15,27 18,27 18,24 15,24 15,22 18,22 18,19 15,19 15,17 18,17 18,14 15,14 15,12 18,12 18,9   15,9 15,7 18,7 18,4 15,4 "/>
<rect height="3" width="3" x="20" y="9"/>
<rect height="3" width="3" x="20" y="14"/>
<rect height="3" width="3" x="25" y="14"/>
<rect height="3" width="3" x="20" y="19"/>
</svg>
