<?xml version="1.0" encoding="UTF-8"?>
<!DOCTYPE svg PUBLIC "-//W3C//DTD SVG 1.1 Tiny//EN" "http://www.w3.org/Graphics/SVG/1.1/DTD/svg11-tiny.dtd">
<svg baseProfile="tiny" height="30px" version="1.1" viewBox="-1 -2 30 30" width="30px" x="0px" xmlns="http://www.w3.org/2000/svg" xmlns:xlink="http://www.w3.org/1999/xlink" y="0px">
<polygon points="2,18 0,18 0,26 10,26 10,24.086 2,24.086 "/>
<polygon points="26,8 28,8 28,0 18,0 18,2.086 26,2.086 "/>
<polygon points="28,22.85 28,18 26,18 26,20.85 "/>
<polygon points="20.939,24.086 18,24.086 18,26 22.854,26 "/>
<path d="M17.386,12.236C17.776,11.346,18,10.326,18,9.303C18,6.377,16.206,4,14,4c-1.204,0-2.273,0.724-3.007,1.843L17.386,12.236z"/>
<path d="M12.327,15.474c-0.247,0.828-1.152,1.156-1.929,1.173C6.448,17.049,6.016,21.768,6,22h12.854L12.327,15.474z"/>
<polygon points="7.235,2.086 10,2.086 10,0 5.149,0 "/>
<polygon points="0,3.146 0,8 2,8 2,5.146 "/>
<path d="M26.693,24.372c0.389,0.389,0.41,1.006,0.048,1.369s-0.978,0.342-1.366-0.047L1.307,1.625  C0.918,1.236,0.896,0.621,1.26,0.258s0.979-0.341,1.367,0.048L26.693,24.372z"/>
</svg>
