<?xml version="1.0" encoding="UTF-8"?>
<!DOCTYPE svg PUBLIC "-//W3C//DTD SVG 1.1 Tiny//EN" "http://www.w3.org/Graphics/SVG/1.1/DTD/svg11-tiny.dtd">
<svg baseProfile="tiny" height="30px" version="1.1" viewBox="0 0 30 30" width="30px" x="0px" xmlns="http://www.w3.org/2000/svg" xmlns:xlink="http://www.w3.org/1999/xlink" y="0px">
<path d="M5.086,13.573l0.027,0.004c0.166-1.16,0.537-2.255,1.066-3.251L3.99,8.137c-0.921,1.479-1.563,3.148-1.83,4.945  c-0.039,0.133-0.066,0.271-0.066,0.418c0,0.828,0.672,1.5,1.5,1.5C4.396,15,5.047,14.367,5.086,13.573z"/>
<path d="M15,5c5.514,0,10,4.486,10,10c0,1.691-0.425,3.283-1.169,4.681l2.19,2.19C27.268,19.875,28,17.525,28,15  c0-7.18-5.82-13-13-13c-2.527,0-4.879,0.729-6.872,1.979l2.197,2.196C11.721,5.43,13.31,5,15,5z"/>
<path d="M15,25c-2.759,0-5.244-1.136-7.049-2.951l3.635-3.635C12.363,17.637,12.1,17,11,17H4c-1.1,0-2,0.9-2,2v7  c0,1.1,0.637,1.363,1.414,0.586l2.408-2.408C8.17,26.534,11.408,28,15,28c2.527,0,4.877-0.732,6.873-1.98l-2.19-2.189  C18.284,24.574,16.691,25,15,25z"/>
<path d="M3.628,2.307c-0.389-0.389-1.004-0.41-1.367-0.048S1.919,3.236,2.308,3.625l24.068,24.07  c0.389,0.389,1.004,0.408,1.366,0.045s0.341-0.979-0.048-1.367L3.628,2.307z"/>
<g fill-opacity="0.5" stroke-opacity="0.5">
<rect fill="none" height="30" width="30"/>
</g>
</svg>
