<?xml version="1.0" encoding="UTF-8"?>
<!DOCTYPE svg PUBLIC "-//W3C//DTD SVG 1.1 Tiny//EN" "http://www.w3.org/Graphics/SVG/1.1/DTD/svg11-tiny.dtd">
<svg baseProfile="tiny" height="20px" version="1.1" viewBox="0 0 40 20" width="40px" x="0px" xmlns="http://www.w3.org/2000/svg" xmlns:xlink="http://www.w3.org/1999/xlink" y="0px">
<path d="M40,16c0,2.209-1.791,4-4,4H4c-2.209,0-4-1.791-4-4V4c0-2.209,1.791-4,4-4h32c2.209,0,4,1.791,4,4V16z" fill="#828282"/>
<path d="M13.628,16.887l-0.756-2.883H8.908l-0.773,2.883H5.938L9.717,3.782h2.848l3.621,13.105H13.628z   M12.512,12.527l-1.608-6.513l-1.652,6.513H12.512z" fill="#FFFFFF"/>
<path d="M19.877,7.491c0.65-0.686,1.494-1.028,2.531-1.028c1.166,0,2.041,0.423,2.623,1.27  c0.584,0.847,0.875,2.117,0.875,3.811c0,1.717-0.41,3.054-1.23,4.012s-1.982,1.438-3.488,1.438c-1.278,0-2.509-0.076-3.692-0.229  V2.973h2.382V7.491z M19.877,11.631v3.832c0.311,0.047,0.73,0.07,1.258,0.07c0.785,0,1.367-0.305,1.748-0.914  s0.572-1.646,0.572-3.111c0-1.19-0.146-2.082-0.439-2.677s-0.73-0.892-1.311-0.892c-0.592,0-1.045,0.234-1.357,0.703  C20.033,9.111,19.877,10.107,19.877,11.631z" fill="#FFFFFF"/>
<path d="M31.848,17.027c-1.465,0-2.563-0.45-3.295-1.35s-1.1-2.248-1.1-4.047c0-1.67,0.396-2.949,1.188-3.837  s1.947-1.332,3.471-1.332c0.604,0,1.223,0.073,1.855,0.22v1.459c-0.445-0.146-1.002-0.22-1.67-0.22  c-0.791,0-1.385,0.311-1.781,0.932c-0.395,0.621-0.592,1.553-0.592,2.795c0,1.307,0.197,2.286,0.592,2.939  c0.396,0.653,0.99,0.98,1.781,0.98c0.703,0,1.291-0.064,1.766-0.193v1.389C33.4,16.939,32.662,17.027,31.848,17.027z" fill="#FFFFFF"/>
</svg>
