<?xml version="1.0" encoding="UTF-8"?>
<!DOCTYPE svg PUBLIC "-//W3C//DTD SVG 1.1 Tiny//EN" "http://www.w3.org/Graphics/SVG/1.1/DTD/svg11-tiny.dtd">
<svg baseProfile="tiny" height="30px" version="1.1" viewBox="0 0 30 30" width="30px" x="0px" xmlns="http://www.w3.org/2000/svg" xmlns:xlink="http://www.w3.org/1999/xlink" y="0px">
<g fill-opacity="0.5" stroke-opacity="0.5">
<rect fill="none" height="30" width="30"/>
</g>
<path d="M27.748,3.707l-2.121-2.122c-0.781-0.781-2.047-0.781-2.828,0L16.436,7.95l4.949,4.95l6.363-6.364  C28.529,5.754,28.529,4.488,27.748,3.707z"/>
<path d="M1.586,22.799c-0.781,0.781-0.781,2.047,0,2.828l2.121,2.121c0.781,0.781,2.047,0.781,2.828,0l6.364-6.363l-4.95-4.949  L1.586,22.799z"/>
<path d="M23.506,19.264c0.268-0.268,0.361-0.664,0.242-1.023c-0.12-0.359-0.433-0.621-0.808-0.674l-2.97-0.424l0.707-0.707  c0.391-0.391,0.391-1.024,0-1.415l-6.364-6.364c-0.236-0.236-0.575-0.339-0.903-0.273L9.697,8.282L7.831,6.417  c-0.391-0.39-1.024-0.39-1.415,0c-0.39,0.391-0.39,1.024,0,1.415l1.866,1.865l0.101,3.714c-0.064,0.328,0.037,0.667,0.273,0.903  l6.365,6.364c0.39,0.391,1.023,0.391,1.414,0l0.707-0.707l0.424,2.969c0.054,0.376,0.314,0.688,0.674,0.809  c0.359,0.119,0.756,0.025,1.023-0.242l1.414-1.414l2.828,2.828l1.414-1.414l-2.828-2.828L23.506,19.264z"/>
</svg>
