<?xml version="1.0" encoding="UTF-8"?>
<!DOCTYPE svg PUBLIC "-//W3C//DTD SVG 1.1 Tiny//EN" "http://www.w3.org/Graphics/SVG/1.1/DTD/svg11-tiny.dtd">
<svg baseProfile="tiny" height="30px" version="1.1" viewBox="0 0 30 30" width="30px" x="0px" xmlns="http://www.w3.org/2000/svg" xmlns:xlink="http://www.w3.org/1999/xlink" y="0px">
<path d="M8.282,11.011c-0.144-0.085-0.28-0.181-0.403-0.304l-3.54-3.539c-0.964-0.96-1.597-0.279-1.903,0.25  c-0.9,2.646-0.377,5.661,1.572,7.867L8.282,11.011z"/>
<path d="M27.132,22.889l-9.769-9.769c1.232-2.911,0.667-6.403-1.707-8.777c-2.024-2.024-4.863-2.729-7.462-2.129  c-0.388,0.13-1.167,0.571,0.113,1.851H8.307l3.107,3.107c0.781,0.78,0.781,2.047,0,2.828l-0.707,0.707L5.104,16.31  c2.321,1.804,5.399,2.161,8.016,1.054l9.769,9.768c1.172,1.172,3.072,1.172,4.243,0C28.303,25.96,28.303,24.061,27.132,22.889z   M25.01,25.01c-0.39,0.391-1.023,0.391-1.414,0l-0.707-0.707c-0.391-0.391-0.391-1.023,0-1.414s1.023-0.391,1.414,0l0.707,0.707  C25.4,23.986,25.4,24.619,25.01,25.01z"/>
<g fill-opacity="0.5" stroke-opacity="0.5">
<rect fill="none" height="30" width="30"/>
</g>
</svg>
