<?xml version="1.0" encoding="UTF-8"?>
<!DOCTYPE svg PUBLIC "-//W3C//DTD SVG 1.1 Tiny//EN" "http://www.w3.org/Graphics/SVG/1.1/DTD/svg11-tiny.dtd">
<svg baseProfile="tiny" height="30px" version="1.1" viewBox="-1 -2 30 30" width="30px" x="0px" xmlns="http://www.w3.org/2000/svg" xmlns:xlink="http://www.w3.org/1999/xlink" y="0px">
<polygon points="2,8 2,2.086 10,2.086 10,0 0,0 0,8 "/>
<polygon points="2,18 0,18 0,26 10,26 10,24.086 2,24.086 "/>
<polygon points="26,8 28,8 28,0 18,0 18,2.086 26,2.086 "/>
<polygon points="26,18 26,24.086 18,24.086 18,26 28,26 28,18 "/>
<path d="M6,22c0.016-0.232,0.448-4.951,4.398-5.354c0.908-0.02,1.999-0.459,1.999-1.633v-0.297c0-0.129-0.06-0.252-0.163-0.33  C10.898,13.393,10,11.352,10,9.303C10,6.377,11.794,4,14,4s4,2.377,4,5.303c0,2.049-0.898,4.09-2.238,5.084  c-0.101,0.078-0.162,0.201-0.162,0.33v0.297c0,1.291,1.31,1.633,1.999,1.633C21.553,17.049,21.982,21.768,22,22H6z"/>
</svg>
