<?xml version="1.0" encoding="UTF-8"?>
<!DOCTYPE svg PUBLIC "-//W3C//DTD SVG 1.1 Tiny//EN" "http://www.w3.org/Graphics/SVG/1.1/DTD/svg11-tiny.dtd">
<svg baseProfile="tiny" height="30" viewBox="0 0 30 30" width="30" xmlns="http://www.w3.org/2000/svg" xmlns:xlink="http://www.w3.org/1999/xlink">
<g>
<path d="M26,8v-2h-1.586l-5-5h-14.41v5h-1v2c-1.654,0-3,1.346-3,3v8c0,1.654,1.346,3,3,3v3h1v4h20v-4h1v-3c1.654,0,3-1.346,3-3v-8c0-1.654-1.35-3-3-3z" fill-opacity="0.6" stroke-opacity="0.6"/>
<linearGradient gradientUnits="userSpaceOnUse" id="SVGID_1_" x1="15" x2="15" y1="7" y2="10">
<stop offset="0" stop-color="#808080"/>
<stop offset="1" stop-color="#636363"/>
</linearGradient>
<rect fill="url(#SVGID_1_)" height="3" width="20" x="5" y="7"/>
<linearGradient gradientUnits="userSpaceOnUse" id="SVGID_2_" x1="15" x2="15" y1="21" y2="24">
<stop offset="0" stop-color="#808080"/>
<stop offset="1" stop-color="#636363"/>
</linearGradient>
<rect fill="url(#SVGID_2_)" height="3" width="20" x="5" y="21"/>
<linearGradient gradientUnits="userSpaceOnUse" id="SVGID_3_" x1="15" x2="15" y1="2.002" y2="28.06">
<stop offset="0" stop-color="#EDEDED"/>
<stop offset="1" stop-color="#BDBDBD"/>
</linearGradient>
<rect fill="url(#SVGID_3_)" height="10" width="18" x="6" y="18"/>
<rect fill-opacity="0.5" height="1.5" stroke-opacity="0.5" width="2" x="8" y="23.5"/>
<rect fill-opacity="0.5" height="1.5" stroke-opacity="0.5" width="11" x="11" y="23.5"/>
<linearGradient gradientUnits="userSpaceOnUse" id="SVGID_4_" x1="15" x2="15" y1="2" y2="28.07">
<stop offset="0" stop-color="#EDEDED"/>
<stop offset="1" stop-color="#BDBDBD"/>
</linearGradient>
<polygon fill="url(#SVGID_4_)" points="24,7,24,19,6,19,6,2,19,2"/>
<rect fill-opacity="0.5" height="1.5" stroke-opacity="0.5" width="2" x="8" y="5"/>
<rect fill-opacity="0.5" height="1.5" stroke-opacity="0.5" width="11" x="11" y="5"/>
<polygon fill="#FFFFFF" points="19,7,24,7,19,2"/>
<linearGradient gradientUnits="userSpaceOnUse" id="SVGID_5_" x1="15" x2="15" y1="9.115" y2="21.01">
<stop offset="0" stop-color="#E6E6E6"/>
<stop offset="1" stop-color="#626262"/>
</linearGradient>
<path d="M28,19c0,1.1-0.9,2-2,2h-22c-1.1,0-2-0.9-2-2v-8c0-1.1,0.9-2,2-2h22c1.1,0,2,0.9,2,2v8z" fill="url(#SVGID_5_)"/>
<path d="M26,9h-22c-1.1,0-2,0.9-2,2v1c0-1.1,0.9-2,2-2h22c1.1,0,2,0.9,2,2v-1c0-1.1-0.9-2-2-2z" fill="#FFFFFF" fill-opacity="0.4" stroke-opacity="0.4"/>
<linearGradient gradientUnits="userSpaceOnUse" id="SVGID_6_" x1="15.5" x2="15.5" y1="11" y2="20.98">
<stop offset="0" stop-color="#6B6C6D"/>
<stop offset="1" stop-color="#262628"/>
</linearGradient>
<rect fill="url(#SVGID_6_)" height="2" width="3" x="14" y="11"/>
<linearGradient gradientUnits="userSpaceOnUse" id="SVGID_7_" x1="19.5" x2="19.5" y1="11" y2="20.98">
<stop offset="0" stop-color="#6B6C6D"/>
<stop offset="1" stop-color="#262628"/>
</linearGradient>
<rect fill="url(#SVGID_7_)" height="2" width="3" x="18" y="11"/>
<linearGradient gradientUnits="userSpaceOnUse" id="SVGID_8_" x1="23.5" x2="23.5" y1="11" y2="20.98">
<stop offset="0" stop-color="#6B6C6D"/>
<stop offset="1" stop-color="#262628"/>
</linearGradient>
<rect fill="url(#SVGID_8_)" height="2" width="3" x="22" y="11"/>
<linearGradient gradientUnits="userSpaceOnUse" id="SVGID_9_" x1="15.5" x2="15.5" y1="10" y2="19.98">
<stop offset="0" stop-color="#6B6C6D"/>
<stop offset="1" stop-color="#262628"/>
</linearGradient>
<rect fill="url(#SVGID_9_)" height="2" width="3" x="14" y="14"/>
<linearGradient gradientUnits="userSpaceOnUse" id="SVGID_10_" x1="19.5" x2="19.5" y1="10" y2="19.98">
<stop offset="0" stop-color="#6B6C6D"/>
<stop offset="1" stop-color="#262628"/>
</linearGradient>
<rect fill="url(#SVGID_10_)" height="2" width="3" x="18" y="14"/>
<linearGradient gradientUnits="userSpaceOnUse" id="SVGID_11_" x1="23.5" x2="23.5" y1="10" y2="19.98">
<stop offset="0" stop-color="#6B6C6D"/>
<stop offset="1" stop-color="#262628"/>
</linearGradient>
<rect fill="url(#SVGID_11_)" height="2" width="3" x="22" y="14"/>
<linearGradient gradientUnits="userSpaceOnUse" id="SVGID_12_" x1="15.5" x2="15.5" y1="9" y2="18.98">
<stop offset="0" stop-color="#6B6C6D"/>
<stop offset="1" stop-color="#262628"/>
</linearGradient>
<rect fill="url(#SVGID_12_)" height="2" width="3" x="14" y="17"/>
<linearGradient gradientUnits="userSpaceOnUse" id="SVGID_13_" x1="19.5" x2="19.5" y1="9" y2="18.98">
<stop offset="0" stop-color="#6B6C6D"/>
<stop offset="1" stop-color="#262628"/>
</linearGradient>
<rect fill="url(#SVGID_13_)" height="2" width="3" x="18" y="17"/>
<linearGradient gradientUnits="userSpaceOnUse" id="SVGID_14_" x1="23.5" x2="23.5" y1="9" y2="18.98">
<stop offset="0" stop-color="#6B6C6D"/>
<stop offset="1" stop-color="#262628"/>
</linearGradient>
<rect fill="url(#SVGID_14_)" height="2" width="3" x="22" y="17"/>
<linearGradient gradientUnits="userSpaceOnUse" id="SVGID_15_" x1="8" x2="8" y1="11.19" y2="14.06">
<stop offset="0" stop-color="#67A7B1"/>
<stop offset="1" stop-color="#3E678C"/>
</linearGradient>
<rect fill="url(#SVGID_15_)" height="3" width="8" x="4" y="11"/>
<rect fill-opacity="0.4" height="1" stroke-opacity="0.4" width="20" x="5" y="8"/>
<rect fill-opacity="0.4" height="1" stroke-opacity="0.4" width="20" x="5" y="21"/>
<rect fill="none" height="30" width="30"/>
</g>
</svg>
