<?xml version="1.0" encoding="UTF-8"?>
<!DOCTYPE svg PUBLIC "-//W3C//DTD SVG 1.1 Tiny//EN" "http://www.w3.org/Graphics/SVG/1.1/DTD/svg11-tiny.dtd">
<svg baseProfile="tiny" height="30px" version="1.1" viewBox="0 0 30 30" width="30px" x="0px" xmlns="http://www.w3.org/2000/svg" xmlns:xlink="http://www.w3.org/1999/xlink" y="0px">
<g fill-opacity="0.5" stroke-opacity="0.5">
<rect fill="none" height="30" width="30"/>
</g>
<path d="M24.797,11.616l-2.084,2.288C22.895,14.573,23,15.273,23,16c0,4.418-3.582,8-8,8s-8-3.582-8-8s3.582-8,8-8  c1.176,0,2.287,0.26,3.293,0.715L15.312,6H3C1.896,6,1,6.896,1,8v16c0,1.104,0.896,2,2,2h24c1.104,0,2-0.896,2-2V11.996  L24.797,11.616z"/>
<path d="M9,5V4c0-0.552-0.447-1-1-1H4C3.447,3,3,3.448,3,4v1H9z"/>
<path d="M19.922,16c-0.271,0-0.546-0.055-0.805-0.169c-0.054-0.023-0.094-0.064-0.144-0.092C18.979,15.827,19,15.91,19,16  c0,2.205-1.795,4-4,4s-4-1.795-4-4c0-2.206,1.795-4,4-4c1.186,0,2.24,0.528,2.973,1.35l0.219-2.421C17.266,10.344,16.174,10,15,10  c-3.309,0-6,2.691-6,6s2.691,6,6,6s6-2.691,6-6c0-0.106-0.011-0.21-0.016-0.315C20.664,15.886,20.297,16,19.922,16z"/>
<polygon points="25.537,6.014 30,10.078 23.986,9.535 19.922,14 20.465,7.988 16,3.922 22.016,4.465 26.08,0 "/>
</svg>
