<?xml version="1.0" encoding="UTF-8"?>
<!DOCTYPE svg PUBLIC "-//W3C//DTD SVG 1.1 Tiny//EN" "http://www.w3.org/Graphics/SVG/1.1/DTD/svg11-tiny.dtd">
<svg baseProfile="tiny" height="30px" version="1.1" viewBox="0 0 30 30" width="30px" x="0px" xmlns="http://www.w3.org/2000/svg" xmlns:xlink="http://www.w3.org/1999/xlink" y="0px">
<rect fill="none" height="30" width="30"/>
<polygon points="9.646,24.812 9.652,24.812 8.14,22.379 5.278,22.379 9.48,29.105 11.522,27.824 10.816,26.685 "/>
<polygon points="10.491,22.377 12.007,24.812 16.132,24.812 14.617,22.377 "/>
<polygon points="16.97,22.377 18.484,24.812 22.627,24.812 21.114,22.377 "/>
<polygon points="23.466,22.377 24.721,24.395 24.721,22.377 "/>
<polygon points="20.299,17.36 21.813,19.795 24.718,19.795 20.518,13.068 18.452,14.359 20.322,17.36 "/>
<polygon points="19.461,19.795 17.949,17.36 13.859,17.363 15.372,19.795 "/>
<polygon points="13.021,19.795 11.511,17.363 7.379,17.363 8.89,19.797 "/>
<polygon points="5.278,17.764 5.278,19.797 6.54,19.797 "/>
<polygon points="20.334,3.263 20.334,0.895 9.632,0.895 9.632,11.509 20.334,11.509 20.334,9.14 11.929,9.14 11.929,7.353   18.337,7.353 18.337,5.05 11.929,5.05 11.929,3.263 "/>
</svg>
