<?xml version="1.0" encoding="UTF-8"?>
<!DOCTYPE svg PUBLIC "-//W3C//DTD SVG 1.1 Tiny//EN" "http://www.w3.org/Graphics/SVG/1.1/DTD/svg11-tiny.dtd">
<svg baseProfile="tiny" height="20px" version="1.1" viewBox="0 0 20 20" width="20px" x="0px" xmlns="http://www.w3.org/2000/svg" xmlns:xlink="http://www.w3.org/1999/xlink" y="0px">
<rect fill="none" height="20" width="20"/>
<rect fill="none" fill-rule="evenodd" height="20" width="20"/>
<path d="M20,18H8c-4.411,0-8-3.589-8-8s3.589-8,8-8h12V18z" fill-opacity="0.1" fill-rule="evenodd" stroke-opacity="0.1"/>
<path d="M1,10c0-3.867,3.133-7,7-7h12v14H8C4.133,17,1,13.867,1,10z  " fill="url(#SVGID_1_)" fill-rule="evenodd"/>
<path d="M2,10c0,3.309,2.691,6,6,6h12v-1H8  c-2.757,0-5-2.243-5-5s2.243-5,5-5h12V4H8C4.691,4,2,6.691,2,10z" fill="#FFFFFF" fill-opacity="0.4" fill-rule="evenodd" stroke-opacity="0.4"/>
<path d="M1,10c0,3.867,3.133,7,7,7h12v-1H8c-3.309,0-5.998-2.691-5.998-6  S4.691,4.002,8,4.002h12V3H8C4.133,3,1,6.133,1,10z" fill-opacity="0.2" fill-rule="evenodd" stroke-opacity="0.2"/>
<rect fill="#FFFFFF" fill-opacity="0.9" fill-rule="evenodd" height="8" stroke-opacity="0.9" width="1" x="12" y="6"/>
<rect fill-opacity="0.1" fill-rule="evenodd" height="8" stroke-opacity="0.1" width="1" x="11" y="6"/>
<defs>
<linearGradient gradientTransform="matrix(0 -1 1 0 -84 -2400)" gradientUnits="userSpaceOnUse" id="SVGID_1_" x1="-2409.9995" x2="-2409.9995" y1="103.8721" y2="85.6786">
<stop offset="0" style="stop-color:#FAFAFA"/>
<stop offset="1" style="stop-color:#E6E6F0"/>
</linearGradient>
</defs>
</svg>
