<?xml version="1.0" encoding="UTF-8"?>
<!DOCTYPE svg PUBLIC "-//W3C//DTD SVG 1.1 Tiny//EN" "http://www.w3.org/Graphics/SVG/1.1/DTD/svg11-tiny.dtd">
<svg baseProfile="tiny" height="30px" version="1.1" viewBox="0 0 30 30" width="30px" x="0px" xmlns="http://www.w3.org/2000/svg" xmlns:xlink="http://www.w3.org/1999/xlink" y="0px">
<g>
<rect fill="none" height="30" width="30"/>
</g>
<path d="M29.949,12.944c-0.136-0.408-0.518-0.686-0.949-0.686h-9.217l-2.825-8.571c-0.081-0.247-0.255-0.442-0.474-0.558  C16.338,3.047,16.169,3,15.992,3c-0.004,0-0.008,0-0.012,0c-0.299,0.004-0.569,0.146-0.753,0.367C15.721,4.479,16,5.707,16,7  c0,4.963-4.037,9-9,9c-0.856,0-1.682-0.128-2.467-0.352l5.34,3.977l-3.174,9.044c-0.145,0.414-0.004,0.874,0.35,1.135  C7.225,29.935,7.434,30,7.644,30c0.208,0,0.415-0.064,0.592-0.193L16,24.103l7.766,5.704C23.941,29.936,24.149,30,24.357,30  c0.209,0,0.418-0.065,0.595-0.196c0.353-0.261,0.494-0.721,0.349-1.135l-3.174-9.044l7.471-5.564  C29.943,13.804,30.085,13.354,29.949,12.944z"/>
<path d="M7,0C5.899,0,4.862,0.26,3.937,0.713c3.864,1.889,4.169,4.746,4.103,5.953H9h2L7,12L3,6.666h2h1.043  c0.074-0.533,0.172-3.057-4.017-4.59C0.774,3.34,0,5.079,0,7c0,3.865,3.134,7,7,7s7-3.135,7-7C14,3.133,10.866,0,7,0z"/>
</svg>
