<?xml version="1.0" encoding="UTF-8"?>
<!DOCTYPE svg PUBLIC "-//W3C//DTD SVG 1.1 Tiny//EN" "http://www.w3.org/Graphics/SVG/1.1/DTD/svg11-tiny.dtd">
<svg baseProfile="tiny" height="60px" version="1.1" viewBox="0 0 30 60" width="30px" x="0px" xmlns="http://www.w3.org/2000/svg" xmlns:xlink="http://www.w3.org/1999/xlink" y="0px">
<rect fill="none" height="60" width="30"/>
<path d="M6,0C2.699,0,0,2.7,0,6v48c0,3.3,2.699,6,6,6h24V0H6z" fill="url(#SVGID_1_)"/>
<path d="M6,0C2.7,0,0,2.7,0,6v48c0,3.3,2.7,6,6,6c-2.205,0-4-1.794-4-4V6c0-0.542,0.458-1,1-1h27V0H6z" fill-opacity="0.05"/>
<path d="M6,0C2.7,0,0,2.7,0,6c0-1.084,0.916-2,2-2h28V0H6z" fill-opacity="0.1"/>
<path d="M6,0C2.7,0,0,2.7,0,6c0-1.654,1.346-3,3-3h27V0H6z" fill-opacity="0.1"/>
<path d="M6,0C2.7,0,0,2.7,0,6c0-2.206,1.795-4,4-4h26V0H6z" fill-opacity="0.1"/>
<path d="M6,59c-2.757,0-5-2.243-5-5V6c0-2.757,2.243-5,5-5h24V0H6C2.7,0,0,2.7,0,6v48c0,3.3,2.7,6,6,6h24v-1H6z" fill-opacity="0.2" stroke-opacity="0.2"/>
<defs>
<linearGradient gradientUnits="userSpaceOnUse" id="SVGID_1_" x1="15" x2="15" y1="60" y2="4.882813e-004">
<stop offset="0" style="stop-color:#66B8CC"/>
<stop offset="1" style="stop-color:#3F89A9"/>
</linearGradient>
</defs>
</svg>
