<?xml version="1.0" encoding="UTF-8"?>
<!DOCTYPE svg PUBLIC "-//W3C//DTD SVG 1.1 Tiny//EN" "http://www.w3.org/Graphics/SVG/1.1/DTD/svg11-tiny.dtd">
<svg baseProfile="tiny" height="30px" version="1.1" viewBox="0 0 30 30" width="30px" x="0px" xmlns="http://www.w3.org/2000/svg" xmlns:xlink="http://www.w3.org/1999/xlink" y="0px">
<path d="M10.031,14.484c1.288-0.898,2.01-2.207,2.01-3.754c0-2.27-1.652-4.561-5.34-4.561c-2.02,0-3.773,0.743-4.667,1.379  L1.601,7.859l1.104,2.94l0.731-0.526c0.612-0.435,1.722-0.942,2.843-0.942c1.385,0,2.148,0.624,2.148,1.752  c0,1.505-1.748,2.052-2.924,2.052H3.587v3.033h1.917c0.58,0,3.472,0.121,3.499,2.559c0.01,0.627-0.218,1.229-0.629,1.65  c-0.52,0.525-1.304,0.791-2.344,0.791c-1.371,0-2.687-0.563-3.239-0.898l-0.725-0.434l-1.067,2.979l0.455,0.303  c0.856,0.558,2.566,1.207,4.598,1.207c4.543,0,6.611-2.881,6.611-5.555C12.663,16.895,11.645,15.322,10.031,14.484z"/>
<path d="M22.079,13.834v3.132h3.396v3.833c-0.385,0.114-1.056,0.244-2.204,0.244c-3.634,0-5.795-2.279-5.795-6.094  c0-3.742,2.323-6.067,6.065-6.067c1.386,0,2.475,0.208,3.422,0.656l0.721,0.341l0.963-3.104l-0.535-0.258  c-0.801-0.389-2.47-0.844-4.517-0.844c-2.907,0-5.382,0.922-7.152,2.66c-1.712,1.678-2.647,4.063-2.647,6.717  c0,2.727,0.931,5.191,2.556,6.762c1.705,1.625,3.914,2.414,6.769,2.414c2.713,0,4.846-0.741,5.441-0.969L29,23.084v-9.25H22.079z"/>
<rect fill="none" height="30" width="30"/>
</svg>
