<?xml version="1.0" encoding="UTF-8"?>
<!DOCTYPE svg PUBLIC "-//W3C//DTD SVG 1.1 Tiny//EN" "http://www.w3.org/Graphics/SVG/1.1/DTD/svg11-tiny.dtd">
<svg baseProfile="tiny" height="30" viewBox="0 0 30 30" width="30" xmlns="http://www.w3.org/2000/svg" xmlns:xlink="http://www.w3.org/1999/xlink">
<g>
<rect fill="none" height="30" width="30"/>
<polygon fill-opacity="0.6" points="28,29 28,1 2,1 2,22.414 8.586,29 " stroke-opacity="0.6"/>
<linearGradient gradientTransform="matrix(-1 0 0 1 236 0)" gradientUnits="userSpaceOnUse" id="SVGID_1_" x1="221" x2="221" y1="2" y2="28.0005">
<stop offset="0" style="stop-color:#F9F9F9"/>
<stop offset="1" style="stop-color:#B5B5B5"/>
</linearGradient>
<polygon fill="url(#SVGID_1_)" points="27,2 27,28 9,28 3,22 3,2 "/>
<circle cx="15" cy="14" fill-opacity="0.2" r="8" stroke-opacity="0.2"/>
<polygon fill="#FFFFFF" points="3,22 9,22 9,28 "/>
<radialGradient cx="-453.8818" cy="-300.0874" gradientTransform="matrix(0.3502 0 0 0.3502 173.9495 115.3211)" gradientUnits="userSpaceOnUse" id="SVGID_2_" r="30.0958">
<stop offset="0" style="stop-color:#B4DFC6"/>
<stop offset="0.5" style="stop-color:#72B9C3"/>
<stop offset="1" style="stop-color:#546F9F"/>
</radialGradient>
<circle cx="15" cy="13" fill="url(#SVGID_2_)" r="8"/>
<path d="M22.715,12.562c-0.178-3.125-2.201-5.814-5.157-6.855l-0.36,0.059l-2.09-0.399L12.5,6.919l-0.098,0.654  h-1.512l0.598,1.018l-1.619,1.32l-0.377,1.63l1.336,2.37l1.365-0.279l0.498,0.429l0.39,0.038l0.257,1.005l-0.339,0.882l1.239,3.169  h1.264l1.252-1.012v-0.413l0.331-0.513l0.273-0.14c-0.069,0.105-0.179,0.35-0.179,0.35c-0.012,0.082,0.178,1.695,0.734,1.568  c0.422-0.096,1.929-2.896,1.957-3.161c0.058-0.527-0.229-0.745-0.405-0.827l-0.196-0.092l-0.899,0.902  c-0.097,0.006-0.183,0.023-0.262,0.047v-0.749l0.978-0.954l0.496-1.604l0.758-0.615l-0.166-0.303l0.572-0.551l-0.319-0.582  l0.243,0.03l1.424,3.187l0.291-0.233c-0.01-0.156-0.025-0.31-0.044-0.464L22.715,12.562z M15.096,8.978l-0.119-0.316h0.715  l0.348,0.781h-0.517V8.978H15.096z M17.453,10.554l0.57,0.832l0.039,0.1l-0.584-0.354l-0.141-0.504L17.453,10.554z M18.312,12.008  l0.173,0.173l-0.224,0.049l-0.05-0.061L18.312,12.008z M13.848,6.407l0.363,0.562l-0.413,0.126l-0.161-0.092L13.848,6.407z" fill-opacity="0.3" stroke-opacity="0.3"/>
<linearGradient gradientUnits="userSpaceOnUse" id="SVGID_3_" x1="14.9995" x2="14.9995" y1="5.0386" y2="21.0813">
<stop offset="0" style="stop-color:#6DACBC"/>
<stop offset="0.497" style="stop-color:#5778A3"/>
<stop offset="1" style="stop-color:#D3E0D8"/>
</linearGradient>
<path d="M15,5c-4.418,0-8,3.583-8,8c0,4.42,3.582,8,8,8c4.42,0,8-3.58,8-8  C23,8.583,19.42,5,15,5z M15,20.385c-4.072,0-7.385-3.313-7.385-7.385S10.928,5.615,15,5.615S22.385,8.928,22.385,13  S19.072,20.385,15,20.385z" fill="url(#SVGID_3_)" fill-opacity="0.3" stroke-opacity="0.3"/>
<radialGradient cx="15.4619" cy="7.1558" gradientUnits="userSpaceOnUse" id="SVGID_4_" r="9.4862">
<stop offset="0" style="stop-color:#96BE67"/>
<stop offset="0.3152" style="stop-color:#96BE67"/>
<stop offset="0.7273" style="stop-color:#468D53"/>
<stop offset="1" style="stop-color:#387463"/>
</radialGradient>
<path d="M19.335,15.286l-0.833,0.833c0,0-0.503,0-0.526,0.2c-0.011,0.086-0.039,0.457-0.124,0.649  c-0.168,0.116-0.367,0.5-0.367,0.5s-0.104,0.742,0.452,0.616C18.488,17.96,20.189,15.688,19.335,15.286z" fill="url(#SVGID_4_)"/>
<radialGradient cx="15.4609" cy="7.1538" gradientUnits="userSpaceOnUse" id="SVGID_5_" r="10.9747">
<stop offset="0" style="stop-color:#96BE67"/>
<stop offset="0.3152" style="stop-color:#96BE67"/>
<stop offset="0.7273" style="stop-color:#468D53"/>
<stop offset="1" style="stop-color:#387463"/>
</radialGradient>
<path d="M17.455,5.997c-0.136,0.051-0.229,0.087-0.229,0.087l-2.058-0.395l-1.01,0.632l0.531,0.821  l-0.928,0.286l-0.5-0.286l0.176-0.499l-0.652,0.452l-0.117,0.786h-1.239l0.458,0.78l-1.742,1.421L9.816,11.5l0.646,1.252L10.852,13  l1.365-0.279l0.498,0.429l0.453,0.045l0.492,1.929l-0.328,0.853l0.725,1.603l0.205,0.665h1.263l0.714-0.386l0.539-0.625v-0.757  l1.023-0.522v-1.12l0.404-0.771l0.903-0.813l0.216-0.942l-1.182,0.264l-0.311-0.378l0.222-0.354l-0.839-0.506l-0.357-1.286  l0.619-0.404l0.57,0.833l0.215,0.549l0.428,0.429l0.5,0.261l0.557-0.089l0.617-0.594l-0.435-0.792l-0.547,0.143l-0.495-0.59  l0.471-0.328l1.475,0.179v0.524l1.284,2.646l0.291-0.233C22.234,9.529,20.219,6.969,17.455,5.997z M16.785,9.571L16.111,9.75h-0.896  V9.286h-0.857l-0.679,0.178l-1.036-0.285l-0.285-0.536l1.428-0.321h1.43L15,7.75h0.715l0.396,0.893l0.674,0.237V9.571z   M18.321,8.393l-1.214-0.214V7.75l0.607-0.143l0.178-0.215l0.429,0.357V8.393z" fill="url(#SVGID_5_)"/>
</g>
<g>
<rect fill="none" height="30" width="30"/>
<g>
<path d="M22,30c-4.411,0-8-3.589-8-8s3.589-8,8-8s8,3.589,8,8S26.411,30,22,30L22,30z" fill-opacity="0.6" stroke-opacity="0.6"/>
<linearGradient gradientTransform="matrix(1 0 0 1 -549.9609 -796.0391)" gradientUnits="userSpaceOnUse" id="SVGID_1__" x1="571.9609" x2="571.9609" y1="811.0391" y2="825.0391">
<stop offset="0" style="stop-color:#A2A6A5"/>
<stop offset="1" style="stop-color:#262628"/>
</linearGradient>
<circle cx="22" cy="22" fill="url(#SVGID_1__)" r="7"/>
<path d="M22,16c3.697,0,6.717,2.869,6.975,6.5   C28.986,22.334,29,22.169,29,22c0-3.865-3.134-7-7-7s-7,3.135-7,7c0,0.169,0.014,0.334,0.025,0.5C15.283,18.869,18.303,16,22,16z" fill="#FFFFFF" fill-opacity="0.4" stroke-opacity="0.4"/>
<polygon fill="#FFFFFF" points="24,19 24,20 26,20 26,21 24,21 24,22 26,22 26,23 24,23 24,26 27,26 27,19  "/>
<path d="M17,19v7h2v-2h2v2h2v-9L17,19z M19,23h-1v-1h1V23z M19,21h-1v-1h1V21z M22,23h-1v-1h1V23z M22,21h-1v-1h1   V21z" fill="#FFFFFF"/>
<rect fill-opacity="0.2" height="1" stroke-opacity="0.2" width="2" x="17" y="26"/>
<rect fill-opacity="0.2" height="1" stroke-opacity="0.2" width="6" x="21" y="26"/>
<rect fill-opacity="0.2" height="1" stroke-opacity="0.2" width="2" x="19" y="24"/>
</g>
</g>
</svg>
