<?xml version="1.0" encoding="UTF-8"?>
<!DOCTYPE svg PUBLIC "-//W3C//DTD SVG 1.1 Tiny//EN" "http://www.w3.org/Graphics/SVG/1.1/DTD/svg11-tiny.dtd">
<svg baseProfile="tiny" height="30" viewBox="0 0 30 30" width="30" xmlns="http://www.w3.org/2000/svg" xmlns:xlink="http://www.w3.org/1999/xlink">
<g>
<rect fill="none" height="30" width="30"/>
<g>
<path d="M26,8.001v-2h-1.586l-5-5H5v5H4v2c-1.654,0-3,1.346-3,3v8c0,1.653,1.346,3,3,3   v3h1v4h20v-4h1v-3c1.654,0,3-1.347,3-3v-8C29,9.347,27.654,8.001,26,8.001z" fill-opacity="0.6" stroke-opacity="0.6"/>
<linearGradient gradientTransform="matrix(1 0 0 -1 -282.4805 -375.0195)" gradientUnits="userSpaceOnUse" id="SVGID_1_" x1="297.4795" x2="297.4795" y1="-382.0205" y2="-385.0205">
<stop offset="0" style="stop-color:#808080"/>
<stop offset="1" style="stop-color:#636363"/>
</linearGradient>
<rect fill="url(#SVGID_1_)" height="3" width="20" x="5" y="7.001"/>
<linearGradient gradientTransform="matrix(1 0 0 -1 -282.4805 -375.0195)" gradientUnits="userSpaceOnUse" id="SVGID_2_" x1="297.4795" x2="297.4795" y1="-396.0205" y2="-399.0205">
<stop offset="0" style="stop-color:#808080"/>
<stop offset="1" style="stop-color:#636363"/>
</linearGradient>
<rect fill="url(#SVGID_2_)" height="3" width="20" x="5" y="21.001"/>
<linearGradient gradientTransform="matrix(1 0 0 -1 -282.4805 -375.0195)" gradientUnits="userSpaceOnUse" id="SVGID_3_" x1="297.4795" x2="297.4795" y1="-377.0225" y2="-403.0858">
<stop offset="0" style="stop-color:#EDEDED"/>
<stop offset="1" style="stop-color:#BDBDBD"/>
</linearGradient>
<rect fill="url(#SVGID_3_)" height="10" width="18" x="6" y="18.001"/>
<rect fill-opacity="0.5" height="1.5" stroke-opacity="0.5" width="2" x="8" y="23.501"/>
<rect fill-opacity="0.5" height="1.5" stroke-opacity="0.5" width="11.001" x="10.999" y="23.501"/>
<linearGradient gradientTransform="matrix(1 0 0 -1 -282.4805 -375.0195)" gradientUnits="userSpaceOnUse" id="SVGID_4_" x1="297.4795" x2="297.4795" y1="-377.0205" y2="-403.0858">
<stop offset="0" style="stop-color:#EDEDED"/>
<stop offset="1" style="stop-color:#BDBDBD"/>
</linearGradient>
<polygon fill="url(#SVGID_4_)" points="24,7.001 24,19.001 6,19.001 6,2.001 19,2.001  "/>
<rect fill-opacity="0.5" height="1.5" stroke-opacity="0.5" width="2" x="8" y="5.001"/>
<rect fill-opacity="0.5" height="1.5" stroke-opacity="0.5" width="11" x="11" y="5.001"/>
<polygon fill="#FFFFFF" points="19,7.001 24,7.001 19,2.001  "/>
<linearGradient gradientTransform="matrix(1 0 0 -1 -282.4805 -375.0195)" gradientUnits="userSpaceOnUse" id="SVGID_5_" x1="297.4795" x2="297.4795" y1="-384.1367" y2="-396.0269">
<stop offset="0" style="stop-color:#E6E6E6"/>
<stop offset="1" style="stop-color:#626262"/>
</linearGradient>
<path d="M28,19.001c0,1.101-0.9,2-2,2H4c-1.1,0-2-0.899-2-2v-8c0-1.1,0.9-2,2-2h22c1.1,0,2,0.9,2,2V19.001z" fill="url(#SVGID_5_)"/>
<path d="M26,9.001H4c-1.1,0-2,0.9-2,2v1c0-1.1,0.9-2,2-2h22   c1.1,0,2,0.9,2,2v-1C28,9.901,27.1,9.001,26,9.001z" fill="#FFFFFF" fill-opacity="0.4" stroke-opacity="0.4"/>
<linearGradient gradientTransform="matrix(1 0 0 -1 -282.4805 -375.0195)" gradientUnits="userSpaceOnUse" id="SVGID_6_" x1="297.9795" x2="297.9795" y1="-386.0205" y2="-396.0002">
<stop offset="0" style="stop-color:#6B6C6D"/>
<stop offset="1" style="stop-color:#262628"/>
</linearGradient>
<rect fill="url(#SVGID_6_)" height="2" width="3" x="14" y="11.001"/>
<linearGradient gradientTransform="matrix(1 0 0 -1 -282.4805 -375.0195)" gradientUnits="userSpaceOnUse" id="SVGID_7_" x1="301.9795" x2="301.9795" y1="-386.0205" y2="-396.0002">
<stop offset="0" style="stop-color:#6B6C6D"/>
<stop offset="1" style="stop-color:#262628"/>
</linearGradient>
<rect fill="url(#SVGID_7_)" height="2" width="3" x="18" y="11.001"/>
<linearGradient gradientTransform="matrix(1 0 0 -1 -282.4805 -375.0195)" gradientUnits="userSpaceOnUse" id="SVGID_8_" x1="305.9795" x2="305.9795" y1="-386.0205" y2="-396.0002">
<stop offset="0" style="stop-color:#6B6C6D"/>
<stop offset="1" style="stop-color:#262628"/>
</linearGradient>
<rect fill="url(#SVGID_8_)" height="2" width="3" x="22" y="11.001"/>
<linearGradient gradientTransform="matrix(1 0 0 -1 -282.4805 -375.0195)" gradientUnits="userSpaceOnUse" id="SVGID_9_" x1="297.9795" x2="297.9795" y1="-385.0205" y2="-395.0002">
<stop offset="0" style="stop-color:#6B6C6D"/>
<stop offset="1" style="stop-color:#262628"/>
</linearGradient>
<rect fill="url(#SVGID_9_)" height="2" width="3" x="14" y="14.001"/>
<linearGradient gradientTransform="matrix(1 0 0 -1 -282.4805 -375.0195)" gradientUnits="userSpaceOnUse" id="SVGID_10_" x1="301.9795" x2="301.9795" y1="-385.0205" y2="-395.0002">
<stop offset="0" style="stop-color:#6B6C6D"/>
<stop offset="1" style="stop-color:#262628"/>
</linearGradient>
<rect fill="url(#SVGID_10_)" height="2" width="3" x="18" y="14.001"/>
<linearGradient gradientTransform="matrix(1 0 0 -1 -282.4805 -375.0195)" gradientUnits="userSpaceOnUse" id="SVGID_11_" x1="305.9795" x2="305.9795" y1="-385.0205" y2="-395.0002">
<stop offset="0" style="stop-color:#6B6C6D"/>
<stop offset="1" style="stop-color:#262628"/>
</linearGradient>
<rect fill="url(#SVGID_11_)" height="2" width="3" x="22" y="14.001"/>
<linearGradient gradientTransform="matrix(1 0 0 -1 -282.4805 -375.0195)" gradientUnits="userSpaceOnUse" id="SVGID_12_" x1="297.9795" x2="297.9795" y1="-384.0205" y2="-394.0002">
<stop offset="0" style="stop-color:#6B6C6D"/>
<stop offset="1" style="stop-color:#262628"/>
</linearGradient>
<rect fill="url(#SVGID_12_)" height="2" width="3" x="14" y="17.001"/>
<linearGradient gradientTransform="matrix(1 0 0 -1 -282.4805 -375.0195)" gradientUnits="userSpaceOnUse" id="SVGID_13_" x1="301.9795" x2="301.9795" y1="-384.0205" y2="-394.0002">
<stop offset="0" style="stop-color:#6B6C6D"/>
<stop offset="1" style="stop-color:#262628"/>
</linearGradient>
<rect fill="url(#SVGID_13_)" height="2" width="3" x="18" y="17.001"/>
<linearGradient gradientTransform="matrix(1 0 0 -1 -282.4805 -375.0195)" gradientUnits="userSpaceOnUse" id="SVGID_14_" x1="305.9795" x2="305.9795" y1="-384.0205" y2="-394.0002">
<stop offset="0" style="stop-color:#6B6C6D"/>
<stop offset="1" style="stop-color:#262628"/>
</linearGradient>
<rect fill="url(#SVGID_14_)" height="2" width="3" x="22" y="17.001"/>
<linearGradient gradientTransform="matrix(1 0 0 -1 -282.4805 -375.0195)" gradientUnits="userSpaceOnUse" id="SVGID_15_" x1="290.4795" x2="290.4795" y1="-386.209" y2="-389.0847">
<stop offset="0" style="stop-color:#67A7B1"/>
<stop offset="1" style="stop-color:#3E678C"/>
</linearGradient>
<rect fill="url(#SVGID_15_)" height="3" width="8" x="4" y="11.001"/>
<rect fill-opacity="0.4" height="1" stroke-opacity="0.4" width="20" x="5" y="8.001"/>
<rect fill-opacity="0.4" height="1" stroke-opacity="0.4" width="20" x="5" y="21.001"/>
<path d="M22,30c-4.411,0-8-3.589-8-8s3.589-8,8-8s8,3.589,8,8S26.411,30,22,30L22,30z" fill-opacity="0.6" stroke-opacity="0.6"/>
<linearGradient gradientTransform="matrix(1 0 0 -1 -282.4805 -375.0195)" gradientUnits="userSpaceOnUse" id="SVGID_16_" x1="304.4795" x2="304.4795" y1="-389.9883" y2="-404.1846">
<stop offset="0" style="stop-color:#C7B17C"/>
<stop offset="1" style="stop-color:#A86F49"/>
</linearGradient>
<circle cx="22" cy="22" fill="url(#SVGID_16_)" r="7"/>
<polygon fill-opacity="0.2" points="26.34,24 21.999,19.4 17.66,24 17,23.3 21.999,18 27,23.3  " stroke-opacity="0.2"/>
<polygon fill-opacity="0.2" points="21.999,20.857 18,25.098 18,27 21,27 21,24 23,24 23,27 26,27    26,25.098  " stroke-opacity="0.2"/>
<path d="M22,16c3.697,0,6.717,2.869,6.975,6.5   C28.986,22.334,29,22.169,29,22c0-3.865-3.134-7-7-7s-7,3.135-7,7c0,0.169,0.014,0.334,0.025,0.5C15.283,18.869,18.303,16,22,16z" fill="#FFFFFF" fill-opacity="0.4" stroke-opacity="0.4"/>
<polygon fill="#FFFFFF" points="26.34,23 21.999,18.4 17.66,23 17,22.3 21.999,17 27,22.3  "/>
<polygon fill="#FFFFFF" points="21.999,19.857 18,24.098 18,26 21,26 21,23 23,23 23,26 26,26 26,24.098  "/>
</g>
</g>
</svg>
