<?xml version="1.0" encoding="UTF-8"?>
<!DOCTYPE svg PUBLIC "-//W3C//DTD SVG 1.1 Tiny//EN" "http://www.w3.org/Graphics/SVG/1.1/DTD/svg11-tiny.dtd">
<svg baseProfile="tiny" height="60" viewBox="0 0 60 60" width="60" xmlns="http://www.w3.org/2000/svg" xmlns:xlink="http://www.w3.org/1999/xlink">
<g>
<rect fill="none" height="60" width="60"/>
<linearGradient gradientUnits="userSpaceOnUse" id="SVGID_1_" x1="30" x2="30" y1="14.5566" y2="45.5373">
<stop offset="0" style="stop-color:#D1D5D3"/>
<stop offset="0.7308" style="stop-color:#838585"/>
<stop offset="1" style="stop-color:#D3DBD7"/>
</linearGradient>
<path d="M1,43.384c0,1.133,0.912,2.06,2.03,2.06h53.937c1.117,0,2.033-0.927,2.033-2.06V16.616  c0-1.133-0.916-2.06-2.033-2.06H3.03c-1.118,0-2.03,0.927-2.03,2.06V43.384z" fill="url(#SVGID_1_)" fill-opacity="0.6" stroke-opacity="0.6"/>
<linearGradient gradientUnits="userSpaceOnUse" id="SVGID_2_" x1="29.999" x2="29.999" y1="15.5859" y2="44.5027">
<stop offset="0" style="stop-color:#BFC2C1"/>
<stop offset="0.8121" style="stop-color:#7D8182"/>
<stop offset="1" style="stop-color:#B9BDBC"/>
</linearGradient>
<path d="M56.967,44.415H3.03c-0.554,0-1.002-0.462-1.002-1.031V16.616c0-0.566,0.448-1.03,1.002-1.03h53.937  c0.553,0,1.003,0.464,1.003,1.03v26.768C57.97,43.953,57.52,44.415,56.967,44.415L56.967,44.415z" fill="url(#SVGID_2_)"/>
<path d="M21.949,36.123c0,0.568-0.459,1.029-1.028,1.029h-3.089c-0.567,0-1.029-0.461-1.029-1.029v-3.088  c0-0.57,0.462-1.031,1.029-1.031h3.089c0.569,0,1.028,0.461,1.028,1.031V36.123z" fill-opacity="0.25" stroke-opacity="0.25"/>
<linearGradient gradientUnits="userSpaceOnUse" id="SVGID_3_" x1="19.376" x2="19.376" y1="31.4229" y2="36.6183">
<stop offset="0" style="stop-color:#F0F4F1"/>
<stop offset="0.7939" style="stop-color:#A2A5A4"/>
<stop offset="1" style="stop-color:#D3DBD7"/>
</linearGradient>
<path d="M21.949,35.565c0,0.568-0.459,1.028-1.028,1.028h-3.089c-0.567,0-1.029-0.46-1.029-1.028v-3.089  c0-0.567,0.462-1.03,1.029-1.03h3.089c0.569,0,1.028,0.463,1.028,1.03V35.565z" fill="url(#SVGID_3_)"/>
<linearGradient gradientUnits="userSpaceOnUse" id="SVGID_4_" x1="21.5" x2="17.3381" y1="34.0205" y2="34.0205">
<stop offset="0" style="stop-color:#E7EAE8"/>
<stop offset="0.8364" style="stop-color:#C9CECC"/>
<stop offset="0.9758" style="stop-color:#D5D8D6"/>
<stop offset="1" style="stop-color:#D5D8D6"/>
</linearGradient>
<path d="M17.832,36.08c-0.284,0-0.516-0.231-0.516-0.515v-3.089c0-0.284,0.231-0.516,0.516-0.516h3.089  c0.283,0,0.515,0.231,0.515,0.516v3.089c0,0.283-0.231,0.515-0.515,0.515H17.832z" fill="url(#SVGID_4_)"/>
<path d="M28.128,36.123c0,0.568-0.462,1.029-1.029,1.029h-3.09c-0.568,0-1.028-0.461-1.028-1.029v-3.088  c0-0.57,0.46-1.031,1.028-1.031h3.09c0.567,0,1.029,0.461,1.029,1.031V36.123z" fill-opacity="0.25" stroke-opacity="0.25"/>
<linearGradient gradientUnits="userSpaceOnUse" id="SVGID_5_" x1="25.5547" x2="25.5547" y1="31.4229" y2="36.6183">
<stop offset="0" style="stop-color:#F0F4F1"/>
<stop offset="0.7939" style="stop-color:#A2A5A4"/>
<stop offset="1" style="stop-color:#D3DBD7"/>
</linearGradient>
<path d="M28.128,35.565c0,0.568-0.462,1.028-1.029,1.028h-3.09c-0.568,0-1.028-0.46-1.028-1.028v-3.089  c0-0.567,0.46-1.03,1.028-1.03h3.09c0.567,0,1.029,0.463,1.029,1.03V35.565z" fill="url(#SVGID_5_)"/>
<linearGradient gradientUnits="userSpaceOnUse" id="SVGID_6_" x1="27.6777" x2="23.5168" y1="34.0205" y2="34.0205">
<stop offset="0" style="stop-color:#E7EAE8"/>
<stop offset="0.8364" style="stop-color:#C9CECC"/>
<stop offset="0.9758" style="stop-color:#D5D8D6"/>
<stop offset="1" style="stop-color:#D5D8D6"/>
</linearGradient>
<path d="M24.009,36.08c-0.283,0-0.514-0.231-0.514-0.515v-3.089c0-0.284,0.23-0.516,0.514-0.516h3.09  c0.284,0,0.515,0.231,0.515,0.516v3.089c0,0.283-0.23,0.515-0.515,0.515H24.009z" fill="url(#SVGID_6_)"/>
<path d="M34.305,36.123c0,0.568-0.461,1.029-1.029,1.029h-3.088c-0.568,0-1.031-0.461-1.031-1.029v-3.088  c0-0.57,0.463-1.031,1.031-1.031h3.088c0.568,0,1.029,0.461,1.029,1.031V36.123z" fill-opacity="0.25" stroke-opacity="0.25"/>
<linearGradient gradientUnits="userSpaceOnUse" id="SVGID_7_" x1="31.7305" x2="31.7305" y1="31.4229" y2="36.6183">
<stop offset="0" style="stop-color:#F0F4F1"/>
<stop offset="0.7939" style="stop-color:#A2A5A4"/>
<stop offset="1" style="stop-color:#D3DBD7"/>
</linearGradient>
<path d="M34.305,35.565c0,0.568-0.461,1.028-1.029,1.028h-3.088c-0.568,0-1.031-0.46-1.031-1.028v-3.089  c0-0.567,0.463-1.03,1.031-1.03h3.088c0.568,0,1.029,0.463,1.029,1.03V35.565z" fill="url(#SVGID_7_)"/>
<linearGradient gradientUnits="userSpaceOnUse" id="SVGID_8_" x1="33.8545" x2="29.6936" y1="34.0205" y2="34.0205">
<stop offset="0" style="stop-color:#E7EAE8"/>
<stop offset="0.8364" style="stop-color:#C9CECC"/>
<stop offset="0.9758" style="stop-color:#D5D8D6"/>
<stop offset="1" style="stop-color:#D5D8D6"/>
</linearGradient>
<path d="M30.188,36.08c-0.284,0-0.516-0.231-0.516-0.515v-3.089c0-0.284,0.231-0.516,0.516-0.516h3.088  c0.285,0,0.515,0.231,0.515,0.516v3.089c0,0.283-0.229,0.515-0.515,0.515H30.188z" fill="url(#SVGID_8_)"/>
<path d="M40.482,36.123c0,0.568-0.46,1.029-1.028,1.029h-3.089c-0.57,0-1.03-0.461-1.03-1.029v-3.088  c0-0.57,0.46-1.031,1.03-1.031h3.089c0.568,0,1.028,0.461,1.028,1.031V36.123z" fill-opacity="0.25" stroke-opacity="0.25"/>
<linearGradient gradientUnits="userSpaceOnUse" id="SVGID_9_" x1="37.9082" x2="37.9082" y1="31.4229" y2="36.6183">
<stop offset="0" style="stop-color:#F0F4F1"/>
<stop offset="0.7939" style="stop-color:#A2A5A4"/>
<stop offset="1" style="stop-color:#D3DBD7"/>
</linearGradient>
<path d="M40.482,35.565c0,0.568-0.46,1.028-1.028,1.028h-3.089c-0.57,0-1.03-0.46-1.03-1.028v-3.089  c0-0.567,0.46-1.03,1.03-1.03h3.089c0.568,0,1.028,0.463,1.028,1.03V35.565z" fill="url(#SVGID_9_)"/>
<linearGradient gradientUnits="userSpaceOnUse" id="SVGID_10_" x1="40.0332" x2="35.8713" y1="34.0205" y2="34.0205">
<stop offset="0" style="stop-color:#E7EAE8"/>
<stop offset="0.8364" style="stop-color:#C9CECC"/>
<stop offset="0.9758" style="stop-color:#D5D8D6"/>
<stop offset="1" style="stop-color:#D5D8D6"/>
</linearGradient>
<path d="M36.365,36.08c-0.285,0-0.516-0.231-0.516-0.515v-3.089c0-0.284,0.23-0.516,0.516-0.516h3.089  c0.283,0,0.515,0.231,0.515,0.516v3.089c0,0.283-0.231,0.515-0.515,0.515H36.365z" fill="url(#SVGID_10_)"/>
<path d="M15.559,36.123c0,0.568-0.46,1.029-1.029,1.029H5.393c-0.57,0-1.031-0.461-1.031-1.029v-3.088  c0-0.57,0.461-1.031,1.031-1.031h9.137c0.569,0,1.029,0.461,1.029,1.031V36.123z" fill-opacity="0.25" stroke-opacity="0.25"/>
<linearGradient gradientUnits="userSpaceOnUse" id="SVGID_11_" x1="9.96" x2="9.96" y1="31.4229" y2="36.6183">
<stop offset="0" style="stop-color:#F0F4F1"/>
<stop offset="0.7939" style="stop-color:#A2A5A4"/>
<stop offset="1" style="stop-color:#D3DBD7"/>
</linearGradient>
<path d="M15.559,35.565c0,0.568-0.46,1.028-1.029,1.028H5.393c-0.57,0-1.031-0.46-1.031-1.028v-3.089  c0-0.567,0.461-1.03,1.031-1.03h9.137c0.569,0,1.029,0.463,1.029,1.03V35.565z" fill="url(#SVGID_11_)"/>
<linearGradient gradientUnits="userSpaceOnUse" id="SVGID_12_" x1="15.2031" x2="4.9306" y1="34.0205" y2="34.0205">
<stop offset="0" style="stop-color:#E7EAE8"/>
<stop offset="0.8364" style="stop-color:#C9CECC"/>
<stop offset="0.9758" style="stop-color:#D5D8D6"/>
<stop offset="1" style="stop-color:#D5D8D6"/>
</linearGradient>
<path d="M5.393,36.08c-0.285,0-0.516-0.231-0.516-0.515v-3.089c0-0.284,0.23-0.516,0.516-0.516h9.137  c0.283,0,0.515,0.231,0.515,0.516v3.089c0,0.283-0.231,0.515-0.515,0.515H5.393z" fill="url(#SVGID_12_)"/>
<path d="M21.949,24.089c0,0.57-0.459,1.03-1.028,1.03h-6.569c-0.567,0-1.029-0.46-1.029-1.03V21  c0-0.567,0.462-1.028,1.029-1.028h6.569c0.569,0,1.028,0.461,1.028,1.028V24.089z" fill-opacity="0.25" stroke-opacity="0.25"/>
<linearGradient gradientUnits="userSpaceOnUse" id="SVGID_13_" x1="17.6357" x2="17.6357" y1="19.3906" y2="24.5861">
<stop offset="0" style="stop-color:#F0F4F1"/>
<stop offset="0.7939" style="stop-color:#A2A5A4"/>
<stop offset="1" style="stop-color:#D3DBD7"/>
</linearGradient>
<path d="M21.949,23.532c0,0.568-0.459,1.029-1.028,1.029h-6.569c-0.567,0-1.029-0.461-1.029-1.029v-3.089  c0-0.569,0.462-1.029,1.029-1.029h6.569c0.569,0,1.028,0.46,1.028,1.029V23.532z" fill="url(#SVGID_13_)"/>
<linearGradient gradientUnits="userSpaceOnUse" id="SVGID_14_" x1="21.5547" x2="13.8762" y1="21.9878" y2="21.9878">
<stop offset="0" style="stop-color:#E7EAE8"/>
<stop offset="0.8364" style="stop-color:#C9CECC"/>
<stop offset="0.9758" style="stop-color:#D5D8D6"/>
<stop offset="1" style="stop-color:#D5D8D6"/>
</linearGradient>
<path d="M14.352,24.047c-0.284,0-0.516-0.23-0.516-0.515v-3.089c0-0.284,0.231-0.515,0.516-0.515h6.569  c0.283,0,0.515,0.23,0.515,0.515v3.089c0,0.284-0.231,0.515-0.515,0.515H14.352z" fill="url(#SVGID_14_)"/>
<path d="M28.128,24.089c0,0.57-0.462,1.03-1.029,1.03h-3.09c-0.568,0-1.028-0.46-1.028-1.03V21  c0-0.567,0.46-1.028,1.028-1.028h3.09c0.567,0,1.029,0.461,1.029,1.028V24.089z" fill-opacity="0.25" stroke-opacity="0.25"/>
<linearGradient gradientUnits="userSpaceOnUse" id="SVGID_15_" x1="25.5547" x2="25.5547" y1="19.3906" y2="24.5861">
<stop offset="0" style="stop-color:#F0F4F1"/>
<stop offset="0.7939" style="stop-color:#A2A5A4"/>
<stop offset="1" style="stop-color:#D3DBD7"/>
</linearGradient>
<path d="M28.128,23.532c0,0.568-0.462,1.029-1.029,1.029h-3.09c-0.568,0-1.028-0.461-1.028-1.029v-3.089  c0-0.569,0.46-1.029,1.028-1.029h3.09c0.567,0,1.029,0.46,1.029,1.029V23.532z" fill="url(#SVGID_15_)"/>
<linearGradient gradientUnits="userSpaceOnUse" id="SVGID_16_" x1="27.6777" x2="23.5168" y1="21.9878" y2="21.9878">
<stop offset="0" style="stop-color:#E7EAE8"/>
<stop offset="0.8364" style="stop-color:#C9CECC"/>
<stop offset="0.9758" style="stop-color:#D5D8D6"/>
<stop offset="1" style="stop-color:#D5D8D6"/>
</linearGradient>
<path d="M24.009,24.047c-0.283,0-0.514-0.23-0.514-0.515v-3.089c0-0.284,0.23-0.515,0.514-0.515h3.09  c0.284,0,0.515,0.23,0.515,0.515v3.089c0,0.284-0.23,0.515-0.515,0.515H24.009z" fill="url(#SVGID_16_)"/>
<path d="M34.305,24.089c0,0.57-0.461,1.03-1.029,1.03h-3.088c-0.568,0-1.031-0.46-1.031-1.03V21  c0-0.567,0.463-1.028,1.031-1.028h3.088c0.568,0,1.029,0.461,1.029,1.028V24.089z" fill-opacity="0.25" stroke-opacity="0.25"/>
<linearGradient gradientUnits="userSpaceOnUse" id="SVGID_17_" x1="31.7305" x2="31.7305" y1="19.3906" y2="24.5861">
<stop offset="0" style="stop-color:#F0F4F1"/>
<stop offset="0.7939" style="stop-color:#A2A5A4"/>
<stop offset="1" style="stop-color:#D3DBD7"/>
</linearGradient>
<path d="M34.305,23.532c0,0.568-0.461,1.029-1.029,1.029h-3.088c-0.568,0-1.031-0.461-1.031-1.029v-3.089  c0-0.569,0.463-1.029,1.031-1.029h3.088c0.568,0,1.029,0.46,1.029,1.029V23.532z" fill="url(#SVGID_17_)"/>
<linearGradient gradientUnits="userSpaceOnUse" id="SVGID_18_" x1="33.8545" x2="29.6936" y1="21.9878" y2="21.9878">
<stop offset="0" style="stop-color:#E7EAE8"/>
<stop offset="0.8364" style="stop-color:#C9CECC"/>
<stop offset="0.9758" style="stop-color:#D5D8D6"/>
<stop offset="1" style="stop-color:#D5D8D6"/>
</linearGradient>
<path d="M30.188,24.047c-0.284,0-0.516-0.23-0.516-0.515v-3.089c0-0.284,0.231-0.515,0.516-0.515h3.088  c0.285,0,0.515,0.23,0.515,0.515v3.089c0,0.284-0.229,0.515-0.515,0.515H30.188z" fill="url(#SVGID_18_)"/>
<path d="M40.482,24.089c0,0.57-0.46,1.03-1.028,1.03h-3.089c-0.57,0-1.03-0.46-1.03-1.03V21  c0-0.567,0.46-1.028,1.03-1.028h3.089c0.568,0,1.028,0.461,1.028,1.028V24.089z" fill-opacity="0.25" stroke-opacity="0.25"/>
<linearGradient gradientUnits="userSpaceOnUse" id="SVGID_19_" x1="37.9082" x2="37.9082" y1="19.3906" y2="24.5861">
<stop offset="0" style="stop-color:#F0F4F1"/>
<stop offset="0.7939" style="stop-color:#A2A5A4"/>
<stop offset="1" style="stop-color:#D3DBD7"/>
</linearGradient>
<path d="M40.482,23.532c0,0.568-0.46,1.029-1.028,1.029h-3.089c-0.57,0-1.03-0.461-1.03-1.029v-3.089  c0-0.569,0.46-1.029,1.03-1.029h3.089c0.568,0,1.028,0.46,1.028,1.029V23.532z" fill="url(#SVGID_19_)"/>
<linearGradient gradientUnits="userSpaceOnUse" id="SVGID_20_" x1="40.0332" x2="35.8713" y1="21.9878" y2="21.9878">
<stop offset="0" style="stop-color:#E7EAE8"/>
<stop offset="0.8364" style="stop-color:#C9CECC"/>
<stop offset="0.9758" style="stop-color:#D5D8D6"/>
<stop offset="1" style="stop-color:#D5D8D6"/>
</linearGradient>
<path d="M36.365,24.047c-0.285,0-0.516-0.23-0.516-0.515v-3.089c0-0.284,0.23-0.515,0.516-0.515h3.089  c0.283,0,0.515,0.23,0.515,0.515v3.089c0,0.284-0.231,0.515-0.515,0.515H36.365z" fill="url(#SVGID_20_)"/>
<path d="M46.725,24.089c0,0.57-0.46,1.03-1.029,1.03h-3.088c-0.57,0-1.03-0.46-1.03-1.03V21  c0-0.567,0.46-1.028,1.03-1.028h3.088c0.569,0,1.029,0.461,1.029,1.028V24.089z" fill-opacity="0.25" stroke-opacity="0.25"/>
<linearGradient gradientUnits="userSpaceOnUse" id="SVGID_21_" x1="44.1504" x2="44.1504" y1="19.3906" y2="24.5861">
<stop offset="0" style="stop-color:#F0F4F1"/>
<stop offset="0.7939" style="stop-color:#A2A5A4"/>
<stop offset="1" style="stop-color:#D3DBD7"/>
</linearGradient>
<path d="M46.725,23.532c0,0.568-0.46,1.029-1.029,1.029h-3.088c-0.57,0-1.03-0.461-1.03-1.029v-3.089  c0-0.569,0.46-1.029,1.03-1.029h3.088c0.569,0,1.029,0.46,1.029,1.029V23.532z" fill="url(#SVGID_21_)"/>
<linearGradient gradientUnits="userSpaceOnUse" id="SVGID_22_" x1="46.2744" x2="42.1125" y1="21.9878" y2="21.9878">
<stop offset="0" style="stop-color:#E7EAE8"/>
<stop offset="0.8364" style="stop-color:#C9CECC"/>
<stop offset="0.9758" style="stop-color:#D5D8D6"/>
<stop offset="1" style="stop-color:#D5D8D6"/>
</linearGradient>
<path d="M42.607,24.047c-0.285,0-0.517-0.23-0.517-0.515v-3.089c0-0.284,0.231-0.515,0.517-0.515h3.088  c0.283,0,0.515,0.23,0.515,0.515v3.089c0,0.284-0.231,0.515-0.515,0.515H42.607z" fill="url(#SVGID_22_)"/>
<path d="M55.637,24.089c0,0.57-0.461,1.03-1.029,1.03h-5.823c-0.569,0-1.029-0.46-1.029-1.03V21  c0-0.567,0.46-1.028,1.029-1.028h5.823c0.568,0,1.029,0.461,1.029,1.028V24.089z" fill-opacity="0.25" stroke-opacity="0.25"/>
<linearGradient gradientUnits="userSpaceOnUse" id="SVGID_23_" x1="51.6953" x2="51.6953" y1="19.3906" y2="24.5861">
<stop offset="0" style="stop-color:#F0F4F1"/>
<stop offset="0.7939" style="stop-color:#A2A5A4"/>
<stop offset="1" style="stop-color:#D3DBD7"/>
</linearGradient>
<path d="M55.637,23.532c0,0.568-0.461,1.029-1.029,1.029h-5.823c-0.569,0-1.029-0.461-1.029-1.029v-3.089  c0-0.569,0.46-1.029,1.029-1.029h5.823c0.568,0,1.029,0.46,1.029,1.029V23.532z" fill="url(#SVGID_23_)"/>
<linearGradient gradientUnits="userSpaceOnUse" id="SVGID_24_" x1="55.2305" x2="48.3058" y1="21.9878" y2="21.9878">
<stop offset="0" style="stop-color:#E7EAE8"/>
<stop offset="0.8364" style="stop-color:#C9CECC"/>
<stop offset="0.9758" style="stop-color:#D5D8D6"/>
<stop offset="1" style="stop-color:#D5D8D6"/>
</linearGradient>
<path d="M48.784,24.047c-0.285,0-0.515-0.23-0.515-0.515v-3.089c0-0.284,0.229-0.515,0.515-0.515h5.823  c0.284,0,0.516,0.23,0.516,0.515v3.089c0,0.284-0.231,0.515-0.516,0.515H48.784z" fill="url(#SVGID_24_)"/>
<path d="M49.459,30.073c0,0.569-0.461,1.03-1.029,1.03h-5.824c-0.568,0-1.028-0.461-1.028-1.03v-3.088  c0-0.568,0.46-1.03,1.028-1.03h5.824c0.568,0,1.029,0.462,1.029,1.03V30.073z" fill-opacity="0.25" stroke-opacity="0.25"/>
<linearGradient gradientUnits="userSpaceOnUse" id="SVGID_25_" x1="45.5176" x2="45.5176" y1="25.375" y2="30.5705">
<stop offset="0" style="stop-color:#F0F4F1"/>
<stop offset="0.7939" style="stop-color:#A2A5A4"/>
<stop offset="1" style="stop-color:#D3DBD7"/>
</linearGradient>
<path d="M49.459,29.517c0,0.568-0.461,1.029-1.029,1.029h-5.824c-0.568,0-1.028-0.461-1.028-1.029v-3.088  c0-0.569,0.46-1.03,1.028-1.03h5.824c0.568,0,1.029,0.461,1.029,1.03V29.517z" fill="url(#SVGID_25_)"/>
<linearGradient gradientUnits="userSpaceOnUse" id="SVGID_26_" x1="49.0518" x2="42.1271" y1="27.9722" y2="27.9722">
<stop offset="0" style="stop-color:#E7EAE8"/>
<stop offset="0.8364" style="stop-color:#C9CECC"/>
<stop offset="0.9758" style="stop-color:#D5D8D6"/>
<stop offset="1" style="stop-color:#D5D8D6"/>
</linearGradient>
<path d="M42.605,30.03c-0.284,0-0.515-0.229-0.515-0.514v-3.088c0-0.285,0.23-0.515,0.515-0.515h5.824  c0.283,0,0.515,0.229,0.515,0.515v3.088c0,0.284-0.231,0.514-0.515,0.514H42.605z" fill="url(#SVGID_26_)"/>
<path d="M12.078,24.089c0,0.57-0.46,1.03-1.028,1.03H5.393c-0.57,0-1.031-0.46-1.031-1.03V21  c0-0.567,0.461-1.028,1.031-1.028h5.657c0.568,0,1.028,0.461,1.028,1.028V24.089z" fill-opacity="0.25" stroke-opacity="0.25"/>
<linearGradient gradientUnits="userSpaceOnUse" id="SVGID_27_" x1="8.2197" x2="8.2197" y1="19.3906" y2="24.5861">
<stop offset="0" style="stop-color:#F0F4F1"/>
<stop offset="0.7939" style="stop-color:#A2A5A4"/>
<stop offset="1" style="stop-color:#D3DBD7"/>
</linearGradient>
<path d="M12.078,23.532c0,0.568-0.46,1.029-1.028,1.029H5.393c-0.57,0-1.031-0.461-1.031-1.029v-3.089  c0-0.569,0.461-1.029,1.031-1.029h5.657c0.568,0,1.028,0.46,1.028,1.029V23.532z" fill="url(#SVGID_27_)"/>
<linearGradient gradientUnits="userSpaceOnUse" id="SVGID_28_" x1="11.6689" x2="4.912" y1="21.9878" y2="21.9878">
<stop offset="0" style="stop-color:#E7EAE8"/>
<stop offset="0.8364" style="stop-color:#C9CECC"/>
<stop offset="0.9758" style="stop-color:#D5D8D6"/>
<stop offset="1" style="stop-color:#D5D8D6"/>
</linearGradient>
<path d="M5.393,24.047c-0.285,0-0.516-0.23-0.516-0.515v-3.089c0-0.284,0.23-0.515,0.516-0.515h5.657  c0.283,0,0.515,0.23,0.515,0.515v3.089c0,0.284-0.231,0.515-0.515,0.515H5.393z" fill="url(#SVGID_28_)"/>
<path d="M9.51,30.073c0,0.569-0.461,1.03-1.029,1.03H5.393c-0.57,0-1.031-0.461-1.031-1.03v-3.088  c0-0.568,0.461-1.029,1.031-1.029H8.48c0.568,0,1.029,0.461,1.029,1.029V30.073z" fill-opacity="0.25" stroke-opacity="0.25"/>
<linearGradient gradientUnits="userSpaceOnUse" id="SVGID_29_" x1="6.9355" x2="6.9355" y1="25.375" y2="30.5705">
<stop offset="0" style="stop-color:#F0F4F1"/>
<stop offset="0.7939" style="stop-color:#A2A5A4"/>
<stop offset="1" style="stop-color:#D3DBD7"/>
</linearGradient>
<path d="M9.51,29.517c0,0.568-0.461,1.029-1.029,1.029H5.393c-0.57,0-1.031-0.461-1.031-1.029v-3.088  c0-0.569,0.461-1.03,1.031-1.03H8.48c0.568,0,1.029,0.461,1.029,1.03V29.517z" fill="url(#SVGID_29_)"/>
<linearGradient gradientUnits="userSpaceOnUse" id="SVGID_30_" x1="9.0596" x2="4.8987" y1="27.9727" y2="27.9727">
<stop offset="0" style="stop-color:#E7EAE8"/>
<stop offset="0.8364" style="stop-color:#C9CECC"/>
<stop offset="0.9758" style="stop-color:#D5D8D6"/>
<stop offset="1" style="stop-color:#D5D8D6"/>
</linearGradient>
<path d="M5.393,30.032c-0.285,0-0.516-0.231-0.516-0.516v-3.088c0-0.286,0.23-0.516,0.516-0.516H8.48  c0.283,0,0.515,0.229,0.515,0.516v3.088c0,0.284-0.231,0.516-0.515,0.516H5.393z" fill="url(#SVGID_30_)"/>
<path d="M15.688,30.073c0,0.569-0.461,1.03-1.031,1.03h-3.088c-0.568,0-1.028-0.461-1.028-1.03v-3.088  c0-0.568,0.46-1.029,1.028-1.029h3.088c0.57,0,1.031,0.461,1.031,1.029V30.073z" fill-opacity="0.25" stroke-opacity="0.25"/>
<linearGradient gradientUnits="userSpaceOnUse" id="SVGID_31_" x1="13.1133" x2="13.1133" y1="25.375" y2="30.5705">
<stop offset="0" style="stop-color:#F0F4F1"/>
<stop offset="0.7939" style="stop-color:#A2A5A4"/>
<stop offset="1" style="stop-color:#D3DBD7"/>
</linearGradient>
<path d="M15.688,29.517c0,0.568-0.461,1.029-1.031,1.029h-3.088c-0.568,0-1.028-0.461-1.028-1.029v-3.088  c0-0.569,0.46-1.03,1.028-1.03h3.088c0.57,0,1.031,0.461,1.031,1.03V29.517z" fill="url(#SVGID_31_)"/>
<linearGradient gradientUnits="userSpaceOnUse" id="SVGID_32_" x1="15.2363" x2="11.0764" y1="27.9727" y2="27.9727">
<stop offset="0" style="stop-color:#E7EAE8"/>
<stop offset="0.8364" style="stop-color:#C9CECC"/>
<stop offset="0.9758" style="stop-color:#D5D8D6"/>
<stop offset="1" style="stop-color:#D5D8D6"/>
</linearGradient>
<path d="M11.568,30.032c-0.283,0-0.514-0.231-0.514-0.516v-3.088c0-0.286,0.23-0.516,0.514-0.516h3.088  c0.286,0,0.516,0.229,0.516,0.516v3.088c0,0.284-0.229,0.516-0.516,0.516H11.568z" fill="url(#SVGID_32_)"/>
<path d="M21.865,30.073c0,0.569-0.462,1.03-1.03,1.03h-3.088c-0.569,0-1.031-0.461-1.031-1.03v-3.088  c0-0.568,0.462-1.029,1.031-1.029h3.088c0.568,0,1.03,0.461,1.03,1.029V30.073z" fill-opacity="0.25" stroke-opacity="0.25"/>
<linearGradient gradientUnits="userSpaceOnUse" id="SVGID_33_" x1="19.291" x2="19.291" y1="25.375" y2="30.5705">
<stop offset="0" style="stop-color:#F0F4F1"/>
<stop offset="0.7939" style="stop-color:#A2A5A4"/>
<stop offset="1" style="stop-color:#D3DBD7"/>
</linearGradient>
<path d="M21.865,29.517c0,0.568-0.462,1.029-1.03,1.029h-3.088c-0.569,0-1.031-0.461-1.031-1.029v-3.088  c0-0.569,0.462-1.03,1.031-1.03h3.088c0.568,0,1.03,0.461,1.03,1.03V29.517z" fill="url(#SVGID_33_)"/>
<linearGradient gradientUnits="userSpaceOnUse" id="SVGID_34_" x1="21.4141" x2="17.2541" y1="27.9727" y2="27.9727">
<stop offset="0" style="stop-color:#E7EAE8"/>
<stop offset="0.8364" style="stop-color:#C9CECC"/>
<stop offset="0.9758" style="stop-color:#D5D8D6"/>
<stop offset="1" style="stop-color:#D5D8D6"/>
</linearGradient>
<path d="M17.747,30.032c-0.284,0-0.515-0.231-0.515-0.516v-3.088c0-0.286,0.23-0.516,0.515-0.516h3.088  c0.284,0,0.515,0.229,0.515,0.516v3.088c0,0.284-0.23,0.516-0.515,0.516H17.747z" fill="url(#SVGID_34_)"/>
<path d="M28.042,30.073c0,0.569-0.46,1.03-1.028,1.03h-3.091c-0.567,0-1.028-0.461-1.028-1.03v-3.088  c0-0.568,0.461-1.029,1.028-1.029h3.091c0.568,0,1.028,0.461,1.028,1.029V30.073z" fill-opacity="0.25" stroke-opacity="0.25"/>
<linearGradient gradientUnits="userSpaceOnUse" id="SVGID_35_" x1="25.4688" x2="25.4688" y1="25.375" y2="30.5705">
<stop offset="0" style="stop-color:#F0F4F1"/>
<stop offset="0.7939" style="stop-color:#A2A5A4"/>
<stop offset="1" style="stop-color:#D3DBD7"/>
</linearGradient>
<path d="M28.042,29.517c0,0.568-0.46,1.029-1.028,1.029h-3.091c-0.567,0-1.028-0.461-1.028-1.029v-3.088  c0-0.569,0.461-1.03,1.028-1.03h3.091c0.568,0,1.028,0.461,1.028,1.03V29.517z" fill="url(#SVGID_35_)"/>
<linearGradient gradientUnits="userSpaceOnUse" id="SVGID_36_" x1="27.5918" x2="23.4309" y1="27.9727" y2="27.9727">
<stop offset="0" style="stop-color:#E7EAE8"/>
<stop offset="0.8364" style="stop-color:#C9CECC"/>
<stop offset="0.9758" style="stop-color:#D5D8D6"/>
<stop offset="1" style="stop-color:#D5D8D6"/>
</linearGradient>
<path d="M23.923,30.032c-0.283,0-0.514-0.231-0.514-0.516v-3.088c0-0.286,0.23-0.516,0.514-0.516h3.091  c0.283,0,0.514,0.229,0.514,0.516v3.088c0,0.284-0.23,0.516-0.514,0.516H23.923z" fill="url(#SVGID_36_)"/>
<path d="M34.284,30.073c0,0.569-0.46,1.03-1.029,1.03h-3.09c-0.566,0-1.028-0.461-1.028-1.03v-3.088  c0-0.568,0.462-1.029,1.028-1.029h3.09c0.569,0,1.029,0.461,1.029,1.029V30.073z" fill-opacity="0.25" stroke-opacity="0.25"/>
<linearGradient gradientUnits="userSpaceOnUse" id="SVGID_37_" x1="31.7109" x2="31.7109" y1="25.375" y2="30.5705">
<stop offset="0" style="stop-color:#F0F4F1"/>
<stop offset="0.7939" style="stop-color:#A2A5A4"/>
<stop offset="1" style="stop-color:#D3DBD7"/>
</linearGradient>
<path d="M34.284,29.517c0,0.568-0.46,1.029-1.029,1.029h-3.09c-0.566,0-1.028-0.461-1.028-1.029v-3.088  c0-0.569,0.462-1.03,1.028-1.03h3.09c0.569,0,1.029,0.461,1.029,1.03V29.517z" fill="url(#SVGID_37_)"/>
<linearGradient gradientUnits="userSpaceOnUse" id="SVGID_38_" x1="33.834" x2="29.6721" y1="27.9727" y2="27.9727">
<stop offset="0" style="stop-color:#E7EAE8"/>
<stop offset="0.8364" style="stop-color:#C9CECC"/>
<stop offset="0.9758" style="stop-color:#D5D8D6"/>
<stop offset="1" style="stop-color:#D5D8D6"/>
</linearGradient>
<path d="M30.165,30.032c-0.283,0-0.515-0.231-0.515-0.516v-3.088c0-0.286,0.231-0.516,0.515-0.516h3.09  c0.283,0,0.515,0.229,0.515,0.516v3.088c0,0.284-0.231,0.516-0.515,0.516H30.165z" fill="url(#SVGID_38_)"/>
<path d="M40.482,30.073c0,0.569-0.46,1.03-1.028,1.03h-3.089c-0.57,0-1.03-0.461-1.03-1.03v-3.088  c0-0.568,0.46-1.029,1.03-1.029h3.089c0.568,0,1.028,0.461,1.028,1.029V30.073z" fill-opacity="0.25" stroke-opacity="0.25"/>
<linearGradient gradientUnits="userSpaceOnUse" id="SVGID_39_" x1="37.9082" x2="37.9082" y1="25.375" y2="30.5705">
<stop offset="0" style="stop-color:#F0F4F1"/>
<stop offset="0.7939" style="stop-color:#A2A5A4"/>
<stop offset="1" style="stop-color:#D3DBD7"/>
</linearGradient>
<path d="M40.482,29.517c0,0.568-0.46,1.029-1.028,1.029h-3.089c-0.57,0-1.03-0.461-1.03-1.029v-3.088  c0-0.569,0.46-1.03,1.03-1.03h3.089c0.568,0,1.028,0.461,1.028,1.03V29.517z" fill="url(#SVGID_39_)"/>
<linearGradient gradientUnits="userSpaceOnUse" id="SVGID_40_" x1="40.0332" x2="35.8713" y1="27.9727" y2="27.9727">
<stop offset="0" style="stop-color:#E7EAE8"/>
<stop offset="0.8364" style="stop-color:#C9CECC"/>
<stop offset="0.9758" style="stop-color:#D5D8D6"/>
<stop offset="1" style="stop-color:#D5D8D6"/>
</linearGradient>
<path d="M36.365,30.032c-0.285,0-0.516-0.231-0.516-0.516v-3.088c0-0.286,0.23-0.516,0.516-0.516h3.089  c0.283,0,0.515,0.229,0.515,0.516v3.088c0,0.284-0.231,0.516-0.515,0.516H36.365z" fill="url(#SVGID_40_)"/>
<path d="M55.637,36.123c0,0.568-0.461,1.029-1.029,1.029h-12c-0.57,0-1.03-0.461-1.03-1.029v-3.088  c0-0.569,0.46-1.03,1.03-1.03h12c0.568,0,1.029,0.461,1.029,1.03V36.123z" fill-opacity="0.25" stroke-opacity="0.25"/>
<linearGradient gradientUnits="userSpaceOnUse" id="SVGID_41_" x1="48.6074" x2="48.6074" y1="25.4102" y2="36.5772">
<stop offset="0" style="stop-color:#F0F4F1"/>
<stop offset="0.7939" style="stop-color:#A2A5A4"/>
<stop offset="1" style="stop-color:#D3DBD7"/>
</linearGradient>
<path d="M54.608,25.398h-3.088c-0.571,0-1.03,0.461-1.03,1.03v5.02h-7.883c-0.57,0-1.03,0.461-1.03,1.029  v3.088c0,0.568,0.46,1.03,1.03,1.03h12c0.568,0,1.029-0.462,1.029-1.03v-9.137C55.637,25.859,55.178,25.398,54.608,25.398z" fill="url(#SVGID_41_)"/>
<linearGradient gradientUnits="userSpaceOnUse" id="SVGID_42_" x1="48.6074" x2="48.6074" y1="25.8818" y2="36.0711">
<stop offset="0" style="stop-color:#E7EAE8"/>
<stop offset="0.8364" style="stop-color:#C9CECC"/>
<stop offset="0.9758" style="stop-color:#D5D8D6"/>
<stop offset="1" style="stop-color:#D5D8D6"/>
</linearGradient>
<path d="M54.608,25.913h-3.088c-0.285,0-0.517,0.229-0.517,0.516v5.533h-8.396  c-0.285,0-0.517,0.23-0.517,0.516v3.088c0,0.284,0.231,0.516,0.517,0.516h12c0.284,0,0.516-0.231,0.516-0.516v-9.137  C55.123,26.143,54.892,25.913,54.608,25.913z" fill="url(#SVGID_42_)"/>
<path d="M21.949,42.235c0,0.568-0.459,1.03-1.028,1.03h-3.089c-0.567,0-1.029-0.462-1.029-1.03v-3.088  c0-0.568,0.462-1.031,1.029-1.031h3.089c0.569,0,1.028,0.463,1.028,1.031V42.235z" fill-opacity="0.25" stroke-opacity="0.25"/>
<linearGradient gradientUnits="userSpaceOnUse" id="SVGID_43_" x1="19.376" x2="19.376" y1="37.5371" y2="42.7326">
<stop offset="0" style="stop-color:#F0F4F1"/>
<stop offset="0.7939" style="stop-color:#A2A5A4"/>
<stop offset="1" style="stop-color:#D3DBD7"/>
</linearGradient>
<path d="M21.949,41.679c0,0.568-0.459,1.029-1.028,1.029h-3.089c-0.567,0-1.029-0.461-1.029-1.029v-3.09  c0-0.567,0.462-1.028,1.029-1.028h3.089c0.569,0,1.028,0.461,1.028,1.028V41.679z" fill="url(#SVGID_43_)"/>
<linearGradient gradientUnits="userSpaceOnUse" id="SVGID_44_" x1="21.5" x2="17.3381" y1="40.1343" y2="40.1343">
<stop offset="0" style="stop-color:#E7EAE8"/>
<stop offset="0.8364" style="stop-color:#C9CECC"/>
<stop offset="0.9758" style="stop-color:#D5D8D6"/>
<stop offset="1" style="stop-color:#D5D8D6"/>
</linearGradient>
<path d="M17.832,42.192c-0.284,0-0.516-0.229-0.516-0.514v-3.09c0-0.284,0.231-0.513,0.516-0.513h3.089  c0.283,0,0.515,0.229,0.515,0.513v3.09c0,0.284-0.231,0.514-0.515,0.514H17.832z" fill="url(#SVGID_44_)"/>
<path d="M15.73,42.235c0,0.568-0.462,1.03-1.031,1.03h-3.088c-0.568,0-1.028-0.462-1.028-1.03v-3.088  c0-0.568,0.46-1.031,1.028-1.031h3.088c0.569,0,1.031,0.463,1.031,1.031V42.235z" fill-opacity="0.25" stroke-opacity="0.25"/>
<linearGradient gradientUnits="userSpaceOnUse" id="SVGID_45_" x1="13.1563" x2="13.1563" y1="37.5371" y2="42.7326">
<stop offset="0" style="stop-color:#F0F4F1"/>
<stop offset="0.7939" style="stop-color:#A2A5A4"/>
<stop offset="1" style="stop-color:#D3DBD7"/>
</linearGradient>
<path d="M15.73,41.679c0,0.568-0.462,1.029-1.031,1.029h-3.088c-0.568,0-1.028-0.461-1.028-1.029v-3.09  c0-0.567,0.46-1.028,1.028-1.028h3.088c0.569,0,1.031,0.461,1.031,1.028V41.679z" fill="url(#SVGID_45_)"/>
<linearGradient gradientUnits="userSpaceOnUse" id="SVGID_46_" x1="15.2793" x2="11.1194" y1="40.1343" y2="40.1343">
<stop offset="0" style="stop-color:#E7EAE8"/>
<stop offset="0.8364" style="stop-color:#C9CECC"/>
<stop offset="0.9758" style="stop-color:#D5D8D6"/>
<stop offset="1" style="stop-color:#D5D8D6"/>
</linearGradient>
<path d="M11.611,42.192c-0.283,0-0.514-0.229-0.514-0.514v-3.09c0-0.284,0.23-0.513,0.514-0.513h3.088  c0.286,0,0.516,0.229,0.516,0.513v3.09c0,0.284-0.229,0.514-0.516,0.514H11.611z" fill="url(#SVGID_46_)"/>
<path d="M9.51,42.235c0,0.568-0.461,1.03-1.029,1.03H5.393c-0.57,0-1.031-0.462-1.031-1.03v-3.088  c0-0.568,0.461-1.031,1.031-1.031H8.48c0.568,0,1.029,0.463,1.029,1.031V42.235z" fill-opacity="0.25" stroke-opacity="0.25"/>
<linearGradient gradientUnits="userSpaceOnUse" id="SVGID_47_" x1="6.9355" x2="6.9355" y1="37.5371" y2="42.7326">
<stop offset="0" style="stop-color:#F0F4F1"/>
<stop offset="0.7939" style="stop-color:#A2A5A4"/>
<stop offset="1" style="stop-color:#D3DBD7"/>
</linearGradient>
<path d="M9.51,41.679c0,0.568-0.461,1.029-1.029,1.029H5.393c-0.57,0-1.031-0.461-1.031-1.029v-3.09  c0-0.567,0.461-1.028,1.031-1.028H8.48c0.568,0,1.029,0.461,1.029,1.028V41.679z" fill="url(#SVGID_47_)"/>
<linearGradient gradientUnits="userSpaceOnUse" id="SVGID_48_" x1="9.0596" x2="4.8987" y1="40.1343" y2="40.1343">
<stop offset="0" style="stop-color:#E7EAE8"/>
<stop offset="0.8364" style="stop-color:#C9CECC"/>
<stop offset="0.9758" style="stop-color:#D5D8D6"/>
<stop offset="1" style="stop-color:#D5D8D6"/>
</linearGradient>
<path d="M5.393,42.192c-0.285,0-0.516-0.229-0.516-0.514v-3.09c0-0.284,0.23-0.513,0.516-0.513H8.48  c0.283,0,0.515,0.229,0.515,0.513v3.09c0,0.284-0.231,0.514-0.515,0.514H5.393z" fill="url(#SVGID_48_)"/>
<path d="M49.557,42.235c0,0.568-0.463,1.03-1.03,1.03h-3.089c-0.568,0-1.028-0.462-1.028-1.03v-3.088  c0-0.568,0.46-1.031,1.028-1.031h3.089c0.567,0,1.03,0.463,1.03,1.031V42.235z" fill-opacity="0.25" stroke-opacity="0.25"/>
<linearGradient gradientUnits="userSpaceOnUse" id="SVGID_49_" x1="46.9824" x2="46.9824" y1="37.5371" y2="42.7326">
<stop offset="0" style="stop-color:#F0F4F1"/>
<stop offset="0.7939" style="stop-color:#A2A5A4"/>
<stop offset="1" style="stop-color:#D3DBD7"/>
</linearGradient>
<path d="M49.557,41.679c0,0.568-0.463,1.029-1.03,1.029h-3.089c-0.568,0-1.028-0.461-1.028-1.029v-3.09  c0-0.567,0.46-1.028,1.028-1.028h3.089c0.567,0,1.03,0.461,1.03,1.028V41.679z" fill="url(#SVGID_49_)"/>
<linearGradient gradientUnits="userSpaceOnUse" id="SVGID_50_" x1="49.1064" x2="44.9445" y1="40.1343" y2="40.1343">
<stop offset="0" style="stop-color:#E7EAE8"/>
<stop offset="0.8364" style="stop-color:#C9CECC"/>
<stop offset="0.9758" style="stop-color:#D5D8D6"/>
<stop offset="1" style="stop-color:#D5D8D6"/>
</linearGradient>
<path d="M45.438,42.192c-0.283,0-0.515-0.229-0.515-0.514v-3.09c0-0.284,0.231-0.513,0.515-0.513h3.089  c0.284,0,0.516,0.229,0.516,0.513v3.09c0,0.284-0.231,0.514-0.516,0.514H45.438z" fill="url(#SVGID_50_)"/>
<path d="M55.637,42.235c0,0.568-0.461,1.03-1.029,1.03h-3.089c-0.569,0-1.028-0.462-1.028-1.03v-3.088  c0-0.568,0.459-1.031,1.028-1.031h3.089c0.568,0,1.029,0.463,1.029,1.031V42.235z" fill-opacity="0.25" stroke-opacity="0.25"/>
<linearGradient gradientUnits="userSpaceOnUse" id="SVGID_51_" x1="53.0635" x2="53.0635" y1="37.5371" y2="42.7326">
<stop offset="0" style="stop-color:#F0F4F1"/>
<stop offset="0.7939" style="stop-color:#A2A5A4"/>
<stop offset="1" style="stop-color:#D3DBD7"/>
</linearGradient>
<path d="M55.637,41.679c0,0.568-0.461,1.029-1.029,1.029h-3.089c-0.569,0-1.028-0.461-1.028-1.029v-3.09  c0-0.567,0.459-1.028,1.028-1.028h3.089c0.568,0,1.029,0.461,1.029,1.028V41.679z" fill="url(#SVGID_51_)"/>
<linearGradient gradientUnits="userSpaceOnUse" id="SVGID_52_" x1="55.1875" x2="51.0256" y1="40.1343" y2="40.1343">
<stop offset="0" style="stop-color:#E7EAE8"/>
<stop offset="0.8364" style="stop-color:#C9CECC"/>
<stop offset="0.9758" style="stop-color:#D5D8D6"/>
<stop offset="1" style="stop-color:#D5D8D6"/>
</linearGradient>
<path d="M51.519,42.192c-0.283,0-0.515-0.229-0.515-0.514v-3.09c0-0.284,0.231-0.513,0.515-0.513h3.089  c0.284,0,0.516,0.229,0.516,0.513v3.09c0,0.284-0.231,0.514-0.516,0.514H51.519z" fill="url(#SVGID_52_)"/>
<path d="M43.314,42.172c0,0.569-0.462,1.028-1.029,1.028H23.752c-0.567,0-1.029-0.459-1.029-1.028v-3.089  c0-0.568,0.462-1.029,1.029-1.029h18.533c0.567,0,1.029,0.461,1.029,1.029V42.172z" fill-opacity="0.25" stroke-opacity="0.25"/>
<linearGradient gradientUnits="userSpaceOnUse" id="SVGID_53_" x1="33.0186" x2="33.0186" y1="37.4727" y2="42.6681">
<stop offset="0" style="stop-color:#8C8C8C"/>
<stop offset="1" style="stop-color:#2E2E2E"/>
</linearGradient>
<path d="M43.314,41.613c0,0.57-0.462,1.03-1.029,1.03H23.752c-0.567,0-1.029-0.46-1.029-1.03v-3.089  c0-0.567,0.462-1.028,1.029-1.028h18.533c0.567,0,1.029,0.461,1.029,1.028V41.613z" fill="url(#SVGID_53_)"/>
<linearGradient gradientUnits="userSpaceOnUse" id="SVGID_54_" x1="33.0186" x2="33.0186" y1="37.9102" y2="42.3335">
<stop offset="0" style="stop-color:#686868"/>
<stop offset="1" style="stop-color:#000000"/>
</linearGradient>
<path d="M23.752,42.129c-0.284,0-0.516-0.231-0.516-0.516v-3.089c0-0.283,0.231-0.515,0.516-0.515h18.533  c0.284,0,0.516,0.231,0.516,0.515v3.089c0,0.284-0.231,0.516-0.516,0.516H23.752z" fill="url(#SVGID_54_)"/>
<rect fill="none" height="60" width="60"/>
</g>
</svg>
