<?xml version="1.0" encoding="UTF-8"?>
<!DOCTYPE svg PUBLIC "-//W3C//DTD SVG 1.1 Tiny//EN" "http://www.w3.org/Graphics/SVG/1.1/DTD/svg11-tiny.dtd">
<svg baseProfile="tiny" height="30px" version="1.1" viewBox="0 0 30 30" width="30px" x="0px" xmlns="http://www.w3.org/2000/svg" xmlns:xlink="http://www.w3.org/1999/xlink" y="0px">
<path d="M23,30c-0.229,0-0.457-0.08-0.641-0.232l-6-5C16.132,24.578,16,24.297,16,24s0.132-0.578,0.359-0.768l6-5  C22.543,18.078,22.771,18,23,18c0.144,0,0.289,0.031,0.424,0.094C23.775,18.258,24,18.611,24,19v2h5c0.553,0,1,0.447,1,1v4  c0,0.553-0.447,1-1,1h-5v2c0,0.389-0.225,0.74-0.576,0.906C23.289,29.969,23.144,30,23,30L23,30z"/>
<g>
<rect fill="none" height="30" width="30"/>
</g>
<path d="M25.117,3.85C23.294,1.949,20.705,1,17.352,1c-2.008,0-3.802,0.369-5.393,1.088C12.51,2.035,13.07,2,13.648,2  c3.088,0,5.662,0.74,7.699,2.183c0.686,0.356,1.29,0.823,1.808,1.403c0.439,0.494,0.8,1.061,1.095,1.689  c1.26,2.045,1.898,4.583,1.898,7.58c0,0.99-0.091,1.908-0.266,2.756c0.147-0.143,0.289-0.295,0.424-0.459  c1.029-1.252,1.545-3.019,1.545-5.297C27.852,8.419,26.939,5.75,25.117,3.85z"/>
<path d="M15.079,26.305c-0.479-0.4-0.803-0.934-0.962-1.52c-0.049,0.002-0.107,0.01-0.154,0.01c-3.026,0-5.296-0.789-6.809-2.365  c-1.514-1.577-2.27-3.942-2.27-7.096c0-2.808,0.815-5.012,2.447-6.611c1.631-1.6,3.755-2.398,6.371-2.398  c2.488,0,4.404,0.754,5.749,2.262c1.345,1.51,2.017,3.648,2.017,6.42c0,0.541-0.039,1.025-0.097,1.486  C21.855,16.178,22.418,16,23,16c0.365,0,0.726,0.083,1.067,0.213c0.046-0.434,0.081-0.879,0.081-1.357  c0-3.437-0.912-6.105-2.734-8.006C19.591,4.949,17.002,4,13.648,4c-3.373,0-6.157,1.016-8.354,3.049C3.098,9.081,2,11.889,2,15.471  c0,3.755,1.066,6.64,3.199,8.654c2.133,2.014,5.008,3.021,8.627,3.021c0.612,0,1.312-0.071,2.052-0.176L15.079,26.305z"/>
<path d="M14.715,9.154c-2.215,0-3.98,0.692-5.298,2.078c-1.317,1.385-1.976,3.295-1.976,5.729c0,1.576,0.373,2.816,1.121,3.719  c0.747,0.902,1.668,1.354,2.762,1.354c0.811,0,1.511-0.189,2.099-0.568c0.588-0.377,1.142-1.059,1.661-2.043  c0.179,0.633,0.46,1.155,0.842,1.568l1.937-1.614c-0.069-0.13-0.128-0.284-0.174-0.468c-0.096-0.377-0.144-0.918-0.144-1.619  c0-1.769,0.318-4.48,0.957-8.135H14.715z M14.441,15.307c-0.219,1.713-0.499,2.907-0.841,3.582  c-0.342,0.674-0.782,1.012-1.319,1.012c-0.602,0-1.019-0.242-1.251-0.725c-0.232-0.483-0.349-1.268-0.349-2.352  c0-1.695,0.332-3.04,0.998-4.033c0.665-0.994,1.472-1.49,2.42-1.49h0.848L14.441,15.307z"/>
</svg>
