<?xml version="1.0" encoding="UTF-8"?>
<!DOCTYPE svg PUBLIC "-//W3C//DTD SVG 1.1 Tiny//EN" "http://www.w3.org/Graphics/SVG/1.1/DTD/svg11-tiny.dtd">
<svg baseProfile="tiny" height="30px" version="1.1" viewBox="0 0 30 30" width="30px" x="0px" xmlns="http://www.w3.org/2000/svg" xmlns:xlink="http://www.w3.org/1999/xlink" y="0px">
<g fill-opacity="0.5" stroke-opacity="0.5">
<rect fill="none" height="30" width="30"/>
</g>
<path d="M27.748,3.707l-2.121-2.122c-0.781-0.781-2.047-0.781-2.828,0L16.436,7.95l4.949,4.95l6.363-6.364  C28.529,5.754,28.529,4.488,27.748,3.707z"/>
<path d="M1.586,22.798c-0.781,0.781-0.781,2.048,0,2.829l2.121,2.121c0.781,0.781,2.047,0.781,2.828,0l6.364-6.364l-4.95-4.949  L1.586,22.798z"/>
<path d="M23.459,19.31l0.047-0.047c0.268-0.268,0.361-0.664,0.242-1.023c-0.12-0.359-0.433-0.62-0.808-0.674l-1.428-0.203  L23.459,19.31z"/>
<path d="M20.631,16.482l0.047-0.047c0.391-0.391,0.391-1.023,0-1.414l-6.364-6.364c-0.236-0.236-0.575-0.339-0.903-0.273  l-0.902-0.024L20.631,16.482z"/>
<path d="M17.361,21.509l0.205,1.431c0.054,0.376,0.314,0.688,0.674,0.808c0.359,0.12,0.756,0.026,1.023-0.242l0.047-0.047  L17.361,21.509z"/>
<path d="M8.359,12.505l0.023,0.905c-0.064,0.328,0.037,0.667,0.273,0.903l6.365,6.364c0.39,0.391,1.023,0.391,1.414,0l0.047-0.047  L8.359,12.505z"/>
<path d="M27.693,26.373c0.389,0.389,0.41,1.004,0.048,1.367s-0.978,0.344-1.366-0.045L2.307,3.625  C1.918,3.236,1.896,2.621,2.26,2.258c0.363-0.363,0.979-0.341,1.367,0.048L27.693,26.373z"/>
</svg>
