<?xml version="1.0" encoding="UTF-8"?>
<!DOCTYPE svg PUBLIC "-//W3C//DTD SVG 1.1 Tiny//EN" "http://www.w3.org/Graphics/SVG/1.1/DTD/svg11-tiny.dtd">
<svg baseProfile="tiny" height="30px" version="1.1" viewBox="0 0 30 30" width="30px" x="0px" xmlns="http://www.w3.org/2000/svg" xmlns:xlink="http://www.w3.org/1999/xlink" y="0px">
<rect fill="none" height="30" width="30"/>
<path d="M14.177,21.23C15.001,17.113,18.643,14,23,14c0.206,0,0.407,0.017,0.609,0.031l3.988-2.971  c0.346-0.258,0.487-0.707,0.352-1.117C27.813,9.535,27.432,9.258,27,9.258h-9.217l-2.825-8.572  c-0.082-0.246-0.255-0.441-0.474-0.557C14.338,0.046,14.169,0,13.992,0c-0.004,0-0.008,0-0.012,0  c-0.428,0.004-0.804,0.281-0.938,0.686l-2.826,8.572H1c-0.431,0-0.813,0.277-0.949,0.686c-0.136,0.41,0.006,0.859,0.352,1.117  l7.471,5.563l-3.174,9.044c-0.145,0.414-0.004,0.875,0.35,1.135C5.225,26.934,5.434,27,5.644,27c0.208,0,0.415-0.064,0.592-0.194  L14,21.102L14.177,21.23z"/>
<path d="M23,16c-3.865,0-7,3.135-7,7c0,3.867,3.135,7,7,7s7-3.133,7-7C30,19.135,26.865,16,23,16z M18,24v-2h10v2H18z"/>
</svg>
