<?xml version="1.0" encoding="UTF-8"?>
<!DOCTYPE svg PUBLIC "-//W3C//DTD SVG 1.1 Tiny//EN" "http://www.w3.org/Graphics/SVG/1.1/DTD/svg11-tiny.dtd">
<svg baseProfile="tiny" height="60" viewBox="0 0 60 60" width="60" xmlns="http://www.w3.org/2000/svg" xmlns:xlink="http://www.w3.org/1999/xlink">
<g>
<rect fill="none" height="60" width="60"/>
<rect fill="none" height="60" width="60"/>
<linearGradient gradientUnits="userSpaceOnUse" id="SVGID_1_" x1="27.8457" x2="27.8457" y1="3.1968" y2="48.3756">
<stop offset="0" style="stop-color:#D3D7D5"/>
<stop offset="0.0667" style="stop-color:#D3D7D5"/>
<stop offset="0.4606" style="stop-color:#BFC2C1"/>
<stop offset="0.7333" style="stop-color:#989D9D"/>
<stop offset="0.9636" style="stop-color:#AFB3B2"/>
<stop offset="1" style="stop-color:#5B5B5D"/>
</linearGradient>
<path d="M51.063,18.041H31.026v-2.398c2.141-1.259,4.404-2.609,4.404-5.144c0-3.896-4.045-7.063-7.939-7.063  s-7.937,3.168-7.937,7.063c0,2.535,2.265,3.892,4.414,5.146v2.396h-5.7c-1.445,0-2.628,1.183-2.628,2.625v13.049h-1.452  c-1.211-2.092-2.594-4.378-5.186-4.378C5.136,29.337,2,33.348,2,37.217c0,3.868,3.136,7.879,7.003,7.879  c2.592,0,3.975-2.285,5.186-4.377h1.452v3.885c0,1.445,1.183,2.627,2.628,2.627h6.205v-3.62c-1.89-1.103-3.883-2.296-3.883-4.526  c0-3.426,3.557-6.213,6.981-6.213s6.983,2.787,6.983,6.213c0,2.229-1.991,3.418-3.873,4.524v3.622h20.381  c1.447,0,2.629-1.182,2.629-2.627V20.666C53.692,19.224,52.511,18.041,51.063,18.041z" fill="url(#SVGID_1_)"/>
<path d="M18.269,18.758h5.7v-0.717h-5.7c-1.445,0-2.628,1.183-2.628,2.625v0.718  C15.641,19.941,16.823,18.758,18.269,18.758z" fill="#FFFFFF" fill-opacity="0.75" stroke-opacity="0.75"/>
<path d="M27.491,4.152c3.781,0,7.693,2.99,7.918,6.729c0.012-0.124,0.021-0.252,0.021-0.383  c0-3.896-4.045-7.063-7.939-7.063s-7.937,3.168-7.937,7.063c0,0.131,0.01,0.258,0.021,0.383C19.8,7.143,23.71,4.152,27.491,4.152z" fill="#FFFFFF" fill-opacity="0.75" stroke-opacity="0.75"/>
<path d="M30.683,43.608v0.718c1.882-1.107,3.873-2.295,3.873-4.523c0-0.113-0.014-0.225-0.021-0.336  C34.32,41.452,32.454,42.566,30.683,43.608z" fill="#FFFFFF" fill-opacity="0.75" stroke-opacity="0.75"/>
<path d="M9.003,30.055c2.592,0,3.975,2.285,5.186,4.378h1.452v-0.718h-1.452  c-1.211-2.092-2.594-4.378-5.186-4.378C5.136,29.337,2,33.348,2,37.217c0,0.119,0.013,0.238,0.019,0.358  C2.203,33.822,5.256,30.055,9.003,30.055z" fill="#FFFFFF" fill-opacity="0.75" stroke-opacity="0.75"/>
<path d="M51.063,18.041H31.026v0.717h20.037c1.447,0,2.629,1.184,2.629,2.626v-0.718  C53.692,19.224,52.511,18.041,51.063,18.041z" fill="#FFFFFF" fill-opacity="0.75" stroke-opacity="0.75"/>
<path d="M20.612,39.467c-0.008,0.111-0.021,0.223-0.021,0.336c0,2.229,1.993,3.422,3.883,4.525V43.61  C22.696,42.572,20.827,41.453,20.612,39.467z" fill="#FFFFFF" fill-opacity="0.75" stroke-opacity="0.75"/>
<path d="M53.692,32.871H40.51l-0.113,0.01l-0.056,0.008c-1.32,0.211-2.018,1.203-2.18,1.639  l-1.121,2.34c-0.059,0.079-0.109,0.162-0.154,0.241c-0.066,0.112-0.119,0.222-0.129,0.247c-0.045,0.096-0.088,0.196-0.146,0.367  c-0.1,0.307-0.148,0.6-0.148,0.893v8.615h15.32c0.754,0,1.43-0.325,1.91-0.836V32.871z" fill="#020202" fill-opacity="0.1" stroke-opacity="0.1"/>
<path d="M53.692,33.589H40.51l-0.056,0.009c-0.988,0.158-1.514,0.889-1.646,1.24l-1.151,2.401  c-0.056,0.073-0.105,0.149-0.152,0.231c-0.045,0.078-0.083,0.153-0.103,0.201c-0.036,0.074-0.067,0.15-0.109,0.273  c-0.076,0.233-0.113,0.452-0.113,0.67v8.615h14.603c0.754,0,1.43-0.325,1.91-0.836V33.589z" fill="#020202" fill-opacity="0.2" stroke-opacity="0.2"/>
<linearGradient gradientUnits="userSpaceOnUse" id="SVGID_2_" x1="47.9434" x2="47.9434" y1="34.2832" y2="38.7279">
<stop offset="0" style="stop-color:#77BBC5"/>
<stop offset="1" style="stop-color:#51739A"/>
</linearGradient>
<path d="M57.618,37.627l-1.189-2.479c0,0-0.269-0.707-1.109-0.842H40.567  c-0.842,0.135-1.111,0.842-1.111,0.842l-1.188,2.479c-0.288,0.326-0.356,0.74-0.37,0.988h20.092  C57.975,38.367,57.907,37.953,57.618,37.627z" fill="url(#SVGID_2_)"/>
<linearGradient gradientUnits="userSpaceOnUse" id="SVGID_3_" x1="47.9492" x2="47.9492" y1="37" y2="57.4615">
<stop offset="0" style="stop-color:#70B4B6"/>
<stop offset="0.6909" style="stop-color:#455188"/>
<stop offset="1" style="stop-color:#5F8BA1"/>
</linearGradient>
<path d="M58,55.128c0,0.793-0.644,1.436-1.436,1.436H39.333c-0.793,0-1.436-0.643-1.436-1.436V38.615  c0-0.793,0.643-1.436,1.436-1.436h17.231c0.792,0,1.436,0.643,1.436,1.436V55.128z" fill="url(#SVGID_3_)"/>
<linearGradient gradientUnits="userSpaceOnUse" id="SVGID_4_" x1="47.9492" x2="47.9492" y1="37.1016" y2="51.9137">
<stop offset="0" style="stop-color:#70B4B6"/>
<stop offset="0.1818" style="stop-color:#5A8198"/>
<stop offset="0.8606" style="stop-color:#343665"/>
<stop offset="1" style="stop-color:#343665"/>
</linearGradient>
<path d="M40.769,51.538h14.359c0.793,0,1.437-0.644,1.437-1.437V37.18H39.333v12.922  C39.333,50.895,39.976,51.538,40.769,51.538z" fill="url(#SVGID_4_)"/>
<linearGradient gradientUnits="userSpaceOnUse" id="SVGID_5_" x1="47.9482" x2="47.9482" y1="50.2227" y2="56.8327">
<stop offset="0" style="stop-color:#3D4477"/>
<stop offset="0.4121" style="stop-color:#3D4477"/>
<stop offset="1" style="stop-color:#506C90"/>
</linearGradient>
<path d="M55.87,51.326c-0.17,0.103-0.36,0.168-0.565,0.194c-0.047,0.011-0.103,0.018-0.177,0.018H40.769  c-0.074,0-0.129-0.007-0.176-0.018c-0.205-0.026-0.396-0.092-0.564-0.194l-1.93,4.525c0.25,0.424,0.707,0.712,1.234,0.712h17.231  c0.528,0,0.984-0.288,1.233-0.712L55.87,51.326z" fill="url(#SVGID_5_)"/>
<linearGradient gradientUnits="userSpaceOnUse" id="SVGID_6_" x1="47.9482" x2="47.9482" y1="50.3188" y2="56.3521">
<stop offset="0" style="stop-color:#3C376C"/>
<stop offset="0.4121" style="stop-color:#3C376C"/>
<stop offset="1" style="stop-color:#5A8198"/>
</linearGradient>
<path d="M40.028,52.044c0.169,0.103,0.359,0.169,0.564,0.194  c0.047,0.011,0.102,0.018,0.176,0.018h14.359c0.074,0,0.13-0.007,0.177-0.018c0.205-0.025,0.396-0.092,0.565-0.194l1.73,4.063  c0.074-0.078,0.143-0.162,0.197-0.255l-1.928-4.525c-0.17,0.103-0.36,0.168-0.565,0.194c-0.047,0.011-0.103,0.018-0.177,0.018  H40.769c-0.074,0-0.129-0.007-0.176-0.018c-0.205-0.026-0.396-0.092-0.564-0.194l-1.93,4.525c0.056,0.093,0.125,0.177,0.198,0.255  L40.028,52.044z" fill="url(#SVGID_6_)" fill-opacity="0.8" stroke-opacity="0.8"/>
<linearGradient gradientUnits="userSpaceOnUse" id="SVGID_7_" x1="47.9492" x2="47.9492" y1="37.1016" y2="51.9137">
<stop offset="0" style="stop-color:#70B4B6"/>
<stop offset="0.1818" style="stop-color:#52718A"/>
<stop offset="0.5394" style="stop-color:#47507B"/>
<stop offset="0.8606" style="stop-color:#322D58"/>
<stop offset="1" style="stop-color:#322D58"/>
</linearGradient>
<path d="M39.333,37.18v12.922c0,0.793,0.643,1.437,1.436,1.437h14.359c0.793,0,1.437-0.644,1.437-1.437V37.18  H39.333z M55.847,50.102c0,0.396-0.323,0.719-0.719,0.719H40.769c-0.395,0-0.717-0.322-0.717-0.719V37.896h15.795V50.102z" fill="url(#SVGID_7_)"/>
<linearGradient gradientUnits="userSpaceOnUse" id="SVGID_8_" x1="47.9492" x2="47.9492" y1="34.291" y2="37.2549">
<stop offset="0" style="stop-color:#89C8CD"/>
<stop offset="0.9879" style="stop-color:#36447F"/>
<stop offset="1" style="stop-color:#36447F"/>
</linearGradient>
<path d="M56.564,35.743c0-0.793-0.644-1.437-1.437-1.437H40.769c-0.793,0-1.436,0.644-1.436,1.437v1.437  h17.231V35.743z" fill="url(#SVGID_8_)"/>
<path d="M39.333,37.18h17.231c0.465,0,0.875,0.225,1.138,0.568c-0.029-0.041-0.05-0.082-0.084-0.121l-1.189-2.479  c0,0-0.269-0.707-1.109-0.842H40.567c-0.842,0.135-1.111,0.842-1.111,0.842l-1.188,2.479c-0.101,0.115-0.167,0.238-0.222,0.362  C38.28,37.512,38.765,37.18,39.333,37.18z" fill="#BDE3D3"/>
<path d="M57.786,37.869c0.006,0.011,0.012,0.022,0.018,0.033C57.798,37.891,57.792,37.881,57.786,37.869z" fill="#BDE3D3"/>
<path d="M37.985,38.139c-0.004,0.01-0.006,0.02-0.01,0.029C37.979,38.158,37.981,38.148,37.985,38.139z" fill="#BDE3D3"/>
<linearGradient gradientUnits="userSpaceOnUse" id="SVGID_9_" x1="47.9492" x2="47.9492" y1="37.0742" y2="57.0705">
<stop offset="0" style="stop-color:#C5DED1"/>
<stop offset="0.4545" style="stop-color:#92C0C5"/>
<stop offset="0.6909" style="stop-color:#5C829E"/>
<stop offset="1" style="stop-color:#6BA8B5"/>
</linearGradient>
<path d="M56.564,37.18H39.333c-0.793,0-1.436,0.643-1.436,1.436v16.513c0,0.793,0.643,1.436,1.436,1.436  h17.231c0.792,0,1.436-0.643,1.436-1.436V38.615C58,37.822,57.356,37.18,56.564,37.18z M57.282,55.128  c0,0.396-0.322,0.718-0.718,0.718H39.333c-0.395,0-0.718-0.322-0.718-0.718V38.615c0-0.396,0.323-0.719,0.718-0.719h17.231  c0.396,0,0.718,0.322,0.718,0.719V55.128z" fill="url(#SVGID_9_)"/>
</g>
</svg>
