<?xml version="1.0" encoding="UTF-8"?>
<!DOCTYPE svg PUBLIC "-//W3C//DTD SVG 1.1 Tiny//EN" "http://www.w3.org/Graphics/SVG/1.1/DTD/svg11-tiny.dtd">
<svg baseProfile="tiny" height="10px" version="1.1" viewBox="0 0 10 10" width="10px" x="0px" xmlns="http://www.w3.org/2000/svg" xmlns:xlink="http://www.w3.org/1999/xlink" y="0px">
<rect fill="none" height="10" width="10"/>
<path d="M9,6c0-2.757-2.243-5-5-5H0v9h9V6z" fill="url(#SVGID_1_)"/>
<path d="M4,1H0v2h4c1.654,0,3,1.346,3,3v4h2V6C9,3.243,6.757,1,4,1z" fill="#5A5A64" fill-opacity="0.2" stroke-opacity="0.2"/>
<path d="M4,1H0v1h4c2.206,0,4,1.794,4,4v4h1V6C9,3.243,6.757,1,4,1z" fill="#5A5A64" fill-opacity="0.3" stroke-opacity="0.3"/>
<path d="M4,0H0v1h4c2.757,0,5,2.243,5,5v4h1V6C10,2.7,7.3,0,4,0z" fill="#FFFFFF"/>
<path d="M4,1H0v3h6c1.103,0,2,0.896,2,2v4h1V6C9,3.243,6.757,1,4,1z" fill-opacity="0.1" stroke-opacity="0.1"/>
<defs>
<linearGradient gradientUnits="userSpaceOnUse" id="SVGID_1_" x1="4.5" x2="4.5" y1="1" y2="68.8625">
<stop offset="0" style="stop-color:#CCCCCC"/>
<stop offset="0.0043" style="stop-color:#CCCCCC"/>
<stop offset="0.35" style="stop-color:#FFFFFF"/>
<stop offset="0.7" style="stop-color:#FFFFFF"/>
<stop offset="1" style="stop-color:#D9D9D9"/>
</linearGradient>
</defs>
</svg>
