<?xml version="1.0" encoding="UTF-8"?>
<!DOCTYPE svg PUBLIC "-//W3C//DTD SVG 1.1 Tiny//EN" "http://www.w3.org/Graphics/SVG/1.1/DTD/svg11-tiny.dtd">
<svg baseProfile="tiny" height="60" viewBox="0 0 60 60" width="60" xmlns="http://www.w3.org/2000/svg" xmlns:xlink="http://www.w3.org/1999/xlink">
<g>
<rect fill="none" height="60" width="60"/>
<radialGradient cx="-2058.7837" cy="-2250.877" gradientTransform="matrix(0.7071 0.7071 -0.7071 0.7071 -98.2555 3084.1135)" gradientUnits="userSpaceOnUse" id="SVGID_1_" r="45.6653">
<stop offset="0" style="stop-color:#6FB2B5"/>
<stop offset="0.297" style="stop-color:#6FB2B5"/>
<stop offset="0.6667" style="stop-color:#4C5F94"/>
<stop offset="0.7939" style="stop-color:#679FAD"/>
<stop offset="1" style="stop-color:#679FAD"/>
</radialGradient>
<path d="M20.37,41.951c0.3-0.437,0.234-0.799-0.258-1.333c-0.617-0.665-2.567-3.083-2.968-3.735  c-0.353-0.575-0.412-1.021-0.034-1.711c0.473-0.864,1.915-3.763,8.107-9.956c6.191-6.192,9.085-7.646,9.956-8.107  c0.76-0.4,1.038-0.345,1.711,0.035c0.666,0.377,3.069,2.352,3.735,2.967c0.534,0.492,0.872,0.588,1.299,0.274  c0.752-0.551,13.828-9.843,15.229-10.775c0.85-0.564,1.141-1.061,0.524-1.778c-2.476-2.889-8.594-5.015-10.751-5.399  c-1.923-0.345-3.876-0.872-6.567,0.235c-2.559,1.054-13.075,8.536-21.112,16.572C11.203,27.277,3.722,37.795,2.668,40.352  c-1.108,2.691-0.581,4.645-0.236,6.567c0.386,2.158,2.51,8.275,5.399,10.752c0.718,0.615,1.213,0.323,1.777-0.525  C10.542,55.745,19.852,42.705,20.37,41.951z" fill="url(#SVGID_1_)"/>
<linearGradient gradientTransform="matrix(0.7071 0.7071 -0.7071 0.7071 -98.2555 3084.1135)" gradientUnits="userSpaceOnUse" id="SVGID_2_" x1="-2070.7568" x2="-2070.3252" y1="-2266.8511" y2="-2263.2749">
<stop offset="0" style="stop-color:#5A7E9E"/>
<stop offset="1" style="stop-color:#1D1A33"/>
</linearGradient>
<path d="M35.172,17.108c0.76-0.4,1.038-0.345,1.711,0.035c0.666,0.377,3.069,2.352,3.735,2.967  c0.534,0.492,0.872,0.588,1.299,0.274c0.048-0.035,0.062-0.046,0.064-0.046c0.253-0.184,1.032-0.738,2.12-1.514  c-0.251-0.204-3.468-2.809-4.8-2.956C36.857,15.598,35.172,17.108,35.172,17.108z" fill="url(#SVGID_2_)"/>
<linearGradient gradientTransform="matrix(0.7071 0.7071 0.7071 -0.7071 -2128.2356 5114.0977)" gradientUnits="userSpaceOnUse" id="SVGID_3_" x1="-2070.7607" x2="-2070.3289" y1="5104.5752" y2="5108.1523">
<stop offset="0" style="stop-color:#5A7E9E"/>
<stop offset="1" style="stop-color:#1D1A33"/>
</linearGradient>
<path d="M17.092,35.188c-0.401,0.763-0.346,1.039,0.035,1.713c0.376,0.666,2.351,3.069,2.967,3.738  c0.493,0.531,0.587,0.869,0.274,1.298c-0.035,0.047-0.046,0.062-0.046,0.062c-0.183,0.253-0.738,1.032-1.515,2.119  c-0.204-0.252-2.807-3.467-2.956-4.799C15.579,36.875,17.092,35.188,17.092,35.188z" fill="url(#SVGID_3_)"/>
<linearGradient gradientUnits="userSpaceOnUse" id="SVGID_4_" x1="47.9224" x2="3.9991" y1="3.9307" y2="47.854">
<stop offset="0" style="stop-color:#C4E6D4"/>
<stop offset="1" style="stop-color:#7DA8B4"/>
</linearGradient>
<path d="M2.979,47.467c-0.344-1.925-0.873-3.878,0.235-6.567  c1.054-2.559,8.535-13.075,16.573-21.112C27.825,11.749,38.341,4.269,40.9,3.215c2.691-1.108,4.644-0.581,6.567-0.236  c1.981,0.354,7.296,2.178,10.069,4.711c-2.552-2.815-8.496-4.879-10.617-5.258c-1.923-0.345-3.876-0.872-6.567,0.235  c-2.559,1.054-13.075,8.536-21.112,16.572C11.203,27.277,3.722,37.795,2.668,40.352c-1.108,2.691-0.581,4.645-0.236,6.567  c0.378,2.122,2.441,8.065,5.258,10.617C5.156,54.763,3.333,49.448,2.979,47.467z" fill="url(#SVGID_4_)" fill-opacity="0.6" stroke-opacity="0.6"/>
<linearGradient gradientUnits="userSpaceOnUse" id="SVGID_5_" x1="54.3535" x2="3.9474" y1="3.2017" y2="53.6078">
<stop offset="0" style="stop-color:#C4E6D4"/>
<stop offset="1" style="stop-color:#7DA8B4"/>
</linearGradient>
<path d="M20.37,41.951c0.3-0.437,0.234-0.799-0.258-1.333  c-0.617-0.665-2.567-3.083-2.968-3.735c-0.353-0.575-0.412-1.021-0.034-1.711c0.473-0.864,1.915-3.763,8.107-9.956  c6.191-6.192,9.085-7.646,9.956-8.107c0.76-0.4,1.038-0.345,1.711,0.035c0.666,0.377,3.069,2.352,3.735,2.967  c0.534,0.492,0.872,0.588,1.299,0.274c0.752-0.551,13.828-9.843,15.229-10.775c0.85-0.564,1.141-1.061,0.524-1.778  c-0.292-0.339-0.634-0.665-1.013-0.982c0.49,0.657,0.198,1.134-0.607,1.666C54.65,9.447,41.576,18.739,40.825,19.29  c-0.431,0.314-0.767,0.219-1.3-0.273c-0.668-0.616-3.07-2.591-3.738-2.968c-0.672-0.38-0.948-0.436-1.71-0.034  c-0.871,0.46-3.764,1.914-9.956,8.106c-6.193,6.192-7.635,9.092-8.107,9.956c-0.378,0.69-0.319,1.135,0.035,1.711  c0.4,0.651,2.351,3.069,2.967,3.736c0.493,0.533,0.559,0.896,0.259,1.332c-0.517,0.755-9.828,13.794-10.76,15.195  c-0.533,0.803-1.008,1.098-1.665,0.606c0.314,0.378,0.644,0.723,0.981,1.013c0.718,0.615,1.213,0.323,1.777-0.525  C10.542,55.745,19.852,42.705,20.37,41.951z" fill="url(#SVGID_5_)" fill-opacity="0.6" stroke-opacity="0.6"/>
<linearGradient gradientTransform="matrix(0.7071 0.7071 -0.7071 0.7071 -141.776 3075.0667)" gradientUnits="userSpaceOnUse" id="SVGID_6_" x1="-2041.9355" x2="-2041.9355" y1="-2305.2153" y2="-2243.2966">
<stop offset="0" style="stop-color:#5A7E9E"/>
<stop offset="0.5091" style="stop-color:#1D1A33"/>
<stop offset="1" style="stop-color:#516C8F"/>
</linearGradient>
<path d="M2.899,45.012c1.275-2.777,10.299-14.804,18.804-23.31c8.505-8.506,20.532-17.529,23.308-18.803  c0.527-0.241,1.02-0.411,1.493-0.545c-0.511-0.096-1.03-0.19-1.565-0.26c-0.086,0.036-0.163,0.063-0.25,0.102  c-2.818,1.293-14.971,10.397-23.533,18.959C12.595,29.717,3.489,41.869,2.195,44.688c-0.038,0.087-0.063,0.166-0.101,0.25  c0.07,0.535,0.166,1.055,0.259,1.565C2.489,46.03,2.658,45.539,2.899,45.012z" fill="url(#SVGID_6_)"/>
<rect fill="none" height="60" width="60"/>
</g>
<g transform="matrix(1 0 0 1 30 30)">
<rect fill="none" height="30" width="30"/>
<path d="M14.999,30C6.729,30,0,23.271,0,15S6.729,0,14.999,0C23.271,0,30,6.729,30,15S23.271,30,14.999,30L14.999,30  z" fill-opacity="0.35" stroke-opacity="0.35"/>
<linearGradient gradientUnits="userSpaceOnUse" id="SVGID_1__" x1="15" x2="15" y1="1.1948" y2="28.8709">
<stop offset="0" style="stop-color:#BFC2C1"/>
<stop offset="1" style="stop-color:#47494B"/>
</linearGradient>
<path d="M14.999,29C7.281,29,1,22.72,1,15S7.281,1,14.999,1C22.72,1,29,7.28,29,15S22.72,29,14.999,29  L14.999,29z" fill="url(#SVGID_1__)"/>
<linearGradient gradientUnits="userSpaceOnUse" id="SVGID_2__" x1="15" x2="15" y1="1.5835" y2="28.5506">
<stop offset="0" style="stop-color:#D3D7D5"/>
<stop offset="0.2364" style="stop-color:#BFC2C1"/>
<stop offset="1" style="stop-color:#6C6F70"/>
</linearGradient>
<circle cx="15" cy="15" fill="url(#SVGID_2__)" r="13.611"/>
<path d="M15.474,15.476c4.559,0,8.961-0.286,13.127-0.81C28.425,7.305,22.406,1.389,14.999,1.389  c-7.36,0-13.357,5.847-13.6,13.151C5.846,15.143,10.568,15.476,15.474,15.476z" fill="#F1F2F2" fill-opacity="0.35" stroke-opacity="0.35"/>
<linearGradient gradientUnits="userSpaceOnUse" id="SVGID_3__" x1="1.5186" x2="28.6768" y1="8.2915" y2="8.2915">
<stop offset="0" style="stop-color:#C2C5C4"/>
<stop offset="0.2" style="stop-color:#F9FDFA"/>
<stop offset="0.8" style="stop-color:#F9FDFA"/>
<stop offset="1" style="stop-color:#CFD3D1"/>
</linearGradient>
<path d="M14.999,1.778c7.453,0,13.503,5.99,13.605,13.416c0.002-0.063,0.007-0.129,0.007-0.194  c0-7.517-6.095-13.611-13.612-13.611C7.482,1.389,1.389,7.483,1.389,15c0,0.065,0.003,0.131,0.005,0.194  C1.498,7.769,7.548,1.778,14.999,1.778z" fill="url(#SVGID_3__)"/>
<linearGradient gradientUnits="userSpaceOnUse" id="SVGID_4__" x1="14.999" x2="14.999" y1="27.249" y2="2.9914">
<stop offset="0" style="stop-color:#BFC2C1"/>
<stop offset="1" style="stop-color:#47494B"/>
</linearGradient>
<path d="M14.999,27.055C8.352,27.055,2.944,21.648,2.944,15S8.352,2.945,14.999,2.945  c6.648,0,12.056,5.406,12.056,12.055S21.647,27.055,14.999,27.055L14.999,27.055z" fill="url(#SVGID_4__)"/>
<linearGradient gradientUnits="userSpaceOnUse" id="SVGID_5__" x1="15.001" x2="15.001" y1="26.3296" y2="3.0368">
<stop offset="0" style="stop-color:#FAF9F9"/>
<stop offset="0.4" style="stop-color:#FAF9F9"/>
<stop offset="1" style="stop-color:#818283"/>
</linearGradient>
<path d="M14.999,26.666C8.566,26.666,3.333,21.432,3.333,15S8.566,3.334,14.999,3.334S26.668,8.568,26.668,15  S21.432,26.666,14.999,26.666L14.999,26.666z" fill="url(#SVGID_5__)"/>
<path d="M14.999,15.832c3.849,0,7.521-0.322,10.89-0.905C25.848,8.956,20.98,4.111,14.999,4.111  c-5.979,0-10.846,4.845-10.886,10.815C7.479,15.51,11.15,15.832,14.999,15.832z" fill="#FFFFFF" fill-opacity="0.7" stroke-opacity="0.7"/>
<rect fill="#404041" height="2.335" width="0.777" x="14.611" y="4.396"/>
<rect fill="#404041" height="2.333" width="0.777" x="14.611" y="23.842"/>
<rect fill="#404041" height="0.779" width="2.333" x="23.556" y="14.896"/>
<rect fill="#404041" height="0.779" width="2.332" x="4.111" y="14.896"/>
<rect fill="#404041" height="1.88" transform="matrix(0.4993 0.8664 -0.8664 0.4993 20.7592 -15.0708)" width="0.628" x="23.106" y="9.486"/>
<rect fill="#404041" height="1.88" transform="matrix(0.4968 0.8679 -0.8679 0.4968 20.7962 4.4286)" width="0.629" x="6.265" y="19.208"/>
<rect fill="#404041" height="1.882" transform="matrix(0.8671 0.4981 -0.4981 0.8671 6.0604 -8.9813)" width="0.627" x="19.548" y="5.926"/>
<rect fill="#404041" height="1.884" transform="matrix(0.8674 0.4977 -0.4977 0.8674 13.1416 -1.9014)" width="0.626" x="9.825" y="22.763"/>
<rect fill="#404041" height="1.882" transform="matrix(0.8675 -0.4975 0.4975 0.8675 -2.0724 5.954)" width="0.628" x="9.825" y="5.926"/>
<rect fill="#404041" height="1.882" transform="matrix(0.8678 -0.497 0.497 0.8678 -9.1555 13.0056)" width="0.627" x="19.548" y="22.766"/>
<rect fill="#404041" height="1.884" transform="matrix(0.497 -0.8678 0.8678 0.497 -5.7368 10.9541)" width="0.627" x="6.267" y="9.483"/>
<rect fill="#404041" height="1.882" transform="matrix(0.4991 -0.8665 0.8665 0.4991 -5.7273 30.3844)" width="0.63" x="23.105" y="19.206"/>
<path d="M15.953,15.552c-0.04-0.188-0.133-0.352-0.261-0.482l1.34-4.418l-1.117-0.34l-1.392,4.587  c-0.24,0.138-0.42,0.372-0.475,0.653h-2.55v0.389h2.55c0.009,0.05,0.024,0.101,0.043,0.148L8.091,22.09l0.505,0.506l5.978-5.979  c0.129,0.063,0.273,0.102,0.427,0.102c0.471,0,0.862-0.333,0.953-0.777h9.158v-0.389H15.953z" fill="#222021" fill-opacity="0.2" stroke-opacity="0.2"/>
<linearGradient gradientTransform="matrix(0.9569 0.2903 -0.2903 0.9569 409.6663 189.0642)" gradientUnits="userSpaceOnUse" id="SVGID_6__" x1="-428.2788" x2="-428.2788" y1="-57.4336" y2="-51.435">
<stop offset="0" style="stop-color:#59595A"/>
<stop offset="1" style="stop-color:#222021"/>
</linearGradient>
<polygon fill="url(#SVGID_6__)" points="17.032,10.101 15.915,9.763 14.22,15.344 15.339,15.684 "/>
<linearGradient gradientUnits="userSpaceOnUse" id="SVGID_7_" x1="8.3799" x2="15.2201" y1="21.7544" y2="14.9142">
<stop offset="0" style="stop-color:#59595A"/>
<stop offset="1" style="stop-color:#222021"/>
</linearGradient>
<polygon fill="url(#SVGID_7_)" points="15.479,15.16 14.974,14.655 8.091,21.539 8.596,22.044 "/>
<linearGradient gradientUnits="userSpaceOnUse" id="SVGID_8_" x1="18.3057" x2="18.3057" y1="14.9443" y2="15.5124">
<stop offset="0" style="stop-color:#B34D4D"/>
<stop offset="1" style="stop-color:#763242"/>
</linearGradient>
<path d="M25.111,15h-9.158c-0.091-0.442-0.482-0.778-0.953-0.778S14.138,14.558,14.049,15h-2.55v0.389h2.55  c0.089,0.443,0.48,0.778,0.951,0.778s0.862-0.335,0.953-0.778h9.158V15z" fill="url(#SVGID_8_)"/>
<circle cx="15" cy="15.194" fill="#DABEB1" r="0.583"/>
<rect fill="none" height="30" width="30"/>
</g>
</svg>
