<?xml version="1.0" encoding="UTF-8"?>
<!DOCTYPE svg PUBLIC "-//W3C//DTD SVG 1.1 Tiny//EN" "http://www.w3.org/Graphics/SVG/1.1/DTD/svg11-tiny.dtd">
<svg baseProfile="tiny" height="30px" version="1.1" viewBox="0 0 30 30" width="30px" x="0px" xmlns="http://www.w3.org/2000/svg" xmlns:xlink="http://www.w3.org/1999/xlink" y="0px">
<g fill-opacity="0.5" stroke-opacity="0.5">
<rect fill="none" height="30" width="30"/>
</g>
<path d="M18,2.024V1c0-0.348-0.18-0.669-0.475-0.852C17.365,0.05,17.183,0,17,0c-0.152,0-0.307,0.035-0.447,0.105l-4,2  C12.214,2.275,12,2.621,12,3s0.214,0.725,0.553,0.895l4,2C16.693,5.965,16.848,6,17,6c0.183,0,0.365-0.051,0.525-0.15  C17.82,5.668,18,5.346,18,5V4.024c4.838,0.254,8.722,4.137,9,8.976c0,0.553,0.447,1,1,1s1-0.447,1-1  C28.719,7.049,23.949,2.281,18,2.024z"/>
<path d="M6.15,12.979l-2.74-2.741v0.001l-0.002-0.003L3.332,10.16C3.077,9.922,2.229,9.288,1.494,10.56  c-0.541,2.157-0.045,4.519,1.492,6.291l3.568-3.567C6.411,13.199,6.273,13.103,6.15,12.979z"/>
<path d="M14.858,14.616c0.874-2.466,0.333-5.324-1.637-7.294C11.42,5.521,8.873,4.916,6.564,5.494  C5.42,6.147,5.794,6.893,6.061,7.232l2.918,2.918c0.781,0.781,0.781,2.048,0,2.829l-4.896,4.897  c1.902,1.424,4.369,1.748,6.534,0.982l8.263,8.262c1.172,1.172,3.07,1.172,4.242,0s1.172-3.07,0-4.242L14.858,14.616z M21,25  c-0.391,0.391-1.023,0.391-1.414,0l-0.707-0.707c-0.391-0.391-0.391-1.023,0-1.414s1.023-0.391,1.414,0L21,23.586  C21.391,23.977,21.391,24.609,21,25z"/>
</svg>
