<?xml version="1.0" encoding="UTF-8"?>
<!DOCTYPE svg PUBLIC "-//W3C//DTD SVG 1.1 Tiny//EN" "http://www.w3.org/Graphics/SVG/1.1/DTD/svg11-tiny.dtd">
<svg baseProfile="tiny" height="30px" version="1.1" viewBox="0 0 30 30" width="30px" x="0px" xmlns="http://www.w3.org/2000/svg" xmlns:xlink="http://www.w3.org/1999/xlink" y="0px">
<g fill-opacity="0.5" stroke-opacity="0.5">
<rect fill="none" height="30" width="30"/>
</g>
<g fill-opacity="0.5" stroke-opacity="0.5">
<rect fill="none" height="30" width="30"/>
</g>
<polygon points="8.012,17.726 7.02,17.726 4.006,18.676 4.006,19.77 6.152,19.277 6.152,26.906 4.006,26.906 4.006,28 10.041,28   10.041,26.906 8.012,26.906 "/>
<path d="M13.654,25.693c0.193-0.34,0.432-0.651,0.715-0.934c0.281-0.282,0.674-0.636,1.176-1.06  c0.896-0.752,1.467-1.368,1.709-1.849c0.24-0.481,0.361-0.97,0.361-1.467c0-0.884-0.268-1.553-0.807-2.006  c-0.537-0.454-1.324-0.681-2.357-0.681c-0.84,0-1.701,0.139-2.584,0.417v1.217h0.014c0.842-0.306,1.56-0.458,2.152-0.458  c0.561,0,0.98,0.134,1.262,0.399c0.279,0.268,0.42,0.665,0.42,1.193c0,0.301-0.086,0.604-0.26,0.909  c-0.172,0.306-0.59,0.736-1.25,1.292c-0.553,0.465-1.008,0.893-1.367,1.281c-0.361,0.391-0.664,0.86-0.91,1.412  s-0.369,1.183-0.369,1.894V28h6.098v-1.189h-4.32C13.355,26.405,13.461,26.032,13.654,25.693z"/>
<path d="M23.371,22.593c0.588-0.173,1.039-0.468,1.354-0.886c0.314-0.416,0.473-0.914,0.473-1.493c0-0.839-0.262-1.468-0.787-1.887  c-0.523-0.419-1.307-0.629-2.352-0.629c-0.691,0-1.467,0.107-2.324,0.321v1.203h0.014c0.844-0.232,1.498-0.349,1.963-0.349  c0.527,0,0.926,0.125,1.191,0.376c0.268,0.251,0.4,0.624,0.4,1.121c0,0.565-0.166,0.984-0.498,1.258  c-0.334,0.273-1.17,0.41-2.51,0.41v1.142c1.354,0,2.217,0.146,2.592,0.438c0.373,0.292,0.561,0.772,0.561,1.442  c0,0.624-0.156,1.093-0.469,1.404c-0.313,0.313-0.777,0.469-1.398,0.469c-0.515,0-1.219-0.111-2.111-0.335h-0.014v1.189  c0.766,0.214,1.512,0.321,2.242,0.321c1.217,0,2.129-0.261,2.736-0.783c0.609-0.521,0.914-1.304,0.914-2.348  c0-0.634-0.17-1.161-0.51-1.582C24.498,22.975,24.01,22.707,23.371,22.593z"/>
<polygon points="4.014,13.543 5.541,13.543 5.383,10.671 7.799,12.239 8.545,10.929 6.014,9.616 8.545,8.313 7.799,7.002   5.383,8.546 5.541,5.69 4.014,5.69 4.162,8.546 1.746,7.002 1,8.313 3.531,9.616 1,10.929 1.746,12.239 4.162,10.671 "/>
<path d="M19.551,13.352c0.73-0.853,1.258-1.992,1.584-3.42l-1.65-0.373c-0.238,1.057-0.545,1.89-0.922,2.498L16.08,8.844  c0.936-0.631,1.584-1.202,1.942-1.714c0.36-0.512,0.54-1.075,0.54-1.688c0-0.753-0.273-1.348-0.818-1.785S16.443,3,15.475,3  c-1.041,0-1.852,0.238-2.432,0.715c-0.582,0.476-0.873,1.159-0.873,2.05c0,0.808,0.443,1.79,1.328,2.946  c-0.891,0.51-1.529,1.051-1.916,1.623C11.193,10.907,11,11.584,11,12.363c0,1.052,0.338,1.867,1.014,2.445  c0.674,0.578,1.646,0.867,2.912,0.867c1.234,0,2.283-0.346,3.146-1.037l0.697,0.904h2.482L19.551,13.352z M14.557,4.652  c0.209-0.21,0.52-0.315,0.934-0.315c0.35,0,0.629,0.103,0.84,0.308c0.209,0.204,0.314,0.465,0.314,0.779  c0,0.848-0.486,1.597-1.461,2.25c-0.359-0.471-0.605-0.851-0.738-1.142c-0.133-0.29-0.199-0.602-0.199-0.934  C14.246,5.178,14.35,4.862,14.557,4.652z M15.301,14.248c-0.549,0-1.025-0.182-1.432-0.544c-0.408-0.362-0.611-0.884-0.611-1.564  c0-0.907,0.383-1.666,1.146-2.274l2.822,3.686C16.668,14.016,16.025,14.248,15.301,14.248z"/>
<polygon points="26.643,11.841 26.883,3.166 24.484,3.166 24.734,11.841 "/>
<path d="M26.617,13.426c-0.254-0.254-0.564-0.381-0.93-0.381s-0.674,0.127-0.93,0.381c-0.254,0.255-0.381,0.564-0.381,0.93  s0.129,0.677,0.387,0.935c0.256,0.257,0.564,0.386,0.924,0.386c0.365,0,0.676-0.129,0.93-0.386C26.873,15.032,27,14.721,27,14.355  S26.873,13.681,26.617,13.426z"/>
</svg>
