<?xml version="1.0" encoding="UTF-8"?>
<!DOCTYPE svg PUBLIC "-//W3C//DTD SVG 1.1 Tiny//EN" "http://www.w3.org/Graphics/SVG/1.1/DTD/svg11-tiny.dtd">
<svg baseProfile="tiny" height="30" viewBox="0 0 30 30" width="30" xmlns="http://www.w3.org/2000/svg" xmlns:xlink="http://www.w3.org/1999/xlink">
<g>
<rect fill="none" height="30" width="30"/>
<rect height="27" width="21.6" x="4.201" y="1.5"/>
<rect fill="#B34D4D" height="24.3" width="18.9" x="5.551" y="2.85"/>
<path d="M6.901,4.199v21.6h16.2v-21.6s-14.14-0.001-16.2-0.001z" fill="#FFFFFF"/>
<rect fill="#F6F6F5" height="18.9" width="13.5" x="8.25" y="5.55"/>
<path d="M16.97,17.67c-0.629-1.442-1.301-3.105-1.503-3.802,0,0,1.54-6.305-0.319-6.305-2.705,0-0.414,6.441-0.414,6.441s-0.91,3.215-1.242,3.909c-1.168,0-5.157,2.126-3.504,3.781,0.854,0.855,2.521-0.056,4.005-3.224,0.261-0.259,2.221-0.506,2.502-0.225,0.988,1.67,2.624,4.454,3.679,3.404,1.37-1.4-1.84-3.99-3.21-3.99zm-6.49,3.55c-0.454-0.454-0.309-1.569,2.651-2.479-1.04,2.07-2.19,2.93-2.65,2.48zm4.54-12.93c1.065,0,0.202,3.646,0.022,4.391,0,0-1.21-4.388-0.02-4.388zm4.72,12.87c-0.487,0.487-1.961-2.063-2.296-2.614,1.52,0.47,2.79,2.13,2.3,2.61z" fill="#B34D4D"/>
</g>
</svg>
