<?xml version="1.0" encoding="UTF-8"?>
<!DOCTYPE svg PUBLIC "-//W3C//DTD SVG 1.1 Tiny//EN" "http://www.w3.org/Graphics/SVG/1.1/DTD/svg11-tiny.dtd">
<svg baseProfile="tiny" height="60" viewBox="0 0 60 60" width="60" xmlns="http://www.w3.org/2000/svg" xmlns:xlink="http://www.w3.org/1999/xlink">
<g>
<rect fill="none" height="59.999" width="60"/>
<linearGradient gradientTransform="matrix(1 0 0 -1 -276 -305)" gradientUnits="userSpaceOnUse" id="SVGID_1_" x1="283.0508" x2="328.9473" y1="-335" y2="-335">
<stop offset="0" style="stop-color:#B7BCBA"/>
<stop offset="0.2667" style="stop-color:#E7EBE8"/>
<stop offset="0.703" style="stop-color:#919595"/>
<stop offset="1" style="stop-color:#B9BDBC"/>
</linearGradient>
<path d="M51.18,3H8.822C7.846,3,7.051,3.788,7.051,4.754V57h45.896V4.754C52.947,3.788,52.152,3,51.18,3z" fill="url(#SVGID_1_)"/>
<path d="M51.18,3c0.973,0,1.769,0.788,1.769,1.754V57H7.051V4.754C7.051,3.788,7.846,3,8.822,3H51.18   M51.18,4.389H8.822c-0.207,0-0.382,0.168-0.382,0.365v50.854h43.119V4.754C51.559,4.557,51.385,4.389,51.18,4.389L51.18,4.389z" fill="#FFFFFF" fill-opacity="0.5" stroke-opacity="0.5"/>
<linearGradient gradientTransform="matrix(1 0 0 -1 -276 -305)" gradientUnits="userSpaceOnUse" id="SVGID_2_" x1="280.2695" x2="331.4557" y1="-358.3159" y2="-358.3159">
<stop offset="0" style="stop-color:#6D98AD"/>
<stop offset="0.2545" style="stop-color:#B4DCCA"/>
<stop offset="0.7091" style="stop-color:#3D568F"/>
<stop offset="1" style="stop-color:#416D98"/>
</linearGradient>
<rect fill="url(#SVGID_2_)" height="7.368" width="51.46" x="4.27" y="49.632"/>
<rect fill="#FFFFFF" fill-opacity="0.4" height="1.384" stroke-opacity="0.4" width="51.46" x="4.27" y="49.632"/>
<rect fill-opacity="0.15" height="1.384" stroke-opacity="0.15" width="45.896" x="7.051" y="48.248"/>
<path d="M38.482,21.464l-9.881-10.119v13.33l-5.431-5.558l-1.983,2.022  l6.826,7.002l-6.826,6.998l1.979,2.021l5.436-5.556v13.33l9.882-10.113l-6.526-6.679L38.482,21.464z M34.537,21.484l-3.156,3.227  l-0.004-6.457L34.537,21.484z M34.537,34.801l-3.16,3.223l0.004-6.453L34.537,34.801z" fill="#FFFFFF" fill-opacity="0.75" stroke-opacity="0.75"/>
<linearGradient gradientTransform="matrix(1 0 0 -1 -276 -305)" gradientUnits="userSpaceOnUse" id="SVGID_3_" x1="305.8359" x2="305.8359" y1="-348.332" y2="-316.7938">
<stop offset="0" style="stop-color:#5A82A7"/>
<stop offset="1" style="stop-color:#546F9F"/>
</linearGradient>
<path d="M38.482,19.863l-9.88-10.119v13.331l-5.431-5.559l-1.983,2.024l6.826,7l-6.826,6.998l1.979,2.021  l5.436-5.555v13.328l9.881-10.111l-6.525-6.681L38.482,19.863z M34.537,19.885l-3.156,3.226l-0.004-6.456L34.537,19.885z   M34.537,33.201l-3.16,3.222l0.004-6.454L34.537,33.201z" fill="url(#SVGID_3_)"/>
<rect fill="none" height="59.999" width="60"/>
</g>
</svg>
