<?xml version="1.0" encoding="UTF-8"?>
<!DOCTYPE svg PUBLIC "-//W3C//DTD SVG 1.1 Tiny//EN" "http://www.w3.org/Graphics/SVG/1.1/DTD/svg11-tiny.dtd">
<svg baseProfile="tiny" height="30" viewBox="0 0 30 30" width="30" xmlns="http://www.w3.org/2000/svg" xmlns:xlink="http://www.w3.org/1999/xlink">
<g>
<rect fill="none" height="30" width="30"/>
<path d="M15.781,24v-3.441l0.494-0.289C17.316,19.659,18,19.209,18,18.548  C18,17.137,16.357,16,15,16c-1.359,0-3,1.137-3,2.548c0,0.666,0.684,1.114,1.728,1.722l0.497,0.289V24H11c-1.654,0-3-1.346-3-3  H7.937c-0.597,0.973-1.407,2-2.832,2C2.686,23,1,20.629,1,18.5S2.686,14,5.104,14c1.438,0,2.249,1.052,2.83,2H8v-4  c0-1.654,1.346-3,3-3h1V8.937c-0.971-0.597-2-1.406-2-2.832C10,3.686,12.371,2,14.5,2S19,3.686,19,6.104c0,1.438-1.051,2.249-2,2.83  V9h7c1.654,0,3,1.346,3,3v9c0,1.654-1.346,3-3,3H15.781z" fill-opacity="0.6" stroke-opacity="0.6"/>
<linearGradient gradientTransform="matrix(1 0 0 1 -578.9609 -812.0391)" gradientUnits="userSpaceOnUse" id="SVGID_1_" x1="592.9609" x2="592.9609" y1="814.9307" y2="835.5632">
<stop offset="0" style="stop-color:#FFFFFF"/>
<stop offset="1" style="stop-color:#A5A5A5"/>
</linearGradient>
<path d="M24,10h-8V8.365c0.943-0.553,2-1.146,2-2.261C18,4.392,16.217,3,14.5,3C12.782,3,11,4.392,11,6.104  c0,1.115,1.053,1.711,2,2.263V10h-2c-1.1,0-2,0.9-2,2v5H7.365c-0.553-0.943-1.146-2-2.261-2C3.392,15,2,16.783,2,18.5  C2,20.218,3.392,22,5.104,22c1.115,0,1.711-1.053,2.263-2H9v1c0,1.1,0.9,2,2,2h2.225v-1.866C12.141,20.503,11,19.822,11,18.548  C11,16.591,13.037,15,15,15c1.961,0,4,1.591,4,3.548c0,1.272-1.141,1.952-2.219,2.584V23H24c1.1,0,2-0.9,2-2v-9  C26,10.9,25.1,10,24,10z" fill="url(#SVGID_1_)"/>
<path d="M16.781,21.132v1C17.859,21.5,19,20.82,19,19.548  c0-0.175-0.034-0.342-0.064-0.51C18.684,20.005,17.711,20.587,16.781,21.132z" fill="#FFFFFF" fill-opacity="0.4" stroke-opacity="0.4"/>
<path d="M11,11h2v-1h-2c-1.1,0-2,0.9-2,2v1C9,11.9,9.9,11,11,11z" fill="#FFFFFF" fill-opacity="0.4" stroke-opacity="0.4"/>
<path d="M14.5,4c1.529,0,3.104,1.106,3.43,2.559  C17.973,6.416,18,6.268,18,6.104C18,4.392,16.217,3,14.5,3C12.782,3,11,4.392,11,6.104c0,0.163,0.028,0.313,0.07,0.455  C11.396,5.107,12.969,4,14.5,4z" fill="#FFFFFF" fill-opacity="0.4" stroke-opacity="0.4"/>
<path d="M24,10h-8v1h8c1.1,0,2,0.9,2,2v-1C26,10.9,25.1,10,24,10z" fill="#FFFFFF" fill-opacity="0.4" stroke-opacity="0.4"/>
<path d="M5.104,16c1.114,0,1.708,1.057,2.261,2H9v-1H7.365  c-0.553-0.943-1.146-2-2.261-2C3.392,15,2,16.783,2,18.5c0,0.167,0.023,0.334,0.049,0.5C2.284,17.454,3.559,16,5.104,16z" fill="#FFFFFF" fill-opacity="0.4" stroke-opacity="0.4"/>
<path d="M11.065,19.038C11.034,19.206,11,19.373,11,19.548  c0,1.274,1.141,1.955,2.225,2.586v-1C12.289,20.59,11.316,20.006,11.065,19.038z" fill="#FFFFFF" fill-opacity="0.4" stroke-opacity="0.4"/>
<rect fill-opacity="0.6" height="12" stroke-opacity="0.6" width="12" x="17" y="16"/>
<linearGradient gradientTransform="matrix(1 0 0 1 -578.9609 -812.0391)" gradientUnits="userSpaceOnUse" id="SVGID_2_" x1="601.9609" x2="601.9609" y1="829.0391" y2="839.0391">
<stop offset="0" style="stop-color:#6DADC1"/>
<stop offset="1" style="stop-color:#3B518A"/>
</linearGradient>
<rect fill="url(#SVGID_2_)" height="10" width="10" x="18" y="17"/>
<rect fill="#FFFFFF" fill-opacity="0.4" height="1" stroke-opacity="0.4" width="10" x="18" y="17"/>
<rect fill-opacity="0.2" height="1" stroke-opacity="0.2" width="10" x="18" y="26"/>
<rect fill="none" height="30" width="30"/>
</g>
</svg>
