<?xml version="1.0" encoding="UTF-8"?>
<!DOCTYPE svg PUBLIC "-//W3C//DTD SVG 1.1 Tiny//EN" "http://www.w3.org/Graphics/SVG/1.1/DTD/svg11-tiny.dtd">
<svg baseProfile="tiny" height="30px" version="1.1" viewBox="0 0 30 30" width="30px" x="0px" xmlns="http://www.w3.org/2000/svg" xmlns:xlink="http://www.w3.org/1999/xlink" y="0px">
<polygon fill="none" points="19.034,3.709 16.132,6.157 16.132,3.124 19.034,3.124 "/>
<polygon fill="none" points="13.947,3.124 13.947,6.192 10.971,3.729 10.971,3.124 "/>
<path d="M21.214,0.939v3.785l-5.082,4.294v5.931h-2.185V9.025L8.786,4.758V0.939H21.214z M13.947,6.192V3.124h-2.977v0.604  L13.947,6.192z M16.132,6.157l2.897-2.448V3.124h-2.897V6.157z"/>
<polygon points="24.721,22.299 24.721,24.732 20.316,24.732 20.318,24.732 14.341,24.732 16.373,22.299 "/>
<polygon points="5.279,22.299 10.579,22.299 8.525,24.732 5.279,24.732 "/>
<polygon points="24.721,17.28 24.721,19.715 18.53,19.715 20.564,17.28 "/>
<polygon points="5.279,19.715 5.279,17.28 14.801,17.28 12.753,19.715 "/>
<polygon points="21.421,14.559 21.497,14.619 21.448,14.68 10.378,27.869 9.38,29.059 7.514,27.494 8.936,25.801 19.631,13.056 "/>
<rect fill="none" height="30" width="30"/>
</svg>
