<?xml version="1.0" encoding="UTF-8"?>
<!DOCTYPE svg PUBLIC "-//W3C//DTD SVG 1.1 Tiny//EN" "http://www.w3.org/Graphics/SVG/1.1/DTD/svg11-tiny.dtd">
<svg baseProfile="tiny" height="220px" version="1.1" viewBox="0 0 220 220" width="220px" x="0px" xmlns="http://www.w3.org/2000/svg" xmlns:xlink="http://www.w3.org/1999/xlink" y="0px">
<path d="M184.246,35.754l-39.598,39.598C153.516,84.219,159,96.469,159,110  s-5.484,25.781-14.352,34.648l39.598,39.598C203.248,165.244,215,138.994,215,110C215,81.005,203.248,54.755,184.246,35.754z" fill="#141414" fill-opacity="0.4" stroke-opacity="0.4"/>
<path d="M146.056,144.642c9-9.357,13.944-21.62,13.944-34.642s-4.944-25.284-13.944-34.642  l36.739-36.738C201.637,57.823,212,83.132,212,110s-10.363,52.177-29.205,71.38L146.056,144.642z" fill="#BEBEBE" fill-opacity="0.8" stroke-opacity="0.8"/>
<rect fill="none" height="220" width="220"/>
<polygon fill="#787878" points="176,99 194,110 176,121 "/>
</svg>
