<?xml version="1.0" encoding="UTF-8"?>
<!DOCTYPE svg PUBLIC "-//W3C//DTD SVG 1.1 Tiny//EN" "http://www.w3.org/Graphics/SVG/1.1/DTD/svg11-tiny.dtd">
<svg baseProfile="tiny" height="30px" version="1.1" viewBox="0 0 30 30" width="30px" x="0px" xmlns="http://www.w3.org/2000/svg" xmlns:xlink="http://www.w3.org/1999/xlink" y="0px">
<g fill-opacity="0.5" stroke-opacity="0.5">
<rect fill="none" height="30" width="30"/>
</g>
<path d="M7,0v10.282L2.563,5.986L1,7.549l5.543,5.336L1,18.287l1.563,1.561L7,15.554V26  l8-8l-5.539-5.115L15,8L7,0z M11.477,18.025l-2.473,2.473v-4.944L11.477,18.025z M9.004,10.282V5.336l2.473,2.472L9.004,10.282z" fill-rule="evenodd"/>
<path d="M22.004,14.064V9.336l2.473,2.472l-2.23,2.232c1.045-0.087,2.1,0.01,3.117,0.286  L28,12l-8-8v10.282l-4.438-4.296L14,11.549l4.072,3.92C19.274,14.682,20.625,14.217,22.004,14.064z" fill-rule="evenodd"/>
<path d="M14.04,22.248L14,22.287l0.037,0.035C14.039,22.297,14.038,22.271,14.04,22.248z" fill-rule="evenodd"/>
<path d="M27.949,18.051c-2.733-2.734-7.165-2.734-9.898,0c-2.734,2.734-2.734,7.166,0,9.898c2.733,2.734,7.165,2.734,9.898,0  C30.684,25.217,30.684,20.785,27.949,18.051z M27.242,25.828l-1.414,1.414L23,24.414l-2.828,2.828l-1.414-1.414L21.586,23  l-2.828-2.828l1.414-1.414L23,21.586l2.828-2.828l1.414,1.414L24.414,23L27.242,25.828z"/>
</svg>
