<?xml version="1.0" encoding="UTF-8"?>
<!DOCTYPE svg PUBLIC "-//W3C//DTD SVG 1.1 Tiny//EN" "http://www.w3.org/Graphics/SVG/1.1/DTD/svg11-tiny.dtd">
<svg baseProfile="tiny" height="220px" version="1.1" viewBox="0 0 220 220" width="220px" x="0px" xmlns="http://www.w3.org/2000/svg" xmlns:xlink="http://www.w3.org/1999/xlink" y="0px">
<path d="M61,110c0-13.531,5.484-25.781,14.352-34.648L35.754,35.754C16.752,54.755,5,81.005,5,110  c0,28.994,11.752,55.244,30.754,74.246l39.598-39.598C66.484,135.781,61,123.531,61,110z" fill="#141414" fill-opacity="0.5" stroke-opacity="0.5"/>
<path d="M7,110c0,28.396,11.551,54.146,30.202,72.798l38.149-38.149C66.484,135.781,61,123.531,61,110  s5.484-25.781,14.352-34.648L37.202,37.202C18.551,55.854,7,81.604,7,110z" fill="#B4B4B9"/>
<path d="M37.206,181.38C18.363,162.177,8,136.868,8,110s10.363-52.177,29.206-71.38l36.739,36.738  C64.944,84.716,60,96.979,60,110s4.944,25.284,13.944,34.642L37.206,181.38z" fill="url(#SVGID_1_)"/>
<path d="M73.944,75.358L37.206,38.62C18.363,57.823,8,83.132,8,110s10.363,52.177,29.206,71.38  l36.739-36.738C64.944,135.284,60,123.021,60,110S64.944,84.716,73.944,75.358z M72.55,144.621l-35.334,35.334  C19.012,161.039,9,136.237,9,110s10.012-51.039,28.216-69.955L72.55,75.379C63.804,84.823,59,97.078,59,110  S63.804,135.177,72.55,144.621z" fill="#FFFFFF" fill-opacity="0.4" stroke-opacity="0.4"/>
<polygon fill="#3C3C3C" points="44,121 26,110 44,99 "/>
<rect fill="none" height="220" width="220"/>
<defs>
<linearGradient gradientUnits="userSpaceOnUse" id="SVGID_1_" x1="40.9722" x2="40.9722" y1="8" y2="212.0615">
<stop offset="0" style="stop-color:#FAFAFF"/>
<stop offset="1" style="stop-color:#DCDCE1"/>
</linearGradient>
</defs>
</svg>
