<?xml version="1.0" encoding="UTF-8"?>
<!DOCTYPE svg PUBLIC "-//W3C//DTD SVG 1.1 Tiny//EN" "http://www.w3.org/Graphics/SVG/1.1/DTD/svg11-tiny.dtd">
<svg baseProfile="tiny" height="30px" version="1.1" viewBox="0 0 30 30" width="30px" x="0px" xmlns="http://www.w3.org/2000/svg" xmlns:xlink="http://www.w3.org/1999/xlink" y="0px">
<g fill-opacity="0.5" stroke-opacity="0.5">
<rect fill="none" height="30" width="30"/>
</g>
<path d="M11,26c0,1.104,0.896,2,2,2h4c1.104,0,2-0.896,2-2v-2h-8V26z"/>
<path d="M15,8c2.281,0,5,0.885,5,5.1c0,0.839-0.152,1.626-0.397,2.354l2.293,2.292C22.574,16.363,23,14.789,23,13.1  C23,7.577,19.419,5,15,5c-1.73,0-3.328,0.401-4.637,1.214l2.221,2.22C13.354,8.113,14.203,8,15,8z"/>
<path d="M18.853,23l-3.137-3.137C15.459,19.953,15.217,20,15,20c-1.543,0-4.356-2.369-4.9-5.753l-2.953-2.954  C7.053,11.857,7,12.456,7,13.1c0,3.092,1.393,5.822,3.243,7.629L11,23H18.853z"/>
<path d="M27.694,26.373L3.628,2.307c-0.389-0.389-1.004-0.41-1.367-0.048S1.919,3.236,2.308,3.625l24.068,24.07  c0.389,0.389,1.004,0.408,1.366,0.045S28.083,26.762,27.694,26.373z"/>
</svg>
