<?xml version="1.0" encoding="UTF-8"?>
<!DOCTYPE svg PUBLIC "-//W3C//DTD SVG 1.1 Tiny//EN" "http://www.w3.org/Graphics/SVG/1.1/DTD/svg11-tiny.dtd">
<svg baseProfile="tiny" height="10px" version="1.1" viewBox="0 0 10 10" width="10px" x="0px" xmlns="http://www.w3.org/2000/svg" xmlns:xlink="http://www.w3.org/1999/xlink" y="0px">
<rect fill="none" height="10" width="10"/>
<path d="M0,0v4c0,3.299,2.7,6,6,6h4V0H0z" fill="#14141E" fill-opacity="0.2" stroke-opacity="0.2"/>
<path d="M1,0v4c0,2.756,2.243,5,5,5h4V0H1z" fill="#14141E" fill-opacity="0.2" stroke-opacity="0.2"/>
<path d="M1,0v3c0,2.756,2.243,5,5,5h4V0H1z" fill="url(#SVGID_1_)"/>
<path d="M6,6C4.346,6,3,4.654,3,3V0H2v3c0,2.205,1.794,4,4,4h4V6H6z" fill="#FFFFFF" fill-opacity="0.2" stroke-opacity="0.2"/>
<path d="M6,7C3.794,7,2,5.205,2,3V0H1v3c0,2.756,2.243,5,5,5h4V7H6z" fill-opacity="0.2" stroke-opacity="0.2"/>
<defs>
<linearGradient gradientUnits="userSpaceOnUse" id="SVGID_1_" x1="5.5" x2="5.5" y1="-38.9995" y2="8.0244">
<stop offset="0" style="stop-color:#D45B5B"/>
<stop offset="1" style="stop-color:#A82222"/>
</linearGradient>
</defs>
</svg>
