<?xml version="1.0" encoding="UTF-8"?>
<!DOCTYPE svg PUBLIC "-//W3C//DTD SVG 1.1 Tiny//EN" "http://www.w3.org/Graphics/SVG/1.1/DTD/svg11-tiny.dtd">
<svg baseProfile="tiny" height="30px" version="1.1" viewBox="0 0 30 30" width="30px" x="0px" xmlns="http://www.w3.org/2000/svg" xmlns:xlink="http://www.w3.org/1999/xlink" y="0px">
<polygon fill="none" points="10.967,3.739 13.868,6.188 13.868,3.154 10.967,3.154 "/>
<polygon fill="none" points="16.054,3.154 16.054,6.223 19.029,3.76 19.029,3.154 "/>
<path d="M8.786,0.969v3.786l5.082,4.294v5.93h2.186V9.055l5.16-4.266v-3.82H8.786z M16.054,6.223V3.154h2.976V3.76L16.054,6.223z   M13.868,6.188l-2.901-2.448V3.154h2.898v3.033H13.868z"/>
<polygon points="20.52,13.085 18.452,14.375 20.322,17.379 5.278,17.379 5.278,19.813 24.721,19.811 "/>
<polygon points="9.48,29.029 11.545,27.741 9.676,24.737 12.727,24.737 15.409,29.029 17.475,27.741 15.605,24.737 24.721,24.737   24.721,22.301 5.278,22.304 "/>
<rect fill="none" height="30" width="30"/>
</svg>
