<?xml version="1.0" encoding="UTF-8"?>
<!DOCTYPE svg PUBLIC "-//W3C//DTD SVG 1.1 Tiny//EN" "http://www.w3.org/Graphics/SVG/1.1/DTD/svg11-tiny.dtd">
<svg baseProfile="tiny" height="60" viewBox="0 0 60 60" width="60" xmlns="http://www.w3.org/2000/svg" xmlns:xlink="http://www.w3.org/1999/xlink">
<g>
<rect fill="none" height="60" width="60"/>
<linearGradient gradientTransform="matrix(1 0 0 -1 2194 3656.9473)" gradientUnits="userSpaceOnUse" id="SVGID_1_" x1="-2164" x2="-2164" y1="3649.3477" y2="3604.5469">
<stop offset="0" style="stop-color:#757575"/>
<stop offset="0.2424" style="stop-color:#000000"/>
<stop offset="0.8606" style="stop-color:#000000"/>
<stop offset="1" style="stop-color:#363636"/>
</linearGradient>
<path d="M56.506,7.6H3.493C2.666,7.6,2,8.27,2,9.094v41.813C2,51.732,2.666,52.4,3.493,52.4h53.013  C57.33,52.4,58,51.732,58,50.906V9.094C58,8.27,57.33,7.6,56.506,7.6z M8.719,49.413c0,0.412-0.336,0.748-0.745,0.748H4.986  c-0.412,0-0.748-0.336-0.748-0.748V47.92c0-0.41,0.336-0.746,0.748-0.746h2.987c0.409,0,0.745,0.336,0.745,0.746V49.413z   M8.719,12.08c0,0.41-0.336,0.746-0.745,0.746H4.986c-0.412,0-0.748-0.336-0.748-0.746v-1.493c0-0.409,0.336-0.748,0.748-0.748  h2.987c0.409,0,0.745,0.339,0.745,0.748V12.08z M15.438,49.413c0,0.412-0.335,0.748-0.745,0.748h-2.987  c-0.412,0-0.747-0.336-0.747-0.748V47.92c0-0.41,0.335-0.746,0.747-0.746h2.987c0.41,0,0.745,0.336,0.745,0.746V49.413z   M15.438,12.08c0,0.41-0.335,0.746-0.745,0.746h-2.987c-0.412,0-0.747-0.336-0.747-0.746v-1.493c0-0.409,0.335-0.748,0.747-0.748  h2.987c0.41,0,0.745,0.339,0.745,0.748V12.08z M22.159,49.413c0,0.412-0.337,0.748-0.747,0.748h-2.986  c-0.41,0-0.746-0.336-0.746-0.748V47.92c0-0.41,0.335-0.746,0.746-0.746h2.986c0.41,0,0.747,0.336,0.747,0.746V49.413z   M22.159,12.08c0,0.41-0.337,0.746-0.747,0.746h-2.986c-0.41,0-0.746-0.336-0.746-0.746v-1.493c0-0.409,0.335-0.748,0.746-0.748  h2.986c0.41,0,0.747,0.339,0.747,0.748V12.08z M28.88,49.413c0,0.412-0.337,0.748-0.747,0.748h-2.986  c-0.411,0-0.746-0.336-0.746-0.748V47.92c0-0.41,0.335-0.746,0.746-0.746h2.986c0.41,0,0.747,0.336,0.747,0.746V49.413z   M28.88,12.08c0,0.41-0.337,0.746-0.747,0.746h-2.986c-0.411,0-0.746-0.336-0.746-0.746v-1.493c0-0.409,0.335-0.748,0.746-0.748  h2.986c0.41,0,0.747,0.339,0.747,0.748V12.08z M35.6,49.413c0,0.412-0.338,0.748-0.747,0.748h-2.985  c-0.412,0-0.748-0.336-0.748-0.748V47.92c0-0.41,0.336-0.746,0.748-0.746h2.985c0.409,0,0.747,0.336,0.747,0.746V49.413z   M35.6,12.08c0,0.41-0.338,0.746-0.747,0.746h-2.985c-0.412,0-0.748-0.336-0.748-0.746v-1.493c0-0.409,0.336-0.748,0.748-0.748  h2.985c0.409,0,0.747,0.339,0.747,0.748V12.08z M42.318,49.413c0,0.412-0.335,0.748-0.745,0.748h-2.987  c-0.412,0-0.746-0.336-0.746-0.748V47.92c0-0.41,0.334-0.746,0.746-0.746h2.987c0.41,0,0.745,0.336,0.745,0.746V49.413z   M42.318,12.08c0,0.41-0.335,0.746-0.745,0.746h-2.987c-0.412,0-0.746-0.336-0.746-0.746v-1.493c0-0.409,0.334-0.748,0.746-0.748  h2.987c0.41,0,0.745,0.339,0.745,0.748V12.08z M49.039,49.413c0,0.412-0.336,0.748-0.746,0.748h-2.987  c-0.41,0-0.745-0.336-0.745-0.748V47.92c0-0.41,0.335-0.746,0.745-0.746h2.987c0.41,0,0.746,0.336,0.746,0.746V49.413z   M49.039,12.08c0,0.41-0.336,0.746-0.746,0.746h-2.987c-0.41,0-0.745-0.336-0.745-0.746v-1.493c0-0.409,0.335-0.748,0.745-0.748  h2.987c0.41,0,0.746,0.339,0.746,0.748V12.08z M55.761,49.413c0,0.412-0.339,0.748-0.748,0.748h-2.987  c-0.41,0-0.745-0.336-0.745-0.748V47.92c0-0.41,0.335-0.746,0.745-0.746h2.987c0.409,0,0.748,0.336,0.748,0.746V49.413z   M55.761,12.08c0,0.41-0.339,0.746-0.748,0.746h-2.987c-0.41,0-0.745-0.336-0.745-0.746v-1.493c0-0.409,0.335-0.748,0.745-0.748  h2.987c0.409,0,0.748,0.339,0.748,0.748V12.08z" fill="url(#SVGID_1_)"/>
<path d="M56.506,7.6H3.493C2.666,7.6,2,8.27,2,9.094v0.745  c0-0.824,0.666-1.493,1.493-1.493h53.013C57.33,8.346,58,9.015,58,9.839V9.094C58,8.27,57.33,7.6,56.506,7.6z" fill="#FFFFFF" fill-opacity="0.55" stroke-opacity="0.55"/>
<path d="M3.493,52.4h53.013C57.33,52.4,58,51.732,58,50.906v-0.745  c0,0.824-0.67,1.493-1.494,1.493H3.493C2.666,51.654,2,50.985,2,50.161v0.745C2,51.732,2.666,52.4,3.493,52.4z" fill="#FFFFFF" fill-opacity="0.1" stroke-opacity="0.1"/>
<linearGradient gradientTransform="matrix(1 0 0 -1 2194 3656.9473)" gradientUnits="userSpaceOnUse" id="SVGID_2_" x1="-2164" x2="-2164" y1="3641.7637" y2="3611.8926">
<stop offset="0" style="stop-color:#000000"/>
<stop offset="0.5" style="stop-color:#666666"/>
<stop offset="1" style="stop-color:#000000"/>
</linearGradient>
<rect fill="url(#SVGID_2_)" height="29.871" width="56" x="2" y="15.064"/>
<linearGradient gradientTransform="matrix(1 0 0 -1 2194 3656.9473)" gradientUnits="userSpaceOnUse" id="SVGID_3_" x1="-2164.0005" x2="-2164.0005" y1="3612.0117" y2="3641.8828">
<stop offset="0" style="stop-color:#72B9C3"/>
<stop offset="1" style="stop-color:#546F9F"/>
</linearGradient>
<path d="M55.761,43.441c0,0.821-0.673,1.494-1.493,1.494H5.732c-0.82,0-1.494-0.673-1.494-1.494V16.559  c0-0.819,0.674-1.494,1.494-1.494h48.535c0.82,0,1.493,0.675,1.493,1.494V43.441z" fill="url(#SVGID_3_)"/>
<path d="M54.268,43.441H5.732c-0.82,0-1.494,0.074-1.494-0.748l0,0  c0,0.822,0.674,1.493,1.494,1.493h48.535c0.82,0,1.493-0.671,1.493-1.493l0,0C55.761,43.516,55.088,43.441,54.268,43.441z" fill="#FFFFFF" fill-opacity="0.5" stroke-opacity="0.5"/>
<linearGradient gradientTransform="matrix(1 0 0 -1 2194 3656.9473)" gradientUnits="userSpaceOnUse" id="SVGID_4_" x1="-2164.0005" x2="-2164.0005" y1="3641.8828" y2="3611.8926">
<stop offset="0" style="stop-color:#000000"/>
<stop offset="1" style="stop-color:#404040"/>
</linearGradient>
<path d="M54.268,15.813c0.41,0,0.745,0.336,0.745,0.745v26.883c0,0.412-0.335,0.745-0.745,0.745H5.732  c-0.411,0-0.746-0.333-0.746-0.745V16.559c0-0.409,0.335-0.745,0.746-0.745H54.268 M54.268,15.064H5.732  c-0.82,0-1.494,0.675-1.494,1.494v26.883c0,0.821,0.674,1.494,1.494,1.494h48.535c0.82,0,1.493-0.673,1.493-1.494V16.559  C55.761,15.739,55.088,15.064,54.268,15.064L54.268,15.064z" fill="url(#SVGID_4_)"/>
<path d="M54.268,24.025v-5.974c0-0.824-0.67-1.493-1.494-1.493H7.226  c-0.824,0-1.493,0.669-1.493,1.493v9.709L54.268,24.025z" fill="#FFFFFF" fill-opacity="0.2" stroke-opacity="0.2"/>
<rect fill="none" height="60" width="60"/>
</g>
<g transform="matrix(1 0 0 1 30 30)">
<polygon fill="none" points="24.728,0 23.608,0.487 0,0.487 0,30.487 30,30.487 30,0.487 24.928,0.487 "/>
<path d="M7.991,30.324c-3.295,0-5.976-1.69-6.668-4.205c-0.366-1.331-0.159-2.734,0.6-4.06  c1.063-1.86,3.062-3.301,5.478-3.952c0.873-0.235,1.762-0.355,2.639-0.355c0.927,0,1.816,0.133,2.635,0.389V5.247L24.728,0  l1.526,3.717l0.018-0.007l0.389,0.963l0.609,1.563l-10.565,4.318c0.008,2.6,0.003,5.635-0.001,8.204  c-0.003,2.014-0.006,3.74-0.002,4.745c0.016,2.839-2.473,5.497-6.049,6.463C9.771,30.203,8.875,30.324,7.991,30.324L7.991,30.324z" fill-opacity="0.35" stroke-opacity="0.35"/>
<linearGradient gradientTransform="matrix(1 0 0 -1 2194 2908.0361)" gradientUnits="userSpaceOnUse" id="SVGID_1__" x1="-2179.9351" x2="-2179.9351" y1="2902.811" y2="2880.1646">
<stop offset="0" style="stop-color:#93BD66"/>
<stop offset="1" style="stop-color:#22403B"/>
</linearGradient>
<path d="M25.98,5.682l-1.79-4.357L13.902,5.902l0.016,13.899c-1.574-1.029-3.896-1.366-6.257-0.729  c-3.722,1.003-6.127,4.041-5.374,6.78c0.756,2.742,4.383,4.15,8.104,3.146c3.146-0.849,5.324-3.094,5.311-5.493  c-0.01-2.399,0.02-8.913,0-13.625L25.98,5.682z" fill="url(#SVGID_1__)"/>
<linearGradient gradientTransform="matrix(0.5 0 0 0.5 614.8193 -1693.241)" gradientUnits="userSpaceOnUse" id="SVGID_2__" x1="-1201.8184" x2="-1201.8184" y1="3393.1226" y2="3404.4397">
<stop offset="0" style="stop-color:#72B9C3"/>
<stop offset="1" style="stop-color:#546F9F"/>
</linearGradient>
<polygon fill="url(#SVGID_2__)" points="13.918,17.409 13.907,5.902 13.902,5.902 13.916,17.408 "/>
<linearGradient gradientTransform="matrix(0.5 0 0 0.5 614.8193 -1693.241)" gradientUnits="userSpaceOnUse" id="SVGID_3__" x1="-1187.957" x2="-1187.957" y1="3393.1177" y2="3404.4392">
<stop offset="0" style="stop-color:#A6C87E"/>
<stop offset="1" style="stop-color:#1C3533"/>
</linearGradient>
<path d="M15.701,9.169c0.005,0.759,0.006-0.117,0.008,0.711L25.98,5.682l-0.252-0.646L15.701,9.169z" fill="url(#SVGID_3__)"/>
<linearGradient gradientTransform="matrix(0.5 -0.0026 0.0026 0.5 604.1579 -1699.019)" gradientUnits="userSpaceOnUse" id="SVGID_4__" x1="-1188.0039" x2="-1188.0039" y1="3402.1909" y2="3430.4734">
<stop offset="0" style="stop-color:#BCD39A"/>
<stop offset="1" style="stop-color:#1C3533"/>
</linearGradient>
<polygon fill="url(#SVGID_4__)" points="14.072,20.2 14.072,6.3 24.389,1.807 24.19,1.324 13.674,5.902 13.674,19.803 "/>
<linearGradient gradientTransform="matrix(1 0 0 -1 2194 2908.0361)" gradientUnits="userSpaceOnUse" id="SVGID_5_" x1="-2185.0737" x2="-2185.0737" y1="2887.9233" y2="2879.6807">
<stop offset="0" style="stop-color:#B7CC97"/>
<stop offset="0.4667" style="stop-color:#347940"/>
<stop offset="1" style="stop-color:#173636"/>
</linearGradient>
<path d="M7.96,28.527c-2.474,0.012-4.447-1.129-4.909-2.839c-0.28-1.039,0.018-2.187,0.84-3.229  c0.9-1.141,2.291-2.007,3.923-2.436c0.688-0.184,1.385-0.277,2.075-0.281c2.474-0.013,4.445,1.129,4.91,2.84  c0.615,2.267-1.522,4.807-4.764,5.664C9.347,28.43,8.647,28.522,7.96,28.527L7.96,28.527z" fill="url(#SVGID_5_)"/>
<rect fill="none" height="30" width="30" y="0.487"/>
</g>
<g transform="matrix(1 0 0 1 30 30)">
<rect fill="none" height="30" width="30"/>
<rect fill-opacity="0.35" height="33.866" stroke-opacity="0.35" transform="matrix(-0.6985 0.7156 -0.7156 -0.6985 35.9922 14.2223)" width="3.706" x="13.147" y="-2.239"/>
<linearGradient gradientTransform="matrix(1 0 0 -1 -257 670.6689)" gradientUnits="userSpaceOnUse" id="SVGID_1___" x1="260" x2="284" y1="655.9761" y2="655.9761">
<stop offset="0" style="stop-color:#B36B4D"/>
<stop offset="0.8424" style="stop-color:#954B50"/>
<stop offset="1" style="stop-color:#B36B4D"/>
</linearGradient>
<polygon fill="url(#SVGID_1___)" points="25.809,26.431 3,4.177 4.191,2.956 27,25.21 "/>
<rect fill="none" height="30" width="30"/>
</g>
</svg>
