<?xml version="1.0" encoding="UTF-8"?>
<!DOCTYPE svg PUBLIC "-//W3C//DTD SVG 1.1 Tiny//EN" "http://www.w3.org/Graphics/SVG/1.1/DTD/svg11-tiny.dtd">
<svg baseProfile="tiny" height="60" viewBox="0 0 60 60" width="60" xmlns="http://www.w3.org/2000/svg" xmlns:xlink="http://www.w3.org/1999/xlink">
<g>
<linearGradient gradientTransform="matrix(1 0 0 -1 -208.8501 -238.8496)" gradientUnits="userSpaceOnUse" id="SVGID_1_" x1="254.3201" x2="254.3201" y1="-249.2754" y2="-287.1613">
<stop offset="0" style="stop-color:#949494"/>
<stop offset="1" style="stop-color:#393939"/>
</linearGradient>
<polygon fill="url(#SVGID_1_)" points="43.971,45.572 46.969,48.167 46.969,47.167 43.971,44.572 "/>
<g>
<rect fill="#E6E6E6" height="60" width="60" x="0"/>
<linearGradient gradientTransform="matrix(1 0 0 -1 -208.8501 -238.8496)" gradientUnits="userSpaceOnUse" id="SVGID_2_" x1="236.2722" x2="236.2721" y1="-247.7856" y2="-289.4495">
<stop offset="0" style="stop-color:#7A7A7A"/>
<stop offset="0.7515" style="stop-color:#0A0A0A"/>
<stop offset="1" style="stop-color:#5F5F5F"/>
</linearGradient>
<path d="M48.18,11.608V9.241H6.663v41.518H48.18v-2.365l-3.211-2.78V14.39L48.18,11.608z M28.906,38.994   c0.012,2.455-2.216,4.751-5.433,5.619c-3.804,1.025-7.515-0.415-8.287-3.219c-0.771-2.802,1.688-5.908,5.496-6.936   c2.413-0.65,4.788-0.309,6.399,0.745L27.068,20.99l10.519-4.684l1.831,4.456l-10.51,4.297   C28.925,29.88,28.895,36.539,28.906,38.994z" fill="url(#SVGID_2_)"/>
<linearGradient gradientTransform="matrix(1 0 0 -1 -208.8501 -238.8496)" gradientUnits="userSpaceOnUse" id="SVGID_3_" x1="237.7576" x2="237.7576" y1="-247.876" y2="-288.4691">
<stop offset="0" style="stop-color:#949494"/>
<stop offset="1" style="stop-color:#393939"/>
</linearGradient>
<path d="M28.904,38.032c0-2.223,0.009-5.377,0.009-8.39C28.91,32.846,28.902,36.063,28.904,38.032z" fill="url(#SVGID_3_)"/>
<linearGradient gradientTransform="matrix(1 0 0 -1 -208.8501 -238.8496)" gradientUnits="userSpaceOnUse" id="SVGID_4_" x1="243.0115" x2="243.0115" y1="-247.8755" y2="-288.468">
<stop offset="0" style="stop-color:#949494"/>
<stop offset="1" style="stop-color:#393939"/>
</linearGradient>
<path d="M28.908,26.131l10.508-4.297l-0.377-0.917l-10.133,4.144C28.906,25.408,28.908,25.767,28.908,26.131   z" fill="url(#SVGID_4_)"/>
<linearGradient gradientTransform="matrix(1 0 0 -1 -208.8501 -238.8496)" gradientUnits="userSpaceOnUse" id="SVGID_5_" x1="236.2722" x2="236.2721" y1="-247.876" y2="-288.4626">
<stop offset="0" style="stop-color:#949494"/>
<stop offset="1" style="stop-color:#393939"/>
</linearGradient>
<rect fill="url(#SVGID_5_)" height="1.071" width="41.518" x="6.663" y="9.241"/>
<linearGradient gradientTransform="matrix(1 0 0 -1 -208.8501 -238.8496)" gradientUnits="userSpaceOnUse" id="SVGID_6_" x1="235.9246" x2="235.9246" y1="-247.876" y2="-288.4659">
<stop offset="0" style="stop-color:#949494"/>
<stop offset="1" style="stop-color:#393939"/>
</linearGradient>
<rect fill="url(#SVGID_6_)" height="13.142" width="0" x="27.074" y="22.063"/>
<linearGradient gradientTransform="matrix(1 0 0 -1 -208.8501 -238.8496)" gradientUnits="userSpaceOnUse" id="SVGID_7_" x1="230.8259" x2="230.8259" y1="-247.8784" y2="-288.4679">
<stop offset="0" style="stop-color:#949494"/>
<stop offset="1" style="stop-color:#393939"/>
</linearGradient>
<path d="M15.186,42.466c0.773,2.804,4.484,4.244,8.287,3.219c3.216-0.869,5.445-3.164,5.433-5.619   c-0.002-0.292-0.002-0.647-0.002-1.051c0,2.446-2.222,4.733-5.43,5.601c-3.805,1.025-7.515-0.416-8.287-3.219   c-0.048-0.172-0.081-0.346-0.104-0.519C15.01,41.407,15.043,41.94,15.186,42.466z" fill="url(#SVGID_7_)"/>
<linearGradient gradientTransform="matrix(1 0 0 -1 -208.8501 -238.8496)" gradientUnits="userSpaceOnUse" id="SVGID_8_" x1="259.8601" x2="259.8601" y1="-253.0869" y2="-284.7125">
<stop offset="0" style="stop-color:#7A7A7A"/>
<stop offset="0.7515" style="stop-color:#0A0A0A"/>
<stop offset="1" style="stop-color:#5F5F5F"/>
</linearGradient>
<path d="M46.542,13.956v32.088c5.388-3.355,8.972-9.326,8.938-16.139   C55.446,23.16,51.874,17.277,46.542,13.956z" fill="url(#SVGID_8_)"/>
</g>
</g>
</svg>
