<?xml version="1.0" encoding="UTF-8"?>
<!DOCTYPE svg PUBLIC "-//W3C//DTD SVG 1.1 Tiny//EN" "http://www.w3.org/Graphics/SVG/1.1/DTD/svg11-tiny.dtd">
<svg baseProfile="tiny" height="20px" version="1.1" viewBox="0 0 20 20" width="20px" x="0px" xmlns="http://www.w3.org/2000/svg" xmlns:xlink="http://www.w3.org/1999/xlink" y="0px">
<rect fill="none" height="20" width="20"/>
<rect fill="none" fill-rule="evenodd" height="20" width="20"/>
<path d="M2,20V8c0-4.411,3.589-8,8-8s8,3.589,8,8v12H2z" fill-opacity="0.1" fill-rule="evenodd" stroke-opacity="0.1"/>
<path d="M10,1c3.867,0,7,3.133,7,7v12H3V8C3,4.133,6.133,1,10,1z" fill="url(#SVGID_1_)" fill-rule="evenodd"/>
<path d="M10,2C6.691,2,4,4.691,4,8v12h1V8  c0-2.757,2.243-5,5-5s5,2.243,5,5v12h1V8C16,4.691,13.309,2,10,2z" fill="#FFFFFF" fill-opacity="0.4" fill-rule="evenodd" stroke-opacity="0.4"/>
<path d="M10,1C6.133,1,3,4.133,3,8v12h1V8c0-3.309,2.691-5.998,6-5.998  c3.31,0,5.998,2.689,5.998,5.998v12H17V8C17,4.133,13.867,1,10,1z" fill-opacity="0.2" fill-rule="evenodd" stroke-opacity="0.2"/>
<rect fill="#FFFFFF" fill-opacity="0.9" fill-rule="evenodd" height="1" stroke-opacity="0.9" width="8" x="6" y="12"/>
<rect fill-opacity="0.1" fill-rule="evenodd" height="1" stroke-opacity="0.1" width="8" x="6" y="11"/>
<defs>
<linearGradient gradientUnits="userSpaceOnUse" id="SVGID_1_" x1="10.0005" x2="10.0005" y1="19.8726" y2="1.6791">
<stop offset="0" style="stop-color:#FAFAFA"/>
<stop offset="1" style="stop-color:#E6E6F0"/>
</linearGradient>
</defs>
</svg>
