<?xml version="1.0" encoding="UTF-8"?>
<!DOCTYPE svg PUBLIC "-//W3C//DTD SVG 1.1 Tiny//EN" "http://www.w3.org/Graphics/SVG/1.1/DTD/svg11-tiny.dtd">
<svg baseProfile="tiny" height="30px" version="1.1" viewBox="0 0 30 30" width="30px" x="0px" xmlns="http://www.w3.org/2000/svg" xmlns:xlink="http://www.w3.org/1999/xlink" y="0px">
<path d="M20.326,15.157h-0.673v2.658h0.685c0.461,0,0.792-0.101,0.984-0.3c0.193-0.199,0.292-0.553,0.292-1.047  c0-0.459-0.102-0.797-0.304-1.003C21.111,15.261,20.779,15.157,20.326,15.157z"/>
<path d="M27,4H3C1.896,4,1,4.896,1,6v18c0,1.104,0.896,2,2,2h24c1.104,0,2-0.896,2-2V6C29,4.896,28.104,4,27,4z M14.93,19.2h-2.07  l-1.362-6.004L9.982,19.2H7.854l-1.968-9.137H8l1.133,6.116l1.497-6.116h2.022l1.377,6.116l1.253-6.116h1.828L14.93,19.2z   M22.881,18.538c-0.523,0.438-1.306,0.662-2.326,0.662h-2.913v-9.137h3.118c0.881,0,1.557,0.194,2.01,0.577  c0.463,0.393,0.698,0.977,0.698,1.738c0,0.904-0.368,1.569-1.097,1.982c0.872,0.366,1.313,1.096,1.313,2.178  C23.685,17.418,23.414,18.09,22.881,18.538z"/>
<path d="M21.158,13.487c0.187-0.19,0.28-0.513,0.28-0.956c0-0.371-0.085-0.647-0.252-0.822c-0.165-0.174-0.425-0.261-0.772-0.261  h-0.761v2.324h0.591C20.666,13.772,20.974,13.677,21.158,13.487z"/>
<g fill-opacity="0.5" stroke-opacity="0.5">
<rect fill="none" height="30" width="30"/>
</g>
</svg>
