<?xml version="1.0" encoding="UTF-8"?>
<!DOCTYPE svg PUBLIC "-//W3C//DTD SVG 1.1 Tiny//EN" "http://www.w3.org/Graphics/SVG/1.1/DTD/svg11-tiny.dtd">
<svg baseProfile="tiny" height="30px" version="1.1" viewBox="0 0 30 30" width="30px" x="0px" xmlns="http://www.w3.org/2000/svg" xmlns:xlink="http://www.w3.org/1999/xlink" y="0px">
<g fill-opacity="0.5" stroke-opacity="0.5">
<rect fill="none" height="30" width="30"/>
</g>
<path d="M19.697,14.924l-5.002-6.003C14.246,8.38,14,7.699,14,7c0-0.434,0.097-0.871,0.279-1.266C14.775,4.678,15.842,4,17,4H8v16  h12v-4.785C19.896,15.121,19.788,15.033,19.697,14.924z"/>
<path d="M22,16c-0.348,0-0.681-0.076-1-0.189V21H7V3h10V1H7C5.896,1,5,1.896,5,3v24c0,1.104,0.896,2,2,2h14c1.104,0,2-0.896,2-2  V15.811C22.682,15.924,22.348,16,22,16z M10,26H7v-2h3V26z M14,27c-1.104,0-2-0.896-2-2s0.896-2,2-2s2,0.896,2,2S15.104,27,14,27z   M21,26h-3v-2h3V26z"/>
<path d="M16,7c0,0.229,0.079,0.457,0.231,0.641l5,6C21.422,13.868,21.703,14,22,14s0.578-0.132,0.768-0.359l5-6  C27.921,7.457,28,7.229,28,7c0-0.144-0.031-0.289-0.095-0.424C27.741,6.225,27.388,6,27,6h-2V1c0-0.553-0.448-1-1-1h-4  c-0.553,0-1,0.447-1,1v5h-2c-0.389,0-0.741,0.225-0.906,0.576C16.031,6.711,16,6.856,16,7L16,7z"/>
</svg>
