<?xml version="1.0" encoding="UTF-8"?>
<!DOCTYPE svg PUBLIC "-//W3C//DTD SVG 1.1 Tiny//EN" "http://www.w3.org/Graphics/SVG/1.1/DTD/svg11-tiny.dtd">
<svg baseProfile="tiny" height="30px" version="1.1" viewBox="0 0 30 30" width="30px" x="0px" xmlns="http://www.w3.org/2000/svg" xmlns:xlink="http://www.w3.org/1999/xlink" y="0px">
<g fill-opacity="0.5" stroke-opacity="0.5">
<rect fill="none" height="30" width="30"/>
</g>
<rect height="2" width="2" x="10" y="22"/>
<rect height="2" width="2" x="7" y="22"/>
<rect height="5" width="7" x="9" y="15"/>
<rect height="2" width="2" x="13" y="22"/>
<rect height="2" width="2" x="16" y="11"/>
<rect height="2" width="2" x="16" y="22"/>
<path d="M27,1H13.689c0.777,0.866,1.389,1.881,1.785,3H26v17v3h1c1.104,0,2-0.896,2-2V3C29,1.896,28.104,1,27,1z"/>
<path d="M13.689,13H15v-1.896C14.645,11.793,14.203,12.428,13.689,13z"/>
<path d="M22,6h-6.059C15.978,6.329,16,6.662,16,7c0,0.688-0.085,1.355-0.232,2H20c0.553,0,1,0.448,1,1s-0.447,1-1,1h-1v2h1  c0.553,0,1,0.448,1,1s-0.447,1-1,1h-2v5h2c0.553,0,1,0.447,1,1s-0.447,1-1,1h-1v2h1c0.553,0,1,0.447,1,1s-0.447,1-1,1H5  c-0.553,0-1-0.447-1-1s0.447-1,1-1h1v-2H5c-0.553,0-1-0.447-1-1s0.447-1,1-1h2v-4c-2.307,0-4.406-0.879-6-2.311V27  c0,1.104,0.896,2,2,2h19c1.104,0,2-0.896,2-2V8C24,6.896,23.104,6,22,6z"/>
<path d="M7,0C5.899,0,4.862,0.26,3.937,0.713c3.864,1.889,4.169,4.746,4.103,5.953H9h2L7,12L3,6.666h2h1.043  c0.074-0.533,0.172-3.057-4.017-4.59C0.774,3.34,0,5.079,0,7c0,3.865,3.134,7,7,7s7-3.135,7-7C14,3.133,10.866,0,7,0z"/>
</svg>
