<?xml version="1.0" encoding="UTF-8"?>
<!DOCTYPE svg PUBLIC "-//W3C//DTD SVG 1.1 Tiny//EN" "http://www.w3.org/Graphics/SVG/1.1/DTD/svg11-tiny.dtd">
<svg baseProfile="tiny" height="30px" version="1.1" viewBox="0 0 30 30" width="30px" x="0px" xmlns="http://www.w3.org/2000/svg" xmlns:xlink="http://www.w3.org/1999/xlink" y="0px">
<g>
<rect fill="none" height="30" width="30"/>
</g>
<polygon points="8.268,16.727 0,9.819 0,23.547 "/>
<path d="M0.127,7.319l11.307,9.449c0.461,0.354,0.908,0.555,1.402,0.566c0.021,0,0.093,0,0.113,0  c0.494-0.012,0.943-0.213,1.402-0.566l11.508-9.495C25.567,6.529,24.848,6,24,6H2C1.136,6,0.406,6.551,0.127,7.319z"/>
<path d="M17,19h2.074l-2.129-1.779l-1.321,1.09c-0.882,0.681-1.724,1.002-2.627,1.023h-0.023h-0.138  c-0.948-0.021-1.791-0.342-2.621-0.98l-1.167-0.975l-8.907,7.348C0.433,25.472,1.152,26,2,26h12v-4C14,20.346,15.346,19,17,19z"/>
<path d="M21.73,16.282C22.12,16.099,22.562,16,23,16c0.701,0,1.384,0.248,1.923,0.697L26,17.596V9.75l-8.271,6.824l2.316,1.935  C20.207,17.547,20.83,16.702,21.73,16.282z"/>
<path d="M23,30c0.229,0,0.457-0.079,0.641-0.231l6-5C29.868,24.578,30,24.297,30,24s-0.132-0.578-0.359-0.768l-6-5  C23.457,18.079,23.229,18,23,18c-0.144,0-0.289,0.031-0.424,0.095C22.225,18.259,22,18.612,22,19v2h-5c-0.553,0-1,0.448-1,1v4  c0,0.553,0.447,1,1,1h5v2c0,0.389,0.225,0.741,0.576,0.906C22.711,29.969,22.856,30,23,30L23,30z"/>
</svg>
