<?xml version="1.0" encoding="UTF-8"?>
<!DOCTYPE svg PUBLIC "-//W3C//DTD SVG 1.1 Tiny//EN" "http://www.w3.org/Graphics/SVG/1.1/DTD/svg11-tiny.dtd">
<svg baseProfile="tiny" height="30px" version="1.1" viewBox="-2 -2 30 30" width="30px" x="0px" xmlns="http://www.w3.org/2000/svg" xmlns:xlink="http://www.w3.org/1999/xlink" y="0px">
<path d="M14,1v11h11V1H14z M22,9h-5V4h5V9z"/>
<path d="M14,25h11V14H14V25z M17,17h5v5h-5V17z"/>
<path d="M1,25h11V14H1V25z M4,17h5v5H4V17z"/>
<path d="M12,10c0,1.104-0.896,2-2,2H2c-1.104,0-2-0.896-2-2V2c0-1.104,0.896-2,2-2h8c1.104,0,2,0.896,2,2V10z"/>
</svg>
