<?xml version="1.0" encoding="UTF-8"?>
<!DOCTYPE svg PUBLIC "-//W3C//DTD SVG 1.1 Tiny//EN" "http://www.w3.org/Graphics/SVG/1.1/DTD/svg11-tiny.dtd">
<svg baseProfile="tiny" height="30" viewBox="0 0 30 30" width="30" xmlns="http://www.w3.org/2000/svg" xmlns:xlink="http://www.w3.org/1999/xlink">
<g>
<g>
<rect fill="none" height="30" width="30"/>
</g>
<circle cx="15" cy="15" fill-opacity="0.6" r="14" stroke-opacity="0.6"/>
<radialGradient cx="15" cy="3.7026" gradientUnits="userSpaceOnUse" id="SVGID_1_" r="23.0618">
<stop offset="0" style="stop-color:#DDD7B2"/>
<stop offset="0.7818" style="stop-color:#B3964D"/>
<stop offset="1" style="stop-color:#B39C4D"/>
</radialGradient>
<path d="M15,28C7.832,28,2,22.168,2,15C2,7.832,7.832,2,15,2c7.168,0,13,5.832,13,13  C28,22.168,22.168,28,15,28L15,28z" fill="url(#SVGID_1_)"/>
<path d="M15,3c7,0,12.709,5.564,12.975,12.5C27.98,15.333,28,15.169,28,15c0-7.168-5.832-13-13-13  C7.832,2,2,7.832,2,15c0,0.169,0.019,0.333,0.025,0.5C2.291,8.564,8,3,15,3z" fill="#FFFFFF" fill-opacity="0.3" stroke-opacity="0.3"/>
<linearGradient gradientUnits="userSpaceOnUse" id="SVGID_2_" x1="8.5" x2="8.5" y1="9.917" y2="17.1255">
<stop offset="0" style="stop-color:#997642"/>
<stop offset="1" style="stop-color:#E5E1C3"/>
</linearGradient>
<path d="M8.5,17C7.075,17,6,15.495,6,13.5S7.075,10,8.5,10s2.5,1.505,2.5,3.5S9.925,17,8.5,17L8.5,17z" fill="url(#SVGID_2_)"/>
<ellipse cx="8.5" cy="13.5" fill="#22243E" rx="1.5" ry="2.5"/>
<linearGradient gradientUnits="userSpaceOnUse" id="SVGID_3_" x1="8.5835" x2="8.5835" y1="12.9707" y2="16.1465">
<stop offset="0" style="stop-color:#22243E"/>
<stop offset="1" style="stop-color:#82969E"/>
</linearGradient>
<path d="M7.167,14.623C7.414,15.437,7.915,16,8.5,16c0.829,0,1.5-1.119,1.5-2.5  c0-0.155-0.011-0.305-0.027-0.452C9.819,13.018,9.662,13,9.5,13C8.429,13,7.522,13.677,7.167,14.623z" fill="url(#SVGID_3_)"/>
<linearGradient gradientUnits="userSpaceOnUse" id="SVGID_4_" x1="21.5" x2="21.5" y1="9.9517" y2="17.1103">
<stop offset="0" style="stop-color:#997642"/>
<stop offset="1" style="stop-color:#E5E1C3"/>
</linearGradient>
<path d="M21.5,17c-1.426,0-2.5-1.505-2.5-3.5s1.074-3.5,2.5-3.5s2.5,1.505,2.5,3.5S22.926,17,21.5,17L21.5,17  z" fill="url(#SVGID_4_)"/>
<ellipse cx="21.5" cy="13.5" fill="#22243E" rx="1.5" ry="2.5"/>
<linearGradient gradientUnits="userSpaceOnUse" id="SVGID_5_" x1="21.583" x2="21.583" y1="13.0908" y2="16.2688">
<stop offset="0" style="stop-color:#22243E"/>
<stop offset="1" style="stop-color:#82969E"/>
</linearGradient>
<path d="M20.166,14.623C20.414,15.437,20.915,16,21.5,16c0.828,0,1.5-1.119,1.5-2.5  c0-0.155-0.012-0.305-0.027-0.452C22.819,13.018,22.662,13,22.5,13C21.43,13,20.522,13.677,20.166,14.623z" fill="url(#SVGID_5_)"/>
<path d="M19,21c-2.243,0-3.165,1.107-4,2.5c-0.365,0.608-1.232,1.5-3,1.5s-3-0.791-3-1.5  C9,23.224,8.776,23,8.5,23S8,23.224,8,23.5c0,1.402,1.757,2.5,4,2.5s3-1.061,4-2.5c0.404-0.582,1.232-1.5,3-1.5s3,0.791,3,1.5  c0,0.276,0.224,0.5,0.5,0.5s0.5-0.224,0.5-0.5C23,22.098,21.243,21,19,21z" fill="#FFFFFF" fill-opacity="0.4" stroke-opacity="0.4"/>
<path d="M19,19c-2.243,0-3.165,1.107-4,2.5c-0.365,0.608-1.232,1.5-3,1.5s-3-0.791-3-1.5C9,21.224,8.776,21,8.5,21  S8,21.224,8,21.5c0,1.402,1.757,2.5,4,2.5s3-1.061,4-2.5c0.404-0.582,1.232-1.5,3-1.5s3,0.791,3,1.5c0,0.276,0.224,0.5,0.5,0.5  s0.5-0.224,0.5-0.5C23,20.098,21.243,19,19,19z" fill-opacity="0.4" stroke-opacity="0.4"/>
<linearGradient gradientUnits="userSpaceOnUse" id="SVGID_6_" x1="15.4995" x2="15.4995" y1="20" y2="24.8928">
<stop offset="0" style="stop-color:#31151D"/>
<stop offset="1" style="stop-color:#76464D"/>
</linearGradient>
<path d="M19,20c-2.243,0-3.165,1.107-4,2.5c-0.365,0.608-1.232,1.5-3,1.5s-3-0.791-3-1.5  C9,22.224,8.776,22,8.5,22S8,22.224,8,22.5c0,1.402,1.757,2.5,4,2.5s3-1.061,4-2.5c0.404-0.582,1.232-1.5,3-1.5s3,0.791,3,1.5  c0,0.276,0.224,0.5,0.5,0.5s0.5-0.224,0.5-0.5C23,21.098,21.243,20,19,20z" fill="url(#SVGID_6_)"/>
</g>
</svg>
