<?xml version="1.0" encoding="UTF-8"?>
<!DOCTYPE svg PUBLIC "-//W3C//DTD SVG 1.1 Tiny//EN" "http://www.w3.org/Graphics/SVG/1.1/DTD/svg11-tiny.dtd">
<svg baseProfile="tiny" height="30px" version="1.1" viewBox="0 0 30 30" width="30px" x="0px" xmlns="http://www.w3.org/2000/svg" xmlns:xlink="http://www.w3.org/1999/xlink" y="0px">
<path d="M15,25c0.617,0,1.215-0.287,1.6-0.8l6-8c0.533-0.712,0.533-1.688,0-2.4l-6-8C16.215,5.287,15.617,5,15,5  c-0.211,0-0.425,0.033-0.633,0.103C13.551,5.375,13,6.139,13,7v16c0,0.861,0.551,1.625,1.367,1.897C14.575,24.967,14.789,25,15,25  L15,25z"/>
<path d="M23,23c0,1.104,0.896,2,2,2l0,0c1.104,0,2-0.896,2-2V7c0-1.104-0.896-2-2-2l0,0c-1.104,0-2,0.896-2,2V23z"/>
<path d="M5,25c0.617,0,1.215-0.287,1.6-0.8l6-8c0.533-0.712,0.533-1.688,0-2.4l-6-8C6.215,5.287,5.617,5,5,5  C4.789,5,4.575,5.033,4.367,5.103C3.551,5.375,3,6.139,3,7v16c0,0.861,0.551,1.625,1.367,1.897C4.575,24.967,4.789,25,5,25L5,25z"/>
<g>
<rect fill="none" height="30" width="30"/>
</g>
</svg>
