<?xml version="1.0" encoding="UTF-8"?>
<!DOCTYPE svg PUBLIC "-//W3C//DTD SVG 1.1 Tiny//EN" "http://www.w3.org/Graphics/SVG/1.1/DTD/svg11-tiny.dtd">
<svg baseProfile="tiny" height="126px" version="1.1" viewBox="0 0 15 126" width="15px" x="0px" xmlns="http://www.w3.org/2000/svg" xmlns:xlink="http://www.w3.org/1999/xlink" y="0px">
<linearGradient gradientTransform="matrix(0 -1 -1 0 -1234.5195 -3644.9805)" gradientUnits="userSpaceOnUse" id="SVGID_1_" x1="-3707.98" x2="-3707.98" y1="-1234.5195" y2="-1249.0195">
<stop offset="0" style="stop-color:#F5F5FA"/>
<stop offset="1" style="stop-color:#D2D2D7"/>
</linearGradient>
<path d="M0,126h9c3.3,0,6-2.7,6-6V6c0-3.3-2.7-6-6-6H0V126z" fill="url(#SVGID_1_)"/>
<path d="M0,1h9c2.757,0,5,2.243,5,5v114c0,2.757-2.243,5-5,5H0v1h9  c3.3,0,6-2.7,6-6V6c0-3.3-2.7-6-6-6H0V1z" fill="#14141E" fill-opacity="0.4" stroke-opacity="0.4"/>
<linearGradient gradientTransform="matrix(0 -1 -1 0 -1234.5195 -3644.9805)" gradientUnits="userSpaceOnUse" id="SVGID_2_" x1="-3735.981" x2="-3735.981" y1="-1240.5195" y2="-1236.6528">
<stop offset="0" style="stop-color:#FFFFFF"/>
<stop offset="1" style="stop-color:#D2D2D7"/>
</linearGradient>
<circle cx="4" cy="91" fill="url(#SVGID_2_)" r="2"/>
<path d="M3,91c0-0.932,0.639-1.706,1.5-1.93C4.34,89.028,4.174,89,4,89  c-1.104,0-2,0.896-2,2c0,1.104,0.896,2,2,2c0.174,0,0.34-0.029,0.5-0.07C3.639,92.706,3,91.931,3,91z" fill="#141419" fill-opacity="0.1" stroke-opacity="0.1"/>
<linearGradient gradientTransform="matrix(0 -1 -1 0 -1234.5195 -3644.9805)" gradientUnits="userSpaceOnUse" id="SVGID_3_" x1="-3735.981" x2="-3735.981" y1="-1246.5195" y2="-1242.6528">
<stop offset="0" style="stop-color:#FFFFFF"/>
<stop offset="1" style="stop-color:#D2D2D7"/>
</linearGradient>
<circle cx="10" cy="91" fill="url(#SVGID_3_)" r="2"/>
<path d="M9,91c0-0.932,0.639-1.706,1.5-1.93  C10.34,89.028,10.174,89,10,89c-1.104,0-2,0.896-2,2c0,1.104,0.896,2,2,2c0.174,0,0.34-0.029,0.5-0.07C9.639,92.706,9,91.931,9,91z" fill="#141419" fill-opacity="0.1" stroke-opacity="0.1"/>
<linearGradient gradientTransform="matrix(0 -1 -1 0 -1234.5195 -3644.9805)" gradientUnits="userSpaceOnUse" id="SVGID_4_" x1="-3728.981" x2="-3728.981" y1="-1240.5195" y2="-1236.6528">
<stop offset="0" style="stop-color:#FFFFFF"/>
<stop offset="1" style="stop-color:#D2D2D7"/>
</linearGradient>
<circle cx="4" cy="84" fill="url(#SVGID_4_)" r="2"/>
<path d="M3,84c0-0.932,0.639-1.706,1.5-1.93C4.34,82.028,4.174,82,4,82  c-1.104,0-2,0.896-2,2c0,1.104,0.896,2,2,2c0.174,0,0.34-0.029,0.5-0.07C3.639,85.706,3,84.931,3,84z" fill="#141419" fill-opacity="0.1" stroke-opacity="0.1"/>
<linearGradient gradientTransform="matrix(0 -1 -1 0 -1234.5195 -3644.9805)" gradientUnits="userSpaceOnUse" id="SVGID_5_" x1="-3728.981" x2="-3728.981" y1="-1246.5195" y2="-1242.6528">
<stop offset="0" style="stop-color:#FFFFFF"/>
<stop offset="1" style="stop-color:#D2D2D7"/>
</linearGradient>
<circle cx="10" cy="84" fill="url(#SVGID_5_)" r="2"/>
<path d="M9,84c0-0.932,0.639-1.706,1.5-1.93  C10.34,82.028,10.174,82,10,82c-1.104,0-2,0.896-2,2c0,1.104,0.896,2,2,2c0.174,0,0.34-0.029,0.5-0.07C9.639,85.706,9,84.931,9,84z" fill="#141419" fill-opacity="0.1" stroke-opacity="0.1"/>
<linearGradient gradientTransform="matrix(0 -1 -1 0 -1234.5195 -3644.9805)" gradientUnits="userSpaceOnUse" id="SVGID_6_" x1="-3721.981" x2="-3721.981" y1="-1240.5195" y2="-1236.6528">
<stop offset="0" style="stop-color:#FFFFFF"/>
<stop offset="1" style="stop-color:#D2D2D7"/>
</linearGradient>
<circle cx="4" cy="77" fill="url(#SVGID_6_)" r="2"/>
<path d="M3,77c0-0.932,0.639-1.706,1.5-1.93C4.34,75.028,4.174,75,4,75  c-1.104,0-2,0.896-2,2c0,1.104,0.896,2,2,2c0.174,0,0.34-0.029,0.5-0.07C3.639,78.706,3,77.931,3,77z" fill="#141419" fill-opacity="0.1" stroke-opacity="0.1"/>
<linearGradient gradientTransform="matrix(0 -1 -1 0 -1234.5195 -3644.9805)" gradientUnits="userSpaceOnUse" id="SVGID_7_" x1="-3721.981" x2="-3721.981" y1="-1246.5195" y2="-1242.6528">
<stop offset="0" style="stop-color:#FFFFFF"/>
<stop offset="1" style="stop-color:#D2D2D7"/>
</linearGradient>
<circle cx="10" cy="77" fill="url(#SVGID_7_)" r="2"/>
<path d="M9,77c0-0.932,0.639-1.706,1.5-1.93  C10.34,75.028,10.174,75,10,75c-1.104,0-2,0.896-2,2c0,1.104,0.896,2,2,2c0.174,0,0.34-0.029,0.5-0.07C9.639,78.706,9,77.931,9,77z" fill="#141419" fill-opacity="0.1" stroke-opacity="0.1"/>
<linearGradient gradientTransform="matrix(0 -1 -1 0 -1234.5195 -3644.9805)" gradientUnits="userSpaceOnUse" id="SVGID_8_" x1="-3714.981" x2="-3714.981" y1="-1240.5195" y2="-1236.6528">
<stop offset="0" style="stop-color:#FFFFFF"/>
<stop offset="1" style="stop-color:#D2D2D7"/>
</linearGradient>
<circle cx="4" cy="70" fill="url(#SVGID_8_)" r="2"/>
<path d="M3,70c0-0.932,0.639-1.706,1.5-1.93C4.34,68.028,4.174,68,4,68  c-1.104,0-2,0.896-2,2c0,1.104,0.896,2,2,2c0.174,0,0.34-0.029,0.5-0.07C3.639,71.706,3,70.931,3,70z" fill="#141419" fill-opacity="0.1" stroke-opacity="0.1"/>
<linearGradient gradientTransform="matrix(0 -1 -1 0 -1234.5195 -3644.9805)" gradientUnits="userSpaceOnUse" id="SVGID_9_" x1="-3714.981" x2="-3714.981" y1="-1246.5195" y2="-1242.6528">
<stop offset="0" style="stop-color:#FFFFFF"/>
<stop offset="1" style="stop-color:#D2D2D7"/>
</linearGradient>
<circle cx="10" cy="70" fill="url(#SVGID_9_)" r="2"/>
<path d="M9,70c0-0.932,0.639-1.706,1.5-1.93  C10.34,68.028,10.174,68,10,68c-1.104,0-2,0.896-2,2c0,1.104,0.896,2,2,2c0.174,0,0.34-0.029,0.5-0.07C9.639,71.706,9,70.931,9,70z" fill="#141419" fill-opacity="0.1" stroke-opacity="0.1"/>
<linearGradient gradientTransform="matrix(0 -1 -1 0 -1234.5195 -3644.9805)" gradientUnits="userSpaceOnUse" id="SVGID_10_" x1="-3707.981" x2="-3707.981" y1="-1240.5195" y2="-1236.6528">
<stop offset="0" style="stop-color:#FFFFFF"/>
<stop offset="1" style="stop-color:#D2D2D7"/>
</linearGradient>
<circle cx="4" cy="63" fill="url(#SVGID_10_)" r="2"/>
<path d="M3,63c0-0.932,0.639-1.706,1.5-1.93C4.34,61.029,4.174,61,4,61  c-1.104,0-2,0.896-2,2s0.896,2,2,2c0.174,0,0.34-0.029,0.5-0.07C3.639,64.706,3,63.931,3,63z" fill="#141419" fill-opacity="0.1" stroke-opacity="0.1"/>
<linearGradient gradientTransform="matrix(0 -1 -1 0 -1234.5195 -3644.9805)" gradientUnits="userSpaceOnUse" id="SVGID_11_" x1="-3707.981" x2="-3707.981" y1="-1246.5195" y2="-1242.6528">
<stop offset="0" style="stop-color:#FFFFFF"/>
<stop offset="1" style="stop-color:#D2D2D7"/>
</linearGradient>
<circle cx="10" cy="63" fill="url(#SVGID_11_)" r="2"/>
<path d="M9,63c0-0.932,0.639-1.706,1.5-1.93  C10.34,61.029,10.174,61,10,61c-1.104,0-2,0.896-2,2s0.896,2,2,2c0.174,0,0.34-0.029,0.5-0.07C9.639,64.706,9,63.932,9,63z" fill="#141419" fill-opacity="0.1" stroke-opacity="0.1"/>
<linearGradient gradientTransform="matrix(0 -1 -1 0 -1234.5195 -3644.9805)" gradientUnits="userSpaceOnUse" id="SVGID_12_" x1="-3700.981" x2="-3700.981" y1="-1240.5195" y2="-1236.6528">
<stop offset="0" style="stop-color:#FFFFFF"/>
<stop offset="1" style="stop-color:#D2D2D7"/>
</linearGradient>
<circle cx="4" cy="56" fill="url(#SVGID_12_)" r="2"/>
<path d="M3,56c0-0.932,0.639-1.706,1.5-1.93C4.34,54.029,4.174,54,4,54  c-1.104,0-2,0.896-2,2s0.896,2,2,2c0.174,0,0.34-0.029,0.5-0.07C3.639,57.706,3,56.932,3,56z" fill="#141419" fill-opacity="0.1" stroke-opacity="0.1"/>
<linearGradient gradientTransform="matrix(0 -1 -1 0 -1234.5195 -3644.9805)" gradientUnits="userSpaceOnUse" id="SVGID_13_" x1="-3700.981" x2="-3700.981" y1="-1246.5195" y2="-1242.6528">
<stop offset="0" style="stop-color:#FFFFFF"/>
<stop offset="1" style="stop-color:#D2D2D7"/>
</linearGradient>
<circle cx="10" cy="56" fill="url(#SVGID_13_)" r="2"/>
<path d="M9,56c0-0.932,0.64-1.706,1.5-1.93C10.34,54.029,10.174,54,10,54  c-1.104,0-2,0.896-2,2s0.896,2,2,2c0.174,0,0.34-0.029,0.5-0.07C9.64,57.706,9,56.932,9,56z" fill="#141419" fill-opacity="0.1" stroke-opacity="0.1"/>
<linearGradient gradientTransform="matrix(0 -1 -1 0 -1234.5195 -3644.9805)" gradientUnits="userSpaceOnUse" id="SVGID_14_" x1="-3693.981" x2="-3693.981" y1="-1240.5195" y2="-1236.6528">
<stop offset="0" style="stop-color:#FFFFFF"/>
<stop offset="1" style="stop-color:#D2D2D7"/>
</linearGradient>
<circle cx="4" cy="49" fill="url(#SVGID_14_)" r="2"/>
<path d="M3,49c0-0.932,0.639-1.706,1.5-1.93C4.34,47.029,4.174,47,4,47  c-1.104,0-2,0.896-2,2s0.896,2,2,2c0.174,0,0.34-0.029,0.5-0.07C3.639,50.706,3,49.932,3,49z" fill="#141419" fill-opacity="0.1" stroke-opacity="0.1"/>
<linearGradient gradientTransform="matrix(0 -1 -1 0 -1234.5195 -3644.9805)" gradientUnits="userSpaceOnUse" id="SVGID_15_" x1="-3693.981" x2="-3693.981" y1="-1246.5195" y2="-1242.6528">
<stop offset="0" style="stop-color:#FFFFFF"/>
<stop offset="1" style="stop-color:#D2D2D7"/>
</linearGradient>
<circle cx="10" cy="49" fill="url(#SVGID_15_)" r="2"/>
<path d="M9,49c0-0.932,0.64-1.706,1.5-1.93C10.34,47.029,10.174,47,10,47  c-1.104,0-2,0.896-2,2s0.896,2,2,2c0.174,0,0.34-0.029,0.5-0.07C9.64,50.706,9,49.932,9,49z" fill="#141419" fill-opacity="0.1" stroke-opacity="0.1"/>
<linearGradient gradientTransform="matrix(0 -1 -1 0 -1234.5195 -3644.9805)" gradientUnits="userSpaceOnUse" id="SVGID_16_" x1="-3686.981" x2="-3686.981" y1="-1240.5195" y2="-1236.6528">
<stop offset="0" style="stop-color:#FFFFFF"/>
<stop offset="1" style="stop-color:#D2D2D7"/>
</linearGradient>
<circle cx="4" cy="42" fill="url(#SVGID_16_)" r="2"/>
<path d="M3,42c0-0.932,0.639-1.706,1.5-1.93C4.34,40.029,4.174,40,4,40  c-1.104,0-2,0.896-2,2s0.896,2,2,2c0.174,0,0.34-0.029,0.5-0.07C3.639,43.706,3,42.932,3,42z" fill="#141419" fill-opacity="0.1" stroke-opacity="0.1"/>
<linearGradient gradientTransform="matrix(0 -1 -1 0 -1234.5195 -3644.9805)" gradientUnits="userSpaceOnUse" id="SVGID_17_" x1="-3686.981" x2="-3686.981" y1="-1246.5195" y2="-1242.6528">
<stop offset="0" style="stop-color:#FFFFFF"/>
<stop offset="1" style="stop-color:#D2D2D7"/>
</linearGradient>
<circle cx="10" cy="42" fill="url(#SVGID_17_)" r="2"/>
<path d="M9,42c0-0.932,0.64-1.706,1.5-1.93C10.34,40.029,10.174,40,10,40  c-1.104,0-2,0.896-2,2s0.896,2,2,2c0.174,0,0.34-0.029,0.5-0.07C9.64,43.706,9,42.932,9,42z" fill="#141419" fill-opacity="0.1" stroke-opacity="0.1"/>
<linearGradient gradientTransform="matrix(0 -1 -1 0 -1234.5195 -3644.9805)" gradientUnits="userSpaceOnUse" id="SVGID_18_" x1="-3679.981" x2="-3679.981" y1="-1240.5195" y2="-1236.6528">
<stop offset="0" style="stop-color:#FFFFFF"/>
<stop offset="1" style="stop-color:#D2D2D7"/>
</linearGradient>
<circle cx="4" cy="35" fill="url(#SVGID_18_)" r="2"/>
<path d="M3,35c0-0.932,0.639-1.706,1.5-1.93C4.34,33.029,4.174,33,4,33  c-1.104,0-2,0.896-2,2s0.896,2,2,2c0.174,0,0.34-0.029,0.5-0.07C3.639,36.706,3,35.932,3,35z" fill="#141419" fill-opacity="0.1" stroke-opacity="0.1"/>
<linearGradient gradientTransform="matrix(0 -1 -1 0 -1234.5195 -3644.9805)" gradientUnits="userSpaceOnUse" id="SVGID_19_" x1="-3679.981" x2="-3679.981" y1="-1246.5195" y2="-1242.6528">
<stop offset="0" style="stop-color:#FFFFFF"/>
<stop offset="1" style="stop-color:#D2D2D7"/>
</linearGradient>
<circle cx="10" cy="35" fill="url(#SVGID_19_)" r="2"/>
<path d="M9,35c0-0.932,0.64-1.706,1.5-1.93C10.34,33.029,10.174,33,10,33  c-1.104,0-2,0.896-2,2s0.896,2,2,2c0.174,0,0.34-0.029,0.5-0.07C9.64,36.706,9,35.932,9,35z" fill="#141419" fill-opacity="0.1" stroke-opacity="0.1"/>
</svg>
