<?xml version="1.0" encoding="UTF-8"?>
<!DOCTYPE svg PUBLIC "-//W3C//DTD SVG 1.1 Tiny//EN" "http://www.w3.org/Graphics/SVG/1.1/DTD/svg11-tiny.dtd">
<svg baseProfile="tiny" height="60" viewBox="0 0 60 60" width="60" xmlns="http://www.w3.org/2000/svg" xmlns:xlink="http://www.w3.org/1999/xlink">
<g>
<rect fill="none" height="60" width="60"/>
<rect fill="none" height="60" width="60"/>
<linearGradient gradientTransform="matrix(0.5 0 0 0.5 590.3462 -1619.0369)" gradientUnits="userSpaceOnUse" id="SVGID_1_" x1="-1120.6924" x2="-1120.6924" y1="3241.8101" y2="3353.8101">
<stop offset="0" style="stop-color:#D9E2C8"/>
<stop offset="1" style="stop-color:#347940"/>
</linearGradient>
<path d="M30,58C14.561,58,2,45.44,2,30C2,14.562,14.561,2,30,2c15.436,0,28,12.562,28,28  C58,45.44,45.436,58,30,58L30,58z" fill="url(#SVGID_1_)"/>
<linearGradient gradientTransform="matrix(1 0 0 -1 2194 3204.8525)" gradientUnits="userSpaceOnUse" id="SVGID_2_" x1="-2164.001" x2="-2164.001" y1="3202.0542" y2="3146.4495">
<stop offset="0" style="stop-color:#93BD66"/>
<stop offset="1" style="stop-color:#22403B"/>
</linearGradient>
<path d="M57.197,30c0,15.024-12.18,27.201-27.197,27.201C14.975,57.201,2.801,45.024,2.801,30  C2.801,14.981,14.975,2.799,30,2.799C45.018,2.799,57.197,14.981,57.197,30z" fill="url(#SVGID_2_)"/>
<linearGradient gradientUnits="userSpaceOnUse" id="SVGID_3_" x1="33.0234" x2="33.0234" y1="42.7275" y2="14.4317">
<stop offset="0" style="stop-color:#89AA6B"/>
<stop offset="1" style="stop-color:#1C3533"/>
</linearGradient>
<polygon fill="url(#SVGID_3_)" points="20.705,14.267 45.342,28.42 20.705,42.858 "/>
<polygon fill="#FFFFFF" points="22.221,16.888 44.016,29.469 22.221,42.054 "/>
</g>
</svg>
