<?xml version="1.0" encoding="UTF-8"?>
<!DOCTYPE svg PUBLIC "-//W3C//DTD SVG 1.1 Tiny//EN" "http://www.w3.org/Graphics/SVG/1.1/DTD/svg11-tiny.dtd">
<svg baseProfile="tiny" height="30px" version="1.1" viewBox="0 0 30 30" width="30px" x="0px" xmlns="http://www.w3.org/2000/svg" xmlns:xlink="http://www.w3.org/1999/xlink" y="0px">
<g fill-opacity="0.5" stroke-opacity="0.5">
<rect fill="none" height="30" width="30"/>
</g>
<path d="M5.045,12.991C5.1,12.32,5.21,11.682,5.362,11.073C5.249,11.029,5.129,11,5,11l-3,0c-0.552,0-1,0.448-1,1s0.448,1,1,1h3  C5.016,13,5.029,12.992,5.045,12.991z"/>
<path d="M7.539,6.955c0.455-0.49,0.963-0.928,1.525-1.303L6.618,3.204C6.276,2.862,5.684,2.902,5.293,3.293S4.862,4.277,5.204,4.618  L7.539,6.955z"/>
<path d="M15,4c0.341,0,0.673,0.017,1,0.042V0.833C16,0.373,15.553,0,15,0s-1,0.373-1,0.833v3.208C14.327,4.017,14.659,4,15,4z"/>
<path d="M22.38,6.863l2.238-2.24c0.345-0.344,0.308-0.94-0.083-1.331s-0.986-0.428-1.331-0.083l-2.368,2.37  C21.404,5.947,21.918,6.38,22.38,6.863z"/>
<path d="M28,11l-3.172,0c-0.07,0-0.131,0.026-0.197,0.04c0.157,0.621,0.27,1.273,0.324,1.96H28c0.552,0,1-0.448,1-1S28.552,11,28,11  z"/>
<path d="M23,14.1C23,8.577,19.419,6,15,6s-8,2.577-8,8.1c0,3.092,1.393,5.822,3.243,7.629L11,24l0,0h8l0,0l0.757-2.271  C21.607,19.922,23,17.191,23,14.1z M15,9c2.281,0,5,0.885,5,5.1c0,3.986-3.288,6.9-5,6.9s-5-2.914-5-6.9C10,9.885,12.719,9,15,9z"/>
<path d="M11,27c0,1.104,0.896,2,2,2h4c1.104,0,2-0.896,2-2v-2h-8V27z"/>
</svg>
