<?xml version="1.0" encoding="UTF-8"?>
<!DOCTYPE svg PUBLIC "-//W3C//DTD SVG 1.1 Tiny//EN" "http://www.w3.org/Graphics/SVG/1.1/DTD/svg11-tiny.dtd">
<svg baseProfile="tiny" height="10px" version="1.1" viewBox="0 0 10 10" width="10px" x="0px" xmlns="http://www.w3.org/2000/svg" xmlns:xlink="http://www.w3.org/1999/xlink" y="0px">
<rect fill="none" height="10" width="10"/>
<path d="M10,0H7C3.14,0,0,3.14,0,7v3h10V0z" fill="#14141E" fill-opacity="0.1" stroke-opacity="0.1"/>
<path d="M10,2H7C3.7,2,1,4.7,1,8v2h9V2z" fill="#14141E" fill-opacity="0.2" stroke-opacity="0.2"/>
<path d="M10,1H7C3.7,1,1,3.7,1,7v3h9V1z" fill="url(#SVGID_1_)" fill-opacity="0.9" stroke-opacity="0.9"/>
<path d="M2,7c0-2.757,2.243-5,5-5h3V1H7C3.7,1,1,3.7,1,7v3h1V7z" fill="#FFFFFF" fill-opacity="0.4" stroke-opacity="0.4"/>
<defs>
<linearGradient gradientUnits="userSpaceOnUse" id="SVGID_1_" x1="5.5" x2="5.5" y1="1.125" y2="79.951">
<stop offset="0" style="stop-color:#FFFFFF"/>
<stop offset="0" style="stop-color:#FDFDFE"/>
<stop offset="0.9" style="stop-color:#E6E6F0"/>
<stop offset="1" style="stop-color:#DCDCE6"/>
</linearGradient>
</defs>
</svg>
