<?xml version="1.0" encoding="UTF-8"?>
<!DOCTYPE svg PUBLIC "-//W3C//DTD SVG 1.1 Tiny//EN" "http://www.w3.org/Graphics/SVG/1.1/DTD/svg11-tiny.dtd">
<svg baseProfile="tiny" height="30px" version="1.1" viewBox="0 0 30 30" width="30px" x="0px" xmlns="http://www.w3.org/2000/svg" xmlns:xlink="http://www.w3.org/1999/xlink" y="0px">
<g fill-opacity="0.5" stroke-opacity="0.5">
<rect fill="none" height="30" width="30"/>
</g>
<path d="M27,1H8C6.896,1,6,1.896,6,3v1h20v17v3h1c1.104,0,2-0.896,2-2V3C29,1.896,28.104,1,27,1z"/>
<path d="M22,6H3C1.896,6,1,6.896,1,8v14l7,7h14c1.104,0,2-0.896,2-2V8C24,6.896,23.104,6,22,6z M5,11h2v2H5V11z M5,16h2v2H5V16z   M8,26.879L3.121,22H6c1.104,0,2,0.896,2,2V26.879z M20,18H8v-2h12V18z M20,13H8v-2h12V13z"/>
</svg>
