<?xml version="1.0" encoding="UTF-8"?>
<!DOCTYPE svg PUBLIC "-//W3C//DTD SVG 1.1 Tiny//EN" "http://www.w3.org/Graphics/SVG/1.1/DTD/svg11-tiny.dtd">
<svg baseProfile="tiny" height="30" viewBox="0 0 30 30" width="30" xmlns="http://www.w3.org/2000/svg" xmlns:xlink="http://www.w3.org/1999/xlink">
<g>
<polygon fill-opacity="0.6" points="27,28 27,2 3,2 3,21.414 9.586,28 "/>
<linearGradient gradientTransform="matrix(-1 0 0 1 236 0)" gradientUnits="userSpaceOnUse" id="SVGID_1_" x1="221" x2="221" y1="3" y2="27.0005">
<stop offset="0" style="stop-color:#FFFFFF"/>
<stop offset="1" style="stop-color:#C8C8C8"/>
</linearGradient>
<polygon fill="url(#SVGID_1_)" points="26,3 26,27 10,27 4,21 4,3 "/>
<polygon fill="#FFFFFF" points="4,21 10,21 10,27 "/>
<rect fill-opacity="0.5" height="1.5" stroke-opacity="0.5" width="18" x="6" y="7"/>
<rect fill-opacity="0.5" height="1.5" stroke-opacity="0.5" width="18" x="6" y="11"/>
<rect fill-opacity="0.5" height="1.5" stroke-opacity="0.5" width="12" x="6" y="15"/>
<rect fill="none" height="30" width="30"/>
</g>
<g>
<path d="M20.96,28.68c-1.825,0-3.309-1.187-3.309-2.646s1.483-2.647,3.309-2.647c0.224,0,0.445,0.018,0.661,0.053v-7.245l5.735,1.537v4.111l-3.089-0.828v5.02c0,1.47-1.49,2.66-3.31,2.66z" fill-opacity="0.6" stroke-opacity="0.6" style="enable-background:new;"/>
<path d="M22.06,16.77v7.229c-0.34-0.109-0.712-0.17-1.103-0.17-1.584,0-2.868,0.987-2.868,2.206s1.284,2.206,2.868,2.206c1.583,0,2.867-0.988,2.867-2.206v-5.595l3.088,0.828v-3.198l-4.86-1.3z" fill="url(#SVGID_1__)"/>
<path d="M20.96,27.8c-1.487,0-2.709-0.871-2.854-1.985-0.009,0.072-0.014,0.146-0.014,0.221,0,1.219,1.283,2.206,2.867,2.206,1.583,0,2.867-0.988,2.867-2.206v-0.45c-0.02,1.22-1.3,2.21-2.88,2.21z" fill-opacity="0.2" stroke-opacity="0.2" style="enable-background:new;"/>
<polygon fill-opacity="0.2" points="23.82,20.44,26.91,21.26,26.91,20.82,23.82,20" stroke-opacity="0.2" style="enable-background:new;"/>
<path d="M20.96,24.27c0.391,0,0.763,0.062,1.103,0.171v-0.441c-0.339-0.109-0.712-0.17-1.103-0.17-1.584,0-2.867,0.987-2.867,2.206,0,0.074,0.005,0.147,0.014,0.22,0.15-1.12,1.37-1.99,2.86-1.99z" fill="#FFFFFF" fill-opacity="0.4" stroke-opacity="0.4" style="enable-background:new;"/>
<polygon fill="#FFFFFF" fill-opacity="0.4" points="22.06,16.77,22.06,17.21,26.91,18.51,26.91,18.07" stroke-opacity="0.4" style="enable-background:new;"/>
<rect fill="none" height="15" width="15" x="15" y="15"/>
<defs>
<linearGradient gradientTransform="matrix(0.8824 0 0 0.8824 -252.2905 -982.9092)" gradientUnits="userSpaceOnUse" id="SVGID_1__" x1="311.4" x2="311.4" y1="1131" y2="1148">
<stop offset="0" stop-color="#A8835F"/>
<stop offset="0.2606" stop-color="#A86F5F"/>
<stop offset="1" stop-color="#9A5047"/>
</linearGradient>
</defs>
<rect fill="none" height="30" width="30"/>
</g>
</svg>
