<?xml version="1.0" encoding="UTF-8"?>
<!DOCTYPE svg PUBLIC "-//W3C//DTD SVG 1.1 Tiny//EN" "http://www.w3.org/Graphics/SVG/1.1/DTD/svg11-tiny.dtd">
<svg baseProfile="tiny" height="60" viewBox="0 0 60 60" width="60" xmlns="http://www.w3.org/2000/svg" xmlns:xlink="http://www.w3.org/1999/xlink">
<g>
<rect fill="none" height="60" width="60"/>
<g>
<radialGradient cx="-1374.2305" cy="2708.6123" gradientTransform="matrix(0 1 1 0 -2678.1238 1416.3748)" gradientUnits="userSpaceOnUse" id="SVGID_1_" r="36.2612">
<stop offset="0" style="stop-color:#C0A26F"/>
<stop offset="0.297" style="stop-color:#C0A26F"/>
<stop offset="0.6667" style="stop-color:#954749"/>
<stop offset="0.7939" style="stop-color:#BE8A6B"/>
<stop offset="1" style="stop-color:#BE8A6B"/>
</radialGradient>
<path d="M17.884,35.418c0.413-0.078,0.579-0.318,0.603-0.895c0.027-0.721,0.29-3.172,0.431-3.764   c0.124-0.521,0.342-0.805,0.941-0.98c0.75-0.22,3.188-1.037,10.143-1.038c6.954,0,9.393,0.807,10.141,1.038   c0.651,0.201,0.777,0.389,0.941,0.98c0.162,0.586,0.402,3.043,0.431,3.764c0.024,0.576,0.16,0.82,0.577,0.883   c0.731,0.113,13.291,2.238,14.601,2.502c0.794,0.16,1.237,0.045,1.292-0.705c0.231-3.012-2.009-7.641-3.005-9.067   c-0.887-1.274-1.687-2.667-3.82-3.557c-2.028-0.845-12.133-2.548-21.158-2.548c-9.026-0.001-19.132,1.704-21.159,2.548   c-2.133,0.889-2.935,2.282-3.82,3.555c-0.995,1.429-3.237,6.055-3.006,9.069c0.058,0.748,0.5,0.863,1.292,0.703   C4.62,37.645,17.169,35.549,17.884,35.418z" fill="url(#SVGID_1_)"/>
<linearGradient gradientTransform="matrix(0 1 1 0 -2678.1238 1416.3748)" gradientUnits="userSpaceOnUse" id="SVGID_2_" x1="-1383.7373" x2="-1383.3947" y1="2721.2969" y2="2718.4587">
<stop offset="0" style="stop-color:#905A46"/>
<stop offset="1" style="stop-color:#6B2E36"/>
</linearGradient>
<path d="M40.145,29.779c0.65,0.202,0.775,0.39,0.94,0.981c0.162,0.584,0.401,3.043,0.431,3.762   c0.024,0.578,0.16,0.82,0.576,0.885c0.046,0.008,0.062,0.01,0.063,0.01c0.244,0.039,0.993,0.164,2.039,0.342   c-0.026-0.258-0.37-3.525-1.036-4.357C41.938,29.877,40.145,29.779,40.145,29.779z" fill="url(#SVGID_2_)"/>
<linearGradient gradientTransform="matrix(0 1 -1 0 -3579.3215 1416.3782)" gradientUnits="userSpaceOnUse" id="SVGID_3_" x1="-1383.7422" x2="-1383.3992" y1="-3596.1938" y2="-3599.0347">
<stop offset="0" style="stop-color:#905A46"/>
<stop offset="1" style="stop-color:#6B2E36"/>
</linearGradient>
<path d="M19.841,29.779c-0.654,0.203-0.778,0.39-0.942,0.981c-0.163,0.586-0.404,3.045-0.433,3.766   c-0.021,0.574-0.158,0.818-0.574,0.883c-0.047,0.008-0.061,0.01-0.061,0.01c-0.245,0.039-0.994,0.164-2.041,0.338   c0.028-0.254,0.371-3.523,1.036-4.355C18.043,29.876,19.841,29.779,19.841,29.779z" fill="url(#SVGID_3_)"/>
<linearGradient gradientTransform="matrix(0.7071 0.7071 0.7071 -0.7071 51.2805 -77.5527)" gradientUnits="userSpaceOnUse" id="SVGID_4_" x1="78.5283" x2="43.332" y1="-72.9224" y2="-108.1187">
<stop offset="0" style="stop-color:#D3C59A"/>
<stop offset="1" style="stop-color:#D0BA98"/>
</linearGradient>
<path d="M5.021,28.75c0.887-1.275,1.688-2.668,3.819-3.555   c2.029-0.846,12.134-2.55,21.16-2.549c9.027-0.001,19.13,1.703,21.161,2.549c2.131,0.888,2.933,2.28,3.819,3.554   c0.912,1.311,2.875,5.32,3.009,8.3c0.146-3.016-2.031-7.511-3.009-8.915c-0.888-1.274-1.688-2.666-3.82-3.556   c-2.028-0.845-12.134-2.548-21.158-2.549c-9.027,0.001-19.133,1.706-21.16,2.55c-2.133,0.889-2.935,2.282-3.82,3.555   c-0.979,1.404-3.158,5.899-3.009,8.915C2.146,34.068,4.108,30.06,5.021,28.75z" fill="url(#SVGID_4_)" fill-opacity="0.5" stroke-opacity="0.5"/>
<linearGradient gradientTransform="matrix(0.7071 0.7071 0.7071 -0.7071 51.2805 -77.5527)" gradientUnits="userSpaceOnUse" id="SVGID_5_" x1="82.8936" x2="42.849" y1="-73.0874" y2="-113.132">
<stop offset="0" style="stop-color:#D3C59A"/>
<stop offset="1" style="stop-color:#D0BA98"/>
</linearGradient>
<path d="M17.884,35.418c0.413-0.078,0.579-0.318,0.603-0.895   c0.027-0.721,0.29-3.172,0.431-3.764c0.124-0.521,0.342-0.805,0.941-0.98c0.75-0.22,3.188-1.037,10.143-1.038   c6.954,0,9.393,0.807,10.141,1.038c0.651,0.201,0.777,0.389,0.941,0.98c0.162,0.586,0.402,3.043,0.431,3.764   c0.024,0.576,0.16,0.82,0.577,0.883c0.731,0.113,13.291,2.238,14.601,2.502c0.794,0.16,1.237,0.045,1.292-0.705   c0.027-0.354,0.018-0.73-0.017-1.119c-0.094,0.643-0.526,0.748-1.276,0.594c-1.311-0.262-13.869-2.385-14.6-2.5   c-0.418-0.064-0.553-0.307-0.576-0.883c-0.029-0.719-0.27-3.177-0.433-3.765c-0.163-0.59-0.287-0.777-0.941-0.979   c-0.746-0.229-3.188-1.039-10.14-1.037c-6.954,0-9.393,0.817-10.143,1.037c-0.599,0.176-0.816,0.459-0.94,0.981   c-0.141,0.59-0.403,3.042-0.433,3.763c-0.022,0.576-0.189,0.816-0.603,0.893C17.168,34.32,4.62,36.414,3.309,36.68   c-0.751,0.15-1.183,0.049-1.275-0.596c-0.036,0.389-0.044,0.766-0.018,1.119c0.058,0.748,0.5,0.861,1.292,0.703   C4.62,37.645,17.169,35.549,17.884,35.418z" fill="url(#SVGID_5_)" fill-opacity="0.5" stroke-opacity="0.5"/>
<linearGradient gradientTransform="matrix(0 1 1 0 -2702.5007 1379.2039)" gradientUnits="userSpaceOnUse" id="SVGID_6_" x1="-1353.1973" x2="-1353.1973" y1="2756.7813" y2="2707.613">
<stop offset="0" style="stop-color:#885F4A"/>
<stop offset="0.5" style="stop-color:#4F2430"/>
<stop offset="1" style="stop-color:#885F4A"/>
</linearGradient>
<path d="M6.355,27.326c2.275-0.843,14.095-2.529,23.646-2.53   c9.552,0,21.371,1.687,23.646,2.53c0.431,0.161,0.804,0.343,1.144,0.531c-0.233-0.341-0.472-0.685-0.733-1.024   c-0.069-0.028-0.127-0.056-0.196-0.082c-2.309-0.856-14.245-2.568-23.858-2.568c-9.616,0-21.553,1.71-23.862,2.566   c-0.07,0.028-0.128,0.058-0.198,0.085c-0.26,0.339-0.5,0.685-0.733,1.023C5.554,27.667,5.924,27.487,6.355,27.326z" fill="url(#SVGID_6_)" fill-opacity="0.5" stroke-opacity="0.5"/>
</g>
</g>
<g transform="matrix(1 0 0 1 30 30)">
<linearGradient gradientUnits="userSpaceOnUse" id="SVGID_1__" x1="12.38" x2="17.62" y1="23.65" y2="23.65">
<stop offset="0" stop-color="#898A8B"/>
<stop offset="0.2606" stop-color="#BFC2C1"/>
<stop offset="0.6606" stop-color="#5D5F61"/>
<stop offset="1" stop-color="#979A9A"/>
</linearGradient>
<rect fill="url(#SVGID_1__)" height="7.853" width="5.105" x="12.45" y="19.72"/>
<path d="M12.45,24.66c0.82,0.199,1.673,0.315,2.553,0.315,0.881,0,1.732-0.116,2.553-0.315v-4.294h-5.105v4.285z" fill="#020202" fill-opacity="0.2" stroke-opacity="0.2"/>
<path d="M12.45,24.02c0.82,0.199,1.673,0.315,2.553,0.315,0.881,0,1.732-0.116,2.553-0.315v-4.294h-5.105v4.288z" fill="#020202" fill-opacity="0.2" stroke-opacity="0.2"/>
<linearGradient gradientUnits="userSpaceOnUse" id="SVGID_2__" x1="15" x2="15" y1="1.975" y2="23.67">
<stop offset="0" stop-color="#F2F2F2"/>
<stop offset="0.3212" stop-color="#E6E6E6"/>
<stop offset="1" stop-color="#666666"/>
</linearGradient>
<path d="M15,23.7c-5.98,0-10.85-4.867-10.85-10.85s4.87-10.85,10.85-10.85c5.982,0,10.85,4.866,10.85,10.85s-4.87,10.85-10.85,10.85z" fill="url(#SVGID_2__)"/>
<linearGradient gradientUnits="userSpaceOnUse" id="SVGID_3__" x1="15" x2="15" y1="2.614" y2="23.03">
<stop offset="0" stop-color="#D3D7D5"/>
<stop offset="0.0667" stop-color="#D3D7D5"/>
<stop offset="0.2606" stop-color="#BFC2C1"/>
<stop offset="0.6606" stop-color="#7F8384"/>
<stop offset="1" stop-color="#AFB3B2"/>
</linearGradient>
<circle cx="15" cy="12.85" fill="url(#SVGID_3__)" r="10.21"/>
<path d="M15,21.99c-5.315,0-9.657-4.23-9.843-9.5-0.004,0.116-0.009,0.231-0.009,0.349,0,5.431,4.419,9.851,9.852,9.851s9.852-4.42,9.852-9.851c0-0.117-0.005-0.232-0.009-0.349-0.18,5.27-4.52,9.5-9.84,9.5z" fill="#FFFFFF" fill-opacity="0.1" stroke-opacity="0.1"/>
<path d="M23.3,12.41c0,4.704-3.715,9.346-8.299,9.345-4.58-0.003-8.292-4.646-8.291-9.35,0.002-4.706,3.718-8.517,8.298-8.517,4.57,0.001,8.29,3.814,8.29,8.517z" fill="#222021" fill-opacity="0.3" stroke-opacity="0.3"/>
<path d="M15,21.07c-2.387-0.002-4.63-0.932-6.315-2.619-1.688-1.688-2.615-3.932-2.614-6.318,0-4.923,4.009-8.929,8.935-8.929,2.387,0,4.632,0.931,6.317,2.618,1.688,1.688,2.616,3.933,2.615,6.318-0.002,4.924-4.01,8.93-8.934,8.93h-0.014z" fill="#222021" fill-opacity="0.2" stroke-opacity="0.2"/>
<linearGradient gradientUnits="userSpaceOnUse" id="SVGID_4__" x1="15" x2="15" y1="3.721" y2="20.35">
<stop offset="0" stop-color="#CFCFCF"/>
<stop offset="0.1091" stop-color="#CFCFCF"/>
<stop offset="0.6848" stop-color="#121212"/>
<stop offset="1" stop-color="#A6A6A6"/>
</linearGradient>
<path d="M15,20.43c-2.216-0.002-4.298-0.864-5.864-2.432-1.567-1.566-2.428-3.65-2.427-5.866,0-4.573,3.723-8.293,8.296-8.293,2.218,0.001,4.3,0.864,5.866,2.432s2.43,3.651,2.428,5.867c-0.001,4.573-3.723,8.292-8.295,8.292h-0.004z" fill="url(#SVGID_4__)"/>
<linearGradient gradientUnits="userSpaceOnUse" id="SVGID_5__" x1="15" x2="15" y1="4.368" y2="19.72">
<stop offset="0" stop-color="#F2F2F2"/>
<stop offset="1" stop-color="#636566"/>
</linearGradient>
<circle cx="15" cy="12.13" fill="url(#SVGID_5__)" r="7.657"/>
<linearGradient gradientUnits="userSpaceOnUse" id="SVGID_6__" x1="15" x2="15" y1="5.772" y2="18.45">
<stop offset="0" stop-color="#1A1A1A"/>
<stop offset="0.503" stop-color="#343434"/>
<stop offset="0.7515" stop-color="#9E9E9E"/>
<stop offset="1" stop-color="#CFCFCF"/>
</linearGradient>
<path d="M15,18.51c-1.706-0.001-3.309-0.666-4.514-1.871-1.204-1.206-1.867-2.808-1.867-4.512,0-3.517,2.862-6.378,6.382-6.378,1.706,0,3.308,0.664,4.513,1.871,1.205,1.205,1.868,2.808,1.867,4.513,0,3.51-2.86,6.37-6.38,6.37z" fill="url(#SVGID_6__)"/>
<radialGradient cx="25.77" cy="10.27" gradientTransform="matrix(1.0143 3.000000e-004 -3.000000e-004 1.0141 -10.5185 2.1979)" gradientUnits="userSpaceOnUse" id="SVGID_7_" r="6.499">
<stop offset="0" stop-color="#000000"/>
<stop offset="0.5917" stop-color="#000000"/>
<stop offset="0.627" stop-color="#050505"/>
<stop offset="0.7652" stop-color="#121212"/>
<stop offset="0.8876" stop-color="#171717"/>
<stop offset="1" stop-color="#171717"/>
</radialGradient>
<path d="M20.74,12.14c0,3.172-2.574,5.74-5.744,5.74-3.175-0.001-5.743-2.573-5.741-5.745,0-3.171,2.573-5.742,5.745-5.74,3.17-0.009,5.74,2.562,5.74,5.74z" fill="url(#SVGID_7_)"/>
<radialGradient cx="21.65" cy="5.066" gradientTransform="matrix(1.0143 0 0 1.0141 -9.5579 3.1299)" gradientUnits="userSpaceOnUse" id="SVGID_8_" r="10.35">
<stop offset="0" stop-color="#242424"/>
<stop offset="0.4303" stop-color="#242424"/>
<stop offset="0.7818" stop-color="#000000"/>
<stop offset="1" stop-color="#000000"/>
</radialGradient>
<circle cx="15" cy="12.13" fill="url(#SVGID_8_)" r="4.712"/>
<radialGradient cx="23.96" cy="3.55" gradientTransform="matrix(1.0143 3.000000e-004 -3.000000e-004 1.0141 -10.5185 2.1979)" gradientUnits="userSpaceOnUse" id="SVGID_9_" r="11.36">
<stop offset="0" stop-color="#8D4AAB"/>
<stop offset="0.3091" stop-color="#8D4AAB"/>
<stop offset="0.4364" stop-color="#532961"/>
<stop offset="0.8061" stop-color="#070F0F"/>
<stop offset="1" stop-color="#070F0F"/>
</radialGradient>
<path d="M19.21,12.13c0,2.326-1.886,4.21-4.212,4.21-2.326-0.002-4.213-1.888-4.213-4.212,0.004-2.327,1.89-4.21,4.213-4.21,2.33,0.003,4.21,1.888,4.21,4.21z" fill="url(#SVGID_9_)"/>
<radialGradient cx="25.17" cy="13.25" gradientTransform="matrix(1.0143 3.000000e-004 -3.000000e-004 1.0141 -10.5185 2.1979)" gradientUnits="userSpaceOnUse" id="SVGID_10_" r="4.611">
<stop offset="0" stop-color="#264932"/>
<stop offset="0.7879" stop-color="#000000"/>
<stop offset="1" stop-color="#000000"/>
</radialGradient>
<path d="M19.21,12.13c0,2.326-1.886,4.21-4.212,4.21-2.326-0.002-4.213-1.888-4.213-4.212,0,0,1.444,2.569,4.213,2.569,2.77,0,4.21-2.57,4.21-2.57z" fill="url(#SVGID_10_)"/>
<linearGradient gradientUnits="userSpaceOnUse" id="SVGID_11_" x1="14.98" x2="14.98" y1="7.065" y2="12.09">
<stop offset="0" stop-color="#FAFDFB"/>
<stop offset="1" stop-color="#808080"/>
</linearGradient>
<path d="M14.98,12.07c1.828,0,3.549-0.277,5.067-0.765-0.431-2.41-2.532-4.239-5.067-4.239-2.532,0-4.632,1.83-5.065,4.239,1.515,0.49,3.235,0.77,5.065,0.77z" fill="url(#SVGID_11_)" fill-opacity="0.35" stroke-opacity="0.35"/>
<linearGradient gradientUnits="userSpaceOnUse" id="SVGID_12_" x1="5.762" x2="24.29" y1="26.72" y2="26.72">
<stop offset="0" stop-color="#898A8B"/>
<stop offset="0.2606" stop-color="#BFC2C1"/>
<stop offset="0.6606" stop-color="#5D5F61"/>
<stop offset="1" stop-color="#979A9A"/>
</linearGradient>
<path d="M24.24,28c0.025-0.635,0.04-0.508,0.04-0.639v-0.035c0-1.037-0.852-1.879-1.901-1.879h-14.72c-1.05,0-1.9,0.842-1.9,1.879v0.035c0,0.131,0.014,0.004,0.04,0.639h18.44z" fill="url(#SVGID_12_)"/>
<path d="M5.879,26.7h18.29c-0.084-0.234-0.212-0.444-0.377-0.626h-17.53c-0.164,0.19-0.293,0.4-0.377,0.63z" fill="#FFFFFF" fill-opacity="0.2" stroke-opacity="0.2"/>
<path d="M5.772,27.36c0.007,0.13,0.017,0.32,0.03,0.64h18.44c0.012-0.316,0.022-0.508,0.028-0.639h-18.5z" fill="#020202" fill-opacity="0.2" stroke-opacity="0.2"/>
<path d="M6.255,26.07h17.54c-0.348-0.383-0.846-0.627-1.407-0.627h-14.72c-0.56,0.01-1.059,0.25-1.407,0.63z" fill="#FFFFFF" fill-opacity="0.4" stroke-opacity="0.4"/>
<rect fill="none" height="30" width="30"/>
</g>
</svg>
