<?xml version="1.0" encoding="UTF-8"?>
<!DOCTYPE svg PUBLIC "-//W3C//DTD SVG 1.1 Tiny//EN" "http://www.w3.org/Graphics/SVG/1.1/DTD/svg11-tiny.dtd">
<svg baseProfile="tiny" height="30" viewBox="0 0 30 30" width="30" xmlns="http://www.w3.org/2000/svg" xmlns:xlink="http://www.w3.org/1999/xlink">
<g>
<rect fill="none" height="30" width="30"/>
<path d="M19,26.5l-1,1c-5.58,0-13-1.141-13-11v-3H0.131L8,1.697L15.869,13.5H11v3  c0,6.654,5.764,9,7,9L19,26.5z" fill-opacity="0.6" stroke-opacity="0.6"/>
<linearGradient gradientTransform="matrix(1 0 0 1 -578.9609 -812.0391)" gradientUnits="userSpaceOnUse" id="SVGID_1_" x1="588.9609" x2="588.9609" y1="815.5391" y2="838.5391">
<stop offset="0" style="stop-color:#85AE4A"/>
<stop offset="1" style="stop-color:#2F6F44"/>
</linearGradient>
<path d="M10,16.5v-4h4l-6-9l-6,9h4v4c0,8,5,10,12,10C16,26.5,10,23.5,10,16.5z" fill="url(#SVGID_1_)"/>
<path d="M10,16.5V18c0,3.939,1.9,6.611,3.918,8.195  C15.176,26.404,16.541,26.5,18,26.5C16,26.5,10,23.5,10,16.5z" fill="#FFFFFF" fill-opacity="0.4" stroke-opacity="0.4"/>
<polygon fill="#FFFFFF" fill-opacity="0.4" points="8,5 13,12.5 14,12.5 8,3.5 2,12.5 3,12.5 " stroke-opacity="0.4"/>
<path d="M14.131,16.5H19v-3c0-6.655-5.764-9-7-9l-1-1l1-1c5.58,0,13,1.141,13,11v3h4.869  L22,28.303L14.131,16.5z" fill-opacity="0.6" stroke-opacity="0.6"/>
<linearGradient gradientTransform="matrix(1 0 0 1 -578.9609 -812.0391)" gradientUnits="userSpaceOnUse" id="SVGID_2_" x1="598.9609" x2="598.9609" y1="815.5391" y2="838.5391">
<stop offset="0" style="stop-color:#6DADC1"/>
<stop offset="1" style="stop-color:#3B518A"/>
</linearGradient>
<path d="M24,17.5v-4c0-8-5-10-12-10c2,0,8,3,8,10v4h-4l6,9l6-9H24z" fill="url(#SVGID_2_)"/>
<polygon fill="#FFFFFF" fill-opacity="0.4" points="20,17.5 16,17.5 16.666,18.5 20,18.5 " stroke-opacity="0.4"/>
<path d="M24,14.5v-1c0-8-5-10-12-10c0.707,0,1.914,0.384,3.178,1.177  C20.461,5.299,24,7.776,24,14.5z" fill="#FFFFFF" fill-opacity="0.4" stroke-opacity="0.4"/>
<polygon fill="#FFFFFF" fill-opacity="0.4" points="24,17.5 24,18.5 27.334,18.5 28,17.5 " stroke-opacity="0.4"/>
<rect fill="none" height="30" width="30"/>
</g>
</svg>
