<?xml version="1.0" encoding="UTF-8"?>
<!DOCTYPE svg PUBLIC "-//W3C//DTD SVG 1.1 Tiny//EN" "http://www.w3.org/Graphics/SVG/1.1/DTD/svg11-tiny.dtd">
<svg baseProfile="tiny" height="30" viewBox="0 0 30 30" width="30" xmlns="http://www.w3.org/2000/svg" xmlns:xlink="http://www.w3.org/1999/xlink">
<g>
<polygon fill="url(#SVGID_1_)" points="27,2 27,28 9.586,28 3,21.404 3,2 "/>
<polygon fill="#FFFFFF" points="4,21 10,21 10,27 "/>
<rect fill-opacity="0.5" height="1.5" stroke-opacity="0.5" width="18" x="6" y="7"/>
<rect fill-opacity="0.5" height="1.5" stroke-opacity="0.5" width="18" x="6" y="11"/>
<rect fill-opacity="0.5" height="1.5" stroke-opacity="0.5" width="12" x="6" y="15"/>
<rect fill="none" height="30" width="30"/>
<g>
<polygon fill="#505050" points="9.778,26.777 9.071,27.484 9.586,28 10.858,28 10.858,27 10,27  "/>
<rect fill="#505050" height="1" transform="matrix(-0.7074 -0.7069 0.7069 -0.7074 -5.2081 47.8633)" width="2" x="6.304" y="24.51"/>
<rect fill="#505050" height="1" width="2" x="7" y="2"/>
<rect fill="#505050" height="1" width="2" x="11" y="2"/>
<rect fill="#505050" height="1" width="2" x="12.858" y="27"/>
<rect fill="#505050" height="1" transform="matrix(-0.7074 -0.7069 0.7069 -0.7074 -8.0388 41.0351)" width="2" x="3.475" y="21.682"/>
<rect fill="#505050" height="2" width="1" x="3" y="10"/>
<rect fill="#505050" height="1" width="2" x="15" y="2"/>
<rect fill="#505050" height="2" width="1" x="3" y="6"/>
<rect fill="#505050" height="2" width="1" x="3" y="14"/>
<rect fill="#505050" height="2" width="1" x="3" y="18"/>
<rect fill="#505050" height="1" width="2" x="3" y="2"/>
<rect fill="#505050" height="2" width="1" x="26" y="13.639"/>
<rect fill="#505050" height="2" width="1" x="26" y="9.639"/>
<rect fill="#505050" height="2" width="1" x="26" y="17.639"/>
<rect fill="#505050" height="1" width="2" x="23" y="2"/>
<rect fill="#505050" height="2" width="1" x="26" y="5.639"/>
<polygon fill="#505050" points="26,27.496 26.857,27.496 27,27.496 27,25.639 26,25.639  "/>
<rect fill="#505050" height="2" width="1" x="26" y="21.639"/>
<rect fill="#505050" height="1" width="2" x="20.857" y="27"/>
<rect fill="#505050" height="1" width="2" x="19" y="2"/>
<rect fill="#505050" height="1" width="2" x="16.857" y="27"/>
<rect fill="#505050" height="2" width="1" x="26" y="2"/>
<rect fill="#505050" height="2" width="1" x="3" y="2.361"/>
<rect fill="#505050" height="1" width="2" x="25" y="27"/>
</g>
<defs>
<linearGradient gradientTransform="matrix(-1 0 0 -1 -305.0195 -262.4805)" gradientUnits="userSpaceOnUse" id="SVGID_1_" x1="-320.0195" x2="-320.0195" y1="-264.4805" y2="-290.4805">
<stop offset="0" style="stop-color:#FFFFFF"/>
<stop offset="1" style="stop-color:#C8C8C8"/>
</linearGradient>
</defs>
</g>
</svg>
