<?xml version="1.0" encoding="UTF-8"?>
<!DOCTYPE svg PUBLIC "-//W3C//DTD SVG 1.1 Tiny//EN" "http://www.w3.org/Graphics/SVG/1.1/DTD/svg11-tiny.dtd">
<svg baseProfile="tiny" height="30px" version="1.1" viewBox="0 0 30 30" width="30px" x="0px" xmlns="http://www.w3.org/2000/svg" xmlns:xlink="http://www.w3.org/1999/xlink" y="0px">
<path d="M14,23v1h-3v-2h3V23c0-1.439,0.346-2.794,0.946-4H9v-8h12v3.23c0.645-0.146,1.312-0.23,2-0.23c0.338,0,0.672,0.022,1,0.059  V11h2c1.104,0,2-0.896,2-2V8h-2V6h2V5c0-1.104-0.896-2-2-2H4C2.896,3,2,3.896,2,5v1h2v2H2v1c0,1.104,0.896,2,2,2h1h1v8H5H4  c-1.104,0-2,0.896-2,2v1h2v2H2v1c0,1.104,0.896,2,2,2h10.946C14.346,25.794,14,24.439,14,23z M21,6h3v2h-3V6z M16,6h3v2h-3V6z M11,6  h3v2h-3V6z M6,6h3v2H6V6z M9,24H6v-2h3V24z"/>
<polygon points="25.063,19.561 22.313,18.875 20.293,19.635 24.375,20.938 "/>
<path d="M29.964,22.284C29.605,18.755,26.625,16,23,16s-6.605,2.755-6.964,6.284C16.012,22.52,16,22.758,16,23  s0.012,0.48,0.036,0.716C16.395,27.246,19.375,30,23,30s6.605-2.754,6.964-6.284C29.988,23.48,30,23.242,30,23  S29.988,22.52,29.964,22.284z M26.217,26.796L26,26.6l0.116-1.6l1.273,0.344C27.091,25.9,26.695,26.39,26.217,26.796z M18.74,20.418  c0.285-0.265,1.355-1,1.355-1l-0.162-0.232c-0.016-0.035-0.01-0.071,0.004-0.108c0.203-0.158,0.416-0.298,0.643-0.425  c0.236,0.12,0.395-0.021,0.395-0.021l0.071-0.182l-0.012-0.044C21.639,18.146,22.303,18,23,18c0.496,0,0.967,0.095,1.42,0.23  l0.643,0.645l0.27-0.271c0.953,0.509,1.723,1.304,2.184,2.284l-0.48-0.088l-0.789-0.305l0.449,0.607l0.322-0.143  c0,0,0.395,0.377,0.377,0.502s-0.609,0.699-0.609,0.699l-0.519,0.186l-0.684-0.563l-0.521-0.43l0.323,0.771l0.431,0.447  c0,0,0.754-0.107,0.86-0.018c0.108,0.09-0.143,0.771-0.143,0.771l-1.256,1.291l-0.126,1.291c-0.699,0.359-0.771,0.912-0.771,0.912  s-0.178-0.033-0.645,0.488c-0.467,0.518-0.969,0.383-0.969,0.383c-0.592,0-0.699-0.383-0.699-0.51c0-0.125-0.592-1.094-0.592-1.418  c0-0.322,0.18-0.717,0.18-0.717c0.035-0.467-0.467-1.721-0.467-1.721h-0.52l-0.18-0.395c-1.686,0.359-1.758-0.072-2.009-0.539  c-0.195-0.363-0.065-1.197,0.079-1.645C18.617,20.637,18.676,20.525,18.74,20.418z M19.066,24.025L20,24.959l-1.152,0.822  c-0.355-0.529-0.613-1.129-0.746-1.774L19.066,24.025z"/>
<g fill-opacity="0.5" stroke-opacity="0.5">
<rect fill="none" height="30" width="30"/>
</g>
</svg>
