<?xml version="1.0" encoding="UTF-8"?>
<!DOCTYPE svg PUBLIC "-//W3C//DTD SVG 1.1 Tiny//EN" "http://www.w3.org/Graphics/SVG/1.1/DTD/svg11-tiny.dtd">
<svg baseProfile="tiny" height="60" viewBox="0 0 60 60" width="60" xmlns="http://www.w3.org/2000/svg" xmlns:xlink="http://www.w3.org/1999/xlink">
<g>
<rect fill="none" height="60" width="60"/>
<linearGradient gradientTransform="matrix(1 0 0 1 -200.5 -1768.5)" gradientUnits="userSpaceOnUse" id="SVGID_1_" x1="240.1621" x2="240.1621" y1="1779.4043" y2="1824.6136">
<stop offset="0" style="stop-color:#7EB8BC"/>
<stop offset="1" style="stop-color:#465684"/>
</linearGradient>
<polygon fill="url(#SVGID_1_)" points="49.361,9.213 57.039,10.264 57.039,53.138 43.52,54.988 30.002,52.297 22.284,53.751 "/>
<linearGradient gradientTransform="matrix(1 0 0 1 -200.5 -1768.5)" gradientUnits="userSpaceOnUse" id="SVGID_2_" x1="237.2617" x2="237.2617" y1="1791.29" y2="1823.7784">
<stop offset="0" style="stop-color:#B0DDC1"/>
<stop offset="1" style="stop-color:#5586A0"/>
</linearGradient>
<polygon fill="url(#SVGID_2_)" points="43.52,21.685 43.52,54.988 30.002,52.297 30.002,41.25 "/>
<polygon fill-opacity="0.25" points="50.26,9.347 43.52,23.584 30.002,43.172 23.378,53.564 20.226,54.149   47.881,9.016 " stroke-opacity="0.25"/>
<linearGradient gradientTransform="matrix(1 0 0 1 -200.5 -1768.5)" gradientUnits="userSpaceOnUse" id="SVGID_3_" x1="224.7246" x2="224.7246" y1="1777.3057" y2="1823.4724">
<stop offset="0" style="stop-color:#E4E0C1"/>
<stop offset="1" style="stop-color:#B39C4D"/>
</linearGradient>
<polygon fill="url(#SVGID_3_)" points="45.482,11.152 43.414,22.27 30.002,41.725 22.334,53.759 15.733,54.988 2.966,52.584   2.966,9.338 15.358,8.413 30.002,10.446 43.52,8.413 "/>
<linearGradient gradientTransform="matrix(1 0 0 1 -200.5 -1768.5)" gradientUnits="userSpaceOnUse" id="SVGID_4_" x1="223.3672" x2="223.3672" y1="1821.5967" y2="1778.4828">
<stop offset="0" style="stop-color:#A17945"/>
<stop offset="1" style="stop-color:#C6BD82"/>
</linearGradient>
<polygon fill="url(#SVGID_4_)" points="30.002,10.446 30.002,41.725 22.334,53.759 15.733,54.988 15.733,8.466 "/>
<linearGradient gradientTransform="matrix(1 0 0 1 -200.5 -1768.5)" gradientUnits="userSpaceOnUse" id="SVGID_5_" x1="246.9512" x2="246.9512" y1="1790.3203" y2="1777.6716">
<stop offset="0" style="stop-color:#A17945"/>
<stop offset="1" style="stop-color:#C6BD82"/>
</linearGradient>
<polygon fill="url(#SVGID_5_)" points="43.52,8.413 43.52,22.115 49.383,9.217 "/>
<path d="M16.483,54.842l11.49-17.231l-4.842-2.408l-7.341,10.153  l-7.165,8.278l-2.291-0.423l9.408-11.076l5.523-7.851l-5.782-2.847L2.966,28.87v-1.32l12.995,2.686l6.069,2.979l6.841-9.601  l-13.34-6.657L2.966,14.749v-2.042l12.971,2.171l13.968,6.972l4.002-6.801l-3.909-1.375l-5.803-4.013l2.769,0.382l3.052,2.232  l4.547,1.656l2.688-4.564L39.88,8.99l-3.501,5.915l4.996,2.688l2.188-3.465l2.255-5.396l1.271,0.173l-3.554,7.663  c0,0-8.687,13.462-13.519,20.691L18.318,54.506L16.483,54.842z M28.84,36.606l-4.9-2.489l6.734-9.471l4.502,2.188L28.84,36.606z   M31.749,22.77l4.711,2.353l4.219-6.434l-4.955-2.665L31.749,22.77L31.749,22.77z" fill="#FFFFFF" fill-opacity="0.25" stroke-opacity="0.25"/>
<linearGradient gradientTransform="matrix(1 0 0 1 -200.5 -1768.5)" gradientUnits="userSpaceOnUse" id="SVGID_6_" x1="225.3965" x2="225.3965" y1="1823.0439" y2="1789.2549">
<stop offset="0" style="stop-color:#DBD3AE"/>
<stop offset="0.81" style="stop-color:#F5F3E8"/>
<stop offset="1" style="stop-color:#F5F3E8"/>
</linearGradient>
<path d="M46.023,8.754l-2.476,5.931c0,0-1.334,2.112-2.077,3.276l-5.482-2.949l3.524-5.947l-1.787,0.241  l-3.056,4.998l-4.625-1.697l-3.417-2.63l-2.114-0.292l5.51,3.755l4.268,1.503l-4.276,7.272l-14.135-7.055L2.966,12.979v1.483  l12.621,2.208l13.674,6.826l-0.164,0.277l-6.977,9.795l-6.365-3.099L2.961,27.85l0.005,0.742l12.754,2.651l5.965,2.939l-5.926,8.307  l-9.111,10.79l1.693,0.316l7.417-8.591l7.281-10.156l5.416,2.667L16.876,54.777l1.051-0.198l12.09-18.127l13.55-20.397l3.266-7.185  L46.023,8.754z M30.012,34.986l-1.265,1.946l-5.27-2.696l6.605-9.38l0.519-0.685l5.139,2.564L30.012,34.986z M36.559,25.482  l-5.202-2.598l4.261-7.232l5.453,2.936L36.559,25.482z" fill="url(#SVGID_6_)"/>
<polygon fill="#FFFFFF" points="38.253,47.876 43.529,36.76 48.269,47.876 43.529,45.003 "/>
<polygon fill-opacity="0.4" points="48.269,47.876 43.529,36.76 43.529,45.003 " stroke-opacity="0.4"/>
<ellipse cx="22.188" cy="28.443" fill="#333333" fill-opacity="0.2" rx="6.056" ry="2.335" stroke-opacity="0.2"/>
<path d="M24.975,28.442c0,0.592-1.25,1.073-2.786,1.073  c-1.536,0-2.787-0.482-2.787-1.073c0-0.596,1.25-1.076,2.787-1.076C23.724,27.367,24.975,27.847,24.975,28.442z" fill="#333333" fill-opacity="0.4" stroke-opacity="0.4"/>
<path d="M30.108,6.172c-1.354,0.957-3.687,2.304-4.689,2.304c-0.001,0-0.001,0-0.003,0  c-0.229-0.027-0.567-0.25-0.927-0.485c-0.718-0.468-1.704-1.113-3.139-1.124c-1.059,0-2.665,1.035-3.74,1.829l-0.667-1.729  L11.995,8.87l1.134,2.934l0.667-0.256l5.98,15.49l2.866,2.022l0.742-3.411l-1.496-3.874l0.268-0.689  c0.55-1.418,1.795-3.936,2.793-4.645c0.263-0.185,0.994-0.554,1.581-0.849c0.595-0.301,1.11-0.558,1.413-0.751  c2.499-1.603,3.411-7.21,3.505-7.845l0.296-1.983L30.108,6.172z" fill-opacity="0.6" stroke-opacity="0.6"/>
<linearGradient gradientTransform="matrix(0.9331 -0.3596 -0.3596 -0.9331 -489.4615 -2117.6033)" gradientUnits="userSpaceOnUse" id="SVGID_7_" x1="-293.0366" x2="-295.1697" y1="-2176.2671" y2="-2176.2671">
<stop offset="0" style="stop-color:#8D8E8E"/>
<stop offset="0.65" style="stop-color:#D9D9D9"/>
<stop offset="1" style="stop-color:#B0B2B1"/>
</linearGradient>
<polygon fill="url(#SVGID_7_)" points="14.286,10.442 16.297,9.666 22.493,25.715 22.077,27.618 20.482,26.49 "/>
<linearGradient gradientTransform="matrix(0.9331 -0.3596 -0.3596 -0.9331 -489.4615 -2117.6033)" gradientUnits="userSpaceOnUse" id="SVGID_8_" x1="-292.3564" x2="-295.8871" y1="-2166.1377" y2="-2166.1377">
<stop offset="0" style="stop-color:#4F4F4F"/>
<stop offset="0.59" style="stop-color:#BFBFBF"/>
<stop offset="1" style="stop-color:#6B6B6B"/>
</linearGradient>
<polygon fill="url(#SVGID_8_)" points="13.103,9.361 16.452,8.072 16.968,9.411 13.619,10.699 "/>
<rect fill-opacity="0.2" height="0.717" stroke-opacity="0.2" transform="matrix(-0.9328 0.3603 -0.3603 -0.9328 33.5485 14.5261)" width="2.155" x="14.343" y="10.032"/>
<path d="M17.225,10.08c0,0,2.878-2.366,4.131-2.354c1.958,0.013,2.896,1.477,3.959,1.601  c1.55,0.183,5.289-2.455,5.289-2.455s-0.877,5.81-3.122,7.253c-0.59,0.375-2.456,1.218-3.026,1.624  c-1.583,1.123-3.099,5.035-3.099,5.035L17.225,10.08z" fill="#4F7D5A"/>
<path d="M21.652,8.488c1.958,0.018,2.897,1.48,3.958,1.605  c1.2,0.139,3.708-1.408,4.78-2.114c0.14-0.665,0.209-1.11,0.209-1.11s-3.739,2.638-5.29,2.455c-1.059-0.124-1.999-1.588-3.957-1.602  c-1.252-0.009-4.13,2.355-4.13,2.355l0.297,0.768C17.521,10.848,20.398,8.48,21.652,8.488z" fill="#FFFFFF" fill-opacity="0.4" stroke-opacity="0.4"/>
</g>
</svg>
