<?xml version="1.0" encoding="UTF-8"?>
<!DOCTYPE svg PUBLIC "-//W3C//DTD SVG 1.1 Tiny//EN" "http://www.w3.org/Graphics/SVG/1.1/DTD/svg11-tiny.dtd">
<svg baseProfile="tiny" height="60" viewBox="0 0 60 60" width="60" xmlns="http://www.w3.org/2000/svg" xmlns:xlink="http://www.w3.org/1999/xlink">
<g>
<rect fill="none" height="60" width="60"/>
<g>
<radialGradient cx="-1374.2305" cy="2708.6123" gradientTransform="matrix(0 1 1 0 -2678.1238 1416.3748)" gradientUnits="userSpaceOnUse" id="SVGID_1_" r="36.2612">
<stop offset="0" style="stop-color:#C0A26F"/>
<stop offset="0.297" style="stop-color:#C0A26F"/>
<stop offset="0.6667" style="stop-color:#954749"/>
<stop offset="0.7939" style="stop-color:#BE8A6B"/>
<stop offset="1" style="stop-color:#BE8A6B"/>
</radialGradient>
<path d="M17.884,35.418c0.413-0.078,0.579-0.318,0.603-0.895c0.027-0.721,0.29-3.172,0.431-3.764   c0.124-0.521,0.342-0.805,0.941-0.98c0.75-0.22,3.188-1.037,10.143-1.038c6.954,0,9.393,0.807,10.141,1.038   c0.651,0.201,0.777,0.389,0.941,0.98c0.162,0.586,0.402,3.043,0.431,3.764c0.024,0.576,0.16,0.82,0.577,0.883   c0.731,0.113,13.291,2.238,14.601,2.502c0.794,0.16,1.237,0.045,1.292-0.705c0.231-3.012-2.009-7.641-3.005-9.067   c-0.887-1.274-1.687-2.667-3.82-3.557c-2.028-0.845-12.133-2.548-21.158-2.548c-9.026-0.001-19.132,1.704-21.159,2.548   c-2.133,0.889-2.935,2.282-3.82,3.555c-0.995,1.429-3.237,6.055-3.006,9.069c0.058,0.748,0.5,0.863,1.292,0.703   C4.62,37.645,17.169,35.549,17.884,35.418z" fill="url(#SVGID_1_)"/>
<linearGradient gradientTransform="matrix(0 1 1 0 -2678.1238 1416.3748)" gradientUnits="userSpaceOnUse" id="SVGID_2_" x1="-1383.7373" x2="-1383.3947" y1="2721.2969" y2="2718.4587">
<stop offset="0" style="stop-color:#905A46"/>
<stop offset="1" style="stop-color:#6B2E36"/>
</linearGradient>
<path d="M40.145,29.779c0.65,0.202,0.775,0.39,0.94,0.981c0.162,0.584,0.401,3.043,0.431,3.762   c0.024,0.578,0.16,0.82,0.576,0.885c0.046,0.008,0.062,0.01,0.063,0.01c0.244,0.039,0.993,0.164,2.039,0.342   c-0.026-0.258-0.37-3.525-1.036-4.357C41.938,29.877,40.145,29.779,40.145,29.779z" fill="url(#SVGID_2_)"/>
<linearGradient gradientTransform="matrix(0 1 -1 0 -3579.3215 1416.3782)" gradientUnits="userSpaceOnUse" id="SVGID_3_" x1="-1383.7422" x2="-1383.3992" y1="-3596.1938" y2="-3599.0347">
<stop offset="0" style="stop-color:#905A46"/>
<stop offset="1" style="stop-color:#6B2E36"/>
</linearGradient>
<path d="M19.841,29.779c-0.654,0.203-0.778,0.39-0.942,0.981c-0.163,0.586-0.404,3.045-0.433,3.766   c-0.021,0.574-0.158,0.818-0.574,0.883c-0.047,0.008-0.061,0.01-0.061,0.01c-0.245,0.039-0.994,0.164-2.041,0.338   c0.028-0.254,0.371-3.523,1.036-4.355C18.043,29.876,19.841,29.779,19.841,29.779z" fill="url(#SVGID_3_)"/>
<linearGradient gradientTransform="matrix(0.7071 0.7071 0.7071 -0.7071 51.2805 -77.5527)" gradientUnits="userSpaceOnUse" id="SVGID_4_" x1="78.5283" x2="43.332" y1="-72.9224" y2="-108.1187">
<stop offset="0" style="stop-color:#D3C59A"/>
<stop offset="1" style="stop-color:#D0BA98"/>
</linearGradient>
<path d="M5.021,28.75c0.887-1.275,1.688-2.668,3.819-3.555   c2.029-0.846,12.134-2.55,21.16-2.549c9.027-0.001,19.13,1.703,21.161,2.549c2.131,0.888,2.933,2.28,3.819,3.554   c0.912,1.311,2.875,5.32,3.009,8.3c0.146-3.016-2.031-7.511-3.009-8.915c-0.888-1.274-1.688-2.666-3.82-3.556   c-2.028-0.845-12.134-2.548-21.158-2.549c-9.027,0.001-19.133,1.706-21.16,2.55c-2.133,0.889-2.935,2.282-3.82,3.555   c-0.979,1.404-3.158,5.899-3.009,8.915C2.146,34.068,4.108,30.06,5.021,28.75z" fill="url(#SVGID_4_)" fill-opacity="0.5" stroke-opacity="0.5"/>
<linearGradient gradientTransform="matrix(0.7071 0.7071 0.7071 -0.7071 51.2805 -77.5527)" gradientUnits="userSpaceOnUse" id="SVGID_5_" x1="82.8936" x2="42.849" y1="-73.0874" y2="-113.132">
<stop offset="0" style="stop-color:#D3C59A"/>
<stop offset="1" style="stop-color:#D0BA98"/>
</linearGradient>
<path d="M17.884,35.418c0.413-0.078,0.579-0.318,0.603-0.895   c0.027-0.721,0.29-3.172,0.431-3.764c0.124-0.521,0.342-0.805,0.941-0.98c0.75-0.22,3.188-1.037,10.143-1.038   c6.954,0,9.393,0.807,10.141,1.038c0.651,0.201,0.777,0.389,0.941,0.98c0.162,0.586,0.402,3.043,0.431,3.764   c0.024,0.576,0.16,0.82,0.577,0.883c0.731,0.113,13.291,2.238,14.601,2.502c0.794,0.16,1.237,0.045,1.292-0.705   c0.027-0.354,0.018-0.73-0.017-1.119c-0.094,0.643-0.526,0.748-1.276,0.594c-1.311-0.262-13.869-2.385-14.6-2.5   c-0.418-0.064-0.553-0.307-0.576-0.883c-0.029-0.719-0.27-3.177-0.433-3.765c-0.163-0.59-0.287-0.777-0.941-0.979   c-0.746-0.229-3.188-1.039-10.14-1.037c-6.954,0-9.393,0.817-10.143,1.037c-0.599,0.176-0.816,0.459-0.94,0.981   c-0.141,0.59-0.403,3.042-0.433,3.763c-0.022,0.576-0.189,0.816-0.603,0.893C17.168,34.32,4.62,36.414,3.309,36.68   c-0.751,0.15-1.183,0.049-1.275-0.596c-0.036,0.389-0.044,0.766-0.018,1.119c0.058,0.748,0.5,0.861,1.292,0.703   C4.62,37.645,17.169,35.549,17.884,35.418z" fill="url(#SVGID_5_)" fill-opacity="0.5" stroke-opacity="0.5"/>
<linearGradient gradientTransform="matrix(0 1 1 0 -2702.5007 1379.2039)" gradientUnits="userSpaceOnUse" id="SVGID_6_" x1="-1353.1973" x2="-1353.1973" y1="2756.7813" y2="2707.613">
<stop offset="0" style="stop-color:#885F4A"/>
<stop offset="0.5" style="stop-color:#4F2430"/>
<stop offset="1" style="stop-color:#885F4A"/>
</linearGradient>
<path d="M6.355,27.326c2.275-0.843,14.095-2.529,23.646-2.53   c9.552,0,21.371,1.687,23.646,2.53c0.431,0.161,0.804,0.343,1.144,0.531c-0.233-0.341-0.472-0.685-0.733-1.024   c-0.069-0.028-0.127-0.056-0.196-0.082c-2.309-0.856-14.245-2.568-23.858-2.568c-9.616,0-21.553,1.71-23.862,2.566   c-0.07,0.028-0.128,0.058-0.198,0.085c-0.26,0.339-0.5,0.685-0.733,1.023C5.554,27.667,5.924,27.487,6.355,27.326z" fill="url(#SVGID_6_)" fill-opacity="0.5" stroke-opacity="0.5"/>
</g>
</g>
<g transform="matrix(1 0 0 1 30 30)">
<rect fill="none" height="30" width="30"/>
<path d="M15,29.5C7.004,29.5,0.5,22.996,0.5,15C0.5,7.004,7.004,0.5,15,0.5  c7.995,0,14.5,6.505,14.5,14.5S22.995,29.5,15,29.5L15,29.5z" fill-opacity="0.35" stroke-opacity="0.35"/>
<radialGradient cx="435.2295" cy="910.6348" gradientTransform="matrix(0.618 0 0 0.618 -253.9715 -552.4329)" gradientUnits="userSpaceOnUse" id="SVGID_1__" r="28.704">
<stop offset="0" style="stop-color:#B4DFC6"/>
<stop offset="0.5" style="stop-color:#72B9C3"/>
<stop offset="1" style="stop-color:#546F9F"/>
</radialGradient>
<circle cx="15" cy="15" fill="url(#SVGID_1__)" r="13.464"/>
<path d="M27.983,14.263c-0.299-5.259-3.704-9.788-8.679-11.54l-0.605,0.1L15.18,2.15  l-4.386,2.615l-0.165,1.102H8.083l1.006,1.71L6.365,9.8l-0.635,2.744l2.25,3.987l2.297-0.469l0.839,0.723l0.655,0.064l0.433,1.691  l-0.571,1.484l2.084,5.332h2.126l2.107-1.701v-0.695l0.557-0.863l0.459-0.236c-0.116,0.18-0.3,0.586-0.3,0.586  c-0.02,0.139,0.299,2.855,1.234,2.643c0.711-0.16,3.248-4.873,3.296-5.322c0.096-0.887-0.387-1.252-0.683-1.391l-0.329-0.156  l-1.515,1.52c-0.162,0.012-0.309,0.039-0.44,0.078v-1.26l1.645-1.605l0.837-2.698l1.275-1.038l-0.28-0.508l0.962-0.926l-0.538-0.979  l0.41,0.049l2.396,5.362l0.49-0.39c-0.015-0.262-0.043-0.521-0.073-0.779L27.983,14.263z M15.161,8.231l-0.2-0.535h1.202  l0.586,1.316h-0.871V8.23L15.161,8.231L15.161,8.231z M19.129,10.882l0.961,1.402l0.064,0.168l-0.984-0.595l-0.234-0.848  L19.129,10.882z M20.573,13.331l0.29,0.29l-0.375,0.084l-0.085-0.104L20.573,13.331z M13.06,3.903l0.611,0.946l-0.694,0.212  l-0.271-0.154L13.06,3.903z" fill-opacity="0.3" stroke-opacity="0.3"/>
<linearGradient gradientTransform="matrix(1.7647 0 0 1.7647 -572.9794 -733.5799)" gradientUnits="userSpaceOnUse" id="SVGID_2__" x1="333.1904" x2="333.1904" y1="416.6045" y2="431.9054">
<stop offset="0" style="stop-color:#6DACBC"/>
<stop offset="0.497" style="stop-color:#5778A3"/>
<stop offset="1" style="stop-color:#D3E0D8"/>
</linearGradient>
<path d="M15,1.536C7.564,1.536,1.536,7.565,1.536,15  c0,7.439,6.029,13.464,13.464,13.464c7.438,0,13.465-6.027,13.465-13.464C28.465,7.565,22.438,1.536,15,1.536z M15,27.428  C8.146,27.428,2.571,21.854,2.571,15C2.571,8.147,8.146,2.571,15,2.571S27.428,8.147,27.428,15  C27.428,21.854,21.854,27.428,15,27.428z" fill="url(#SVGID_2__)" fill-opacity="0.3" stroke-opacity="0.3"/>
<radialGradient cx="333.6309" cy="418.627" gradientTransform="matrix(1.7647 0 0 1.7647 -572.9794 -733.5799)" gradientUnits="userSpaceOnUse" id="SVGID_3__" r="9.0429">
<stop offset="0" style="stop-color:#96BE67"/>
<stop offset="0.3152" style="stop-color:#96BE67"/>
<stop offset="0.7273" style="stop-color:#468D53"/>
<stop offset="1" style="stop-color:#387463"/>
</radialGradient>
<path d="M22.296,18.848l-1.401,1.402c0,0-0.848,0-0.887,0.336c-0.02,0.145-0.065,0.771-0.208,1.094  c-0.282,0.195-0.619,0.842-0.619,0.842s-0.175,1.25,0.761,1.037C20.871,23.35,23.734,19.523,22.296,18.848z" fill="url(#SVGID_3__)"/>
<radialGradient cx="333.6299" cy="418.6211" gradientTransform="matrix(1.7647 0 0 1.7647 -572.9794 -733.5799)" gradientUnits="userSpaceOnUse" id="SVGID_4__" r="10.4663">
<stop offset="0" style="stop-color:#96BE67"/>
<stop offset="0.3152" style="stop-color:#96BE67"/>
<stop offset="0.7273" style="stop-color:#468D53"/>
<stop offset="1" style="stop-color:#387463"/>
</radialGradient>
<path d="M19.132,3.213c-0.23,0.087-0.387,0.146-0.387,0.146l-3.463-0.663L13.583,3.76l0.894,1.383  l-1.563,0.48l-0.842-0.48l0.296-0.84l-1.098,0.76l-0.196,1.324H8.988L9.759,7.7l-2.932,2.39l-0.552,2.387l1.088,2.107L8.018,15  l2.297-0.469l0.839,0.721l0.763,0.074l0.83,3.246l-0.552,1.436l1.22,2.697l0.343,1.119h2.126l1.202-0.65l0.905-1.053V20.85  l1.724-0.881v-1.885l0.681-1.297l1.521-1.366l0.363-1.585l-1.988,0.443l-0.522-0.637l0.371-0.594l-1.411-0.854l-0.601-2.164  l1.042-0.68l0.96,1.402l0.359,0.922l0.722,0.721l0.842,0.44l0.936-0.151l1.039-1l-0.731-1.334l-0.921,0.24l-0.833-0.991l0.791-0.552  l2.482,0.301v0.883l2.161,4.452l0.491-0.393C27.176,9.158,23.783,4.849,19.132,3.213z M18.004,9.23l-1.134,0.3h-1.511V8.749h-1.443  L12.774,9.05l-1.741-0.482l-0.482-0.901l2.404-0.541h2.406L15,6.164h1.202l0.67,1.503l1.134,0.398V9.23H18.004z M20.589,7.247  l-2.044-0.361V6.165l1.022-0.24l0.3-0.36l0.722,0.6V7.247L20.589,7.247z" fill="url(#SVGID_4__)"/>
</g>
</svg>
