<?xml version="1.0" encoding="UTF-8"?>
<!DOCTYPE svg PUBLIC "-//W3C//DTD SVG 1.1 Tiny//EN" "http://www.w3.org/Graphics/SVG/1.1/DTD/svg11-tiny.dtd">
<svg baseProfile="tiny" height="30px" version="1.1" viewBox="0 0 30 30" width="30px" x="0px" xmlns="http://www.w3.org/2000/svg" xmlns:xlink="http://www.w3.org/1999/xlink" y="0px">
<rect fill="none" height="30" width="30"/>
<path d="M27.693,26.372c0.389,0.389,0.41,1.005,0.048,1.368c-0.362,0.362-0.978,0.343-1.366-0.046L2.307,3.625  C1.918,3.236,1.896,2.621,2.26,2.258c0.363-0.362,0.979-0.34,1.367,0.049L27.693,26.372z"/>
<path d="M25.799,6.65L20.85,1.701c-1.172-1.172-3.071-1.172-4.243,0L11.26,7.049l3.545,3.545c0.514,0.075,1.009,0.302,1.404,0.697  c0.395,0.396,0.623,0.891,0.697,1.404l3.545,3.546l5.348-5.348C26.971,9.722,26.971,7.822,25.799,6.65z"/>
<path d="M7.08,11.228l-3.201,3.201c-1.172,1.172-1.172,3.071,0,4.243l4.949,4.949c1.172,1.172,3.071,1.172,4.243,0l3.201-3.201  L7.08,11.228z"/>
<path d="M18.997,27H15v-3.894l-1.222,1.222c-0.5,0.5-1.114,0.835-1.778,1.016V27H7.981C6.948,27,6.107,27.784,6,28.787V30h15v-1  C21,27.896,20.104,27,18.997,27z"/>
</svg>
