<?xml version="1.0" encoding="UTF-8"?>
<!DOCTYPE svg PUBLIC "-//W3C//DTD SVG 1.1 Tiny//EN" "http://www.w3.org/Graphics/SVG/1.1/DTD/svg11-tiny.dtd">
<svg baseProfile="tiny" height="30px" version="1.1" viewBox="0 0 30 30" width="30px" x="0px" xmlns="http://www.w3.org/2000/svg" xmlns:xlink="http://www.w3.org/1999/xlink" y="0px">
<g fill-opacity="0.5" stroke-opacity="0.5">
<rect fill="none" height="30" width="30"/>
</g>
<path d="M28,12h-1v13H12v1c0,1.104,0.896,2,2,2h14c1.104,0,2-0.896,2-2V14C30,12.896,29.104,12,28,12z"/>
<path d="M23,7h-1v13H7v1c0,1.104,0.896,2,2,2h14c1.104,0,2-0.896,2-2V9C25,7.896,24.104,7,23,7z"/>
<path d="M18,2H4C2.896,2,2,2.896,2,4v12c0,1.104,0.896,2,2,2h14c1.104,0,2-0.896,2-2V4C20,2.896,19.104,2,18,2z M17,15H5V5h12V15z"/>
</svg>
