<?xml version="1.0" encoding="UTF-8"?>
<!DOCTYPE svg PUBLIC "-//W3C//DTD SVG 1.1 Tiny//EN" "http://www.w3.org/Graphics/SVG/1.1/DTD/svg11-tiny.dtd">
<svg baseProfile="tiny" height="30px" version="1.1" viewBox="0 0 30 30" width="30px" x="0px" xmlns="http://www.w3.org/2000/svg" xmlns:xlink="http://www.w3.org/1999/xlink" y="0px">
<path d="M28.504,4.637l-6-3.5C22.348,1.045,22.174,1,22,1c-0.172,0-0.344,0.045-0.498,0.133C21.191,1.311,21,1.643,21,2v2v0.027  h-6.521C9.252,4.027,5,8.279,5,13.506c0,0.188,0.005,0.902,0.016,1.088C5.064,15.389,5.723,16,6.509,16c0.03,0,0.061,0,0.091-0.002  c0.825-0.049,1.454-0.758,1.405-1.584c-0.008-0.125-0.011-0.781-0.011-0.908c0-3.576,2.909-6.484,6.486-6.484H21V9  c0,0.357,0.191,0.689,0.502,0.867C21.656,9.955,21.828,10,22,10c0.174,0,0.348-0.045,0.504-0.137l6-3.5  C28.811,6.186,29,5.855,29,5.5S28.811,4.816,28.504,4.637z"/>
<path d="M1.496,25.363l6,3.5C7.652,28.955,7.826,29,8,29c0.172,0,0.344-0.045,0.498-0.133C8.809,28.689,9,28.357,9,28v-2v-0.027  h6.521c5.228,0,9.479-4.252,9.479-9.479c0-0.188-0.006-0.902-0.016-1.088C24.936,14.613,24.277,14,23.491,14  c-0.03,0-0.061,0-0.091,0.002c-0.825,0.049-1.453,0.76-1.405,1.584c0.008,0.125,0.011,0.781,0.011,0.908  c0,3.576-2.908,6.486-6.485,6.486H9V21c0-0.357-0.191-0.689-0.502-0.867C8.344,20.045,8.172,20,8,20  c-0.174,0-0.348,0.045-0.504,0.137l-6,3.5C1.189,23.816,1,24.145,1,24.5S1.189,25.186,1.496,25.363z"/>
<rect fill="none" height="30" width="30"/>
</svg>
