<?xml version="1.0" encoding="UTF-8"?>
<!DOCTYPE svg PUBLIC "-//W3C//DTD SVG 1.1 Tiny//EN" "http://www.w3.org/Graphics/SVG/1.1/DTD/svg11-tiny.dtd">
<svg baseProfile="tiny" height="60" viewBox="0 0 60 60" width="60" xmlns="http://www.w3.org/2000/svg" xmlns:xlink="http://www.w3.org/1999/xlink">
<g>
<rect fill="none" height="60" width="60"/>
<linearGradient gradientTransform="matrix(1 -0.0051 0.0051 1 335.906 -1118.9601)" gradientUnits="userSpaceOnUse" id="SVGID_1_" x1="-311.7573" x2="-311.7573" y1="1119.6411" y2="1175.6382">
<stop offset="0" style="stop-color:#D3D7D5"/>
<stop offset="0.6909" style="stop-color:#848888"/>
<stop offset="1" style="stop-color:#A7ABAA"/>
</linearGradient>
<path d="M29.857,2.002C14.394,2.082,1.922,14.679,2.001,30.143S14.68,58.079,30.145,57.999  C45.605,57.921,58.079,45.321,58,29.858C57.92,14.396,45.322,1.924,29.857,2.002z M30.035,37.199  c-3.977,0.021-7.215-3.187-7.235-7.162c-0.018-3.977,3.185-7.218,7.163-7.237c3.977-0.021,7.217,3.188,7.236,7.163  C37.221,33.938,34.014,37.179,30.035,37.199z" fill="url(#SVGID_1_)"/>
<linearGradient gradientTransform="matrix(1 -0.0051 0.0051 1 335.906 -1118.9601)" gradientUnits="userSpaceOnUse" id="SVGID_2_" x1="-311.7583" x2="-311.7583" y1="1135.5718" y2="1159.377">
<stop offset="0" style="stop-color:#FFFFFF"/>
<stop offset="1" style="stop-color:#CFCFCF"/>
</linearGradient>
<path d="M29.939,18.001C23.312,18.034,17.967,23.435,18,30.063c0.035,6.625,5.433,11.972,12.061,11.936  c6.627-0.032,11.972-5.432,11.938-12.061C41.966,23.31,36.566,17.966,29.939,18.001z M30.032,36.399  c-3.534,0.018-6.413-2.833-6.433-6.367c-0.016-3.533,2.833-6.414,6.367-6.432c3.533-0.017,6.415,2.833,6.434,6.367  C36.418,33.503,33.566,36.381,30.032,36.399z" fill="url(#SVGID_2_)"/>
<linearGradient gradientTransform="matrix(-1 0.0051 -0.0051 -1 -1180.5496 3117.9622)" gradientUnits="userSpaceOnUse" id="SVGID_3_" x1="-1253.3975" x2="-1199.1357" y1="3067.8501" y2="3067.8501">
<stop offset="0" style="stop-color:#A3A6A6"/>
<stop offset="0.5" style="stop-color:#FFFFFF"/>
<stop offset="1" style="stop-color:#A3A6A6"/>
</linearGradient>
<path d="M30.135,56.55C15.348,56.626,3.267,44.851,2.884,30.139  c-0.003,0.191-0.013,0.386-0.011,0.583c0.076,14.98,12.283,27.067,27.267,26.994c14.987-0.079,27.074-12.285,26.995-27.27  c-0.001-0.195-0.013-0.389-0.018-0.582C56.883,44.577,44.925,56.476,30.135,56.55z" fill="url(#SVGID_3_)" fill-opacity="0.3" stroke-opacity="0.3"/>
<linearGradient gradientTransform="matrix(1 -0.0051 0.0051 1 335.906 -1118.9601)" gradientUnits="userSpaceOnUse" id="SVGID_4_" x1="-318.1577" x2="-305.3569" y1="1150.27" y2="1150.27">
<stop offset="0" style="stop-color:#878B8B"/>
<stop offset="0.5" style="stop-color:#FFFFFF"/>
<stop offset="1" style="stop-color:#878B8B"/>
</linearGradient>
<path d="M30.032,36.399c3.534-0.019,6.386-2.896,6.368-6.432c-0.002-0.204-0.014-0.403-0.035-0.6  c-0.285,3.254-3.006,6.014-6.338,6.03c-3.333,0.019-6.082-2.715-6.399-5.967c-0.017,0.199-0.029,0.399-0.028,0.601  C23.619,33.566,26.498,36.417,30.032,36.399z" fill="url(#SVGID_4_)"/>
<linearGradient gradientTransform="matrix(1 0 0 1 347 -1116.5)" gradientUnits="userSpaceOnUse" id="SVGID_5_" x1="-317.0005" x2="-317.0005" y1="1119.7017" y2="1173.7001">
<stop offset="0" style="stop-color:#72B9C3"/>
<stop offset="1" style="stop-color:#546F9F"/>
</linearGradient>
<path d="M29.861,2.802C14.838,2.878,2.723,15.118,2.8,30.139c0.079,15.021,12.318,27.134,27.34,27.06  c15.022-0.076,27.136-12.314,27.06-27.335C57.122,14.838,44.881,2.725,29.861,2.802z M30.059,41.539  c-6.373,0.032-11.564-5.106-11.596-11.479h-0.004c-0.033-6.375,5.109-11.565,11.481-11.598c6.375-0.033,11.565,5.105,11.597,11.479  h0.002C41.572,36.315,36.43,41.507,30.059,41.539z" fill="url(#SVGID_5_)"/>
<path d="M4.15,35.341C1.33,21.725,9.627,8.188,23.037,4.521  c2.186-0.598,4.444-0.907,6.708-0.918c11.248-0.056,21.622,7.281,25.237,17.844l0.275,0.806l-13.574,3.709l-0.267-0.655  c-1.885-4.605-6.5-7.685-11.491-7.657c-1.072,0.005-2.142,0.151-3.18,0.435c-6.014,1.646-9.861,7.526-8.959,13.682l0.103,0.702  L4.32,36.177L4.15,35.341z" fill="#FFFFFF" fill-opacity="0.2" stroke-opacity="0.2"/>
<rect fill="none" height="60" width="60"/>
</g>
<g transform="matrix(1 0 0 1 30 30)">
<polygon fill="none" points="24.728,0 23.608,0.487 0,0.487 0,30.487 30,30.487 30,0.487 24.928,0.487 "/>
<path d="M7.991,30.324c-3.295,0-5.976-1.69-6.668-4.205c-0.366-1.331-0.159-2.734,0.6-4.06  c1.063-1.86,3.062-3.301,5.478-3.952c0.873-0.235,1.762-0.355,2.639-0.355c0.927,0,1.816,0.133,2.635,0.389V5.247L24.728,0  l1.526,3.717l0.018-0.007l0.389,0.963l0.609,1.563l-10.565,4.318c0.008,2.6,0.003,5.635-0.001,8.204  c-0.003,2.014-0.006,3.74-0.002,4.745c0.016,2.839-2.473,5.497-6.049,6.463C9.771,30.203,8.875,30.324,7.991,30.324L7.991,30.324z" fill-opacity="0.35" stroke-opacity="0.35"/>
<linearGradient gradientTransform="matrix(1 0 0 -1 2194 2908.0361)" gradientUnits="userSpaceOnUse" id="SVGID_1__" x1="-2179.9351" x2="-2179.9351" y1="2902.811" y2="2880.1646">
<stop offset="0" style="stop-color:#93BD66"/>
<stop offset="1" style="stop-color:#22403B"/>
</linearGradient>
<path d="M25.98,5.682l-1.79-4.357L13.902,5.902l0.016,13.899c-1.574-1.029-3.896-1.366-6.257-0.729  c-3.722,1.003-6.127,4.041-5.374,6.78c0.756,2.742,4.383,4.15,8.104,3.146c3.146-0.849,5.324-3.094,5.311-5.493  c-0.01-2.399,0.02-8.913,0-13.625L25.98,5.682z" fill="url(#SVGID_1__)"/>
<linearGradient gradientTransform="matrix(0.5 0 0 0.5 614.8193 -1693.241)" gradientUnits="userSpaceOnUse" id="SVGID_2__" x1="-1201.8184" x2="-1201.8184" y1="3393.1226" y2="3404.4397">
<stop offset="0" style="stop-color:#72B9C3"/>
<stop offset="1" style="stop-color:#546F9F"/>
</linearGradient>
<polygon fill="url(#SVGID_2__)" points="13.918,17.409 13.907,5.902 13.902,5.902 13.916,17.408 "/>
<linearGradient gradientTransform="matrix(0.5 0 0 0.5 614.8193 -1693.241)" gradientUnits="userSpaceOnUse" id="SVGID_3__" x1="-1187.957" x2="-1187.957" y1="3393.1177" y2="3404.4392">
<stop offset="0" style="stop-color:#A6C87E"/>
<stop offset="1" style="stop-color:#1C3533"/>
</linearGradient>
<path d="M15.701,9.169c0.005,0.759,0.006-0.117,0.008,0.711L25.98,5.682l-0.252-0.646L15.701,9.169z" fill="url(#SVGID_3__)"/>
<linearGradient gradientTransform="matrix(0.5 -0.0026 0.0026 0.5 604.1579 -1699.019)" gradientUnits="userSpaceOnUse" id="SVGID_4__" x1="-1188.0039" x2="-1188.0039" y1="3402.1909" y2="3430.4734">
<stop offset="0" style="stop-color:#BCD39A"/>
<stop offset="1" style="stop-color:#1C3533"/>
</linearGradient>
<polygon fill="url(#SVGID_4__)" points="14.072,20.2 14.072,6.3 24.389,1.807 24.19,1.324 13.674,5.902 13.674,19.803 "/>
<linearGradient gradientTransform="matrix(1 0 0 -1 2194 2908.0361)" gradientUnits="userSpaceOnUse" id="SVGID_5__" x1="-2185.0737" x2="-2185.0737" y1="2887.9233" y2="2879.6807">
<stop offset="0" style="stop-color:#B7CC97"/>
<stop offset="0.4667" style="stop-color:#347940"/>
<stop offset="1" style="stop-color:#173636"/>
</linearGradient>
<path d="M7.96,28.527c-2.474,0.012-4.447-1.129-4.909-2.839c-0.28-1.039,0.018-2.187,0.84-3.229  c0.9-1.141,2.291-2.007,3.923-2.436c0.688-0.184,1.385-0.277,2.075-0.281c2.474-0.013,4.445,1.129,4.91,2.84  c0.615,2.267-1.522,4.807-4.764,5.664C9.347,28.43,8.647,28.522,7.96,28.527L7.96,28.527z" fill="url(#SVGID_5__)"/>
<rect fill="none" height="30" width="30" y="0.487"/>
</g>
</svg>
