<?xml version="1.0" encoding="UTF-8"?>
<!DOCTYPE svg PUBLIC "-//W3C//DTD SVG 1.1 Tiny//EN" "http://www.w3.org/Graphics/SVG/1.1/DTD/svg11-tiny.dtd">
<svg baseProfile="tiny" height="60" viewBox="0 0 60 60" width="60" xmlns="http://www.w3.org/2000/svg" xmlns:xlink="http://www.w3.org/1999/xlink">
<g>
<rect fill="none" height="60" width="60"/>
<linearGradient gradientUnits="userSpaceOnUse" id="SVGID_1_" x1="30" x2="30" y1="2.001" y2="57.8555">
<stop offset="0" style="stop-color:#D3D7D5"/>
<stop offset="0.0667" style="stop-color:#D3D7D5"/>
<stop offset="0.2606" style="stop-color:#BFC2C1"/>
<stop offset="0.6606" style="stop-color:#989D9D"/>
<stop offset="0.9636" style="stop-color:#AFB3B2"/>
<stop offset="1" style="stop-color:#5B5B5D"/>
</linearGradient>
<path d="M48.027,54.932c0,1.693-1.375,3.069-3.068,3.069h-29.92c-1.693,0-3.066-1.376-3.066-3.069V5.07  c0-1.696,1.373-3.069,3.066-3.069h29.92c1.693,0,3.068,1.373,3.068,3.069V54.932z" fill="url(#SVGID_1_)"/>
<linearGradient gradientUnits="userSpaceOnUse" id="SVGID_2_" x1="30" x2="30" y1="2.001" y2="56.899">
<stop offset="0" style="stop-color:#E7EAE8"/>
<stop offset="0.0667" style="stop-color:#E7EAE8"/>
<stop offset="0.2606" style="stop-color:#D8DCDA"/>
<stop offset="0.6606" style="stop-color:#B7BDBB"/>
<stop offset="1" style="stop-color:#AFB3B2"/>
</linearGradient>
<path d="M44.959,2.001h-29.92c-1.693,0-3.066,1.373-3.066,3.069v49.861c0,0.82,0.324,1.56,0.848,2.11  c-0.047-0.187-0.08-0.377-0.08-0.575v-1.535V6.602V5.07c0-1.271,1.031-2.304,2.299-2.304h29.92c1.268,0,2.301,1.033,2.301,2.304  v1.531v48.33v1.535c0,0.198-0.033,0.389-0.08,0.575c0.521-0.551,0.848-1.29,0.848-2.11V5.07C48.027,3.374,46.652,2.001,44.959,2.001  z" fill="url(#SVGID_2_)"/>
<linearGradient gradientUnits="userSpaceOnUse" id="SVGID_3_" x1="30" x2="30" y1="5.8916" y2="43.4283">
<stop offset="0" style="stop-color:#B8BBBA"/>
<stop offset="1" style="stop-color:#F4FBF6"/>
</linearGradient>
<rect fill="url(#SVGID_3_)" fill-opacity="0.6" height="37.589" stroke-opacity="0.6" width="31.453" x="14.273" y="5.836"/>
<linearGradient gradientUnits="userSpaceOnUse" id="SVGID_4_" x1="29.999" x2="29.999" y1="6.6548" y2="42.6624">
<stop offset="0" style="stop-color:#6E6E6E"/>
<stop offset="1" style="stop-color:#333333"/>
</linearGradient>
<rect fill="url(#SVGID_4_)" height="36.058" width="29.92" x="15.039" y="6.602"/>
<linearGradient gradientUnits="userSpaceOnUse" id="SVGID_5_" x1="30" x2="30" y1="7.4214" y2="41.894">
<stop offset="0" style="stop-color:#70B4B6"/>
<stop offset="0.3879" style="stop-color:#5F8BA1"/>
<stop offset="0.8909" style="stop-color:#455188"/>
<stop offset="1" style="stop-color:#455188"/>
</linearGradient>
<rect fill="url(#SVGID_5_)" height="34.521" width="28.383" x="15.809" y="7.37"/>
<linearGradient gradientUnits="userSpaceOnUse" id="SVGID_6_" x1="30" x2="30" y1="7.9712" y2="21.69">
<stop offset="0" style="stop-color:#AADAC6"/>
<stop offset="1" style="stop-color:#6A99AA"/>
</linearGradient>
<polygon fill="url(#SVGID_6_)" points="44.191,19.644 15.809,22.712 15.809,8.137 44.191,8.137 "/>
<rect fill="#BCE2D2" height="0.767" width="28.383" x="15.809" y="7.37"/>
<linearGradient gradientUnits="userSpaceOnUse" id="SVGID_7_" x1="30.2236" x2="30.2236" y1="5.8726" y2="2.8032">
<stop offset="0" style="stop-color:#FFFFFF"/>
<stop offset="1" style="stop-color:#D3D7D5"/>
</linearGradient>
<path d="M26.832,5.836c-0.861,0-1.535-0.563-1.535-1.279v-0.51c0-0.718,0.674-1.28,1.535-1.28h6.785  c0.859,0,1.533,0.563,1.533,1.28v0.51c0,0.716-0.674,1.279-1.533,1.279H26.832z" fill="url(#SVGID_7_)"/>
<linearGradient gradientUnits="userSpaceOnUse" id="SVGID_8_" x1="30.2236" x2="30.2236" y1="3.2158" y2="5.1992">
<stop offset="0" style="stop-color:#6F7172"/>
<stop offset="1" style="stop-color:#BFC2C1"/>
</linearGradient>
<path d="M34.383,4.557c0,0.283-0.342,0.514-0.766,0.514h-6.785c-0.424,0-0.768-0.23-0.768-0.514v-0.51  c0-0.283,0.344-0.512,0.768-0.512h6.785c0.424,0,0.766,0.229,0.766,0.512V4.557z" fill="url(#SVGID_8_)"/>
<linearGradient gradientUnits="userSpaceOnUse" id="SVGID_9_" x1="29.8818" x2="29.8818" y1="44.2236" y2="55.628">
<stop offset="0" style="stop-color:#B8BBBA"/>
<stop offset="1" style="stop-color:#FFFFFF"/>
</linearGradient>
<path d="M27.109,55.7c-1.645,0-2.98-1.323-2.98-2.951v-5.606c0-1.627,1.336-2.951,2.98-2.951  h5.545c1.645,0,2.98,1.324,2.98,2.951v5.606c0,1.628-1.336,2.951-2.98,2.951H27.109z" fill="url(#SVGID_9_)" fill-opacity="0.6" stroke-opacity="0.6"/>
<path d="M27.105,54.932c-1.219,0-2.211-0.979-2.211-2.183v-5.606c0-1.204,0.992-2.183,2.211-2.183  h5.553c1.219,0,2.209,0.979,2.209,2.183v5.606c0,1.204-0.99,2.183-2.209,2.183H27.105z" fill="#020202" fill-opacity="0.5" stroke-opacity="0.5"/>
<linearGradient gradientUnits="userSpaceOnUse" id="SVGID_10_" x1="29.8818" x2="29.8818" y1="45.6865" y2="54.1806">
<stop offset="0" style="stop-color:#A8A9AA"/>
<stop offset="0.703" style="stop-color:#59595A"/>
<stop offset="1" style="stop-color:#818283"/>
</linearGradient>
<path d="M34.102,52.749c0,0.783-0.645,1.417-1.438,1.417h-5.566c-0.793,0-1.436-0.634-1.436-1.417v-5.606  c0-0.783,0.643-1.417,1.436-1.417h5.566c0.793,0,1.438,0.634,1.438,1.417V52.749z" fill="url(#SVGID_10_)"/>
<path d="M28.73,52.632c-0.846,0-1.533-0.688-1.533-1.534v-2.303c0-0.847,0.688-1.534,1.533-1.534  h2.303c0.846,0,1.533,0.688,1.533,1.534v2.303c0,0.847-0.688,1.534-1.533,1.534H28.73z" fill="#020202" fill-opacity="0.2" stroke-opacity="0.2"/>
<linearGradient gradientUnits="userSpaceOnUse" id="SVGID_11_" x1="29.8809" x2="29.8809" y1="48.0103" y2="51.8696">
<stop offset="0" style="stop-color:#D3D7D5"/>
<stop offset="0.0667" style="stop-color:#D3D7D5"/>
<stop offset="0.2606" style="stop-color:#BFC2C1"/>
<stop offset="0.6606" style="stop-color:#989D9D"/>
<stop offset="0.9636" style="stop-color:#AFB3B2"/>
<stop offset="1" style="stop-color:#5B5B5D"/>
</linearGradient>
<path d="M28.73,51.863c-0.422,0-0.768-0.345-0.768-0.766v-2.303c0-0.422,0.346-0.767,0.768-0.767h2.303  c0.42,0,0.766,0.345,0.766,0.767v2.303c0,0.421-0.346,0.766-0.766,0.766H28.73z" fill="url(#SVGID_11_)"/>
<linearGradient gradientUnits="userSpaceOnUse" id="SVGID_12_" x1="17.667" x2="17.667" y1="44.917" y2="54.1816">
<stop offset="0" style="stop-color:#B8BBBA"/>
<stop offset="1" style="stop-color:#F4FBF6"/>
</linearGradient>
<path d="M17.223,54.166c-1.625,0-2.949-1.323-2.949-2.951v-3.307  c0-1.624,1.324-2.948,2.949-2.948h0.887c1.627,0,2.951,1.324,2.951,2.948v3.307c0,1.628-1.324,2.951-2.951,2.951H17.223z" fill="url(#SVGID_12_)" fill-opacity="0.4" stroke-opacity="0.4"/>
<linearGradient gradientUnits="userSpaceOnUse" id="SVGID_13_" x1="17.665" x2="17.665" y1="45.6899" y2="53.4106">
<stop offset="0" style="stop-color:#222021"/>
<stop offset="1" style="stop-color:#6E6E6F"/>
</linearGradient>
<path d="M17.223,53.397c-1.203,0-2.184-0.979-2.184-2.183v-3.307  c0-1.201,0.98-2.183,2.184-2.183h0.887c1.205,0,2.182,0.981,2.182,2.183v3.307c0,1.204-0.977,2.183-2.182,2.183H17.223z" fill="url(#SVGID_13_)" fill-opacity="0.7" stroke-opacity="0.7"/>
<linearGradient gradientUnits="userSpaceOnUse" id="SVGID_14_" x1="17.667" x2="17.667" y1="46.4658" y2="52.6426">
<stop offset="0" style="stop-color:#B3C77D"/>
<stop offset="0.7273" style="stop-color:#3C743A"/>
<stop offset="1" style="stop-color:#235138"/>
</linearGradient>
<path d="M19.525,51.215c0,0.783-0.635,1.417-1.416,1.417h-0.887c-0.779,0-1.414-0.634-1.414-1.417v-3.307  c0-0.78,0.635-1.414,1.414-1.414h0.887c0.781,0,1.416,0.634,1.416,1.414V51.215z" fill="url(#SVGID_14_)"/>
<linearGradient gradientUnits="userSpaceOnUse" id="SVGID_15_" x1="41.6719" x2="41.6719" y1="44.917" y2="54.1816">
<stop offset="0" style="stop-color:#B8BBBA"/>
<stop offset="1" style="stop-color:#F4FBF6"/>
</linearGradient>
<path d="M41.229,54.166c-1.625,0-2.949-1.323-2.949-2.951v-3.307  c0-1.624,1.324-2.948,2.949-2.948h0.885c1.627,0,2.951,1.324,2.951,2.948v3.307c0,1.628-1.324,2.951-2.951,2.951H41.229z" fill="url(#SVGID_15_)" fill-opacity="0.4" stroke-opacity="0.4"/>
<linearGradient gradientUnits="userSpaceOnUse" id="SVGID_16_" x1="41.6709" x2="41.6709" y1="45.6899" y2="53.4106">
<stop offset="0" style="stop-color:#222021"/>
<stop offset="1" style="stop-color:#6E6E6F"/>
</linearGradient>
<path d="M41.229,53.397c-1.203,0-2.184-0.979-2.184-2.183v-3.307  c0-1.201,0.98-2.183,2.184-2.183h0.885c1.205,0,2.184,0.981,2.184,2.183v3.307c0,1.204-0.979,2.183-2.184,2.183H41.229z" fill="url(#SVGID_16_)" fill-opacity="0.7" stroke-opacity="0.7"/>
<linearGradient gradientUnits="userSpaceOnUse" id="SVGID_17_" x1="41.6719" x2="41.6719" y1="46.4658" y2="52.6426">
<stop offset="0" style="stop-color:#C6B17B"/>
<stop offset="0.7455" style="stop-color:#98604F"/>
<stop offset="1" style="stop-color:#7F3736"/>
</linearGradient>
<path d="M43.531,51.215c0,0.783-0.637,1.417-1.418,1.417h-0.885c-0.781,0-1.416-0.634-1.416-1.417v-3.307  c0-0.78,0.635-1.414,1.416-1.414h0.885c0.781,0,1.418,0.634,1.418,1.414V51.215z" fill="url(#SVGID_17_)"/>
<rect fill="none" height="60" width="60"/>
</g>
<g transform="matrix(1 0 0 1 30 30)">
<linearGradient gradientTransform="matrix(1 0 0 -1 -276 -335)" gradientUnits="userSpaceOnUse" id="SVGID_1__" x1="291.0005" x2="291.0005" y1="-358.7285" y2="-363.4325">
<stop offset="0" style="stop-color:#393B41"/>
<stop offset="1" style="stop-color:#4E555C"/>
</linearGradient>
<path d="M29,28.065c0,0.173-0.139,0.311-0.311,0.311H1.312C1.14,28.376,1,28.238,1,28.065v-4.045  C1,23.85,1.14,23.71,1.312,23.71H28.69c0.172,0,0.311,0.14,0.311,0.311V28.065z" fill="url(#SVGID_1__)"/>
<linearGradient gradientTransform="matrix(1 0 0 -1 -276 -335)" gradientUnits="userSpaceOnUse" id="SVGID_2__" x1="291.0005" x2="291.0005" y1="-359.0366" y2="-363.114">
<stop offset="0" style="stop-color:#393B41"/>
<stop offset="1" style="stop-color:#728185"/>
</linearGradient>
<path d="M1.312,24.021v4.045H28.69v-4.045H1.312z M28.377,27.444H1.623v-3.111h26.755V27.444z" fill="url(#SVGID_2__)"/>
<linearGradient gradientTransform="matrix(1 0 0 -1 -276 -335)" gradientUnits="userSpaceOnUse" id="SVGID_3__" x1="291.0005" x2="291.0005" y1="-363.3579" y2="-358.6539">
<stop offset="0" style="stop-color:#393B41"/>
<stop offset="1" style="stop-color:#4E555C"/>
</linearGradient>
<path d="M28.688,23.71H1.312C1.14,23.71,1,23.85,1,24.021v4.045c0,0.173,0.139,0.311,0.311,0.311H28.69  c0.172,0,0.311-0.138,0.311-0.311v-4.045C29,23.85,28.862,23.71,28.688,23.71z M28.688,28.065H1.312v-4.045H28.69v4.045H28.688z" fill="url(#SVGID_3__)"/>
<linearGradient gradientTransform="matrix(1 0 0 -1 -276 -335)" gradientUnits="userSpaceOnUse" id="SVGID_4__" x1="294.5269" x2="297.7813" y1="-348.5991" y2="-348.5991">
<stop offset="0" style="stop-color:#DBDBDB"/>
<stop offset="0.097" style="stop-color:#DBDBDB"/>
<stop offset="0.6848" style="stop-color:#B0B0B0"/>
<stop offset="1" style="stop-color:#DEDEDE"/>
</linearGradient>
<path d="M21.844,17.488c0,0.171-0.139,0.311-0.311,0.311h-2.8c-0.173,0-0.312-0.14-0.312-0.311l0.312-7.778  c0-0.172,0.14-0.311,0.31-0.311h2.18c0.17,0,0.311,0.139,0.311,0.311L21.844,17.488z" fill="url(#SVGID_4__)"/>
<rect fill-opacity="0.3" height="0.312" stroke-opacity="0.3" width="3.422" x="18.422" y="16.555"/>
<rect fill-opacity="0.1" height="0.934" stroke-opacity="0.1" width="3.422" x="18.422" y="15.933"/>
<rect fill-opacity="0.1" height="0.312" stroke-opacity="0.1" width="3.422" x="18.422" y="16.243"/>
<path d="M21.223,9.399h-2.18c-0.17,0-0.31,0.139-0.31,0.311v0.311  c0-0.171,0.14-0.311,0.31-0.311h2.18c0.17,0,0.311,0.14,0.311,0.311V9.71C21.534,9.538,21.393,9.399,21.223,9.399z" fill="#FFFFFF" fill-opacity="0.5" stroke-opacity="0.5"/>
<linearGradient gradientTransform="matrix(1 0 0 -1 -276 -335)" gradientUnits="userSpaceOnUse" id="SVGID_5__" x1="294.856" x2="297.4459" y1="-341.7549" y2="-341.7549">
<stop offset="0" style="stop-color:#DBDBDB"/>
<stop offset="0.097" style="stop-color:#DBDBDB"/>
<stop offset="0.6848" style="stop-color:#919191"/>
<stop offset="1" style="stop-color:#B8B8B8"/>
</linearGradient>
<path d="M21.223,9.399l-0.313-4.979c0-0.172-0.139-0.311-0.311-0.311h-0.934  c-0.172,0-0.311,0.139-0.311,0.311l-0.311,4.979H21.223z" fill="url(#SVGID_5__)"/>
<path d="M20.6,4.11h-0.934c-0.172,0-0.311,0.139-0.311,0.311v0.311  c0-0.172,0.139-0.311,0.311-0.311H20.6c0.172,0,0.311,0.139,0.311,0.311V4.421C20.911,4.249,20.772,4.11,20.6,4.11z" fill="#FFFFFF" fill-opacity="0.5" stroke-opacity="0.5"/>
<rect fill-opacity="0.3" height="0.313" stroke-opacity="0.3" width="2.18" x="19.043" y="9.087"/>
<rect fill-opacity="0.1" height="0.312" stroke-opacity="0.1" width="2.18" x="19.043" y="8.775"/>
<rect fill-opacity="0.1" height="0.934" stroke-opacity="0.1" width="2.18" x="19.043" y="8.466"/>
<linearGradient gradientTransform="matrix(1 0 0 -1 -276 -335)" gradientUnits="userSpaceOnUse" id="SVGID_6__" x1="291.0005" x2="291.0005" y1="-351.8955" y2="-359.4225">
<stop offset="0" style="stop-color:#E2E4E3"/>
<stop offset="1" style="stop-color:#565656"/>
</linearGradient>
<path d="M29,18.076c0-0.667-0.543-1.21-1.213-1.21H2.212C1.543,16.866,1,17.408,1,18.076v6.257h28V18.076z" fill="url(#SVGID_6__)"/>
<linearGradient gradientTransform="matrix(1 0 0 -1 -276 -335)" gradientUnits="userSpaceOnUse" id="SVGID_7__" x1="290.9995" x2="290.9995" y1="-352.3604" y2="-359.4167">
<stop offset="0" style="stop-color:#D5D5D5"/>
<stop offset="1" style="stop-color:#919191"/>
</linearGradient>
<path d="M28.752,17.954c0-0.343-0.278-0.621-0.623-0.621H1.87c-0.345,0-0.623,0.278-0.623,0.621v6.379h27.505  V17.954z" fill="url(#SVGID_7__)"/>
<path d="M1.029,17.799c0.07-0.268,0.551-0.466,0.841-0.466h26.259  c0.291,0,0.768,0.198,0.837,0.466l0,0c-0.126-0.534-0.604-0.933-1.177-0.933H2.212C1.639,16.866,1.155,17.265,1.029,17.799  L1.029,17.799z" fill="#FFFFFF" fill-opacity="0.5" stroke-opacity="0.5"/>
<linearGradient gradientTransform="matrix(1 0 0 -1 -276 -335)" gradientUnits="userSpaceOnUse" id="SVGID_8__" x1="282.4448" x2="282.4448" y1="-357.3369" y2="-353.5188">
<stop offset="0" style="stop-color:#9F9F9F"/>
<stop offset="1" style="stop-color:#7E7E7F"/>
</linearGradient>
<rect fill="url(#SVGID_8__)" height="4.166" width="1.666" x="5.611" y="18.36"/>
<linearGradient gradientTransform="matrix(1 0 0 -1 -276 -335)" gradientUnits="userSpaceOnUse" id="SVGID_9__" x1="282.4438" x2="282.4438" y1="-357.249" y2="-353.6387">
<stop offset="0" style="stop-color:#B3C77D"/>
<stop offset="0.7273" style="stop-color:#3C743A"/>
<stop offset="1" style="stop-color:#235138"/>
</linearGradient>
<rect fill="url(#SVGID_9__)" height="3.61" width="1.112" x="5.888" y="18.639"/>
<linearGradient gradientTransform="matrix(1 0 0 -1 -276 -335)" gradientUnits="userSpaceOnUse" id="SVGID_10__" x1="279.3892" x2="279.3892" y1="-357.3369" y2="-353.5188">
<stop offset="0" style="stop-color:#9F9F9F"/>
<stop offset="1" style="stop-color:#7E7E7F"/>
</linearGradient>
<rect fill="url(#SVGID_10__)" height="4.166" width="1.667" x="2.555" y="18.36"/>
<linearGradient gradientTransform="matrix(1 0 0 -1 -276 -335)" gradientUnits="userSpaceOnUse" id="SVGID_11__" x1="279.3892" x2="279.3892" y1="-357.249" y2="-353.6387">
<stop offset="0" style="stop-color:#B3C77D"/>
<stop offset="0.7273" style="stop-color:#3C743A"/>
<stop offset="1" style="stop-color:#235138"/>
</linearGradient>
<rect fill="url(#SVGID_11__)" height="3.61" width="1.112" x="2.833" y="18.639"/>
<linearGradient gradientTransform="matrix(1 0 0 -1 -276 -335)" gradientUnits="userSpaceOnUse" id="SVGID_12__" x1="285.5005" x2="285.5005" y1="-357.3369" y2="-353.5188">
<stop offset="0" style="stop-color:#9F9F9F"/>
<stop offset="1" style="stop-color:#7E7E7F"/>
</linearGradient>
<rect fill="url(#SVGID_12__)" height="4.166" width="1.667" x="8.666" y="18.36"/>
<linearGradient gradientTransform="matrix(1 0 0 -1 -276 -335)" gradientUnits="userSpaceOnUse" id="SVGID_13__" x1="285.5005" x2="285.5005" y1="-357.249" y2="-353.6387">
<stop offset="0" style="stop-color:#393B41"/>
<stop offset="1" style="stop-color:#4E555C"/>
</linearGradient>
<rect fill="url(#SVGID_13__)" height="3.61" width="1.111" x="8.944" y="18.639"/>
<rect fill="#FFFFFF" fill-opacity="0.5" height="0.278" stroke-opacity="0.5" width="1.112" x="5.888" y="18.639"/>
<rect fill="#FFFFFF" fill-opacity="0.5" height="0.278" stroke-opacity="0.5" width="1.112" x="2.833" y="18.639"/>
<rect fill-opacity="0.3" height="0.311" stroke-opacity="0.3" width="28" x="1" y="24.333"/>
<rect fill-opacity="0.1" height="0.311" stroke-opacity="0.1" width="28" x="1" y="24.644"/>
<rect fill="#FFFFFF" fill-opacity="0.2" height="0.312" stroke-opacity="0.2" width="28" x="1" y="24.021"/>
<rect fill-opacity="0.1" height="0.311" stroke-opacity="0.1" width="28" x="1" y="23.71"/>
<linearGradient gradientTransform="matrix(-0.7071 -0.7071 0.7071 -0.7071 442.0565 10.7984)" gradientUnits="userSpaceOnUse" id="SVGID_14__" x1="309.5308" x2="302.8252" y1="-296.5103" y2="-303.1235">
<stop offset="0" style="stop-color:#B3C77D"/>
<stop offset="0.7273" style="stop-color:#3C743A"/>
<stop offset="1" style="stop-color:#235138"/>
</linearGradient>
<path d="M13.818,1.625l1.387,1.386c-1.81,1.809-1.809,4.753,0,6.563l-1.386,1.387  C11.245,8.386,11.245,4.198,13.818,1.625z" fill="url(#SVGID_14__)"/>
<linearGradient gradientTransform="matrix(-0.7071 -0.7071 0.7071 -0.7071 442.0565 10.7984)" gradientUnits="userSpaceOnUse" id="SVGID_15__" x1="307.0698" x2="300.3655" y1="-294.0181" y2="-300.6301">
<stop offset="0" style="stop-color:#B3C77D"/>
<stop offset="0.7273" style="stop-color:#3C743A"/>
<stop offset="1" style="stop-color:#235138"/>
</linearGradient>
<path d="M16.963,3.382l1.387,1.385c-0.841,0.842-0.841,2.209,0,3.049l-1.387,1.387  C15.359,7.599,15.359,4.987,16.963,3.382z" fill="url(#SVGID_15__)"/>
<linearGradient gradientTransform="matrix(1 0 0 -1 -276 -335)" gradientUnits="userSpaceOnUse" id="SVGID_16__" x1="289.5513" x2="289.5513" y1="-345.8452" y2="-334.9367">
<stop offset="0" style="stop-color:#9AB06A"/>
<stop offset="1" style="stop-color:#367039"/>
</linearGradient>
<path d="M13.819,10.529c-1.231-1.232-1.867-2.835-1.919-4.452c-0.057,1.76,0.58,3.54,1.919,4.881  l1.386-1.386c-0.072-0.073-0.137-0.15-0.203-0.226L13.819,10.529z" fill="url(#SVGID_16__)"/>
<linearGradient gradientTransform="matrix(1 0 0 -1 -276 -335)" gradientUnits="userSpaceOnUse" id="SVGID_17__" x1="293.0571" x2="293.0571" y1="-344.208" y2="-338.9822">
<stop offset="0" style="stop-color:#9AB06A"/>
<stop offset="1" style="stop-color:#367039"/>
</linearGradient>
<path d="M16.963,8.772c-0.748-0.749-1.141-1.714-1.193-2.695C15.713,7.2,16.106,8.345,16.963,9.2  l1.387-1.387c-0.074-0.072-0.133-0.154-0.193-0.235L16.963,8.772z" fill="url(#SVGID_17__)"/>
<path d="M13.818,2.055l1.184,1.181c0.066-0.074,0.131-0.152,0.203-0.225l-1.387-1.386  c-1.341,1.342-1.975,3.12-1.918,4.881C11.952,4.888,12.586,3.287,13.818,2.055z" fill="#FFFFFF" fill-opacity="0.5" stroke-opacity="0.5"/>
<path d="M16.963,3.812l1.193,1.192c0.061-0.08,0.119-0.162,0.193-0.237l-1.387-1.385  c-0.857,0.856-1.25,2.002-1.193,3.124C15.823,5.524,16.217,4.56,16.963,3.812z" fill="#FFFFFF" fill-opacity="0.5" stroke-opacity="0.5"/>
<linearGradient gradientTransform="matrix(0.7071 -0.7071 -0.7071 -0.7071 201.7121 10.7984)" gradientUnits="userSpaceOnUse" id="SVGID_18_" x1="-117.2642" x2="-123.9698" y1="130.2861" y2="123.6729">
<stop offset="0" style="stop-color:#B3C77D"/>
<stop offset="0.7273" style="stop-color:#3C743A"/>
<stop offset="1" style="stop-color:#235138"/>
</linearGradient>
<path d="M26.377,1.625l-1.387,1.386c1.809,1.809,1.809,4.753,0,6.563l1.385,1.387  C28.95,8.386,28.95,4.198,26.377,1.625z" fill="url(#SVGID_18_)"/>
<linearGradient gradientTransform="matrix(0.7071 -0.7071 -0.7071 -0.7071 201.7121 10.7984)" gradientUnits="userSpaceOnUse" id="SVGID_19_" x1="-119.7256" x2="-126.43" y1="132.7783" y2="126.1663">
<stop offset="0" style="stop-color:#B3C77D"/>
<stop offset="0.7273" style="stop-color:#3C743A"/>
<stop offset="1" style="stop-color:#235138"/>
</linearGradient>
<path d="M23.231,3.382l-1.387,1.385c0.842,0.842,0.842,2.209,0,3.049l1.387,1.387  C24.836,7.599,24.836,4.987,23.231,3.382z" fill="url(#SVGID_19_)"/>
<linearGradient gradientTransform="matrix(-1 0 0 -1 919.7686 -335)" gradientUnits="userSpaceOnUse" id="SVGID_20_" x1="893.1245" x2="893.1245" y1="-345.8447" y2="-334.9362">
<stop offset="0" style="stop-color:#9AB06A"/>
<stop offset="1" style="stop-color:#367039"/>
</linearGradient>
<path d="M26.375,10.529c1.232-1.232,1.867-2.835,1.92-4.452c0.057,1.76-0.578,3.54-1.92,4.881l-1.387-1.386  c0.072-0.073,0.137-0.15,0.204-0.226L26.375,10.529z" fill="url(#SVGID_20_)"/>
<linearGradient gradientTransform="matrix(-1 0 0 -1 919.7686 -335)" gradientUnits="userSpaceOnUse" id="SVGID_21_" x1="896.6313" x2="896.6313" y1="-344.2075" y2="-338.9817">
<stop offset="0" style="stop-color:#9AB06A"/>
<stop offset="1" style="stop-color:#367039"/>
</linearGradient>
<path d="M23.231,8.772c0.746-0.749,1.143-1.714,1.193-2.695C24.482,7.2,24.086,8.345,23.231,9.2  l-1.387-1.387c0.074-0.072,0.133-0.154,0.191-0.235L23.231,8.772z" fill="url(#SVGID_21_)"/>
<path d="M26.377,2.055l-1.185,1.181c-0.067-0.074-0.132-0.152-0.202-0.225l1.387-1.386  c1.34,1.342,1.975,3.12,1.918,4.881C28.243,4.888,27.608,3.287,26.377,2.055z" fill="#FFFFFF" fill-opacity="0.5" stroke-opacity="0.5"/>
<path d="M23.231,3.812l-1.195,1.192c-0.059-0.08-0.117-0.162-0.191-0.237l1.387-1.385  c0.855,0.856,1.251,2.002,1.193,3.124C24.374,5.524,23.977,4.56,23.231,3.812z" fill="#FFFFFF" fill-opacity="0.5" stroke-opacity="0.5"/>
<linearGradient gradientTransform="matrix(1 0 0 -1 -276 -335)" gradientUnits="userSpaceOnUse" id="SVGID_22_" x1="302.5112" x2="302.5112" y1="-360.3394" y2="-362.1274">
<stop offset="0" style="stop-color:#393B41"/>
<stop offset="1" style="stop-color:#4E555C"/>
</linearGradient>
<path d="M25.579,27.132c-0.35,0-0.623-0.233-0.623-0.533v-0.711c0-0.299,0.273-0.533,0.623-0.533h1.867  c0.348,0,0.621,0.234,0.621,0.533v0.711c0,0.3-0.273,0.533-0.621,0.533H25.579z" fill="url(#SVGID_22_)"/>
<path d="M27.755,26.599c0,0.123-0.138,0.223-0.31,0.223h-1.867  c-0.172,0-0.311-0.1-0.311-0.223v-0.711c0-0.121,0.139-0.222,0.311-0.222h1.867c0.172,0,0.31,0.099,0.31,0.222V26.599z" fill="#76B2BE" fill-opacity="0.5" stroke-opacity="0.5"/>
<rect fill="none" height="30" width="30"/>
</g>
</svg>
