<?xml version="1.0" encoding="UTF-8"?>
<!DOCTYPE svg PUBLIC "-//W3C//DTD SVG 1.1 Tiny//EN" "http://www.w3.org/Graphics/SVG/1.1/DTD/svg11-tiny.dtd">
<svg baseProfile="tiny" height="30" viewBox="0 0 30 30" width="30" xmlns="http://www.w3.org/2000/svg" xmlns:xlink="http://www.w3.org/1999/xlink">
<g>
<rect fill="none" height="30" width="30"/>
<polygon fill-opacity="0.6" points="11,29 11,19 1,19 1,11 11,11 11,1 19,1 19,11 29,11 29,19 19,19 19,29 "/>
<polygon fill="url(#SVGID_1_)" points="28,12 18,12 18,2 12,2 12,12 2,12 2,18 12,18 12,28 18,28 18,18 28,18 "/>
<rect fill="#FFFFFF" fill-opacity="0.4" height="1" stroke-opacity="0.4" width="6" x="12" y="2"/>
<rect fill="#FFFFFF" fill-opacity="0.4" height="1" stroke-opacity="0.4" width="10" x="2" y="12"/>
<rect fill="#FFFFFF" fill-opacity="0.4" height="1" stroke-opacity="0.4" width="10" x="18" y="12"/>
<rect fill="none" height="30" width="30"/>
<defs>
<linearGradient gradientTransform="matrix(1 0 0 1 -578.9609 -812.0391)" gradientUnits="userSpaceOnUse" id="SVGID_1_" x1="593.9609" x2="593.9609" y1="814.0391" y2="840.0391">
<stop offset="0" style="stop-color:#6DADC1"/>
<stop offset="1" style="stop-color:#3B518A"/>
</linearGradient>
</defs>
</g>
</svg>
