<?xml version="1.0" encoding="UTF-8"?>
<!DOCTYPE svg PUBLIC "-//W3C//DTD SVG 1.1 Tiny//EN" "http://www.w3.org/Graphics/SVG/1.1/DTD/svg11-tiny.dtd">
<svg baseProfile="tiny" height="30px" version="1.1" viewBox="0 0 30 30" width="30px" x="0px" xmlns="http://www.w3.org/2000/svg" xmlns:xlink="http://www.w3.org/1999/xlink" y="0px">
<g>
<rect fill="none" height="30" width="30"/>
</g>
<path d="M27,7c-1.104,0-2,0.896-2,2v6H11v-3c0-0.375-0.209-0.718-0.542-0.889C10.313,11.037,10.156,11,10,11  c-0.205,0-0.408,0.063-0.581,0.186l-7,5.001C2.156,16.374,2,16.678,2,17c0,0.323,0.156,0.626,0.419,0.814l7,5  C9.592,22.938,9.795,23,10,23c0.156,0,0.313-0.037,0.457-0.111C10.791,22.718,11,22.375,11,22v-3h16c1.104,0,2-0.896,2-2V9  C29,7.896,28.104,7,27,7z"/>
</svg>
