<?xml version="1.0" encoding="UTF-8"?>
<!DOCTYPE svg PUBLIC "-//W3C//DTD SVG 1.1 Tiny//EN" "http://www.w3.org/Graphics/SVG/1.1/DTD/svg11-tiny.dtd">
<svg baseProfile="tiny" height="30px" version="1.1" viewBox="0 0 30 30" width="30px" x="0px" xmlns="http://www.w3.org/2000/svg" xmlns:xlink="http://www.w3.org/1999/xlink" y="0px">
<g fill-opacity="0.5" stroke-opacity="0.5">
<rect fill="none" height="30" width="30"/>
</g>
<path d="M10.299,11.343c-0.303,0-0.526,0.111-0.681,0.34c-0.117,0.172-0.255,0.586-0.255,1.581c0,0.598,0.081,1.026,0.24,1.271  c0.144,0.221,0.356,0.328,0.65,0.328c0.318,0,0.553-0.112,0.72-0.342c0.179-0.247,0.27-0.613,0.27-1.087  c0-0.727-0.089-1.274-0.266-1.627C10.817,11.49,10.602,11.343,10.299,11.343z"/>
<path d="M27,4H3C1.896,4,1,4.896,1,6v18c0,1.104,0.896,2,2,2h24c1.104,0,2-0.896,2-2V6C29,4.896,28.104,4,27,4z M12.347,18.002  c-0.627,0.857-1.563,1.292-2.781,1.292c-0.428,0-0.915-0.048-1.447-0.144l-0.165-0.029v-1.435l0.25,0.065  c0.345,0.089,0.735,0.134,1.157,0.134c0.59,0,1.019-0.174,1.31-0.532c0.247-0.305,0.413-0.785,0.495-1.434  c-0.37,0.217-0.806,0.327-1.3,0.327c-0.81,0-1.438-0.27-1.869-0.801c-0.42-0.519-0.634-1.253-0.634-2.183  c0-1.021,0.252-1.832,0.749-2.41c0.504-0.586,1.237-0.884,2.176-0.884c0.981,0,1.735,0.352,2.242,1.046  c0.499,0.684,0.742,1.793,0.742,3.39C13.271,15.954,12.959,17.164,12.347,18.002z M21.925,19.2h-1.994v-5.435l-1.325,2.529h-0.916  l-1.331-2.531V19.2h-2v-9.137h1.669l2.123,4.042l2.123-4.042h1.651V19.2z"/>
</svg>
