<?xml version="1.0" encoding="UTF-8"?>
<!DOCTYPE svg PUBLIC "-//W3C//DTD SVG 1.1 Tiny//EN" "http://www.w3.org/Graphics/SVG/1.1/DTD/svg11-tiny.dtd">
<svg baseProfile="tiny" height="30px" version="1.1" viewBox="0 0 30 30" width="30px" x="0px" xmlns="http://www.w3.org/2000/svg" xmlns:xlink="http://www.w3.org/1999/xlink" y="0px">
<g fill-opacity="0.5" stroke-opacity="0.5">
<rect fill="none" height="30" width="30"/>
</g>
<path d="M15,1C7.267,1,1,7.268,1,15c0,7.73,6.267,14,14,14c7.73,0,14-6.27,14-14C29,7.268,22.73,1,15,1z M15,26  C8.924,26,3.999,21.074,3.999,15C3.999,8.924,8.924,4,15,4c6.074,0,11,4.924,11,11C26,21.074,21.074,26,15,26z"/>
<path d="M24.714,14.297h-0.026h-2.5v1.5h1.017c-0.164,1.705-0.851,3.255-1.896,4.498l-0.725-0.725l-1.061,1.061l1.768,1.768  l0.007-0.007l0.021,0.02c2.097-1.79,3.432-4.445,3.432-7.411C24.75,14.763,24.731,14.53,24.714,14.297z"/>
<path d="M20.938,14.014h-4.906V6.008h-2v9h0.001c0,0.002-0.001,0.004-0.001,0.006c0,0.238,0.095,0.447,0.233,0.618l4.212,4.272  l1.414-1.414l-2.477-2.477h3.523V14.014z"/>
</svg>
