<?xml version="1.0" encoding="UTF-8"?>
<!DOCTYPE svg PUBLIC "-//W3C//DTD SVG 1.1 Tiny//EN" "http://www.w3.org/Graphics/SVG/1.1/DTD/svg11-tiny.dtd">
<svg baseProfile="tiny" height="30px" version="1.1" viewBox="0 0 30 30" width="30px" x="0px" xmlns="http://www.w3.org/2000/svg" xmlns:xlink="http://www.w3.org/1999/xlink" y="0px">
<polygon points="7.45,17.72 0,11.495 0,23.867 "/>
<path d="M22,8H2C1.228,8,0.566,8.442,0.232,9.083l10.322,8.626c0.424,0.327,0.837,0.512,1.294,0.522c0.02,0,0.086,0,0.105,0  c0.456-0.011,0.87-0.195,1.293-0.522l10.5-8.663C23.407,8.426,22.757,8,22,8z"/>
<path d="M14,24c0-0.892,0.393-1.731,1.078-2.303l2.421-2.019l-1.737-1.451l-1.242,1.024c-0.845,0.652-1.652,0.959-2.519,0.979  h-0.024h-0.128c-0.913-0.021-1.72-0.327-2.513-0.937l-1.104-0.922l-7.979,6.582C0.593,25.574,1.243,26,2,26h12.786  C14.291,25.452,14,24.75,14,24z"/>
<path d="M21.079,16.695C21.618,16.247,22.3,16,23,16c0.341,0,0.678,0.076,1,0.19V11.43l-7.454,6.15l1.733,1.448L21.079,16.695z"/>
<path d="M23,30c-0.229,0-0.457-0.079-0.641-0.231l-6-5C16.132,24.578,16,24.297,16,24s0.132-0.578,0.359-0.768l6-5  C22.543,18.079,22.771,18,23,18c0.144,0,0.289,0.031,0.424,0.095C23.775,18.259,24,18.612,24,19v2h5c0.553,0,1,0.448,1,1v4  c0,0.553-0.447,1-1,1h-5v2c0,0.389-0.225,0.741-0.576,0.906C23.289,29.969,23.144,30,23,30L23,30z"/>
<g>
<rect fill="none" height="30" width="30"/>
</g>
<path d="M23,4H6C4.896,4,4,4.896,4,6h19c1.654,0,3,1.346,3,3v10h2V9C28,6.244,25.757,4,23,4z"/>
</svg>
