<?xml version="1.0" encoding="UTF-8"?>
<!DOCTYPE svg PUBLIC "-//W3C//DTD SVG 1.1 Tiny//EN" "http://www.w3.org/Graphics/SVG/1.1/DTD/svg11-tiny.dtd">
<svg baseProfile="tiny" height="30px" version="1.1" viewBox="0 0 30 30" width="30px" x="0px" xmlns="http://www.w3.org/2000/svg" xmlns:xlink="http://www.w3.org/1999/xlink" y="0px">
<g fill-opacity="0.5" stroke-opacity="0.5">
<rect fill="none" height="30" width="30"/>
</g>
<path d="M19.676,3.48l-5.662,3.268c-0.279,0.117-0.592,0.043-0.732-0.195l-0.984-1.648c-0.002,0-0.002,0.006-0.004,0.006V4.906  c-0.861,0.447-2.783,1.709-3.99,2.916c-1.256,1.258-2.422,2.609-3.398,4.289c0,0-0.004,0.008-0.006,0.008  c0.008,0,0.014,0,0.021,0.002l2.096,1.342c0.264,0.17,0.318,0.543,0.123,0.828l-3.689,5.418c-0.195,0.283-0.566,0.377-0.83,0.205  c0,0-0.229-0.148-0.787-0.639c0,0,0,0-0.002,0c-0.301-0.266-0.314-0.365-0.604-0.711c-0.244-0.295-0.439-0.588-0.602-0.857  l-0.004-0.002C0.588,17.65,0.559,17.6,0.529,17.547c-0.004-0.008-0.008-0.016-0.01-0.02c-0.301-0.537-0.43-0.932-0.43-0.932  c-0.139-0.529-0.195-2.35,0.432-4.004C0.92,11.543,3.014,8.23,5.459,5.781s6.25-4.885,7.924-5.389  c1.674-0.506,3.002-0.428,3.396-0.287c0,0,1.021,0.334,1.947,1.18c0.307,0.283,0.338,0.295,0.577,0.59v0.006  c0,0,0-0.004-0.001-0.004c0.473,0.582,0.628,0.816,0.628,0.816C20.086,2.959,19.969,3.313,19.676,3.48z"/>
<path d="M26.775,11.223C24.635,9.086,22.02,8,19,8c-3.006,0-5.619,1.088-7.768,3.229C9.088,13.375,8,15.982,8,18.984  c0,3.014,1.086,5.633,3.227,7.783C13.363,28.912,15.979,30,19,30h0.268v-2.775H19c-2.266,0-4.221-0.811-5.813-2.412  c-1.598-1.594-2.406-3.555-2.406-5.828c0-2.268,0.807-4.223,2.396-5.813c1.588-1.588,3.547-2.391,5.822-2.391  c2.266,0,4.232,0.811,5.847,2.408c1.62,1.604,2.442,3.553,2.442,5.795c0,0.979-0.162,1.875-0.496,2.738  c-0.426,1.086-0.994,1.613-1.739,1.613c-0.562,0-1.312-0.209-1.312-2.008v-8.082h-2.799v0.412c-0.662-0.439-1.494-0.662-2.486-0.662  c-1.648,0-2.979,0.615-3.951,1.832c-0.908,1.119-1.369,2.523-1.369,4.172c0,1.639,0.459,3.049,1.367,4.195  c0.99,1.252,2.32,1.887,3.953,1.887c1.258,0,2.32-0.395,3.17-1.174c0.748,1.42,1.9,2.141,3.427,2.141  c1.687,0,2.991-0.832,3.875-2.469C29.64,22.285,30,20.738,30,18.984C30,15.969,28.916,13.357,26.775,11.223z M18.457,15.74  c1.58,0,2.347,1.033,2.347,3.158c0,2.311-0.767,3.436-2.349,3.436c-1.592,0-2.367-1.09-2.367-3.334c0-0.875,0.188-1.602,0.574-2.221  C17.086,16.08,17.674,15.74,18.457,15.74z"/>
</svg>
