<?xml version="1.0" encoding="UTF-8"?>
<!DOCTYPE svg PUBLIC "-//W3C//DTD SVG 1.1 Tiny//EN" "http://www.w3.org/Graphics/SVG/1.1/DTD/svg11-tiny.dtd">
<svg baseProfile="tiny" height="30px" version="1.1" viewBox="0 0 30 30" width="30px" x="0px" xmlns="http://www.w3.org/2000/svg" xmlns:xlink="http://www.w3.org/1999/xlink" y="0px">
<g fill-opacity="0.5" stroke-opacity="0.5">
<rect fill="none" height="30" width="30"/>
</g>
<path d="M20.589,26.309c-1.112,0.479-2.319,0.736-3.567,0.736c-2.41,0-4.675-0.939-6.379-2.644C10.209,23.969,9.827,23.498,9.496,23  H8v-2h0.512C8.182,20.055,8,19.054,8,18.022C8,18.015,8.001,18.008,8.001,18H8v-2h0.235c0.245-1.071,0.676-2.087,1.29-3H8v-2h3.362  c1.599-1.294,3.574-2,5.66-2C19.25,9,21.349,9.811,23,11.277V3c0-1.104-0.896-2-2-2H3C1.896,1,1,1.896,1,3v24c0,1.105,0.896,2,2,2  h18c0.381,0,0.734-0.112,1.037-0.297l-0.518-0.518C21.006,27.672,20.691,27.017,20.589,26.309z M8,6h11v2H8V6z M7,23H5v-2h2V23z   M7,18H5v-2h2V18z M7,13H5v-2h2V13z M7,8H5V6h2V8z"/>
<path d="M12.057,13.058c-2.742,2.742-2.742,7.188,0,9.93c2.742,2.743,7.188,2.743,9.93,0c2.744-2.742,2.744-7.188,0.002-9.931  C19.245,10.314,14.799,10.314,12.057,13.058z M20.568,21.568c-1.957,1.959-5.135,1.959-7.093,0c-1.959-1.958-1.959-5.133,0-7.093  c1.96-1.959,5.136-1.959,7.095-0.001C22.527,16.434,22.527,19.61,20.568,21.568z"/>
<path d="M28.607,26.771l-2.836,2.837c0.521,0.522,1.368,0.522,1.891,0l0.945-0.945C29.131,28.141,29.131,27.294,28.607,26.771z"/>
<path d="M25.771,23.934c-0.439-0.438-1.097-0.485-1.607-0.188l-0.81-0.81c-0.204,0.262-0.42,0.518-0.661,0.759  c-0.238,0.239-0.494,0.455-0.757,0.66l0.809,0.81c-0.298,0.512-0.249,1.169,0.189,1.607l1.891,1.892l2.837-2.837L25.771,23.934z"/>
<path d="M19.834,17.157h-1.672v-1.673c0-0.554-0.449-1.004-1.003-1.004s-1.003,0.45-1.003,1.004v1.673h-1.672  c-0.555,0-1.004,0.449-1.004,1.003c0,0.553,0.449,1.003,1.004,1.003h1.672v1.672c0,0.554,0.449,1.003,1.003,1.003  s1.003-0.449,1.003-1.003v-1.672h1.672c0.555,0,1.004-0.45,1.004-1.003C20.838,17.606,20.389,17.157,19.834,17.157z"/>
</svg>
