<?xml version="1.0" encoding="UTF-8"?>
<!DOCTYPE svg PUBLIC "-//W3C//DTD SVG 1.1 Tiny//EN" "http://www.w3.org/Graphics/SVG/1.1/DTD/svg11-tiny.dtd">
<svg baseProfile="tiny" height="30" viewBox="0 0 30 30" width="30" xmlns="http://www.w3.org/2000/svg" xmlns:xlink="http://www.w3.org/1999/xlink">
<g>
<rect fill-opacity="0.6" height="30" width="30"/>
<linearGradient gradientTransform="matrix(1 0 0 -1 -289.4805 -383.0195)" gradientUnits="userSpaceOnUse" id="SVGID_1_" x1="304.4795" x2="304.4795" y1="-384.2393" y2="-412.4603">
<stop offset="0" style="stop-color:#6DADC1"/>
<stop offset="1" style="stop-color:#3B518A"/>
</linearGradient>
<rect fill="url(#SVGID_1_)" height="28" width="28" x="1" y="1"/>
<linearGradient gradientTransform="matrix(1 0 0 -1 -289.4805 -383.0195)" gradientUnits="userSpaceOnUse" id="SVGID_2_" x1="304.4795" x2="304.4795" y1="-386.209" y2="-410.401">
<stop offset="0" style="stop-color:#E1E1E1"/>
<stop offset="1" style="stop-color:#FFFFFF"/>
</linearGradient>
<rect fill="url(#SVGID_2_)" height="24" width="24" x="3" y="3"/>
<path d="M3,3v24h2V7c0-0.55,0.45-1,1-1h18c0.55,0,1,0.45,1,1v20h2V3H3z" fill-opacity="0.05"/>
<path d="M3,3v24h1V6c0-0.55,0.45-1,1-1h20c0.55,0,1,0.45,1,1v21h1V3H3z" fill-opacity="0.1"/>
<rect fill-opacity="0.1" height="1" width="24" x="3" y="3"/>
<polygon fill-opacity="0.6" points="11.89,22.98 4.213,15.31 8.303,11.22 12.54,15.46 21.7,6.31 25.79,10.4 12.49,23.689 "/>
<linearGradient gradientTransform="matrix(1 0 0 -1 -289.4805 -383.0195)" gradientUnits="userSpaceOnUse" id="SVGID_3_" x1="304.4785" x2="304.4785" y1="-389.9922" y2="-406.6607">
<stop offset="0" style="stop-color:#85AE4A"/>
<stop offset="1" style="stop-color:#2F6F44"/>
</linearGradient>
<polygon fill="url(#SVGID_3_)" points="24.37,10.4 21.7,7.724 12.54,16.88 8.303,12.63 5.627,15.31 12.54,22.221 12.54,22.21   12.55,22.221 "/>
<polygon fill="#FFFFFF" fill-opacity="0.4" points="8.303,13.63 12.54,17.88 21.7,8.724 23.87,10.9 24.37,10.4 21.7,7.724   12.54,16.88 8.303,12.63 5.627,15.31 6.127,15.811 "/>
</g>
</svg>
