<?xml version="1.0" encoding="UTF-8"?>
<!DOCTYPE svg PUBLIC "-//W3C//DTD SVG 1.1 Tiny//EN" "http://www.w3.org/Graphics/SVG/1.1/DTD/svg11-tiny.dtd">
<svg baseProfile="tiny" height="30px" version="1.1" viewBox="0 0 30 30" width="30px" x="0px" xmlns="http://www.w3.org/2000/svg" xmlns:xlink="http://www.w3.org/1999/xlink" y="0px">
<path d="M23.217,4.023l-9-2C14.145,2.008,14.072,2,14,2c-0.226,0-0.446,0.076-0.626,0.22C13.138,2.41,13,2.696,13,3v1v15.357  C12.31,19.129,11.549,19,10.75,19C7.574,19,5,21.016,5,23.5S7.574,28,10.75,28S17,25.984,17,23.5c0-0.134,0-9.82,0-13.809  l5.783,1.285C22.855,10.992,22.928,11,23,11c0,0,0.446-0.076,0.626-0.22C23.862,10.59,24,10.304,24,10V5  C24,4.531,23.675,4.126,23.217,4.023z"/>
<g>
<rect fill="none" height="30" width="30"/>
</g>
<path d="M20,17.014v-1.582C21.043,15.145,21.975,15,22.795,15c1.363,0,2.405,0.279,3.124,0.838C26.64,16.395,27,17.219,27,18.309  c0,0.459-0.104,0.93-0.311,1.412c-0.21,0.48-0.705,1.119-1.488,1.916c-0.573,0.576-0.957,1.008-1.149,1.291  c-0.192,0.287-0.29,0.615-0.29,0.99v0.836h-2.297v-0.965c0-0.619,0.136-1.156,0.407-1.609c0.271-0.453,0.689-0.953,1.257-1.498  c0.598-0.59,0.967-1.037,1.108-1.342c0.142-0.307,0.212-0.607,0.212-0.902c0-0.613-0.171-1.072-0.516-1.379  c-0.343-0.305-0.858-0.459-1.546-0.459C21.718,16.6,20.923,16.736,20,17.014z M22.613,29c-0.398,0-0.735-0.143-1.013-0.428  c-0.278-0.283-0.416-0.629-0.416-1.033s0.138-0.748,0.416-1.029c0.277-0.283,0.614-0.424,1.013-0.424s0.735,0.141,1.014,0.424  c0.277,0.281,0.415,0.625,0.415,1.029s-0.139,0.75-0.421,1.033C23.342,28.857,23.006,29,22.613,29z"/>
</svg>
