<?xml version="1.0" encoding="UTF-8"?>
<!DOCTYPE svg PUBLIC "-//W3C//DTD SVG 1.1 Tiny//EN" "http://www.w3.org/Graphics/SVG/1.1/DTD/svg11-tiny.dtd">
<svg baseProfile="tiny" height="60" viewBox="0 0 60 60" width="60" xmlns="http://www.w3.org/2000/svg" xmlns:xlink="http://www.w3.org/1999/xlink">
<g>
<linearGradient gradientUnits="userSpaceOnUse" id="SVGID_1_" x1="23.5464" x2="23.5464" y1="13.1836" y2="47.804">
<stop offset="0" style="stop-color:#CBBCA5"/>
<stop offset="1" style="stop-color:#735851"/>
</linearGradient>
<path d="M1,30.709l6.997-17.846l7.236,3.014c0,0,7.392-2.457,9.202-2.545c0.512-0.024,0.941,0.068,1.294,0.16  c1.076,0.275,9.452,5.293,13.415,9.238c3.965,3.946,6.643,10.371,6.842,11.024c0.279,0.906,0.271,4.289-3.42,4.344  c0.434,1.955-1.031,4.778-3.91,4.67c0.598,2.063-1.629,5.321-4.563,4.453c0.297,0.914-0.426,2.207-1.1,2.644  c-1.131,0.732-1.598,0.732-2.596,0.399c-2.929-0.978-9.198-3.904-12.384-6.222c-3.494-2.54-6.045-4.525-7.53-7.096  c-0.768-1.33-2.823-3.258-3.765-3.909C5.59,32.255,1,30.709,1,30.709z" fill="url(#SVGID_1_)"/>
<radialGradient cx="1006.4844" cy="-265.7949" gradientTransform="matrix(0.7982 0 0 0.7982 -783.5864 230.4873)" gradientUnits="userSpaceOnUse" id="SVGID_2_" r="42.1015">
<stop offset="0" style="stop-color:#EAE4D6"/>
<stop offset="0.0909" style="stop-color:#EAE4D6"/>
<stop offset="0.4182" style="stop-color:#D8CDB8"/>
<stop offset="0.6364" style="stop-color:#CBBCA5"/>
<stop offset="1" style="stop-color:#9B7F6C"/>
</radialGradient>
<path d="M31.424,49.681c-0.18,0-0.402-0.051-0.771-0.173c-2.771-0.926-9.038-3.834-12.168-6.11  c-3.385-2.461-5.89-4.393-7.309-6.849c-0.882-1.528-3.074-3.525-4.002-4.168c-0.926-0.641-3.716-1.66-5.128-2.154l6.397-16.313  l6.759,2.815l0.283-0.094c2.027-0.674,7.594-2.438,8.988-2.505l0.13-0.003c0.344,0,0.647,0.065,0.926,0.138  c0.985,0.272,9.18,5.176,13.053,9.031c3.814,3.798,6.428,9.995,6.643,10.693c0.102,0.331,0.188,1.507-0.434,2.36  c-0.447,0.615-1.201,0.936-2.236,0.951l-0.98,0.015l0.213,0.956c0.186,0.834-0.084,1.857-0.688,2.609  c-0.4,0.499-1.121,1.093-2.283,1.093l-1.234-0.045l0.307,1.062c0.197,0.677-0.045,1.604-0.615,2.363  c-0.58,0.771-1.385,1.214-2.211,1.214c-0.242,0-0.492-0.037-0.74-0.111l-1.453-0.43l0.467,1.44c0.158,0.49-0.32,1.434-0.775,1.729  C31.938,49.598,31.656,49.681,31.424,49.681L31.424,49.681z" fill="url(#SVGID_2_)"/>
<path d="M6.375,31.583c-0.744-0.516-2.684-1.271-4.152-1.807l-0.177,0.45  c1.412,0.494,4.202,1.514,5.128,2.154c0.389,0.27,1.001,0.782,1.645,1.393C7.916,32.822,6.925,31.964,6.375,31.583z" fill="#FFFFFF" fill-opacity="0.75" stroke-opacity="0.75"/>
<path d="M45.225,33.989c-0.215-0.698-2.828-6.896-6.643-10.693c-0.127-0.125-0.27-0.255-0.404-0.383  c3.598,3.817,6.041,9.604,6.248,10.278c0.102,0.331,0.189,1.507-0.432,2.36c-0.449,0.615-1.201,0.935-2.238,0.95l-0.98,0.016  l0.213,0.956c0.186,0.833-0.084,1.857-0.688,2.609c-0.4,0.498-1.119,1.093-2.283,1.093l-1.232-0.045l0.307,1.062  c0.195,0.677-0.047,1.604-0.617,2.362c-0.578,0.771-1.385,1.215-2.211,1.215c-0.242,0-0.492-0.037-0.74-0.111l-1.451-0.43  l0.465,1.44c0.158,0.489-0.32,1.434-0.775,1.728c-0.623,0.403-0.904,0.486-1.137,0.486c-0.18,0-0.403-0.051-0.771-0.174  c-2.771-0.925-9.037-3.833-12.167-6.109c-1.894-1.377-3.5-2.588-4.806-3.818c1.422,1.515,3.304,2.944,5.604,4.616  c3.13,2.276,9.396,5.185,12.168,6.11c0.369,0.122,0.592,0.173,0.771,0.173c0.232,0,0.514-0.083,1.137-0.485  c0.455-0.295,0.934-1.238,0.775-1.729l-0.467-1.44l1.453,0.43c0.248,0.074,0.498,0.111,0.74,0.111c0.826,0,1.631-0.442,2.211-1.214  c0.57-0.759,0.813-1.687,0.615-2.363l-0.307-1.062l1.234,0.045c1.162,0,1.883-0.594,2.283-1.093  c0.604-0.752,0.873-1.775,0.688-2.609l-0.213-0.956l0.98-0.015c1.035-0.016,1.789-0.336,2.236-0.951  C45.412,35.496,45.326,34.32,45.225,33.989z" fill="#FFFFFF" fill-opacity="0.75" stroke-opacity="0.75"/>
<path d="M45.986,33.755c-0.199-0.653-2.877-7.078-6.842-11.024c-3.963-3.945-12.339-8.963-13.415-9.238  c-0.353-0.092-0.782-0.185-1.294-0.16c-0.219,0.01-0.521,0.057-0.878,0.128c-0.379,0.268-0.681,0.506-0.853,0.688l-0.221,0.234  c-0.548,0.579-0.943,0.997-1.234,1.684c-0.734,1.733-0.737,3.109-0.741,4.565c-0.002,1.01-0.005,2.053-0.25,3.343l-0.074,0.386  c-0.488,2.497-0.874,5.024,0.204,6.103c0.537,0.537,1.349,0.833,2.285,0.833c0.669,0,1.31-0.153,1.801-0.43  c0.87-0.488,2.979-1.837,3.788-3.815c0.616-1.509,0.699-2.717,0.766-3.688c0.049-0.721,0.089-1.291,0.335-1.741  c0.157-0.287,0.257-0.345,0.827-0.646c0.156-0.083,0.333-0.176,0.538-0.29c0.57-0.318,1.422-0.882,1.67-1.048  c0.113-0.044,0.162-0.049,0.178-0.049c0.102,0,0.457,0.214,0.77,0.403c0.057,0.034,0.158,0.088,0.305,0.161  c0.906,0.461,3.668,1.861,6.061,4.917c4.135,5.275,4.887,7.494,5.248,8.56c0.135,0.394,0.148,0.75,0.162,1.298  c0.018,0.685-0.426,1.299-0.762,1.701l-0.34,0.438l0.215,0.459c0.021,0.047,0.068,0.114,0.127,0.183  C46.244,36.786,46.209,34.479,45.986,33.755z" fill-opacity="0.35" stroke-opacity="0.35"/>
<linearGradient gradientUnits="userSpaceOnUse" id="SVGID_3_" x1="29.8706" x2="45.9676" y1="11.2334" y2="36.3762">
<stop offset="0" style="stop-color:#CBBCA5"/>
<stop offset="1" style="stop-color:#735851"/>
</linearGradient>
<path d="M59,27.916l-8.115-16.495l-7.504,3.165c0,0-7.693-4.752-9.484-5.024  c-0.508-0.076-0.945-0.026-1.305,0.028c-1.098,0.164-8.218,3.945-9.304,5.104c-0.66,0.704-1.037,1.056-1.303,1.685  c-1.16,2.737-0.326,4.507-0.942,7.746c-0.278,1.47-1.034,4.831-0.09,5.774c0.76,0.761,2.31,0.734,3.131,0.271  c0.579-0.325,2.698-1.605,3.439-3.421c1.05-2.57,0.419-4.194,1.141-5.512c0.347-0.632,0.697-0.704,1.675-1.249  c0.64-0.356,1.683-1.059,1.683-1.059c0.643-0.272,0.869-0.146,1.738,0.38c0.389,0.235,3.746,1.652,6.58,5.268  c4.199,5.357,4.996,7.675,5.375,8.797c0.178,0.521,0.191,0.993,0.205,1.534c0.023,0.988-0.584,1.796-0.947,2.23  c-0.098,0.119,0.234,0.078,0.336,0.064c1.34-0.19,3.068-2.092,3.395-2.58c0.324-0.488,2.117-2.229,2.66-2.715  C52.395,30.984,59,27.916,59,27.916z" fill="url(#SVGID_3_)"/>
<linearGradient gradientUnits="userSpaceOnUse" id="SVGID_4_" x1="39.6035" x2="39.6035" y1="11.3853" y2="33.4196">
<stop offset="0" style="stop-color:#EAE4D6"/>
<stop offset="0.1455" style="stop-color:#EAE4D6"/>
<stop offset="0.3576" style="stop-color:#D8CDB8"/>
<stop offset="0.5697" style="stop-color:#CBBCA5"/>
<stop offset="1" style="stop-color:#9B7F6C"/>
</linearGradient>
<path d="M46.656,35.595c0.043-0.224,0.066-0.46,0.061-0.706c-0.014-0.554-0.027-1.127-0.244-1.77  c-0.391-1.15-1.201-3.545-5.504-9.034c-2.613-3.333-5.611-4.854-6.598-5.354c-0.094-0.048-0.16-0.082-0.199-0.104  c-0.631-0.382-1.049-0.634-1.596-0.634c-0.268,0-0.535,0.063-0.865,0.202l-0.07,0.029l-0.064,0.043  c-0.01,0.007-1.024,0.688-1.627,1.025c-0.191,0.106-0.358,0.194-0.505,0.272c-0.632,0.334-1.089,0.574-1.48,1.289  c-0.416,0.76-0.47,1.557-0.528,2.401c-0.062,0.901-0.132,1.922-0.65,3.192c-0.506,1.235-1.929,2.373-3.091,3.026  c-0.248,0.14-0.638,0.226-1.021,0.226c-0.495,0-0.928-0.137-1.156-0.365c-0.377-0.376-0.298-1.946,0.233-4.668l0.076-0.394  c0.273-1.436,0.275-2.604,0.278-3.637c0.003-1.347,0.006-2.51,0.614-3.947c0.179-0.421,0.428-0.684,0.924-1.209l0.227-0.24  c0.938-1.001,7.839-4.691,8.843-4.859c0.197-0.03,0.414-0.059,0.652-0.059c0.129,0,0.268,0.009,0.412,0.03  c1.186,0.18,6.264,3.109,9.184,4.914l0.35,0.217l7.191-3.033l7.422,15.089c-1.912,0.902-6.18,2.959-7.094,3.775  c-0.432,0.387-2.379,2.246-2.791,2.867C47.857,34.452,47.287,35.074,46.656,35.595L46.656,35.595z" fill="url(#SVGID_4_)"/>
<path d="M26.854,43.412c0.38-0.857,0.549-2.018-1.039-3.516c-1.023-0.965-1.958-1.436-2.854-1.436  c-0.119,0-0.234,0.009-0.344,0.024c0.087-0.882-0.194-1.889-1.489-2.972c-0.917-0.768-1.969-1.189-2.962-1.189  c-0.208,0-0.411,0.019-0.606,0.056c-0.023-1.094-0.664-2.025-1.983-3.006c-0.747-0.556-1.516-0.837-2.283-0.837  c-0.83,0-1.648,0.329-2.433,0.979l-0.127,0.104c-0.866,0.717-2.014,1.67-2.574,2.625c0.89,0.835,1.853,1.881,2.325,2.701  c1.485,2.57,4.036,4.556,7.53,7.096c2.586,1.881,7.201,4.162,10.414,5.478c1.007-1.348,1.659-3.19,0.548-4.461  C28.188,44.157,27.498,43.62,26.854,43.412z" fill-opacity="0.35" stroke-opacity="0.35"/>
<linearGradient gradientUnits="userSpaceOnUse" id="SVGID_5_" x1="10.3682" x2="27.0654" y1="32.7324" y2="49.4296">
<stop offset="0" style="stop-color:#CBBCA5"/>
<stop offset="1" style="stop-color:#735851"/>
</linearGradient>
<path d="M8.715,34.899c0.399-0.931,1.771-2.036,2.655-2.769c1.198-0.993,2.428-1.084,3.73-0.116  c1.846,1.372,2.013,2.401,1.197,4.066c1.015-1.415,2.894-1.147,4.318,0.045c1.843,1.542,1.169,2.698,0.684,3.902  c0.734-0.506,1.74-1.65,3.968,0.449c2.019,1.905,0.559,2.737,0.199,3.994c0.559-0.559,1.358-0.659,2.909,1.113  c0.96,1.098-0.105,2.851-0.661,3.565c-0.476,0.612-1.67,1.419-2.908,0.85c-2.462-1.132-6.817-3.681-11.059-7.068  C7.627,38.04,8.159,36.197,8.715,34.899z" fill="url(#SVGID_5_)"/>
<linearGradient gradientUnits="userSpaceOnUse" id="SVGID_6_" x1="21.4702" x2="16.5483" y1="37.8623" y2="44.0481">
<stop offset="0" style="stop-color:#EAE4D6"/>
<stop offset="0.1091" style="stop-color:#EAE4D6"/>
<stop offset="0.3212" style="stop-color:#D8CDB8"/>
<stop offset="0.5273" style="stop-color:#CBBCA5"/>
<stop offset="1" style="stop-color:#9B7F6C"/>
</linearGradient>
<path d="M25.68,49.396c-0.186,0-0.362-0.039-0.539-0.12c-2.361-1.087-6.632-3.563-10.895-6.967  c-5.838-4.666-5.187-6.186-4.798-7.095c0.305-0.71,1.556-1.744,2.303-2.362l0.128-0.107c0.497-0.41,0.959-0.61,1.414-0.61  c0.423,0,1.226,0.357,1.683,0.729c1.072,0.873,1.247,1.347,1.297,1.796c0.05,0.448-0.299,1.596-0.398,2.045  c0.474-0.324,1.78-0.784,2.292-0.784c0.61,0,1.316,0.299,1.938,0.818c1.259,1.054,1.182,1.163,1.057,2.161  c0,0-0.448,1.321-0.573,1.796c1.197-0.1,1.646-0.873,2.373-0.638c0.434,0.14,1.064,0.346,1.759,1.001  c1.071,1.011,1.071,1.202,0.807,2.056c-0.225,0.724-0.848,2.096-0.848,2.096s1.247-0.449,1.546-0.424  c0.309,0.025,0.55,0.181,1.551,1.324c0.54,0.618-0.216,1.938-0.69,2.551C26.855,48.957,26.291,49.396,25.68,49.396L25.68,49.396z" fill="url(#SVGID_6_)"/>
<path d="M26.274,45.385c0.324,0.149,0.5,0.38,1.501,1.523c0.055,0.063,0.087,0.137,0.116,0.211  c0.104-0.389,0.104-0.758-0.116-1.009c-1.001-1.144-1.242-1.299-1.551-1.324c-0.188-0.016-0.747,0.154-1.139,0.284  C25.526,45.234,26.002,45.259,26.274,45.385z" fill="#FFFFFF" fill-opacity="0.5" stroke-opacity="0.5"/>
<path d="M22.961,40.855c0.434,0.141,1.064,0.347,1.759,1.001c0.498,0.47,0.759,0.762,0.874,1.026  c0.185-0.663,0.092-0.914-0.874-1.824c-0.694-0.655-1.325-0.861-1.759-1.001c-0.671-0.218-1.113,0.419-2.117,0.597  C21.686,40.596,22.234,40.62,22.961,40.855z" fill="#FFFFFF" fill-opacity="0.5" stroke-opacity="0.5"/>
<path d="M9.448,36.012c0.305-0.71,1.556-1.744,2.303-2.362l0.128-0.106  c0.497-0.411,0.959-0.611,1.414-0.611c0.423,0,1.226,0.357,1.683,0.729c0.881,0.717,1.153,1.163,1.251,1.549  c0.038-0.22,0.061-0.418,0.046-0.551c-0.05-0.449-0.225-0.923-1.297-1.796c-0.457-0.372-1.26-0.729-1.683-0.729  c-0.455,0-0.917,0.2-1.414,0.61l-0.128,0.107c-0.747,0.618-1.998,1.652-2.303,2.362c-0.143,0.334-0.317,0.751-0.197,1.375  C9.298,36.366,9.378,36.178,9.448,36.012z" fill="#FFFFFF" fill-opacity="0.5" stroke-opacity="0.5"/>
<path d="M18.166,36.719c0.61,0,1.316,0.298,1.938,0.817c0.704,0.589,0.983,0.885,1.077,1.204  c0.107-0.846,0.107-1.011-1.077-2.002c-0.622-0.52-1.328-0.818-1.938-0.818c-0.442,0-1.479,0.345-2.059,0.647  C16.771,36.555,17.654,36.719,18.166,36.719z" fill="#FFFFFF" fill-opacity="0.5" stroke-opacity="0.5"/>
<linearGradient gradientUnits="userSpaceOnUse" id="SVGID_7_" x1="13.9106" x2="16.3579" y1="38.6328" y2="36.1855">
<stop offset="0" style="stop-color:#A58C78"/>
<stop offset="1" style="stop-color:#B2A08C"/>
</linearGradient>
<path d="M16.04,36.188c0,0-1.247,1.945-2.146,2.594c0,0,1.796-1.396,2.495-2.494L16.04,36.188z" fill="url(#SVGID_7_)"/>
<linearGradient gradientUnits="userSpaceOnUse" id="SVGID_8_" x1="18.6655" x2="21.0459" y1="42.6221" y2="40.2417">
<stop offset="0" style="stop-color:#A58C78"/>
<stop offset="1" style="stop-color:#9B8877"/>
</linearGradient>
<path d="M20.729,40.246c0,0-1.247,1.945-2.146,2.594c0,0,1.796-1.396,2.494-2.494L20.729,40.246z" fill="url(#SVGID_8_)"/>
<linearGradient gradientUnits="userSpaceOnUse" id="SVGID_9_" x1="22.8228" x2="25.2036" y1="47.1455" y2="44.7647">
<stop offset="0" style="stop-color:#A58C78"/>
<stop offset="1" style="stop-color:#8D786A"/>
</linearGradient>
<path d="M24.853,44.802c0,0-1.247,1.946-2.145,2.595c0,0,1.796-1.397,2.494-2.494L24.853,44.802z" fill="url(#SVGID_9_)"/>
<path d="M22.899,17.684c0,0,0.799-2.322,2.378-2.139c1.578,0.184-0.22,2.297-0.767,2.945  C23.965,19.139,22.056,19.74,22.899,17.684z" fill="#FFFFFF" fill-opacity="0.5" stroke-opacity="0.5"/>
<linearGradient gradientUnits="userSpaceOnUse" id="SVGID_10_" x1="31.6387" x2="31.6387" y1="42.3877" y2="46.5357">
<stop offset="0" style="stop-color:#A58C78"/>
<stop offset="1" style="stop-color:#755B53"/>
</linearGradient>
<path d="M33.209,46.856l0.367-0.499c0,0-3.244-3.044-3.876-4.008L33.209,46.856z" fill="url(#SVGID_10_)"/>
<linearGradient gradientUnits="userSpaceOnUse" id="SVGID_11_" x1="39.9697" x2="39.9697" y1="33.8926" y2="37.6532">
<stop offset="0" style="stop-color:#A58C78"/>
<stop offset="1" style="stop-color:#8D786A"/>
</linearGradient>
<path d="M41.689,37.943l0.367-0.499c0,0-2.91-2.401-4.174-3.587L41.689,37.943z" fill="url(#SVGID_11_)"/>
<linearGradient gradientUnits="userSpaceOnUse" id="SVGID_12_" x1="36.0439" x2="36.0439" y1="38.4482" y2="42.2097">
<stop offset="0" style="stop-color:#A58C78"/>
<stop offset="1" style="stop-color:#81695E"/>
</linearGradient>
<path d="M37.766,42.5l0.365-0.499c0,0-2.908-2.402-4.174-3.588L37.766,42.5z" fill="url(#SVGID_12_)"/>
<rect fill="none" height="60" width="60"/>
</g>
</svg>
