<?xml version="1.0" encoding="UTF-8"?>
<!DOCTYPE svg PUBLIC "-//W3C//DTD SVG 1.1 Tiny//EN" "http://www.w3.org/Graphics/SVG/1.1/DTD/svg11-tiny.dtd">
<svg baseProfile="tiny" height="10px" version="1.1" viewBox="0 0 10 10" width="10px" x="0px" xmlns="http://www.w3.org/2000/svg" xmlns:xlink="http://www.w3.org/1999/xlink" y="0px">
<rect fill="none" height="10" width="10"/>
<path d="M3,1H0v2h3c2.205,0,4,1.794,4,4v3h2V7C9,3.7,6.3,1,3,1z" fill="#141414" fill-opacity="0.4" stroke-opacity="0.4"/>
<path d="M8,7c0-2.757-2.243-5-5-5H0v8h8V7z" fill="url(#SVGID_1_)"/>
<path d="M3,2H0v1h3c2.206,0,4,1.795,4,4v3h1V7C8,4.243,5.757,2,3,2z" fill="#FFFFFF" fill-opacity="0.4" stroke-opacity="0.4"/>
<rect fill="none" height="10" width="10"/>
<defs>
<linearGradient gradientUnits="userSpaceOnUse" id="SVGID_1_" x1="4" x2="4" y1="2" y2="47.0878">
<stop offset="0" style="stop-color:#E1E1E6"/>
<stop offset="1" style="stop-color:#B4B4B9"/>
</linearGradient>
</defs>
</svg>
