<?xml version="1.0" encoding="UTF-8"?>
<!DOCTYPE svg PUBLIC "-//W3C//DTD SVG 1.1 Tiny//EN" "http://www.w3.org/Graphics/SVG/1.1/DTD/svg11-tiny.dtd">
<svg baseProfile="tiny" height="30px" version="1.1" viewBox="0 0 30 30" width="30px" x="0px" xmlns="http://www.w3.org/2000/svg" xmlns:xlink="http://www.w3.org/1999/xlink" y="0px">
<g fill-opacity="0.5" stroke-opacity="0.5">
<rect fill="none" height="30" width="30"/>
</g>
<path d="M9.219,14.125c-1.484,0-2.601-0.473-3.348-1.418S4.75,10.208,4.75,8.047c0-1.938,0.376-3.392,1.129-4.363  s1.882-1.457,3.387-1.457c0.614,0,1.231,0.083,1.852,0.25v1.367C10.503,3.661,9.953,3.57,9.469,3.57  c-0.828,0-1.448,0.368-1.859,1.105s-0.617,1.84-0.617,3.309c0,1.708,0.212,2.935,0.637,3.68s1.062,1.117,1.91,1.117  c0.495,0,1.021-0.078,1.578-0.234v1.328C10.497,14.042,9.864,14.125,9.219,14.125z"/>
<path d="M17.492,12.688c-0.625,0.958-1.526,1.438-2.703,1.438c-0.864,0-1.536-0.235-2.016-0.707s-0.719-1.132-0.719-1.98  c0-0.667,0.149-1.215,0.449-1.645s0.777-0.751,1.434-0.965s1.659-0.325,3.008-0.336V7.602c0-0.516-0.142-0.903-0.426-1.164  s-0.707-0.391-1.27-0.391c-0.651,0-1.45,0.148-2.398,0.445V5.133c0.989-0.266,1.956-0.398,2.898-0.398  c1.083,0,1.909,0.249,2.477,0.746s0.852,1.23,0.852,2.199V14h-1.234L17.492,12.688z M16.945,9.633h-0.75  c-0.683,0-1.194,0.148-1.535,0.445s-0.512,0.739-0.512,1.328c0,0.469,0.102,0.82,0.305,1.055s0.508,0.352,0.914,0.352  c0.511,0,0.901-0.163,1.172-0.488s0.406-0.785,0.406-1.379V9.633z"/>
<path d="M21.172,14V4.867h1.234l0.414,1.516c0.255-0.531,0.606-0.931,1.055-1.199s0.992-0.402,1.633-0.402  c0.167,0,0.289,0.005,0.367,0.016v1.75c-0.292-0.021-0.505-0.031-0.641-0.031c-0.703,0-1.203,0.155-1.5,0.465  s-0.445,0.821-0.445,1.535V14H21.172z"/>
<path d="M10.041,26.906V28H4.005v-1.094h2.146v-7.629L4.005,19.77v-1.094l3.015-0.95h0.991v9.181H10.041z"/>
<path d="M17.656,26.811V28h-6.098v-0.745c0-0.711,0.123-1.342,0.369-1.894s0.549-1.021,0.909-1.412  c0.36-0.389,0.815-0.816,1.367-1.281c0.661-0.556,1.078-0.986,1.251-1.292s0.26-0.608,0.26-0.909c0-0.528-0.141-0.926-0.42-1.193  c-0.281-0.266-0.701-0.399-1.262-0.399c-0.593,0-1.311,0.152-2.153,0.458h-0.014v-1.217c0.884-0.278,1.745-0.417,2.584-0.417  c1.034,0,1.82,0.227,2.358,0.681c0.538,0.453,0.807,1.122,0.807,2.006c0,0.497-0.121,0.985-0.362,1.467  c-0.241,0.48-0.812,1.097-1.709,1.849c-0.501,0.424-0.894,0.777-1.176,1.06s-0.521,0.594-0.714,0.934  c-0.194,0.339-0.3,0.712-0.318,1.117H17.656z"/>
<path d="M20.295,22.039c1.34,0,2.176-0.137,2.509-0.41s0.499-0.692,0.499-1.258c0-0.497-0.133-0.87-0.4-1.121  c-0.266-0.251-0.664-0.376-1.192-0.376c-0.465,0-1.119,0.116-1.962,0.349h-0.014V18.02c0.856-0.214,1.632-0.321,2.324-0.321  c1.044,0,1.827,0.21,2.352,0.629s0.786,1.048,0.786,1.887c0,0.579-0.157,1.077-0.472,1.493c-0.314,0.418-0.766,0.713-1.354,0.886  c0.638,0.114,1.127,0.382,1.467,0.804c0.339,0.421,0.509,0.948,0.509,1.582c0,1.044-0.304,1.826-0.913,2.348  c-0.607,0.522-1.521,0.783-2.737,0.783c-0.729,0-1.477-0.107-2.242-0.321v-1.189h0.014c0.894,0.224,1.598,0.335,2.112,0.335  c0.62,0,1.086-0.156,1.398-0.469c0.312-0.312,0.468-0.78,0.468-1.404c0-0.67-0.187-1.15-0.561-1.442s-1.237-0.438-2.591-0.438  V22.039z"/>
</svg>
