<?xml version="1.0" encoding="UTF-8"?>
<!DOCTYPE svg PUBLIC "-//W3C//DTD SVG 1.1 Tiny//EN" "http://www.w3.org/Graphics/SVG/1.1/DTD/svg11-tiny.dtd">
<svg baseProfile="tiny" height="60" viewBox="0 0 60 60" width="60" xmlns="http://www.w3.org/2000/svg" xmlns:xlink="http://www.w3.org/1999/xlink">
<g>
<rect fill="none" height="60" width="60"/>
<polygon fill="url(#SVGID_1_)" points="30.299,46.857 13.109,56.171 16.172,36.861 2.002,23.39 21.313,20.336 29.746,2.696   38.617,20.121 58.002,22.689 44.172,36.51 47.719,55.738 "/>
<radialGradient cx="-2195.2817" cy="4635.3013" gradientTransform="matrix(0.9721 0 0 -0.9721 2163.7463 4516.3262)" gradientUnits="userSpaceOnUse" id="SVGID_2_" r="45.7877">
<stop offset="0" style="stop-color:#D3CA99"/>
<stop offset="0.1394" style="stop-color:#D3CA99"/>
<stop offset="0.5515" style="stop-color:#B39C4D"/>
<stop offset="0.7273" style="stop-color:#AC8A4A"/>
<stop offset="1" style="stop-color:#C3B475"/>
</radialGradient>
<polygon fill="url(#SVGID_2_)" points="17.67,36.354 5.021,24.329 22.26,21.604 29.787,5.86 37.705,21.411 55.006,23.705   42.662,36.041 45.828,53.201 30.281,45.274 14.936,53.589 "/>
<radialGradient cx="-2194.7852" cy="4599.8726" gradientTransform="matrix(0.9721 0 0 -0.9721 2163.7463 4516.3262)" gradientUnits="userSpaceOnUse" id="SVGID_3_" r="16.3968">
<stop offset="0" style="stop-color:#CDC18B"/>
<stop offset="1" style="stop-color:#B39C4D"/>
</radialGradient>
<polygon fill="url(#SVGID_3_)" points="30.281,43.875 15.18,52.056 14.936,53.589 30.281,45.274 45.828,53.201 45.543,51.656 "/>
<radialGradient cx="-2194.771" cy="4629.7397" gradientTransform="matrix(0.9721 0 0 -0.9721 2163.7463 4516.3262)" gradientUnits="userSpaceOnUse" id="SVGID_4_" r="63.637">
<stop offset="0" style="stop-color:#F0EDDC"/>
<stop offset="1" style="stop-color:#B39C4D"/>
</radialGradient>
<polygon fill="url(#SVGID_4_)" points="22.959,23.005 29.787,8.661 37.006,22.811 53.764,24.945 55.006,23.705 37.705,21.411   29.787,5.86 22.26,21.604 5.021,24.329 6.292,25.537 "/>
<rect fill="none" height="60" width="60"/>
<defs>
<linearGradient gradientTransform="matrix(0.9999 -0.0125 -0.0125 -0.9999 2215.6172 4551.269)" gradientUnits="userSpaceOnUse" id="SVGID_1_" x1="-2128.8872" x2="-2128.8872" y1="4575.7925" y2="4523.3677">
<stop offset="0" style="stop-color:#C2B282"/>
<stop offset="0.3576" style="stop-color:#C2B282"/>
<stop offset="0.8909" style="stop-color:#9B6943"/>
<stop offset="1" style="stop-color:#AD8F60"/>
</linearGradient>
</defs>
</g>
</svg>
