<?xml version="1.0" encoding="UTF-8"?>
<!DOCTYPE svg PUBLIC "-//W3C//DTD SVG 1.1 Tiny//EN" "http://www.w3.org/Graphics/SVG/1.1/DTD/svg11-tiny.dtd">
<svg baseProfile="tiny" height="20px" version="1.1" viewBox="0 0 20 20" width="20px" x="0px" xmlns="http://www.w3.org/2000/svg" xmlns:xlink="http://www.w3.org/1999/xlink" y="0px">
<rect fill="none" height="20" width="20"/>
<rect fill="none" fill-rule="evenodd" height="20" width="20"/>
<path d="M10,20c-4.411,0-8-3.589-8-8V0h16v12C18,16.411,14.411,20,10,20  L10,20z" fill-opacity="0.1" fill-rule="evenodd" stroke-opacity="0.1"/>
<path d="M3,12V0h14v12c0,3.867-3.133,7-7,7S3,15.867,3,12z" fill="url(#SVGID_1_)" fill-rule="evenodd"/>
<path d="M10,18c-3.309,0-6-2.691-6-6V0h1v12  c0,2.757,2.243,5,5,5s5-2.243,5-5V0h1v12C16,15.309,13.309,18,10,18z" fill="#FFFFFF" fill-opacity="0.4" fill-rule="evenodd" stroke-opacity="0.4"/>
<path d="M10,19c-3.867,0-7-3.133-7-7V0h1v12c0,3.309,2.691,5.998,6,5.998  c3.31,0,5.998-2.689,5.998-5.998V0H17v12C17,15.867,13.867,19,10,19z" fill-opacity="0.2" fill-rule="evenodd" stroke-opacity="0.2"/>
<rect fill="#FFFFFF" fill-opacity="0.9" fill-rule="evenodd" height="1" stroke-opacity="0.9" width="8" x="6" y="8"/>
<rect fill-opacity="0.1" fill-rule="evenodd" height="1" stroke-opacity="0.1" width="8" x="6" y="7"/>
<defs>
<linearGradient gradientTransform="matrix(1 0 0 -1 0 -1376)" gradientUnits="userSpaceOnUse" id="SVGID_1_" x1="10.0005" x2="10.0005" y1="-1376.1274" y2="-1394.3209">
<stop offset="0" style="stop-color:#FAFAFA"/>
<stop offset="1" style="stop-color:#E6E6F0"/>
</linearGradient>
</defs>
</svg>
