<?xml version="1.0" encoding="UTF-8"?>
<!DOCTYPE svg PUBLIC "-//W3C//DTD SVG 1.1 Tiny//EN" "http://www.w3.org/Graphics/SVG/1.1/DTD/svg11-tiny.dtd">
<svg baseProfile="tiny" height="30" viewBox="0 0 30 30" width="30" xmlns="http://www.w3.org/2000/svg" xmlns:xlink="http://www.w3.org/1999/xlink">
<g>
<rect fill="none" height="30" width="30"/>
<path d="M19.504,29c-1.203,0-2.192-0.547-2.674-1.015c-0.225-0.218-4.875-4.538-6.402-5.958l-0.627-0.583  C7.857,19.894,6.709,17.527,6.709,15c0-4.572,3.72-8.292,8.291-8.292c4.572,0,8.291,3.72,8.291,8.292  c0,3.096-1.771,5.946-4.492,7.357l1.079,0.985c0.216,0.206,0.865,0.699,1.468,0.699h1.211c0.818,0,1.486-0.667,1.486-1.487V7.444  c0-0.82-0.668-1.487-1.486-1.487H7.445c-0.82,0-1.487,0.667-1.487,1.487v11.803c0,0.593,0.331,0.995,0.527,1.183  c0.208,0.199,5.013,4.608,6.822,6.269L15.816,29H4.477C2.56,29,1,27.44,1,25.523V4.477C1,2.56,2.56,1,4.477,1h21.047  C27.44,1,29,2.56,29,4.477v21.047C29,27.44,27.44,29,25.523,29H19.504z M15,12.371c-1.449,0-2.628,1.18-2.628,2.629  s1.179,2.628,2.628,2.628s2.629-1.179,2.629-2.628S16.449,12.371,15,12.371L15,12.371z" fill-opacity="0.6" stroke-opacity="0.6"/>
<path d="M19.504,28c-0.969,0-1.717-0.479-1.977-0.731c-0.281-0.272-6.77-6.299-7.045-6.556  C8.711,19.297,7.709,17.222,7.709,15c0-4.021,3.271-7.292,7.291-7.292c4.021,0,7.291,3.271,7.291,7.292  c0,2.994-1.887,5.729-4.695,6.804l-0.624,0.239l2.231,2.038c0.031,0.029,0.998,0.961,2.143,0.961h1.211  c1.371,0,2.486-1.116,2.486-2.487V7.444c0-1.371-1.115-2.487-2.486-2.487H7.445c-1.371,0-2.487,1.116-2.487,2.487v11.803  c0,0.966,0.524,1.609,0.838,1.907c0.233,0.224,5.935,5.453,7.452,6.846H4.477C3.111,28,2,26.89,2,25.523V4.477  C2,3.11,3.111,2,4.477,2h21.047C26.889,2,28,3.11,28,4.477v21.047C28,26.89,26.889,28,25.523,28H19.504z M15,11.371  c-2,0-3.628,1.628-3.628,3.629S13,18.628,15,18.628s3.629-1.627,3.629-3.628S17,11.371,15,11.371L15,11.371z" fill="url(#SVGID_1_)"/>
<path d="M19.504,28c-0.969,0-1.717-0.479-1.977-0.731c-0.281-0.272-6.77-6.299-7.045-6.556  C8.711,19.297,7.709,17.222,7.709,15c0-4.021,3.271-7.292,7.291-7.292c4.021,0,7.291,3.271,7.291,7.292  c0,2.994-1.887,5.729-4.695,6.804l-0.624,0.239l2.231,2.038c0.031,0.029,0.998,0.961,2.143,0.961h1.211  c1.371,0,2.486-1.116,2.486-2.487V7.444c0-1.371-1.115-2.487-2.486-2.487H7.445c-1.371,0-2.487,1.116-2.487,2.487v11.803  c0,0.966,0.524,1.609,0.838,1.907c0.233,0.224,5.935,5.453,7.452,6.846H4.477C3.111,28,2,26.89,2,25.523V4.477  C2,3.11,3.111,2,4.477,2h21.047C26.889,2,28,3.11,28,4.477v21.047C28,26.89,26.889,28,25.523,28H19.504z M15,11.371  c-2,0-3.628,1.628-3.628,3.629S13,18.628,15,18.628s3.629-1.627,3.629-3.628S17,11.371,15,11.371L15,11.371z" fill="url(#SVGID_1_)"/>
<path d="M22.261,15.394c0.007-0.132,0.03-0.261,0.03-0.394c0-4.021-3.271-7.292-7.291-7.292  c-4.02,0-7.291,3.271-7.291,7.292c0,0.159,0.018,0.315,0.027,0.474C8.008,11.698,11.158,8.708,15,8.708  C18.816,8.708,21.951,11.656,22.261,15.394z" fill="#FFFFFF" fill-opacity="0.4" stroke-opacity="0.4"/>
<path d="M15,19.628c2,0,3.629-1.627,3.629-3.628c0-0.171-0.027-0.335-0.051-0.5  c-0.246,1.763-1.749,3.128-3.578,3.128s-3.331-1.365-3.577-3.128c-0.023,0.165-0.051,0.329-0.051,0.5  C11.372,18.001,13,19.628,15,19.628z" fill="#FFFFFF" fill-opacity="0.4" stroke-opacity="0.4"/>
<path d="M4.958,19.247v1c0,0.966,0.524,1.609,0.838,1.907C5.99,22.34,9.95,25.975,12.158,28h1.09  c-1.518-1.393-7.219-6.622-7.452-6.846C5.482,20.856,4.958,20.213,4.958,19.247z" fill="#FFFFFF" fill-opacity="0.4" stroke-opacity="0.4"/>
<path d="M25.523,2H4.477C3.111,2,2,3.11,2,4.477v1C2,4.11,3.111,3,4.477,3h21.047  C26.889,3,28,4.11,28,5.477v-1C28,3.11,26.889,2,25.523,2z" fill="#FFFFFF" fill-opacity="0.4" stroke-opacity="0.4"/>
<path d="M21.346,26.042h1.211c1.371,0,2.486-1.116,2.486-2.487v-1c0,1.371-1.115,2.487-2.486,2.487  h-1.211c-1.145,0-2.111-0.932-2.143-0.961l-1.47-1.343c-0.048,0.02-0.089,0.047-0.138,0.065l-0.624,0.239l2.231,2.038  C19.234,25.11,20.201,26.042,21.346,26.042z" fill="#FFFFFF" fill-opacity="0.4" stroke-opacity="0.4"/>
<rect fill="none" height="30" width="30"/>
<defs>
<linearGradient gradientUnits="userSpaceOnUse" id="SVGID_1_" x1="14.9995" x2="14.9995" y1="2" y2="28.0005">
<stop offset="0" style="stop-color:#85AE4A"/>
<stop offset="1" style="stop-color:#2F6F44"/>
</linearGradient>
</defs>
</g>
<g>
<rect fill-opacity="0.6" height="34.27" stroke-opacity="0.6" style="enable-background:new;" transform="matrix(0.7073 -0.707 0.707 0.7073 -6.2126 14.9968)" width="3.169" x="13.42" y="-2.134"/>
<polygon fill="url(#SVGID_1__)" points="26,26.99,3.015,4.005,4.006,3.014,26.99,26"/>
<rect fill="none" height="30" width="30"/>
<defs>
<linearGradient gradientTransform="matrix(0.8824 0 0 -0.8824 -284.8232 -348.3516)" gradientUnits="userSpaceOnUse" id="SVGID_1__" x1="339.8" x2="339.8" y1="-397.3" y2="-425.3">
<stop offset="0" stop-color="#A8835F"/>
<stop offset="0.2606" stop-color="#A86F5F"/>
<stop offset="1" stop-color="#9A5047"/>
</linearGradient>
</defs>
</g>
</svg>
