<?xml version="1.0" encoding="UTF-8"?>
<!DOCTYPE svg PUBLIC "-//W3C//DTD SVG 1.1 Tiny//EN" "http://www.w3.org/Graphics/SVG/1.1/DTD/svg11-tiny.dtd">
<svg baseProfile="tiny" height="10px" version="1.1" viewBox="0 0 10 10" width="10px" x="0px" xmlns="http://www.w3.org/2000/svg" xmlns:xlink="http://www.w3.org/1999/xlink" y="0px">
<rect fill="none" height="10" width="10"/>
<path d="M6,1C3.243,1,1,3.243,1,6v4h9V1H6z" fill="url(#SVGID_1_)"/>
<path d="M6,1C3.243,1,1,3.243,1,6v4h2V6c0-1.654,1.346-3,3-3h4V1H6z" fill="#5A5A64" fill-opacity="0.2" stroke-opacity="0.2"/>
<path d="M6,1C3.243,1,1,3.243,1,6v4h1V6c0-2.206,1.794-4,4-4h4V1H6z" fill="#5A5A64" fill-opacity="0.3" stroke-opacity="0.3"/>
<path d="M6,0C2.7,0,0,2.7,0,6v4h1V6c0-2.757,2.243-5,5-5h4V0H6z" fill="#FFFFFF"/>
<path d="M6,1C3.243,1,1,3.243,1,6v4h1V6c0-1.104,0.897-2,2-2h6V1H6z" fill-opacity="0.1" stroke-opacity="0.1"/>
<defs>
<linearGradient gradientUnits="userSpaceOnUse" id="SVGID_1_" x1="5.5" x2="5.5" y1="1" y2="68.8625">
<stop offset="0" style="stop-color:#CCCCCC"/>
<stop offset="0.0043" style="stop-color:#CCCCCC"/>
<stop offset="0.35" style="stop-color:#FFFFFF"/>
<stop offset="0.7" style="stop-color:#FFFFFF"/>
<stop offset="1" style="stop-color:#D9D9D9"/>
</linearGradient>
</defs>
</svg>
