<?xml version="1.0" encoding="UTF-8"?>
<!DOCTYPE svg PUBLIC "-//W3C//DTD SVG 1.1 Tiny//EN" "http://www.w3.org/Graphics/SVG/1.1/DTD/svg11-tiny.dtd">
<svg baseProfile="tiny" height="70px" version="1.1" viewBox="0 0 10 70" width="10px" x="0px" xmlns="http://www.w3.org/2000/svg" xmlns:xlink="http://www.w3.org/1999/xlink" y="0px">
<rect fill="none" height="70" width="10"/>
<path d="M1,0H0v70h1c4.963,0,9-5.037,9-10V9C10,4.037,5.963,0,1,0z" fill-opacity="0.2" stroke-opacity="0.2"/>
<path d="M0,60v9h1c4.4,0,8-3.6,8-8v-1H0z" fill-opacity="0.2" stroke-opacity="0.2"/>
<path d="M1,2H0v65h1c3.859,0,7-3.141,7-7V9C8,5.141,4.859,2,1,2z" fill="url(#SVGID_1_)"/>
<path d="M1,2H0v4h1c2.205,0,4,1,4,3v51c0,2.206-1.795,4-4,4H0v3h1c3.859,0,7-3.141,7-7V9C8,5.141,4.859,2,1,2z" fill-opacity="0.2" stroke-opacity="0.2"/>
<path d="M1,3H0v2h1c2.757,0,5,2.243,5,5h1V9C7,5.691,4.309,3,1,3z" fill-opacity="0.2" stroke-opacity="0.2"/>
<path d="M1,1H0v3h1c2.757,0,5,2.243,5,5v51c0,2.757-2.243,5-5,5H0v3h1c4.4,0,8-3.6,8-8V9C9,4.6,5.4,1,1,1z" fill="#FFFFFF"/>
<defs>
<linearGradient gradientUnits="userSpaceOnUse" id="SVGID_1_" x1="4" x2="4" y1="67" y2="2.0005">
<stop offset="0" style="stop-color:#66B8CC"/>
<stop offset="1" style="stop-color:#3F89A9"/>
</linearGradient>
</defs>
</svg>
