<?xml version="1.0" encoding="UTF-8"?>
<!DOCTYPE svg PUBLIC "-//W3C//DTD SVG 1.1 Tiny//EN" "http://www.w3.org/Graphics/SVG/1.1/DTD/svg11-tiny.dtd">
<svg baseProfile="tiny" height="60" viewBox="0 0 60 60" width="60" xmlns="http://www.w3.org/2000/svg" xmlns:xlink="http://www.w3.org/1999/xlink">
<g>
<rect fill="none" height="60" width="60"/>
<linearGradient gradientUnits="userSpaceOnUse" id="SVGID_1_" x1="22.8379" x2="37.5014" y1="31.7412" y2="31.7412">
<stop offset="0" style="stop-color:#DBDBDB"/>
<stop offset="0.097" style="stop-color:#DBDBDB"/>
<stop offset="0.6848" style="stop-color:#919191"/>
<stop offset="1" style="stop-color:#B8B8B8"/>
</linearGradient>
<path d="M37.109,51.521H22.957l3.86-36.345c0-1.776,1.44-3.216,3.216-3.216l0,0  c1.776,0,3.216,1.439,3.216,3.216L37.109,51.521z" fill="url(#SVGID_1_)"/>
<polygon fill-opacity="0.2" points="23.212,48.949 36.854,48.949 36.726,47.662 23.34,47.662 " stroke-opacity="0.2"/>
<polygon fill-opacity="0.1" points="23.34,47.662 36.726,47.662 36.599,46.375 23.467,46.375 " stroke-opacity="0.1"/>
<polygon fill-opacity="0.3" points="23.083,50.235 36.982,50.235 36.854,48.949 23.212,48.949 " stroke-opacity="0.3"/>
<linearGradient gradientUnits="userSpaceOnUse" id="SVGID_2_" x1="11.4971" x2="48.7082" y1="54.1401" y2="54.1401">
<stop offset="0" style="stop-color:#F2F2F2"/>
<stop offset="1" style="stop-color:#919191"/>
</linearGradient>
<path d="M48.688,58v-3.859c0-2.133-1.729-3.86-3.859-3.86H15.237c-2.131,0-3.859,1.728-3.859,3.86V58H48.688z  " fill="url(#SVGID_2_)"/>
<path d="M44.828,50.28H15.237c-2.131,0-3.859,1.728-3.859,3.86v1.286c0-2.132,1.729-3.86,3.859-3.86  h29.591c2.131,0,3.859,1.729,3.859,3.86v-1.286C48.688,52.008,46.959,50.28,44.828,50.28z" fill="#FFFFFF" fill-opacity="0.5" stroke-opacity="0.5"/>
<linearGradient gradientTransform="matrix(-0.7071 -0.7071 -0.7071 0.7071 1644.7402 729.6548)" gradientUnits="userSpaceOnUse" id="SVGID_3_" x1="1671.6611" x2="1651.5664" y1="642.4497" y2="662.2676">
<stop offset="0" style="stop-color:#B3C77D"/>
<stop offset="0.7273" style="stop-color:#3C743A"/>
<stop offset="1" style="stop-color:#235138"/>
</linearGradient>
<path d="M9.31,2l4.156,4.152c-5.422,5.422-5.42,14.244,0,19.665l-4.154,4.155  C1.601,22.258,1.601,9.711,9.31,2z" fill="url(#SVGID_3_)"/>
<linearGradient gradientTransform="matrix(-0.7071 -0.7071 -0.7071 0.7071 1644.7402 729.6548)" gradientUnits="userSpaceOnUse" id="SVGID_4_" x1="1664.2842" x2="1644.192" y1="634.9834" y2="654.7988">
<stop offset="0" style="stop-color:#B3C77D"/>
<stop offset="0.7273" style="stop-color:#3C743A"/>
<stop offset="1" style="stop-color:#235138"/>
</linearGradient>
<path d="M18.738,7.264l4.153,4.152c-2.52,2.52-2.52,6.617,0,9.136l-4.153,4.153  C13.928,19.898,13.928,12.074,18.738,7.264z" fill="url(#SVGID_4_)"/>
<linearGradient gradientUnits="userSpaceOnUse" id="SVGID_5_" x1="8.5073" x2="8.5073" y1="29.6333" y2="-3.0658">
<stop offset="0" style="stop-color:#9AB06A"/>
<stop offset="1" style="stop-color:#367039"/>
</linearGradient>
<path d="M9.312,28.686c-3.692-3.693-5.597-8.497-5.753-13.344C3.388,20.618,5.293,25.95,9.312,29.973  l4.154-4.155c-0.217-0.218-0.411-0.448-0.61-0.677L9.312,28.686z" fill="url(#SVGID_5_)"/>
<linearGradient gradientUnits="userSpaceOnUse" id="SVGID_6_" x1="19.0176" x2="19.0176" y1="24.7275" y2="9.0601">
<stop offset="0" style="stop-color:#9AB06A"/>
<stop offset="1" style="stop-color:#367039"/>
</linearGradient>
<path d="M18.738,23.419c-2.242-2.24-3.424-5.136-3.577-8.077c-0.174,3.369,1.009,6.797,3.577,9.363  l4.153-4.153c-0.22-0.22-0.397-0.466-0.578-0.708L18.738,23.419z" fill="url(#SVGID_6_)"/>
<path d="M9.31,3.286l3.546,3.542c0.2-0.228,0.393-0.459,0.61-0.676L9.31,2c-4.018,4.02-5.921,9.352-5.75,14.628  C3.715,11.779,5.619,6.979,9.31,3.286z" fill="#FFFFFF"/>
<path d="M18.738,8.551l3.576,3.574c0.181-0.242,0.358-0.487,0.578-0.709l-4.153-4.152  c-2.568,2.568-3.751,5.996-3.577,9.364C15.314,13.688,16.496,10.792,18.738,8.551z" fill="#FFFFFF"/>
<linearGradient gradientTransform="matrix(0.7071 -0.7071 0.7071 0.7071 -1770.332 729.6548)" gradientUnits="userSpaceOnUse" id="SVGID_7_" x1="1802.8955" x2="1782.8008" y1="773.6841" y2="793.502">
<stop offset="0" style="stop-color:#B3C77D"/>
<stop offset="0.7273" style="stop-color:#3C743A"/>
<stop offset="1" style="stop-color:#235138"/>
</linearGradient>
<path d="M50.69,2l-4.156,4.152c5.422,5.422,5.42,14.244,0,19.665l4.154,4.155  C58.399,22.258,58.399,9.711,50.69,2z" fill="url(#SVGID_7_)"/>
<linearGradient gradientTransform="matrix(0.7071 -0.7071 0.7071 0.7071 -1770.332 729.6548)" gradientUnits="userSpaceOnUse" id="SVGID_8_" x1="1795.5195" x2="1775.4272" y1="766.2183" y2="786.0338">
<stop offset="0" style="stop-color:#B3C77D"/>
<stop offset="0.7273" style="stop-color:#3C743A"/>
<stop offset="1" style="stop-color:#235138"/>
</linearGradient>
<path d="M41.262,7.264l-4.153,4.152c2.52,2.52,2.52,6.617,0,9.136l4.153,4.153  C46.072,19.898,46.072,12.074,41.262,7.264z" fill="url(#SVGID_8_)"/>
<linearGradient gradientTransform="matrix(-1 0 0 1 -125.5918 0)" gradientUnits="userSpaceOnUse" id="SVGID_9_" x1="-177.0845" x2="-177.0845" y1="29.6333" y2="-3.0658">
<stop offset="0" style="stop-color:#9AB06A"/>
<stop offset="1" style="stop-color:#367039"/>
</linearGradient>
<path d="M50.688,28.686c3.692-3.693,5.597-8.497,5.753-13.344c0.171,5.276-1.734,10.608-5.753,14.631  l-4.154-4.155c0.217-0.218,0.411-0.448,0.61-0.677L50.688,28.686z" fill="url(#SVGID_9_)"/>
<linearGradient gradientTransform="matrix(-1 0 0 1 -125.5918 0)" gradientUnits="userSpaceOnUse" id="SVGID_10_" x1="-166.5747" x2="-166.5747" y1="24.7275" y2="9.0601">
<stop offset="0" style="stop-color:#9AB06A"/>
<stop offset="1" style="stop-color:#367039"/>
</linearGradient>
<path d="M41.262,23.419c2.242-2.24,3.424-5.136,3.577-8.077c0.175,3.369-1.009,6.797-3.577,9.363  l-4.153-4.153c0.22-0.22,0.397-0.466,0.578-0.708L41.262,23.419z" fill="url(#SVGID_10_)"/>
<path d="M50.69,3.286l-3.546,3.542c-0.2-0.228-0.393-0.459-0.61-0.676L50.69,2c4.018,4.02,5.921,9.352,5.75,14.628  C56.285,11.779,54.381,6.979,50.69,3.286z" fill="#FFFFFF"/>
<path d="M41.262,8.551l-3.576,3.574c-0.181-0.242-0.358-0.487-0.578-0.709l4.153-4.152  c2.568,2.568,3.752,5.996,3.577,9.364C44.686,13.688,43.504,10.792,41.262,8.551z" fill="#FFFFFF"/>
<rect fill-opacity="0.1" height="1.287" stroke-opacity="0.1" width="37.31" x="11.378" y="56.713"/>
<rect fill="none" height="60" width="60"/>
</g>
<g transform="matrix(2 0 0 2 0 0)">
<rect fill="none" height="30" width="30"/>
<rect fill-opacity="0.35" height="33.866" stroke-opacity="0.35" transform="matrix(-0.6985 0.7156 -0.7156 -0.6985 35.9922 14.2223)" width="3.706" x="13.147" y="-2.239"/>
<linearGradient gradientTransform="matrix(1 0 0 -1 -257 670.6689)" gradientUnits="userSpaceOnUse" id="SVGID_1__" x1="260" x2="284" y1="655.9761" y2="655.9761">
<stop offset="0" style="stop-color:#B36B4D"/>
<stop offset="0.8424" style="stop-color:#954B50"/>
<stop offset="1" style="stop-color:#B36B4D"/>
</linearGradient>
<polygon fill="url(#SVGID_1__)" points="25.809,26.431 3,4.177 4.191,2.956 27,25.21 "/>
<rect fill="none" height="30" width="30"/>
</g>
</svg>
