<?xml version="1.0" encoding="UTF-8"?>
<!DOCTYPE svg PUBLIC "-//W3C//DTD SVG 1.1 Tiny//EN" "http://www.w3.org/Graphics/SVG/1.1/DTD/svg11-tiny.dtd">
<svg baseProfile="tiny" height="30px" version="1.1" viewBox="0 0 30 30" width="30px" x="0px" xmlns="http://www.w3.org/2000/svg" xmlns:xlink="http://www.w3.org/1999/xlink" y="0px">
<polygon points="8.268,16.727 0,9.819 0,23.547 "/>
<path d="M0.127,7.319l11.307,9.448c0.46,0.354,0.908,0.555,1.402,0.566c0.021,0,0.094,0,0.113,0  c0.494-0.012,0.943-0.213,1.402-0.566l11.508-9.494C25.567,6.529,24.848,6,24,6H2C1.136,6,0.406,6.552,0.127,7.319z"/>
<path d="M14,24c0-0.893,0.394-1.732,1.08-2.305l3.615-3.013l-1.75-1.462l-1.321,1.09c-0.882,0.681-1.724,1.002-2.627,1.023h-0.023  h-0.138c-0.948-0.021-1.791-0.342-2.621-0.98l-1.167-0.975l-8.907,7.349C0.433,25.472,1.152,26,2,26h12.786  C14.291,25.452,14,24.75,14,24z"/>
<path d="M21.08,16.695C21.616,16.248,22.299,16,23,16c0.435,0,0.873,0.098,1.269,0.281C25.322,16.774,26,17.841,26,19V9.75  l-8.271,6.823l1.747,1.459L21.08,16.695z"/>
<path d="M23,30c-0.229,0-0.457-0.079-0.641-0.231l-6-5C16.132,24.578,16,24.297,16,24s0.132-0.578,0.359-0.768l6-5  C22.543,18.079,22.771,18,23,18c0.144,0,0.289,0.031,0.424,0.095C23.775,18.259,24,18.612,24,19v2h5c0.553,0,1,0.448,1,1v4  c0,0.553-0.447,1-1,1h-5v2c0,0.389-0.225,0.741-0.576,0.906C23.289,29.969,23.144,30,23,30L23,30z"/>
<g>
<rect fill="none" height="30" width="30"/>
</g>
</svg>
