<?xml version="1.0" encoding="UTF-8"?>
<!DOCTYPE svg PUBLIC "-//W3C//DTD SVG 1.1 Tiny//EN" "http://www.w3.org/Graphics/SVG/1.1/DTD/svg11-tiny.dtd">
<svg baseProfile="tiny" height="30" viewBox="0 0 30 30" width="30" xmlns="http://www.w3.org/2000/svg" xmlns:xlink="http://www.w3.org/1999/xlink">
<g>
<rect fill="none" height="30" width="30"/>
<rect height="27" width="21.6" x="4.2" y="1.5"/>
<path d="M5.55,2.85v24.3h18.9v-24.3s-16.76,0-18.9,0z"/>
<path d="M6.9,4.2v21.6h16.2v-21.6h-16.2z" fill="#FFFFFF"/>
<rect fill="#F6F6F5" height="18.9" width="13.5" x="8.25" y="5.55"/>
<path d="M10.58,12.88c0.371-0.77,0.937-1.065,1.758-1.065,0.074,0,0.159,0,0.245,0.011v1.01c-0.14-0.008-0.266-0.008-0.396-0.008-0.938,0-1.375,0.425-1.375,1.408v3.688h-1.097v-6.056h0.619l0.26,1.01z"/>
<path d="M16.47,17.82c-0.424,0.117-0.872,0.192-1.311,0.192-0.96,0-1.364-0.438-1.364-1.384v-4.01h-0.735v-0.746h0.745l0.438-1.45h0.661v1.45h1.47v0.746h-1.47v3.817c0,0.489,0.085,0.811,0.65,0.811,0.309,0,0.617-0.075,0.915-0.149v0.718z"/>
<path d="M20.3,10.53c-0.267-0.084-0.543-0.158-0.82-0.158-0.746,0-0.788,0.468-0.788,1.503h1.107v0.746h-1.107v5.311h-1.108v-5.313h-0.736v-0.744h0.736c0-1.334,0.201-2.271,1.695-2.271,0.352,0,0.694,0.041,1.022,0.128v0.793z"/>
</g>
</svg>
