<?xml version="1.0" encoding="UTF-8"?>
<!DOCTYPE svg PUBLIC "-//W3C//DTD SVG 1.1 Tiny//EN" "http://www.w3.org/Graphics/SVG/1.1/DTD/svg11-tiny.dtd">
<svg baseProfile="tiny" height="60" viewBox="0 0 60 60" width="60" xmlns="http://www.w3.org/2000/svg" xmlns:xlink="http://www.w3.org/1999/xlink">
<g>
<rect fill="none" height="60" width="60"/>
<linearGradient gradientTransform="matrix(1 0 0 -1 -126 -15.001)" gradientUnits="userSpaceOnUse" id="SVGID_1_" x1="137.4561" x2="174.9032" y1="-47.1479" y2="-47.1479">
<stop offset="0" style="stop-color:#B2B7B6"/>
<stop offset="0.2667" style="stop-color:#E0E3E1"/>
<stop offset="0.6545" style="stop-color:#989D9D"/>
<stop offset="0.8788" style="stop-color:#DBDFDD"/>
<stop offset="1" style="stop-color:#AFB3B2"/>
</linearGradient>
<path d="M48.544,55.771c0,0.678-0.55,1.229-1.228,1.229H12.685c-0.679,0-1.229-0.551-1.229-1.229V8.522  c0-0.678,0.55-1.228,1.229-1.228h34.632c0.679,0,1.229,0.55,1.229,1.228L48.544,55.771L48.544,55.771z" fill="url(#SVGID_1_)"/>
<rect fill-opacity="0.4" height="36.815" width="29.726" x="15.138" y="12.204"/>
<linearGradient gradientTransform="matrix(1 0 0 -1 -126 -15.001)" gradientUnits="userSpaceOnUse" id="SVGID_2_" x1="137.4561" x2="174.5449" y1="-70.772" y2="-70.772">
<stop offset="0" style="stop-color:#808080"/>
<stop offset="0.5" style="stop-color:#222021"/>
<stop offset="1" style="stop-color:#808080"/>
</linearGradient>
<path d="M47.316,55.771H12.685c-0.679,0-1.229-0.551-1.229-1.229v0.615v0.611  c0,0.68,0.55,1.229,1.229,1.229h34.632c0.679,0,1.229-0.549,1.229-1.229v-0.611v-0.615C48.544,55.222,47.995,55.771,47.316,55.771z" fill="url(#SVGID_2_)" fill-opacity="0.4"/>
<path d="M47.316,7.295H12.685c-0.679,0-1.229,0.55-1.229,1.228v0.613  c0-0.678,0.55-1.227,1.229-1.227h34.632c0.679,0,1.229,0.549,1.229,1.227V8.522C48.544,7.845,47.995,7.295,47.316,7.295z" fill="#FFFFFF" fill-opacity="0.3"/>
<linearGradient gradientTransform="matrix(1 0 0 -1 -126 -15.001)" gradientUnits="userSpaceOnUse" id="SVGID_3_" x1="148.2314" x2="163.7695" y1="-20.1479" y2="-20.1479">
<stop offset="0" style="stop-color:#ABB0AF"/>
<stop offset="0.303" style="stop-color:#FFFFFF"/>
<stop offset="0.7212" style="stop-color:#929494"/>
<stop offset="1" style="stop-color:#D3D5D4"/>
</linearGradient>
<path d="M37.77,7.295V4.839c0-1.016-0.793-1.84-1.769-1.84H23.999c-0.977,0-1.768,0.824-1.768,1.84v2.456  H37.77z" fill="url(#SVGID_3_)"/>
<path d="M36.001,2.999H23.999c-0.977,0-1.768,0.824-1.768,1.84v0.615  c0-1.018,0.791-1.842,1.768-1.842h12.003c0.977,0,1.768,0.824,1.768,1.842V4.839C37.77,3.823,36.977,2.999,36.001,2.999z" fill="#FFFFFF" fill-opacity="0.4"/>
<linearGradient gradientTransform="matrix(1 0 0 -1 -126 -15.001)" gradientUnits="userSpaceOnUse" id="SVGID_4_" x1="141.6563" x2="170.6951" y1="-54.5112" y2="-54.5112">
<stop offset="0" style="stop-color:#417C40"/>
<stop offset="0.3212" style="stop-color:#97B460"/>
<stop offset="0.7697" style="stop-color:#407B40"/>
<stop offset="1" style="stop-color:#799C54"/>
</linearGradient>
<rect fill="url(#SVGID_4_)" height="19.021" width="29.726" x="15.138" y="30"/>
<rect fill="#FFFFFF" fill-opacity="0.4" height="0.613" width="29.726" x="15.138" y="30"/>
<rect fill="#FFFFFF" fill-opacity="0.1" height="19.021" width="2.455" x="41.793" y="30"/>
<rect fill-opacity="0.4" height="0.613" width="15.538" x="22.231" y="6.682"/>
<rect fill-opacity="0.2" height="0.614" width="15.538" x="22.231" y="6.067"/>
<rect fill-opacity="0.4" height="0.613" width="29.726" x="15.138" y="48.408"/>
<rect fill-opacity="0.2" height="0.613" width="29.726" x="15.138" y="47.794"/>
<rect fill="#FFFFFF" fill-opacity="0.3" height="0.613" width="29.726" x="15.138" y="49.021"/>
<rect fill-opacity="0.3" height="0.613" width="29.726" x="15.138" y="11.591"/>
<path d="M15.138,12.204v36.815h29.726V12.204H15.138z M44.249,48.408H15.751v-35.59h28.497L44.249,48.408  L44.249,48.408z" fill-opacity="0.1"/>
<rect fill-opacity="0.3" height="1.227" width="29.726" x="15.138" y="12.204"/>
<linearGradient gradientTransform="matrix(1 0 0 -1 -126 -15.001)" gradientUnits="userSpaceOnUse" id="SVGID_5_" x1="137.4561" x2="174.5449" y1="-68.0103" y2="-68.0103">
<stop offset="0" style="stop-color:#A8A9AA"/>
<stop offset="0.5" style="stop-color:#222021"/>
<stop offset="1" style="stop-color:#A8A9AA"/>
</linearGradient>
<rect fill="url(#SVGID_5_)" fill-opacity="0.3" height="0.611" width="37.089" x="11.456" y="52.705"/>
<rect fill="#FFFFFF" fill-opacity="0.3" height="0.613" width="37.089" x="11.456" y="53.316"/>
<rect fill="#FFFFFF" fill-opacity="0.2" height="34.363" width="12.542" x="20.047" y="13.431"/>
<path d="M31.69,41.021c-4.318,0-8.339-2.324-10.49-6.063c-3.324-5.779-1.327-13.185,4.451-16.51  c1.828-1.051,3.904-1.606,6.006-1.606c1.105,0,2.208,0.151,3.277,0.449c0.316,0.088,0.537,0.374,0.545,0.702  c0.006,0.328-0.203,0.622-0.516,0.723c-0.549,0.178-1.029,0.387-1.471,0.641c-3.531,2.031-4.752,6.558-2.72,10.09  c1.314,2.287,3.772,3.707,6.413,3.707c1.285,0,2.558-0.342,3.679-0.986c0.44-0.256,0.876-0.576,1.292-0.951  c0.141-0.127,0.319-0.191,0.499-0.191c0.133,0,0.266,0.035,0.385,0.107c0.281,0.17,0.418,0.504,0.336,0.822  c-0.818,3.174-2.83,5.82-5.665,7.453C35.877,40.462,33.796,41.021,31.69,41.021L31.69,41.021z" fill-opacity="0.3"/>
<linearGradient gradientUnits="userSpaceOnUse" id="SVGID_6_" x1="31.4941" x2="31.4941" y1="17.105" y2="40.8411">
<stop offset="0" style="stop-color:#C1B682"/>
<stop offset="0.4788" style="stop-color:#9F7844"/>
<stop offset="1" style="stop-color:#A68C47"/>
</linearGradient>
<path d="M41.237,32.812c-3.896,2.242-8.87,0.9-11.109-2.994c-2.24-3.896-0.898-8.867,2.994-11.106  c0.522-0.299,1.066-0.526,1.612-0.703c-2.831-0.79-5.962-0.497-8.712,1.084c-5.433,3.126-7.303,10.062-4.178,15.494  c3.126,5.432,10.063,7.301,15.496,4.176c2.747-1.582,4.581-4.145,5.315-6.994C42.227,32.156,41.757,32.511,41.237,32.812z" fill="url(#SVGID_6_)"/>
<linearGradient gradientUnits="userSpaceOnUse" id="SVGID_7_" x1="31.1113" x2="31.1113" y1="18.7026" y2="41.0685">
<stop offset="0" style="stop-color:#FFFFFF"/>
<stop offset="0.5" style="stop-color:#CAC184"/>
<stop offset="1" style="stop-color:#BAB563"/>
</linearGradient>
<path d="M31.69,39.533c-3.788,0-7.313-2.037-9.201-5.316c-2.914-5.067-1.163-11.562,3.904-14.478  c1.603-0.921,3.422-1.408,5.264-1.408c0.211,0,0.424,0.006,0.635,0.02c-3.887,2.559-5.159,7.753-2.809,11.839  c1.579,2.746,4.531,4.453,7.703,4.453c1.37,0,2.727-0.322,3.956-0.936c-0.919,1.836-2.353,3.363-4.173,4.41  C35.36,39.042,33.536,39.533,31.69,39.533L31.69,39.533z" fill="url(#SVGID_7_)"/>
</g>
</svg>
