<?xml version="1.0" encoding="UTF-8"?>
<!DOCTYPE svg PUBLIC "-//W3C//DTD SVG 1.1 Tiny//EN" "http://www.w3.org/Graphics/SVG/1.1/DTD/svg11-tiny.dtd">
<svg baseProfile="tiny" height="30px" version="1.1" viewBox="0 0 30 30" width="30px" x="0px" xmlns="http://www.w3.org/2000/svg" xmlns:xlink="http://www.w3.org/1999/xlink" y="0px">
<g>
<rect fill="none" height="30" width="30"/>
</g>
<path d="M27,23c0,0.334-0.084,0.668-0.25,0.97C26.396,24.605,25.727,25,25,25H5c-0.727,0-1.396-0.395-1.75-1.03  C3.084,23.668,3,23.334,3,23c0-0.369,0.102-0.736,0.305-1.061l9.999-16C13.67,5.355,14.311,5,15,5s1.33,0.355,1.696,0.939l9.999,16  C26.898,22.264,27,22.631,27,23L27,23z"/>
</svg>
