<?xml version="1.0" encoding="UTF-8"?>
<!DOCTYPE svg PUBLIC "-//W3C//DTD SVG 1.1 Tiny//EN" "http://www.w3.org/Graphics/SVG/1.1/DTD/svg11-tiny.dtd">
<svg baseProfile="tiny" height="30px" version="1.1" viewBox="-3.96 -2 30 30" width="30px" x="0px" xmlns="http://www.w3.org/2000/svg" xmlns:xlink="http://www.w3.org/1999/xlink" y="0px">
<polygon points="13.317,24.467 15.438,26.59 9.78,28 11.196,22.346 "/>
<path d="M9.256,21.859c0.081-0.323,0.48-0.822,0.804-1.188c-2.09-0.273-3.729-1.016-4.905-2.242c-1.513-1.576-2.27-3.941-2.27-7.096  c0-2.807,0.815-5.011,2.447-6.61s3.755-2.399,6.371-2.399c2.488,0,4.404,0.754,5.749,2.263c1.344,1.509,2.017,3.648,2.017,6.419  c0,0.083-0.008,0.154-0.009,0.236l0.923-0.924c0.391-0.391,0.902-0.586,1.414-0.586c0.105,0,0.21,0.014,0.314,0.03  c-0.177-2.912-1.073-5.219-2.697-6.912C17.591,0.95,15.003,0,11.648,0C8.276,0,5.491,1.017,3.295,3.049  C1.099,5.082,0,7.889,0,11.471c0,3.756,1.066,6.641,3.199,8.654c1.542,1.456,3.478,2.377,5.795,2.781L9.256,21.859z"/>
<path d="M12.715,5.154c-2.215,0-3.981,0.693-5.298,2.078C6.1,8.618,5.441,10.527,5.441,12.961c0,1.577,0.374,2.816,1.121,3.719  s1.668,1.354,2.762,1.354c0.812,0,1.511-0.189,2.099-0.567s1.142-1.06,1.661-2.044c0.163,0.577,0.416,1.055,0.747,1.448l1.886-1.886  c-0.009-0.027-0.021-0.045-0.028-0.075c-0.096-0.378-0.144-0.918-0.144-1.62c0-1.768,0.319-4.479,0.957-8.135H12.715z   M12.441,11.307c-0.219,1.714-0.499,2.908-0.841,3.582c-0.342,0.675-0.781,1.012-1.319,1.012c-0.602,0-1.019-0.241-1.251-0.725  c-0.232-0.482-0.349-1.267-0.349-2.352c0-1.695,0.333-3.039,0.998-4.033c0.665-0.993,1.472-1.49,2.42-1.49h0.848L12.441,11.307z"/>
<polygon points="12.257,21.285 16.492,25.523 26.04,15.975 21.797,11.732 12.251,21.279 "/>
</svg>
