<?xml version="1.0" encoding="UTF-8"?>
<!DOCTYPE svg PUBLIC "-//W3C//DTD SVG 1.1 Tiny//EN" "http://www.w3.org/Graphics/SVG/1.1/DTD/svg11-tiny.dtd">
<svg baseProfile="tiny" height="30" viewBox="0 0 30 30" width="30" xmlns="http://www.w3.org/2000/svg" xmlns:xlink="http://www.w3.org/1999/xlink">
<g>
<polygon fill-opacity="0.6" points="17.131,28 13.66,22.792 18.681,18.775 13.68,10.775 18.772,6.701 16.683,2 28,2 28,28 "/>
<linearGradient gradientUnits="userSpaceOnUse" id="SVGID_1_" x1="21" x2="21" y1="3" y2="27.0005">
<stop offset="0" style="stop-color:#C79A7D"/>
<stop offset="1" style="stop-color:#71303C"/>
</linearGradient>
<polygon fill="url(#SVGID_1_)" points="17.666,27 27,27 27,3 18.222,3 20,7 15,11 20,19 15,23 "/>
<polygon fill-opacity="0.6" points="8.586,28 2,21.414 2,2 13.872,2 16.228,7.299 11.32,11.225 16.319,19.225 11.341,23.208   14.535,28 "/>
<linearGradient gradientUnits="userSpaceOnUse" id="SVGID_2_" x1="9" x2="9" y1="3" y2="27.0005">
<stop offset="0" style="stop-color:#C79A7D"/>
<stop offset="1" style="stop-color:#71303C"/>
</linearGradient>
<polygon fill="url(#SVGID_2_)" points="12.667,27 10,23 15,19 10,11 15,7 13.222,3 3,3 3,21 9,27 "/>
<linearGradient gradientTransform="matrix(-1 0 0 1 30 0)" gradientUnits="userSpaceOnUse" id="SVGID_3_" x1="24" x2="24" y1="21.0313" y2="26.9415">
<stop offset="0" style="stop-color:#FFFFFF"/>
<stop offset="1" style="stop-color:#C8C8C8"/>
</linearGradient>
<polygon fill="url(#SVGID_3_)" points="3,21 9,21 9,27 "/>
<polygon fill="#FFFFFF" fill-opacity="0.3" points="13.222,3 3,3 3,4 13.666,4 " stroke-opacity="0.3"/>
<polygon fill="#FFFFFF" fill-opacity="0.3" points="27,4 27,3 18.222,3 18.666,4 " stroke-opacity="0.3"/>
<rect fill="none" height="30" width="30"/>
</g>
</svg>
