<?xml version="1.0" encoding="UTF-8"?>
<!DOCTYPE svg PUBLIC "-//W3C//DTD SVG 1.1 Tiny//EN" "http://www.w3.org/Graphics/SVG/1.1/DTD/svg11-tiny.dtd">
<svg baseProfile="tiny" height="30px" version="1.1" viewBox="0 0 30 30" width="30px" x="0px" xmlns="http://www.w3.org/2000/svg" xmlns:xlink="http://www.w3.org/1999/xlink" y="0px">
<rect fill="none" height="30" width="30"/>
<polygon points="5.279,7.183 7.277,7.183 7.396,11.019 9.236,7.183 10.834,7.183 10.834,11.019 12.551,7.183 14.671,7.183   11.473,13.177 9.597,13.177 9.556,9.45 7.878,13.177 5.96,13.177 "/>
<path d="M17.795,6.356c0-0.637-0.695-1.15-1.557-1.15c-0.859,0-1.558,0.514-1.558,1.15c0,0.34,0.201,0.645,0.52,0.855v5.965h2.075  V7.212C17.596,7.001,17.795,6.696,17.795,6.356z"/>
<path d="M12.213,6.964c0,0,1.099-2.258,4.035-2.258c2.936,0,4.016,2.218,4.016,2.218s-0.539-2.878-4.076-2.878  S12.213,6.964,12.213,6.964z"/>
<path d="M11.015,6.325c0,0,1.278-3.078,5.233-3.078s4.973,3.037,4.973,3.037s-0.918-3.836-5.033-3.836  C12.073,2.448,11.015,6.325,11.015,6.325z"/>
<polygon points="9.648,23.259 9.652,23.259 8.139,20.825 5.279,20.825 9.48,27.552 11.524,26.271 10.818,25.132 "/>
<polygon points="10.491,20.822 12.008,23.259 16.131,23.259 14.617,20.822 "/>
<polygon points="16.969,20.822 18.486,23.259 22.629,23.259 21.115,20.822 "/>
<polygon points="23.469,20.822 24.721,22.841 24.721,20.822 "/>
<polygon points="20.301,15.806 21.814,18.239 24.721,18.239 20.52,11.513 18.451,12.804 20.324,15.806 "/>
<polygon points="19.461,18.239 17.949,15.806 13.861,15.808 15.374,18.239 "/>
<polygon points="13.022,18.239 11.513,15.808 7.378,15.808 8.892,18.242 "/>
<polygon points="5.279,16.21 5.279,18.242 6.539,18.242 "/>
</svg>
