<?xml version="1.0" encoding="UTF-8"?>
<!DOCTYPE svg PUBLIC "-//W3C//DTD SVG 1.1 Tiny//EN" "http://www.w3.org/Graphics/SVG/1.1/DTD/svg11-tiny.dtd">
<svg baseProfile="tiny" height="30px" version="1.1" viewBox="0 0 30 30" width="30px" x="0px" xmlns="http://www.w3.org/2000/svg" xmlns:xlink="http://www.w3.org/1999/xlink" y="0px">
<polygon points="1.538,20 2,23 5,23 5,20 "/>
<polygon points="0.77,15 1.23,18 5,18 5,15 "/>
<polygon points="0,10 0.462,13 5,13 5,10 "/>
<polygon points="13.45,17.72 6,11.494 6,23.867 "/>
<polygon points="30,23.809 30,11.43 22.546,17.58 "/>
<path d="M20.52,19.252c-0.845,0.652-1.651,0.959-2.519,0.979l-0.024,0.001h-0.128c-0.913-0.021-1.72-0.327-2.513-0.937l-1.104-0.923  l-7.979,6.583C6.593,25.574,7.243,26,8,26h20c0.771,0,1.434-0.442,1.768-1.083l-8.006-6.69L20.52,19.252z"/>
<path d="M28,8H8C7.228,8,6.566,8.442,6.232,9.083l10.322,8.626c0.424,0.326,0.837,0.512,1.294,0.522c0.02,0,0.086,0,0.104,0  c0.457-0.011,0.87-0.196,1.294-0.522l10.5-8.664C29.407,8.426,28.757,8,28,8z"/>
<g>
<rect fill="none" height="30" width="30"/>
</g>
</svg>
