<?xml version="1.0" encoding="UTF-8"?>
<!DOCTYPE svg PUBLIC "-//W3C//DTD SVG 1.1 Tiny//EN" "http://www.w3.org/Graphics/SVG/1.1/DTD/svg11-tiny.dtd">
<svg baseProfile="tiny" height="20px" version="1.1" viewBox="0 0 20 20" width="20px" x="0px" xmlns="http://www.w3.org/2000/svg" xmlns:xlink="http://www.w3.org/1999/xlink" y="0px">
<rect fill="none" height="20" width="20"/>
<rect fill="none" fill-rule="evenodd" height="20" width="20"/>
<path d="M20,10c0,4.411-3.589,8-8,8H0V2h12C16.411,2,20,5.589,20,10L20,10z" fill-opacity="0.1" fill-rule="evenodd" stroke-opacity="0.1"/>
<path d="M12,17H0V3h12c3.867,0,7,3.133,7,7  C19,13.867,15.867,17,12,17z" fill="url(#SVGID_1_)" fill-rule="evenodd"/>
<path d="M18,10c0,3.309-2.691,6-6,6H0v-1h12  c2.757,0,5-2.243,5-5s-2.243-5-5-5H0V4h12C15.309,4,18,6.691,18,10z" fill="#FFFFFF" fill-opacity="0.4" fill-rule="evenodd" stroke-opacity="0.4"/>
<path d="M19,10c0,3.867-3.133,7-7,7H0v-1h12c3.309,0,5.998-2.691,5.998-6  S15.309,4.002,12,4.002H0V3h12C15.867,3,19,6.133,19,10z" fill-opacity="0.2" fill-rule="evenodd" stroke-opacity="0.2"/>
<rect fill="#FFFFFF" fill-opacity="0.9" fill-rule="evenodd" height="8" stroke-opacity="0.9" width="1" x="8" y="6"/>
<rect fill-opacity="0.1" fill-rule="evenodd" height="8" stroke-opacity="0.1" width="1" x="7" y="6"/>
<defs>
<linearGradient gradientTransform="matrix(0 -1 -1 0 -1460 -2440)" gradientUnits="userSpaceOnUse" id="SVGID_1_" x1="-2449.9995" x2="-2449.9995" y1="-1460.1279" y2="-1478.3214">
<stop offset="0" style="stop-color:#FAFAFA"/>
<stop offset="1" style="stop-color:#E6E6F0"/>
</linearGradient>
</defs>
</svg>
