<?xml version="1.0" encoding="UTF-8"?>
<!DOCTYPE svg PUBLIC "-//W3C//DTD SVG 1.1 Tiny//EN" "http://www.w3.org/Graphics/SVG/1.1/DTD/svg11-tiny.dtd">
<svg baseProfile="tiny" height="30px" version="1.1" viewBox="0 0 30 30" width="30px" x="0px" xmlns="http://www.w3.org/2000/svg" xmlns:xlink="http://www.w3.org/1999/xlink" y="0px">
<g>
<rect fill="none" height="30" width="30"/>
</g>
<path d="M16.566,7.154c-2.215,0-3.98,0.693-5.298,2.078c-1.317,1.386-1.976,3.295-1.976,5.729c0,1.577,0.373,2.816,1.121,3.719  c0.747,0.902,1.668,1.354,2.762,1.354c0.811,0,1.511-0.189,2.099-0.567s1.142-1.06,1.661-2.044c0.181,0.64,0.466,1.164,0.854,1.578  H20c0-0.41,0.089-0.808,0.245-1.173c-0.102-0.035-0.204-0.069-0.274-0.125c-0.191-0.15-0.335-0.415-0.431-0.793  s-0.144-0.918-0.144-1.62c0-1.768,0.318-4.479,0.957-8.135H16.566z M16.293,13.307c-0.219,1.714-0.499,2.908-0.841,3.582  C15.11,17.563,14.67,17.9,14.133,17.9c-0.602,0-1.019-0.241-1.251-0.725c-0.232-0.482-0.349-1.267-0.349-2.352  c0-1.695,0.332-3.04,0.998-4.033c0.665-0.993,1.472-1.49,2.42-1.49h0.848L16.293,13.307z"/>
<path d="M14,22.681c-2.132-0.263-3.802-1.008-4.994-2.251c-1.514-1.576-2.27-3.941-2.27-7.096c0-2.807,0.815-5.011,2.447-6.61  c1.631-1.6,3.755-2.399,6.371-2.399c2.488,0,4.404,0.754,5.749,2.263c1.345,1.509,2.017,3.648,2.017,6.419  c0,1.207-0.149,2.204-0.436,3.007C22.923,16.012,22.961,16,23,16c0.701,0,1.384,0.248,1.923,0.697l0.281,0.234  C25.727,15.829,26,14.479,26,12.855c0-3.436-0.912-6.104-2.734-8.005C21.442,2.95,18.854,2,15.5,2c-3.373,0-6.157,1.017-8.354,3.049  c-2.197,2.033-3.295,4.84-3.295,8.422c0,3.756,1.066,6.641,3.199,8.654c1.791,1.691,4.111,2.662,6.949,2.934V22.681z"/>
<path d="M23,30c0.229,0,0.457-0.079,0.641-0.231l6-5C29.868,24.578,30,24.297,30,24s-0.132-0.578-0.359-0.768l-6-5  C23.457,18.079,23.229,18,23,18c-0.144,0-0.289,0.031-0.424,0.095C22.225,18.259,22,18.612,22,19v2h-5c-0.553,0-1,0.448-1,1v4  c0,0.553,0.447,1,1,1h5v2c0,0.389,0.225,0.741,0.576,0.906C22.711,29.969,22.856,30,23,30L23,30z"/>
</svg>
