<?xml version="1.0" encoding="UTF-8"?>
<!DOCTYPE svg PUBLIC "-//W3C//DTD SVG 1.1 Tiny//EN" "http://www.w3.org/Graphics/SVG/1.1/DTD/svg11-tiny.dtd">
<svg baseProfile="tiny" height="30px" version="1.1" viewBox="0 0 30 30" width="30px" x="0px" xmlns="http://www.w3.org/2000/svg" xmlns:xlink="http://www.w3.org/1999/xlink" y="0px">
<path d="M27,4H5C3.896,4,3,4.896,3,6H2C1.447,6,1,6.447,1,7s0.447,1,1,1h1v2H2c-0.553,0-1,0.447-1,1s0.447,1,1,1h1v2H2  c-0.553,0-1,0.447-1,1s0.447,1,1,1h1v2H2c-0.553,0-1,0.447-1,1s0.447,1,1,1h1v2H2c-0.553,0-1,0.447-1,1s0.447,1,1,1h1  c0,1.104,0.896,2,2,2h22c1.104,0,2-0.896,2-2V6C29,4.896,28.104,4,27,4z M26,23H6V7h20V23z"/>
<path d="M25,8H7v14h18V8z M8,13.135L10.467,11l3.467,3l1.732-2l2.376,2.192c0.079,1.077,0.339,2.032,0.738,2.808H8V13.135z M24,20.5  c0,0.199-0.82,0.37-2,0.45V21h-1v-0.007C20.836,20.996,20.672,21,20.5,21c-1.934,0-3.5-0.224-3.5-0.5s1.566-0.5,3.5-0.5  c0.172,0,0.336,0.004,0.5,0.007v-2.098c-1.141-0.417-2-2.232-2-4.409c0-2.485,1.119-4.5,2.5-4.5s2.5,2.015,2.5,4.5  c0,2.177-0.859,3.992-2,4.409v2.141C23.18,20.13,24,20.301,24,20.5z"/>
<g fill-opacity="0.5" stroke-opacity="0.5">
<rect fill="none" height="30" width="30"/>
</g>
</svg>
