<?xml version="1.0" encoding="UTF-8"?>
<!DOCTYPE svg PUBLIC "-//W3C//DTD SVG 1.1 Tiny//EN" "http://www.w3.org/Graphics/SVG/1.1/DTD/svg11-tiny.dtd">
<svg baseProfile="tiny" height="30px" version="1.1" viewBox="0 0 30 30" width="30px" x="0px" xmlns="http://www.w3.org/2000/svg" xmlns:xlink="http://www.w3.org/1999/xlink" y="0px">
<path d="M7.259,8.673c0.423-0.518,0.896-0.991,1.414-1.414L6.515,5.101c-0.391-0.392-1.024-0.391-1.414,0  c-0.391,0.391-0.391,1.022,0,1.414L7.259,8.673z"/>
<path d="M15,5c0.337,0,0.671,0.018,1,0.051V2c0-0.553-0.448-1-1-1c-0.553,0-1,0.447-1,1v3.051C14.329,5.018,14.663,5,15,5z"/>
<path d="M22.741,8.673l2.158-2.158c0.391-0.392,0.391-1.024,0-1.414c-0.391-0.391-1.023-0.392-1.414,0l-2.158,2.158  C21.845,7.682,22.318,8.155,22.741,8.673z"/>
<path d="M28,14h-3.051C24.982,14.329,25,14.662,25,15s-0.018,0.671-0.051,1H28c0.553,0,1-0.447,1-1S28.553,14,28,14z"/>
<path d="M5,15c0-0.338,0.018-0.671,0.05-1H2c-0.553,0-1,0.447-1,1s0.447,1,1,1h3.05C5.018,15.671,5,15.338,5,15z"/>
<path d="M22.741,21.327c-0.423,0.518-0.896,0.991-1.414,1.414l2.158,2.158c0.391,0.391,1.023,0.391,1.414,0s0.391-1.024,0-1.414  L22.741,21.327z"/>
<path d="M15,25c-0.337,0-0.671-0.018-1-0.051V28c0,0.553,0.447,1,1,1s1-0.447,1-1v-3.051C15.671,24.982,15.337,25,15,25z"/>
<path d="M7.259,21.327l-2.158,2.158c-0.391,0.391-0.391,1.023,0,1.414s1.023,0.391,1.414,0l2.158-2.158  C8.155,22.318,7.682,21.845,7.259,21.327z"/>
<path d="M15,7c-4.411,0-8,3.589-8,8s3.589,8,8,8s8-3.589,8-8S19.411,7,15,7z M15,20c-2.757,0-5-2.243-5-5s2.243-5,5-5s5,2.243,5,5  S17.757,20,15,20z"/>
<g fill-opacity="0.5" stroke-opacity="0.5">
<rect fill="none" height="30" width="30"/>
</g>
</svg>
