<?xml version="1.0" encoding="UTF-8"?>
<!DOCTYPE svg PUBLIC "-//W3C//DTD SVG 1.1 Tiny//EN" "http://www.w3.org/Graphics/SVG/1.1/DTD/svg11-tiny.dtd">
<svg baseProfile="tiny" height="30px" version="1.1" viewBox="0 0 30 30" width="30px" x="0px" xmlns="http://www.w3.org/2000/svg" xmlns:xlink="http://www.w3.org/1999/xlink" y="0px">
<g fill-opacity="0.5" stroke-opacity="0.5">
<rect fill="none" height="30" width="30"/>
</g>
<path d="M8.836,13h2.273L7.891,1.352H5.359L2,13h1.953l0.688-2.563h3.523L8.836,13z M4.945,9.125l1.469-5.789l1.43,5.789H4.945z"/>
<path d="M18.898,12.18c0.651-0.547,0.977-1.367,0.977-2.461c0-1.567-0.742-2.521-2.227-2.859c1.292-0.458,1.938-1.354,1.938-2.688  c0-0.938-0.278-1.642-0.836-2.113s-1.394-0.707-2.508-0.707h-3.891V13h3.617C17.271,13,18.247,12.727,18.898,12.18z M14.5,2.664  h1.281c0.542,0,0.949,0.144,1.223,0.43s0.41,0.714,0.41,1.281c0,0.667-0.149,1.153-0.449,1.461s-0.77,0.461-1.41,0.461H14.5V2.664z   M14.5,11.688V7.609h1.164c0.683,0,1.184,0.164,1.504,0.492s0.48,0.836,0.48,1.523c0,0.734-0.155,1.262-0.465,1.582  s-0.812,0.48-1.504,0.48H14.5z"/>
<path d="M25.891,2.57c0.484,0,1.034,0.091,1.648,0.273V1.477c-0.62-0.167-1.237-0.25-1.852-0.25c-1.505,0-2.634,0.485-3.387,1.457  s-1.129,2.426-1.129,4.363c0,2.161,0.374,3.715,1.121,4.66s1.863,1.418,3.348,1.418c0.646,0,1.278-0.083,1.898-0.25v-1.328  c-0.558,0.156-1.083,0.234-1.578,0.234c-0.849,0-1.485-0.372-1.91-1.117s-0.637-1.972-0.637-3.68c0-1.469,0.206-2.571,0.617-3.309  S25.063,2.57,25.891,2.57z"/>
<path d="M19.5,15H18c-0.828,0-1.5,0.672-1.5,1.5S17.172,18,18,18h1.5c1.381,0,2.5,1.119,2.5,2.5S20.881,23,19.5,23H18h-5v-2  c0-0.347-0.18-0.668-0.475-0.851C12.365,20.051,12.183,20,12,20c-0.152,0-0.307,0.035-0.447,0.105l-6,3C5.214,23.275,5,23.621,5,24  s0.214,0.725,0.553,0.895l6,3C11.693,27.965,11.848,28,12,28c0.183,0,0.365-0.051,0.525-0.149C12.82,27.668,13,27.347,13,27v-1h6.5  c3.033,0,5.5-2.467,5.5-5.5S22.533,15,19.5,15z"/>
</svg>
