<?xml version="1.0" encoding="UTF-8"?>
<!DOCTYPE svg PUBLIC "-//W3C//DTD SVG 1.1 Tiny//EN" "http://www.w3.org/Graphics/SVG/1.1/DTD/svg11-tiny.dtd">
<svg baseProfile="tiny" height="30" viewBox="0 0 30 30" width="30" xmlns="http://www.w3.org/2000/svg" xmlns:xlink="http://www.w3.org/1999/xlink">
<g>
<g>
<rect fill="none" height="30" width="30"/>
</g>
<circle cx="15" cy="15" fill-opacity="0.6" r="14" stroke-opacity="0.6"/>
<radialGradient cx="15" cy="3.7026" gradientUnits="userSpaceOnUse" id="SVGID_1_" r="23.0618">
<stop offset="0" style="stop-color:#DDD7B2"/>
<stop offset="0.7818" style="stop-color:#B3964D"/>
<stop offset="1" style="stop-color:#B39C4D"/>
</radialGradient>
<path d="M15,28C7.832,28,2,22.168,2,15C2,7.832,7.832,2,15,2c7.168,0,13,5.832,13,13  C28,22.168,22.168,28,15,28L15,28z" fill="url(#SVGID_1_)"/>
<path d="M15,3c7,0,12.709,5.564,12.975,12.5C27.98,15.333,28,15.169,28,15c0-7.168-5.832-13-13-13  C7.832,2,2,7.832,2,15c0,0.169,0.019,0.333,0.025,0.5C2.291,8.564,8,3,15,3z" fill="#FFFFFF" fill-opacity="0.3" stroke-opacity="0.3"/>
<linearGradient gradientUnits="userSpaceOnUse" id="SVGID_2_" x1="8.5" x2="8.5" y1="7.5415" y2="19.6124">
<stop offset="0" style="stop-color:#997642"/>
<stop offset="1" style="stop-color:#E5E1C3"/>
</linearGradient>
<path d="M8.5,19C5.467,19,3,16.533,3,13.5C3,10.467,5.467,8,8.5,8s5.5,2.467,5.5,5.5  C14,16.533,11.533,19,8.5,19L8.5,19z" fill="url(#SVGID_2_)"/>
<linearGradient gradientUnits="userSpaceOnUse" id="SVGID_3_" x1="8.5" x2="8.5" y1="8.625" y2="18.5013">
<stop offset="0" style="stop-color:#CCCCCC"/>
<stop offset="0.2" style="stop-color:#EEEEEE"/>
<stop offset="1" style="stop-color:#FCFCFC"/>
</linearGradient>
<circle cx="8.5" cy="13.5" fill="url(#SVGID_3_)" r="4.5"/>
<path d="M8.5,10c2.314,0,4.198,1.753,4.45,4c0.019-0.166,0.05-0.329,0.05-0.5C13,11.015,10.985,9,8.5,9  S4,11.015,4,13.5c0,0.171,0.032,0.334,0.05,0.5C4.302,11.753,6.186,10,8.5,10z" fill-opacity="0.2" stroke-opacity="0.2"/>
<path d="M8.5,16C7.122,16,6,14.878,6,13.5S7.122,11,8.5,11s2.5,1.122,2.5,2.5S9.878,16,8.5,16L8.5,16z" fill="#22243E"/>
<linearGradient gradientUnits="userSpaceOnUse" id="SVGID_4_" x1="9.0005" x2="9.0005" y1="13.0034" y2="15.1348">
<stop offset="0" style="stop-color:#22243E"/>
<stop offset="1" style="stop-color:#B9E1D5"/>
</linearGradient>
<circle cx="9" cy="14" fill="url(#SVGID_4_)" r="1"/>
<linearGradient gradientUnits="userSpaceOnUse" id="SVGID_5_" x1="21.5" x2="21.5" y1="7.5415" y2="19.6124">
<stop offset="0" style="stop-color:#997642"/>
<stop offset="1" style="stop-color:#E5E1C3"/>
</linearGradient>
<path d="M21.5,19c-3.033,0-5.5-2.467-5.5-5.5c0-3.033,2.467-5.5,5.5-5.5s5.5,2.467,5.5,5.5  C27,16.533,24.533,19,21.5,19L21.5,19z" fill="url(#SVGID_5_)"/>
<linearGradient gradientUnits="userSpaceOnUse" id="SVGID_6_" x1="21.5" x2="21.5" y1="8.625" y2="18.5013">
<stop offset="0" style="stop-color:#CCCCCC"/>
<stop offset="0.2" style="stop-color:#EEEEEE"/>
<stop offset="1" style="stop-color:#FCFCFC"/>
</linearGradient>
<circle cx="21.5" cy="13.5" fill="url(#SVGID_6_)" r="4.5"/>
<path d="M21.5,10c2.314,0,4.197,1.753,4.449,4C25.969,13.834,26,13.671,26,13.5c0-2.485-2.015-4.5-4.5-4.5  S17,11.015,17,13.5c0,0.171,0.031,0.334,0.051,0.5C17.303,11.753,19.186,10,21.5,10z" fill-opacity="0.2" stroke-opacity="0.2"/>
<path d="M21.5,16c-1.379,0-2.5-1.122-2.5-2.5s1.121-2.5,2.5-2.5s2.5,1.122,2.5,2.5S22.879,16,21.5,16L21.5,16z" fill="#22243E"/>
<linearGradient gradientUnits="userSpaceOnUse" id="SVGID_7_" x1="22" x2="22" y1="13.0039" y2="15.1352">
<stop offset="0" style="stop-color:#22243E"/>
<stop offset="1" style="stop-color:#B9E1D5"/>
</linearGradient>
<circle cx="22" cy="14" fill="url(#SVGID_7_)" r="1"/>
<path d="M21,23c0,0.553-0.224,1-0.5,1h-11C9.224,24,9,23.553,9,23l0,0c0-0.553,0.224-1,0.5-1h11  C20.776,22,21,22.447,21,23L21,23z" fill="#FFFFFF" fill-opacity="0.4" stroke-opacity="0.4"/>
<path d="M21,22c0,0.553-0.224,1-0.5,1h-11C9.224,23,9,22.553,9,22l0,0c0-0.553,0.224-1,0.5-1h11  C20.776,21,21,21.447,21,22L21,22z" fill-opacity="0.4" stroke-opacity="0.4"/>
<path d="M21,22.5c0,0.276-0.224,0.5-0.5,0.5h-11C9.224,23,9,22.776,9,22.5l0,0C9,22.224,9.224,22,9.5,22h11  C20.776,22,21,22.224,21,22.5L21,22.5z" fill="#2F2021"/>
</g>
</svg>
