<?xml version="1.0" encoding="UTF-8"?>
<!DOCTYPE svg PUBLIC "-//W3C//DTD SVG 1.1 Tiny//EN" "http://www.w3.org/Graphics/SVG/1.1/DTD/svg11-tiny.dtd">
<svg baseProfile="tiny" height="60" viewBox="0 0 60 60" width="60" xmlns="http://www.w3.org/2000/svg" xmlns:xlink="http://www.w3.org/1999/xlink">
<g>
<rect fill="none" height="60" width="60"/>
<rect fill="none" height="60" width="60"/>
<linearGradient gradientTransform="matrix(-1 0 0 1 -1148.998 0)" gradientUnits="userSpaceOnUse" id="SVGID_1_" x1="-1188.8574" x2="-1185.7031" y1="44.1982" y2="44.1982">
<stop offset="0" style="stop-color:#979A9A"/>
<stop offset="0.3394" style="stop-color:#5D5F61"/>
<stop offset="0.7394" style="stop-color:#BFC2C1"/>
<stop offset="1" style="stop-color:#898A8B"/>
</linearGradient>
<path d="M36.705,55.458c0,0.969,0.705,1.754,1.576,1.754l0,0c0.871,0,1.578-0.785,1.578-1.754V32.937  c0-0.969-0.707-1.752-1.578-1.752l0,0c-0.871,0-1.576,0.784-1.576,1.752V55.458z" fill="url(#SVGID_1_)"/>
<linearGradient gradientTransform="matrix(-1 0 0 1 -1148.998 0)" gradientUnits="userSpaceOnUse" id="SVGID_2_" x1="-1190.4336" x2="-1184.125" y1="50.5068" y2="50.5068">
<stop offset="0" style="stop-color:#B9BDBC"/>
<stop offset="0.297" style="stop-color:#919595"/>
<stop offset="0.7333" style="stop-color:#E7EBE8"/>
<stop offset="1" style="stop-color:#B7BCBA"/>
</linearGradient>
<path d="M35.127,50.901c0,0.437,0.352,0.789,0.789,0.789h4.73c0.438,0,0.789-0.353,0.789-0.789v-0.789  c0-0.436-0.352-0.789-0.789-0.789h-4.73c-0.438,0-0.789,0.354-0.789,0.789V50.901z" fill="url(#SVGID_2_)"/>
<path d="M35.916,49.324h4.73c0.438,0,0.789,0.354,0.789,0.789v0.789c0-0.435-0.352-0.789-0.789-0.789  h-4.73c-0.438,0-0.789,0.354-0.789,0.789v-0.789C35.127,49.677,35.479,49.324,35.916,49.324z" fill="#FFFFFF" fill-opacity="0.3" stroke-opacity="0.3"/>
<rect fill-opacity="0.2" height="0.789" stroke-opacity="0.2" width="3.154" x="36.705" y="51.69"/>
<linearGradient gradientTransform="matrix(-1 0 0 1 -1148.998 0)" gradientUnits="userSpaceOnUse" id="SVGID_3_" x1="-1190.4336" x2="-1184.125" y1="46.5635" y2="46.5635">
<stop offset="0" style="stop-color:#B9BDBC"/>
<stop offset="0.297" style="stop-color:#919595"/>
<stop offset="0.7333" style="stop-color:#E7EBE8"/>
<stop offset="1" style="stop-color:#B7BCBA"/>
</linearGradient>
<path d="M35.127,46.958c0,0.437,0.352,0.789,0.789,0.789h4.73c0.438,0,0.789-0.352,0.789-0.789v-0.789  c0-0.435-0.352-0.788-0.789-0.788h-4.73c-0.438,0-0.789,0.353-0.789,0.788V46.958z" fill="url(#SVGID_3_)"/>
<path d="M35.916,45.38h4.73c0.438,0,0.789,0.353,0.789,0.788v0.789c0-0.436-0.352-0.789-0.789-0.789h-4.73  c-0.438,0-0.789,0.354-0.789,0.789v-0.789C35.127,45.733,35.479,45.38,35.916,45.38z" fill-opacity="0.3" stroke-opacity="0.3"/>
<rect fill-opacity="0.2" height="0.789" stroke-opacity="0.2" width="3.154" x="36.705" y="47.746"/>
<linearGradient gradientTransform="matrix(-1 0 0 1 -1148.998 0)" gradientUnits="userSpaceOnUse" id="SVGID_4_" x1="-1190.4336" x2="-1184.125" y1="39.4648" y2="39.4648">
<stop offset="0" style="stop-color:#B9BDBC"/>
<stop offset="0.297" style="stop-color:#919595"/>
<stop offset="0.7333" style="stop-color:#E7EBE8"/>
<stop offset="1" style="stop-color:#B7BCBA"/>
</linearGradient>
<path d="M35.127,39.859c0,0.436,0.352,0.789,0.789,0.789h4.73c0.438,0,0.789-0.354,0.789-0.789v-0.789  c0-0.437-0.352-0.789-0.789-0.789h-4.73c-0.438,0-0.789,0.353-0.789,0.789V39.859z" fill="url(#SVGID_4_)"/>
<path d="M35.916,38.282h4.73c0.438,0,0.789,0.353,0.789,0.789v0.789c0-0.437-0.352-0.789-0.789-0.789  h-4.73c-0.438,0-0.789,0.352-0.789,0.789v-0.789C35.127,38.634,35.479,38.282,35.916,38.282z" fill="#FFFFFF" fill-opacity="0.3" stroke-opacity="0.3"/>
<rect fill-opacity="0.2" height="0.789" stroke-opacity="0.2" width="3.154" x="36.705" y="40.648"/>
<linearGradient gradientTransform="matrix(-1 0 0 1 -1148.998 0)" gradientUnits="userSpaceOnUse" id="SVGID_5_" x1="-1190.4336" x2="-1184.125" y1="35.521" y2="35.521">
<stop offset="0" style="stop-color:#B9BDBC"/>
<stop offset="0.297" style="stop-color:#919595"/>
<stop offset="0.7333" style="stop-color:#E7EBE8"/>
<stop offset="1" style="stop-color:#B7BCBA"/>
</linearGradient>
<path d="M35.127,35.916c0,0.437,0.352,0.789,0.789,0.789h4.73c0.438,0,0.789-0.352,0.789-0.789v-0.789  c0-0.435-0.352-0.789-0.789-0.789h-4.73c-0.438,0-0.789,0.354-0.789,0.789V35.916z" fill="url(#SVGID_5_)"/>
<path d="M35.916,35.916h4.73c0.438,0,0.789-0.353,0.789-0.789v0.789c0,0.437-0.352,0.789-0.789,0.789h-4.73  c-0.438,0-0.789-0.352-0.789-0.789v-0.789C35.127,35.563,35.479,35.916,35.916,35.916z" fill-opacity="0.2" stroke-opacity="0.2"/>
<path d="M35.916,46.958h4.73c0.438,0,0.789-0.353,0.789-0.789v0.789c0,0.437-0.352,0.789-0.789,0.789h-4.73  c-0.438,0-0.789-0.352-0.789-0.789v-0.789C35.127,46.605,35.479,46.958,35.916,46.958z" fill-opacity="0.2" stroke-opacity="0.2"/>
<path d="M35.916,50.901h4.73c0.438,0,0.789-0.352,0.789-0.789v0.789c0,0.437-0.352,0.789-0.789,0.789h-4.73  c-0.438,0-0.789-0.353-0.789-0.789v-0.789C35.127,50.549,35.479,50.901,35.916,50.901z" fill-opacity="0.2" stroke-opacity="0.2"/>
<path d="M35.916,34.338h4.73c0.438,0,0.789,0.354,0.789,0.789v0.789c0-0.436-0.352-0.789-0.789-0.789  h-4.73c-0.438,0-0.789,0.354-0.789,0.789v-0.789C35.127,34.691,35.479,34.338,35.916,34.338z" fill="#FFFFFF" fill-opacity="0.3" stroke-opacity="0.3"/>
<rect fill-opacity="0.2" height="0.789" stroke-opacity="0.2" width="3.154" x="36.705" y="36.704"/>
<linearGradient gradientTransform="matrix(-1 0 0 1 -1148.998 0)" gradientUnits="userSpaceOnUse" id="SVGID_6_" x1="-1196.7441" x2="-1177.8145" y1="31.5776" y2="31.5776">
<stop offset="0" style="stop-color:#979A9A"/>
<stop offset="0.3394" style="stop-color:#5D5F61"/>
<stop offset="0.7394" style="stop-color:#BFC2C1"/>
<stop offset="1" style="stop-color:#898A8B"/>
</linearGradient>
<path d="M47.746,31.184c0,0.871-0.707,1.576-1.576,1.576H30.395c-0.871,0-1.578-0.706-1.578-1.576v-0.789  h18.93V31.184z" fill="url(#SVGID_6_)"/>
<linearGradient gradientTransform="matrix(-1 0 0 1 -1148.998 0)" gradientUnits="userSpaceOnUse" id="SVGID_7_" x1="-1203.8418" x2="-1170.7168" y1="26.8457" y2="26.8457">
<stop offset="0" style="stop-color:#4E8146"/>
<stop offset="0.2606" style="stop-color:#326644"/>
<stop offset="1" style="stop-color:#98B060"/>
</linearGradient>
<path d="M21.719,28.817c0,0.871,0.705,1.578,1.578,1.578h29.971c0.871,0,1.576-0.707,1.576-1.578v-3.944  c0-0.871-0.705-1.578-1.576-1.578H23.297c-0.873,0-1.578,0.707-1.578,1.578V28.817z" fill="url(#SVGID_7_)"/>
<path d="M23.297,29.606h29.971c0.871,0,1.576-0.707,1.576-1.578v0.789c0,0.871-0.705,1.578-1.576,1.578H23.297  c-0.873,0-1.578-0.707-1.578-1.578v-0.789C21.719,28.899,22.424,29.606,23.297,29.606z" fill-opacity="0.2" stroke-opacity="0.2"/>
<path d="M23.297,23.296h29.971c0.871,0,1.576,0.707,1.576,1.578v0.789  c0-0.871-0.705-1.578-1.576-1.578H23.297c-0.873,0-1.578,0.707-1.578,1.578v-0.789C21.719,24.003,22.424,23.296,23.297,23.296z" fill="#FFFFFF" fill-opacity="0.5" stroke-opacity="0.5"/>
<linearGradient gradientTransform="matrix(-1 0 0 1 -1148.998 0)" gradientUnits="userSpaceOnUse" id="SVGID_8_" x1="-1203.8418" x2="-1170.7168" y1="19.7471" y2="19.7471">
<stop offset="0" style="stop-color:#B39C4D"/>
<stop offset="0.2545" style="stop-color:#AC8A4A"/>
<stop offset="1" style="stop-color:#E4E0C1"/>
</linearGradient>
<path d="M21.719,21.718c0,0.872,0.705,1.578,1.578,1.578h29.971c0.871,0,1.576-0.706,1.576-1.578v-3.943  c0-0.872-0.705-1.578-1.576-1.578H23.297c-0.873,0-1.578,0.706-1.578,1.578V21.718z" fill="url(#SVGID_8_)"/>
<path d="M23.297,22.507h29.971c0.871,0,1.576-0.706,1.576-1.578v0.789c0,0.872-0.705,1.578-1.576,1.578H23.297  c-0.873,0-1.578-0.706-1.578-1.578v-0.789C21.719,21.801,22.424,22.507,23.297,22.507z" fill-opacity="0.2" stroke-opacity="0.2"/>
<path d="M23.297,16.198h29.971c0.871,0,1.576,0.706,1.576,1.578v0.789  c0-0.872-0.705-1.578-1.576-1.578H23.297c-0.873,0-1.578,0.706-1.578,1.578v-0.789C21.719,16.904,22.424,16.198,23.297,16.198z" fill="#FFFFFF" fill-opacity="0.5" stroke-opacity="0.5"/>
<linearGradient gradientTransform="matrix(-1 0 0 1 -1148.998 0)" gradientUnits="userSpaceOnUse" id="SVGID_9_" x1="-1203.8418" x2="-1170.7168" y1="12.6484" y2="12.6484">
<stop offset="0" style="stop-color:#AF7563"/>
<stop offset="0.2061" style="stop-color:#88444B"/>
<stop offset="1" style="stop-color:#C39072"/>
</linearGradient>
<path d="M21.719,14.62c0,0.871,0.705,1.578,1.578,1.578h29.971c0.871,0,1.576-0.707,1.576-1.578v-3.944  c0-0.871-0.705-1.578-1.576-1.578H23.297c-0.873,0-1.578,0.707-1.578,1.578V14.62z" fill="url(#SVGID_9_)"/>
<path d="M23.297,15.409h29.971c0.871,0,1.576-0.707,1.576-1.578v0.789c0,0.871-0.705,1.578-1.576,1.578H23.297  c-0.873,0-1.578-0.707-1.578-1.578v-0.789C21.719,14.702,22.424,15.409,23.297,15.409z" fill-opacity="0.2" stroke-opacity="0.2"/>
<path d="M23.297,9.099h29.971c0.871,0,1.576,0.707,1.576,1.578v0.789c0-0.871-0.705-1.578-1.576-1.578  H23.297c-0.873,0-1.578,0.707-1.578,1.578v-0.789C21.719,9.806,22.424,9.099,23.297,9.099z" fill="#FFFFFF" fill-opacity="0.5" stroke-opacity="0.5"/>
<linearGradient gradientTransform="matrix(-1 0 0 1 -1148.998 0)" gradientUnits="userSpaceOnUse" id="SVGID_10_" x1="-1195.9551" x2="-1178.3573" y1="55.6343" y2="55.6343">
<stop offset="0" style="stop-color:#979A9A"/>
<stop offset="0.3394" style="stop-color:#5D5F61"/>
<stop offset="0.7394" style="stop-color:#BFC2C1"/>
<stop offset="1" style="stop-color:#898A8B"/>
</linearGradient>
<path d="M29.605,56.423c0,0.871,0.705,1.578,1.578,1.578h14.197c0.869,0,1.576-0.707,1.576-1.578v-1.578  c0-0.872-0.707-1.577-1.576-1.577H31.184c-0.873,0-1.578,0.706-1.578,1.577V56.423z" fill="url(#SVGID_10_)"/>
<path d="M31.184,57.212h14.197c0.869,0,1.576-0.708,1.576-1.578v0.789c0,0.871-0.707,1.578-1.576,1.578H31.184  c-0.873,0-1.578-0.707-1.578-1.578v-0.789C29.605,56.504,30.311,57.212,31.184,57.212z" fill-opacity="0.2" stroke-opacity="0.2"/>
<path d="M31.184,53.268h14.197c0.869,0,1.576,0.706,1.576,1.577v0.789  c0-0.872-0.707-1.578-1.576-1.578H31.184c-0.873,0-1.578,0.706-1.578,1.578v-0.789C29.605,53.974,30.311,53.268,31.184,53.268z" fill="#FFFFFF" fill-opacity="0.3" stroke-opacity="0.3"/>
<linearGradient gradientTransform="matrix(-1 0 0 1 -1148.998 0)" gradientUnits="userSpaceOnUse" id="SVGID_11_" x1="-1176.2363" x2="-1176.2363" y1="38.8081" y2="45.1177">
<stop offset="0" style="stop-color:#B6B6B6"/>
<stop offset="0.4727" style="stop-color:#979A9A"/>
<stop offset="0.8909" style="stop-color:#48494B"/>
<stop offset="1" style="stop-color:#696B6C"/>
</linearGradient>
<path d="M5.154,43.804c0,0.87,0.707,1.577,1.578,1.577h41.014c0.871,0,1.576-0.707,1.576-1.577v-3.155  c0-0.873-0.705-1.578-1.576-1.578H6.732C5.861,39.071,5.154,43.804,5.154,43.804z" fill="url(#SVGID_11_)"/>
<linearGradient gradientTransform="matrix(-1 0 0 1 -1148.998 0)" gradientUnits="userSpaceOnUse" id="SVGID_12_" x1="-1176.2363" x2="-1176.2363" y1="38.8081" y2="45.1177">
<stop offset="0" style="stop-color:#E0E0E0"/>
<stop offset="0.4727" style="stop-color:#AEB2B0"/>
<stop offset="0.8909" style="stop-color:#48494B"/>
<stop offset="1" style="stop-color:#696B6C"/>
</linearGradient>
<path d="M5.154,43.804c0,0.87,0.707,1.577,1.578,1.577h41.014c0.871,0,1.576-0.707,1.576-1.577v-3.155  c0-0.873-0.705-1.578-1.576-1.578H6.732C5.861,39.071,5.154,43.804,5.154,43.804z M5.943,40.648c0-0.434,0.354-0.789,0.789-0.789  h41.014c0.436,0,0.789,0.355,0.789,0.789v3.155c0,0.434-0.354,0.789-0.789,0.789H6.732c-0.436,0-0.789-0.355-0.789-0.789V40.648z" fill="url(#SVGID_12_)"/>
<linearGradient gradientTransform="matrix(-1 0 0 1 -1148.998 0)" gradientUnits="userSpaceOnUse" id="SVGID_13_" x1="-1177.8145" x2="-1177.8145" y1="2.0005" y2="8.3101">
<stop offset="0" style="stop-color:#D9D9D9"/>
<stop offset="0.4727" style="stop-color:#B2B7B5"/>
<stop offset="0.8909" style="stop-color:#67696B"/>
<stop offset="1" style="stop-color:#777A7B"/>
</linearGradient>
<path d="M6.732,8.31H50.9c0.871,0,1.578-0.706,1.578-1.577V3.578C52.479,2.707,51.771,2,50.9,2H6.732  C5.861,2,5.154,2.707,5.154,3.578C5.154,3.578,5.861,8.31,6.732,8.31z" fill="url(#SVGID_13_)"/>
<linearGradient gradientTransform="matrix(-1 0 0 1 -1148.998 0)" gradientUnits="userSpaceOnUse" id="SVGID_14_" x1="-1177.8145" x2="-1177.8145" y1="2.0005" y2="8.3101">
<stop offset="0" style="stop-color:#F5F5F5"/>
<stop offset="0.4727" style="stop-color:#D4DAD6"/>
<stop offset="0.8909" style="stop-color:#67696B"/>
<stop offset="1" style="stop-color:#777A7B"/>
</linearGradient>
<path d="M5.154,3.578c0,0,0.707,4.732,1.578,4.732H50.9c0.871,0,1.578-0.706,1.578-1.577V3.578  C52.479,2.707,51.771,2,50.9,2H6.732C5.861,2,5.154,2.707,5.154,3.578z M5.943,3.578c0-0.435,0.354-0.789,0.789-0.789H50.9  c0.436,0,0.789,0.354,0.789,0.789v3.155c0,0.434-0.354,0.788-0.789,0.788H6.732C6.297,7.521,5.943,3.578,5.943,3.578z" fill="url(#SVGID_14_)"/>
<linearGradient gradientTransform="matrix(-1 0 0 1 -1148.998 0)" gradientUnits="userSpaceOnUse" id="SVGID_15_" x1="-1160.0684" x2="-1160.0684" y1="2.0005" y2="45.4">
<stop offset="0" style="stop-color:#DDE0DE"/>
<stop offset="0.5273" style="stop-color:#919696"/>
<stop offset="1" style="stop-color:#2D2D32"/>
</linearGradient>
<path d="M5.775,2.332L16.986,8.31v30.761L5.775,45.049c-0.375-0.288-0.621-0.736-0.621-1.245V3.578  C5.154,3.067,5.4,2.62,5.775,2.332z" fill="url(#SVGID_15_)"/>
<linearGradient gradientTransform="matrix(-1 0 0 1 -1148.998 0)" gradientUnits="userSpaceOnUse" id="SVGID_16_" x1="-1154.9414" x2="-1154.9414" y1="2.2153" y2="45.1406">
<stop offset="0" style="stop-color:#EEF2EF"/>
<stop offset="0.2545" style="stop-color:#CBCFCD"/>
<stop offset="0.5273" style="stop-color:#A6AEAC"/>
<stop offset="1" style="stop-color:#2D2D32"/>
</linearGradient>
<path d="M5.775,2.332l0.957,0.509V44.54l-0.957,0.509c-0.375-0.288-0.621-0.736-0.621-1.245V3.578  C5.154,3.067,5.4,2.62,5.775,2.332z" fill="url(#SVGID_16_)"/>
<linearGradient gradientTransform="matrix(-1 0 0 1 -1148.998 0)" gradientUnits="userSpaceOnUse" id="SVGID_17_" x1="-1164.0117" x2="-1164.0117" y1="1.7437" y2="45.7098">
<stop offset="0" style="stop-color:#B7BBBA"/>
<stop offset="0.5273" style="stop-color:#797E7E"/>
<stop offset="1" style="stop-color:#2D2D32"/>
</linearGradient>
<polygon fill="url(#SVGID_17_)" points="13.041,6.208 16.986,8.31 16.986,39.071 13.041,41.173 "/>
<path d="M16.986,39.071L5.775,45.049c-0.338-0.26-0.563-0.655-0.604-1.104C5.232,44.097,16.986,39.071,16.986,39.071z  " fill-opacity="0.1" stroke-opacity="0.1"/>
<path d="M5.172,3.436c0.041-0.449,0.266-0.844,0.604-1.104L16.986,8.31  C16.986,8.31,5.232,3.284,5.172,3.436z" fill="#FFFFFF" fill-opacity="0.3" stroke-opacity="0.3"/>
<rect fill-opacity="0.2" height="0.789" stroke-opacity="0.2" width="18.93" x="28.816" y="30.395"/>
<rect fill-opacity="0.2" height="0.788" stroke-opacity="0.2" width="3.154" x="36.705" y="32.76"/>
</g>
</svg>
