<?xml version="1.0" encoding="UTF-8"?>
<!DOCTYPE svg PUBLIC "-//W3C//DTD SVG 1.1 Tiny//EN" "http://www.w3.org/Graphics/SVG/1.1/DTD/svg11-tiny.dtd">
<svg baseProfile="tiny" height="30px" version="1.1" viewBox="0 0 30 30" width="30px" x="0px" xmlns="http://www.w3.org/2000/svg" xmlns:xlink="http://www.w3.org/1999/xlink" y="0px">
<path d="M21.184,8.305l-4.6-4.598c-1.088-1.09-2.853-1.09-3.941,0L7.674,8.676l3.293,3.293c0.478,0.07,0.938,0.279,1.305,0.648  c0.367,0.367,0.579,0.828,0.648,1.305l3.294,3.294l4.969-4.968C22.271,11.159,22.271,9.395,21.184,8.305z"/>
<path d="M12.791,15.106c-0.113,0.291-0.284,0.563-0.518,0.795c-0.907,0.908-2.378,0.908-3.285,0c-0.907-0.906-0.907-2.377,0-3.283  c0.234-0.234,0.506-0.406,0.796-0.52l-4.081-4.08L3.732,9.989l1.314,1.313l-4.23,4.23c-1.088,1.089-1.088,2.855,0,3.943l4.599,4.598  c1.088,1.09,2.854,1.09,3.942,0l4.229-4.229l1.314,1.314l1.971-1.971L12.791,15.106z"/>
<path d="M14.863,27.213H11.15v-3.518l-1.085,1.084c-0.478,0.479-1.066,0.799-1.702,0.967v1.467H4.628  c-0.96,0-1.741,0.729-1.841,1.66V30h13.937v-0.93C16.725,28.045,15.892,27.213,14.863,27.213z"/>
<path d="M23.396,16c-0.177,0-0.356-0.046-0.519-0.144c-0.472-0.287-0.622-0.902-0.335-1.375C23.455,12.979,24,10.93,24,9  s-0.545-3.979-1.458-5.48c-0.287-0.473-0.137-1.086,0.335-1.373c0.473-0.287,1.088-0.137,1.374,0.334C25.346,4.284,26,6.719,26,9  s-0.654,4.719-1.749,6.52C24.063,15.831,23.733,16,23.396,16L23.396,16z"/>
<path d="M26.585,18c-0.187,0-0.375-0.051-0.543-0.16c-0.464-0.301-0.596-0.92-0.295-1.383C27.242,14.151,28,11.643,28,9  s-0.758-5.15-2.253-7.455c-0.301-0.465-0.169-1.084,0.295-1.383c0.462-0.303,1.082-0.17,1.383,0.295C29.134,3.092,30,5.965,30,9  s-0.866,5.91-2.575,8.544C27.233,17.84,26.912,18,26.585,18L26.585,18z"/>
<g fill-opacity="0.5" stroke-opacity="0.5">
<rect fill="none" height="30" width="30" y="0"/>
</g>
</svg>
