<?xml version="1.0" encoding="UTF-8"?>
<!DOCTYPE svg PUBLIC "-//W3C//DTD SVG 1.1 Tiny//EN" "http://www.w3.org/Graphics/SVG/1.1/DTD/svg11-tiny.dtd">
<svg baseProfile="tiny" height="30px" version="1.1" viewBox="0 0 30 30" width="30px" x="0px" xmlns="http://www.w3.org/2000/svg" xmlns:xlink="http://www.w3.org/1999/xlink" y="0px">
<rect fill="none" height="30" width="30"/>
<path d="M5.954,9.943L20.14,24.053c0.69,1.91,0.198,2.633-0.681,3.512L18.023,29L1,12.067l1.436-1.436  C3.313,9.753,4.038,9.261,5.954,9.943z"/>
<path d="M12.262,24.475c-1.676,0.432-3.574-0.029-4.943-1.392c-1.368-1.36-1.839-3.256-1.41-4.928L12.262,24.475z"/>
<path d="M28.147,11.771c0,0-0.413-2.225-2.375-4.551l0.066-0.066c0.778-0.778,0.775-2.048-0.004-2.826  C25.055,3.553,23.779,3.555,23,4.332L22.943,4.39c-2.385-2.043-4.697-2.466-4.697-2.466c-0.968-0.171-1.985-0.156-2.924,0.16  c-1.508,0.507-2.375,1.876-3.349,3.055c-0.616,0.747-1.2,1.535-1.847,2.256C9.37,8.238,8.64,8.787,7.99,9.147l12.942,12.873  c0.358-0.649,0.908-1.379,1.752-2.136c0.721-0.647,1.509-1.231,2.256-1.849c1.18-0.974,2.551-1.843,3.055-3.349  C28.31,13.752,28.321,12.737,28.147,11.771z"/>
</svg>
