<?xml version="1.0" encoding="UTF-8"?>
<!DOCTYPE svg PUBLIC "-//W3C//DTD SVG 1.1 Tiny//EN" "http://www.w3.org/Graphics/SVG/1.1/DTD/svg11-tiny.dtd">
<svg baseProfile="tiny" height="60" viewBox="0 0 60 60" width="60" xmlns="http://www.w3.org/2000/svg" xmlns:xlink="http://www.w3.org/1999/xlink">
<g>
<rect fill="none" height="60" width="60"/>
<linearGradient gradientTransform="matrix(1 0 0 -1 2194 3656.9473)" gradientUnits="userSpaceOnUse" id="SVGID_1_" x1="-2164" x2="-2164" y1="3649.3477" y2="3604.5469">
<stop offset="0" style="stop-color:#757575"/>
<stop offset="0.2424" style="stop-color:#000000"/>
<stop offset="0.8606" style="stop-color:#000000"/>
<stop offset="1" style="stop-color:#363636"/>
</linearGradient>
<path d="M56.506,7.6H3.493C2.666,7.6,2,8.27,2,9.094v41.813C2,51.732,2.666,52.4,3.493,52.4h53.013  C57.33,52.4,58,51.732,58,50.906V9.094C58,8.27,57.33,7.6,56.506,7.6z M8.719,49.413c0,0.412-0.336,0.748-0.745,0.748H4.986  c-0.412,0-0.748-0.336-0.748-0.748V47.92c0-0.41,0.336-0.746,0.748-0.746h2.987c0.409,0,0.745,0.336,0.745,0.746V49.413z   M8.719,12.08c0,0.41-0.336,0.746-0.745,0.746H4.986c-0.412,0-0.748-0.336-0.748-0.746v-1.493c0-0.409,0.336-0.748,0.748-0.748  h2.987c0.409,0,0.745,0.339,0.745,0.748V12.08z M15.438,49.413c0,0.412-0.335,0.748-0.745,0.748h-2.987  c-0.412,0-0.747-0.336-0.747-0.748V47.92c0-0.41,0.335-0.746,0.747-0.746h2.987c0.41,0,0.745,0.336,0.745,0.746V49.413z   M15.438,12.08c0,0.41-0.335,0.746-0.745,0.746h-2.987c-0.412,0-0.747-0.336-0.747-0.746v-1.493c0-0.409,0.335-0.748,0.747-0.748  h2.987c0.41,0,0.745,0.339,0.745,0.748V12.08z M22.159,49.413c0,0.412-0.337,0.748-0.747,0.748h-2.986  c-0.41,0-0.746-0.336-0.746-0.748V47.92c0-0.41,0.335-0.746,0.746-0.746h2.986c0.41,0,0.747,0.336,0.747,0.746V49.413z   M22.159,12.08c0,0.41-0.337,0.746-0.747,0.746h-2.986c-0.41,0-0.746-0.336-0.746-0.746v-1.493c0-0.409,0.335-0.748,0.746-0.748  h2.986c0.41,0,0.747,0.339,0.747,0.748V12.08z M28.88,49.413c0,0.412-0.337,0.748-0.747,0.748h-2.986  c-0.411,0-0.746-0.336-0.746-0.748V47.92c0-0.41,0.335-0.746,0.746-0.746h2.986c0.41,0,0.747,0.336,0.747,0.746V49.413z   M28.88,12.08c0,0.41-0.337,0.746-0.747,0.746h-2.986c-0.411,0-0.746-0.336-0.746-0.746v-1.493c0-0.409,0.335-0.748,0.746-0.748  h2.986c0.41,0,0.747,0.339,0.747,0.748V12.08z M35.6,49.413c0,0.412-0.338,0.748-0.747,0.748h-2.985  c-0.412,0-0.748-0.336-0.748-0.748V47.92c0-0.41,0.336-0.746,0.748-0.746h2.985c0.409,0,0.747,0.336,0.747,0.746V49.413z   M35.6,12.08c0,0.41-0.338,0.746-0.747,0.746h-2.985c-0.412,0-0.748-0.336-0.748-0.746v-1.493c0-0.409,0.336-0.748,0.748-0.748  h2.985c0.409,0,0.747,0.339,0.747,0.748V12.08z M42.318,49.413c0,0.412-0.335,0.748-0.745,0.748h-2.987  c-0.412,0-0.746-0.336-0.746-0.748V47.92c0-0.41,0.334-0.746,0.746-0.746h2.987c0.41,0,0.745,0.336,0.745,0.746V49.413z   M42.318,12.08c0,0.41-0.335,0.746-0.745,0.746h-2.987c-0.412,0-0.746-0.336-0.746-0.746v-1.493c0-0.409,0.334-0.748,0.746-0.748  h2.987c0.41,0,0.745,0.339,0.745,0.748V12.08z M49.039,49.413c0,0.412-0.336,0.748-0.746,0.748h-2.987  c-0.41,0-0.745-0.336-0.745-0.748V47.92c0-0.41,0.335-0.746,0.745-0.746h2.987c0.41,0,0.746,0.336,0.746,0.746V49.413z   M49.039,12.08c0,0.41-0.336,0.746-0.746,0.746h-2.987c-0.41,0-0.745-0.336-0.745-0.746v-1.493c0-0.409,0.335-0.748,0.745-0.748  h2.987c0.41,0,0.746,0.339,0.746,0.748V12.08z M55.761,49.413c0,0.412-0.339,0.748-0.748,0.748h-2.987  c-0.41,0-0.745-0.336-0.745-0.748V47.92c0-0.41,0.335-0.746,0.745-0.746h2.987c0.409,0,0.748,0.336,0.748,0.746V49.413z   M55.761,12.08c0,0.41-0.339,0.746-0.748,0.746h-2.987c-0.41,0-0.745-0.336-0.745-0.746v-1.493c0-0.409,0.335-0.748,0.745-0.748  h2.987c0.409,0,0.748,0.339,0.748,0.748V12.08z" fill="url(#SVGID_1_)"/>
<path d="M56.506,7.6H3.493C2.666,7.6,2,8.27,2,9.094v0.745  c0-0.824,0.666-1.493,1.493-1.493h53.013C57.33,8.346,58,9.015,58,9.839V9.094C58,8.27,57.33,7.6,56.506,7.6z" fill="#FFFFFF" fill-opacity="0.55" stroke-opacity="0.55"/>
<path d="M3.493,52.4h53.013C57.33,52.4,58,51.732,58,50.906v-0.745  c0,0.824-0.67,1.493-1.494,1.493H3.493C2.666,51.654,2,50.985,2,50.161v0.745C2,51.732,2.666,52.4,3.493,52.4z" fill="#FFFFFF" fill-opacity="0.1" stroke-opacity="0.1"/>
<linearGradient gradientTransform="matrix(1 0 0 -1 2194 3656.9473)" gradientUnits="userSpaceOnUse" id="SVGID_2_" x1="-2164" x2="-2164" y1="3641.7637" y2="3611.8926">
<stop offset="0" style="stop-color:#000000"/>
<stop offset="0.5" style="stop-color:#666666"/>
<stop offset="1" style="stop-color:#000000"/>
</linearGradient>
<rect fill="url(#SVGID_2_)" height="29.871" width="56" x="2" y="15.064"/>
<linearGradient gradientTransform="matrix(1 0 0 -1 2194 3656.9473)" gradientUnits="userSpaceOnUse" id="SVGID_3_" x1="-2164.0005" x2="-2164.0005" y1="3612.0117" y2="3641.8828">
<stop offset="0" style="stop-color:#72B9C3"/>
<stop offset="1" style="stop-color:#546F9F"/>
</linearGradient>
<path d="M55.761,43.441c0,0.821-0.673,1.494-1.493,1.494H5.732c-0.82,0-1.494-0.673-1.494-1.494V16.559  c0-0.819,0.674-1.494,1.494-1.494h48.535c0.82,0,1.493,0.675,1.493,1.494V43.441z" fill="url(#SVGID_3_)"/>
<path d="M54.268,43.441H5.732c-0.82,0-1.494,0.074-1.494-0.748l0,0  c0,0.822,0.674,1.493,1.494,1.493h48.535c0.82,0,1.493-0.671,1.493-1.493l0,0C55.761,43.516,55.088,43.441,54.268,43.441z" fill="#FFFFFF" fill-opacity="0.5" stroke-opacity="0.5"/>
<linearGradient gradientTransform="matrix(1 0 0 -1 2194 3656.9473)" gradientUnits="userSpaceOnUse" id="SVGID_4_" x1="-2164.0005" x2="-2164.0005" y1="3641.8828" y2="3611.8926">
<stop offset="0" style="stop-color:#000000"/>
<stop offset="1" style="stop-color:#404040"/>
</linearGradient>
<path d="M54.268,15.813c0.41,0,0.745,0.336,0.745,0.745v26.883c0,0.412-0.335,0.745-0.745,0.745H5.732  c-0.411,0-0.746-0.333-0.746-0.745V16.559c0-0.409,0.335-0.745,0.746-0.745H54.268 M54.268,15.064H5.732  c-0.82,0-1.494,0.675-1.494,1.494v26.883c0,0.821,0.674,1.494,1.494,1.494h48.535c0.82,0,1.493-0.673,1.493-1.494V16.559  C55.761,15.739,55.088,15.064,54.268,15.064L54.268,15.064z" fill="url(#SVGID_4_)"/>
<path d="M54.268,24.025v-5.974c0-0.824-0.67-1.493-1.494-1.493H7.226  c-0.824,0-1.493,0.669-1.493,1.493v9.709L54.268,24.025z" fill="#FFFFFF" fill-opacity="0.2" stroke-opacity="0.2"/>
<rect fill="none" height="60" width="60"/>
</g>
<g transform="matrix(1 0 0 1 30 30)">
<rect fill="none" height="30" width="30"/>
<path d="M15,29.5C7.004,29.5,0.5,22.996,0.5,15C0.5,7.004,7.004,0.5,15,0.5  c7.995,0,14.5,6.505,14.5,14.5S22.995,29.5,15,29.5L15,29.5z" fill-opacity="0.35" stroke-opacity="0.35"/>
<radialGradient cx="435.2295" cy="910.6348" gradientTransform="matrix(0.618 0 0 0.618 -253.9715 -552.4329)" gradientUnits="userSpaceOnUse" id="SVGID_1__" r="28.704">
<stop offset="0" style="stop-color:#B4DFC6"/>
<stop offset="0.5" style="stop-color:#72B9C3"/>
<stop offset="1" style="stop-color:#546F9F"/>
</radialGradient>
<circle cx="15" cy="15" fill="url(#SVGID_1__)" r="13.464"/>
<path d="M27.983,14.263c-0.299-5.259-3.704-9.788-8.679-11.54l-0.605,0.1L15.18,2.15  l-4.386,2.615l-0.165,1.102H8.083l1.006,1.71L6.365,9.8l-0.635,2.744l2.25,3.987l2.297-0.469l0.839,0.723l0.655,0.064l0.433,1.691  l-0.571,1.484l2.084,5.332h2.126l2.107-1.701v-0.695l0.557-0.863l0.459-0.236c-0.116,0.18-0.3,0.586-0.3,0.586  c-0.02,0.139,0.299,2.855,1.234,2.643c0.711-0.16,3.248-4.873,3.296-5.322c0.096-0.887-0.387-1.252-0.683-1.391l-0.329-0.156  l-1.515,1.52c-0.162,0.012-0.309,0.039-0.44,0.078v-1.26l1.645-1.605l0.837-2.698l1.275-1.038l-0.28-0.508l0.962-0.926l-0.538-0.979  l0.41,0.049l2.396,5.362l0.49-0.39c-0.015-0.262-0.043-0.521-0.073-0.779L27.983,14.263z M15.161,8.231l-0.2-0.535h1.202  l0.586,1.316h-0.871V8.23L15.161,8.231L15.161,8.231z M19.129,10.882l0.961,1.402l0.064,0.168l-0.984-0.595l-0.234-0.848  L19.129,10.882z M20.573,13.331l0.29,0.29l-0.375,0.084l-0.085-0.104L20.573,13.331z M13.06,3.903l0.611,0.946l-0.694,0.212  l-0.271-0.154L13.06,3.903z" fill-opacity="0.3" stroke-opacity="0.3"/>
<linearGradient gradientTransform="matrix(1.7647 0 0 1.7647 -572.9794 -733.5799)" gradientUnits="userSpaceOnUse" id="SVGID_2__" x1="333.1904" x2="333.1904" y1="416.6045" y2="431.9054">
<stop offset="0" style="stop-color:#6DACBC"/>
<stop offset="0.497" style="stop-color:#5778A3"/>
<stop offset="1" style="stop-color:#D3E0D8"/>
</linearGradient>
<path d="M15,1.536C7.564,1.536,1.536,7.565,1.536,15  c0,7.439,6.029,13.464,13.464,13.464c7.438,0,13.465-6.027,13.465-13.464C28.465,7.565,22.438,1.536,15,1.536z M15,27.428  C8.146,27.428,2.571,21.854,2.571,15C2.571,8.147,8.146,2.571,15,2.571S27.428,8.147,27.428,15  C27.428,21.854,21.854,27.428,15,27.428z" fill="url(#SVGID_2__)" fill-opacity="0.3" stroke-opacity="0.3"/>
<radialGradient cx="333.6309" cy="418.627" gradientTransform="matrix(1.7647 0 0 1.7647 -572.9794 -733.5799)" gradientUnits="userSpaceOnUse" id="SVGID_3__" r="9.0429">
<stop offset="0" style="stop-color:#96BE67"/>
<stop offset="0.3152" style="stop-color:#96BE67"/>
<stop offset="0.7273" style="stop-color:#468D53"/>
<stop offset="1" style="stop-color:#387463"/>
</radialGradient>
<path d="M22.296,18.848l-1.401,1.402c0,0-0.848,0-0.887,0.336c-0.02,0.145-0.065,0.771-0.208,1.094  c-0.282,0.195-0.619,0.842-0.619,0.842s-0.175,1.25,0.761,1.037C20.871,23.35,23.734,19.523,22.296,18.848z" fill="url(#SVGID_3__)"/>
<radialGradient cx="333.6299" cy="418.6211" gradientTransform="matrix(1.7647 0 0 1.7647 -572.9794 -733.5799)" gradientUnits="userSpaceOnUse" id="SVGID_4__" r="10.4663">
<stop offset="0" style="stop-color:#96BE67"/>
<stop offset="0.3152" style="stop-color:#96BE67"/>
<stop offset="0.7273" style="stop-color:#468D53"/>
<stop offset="1" style="stop-color:#387463"/>
</radialGradient>
<path d="M19.132,3.213c-0.23,0.087-0.387,0.146-0.387,0.146l-3.463-0.663L13.583,3.76l0.894,1.383  l-1.563,0.48l-0.842-0.48l0.296-0.84l-1.098,0.76l-0.196,1.324H8.988L9.759,7.7l-2.932,2.39l-0.552,2.387l1.088,2.107L8.018,15  l2.297-0.469l0.839,0.721l0.763,0.074l0.83,3.246l-0.552,1.436l1.22,2.697l0.343,1.119h2.126l1.202-0.65l0.905-1.053V20.85  l1.724-0.881v-1.885l0.681-1.297l1.521-1.366l0.363-1.585l-1.988,0.443l-0.522-0.637l0.371-0.594l-1.411-0.854l-0.601-2.164  l1.042-0.68l0.96,1.402l0.359,0.922l0.722,0.721l0.842,0.44l0.936-0.151l1.039-1l-0.731-1.334l-0.921,0.24l-0.833-0.991l0.791-0.552  l2.482,0.301v0.883l2.161,4.452l0.491-0.393C27.176,9.158,23.783,4.849,19.132,3.213z M18.004,9.23l-1.134,0.3h-1.511V8.749h-1.443  L12.774,9.05l-1.741-0.482l-0.482-0.901l2.404-0.541h2.406L15,6.164h1.202l0.67,1.503l1.134,0.398V9.23H18.004z M20.589,7.247  l-2.044-0.361V6.165l1.022-0.24l0.3-0.36l0.722,0.6V7.247L20.589,7.247z" fill="url(#SVGID_4__)"/>
</g>
</svg>
