<?xml version="1.0" encoding="UTF-8"?>
<!DOCTYPE svg PUBLIC "-//W3C//DTD SVG 1.1 Tiny//EN" "http://www.w3.org/Graphics/SVG/1.1/DTD/svg11-tiny.dtd">
<svg baseProfile="tiny" height="30" viewBox="0 0 30 30" width="30" xmlns="http://www.w3.org/2000/svg" xmlns:xlink="http://www.w3.org/1999/xlink">
<g>
<path d="M5.294,26.471c-0.156,0-0.313-0.043-0.45-0.125  c-0.268-0.16-0.432-0.449-0.432-0.76V4.406c0-0.312,0.164-0.6,0.432-0.759c0.138-0.082,0.294-0.123,0.45-0.123  c0.146,0,0.291,0.036,0.423,0.107l19.41,10.59c0.283,0.154,0.46,0.452,0.46,0.775c0,0.323-0.177,0.62-0.46,0.773l-19.41,10.59  C5.585,26.439,5.44,26.471,5.294,26.471z" fill-opacity="0.6" stroke-opacity="0.6"/>
<polygon fill="url(#SVGID_1_)" points="5.294,4.412 24.71,15 5.294,25.59 "/>
<polygon fill="#522523" fill-opacity="0.1" points="5.294,24.71 5.294,25.59 24.71,15 23.9,14.56 " stroke-opacity="0.1"/>
<polygon fill="#FFFFFF" fill-opacity="0.4" points="24.71,15 5.294,4.412 5.294,5.294 23.9,15.44 " stroke-opacity="0.4"/>
<rect fill="none" height="30" width="30"/>
<defs>
<linearGradient gradientTransform="matrix(0.8824 0 0 -0.8824 -862.1367 -1160.3917)" gradientUnits="userSpaceOnUse" id="SVGID_1_" x1="994.0371" x2="994.0371" y1="-1320.041" y2="-1344.041">
<stop offset="0" style="stop-color:#6DADC1"/>
<stop offset="1" style="stop-color:#3B518A"/>
</linearGradient>
</defs>
</g>
</svg>
