<?xml version="1.0" encoding="UTF-8"?>
<!DOCTYPE svg PUBLIC "-//W3C//DTD SVG 1.1 Tiny//EN" "http://www.w3.org/Graphics/SVG/1.1/DTD/svg11-tiny.dtd">
<svg baseProfile="tiny" height="60" viewBox="0 0 60 60" width="60" xmlns="http://www.w3.org/2000/svg" xmlns:xlink="http://www.w3.org/1999/xlink">
<g>
<rect fill="none" height="60" width="60"/>
<linearGradient gradientUnits="userSpaceOnUse" id="SVGID_1_" x1="29.999" x2="29.999" y1="1.999" y2="57.9139">
<stop offset="0" style="stop-color:#A2A4A4"/>
<stop offset="0.8182" style="stop-color:#494A4B"/>
<stop offset="1" style="stop-color:#7D7E7F"/>
</linearGradient>
<path d="M8.957,57.999c-1.365,0-2.473-1.108-2.473-2.473V4.472c0-1.364,1.107-2.473,2.473-2.473h30.801  c1.115,0,2.607,0.619,3.396,1.406l8.951,8.95c0.789,0.79,1.408,2.281,1.408,3.396v39.774c0,1.364-1.111,2.473-2.473,2.473H8.957z" fill="url(#SVGID_1_)"/>
<linearGradient gradientUnits="userSpaceOnUse" id="SVGID_2_" x1="29.999" x2="29.999" y1="3.2646" y2="56.7327">
<stop offset="0" style="stop-color:#F5F5F5"/>
<stop offset="0.7818" style="stop-color:#CCCCCC"/>
<stop offset="1" style="stop-color:#D1D1D1"/>
</linearGradient>
<path d="M51.041,56.674H8.957c-0.633,0-1.146-0.513-1.146-1.147V4.469c0-0.629,0.514-1.145,1.146-1.145  h30.801c0.766,0,1.912,0.477,2.459,1.021l8.953,8.948c0.543,0.546,1.018,1.693,1.018,2.459v39.774  C52.188,56.161,51.676,56.674,51.041,56.674L51.041,56.674z" fill="url(#SVGID_2_)"/>
<linearGradient gradientUnits="userSpaceOnUse" id="SVGID_3_" x1="30" x2="30" y1="4.6533" y2="55.3477">
<stop offset="0" style="stop-color:#E7E8E7"/>
<stop offset="1" style="stop-color:#AFB3B2"/>
</linearGradient>
<path d="M50.863,55.348H9.137V4.653h30.621c0.412,0,1.227,0.336,1.521,0.629l8.957,8.95  c0.289,0.293,0.627,1.105,0.627,1.52V55.348L50.863,55.348z" fill="url(#SVGID_3_)"/>
<linearGradient gradientUnits="userSpaceOnUse" id="SVGID_4_" x1="27.3711" x2="27.3711" y1="51.1084" y2="24.5269">
<stop offset="0" style="stop-color:#666666"/>
<stop offset="1" style="stop-color:#282828"/>
</linearGradient>
<rect fill="url(#SVGID_4_)" height="26.784" width="31.227" x="11.758" y="24.426"/>
<rect fill="#FFFFFF" fill-opacity="0.4" height="1.326" stroke-opacity="0.4" width="31.227" x="11.758" y="51.21"/>
<linearGradient gradientUnits="userSpaceOnUse" id="SVGID_5_" x1="16.2236" x2="16.2236" y1="25.7173" y2="49.2631">
<stop offset="0" style="stop-color:#D5D19D"/>
<stop offset="0.33" style="stop-color:#B9A56D"/>
<stop offset="0.66" style="stop-color:#AD9861"/>
<stop offset="1" style="stop-color:#B38E4E"/>
</linearGradient>
<rect fill="url(#SVGID_5_)" height="7.305" width="5.682" x="13.383" y="42.197"/>
<linearGradient gradientUnits="userSpaceOnUse" id="SVGID_6_" x1="30.1895" x2="30.1895" y1="25.9839" y2="48.9336">
<stop offset="0" style="stop-color:#D5D19D"/>
<stop offset="0.33" style="stop-color:#B9A56D"/>
<stop offset="0.66" style="stop-color:#AD9861"/>
<stop offset="1" style="stop-color:#B38E4E"/>
</linearGradient>
<rect fill="url(#SVGID_6_)" height="7.304" width="5.254" x="27.563" y="25.967"/>
<linearGradient gradientUnits="userSpaceOnUse" id="SVGID_7_" x1="23.3125" x2="23.3125" y1="25.9839" y2="48.9336">
<stop offset="0" style="stop-color:#D5D19D"/>
<stop offset="0.33" style="stop-color:#B9A56D"/>
<stop offset="0.66" style="stop-color:#AD9861"/>
<stop offset="1" style="stop-color:#B38E4E"/>
</linearGradient>
<rect fill="url(#SVGID_7_)" height="7.304" width="5.254" x="20.686" y="25.967"/>
<linearGradient gradientUnits="userSpaceOnUse" id="SVGID_8_" x1="37.8779" x2="37.8779" y1="25.9839" y2="48.9336">
<stop offset="0" style="stop-color:#D5D19D"/>
<stop offset="0.33" style="stop-color:#B9A56D"/>
<stop offset="0.66" style="stop-color:#AD9861"/>
<stop offset="1" style="stop-color:#B38E4E"/>
</linearGradient>
<rect fill="url(#SVGID_8_)" height="7.304" width="6.877" x="34.439" y="25.967"/>
<linearGradient gradientUnits="userSpaceOnUse" id="SVGID_9_" x1="30.1895" x2="30.1895" y1="25.7173" y2="49.2631">
<stop offset="0" style="stop-color:#D5D19D"/>
<stop offset="0.33" style="stop-color:#B9A56D"/>
<stop offset="0.66" style="stop-color:#AD9861"/>
<stop offset="1" style="stop-color:#B38E4E"/>
</linearGradient>
<rect fill="url(#SVGID_9_)" height="7.305" width="5.254" x="27.563" y="42.197"/>
<linearGradient gradientUnits="userSpaceOnUse" id="SVGID_10_" x1="23.3125" x2="23.3125" y1="25.7173" y2="49.2631">
<stop offset="0" style="stop-color:#D5D19D"/>
<stop offset="0.33" style="stop-color:#B9A56D"/>
<stop offset="0.66" style="stop-color:#AD9861"/>
<stop offset="1" style="stop-color:#B38E4E"/>
</linearGradient>
<rect fill="url(#SVGID_10_)" height="7.305" width="5.254" x="20.686" y="42.197"/>
<linearGradient gradientUnits="userSpaceOnUse" id="SVGID_11_" x1="27.3496" x2="27.3496" y1="25.9839" y2="48.8929">
<stop offset="0" style="stop-color:#D5D19D"/>
<stop offset="0.33" style="stop-color:#B9A56D"/>
<stop offset="0.66" style="stop-color:#AD9861"/>
<stop offset="1" style="stop-color:#B38E4E"/>
</linearGradient>
<polygon fill="url(#SVGID_11_)" points="18.975,34.894 18.975,25.967 13.383,25.967 13.383,40.574 41.316,40.574 41.316,34.894 "/>
<linearGradient gradientUnits="userSpaceOnUse" id="SVGID_12_" x1="37.8779" x2="37.8779" y1="25.7173" y2="49.2631">
<stop offset="0" style="stop-color:#D5D19D"/>
<stop offset="0.33" style="stop-color:#B9A56D"/>
<stop offset="0.66" style="stop-color:#AD9861"/>
<stop offset="1" style="stop-color:#B38E4E"/>
</linearGradient>
<rect fill="url(#SVGID_12_)" height="7.305" width="6.877" x="34.439" y="42.197"/>
<rect fill="none" height="60" width="60"/>
</g>
<g transform="matrix(1 0 0 1 30 30)">
<rect fill="none" height="30" width="30"/>
<rect fill="none" height="30" width="30"/>
<path d="M15,30C6.729,30,0,23.271,0,15C0,6.729,6.729,0,15,0s15,6.729,15,15C30,23.271,23.271,30,15,30L15,30z" fill-opacity="0.35" stroke-opacity="0.35"/>
<path d="M15.159,10.697c0.525,0,0.947-0.13,1.264-0.39  c0.316-0.259,0.474-0.615,0.474-1.07c0-0.44-0.164-0.795-0.49-1.061c-0.326-0.264-0.741-0.398-1.248-0.398  c-0.531,0-0.951,0.132-1.261,0.395c-0.311,0.262-0.465,0.617-0.465,1.064c0,0.455,0.159,0.812,0.474,1.07  C14.224,10.567,14.641,10.697,15.159,10.697z" fill-opacity="0.1" stroke-opacity="0.1"/>
<path d="M15.159,10.369c0.525,0,0.947-0.129,1.264-0.389  c0.316-0.26,0.474-0.615,0.474-1.07c0-0.441-0.164-0.795-0.49-1.061c-0.326-0.266-0.741-0.398-1.248-0.398  c-0.531,0-0.951,0.13-1.261,0.394c-0.311,0.263-0.465,0.616-0.465,1.064c0,0.455,0.159,0.812,0.474,1.07  C14.224,10.24,14.641,10.369,15.159,10.369z" fill-opacity="0.2" stroke-opacity="0.2"/>
<radialGradient cx="-2178.8628" cy="3345.4287" gradientTransform="matrix(1 0 0 -1 2194 3347.6641)" gradientUnits="userSpaceOnUse" id="SVGID_1__" r="26.49">
<stop offset="0" style="stop-color:#98B060"/>
<stop offset="0.8121" style="stop-color:#326644"/>
<stop offset="1" style="stop-color:#4E8146"/>
</radialGradient>
<path d="M15,29C7.28,29,1,22.72,1,15S7.28,1,15,1c7.721,0,14,6.28,14,14S22.72,29,15,29L15,29z" fill="url(#SVGID_1__)"/>
<polygon fill-opacity="0.1" points="12.46,13.847 13.555,13.847 13.555,23.318 16.741,23.318 16.741,12.032   12.46,12.032 " stroke-opacity="0.1"/>
<polygon fill-opacity="0.2" points="12.46,13.519 13.555,13.519 13.555,22.99 16.741,22.99 16.741,11.704   12.46,11.704 " stroke-opacity="0.2"/>
<linearGradient gradientTransform="matrix(1 0 0 -1 2194 3347.6641)" gradientUnits="userSpaceOnUse" id="SVGID_2__" x1="-2179.3994" x2="-2179.3994" y1="3340.2148" y2="3324.8184">
<stop offset="0" style="stop-color:#F9FCF9"/>
<stop offset="1" style="stop-color:#AFB3B2"/>
</linearGradient>
<polygon fill="url(#SVGID_2__)" points="12.46,13.191 13.555,13.191 13.555,22.663 16.741,22.663 16.741,11.377 12.46,11.377 "/>
<linearGradient gradientTransform="matrix(1 0 0 -1 2194 3347.6641)" gradientUnits="userSpaceOnUse" id="SVGID_3__" x1="-2178.8477" x2="-2178.8477" y1="3340.2158" y2="3324.8235">
<stop offset="0" style="stop-color:#F9FCF9"/>
<stop offset="1" style="stop-color:#AFB3B2"/>
</linearGradient>
<path d="M15.148,10.205c0.524,0,0.945-0.129,1.262-0.389c0.316-0.259,0.475-0.615,0.475-1.07  c0-0.441-0.163-0.795-0.489-1.061c-0.327-0.264-0.743-0.397-1.248-0.397c-0.531,0-0.952,0.131-1.262,0.394  c-0.312,0.262-0.466,0.617-0.466,1.064c0,0.455,0.159,0.812,0.477,1.07C14.212,10.076,14.63,10.205,15.148,10.205z" fill="url(#SVGID_3__)"/>
</g>
</svg>
