<?xml version="1.0" encoding="UTF-8"?>
<!DOCTYPE svg PUBLIC "-//W3C//DTD SVG 1.1 Tiny//EN" "http://www.w3.org/Graphics/SVG/1.1/DTD/svg11-tiny.dtd">
<svg baseProfile="tiny" height="60" viewBox="0 0 60 60" width="60" xmlns="http://www.w3.org/2000/svg" xmlns:xlink="http://www.w3.org/1999/xlink">
<g>
<rect fill="none" height="60" width="60"/>
<linearGradient gradientTransform="matrix(1 0 0 -1 -282.4805 -346.0195)" gradientUnits="userSpaceOnUse" id="SVGID_1_" x1="312.4795" x2="312.4795" y1="-347.8892" y2="-403.8838">
<stop offset="0" style="stop-color:#F2F2F2"/>
<stop offset="0.25" style="stop-color:#708A9C"/>
<stop offset="0.73" style="stop-color:#314172"/>
<stop offset="1" style="stop-color:#91CBCE"/>
</linearGradient>
<path d="M30,57.997C14.562,57.997,2,45.439,2,30C2,14.564,14.562,2.002,30,2.002  c15.437,0,28,12.561,28,27.998C58,45.439,45.437,57.997,30,57.997L30,57.997z" fill="url(#SVGID_1_)"/>
<radialGradient cx="312.2188" cy="-353.9521" gradientTransform="matrix(1 0 0 -1 -282.4805 -346.0195)" gradientUnits="userSpaceOnUse" id="SVGID_2_" r="51.3861">
<stop offset="0" style="stop-color:#B4DCCA"/>
<stop offset="0.15" style="stop-color:#B4DCCA"/>
<stop offset="0.75" style="stop-color:#3D568F"/>
<stop offset="1" style="stop-color:#416D98"/>
</radialGradient>
<path d="M57.198,30c0,15.023-12.18,27.198-27.198,27.198C14.979,57.198,2.802,45.023,2.802,30  C2.802,14.982,14.979,2.802,30,2.802C45.019,2.802,57.198,14.982,57.198,30z" fill="url(#SVGID_2_)"/>
<linearGradient gradientTransform="matrix(1 0 0 -1 -282.4805 -346.0195)" gradientUnits="userSpaceOnUse" id="SVGID_3_" x1="312.4805" x2="312.4805" y1="-357.0225" y2="-394.2217">
<stop offset="0" style="stop-color:#5385B2"/>
<stop offset="1" style="stop-color:#7DC4BD"/>
</linearGradient>
<path d="M29.998,48.545c-5.093,0-9.503-1.832-13.104-5.451c-3.609-3.623-5.436-8.038-5.436-13.12  c0-5.058,1.832-9.457,5.446-13.076c3.621-3.612,8.026-5.441,13.093-5.441c5.093,0,9.503,1.827,13.109,5.43  c3.604,3.604,5.436,8.005,5.436,13.087c0,2.963-0.612,5.579-1.812,7.774c-1.537,2.821-3.797,4.262-6.723,4.262  c-2.53,0-4.466-1.123-5.768-3.338c-1.409,1.153-3.133,1.736-5.143,1.736c-2.812,0-5.106-1.098-6.817-3.253  c-1.549-1.952-2.334-4.358-2.334-7.156c0-2.812,0.789-5.208,2.345-7.125c1.679-2.096,3.973-3.162,6.806-3.162  c1.447,0,2.702,0.278,3.753,0.827V20.13h5.344v13.714c0,2.966,1.27,2.966,1.813,2.966c0.39,0,1.587,0,2.543-2.438  c0.522-1.359,0.789-2.841,0.789-4.397c0-3.666-1.279-6.715-3.925-9.331c-2.603-2.575-5.772-3.881-9.419-3.881  c-3.71,0-6.776,1.26-9.374,3.85c-2.595,2.592-3.858,5.655-3.858,9.36c0,3.712,1.271,6.78,3.876,9.384  c2.57,2.581,5.713,3.884,9.355,3.884h0.798v5.305H29.998L29.998,48.545z M29.1,24.964c-1.16,0-2.03,0.509-2.665,1.547  c-0.594,0.959-0.894,2.133-0.894,3.488c0,4.619,2.029,5.152,3.558,5.152c1.513,0,3.529-0.549,3.529-5.321  C32.629,25.467,30.613,24.964,29.1,24.964L29.1,24.964z" fill="url(#SVGID_3_)"/>
<path d="M47.741,29.974c0,2.843-0.572,5.306-1.715,7.387c-1.39,2.563-3.396,3.846-6.018,3.846  c-2.552,0-4.395-1.282-5.543-3.846c-1.383,1.496-3.175,2.247-5.366,2.247c-2.57,0-4.629-0.982-6.188-2.95  c-1.44-1.818-2.164-4.029-2.164-6.659c0-2.641,0.726-4.844,2.164-6.617c1.539-1.917,3.601-2.871,6.188-2.871  c1.929,0,3.448,0.523,4.554,1.577v-1.156h3.741v12.913c0,2.511,0.868,3.767,2.613,3.767c1.424,0,2.519-0.985,3.287-2.947  c0.562-1.462,0.847-3.022,0.847-4.691c0-3.859-1.388-7.156-4.164-9.899c-2.771-2.744-6.101-4.111-9.982-4.111  c-3.896,0-7.209,1.36-9.939,4.083c-2.726,2.726-4.091,6.03-4.091,9.928c0,3.892,1.366,7.212,4.109,9.95  c2.733,2.745,6.045,4.118,9.922,4.118v3.703c-4.892,0-9.074-1.74-12.538-5.216c-3.468-3.483-5.203-7.674-5.203-12.555  c0-4.87,1.738-9.034,5.214-12.512c3.481-3.467,7.65-5.205,12.527-5.205c4.892,0,9.075,1.728,12.542,5.199  C46.006,20.913,47.741,25.087,47.741,29.974z M33.43,29.832c0-3.78-1.444-5.665-4.33-5.665c-1.443,0-2.563,0.64-3.346,1.932  c-0.68,1.087-1.01,2.386-1.01,3.901c0,3.971,1.449,5.954,4.354,5.954C31.985,35.954,33.43,33.915,33.43,29.832z" fill="#FFFFFF"/>
</g>
<g transform="matrix(1 0 0 1 30 30)">
<rect fill="none" height="30" width="30"/>
<rect fill="none" height="30" width="30"/>
<linearGradient gradientTransform="matrix(0.5 0 0 -0.5 -313.5 -276)" gradientUnits="userSpaceOnUse" id="SVGID_1__" x1="654.6" x2="654.6" y1="-558.3" y2="-601.7">
<stop offset="0" stop-color="#E1E4E3"/>
<stop offset="1" stop-color="#BFC1C1"/>
</linearGradient>
<rect fill="url(#SVGID_1__)" height="21.5" width="17.33" x="5.158" y="3.499"/>
<linearGradient gradientTransform="matrix(0.5 0 0 -0.5 -313.5 -276)" gradientUnits="userSpaceOnUse" id="SVGID_2__" x1="654.6" x2="654.6" y1="-558.9" y2="-602.2">
<stop offset="0" stop-color="#E9EDEB"/>
<stop offset="1" stop-color="#CACCCC"/>
</linearGradient>
<path d="M21.99,3.999v20.5h-16.33v-20.5h16.33m0.5-0.501h-17.33v21.5h17.33v-21.5z" fill="url(#SVGID_2__)"/>
<linearGradient gradientTransform="matrix(0.5 0 0 -0.5 -313.5 -276)" gradientUnits="userSpaceOnUse" id="SVGID_3__" x1="642.6" x2="642.6" y1="-567.9" y2="-562.2">
<stop offset="0" stop-color="#9ED6D1"/>
<stop offset="1" stop-color="#304971"/>
</linearGradient>
<rect fill="url(#SVGID_3__)" height="3" width="3" x="6.324" y="5.146"/>
<linearGradient gradientTransform="matrix(0.5 0 0 -0.5 -313.5 -276)" gradientUnits="userSpaceOnUse" id="SVGID_4_" x1="650.6" x2="650.6" y1="-567.9" y2="-562.2">
<stop offset="0" stop-color="#9ED6D1"/>
<stop offset="1" stop-color="#304971"/>
</linearGradient>
<rect fill="url(#SVGID_4_)" height="3" width="3" x="10.32" y="5.146"/>
<linearGradient gradientTransform="matrix(0.5 0 0 -0.5 -313.5 -276)" gradientUnits="userSpaceOnUse" id="SVGID_5_" x1="666.6" x2="666.6" y1="-567.9" y2="-562.2">
<stop offset="0" stop-color="#9ED6D1"/>
<stop offset="1" stop-color="#304971"/>
</linearGradient>
<rect fill="url(#SVGID_5_)" height="3" width="3" x="18.32" y="5.146"/>
<linearGradient gradientTransform="matrix(0.5 0 0 -0.5 -313.5 -276)" gradientUnits="userSpaceOnUse" id="SVGID_6_" x1="658.6" x2="658.6" y1="-567.9" y2="-562.2">
<stop offset="0" stop-color="#9ED6D1"/>
<stop offset="1" stop-color="#304971"/>
</linearGradient>
<rect fill="url(#SVGID_6_)" height="3" width="3" x="14.32" y="5.146"/>
<linearGradient gradientTransform="matrix(0.5 0 0 -0.5 -313.5 -276)" gradientUnits="userSpaceOnUse" id="SVGID_7_" x1="642.6" x2="642.6" y1="-576.5" y2="-570.8">
<stop offset="0" stop-color="#9ED6D1"/>
<stop offset="1" stop-color="#304971"/>
</linearGradient>
<rect fill="url(#SVGID_7_)" height="3" width="3" x="6.324" y="9.458"/>
<linearGradient gradientTransform="matrix(0.5 0 0 -0.5 -313.5 -276)" gradientUnits="userSpaceOnUse" id="SVGID_8_" x1="650.6" x2="650.6" y1="-576.5" y2="-570.8">
<stop offset="0" stop-color="#9ED6D1"/>
<stop offset="1" stop-color="#304971"/>
</linearGradient>
<rect fill="url(#SVGID_8_)" height="3" width="3" x="10.32" y="9.458"/>
<linearGradient gradientTransform="matrix(0.5 0 0 -0.5 -313.5 -276)" gradientUnits="userSpaceOnUse" id="SVGID_9_" x1="666.6" x2="666.6" y1="-576.5" y2="-570.8">
<stop offset="0" stop-color="#9ED6D1"/>
<stop offset="1" stop-color="#304971"/>
</linearGradient>
<rect fill="url(#SVGID_9_)" height="3" width="3" x="18.32" y="9.458"/>
<linearGradient gradientTransform="matrix(0.5 0 0 -0.5 -313.5 -276)" gradientUnits="userSpaceOnUse" id="SVGID_10_" x1="658.6" x2="658.6" y1="-576.5" y2="-570.8">
<stop offset="0" stop-color="#9ED6D1"/>
<stop offset="1" stop-color="#304971"/>
</linearGradient>
<rect fill="url(#SVGID_10_)" height="3" width="3" x="14.32" y="9.458"/>
<linearGradient gradientTransform="matrix(0.5 0 0 -0.5 -313.5 -276)" gradientUnits="userSpaceOnUse" id="SVGID_11_" x1="642.6" x2="642.6" y1="-594.5" y2="-588.8">
<stop offset="0" stop-color="#9ED6D1"/>
<stop offset="1" stop-color="#304971"/>
</linearGradient>
<rect fill="url(#SVGID_11_)" height="3" width="3" x="6.324" y="18.46"/>
<linearGradient gradientTransform="matrix(0.5 0 0 -0.5 -313.5 -276)" gradientUnits="userSpaceOnUse" id="SVGID_12_" x1="650.6" x2="650.6" y1="-594.5" y2="-588.8">
<stop offset="0" stop-color="#9ED6D1"/>
<stop offset="1" stop-color="#304971"/>
</linearGradient>
<rect fill="url(#SVGID_12_)" height="3" width="3" x="10.32" y="18.46"/>
<linearGradient gradientTransform="matrix(0.5 0 0 -0.5 -313.5 -276)" gradientUnits="userSpaceOnUse" id="SVGID_13_" x1="666.6" x2="666.6" y1="-594.5" y2="-588.8">
<stop offset="0" stop-color="#9ED6D1"/>
<stop offset="1" stop-color="#304971"/>
</linearGradient>
<rect fill="url(#SVGID_13_)" height="3" width="3" x="18.32" y="18.46"/>
<linearGradient gradientTransform="matrix(0.5 0 0 -0.5 -313.5 -276)" gradientUnits="userSpaceOnUse" id="SVGID_14_" x1="658.6" x2="658.6" y1="-594.5" y2="-588.8">
<stop offset="0" stop-color="#9ED6D1"/>
<stop offset="1" stop-color="#304971"/>
</linearGradient>
<rect fill="url(#SVGID_14_)" height="3" width="3" x="14.32" y="18.46"/>
<linearGradient gradientTransform="matrix(0.5 0 0 -0.5 -313.5 -276)" gradientUnits="userSpaceOnUse" id="SVGID_15_" x1="642.6" x2="642.6" y1="-585.5" y2="-579.8">
<stop offset="0" stop-color="#9ED6D1"/>
<stop offset="1" stop-color="#304971"/>
</linearGradient>
<rect fill="url(#SVGID_15_)" height="3" width="3" x="6.324" y="13.96"/>
<linearGradient gradientTransform="matrix(0.5 0 0 -0.5 -313.5 -276)" gradientUnits="userSpaceOnUse" id="SVGID_16_" x1="650.6" x2="650.6" y1="-585.5" y2="-579.8">
<stop offset="0" stop-color="#9ED6D1"/>
<stop offset="1" stop-color="#304971"/>
</linearGradient>
<rect fill="url(#SVGID_16_)" height="3" width="3" x="10.32" y="13.96"/>
<linearGradient gradientTransform="matrix(0.5 0 0 -0.5 -313.5 -276)" gradientUnits="userSpaceOnUse" id="SVGID_17_" x1="666.6" x2="666.6" y1="-585.5" y2="-579.8">
<stop offset="0" stop-color="#9ED6D1"/>
<stop offset="1" stop-color="#304971"/>
</linearGradient>
<rect fill="url(#SVGID_17_)" height="3" width="3" x="18.32" y="13.96"/>
<linearGradient gradientTransform="matrix(0.5 0 0 -0.5 -313.5 -276)" gradientUnits="userSpaceOnUse" id="SVGID_18_" x1="658.6" x2="658.6" y1="-585.5" y2="-579.8">
<stop offset="0" stop-color="#9ED6D1"/>
<stop offset="1" stop-color="#304971"/>
</linearGradient>
<rect fill="url(#SVGID_18_)" height="3" width="3" x="14.32" y="13.96"/>
<polygon fill-opacity="0.3" points="22.49,25,22.49,14.85,12.51,11.92,12.51,25" stroke-opacity="0.3" style="enable-background:new;"/>
<linearGradient gradientTransform="matrix(0.5 0 0 -0.5 -313.5 -276)" gradientUnits="userSpaceOnUse" id="SVGID_19_" x1="665.4" x2="665.4" y1="-582.2" y2="-604.8">
<stop offset="0" stop-color="#CCCCCC"/>
<stop offset="1" stop-color="#949494"/>
</linearGradient>
<polygon fill="url(#SVGID_19_)" points="24.84,16.25,13.51,12.92,13.51,26.5,24.84,26.5"/>
<linearGradient gradientTransform="matrix(0.5 0 0 -0.5 -313.5 -276)" gradientUnits="userSpaceOnUse" id="SVGID_20_" x1="665.4" x2="665.4" y1="-582" y2="-605.1">
<stop offset="0" stop-color="#DDE0DF"/>
<stop offset="1" stop-color="#B7B8B9"/>
</linearGradient>
<path d="M14.01,13.58l10.33,3.039v9.38h-10.33v-12.42m-0.5-0.665v13.58h11.33v-10.25l-11.33-3.33z" fill="url(#SVGID_20_)"/>
</g>
</svg>
