<?xml version="1.0" encoding="UTF-8"?>
<!DOCTYPE svg PUBLIC "-//W3C//DTD SVG 1.1 Tiny//EN" "http://www.w3.org/Graphics/SVG/1.1/DTD/svg11-tiny.dtd">
<svg baseProfile="tiny" height="30px" version="1.1" viewBox="0 0 30 30" width="30px" x="0px" xmlns="http://www.w3.org/2000/svg" xmlns:xlink="http://www.w3.org/1999/xlink" y="0px">
<g>
<rect fill="none" height="30" width="30"/>
</g>
<path d="M20,24c0,1.104,0.896,2,2,2l0,0c1.104,0,2-0.896,2-2V6c0-1.104-0.896-2-2-2l0,0c-1.104,0-2,0.896-2,2V24z"/>
<path d="M8,26c0.484,0,0.963-0.176,1.338-0.514l10-9C19.76,16.107,20,15.566,20,15s-0.24-1.107-0.662-1.486l-10-9  C8.963,4.176,8.484,4,8,4C7.725,4,7.447,4.057,7.187,4.173C6.465,4.494,6,5.21,6,6v18c0,0.79,0.465,1.506,1.187,1.827  C7.447,25.943,7.725,26,8,26L8,26z"/>
</svg>
