<?xml version="1.0" encoding="UTF-8"?>
<!DOCTYPE svg PUBLIC "-//W3C//DTD SVG 1.1 Tiny//EN" "http://www.w3.org/Graphics/SVG/1.1/DTD/svg11-tiny.dtd">
<svg baseProfile="tiny" height="216px" version="1.1" viewBox="0 0 216 216" width="216px" x="0px" xmlns="http://www.w3.org/2000/svg" xmlns:xlink="http://www.w3.org/1999/xlink" y="0px">
<path d="M108,113c-2.757,0-5-2.243-5-5c0-1.065,0.353-2.107,1-2.973V29h8v76.027c0.647,0.865,1,1.907,1,2.973  C113,110.757,110.757,113,108,113L108,113z" fill-opacity="0.2" stroke-opacity="0.2"/>
<path d="M111,105.38V30h-6v75.38c-0.615,0.703-1,1.613-1,2.62c0,2.209,1.791,4,4,4s4-1.791,4-4  C112,106.993,111.615,106.083,111,105.38z" fill="url(#SVGID_1_)"/>
<rect fill="none" height="216" width="216"/>
<defs>
<linearGradient gradientUnits="userSpaceOnUse" id="SVGID_1_" x1="107.9985" x2="107.9995" y1="30" y2="110.0819">
<stop offset="0" style="stop-color:#FAFAFA"/>
<stop offset="0" style="stop-color:#FAFAFF"/>
<stop offset="1" style="stop-color:#DCDCE6"/>
</linearGradient>
</defs>
</svg>
