<?xml version="1.0" encoding="UTF-8"?>
<!DOCTYPE svg PUBLIC "-//W3C//DTD SVG 1.1 Tiny//EN" "http://www.w3.org/Graphics/SVG/1.1/DTD/svg11-tiny.dtd">
<svg baseProfile="tiny" height="30" viewBox="0 0 30 30" width="30" xmlns="http://www.w3.org/2000/svg" xmlns:xlink="http://www.w3.org/1999/xlink">
<g>
<g>
<path d="M7.963,30C6.328,30,5,28.671,5,27.038V2.962C5,1.328,6.328,0,7.963,0h14.074   C23.672,0,25,1.328,25,2.962v24.076C25,28.671,23.672,30,22.037,30H7.963z" fill-opacity="0.6" stroke-opacity="0.6"/>
<linearGradient gradientTransform="matrix(1 0 0 -1 -282.4805 -375.0195)" gradientUnits="userSpaceOnUse" id="SVGID_1_" x1="297.4795" x2="297.4795" y1="-369.4189" y2="-403.9581">
<stop offset="0" style="stop-color:#FFFFFF"/>
<stop offset="1" style="stop-color:#9C9D9D"/>
</linearGradient>
<path d="M24,27.038C24,28.121,23.121,29,22.037,29H7.963C6.879,29,6,28.121,6,27.038V2.962   C6,1.878,6.879,1,7.963,1h14.074C23.121,1,24,1.878,24,2.962V27.038z" fill="url(#SVGID_1_)"/>
<linearGradient gradientTransform="matrix(1 0 0 -1 -282.4805 -375.0195)" gradientUnits="userSpaceOnUse" id="SVGID_2_" x1="297.4795" x2="297.4795" y1="-396.8003" y2="-403.0957">
<stop offset="0" style="stop-color:#A8A9AA"/>
<stop offset="0.703" style="stop-color:#59595A"/>
<stop offset="1" style="stop-color:#818283"/>
</linearGradient>
<rect fill="url(#SVGID_2_)" height="4" width="4" x="13" y="24"/>
<linearGradient gradientTransform="matrix(1 0 0 -1 -282.4805 -375.0195)" gradientUnits="userSpaceOnUse" id="SVGID_3_" x1="297.4795" x2="297.4795" y1="-398.9097" y2="-402.0574">
<stop offset="0" style="stop-color:#F0F0F0"/>
<stop offset="1" style="stop-color:#9C9D9D"/>
</linearGradient>
<rect fill="url(#SVGID_3_)" height="2" width="2" x="14" y="25"/>
<path d="M22.037,1H7.963C6.879,1,6,1.878,6,2.962v1   C6,2.878,6.879,2,7.963,2h14.074C23.121,2,24,2.878,24,3.962v-1C24,1.878,23.121,1,22.037,1z" fill="#FFFFFF" fill-opacity="0.2" stroke-opacity="0.2"/>
<linearGradient gradientTransform="matrix(1 0 0 -1 -282.4805 -375.0195)" gradientUnits="userSpaceOnUse" id="SVGID_4_" x1="297.4805" x2="297.4805" y1="-397.9575" y2="-378.1375">
<stop offset="0" style="stop-color:#DADBDB"/>
<stop offset="1" style="stop-color:#9C9D9D"/>
</linearGradient>
<rect fill="url(#SVGID_4_)" height="20.032" width="16" x="7" y="3"/>
<linearGradient gradientTransform="matrix(1 0 0 -1 -282.4805 -375.0195)" gradientUnits="userSpaceOnUse" id="SVGID_5_" x1="297.4795" x2="297.4795" y1="-379.0195" y2="-397.0217">
<stop offset="0" style="stop-color:#70B4B6"/>
<stop offset="1" style="stop-color:#455188"/>
</linearGradient>
<rect fill="url(#SVGID_5_)" height="18.032" width="14" x="8" y="4"/>
<linearGradient gradientTransform="matrix(1 0 0 -1 -282.4805 -375.0195)" gradientUnits="userSpaceOnUse" id="SVGID_6_" x1="291.4795" x2="291.4795" y1="-400.0195" y2="-402.0039">
<stop offset="0" style="stop-color:#33784C"/>
<stop offset="1" style="stop-color:#1E4539"/>
</linearGradient>
<rect fill="url(#SVGID_6_)" height="2" width="4" x="7" y="25"/>
<linearGradient gradientTransform="matrix(1 0 0 -1 -282.4805 -375.0195)" gradientUnits="userSpaceOnUse" id="SVGID_7_" x1="303.4795" x2="303.4795" y1="-400.0195" y2="-402.0195">
<stop offset="0" style="stop-color:#A15745"/>
<stop offset="1" style="stop-color:#622A37"/>
</linearGradient>
<rect fill="url(#SVGID_7_)" height="2" width="4" x="19" y="25"/>
<polygon fill="#FFFFFF" fill-opacity="0.2" points="22,10.13 22,4 8,4 8,11.269  " stroke-opacity="0.2"/>
<path d="M22,29.998c-4.411,0-8-3.589-8-8s3.589-8,8-8s8,3.589,8,8   S26.411,29.998,22,29.998L22,29.998z" fill-opacity="0.6" stroke-opacity="0.6"/>
<linearGradient gradientTransform="matrix(1 0 0 -1 -282.4805 -375.0195)" gradientUnits="userSpaceOnUse" id="SVGID_8_" x1="304.4795" x2="304.4795" y1="-389.9863" y2="-404.1826">
<stop offset="0" style="stop-color:#C7B17C"/>
<stop offset="1" style="stop-color:#A86F49"/>
</linearGradient>
<circle cx="22" cy="21.998" fill="url(#SVGID_8_)" r="7"/>
<polygon fill-opacity="0.2" points="26.34,23.998 21.999,19.398 17.66,23.998 17,23.298 21.999,17.998    27,23.298  " stroke-opacity="0.2"/>
<polygon fill-opacity="0.2" points="21.999,20.855 18,25.096 18,26.998 21,26.998 21,23.998 23,23.998    23,26.998 26,26.998 26,25.096  " stroke-opacity="0.2"/>
<path d="M22,15.998c3.697,0,6.717,2.869,6.975,6.5   c0.012-0.166,0.025-0.331,0.025-0.5c0-3.865-3.134-7-7-7s-7,3.135-7,7c0,0.169,0.014,0.334,0.025,0.5   C15.283,18.867,18.303,15.998,22,15.998z" fill="#FFFFFF" fill-opacity="0.4" stroke-opacity="0.4"/>
<polygon fill="#FFFFFF" points="26.34,22.998 21.999,18.398 17.66,22.998 17,22.298 21.999,16.998 27,22.298  "/>
<polygon fill="#FFFFFF" points="21.999,19.855 18,24.096 18,25.998 21,25.998 21,22.998 23,22.998 23,25.998 26,25.998 26,24.096     "/>
</g>
<rect fill="none" height="30" width="30"/>
</g>
</svg>
