<?xml version="1.0" encoding="UTF-8"?>
<!DOCTYPE svg PUBLIC "-//W3C//DTD SVG 1.1 Tiny//EN" "http://www.w3.org/Graphics/SVG/1.1/DTD/svg11-tiny.dtd">
<svg baseProfile="tiny" height="10px" version="1.1" viewBox="0 0 10 10" width="10px" x="0px" xmlns="http://www.w3.org/2000/svg" xmlns:xlink="http://www.w3.org/1999/xlink" y="0px">
<rect fill="none" height="10" width="10" y="0"/>
<rect fill="none" height="10" width="10"/>
<path d="M10,8H3C1.346,8,0,6.654,0,5s1.346-3,3-3h7V8z" fill-opacity="0.35" stroke-opacity="0.35"/>
<path d="M0,5c0,1.656,1.343,3,3,3s7,0,7,0V7H3C1.896,7,1,6.104,1,5s0.896-2,2-2h7V2c0,0-5.855,0-7,0  C1.343,2,0,3.343,0,5z" fill-opacity="0.1" stroke-opacity="0.1"/>
</svg>
