<?xml version="1.0" encoding="UTF-8"?>
<!DOCTYPE svg PUBLIC "-//W3C//DTD SVG 1.1 Tiny//EN" "http://www.w3.org/Graphics/SVG/1.1/DTD/svg11-tiny.dtd">
<svg baseProfile="tiny" height="30px" version="1.1" viewBox="0 0 30 30" width="30px" x="0px" xmlns="http://www.w3.org/2000/svg" xmlns:xlink="http://www.w3.org/1999/xlink" y="0px">
<rect fill="none" height="30" width="30"/>
<path d="M5.954,9.943L20.14,24.053c0.69,1.91,0.198,2.633-0.681,3.512L18.023,29L1,12.067l1.436-1.436  C3.313,9.753,4.038,9.261,5.954,9.943z"/>
<path d="M12.262,24.475c-1.676,0.432-3.574-0.029-4.943-1.392c-1.368-1.36-1.839-3.256-1.41-4.928L12.262,24.475z"/>
<path d="M23.42,19.27c0.506-0.413,1.02-0.818,1.521-1.233c1.18-0.974,2.551-1.843,3.055-3.349c0.314-0.936,0.326-1.95,0.152-2.916  c0,0-0.413-2.225-2.375-4.551l0.066-0.066c0.778-0.778,0.775-2.048-0.004-2.826C25.055,3.553,23.779,3.555,23,4.332L22.943,4.39  c-2.385-2.043-4.697-2.466-4.697-2.466c-0.968-0.171-1.985-0.156-2.924,0.16c-1.508,0.507-2.375,1.876-3.349,3.055  c-0.403,0.489-0.8,0.99-1.202,1.484L23.42,19.27z"/>
<path d="M27.693,26.372c0.389,0.389,0.41,1.005,0.048,1.368c-0.362,0.362-0.978,0.343-1.366-0.046L2.307,3.625  C1.918,3.236,1.896,2.621,2.26,2.258c0.363-0.362,0.979-0.34,1.367,0.049L27.693,26.372z"/>
</svg>
