<?xml version="1.0" encoding="UTF-8"?>
<!DOCTYPE svg PUBLIC "-//W3C//DTD SVG 1.1 Tiny//EN" "http://www.w3.org/Graphics/SVG/1.1/DTD/svg11-tiny.dtd">
<svg baseProfile="tiny" height="60" viewBox="0 0 60 60" width="60" xmlns="http://www.w3.org/2000/svg" xmlns:xlink="http://www.w3.org/1999/xlink">
<g>
<rect fill="none" height="60" width="60"/>
<rect fill="none" height="60" width="60"/>
<linearGradient gradientTransform="matrix(1 0 0 -1 -257 1649.9688)" gradientUnits="userSpaceOnUse" id="SVGID_1_" x1="286.999" x2="286.999" y1="1645.4639" y2="1591.9688">
<stop offset="0" style="stop-color:#AF987C"/>
<stop offset="1" style="stop-color:#4E2224"/>
</linearGradient>
<path d="M8.526,58c-1.246,0-2.261-1.013-2.261-2.259V6.766c0-1.248,1.015-2.261,2.261-2.261h42.947  c1.247,0,2.262,1.013,2.262,2.261v48.976c0,1.246-1.015,2.259-2.262,2.259H8.526z" fill="url(#SVGID_1_)"/>
<path d="M51.473,4.505H8.526c-1.246,0-2.261,1.013-2.261,2.261V7.52  c0-1.248,1.015-2.262,2.261-2.262h42.947c1.247,0,2.262,1.014,2.262,2.262V6.766C53.735,5.518,52.72,4.505,51.473,4.505z" fill="#FFFFFF" fill-opacity="0.6" stroke-opacity="0.6"/>
<path d="M51.473,57.246H8.526c-1.246,0-2.261-1.013-2.261-2.259v0.754  C6.265,56.987,7.28,58,8.526,58h42.947c1.247,0,2.262-1.013,2.262-2.259v-0.754C53.735,56.233,52.72,57.246,51.473,57.246z" fill="#FFFFFF" fill-opacity="0.3" stroke-opacity="0.3"/>
<linearGradient gradientTransform="matrix(1 0 0 -1 -257 1649.9688)" gradientUnits="userSpaceOnUse" id="SVGID_2_" x1="287" x2="287" y1="1641.8242" y2="1594.8197">
<stop offset="0" style="stop-color:#717172"/>
<stop offset="1" style="stop-color:#000000"/>
</linearGradient>
<rect fill="url(#SVGID_2_)" fill-opacity="0.3" height="46.716" stroke-opacity="0.3" width="41.441" x="9.279" y="8.271"/>
<linearGradient gradientTransform="matrix(1 0 0 -1 -257 1649.9688)" gradientUnits="userSpaceOnUse" id="SVGID_3_" x1="287" x2="287" y1="1641.0664" y2="1595.578">
<stop offset="0" style="stop-color:#717172"/>
<stop offset="1" style="stop-color:#000000"/>
</linearGradient>
<rect fill="url(#SVGID_3_)" fill-opacity="0.6" height="45.209" stroke-opacity="0.6" width="39.934" x="10.033" y="9.025"/>
<linearGradient gradientTransform="matrix(1 0 0 -1 -257 1649.9688)" gradientUnits="userSpaceOnUse" id="SVGID_4_" x1="306.4023" x2="267.6852" y1="1618.7178" y2="1618.7178">
<stop offset="0" style="stop-color:#737373"/>
<stop offset="1" style="stop-color:#FFFFFF"/>
</linearGradient>
<rect fill="url(#SVGID_4_)" height="42.948" width="38.427" x="10.787" y="9.778"/>
<linearGradient gradientTransform="matrix(1 0 0 -1 -257 1649.9688)" gradientUnits="userSpaceOnUse" id="SVGID_5_" x1="306.2607" x2="267.8748" y1="1619.4707" y2="1619.4707">
<stop offset="0" style="stop-color:#8B8C8D"/>
<stop offset="1" style="stop-color:#4A4A4A"/>
</linearGradient>
<rect fill="url(#SVGID_5_)" height="42.947" width="38.427" x="10.787" y="9.025"/>
<linearGradient gradientTransform="matrix(1 0 0 -1 -257 1649.9688)" gradientUnits="userSpaceOnUse" id="SVGID_6_" x1="267.8789" x2="306.4008" y1="1619.8457" y2="1619.8457">
<stop offset="0" style="stop-color:#737373"/>
<stop offset="1" style="stop-color:#FFFFFF"/>
</linearGradient>
<rect fill="url(#SVGID_6_)" height="42.194" width="38.427" x="10.787" y="9.025"/>
<linearGradient gradientTransform="matrix(1 0 0 -1 -257 1649.9688)" gradientUnits="userSpaceOnUse" id="SVGID_7_" x1="277.0107" x2="271.0243" y1="1610.2334" y2="1604.2468">
<stop offset="0" style="stop-color:#737373"/>
<stop offset="1" style="stop-color:#FFFFFF"/>
</linearGradient>
<rect fill="url(#SVGID_7_)" height="41.441" width="38.427" x="10.787" y="9.025"/>
<linearGradient gradientTransform="matrix(1 0 0 -1 -257 1649.9688)" gradientUnits="userSpaceOnUse" id="SVGID_8_" x1="286.999" x2="286.999" y1="1624.8262" y2="1607.9667">
<stop offset="0" style="stop-color:#FFFFFF"/>
<stop offset="0.25" style="stop-color:#FFFFFF"/>
<stop offset="1" style="stop-color:#E1E1E1"/>
</linearGradient>
<path d="M10.787,36.15c0,0.829,0.478,1.986,1.064,2.572l9.925,9.926c0.586,0.585,1.743,1.064,2.573,1.064  h24.864V9.025H10.787V36.15z" fill="url(#SVGID_8_)"/>
<linearGradient gradientTransform="matrix(1 0 0 -1 -257 1649.9688)" gradientUnits="userSpaceOnUse" id="SVGID_9_" x1="286.999" x2="286.999" y1="1640.6797" y2="1600.1635">
<stop offset="0" style="stop-color:#F1F1F1"/>
<stop offset="1" style="stop-color:#B4B6B6"/>
</linearGradient>
<path d="M48.46,9.778v39.181H24.349c-0.626,0-1.599-0.401-2.04-0.846l-9.925-9.924  c-0.443-0.441-0.845-1.413-0.845-2.039V9.778H48.46 M49.213,9.025H10.787V36.15c0,0.829,0.478,1.986,1.064,2.572l9.925,9.926  c0.586,0.585,1.743,1.064,2.573,1.064h24.864V9.025L49.213,9.025z" fill="url(#SVGID_9_)"/>
<polygon fill="#939595" points="25.856,23.028 46.199,23.028 46.199,21.521 25.856,21.521 "/>
<polygon fill="#939595" points="25.856,31.93 46.199,31.93 46.199,30.422 25.856,30.422 "/>
<polygon fill="#939595" points="16.815,40.55 46.199,40.55 46.199,39.797 46.199,39.043 16.815,39.043 "/>
<linearGradient gradientTransform="matrix(1 0 0 -1 -257 1649.9688)" gradientUnits="userSpaceOnUse" id="SVGID_10_" x1="279.4805" x2="273.8942" y1="1611.5459" y2="1605.9596">
<stop offset="0" style="stop-color:#FFFFFF"/>
<stop offset="0.297" style="stop-color:#FFFFFF"/>
<stop offset="0.5576" style="stop-color:#E6E6E6"/>
<stop offset="0.7515" style="stop-color:#BCBCBC"/>
<stop offset="1" style="stop-color:#8E8E8E"/>
</linearGradient>
<path d="M12.177,39.047c-0.314-0.348-0.896-0.695-1.297-2.184c0,0,0.66,3.054,9.701,0.04  c0,12.81,3.768,12.81,3.768,12.81c-0.831,0-1.987-0.479-2.573-1.064L12.177,39.047z" fill="url(#SVGID_10_)"/>
<linearGradient gradientTransform="matrix(1 0 0 -1 -257 1649.9688)" gradientUnits="userSpaceOnUse" id="SVGID_11_" x1="287.001" x2="287.001" y1="1642.542" y2="1638.8584">
<stop offset="0" style="stop-color:#717172"/>
<stop offset="1" style="stop-color:#000000"/>
</linearGradient>
<path d="M43.265,7.045c-0.107-0.35-0.512-0.637-0.9-0.637  h-5.741c-0.388,0-0.779-0.291-0.866-0.645l-0.189-0.748H24.433l-0.191,0.748c-0.088,0.355-0.477,0.645-0.865,0.645h-5.741  c-0.388,0-0.793,0.287-0.9,0.637l-1.024,3.361c-0.108,0.35,0.123,0.637,0.512,0.637h27.554c0.388,0,0.619-0.287,0.513-0.637  L43.265,7.045z" fill="url(#SVGID_11_)" fill-opacity="0.15" stroke-opacity="0.15"/>
<linearGradient gradientTransform="matrix(1 0 0 -1 -257 1649.9688)" gradientUnits="userSpaceOnUse" id="SVGID_12_" x1="287.001" x2="287.001" y1="1641.7881" y2="1638.1045">
<stop offset="0" style="stop-color:#717172"/>
<stop offset="1" style="stop-color:#000000"/>
</linearGradient>
<path d="M43.265,7.8c-0.107-0.351-0.512-0.638-0.9-0.638h-5.741  c-0.388,0-0.779-0.291-0.866-0.645L35.568,5.77H24.433l-0.191,0.748c-0.088,0.355-0.477,0.645-0.865,0.645h-5.741  c-0.388,0-0.793,0.287-0.9,0.638l-1.024,3.359c-0.108,0.351,0.123,0.638,0.512,0.638h27.554c0.388,0,0.619-0.287,0.513-0.638  L43.265,7.8z" fill="url(#SVGID_12_)" fill-opacity="0.2" stroke-opacity="0.2"/>
<path d="M44.822,12.55H15.178l-0.218,0.781  c-0.114,0.399,0.128,0.727,0.538,0.727h29.005c0.409,0,0.651-0.327,0.539-0.727L44.822,12.55z" fill="#6E6E6F" fill-opacity="0.5" stroke-opacity="0.5"/>
<linearGradient gradientTransform="matrix(1 0 0 -1 -257 1649.9688)" gradientUnits="userSpaceOnUse" id="SVGID_13_" x1="286.999" x2="286.999" y1="1647.4658" y2="1637.1558">
<stop offset="0" style="stop-color:#757576"/>
<stop offset="1" style="stop-color:#D6D8D7"/>
</linearGradient>
<path d="M43.964,8.753c-0.113-0.398-0.541-0.724-0.949-0.724h-6.043c-0.409,0-0.819-0.331-0.913-0.735  l-2.131-4.56C33.835,2.33,33.423,2,33.013,2h-6.027c-0.409,0-0.82,0.33-0.911,0.734l-2.133,4.56  c-0.094,0.404-0.504,0.735-0.913,0.735h-6.043c-0.41,0-0.836,0.325-0.949,0.724l-1.078,3.825c-0.113,0.398,0.128,0.726,0.539,0.726  h29.006c0.409,0,0.651-0.327,0.539-0.726L43.964,8.753z" fill="url(#SVGID_13_)"/>
<path d="M26.783,2.755h6.431c0.316,0,0.734,0.179,0.919,0.435c0,0-0.284-1.189-1.125-1.189h-6.022  c-0.835,0-1.118,1.189-1.118,1.189C26.053,2.934,26.467,2.755,26.783,2.755z" fill="#FFFFFF"/>
<path d="M36.361,8.048c0.099,0.403,0.53,0.734,0.959,0.734h6.346c0.108,0,0.216,0.021,0.322,0.058l-0.024-0.087  c-0.113-0.398-0.541-0.724-0.949-0.724h-6.043c-0.266,0-0.521-0.147-0.702-0.354L36.361,8.048z" fill="#FFFFFF"/>
<path d="M16.334,8.782h6.345c0.429,0,0.861-0.331,0.96-0.734l0.089-0.372c-0.179,0.206-0.435,0.354-0.702,0.354  h-6.043c-0.408,0-0.834,0.325-0.948,0.724L16.011,8.84C16.117,8.803,16.227,8.782,16.334,8.782z" fill="#FFFFFF"/>
<path d="M21.805,17.096v5.834h-5.833v-5.834H21.805 M23.055,15.846h-8.333v8.334h8.333V15.846L23.055,15.846z" fill="#939595"/>
<path d="M21.805,27.533v5.834h-5.833v-5.834H21.805 M23.055,26.283h-8.333v8.334h8.333V26.283L23.055,26.283z" fill="#939595"/>
</g>
<g transform="matrix(1 0 0 1 30 30)">
<polygon fill="none" points="0.414,0 0.414,10.485 0,10.899 0.414,11.313 0.414,30 19.1,30 19.514,30.414 19.928,30 30.414,30   30.414,0 "/>
<path d="M13.769,24.668c-0.003,0.001-0.44,0.125-0.44,0.125l-0.022-0.021L12.8,24.867l-0.025-0.025  c-0.205,0.02-0.411,0.03-0.618,0.03c-1.746,0-3.402-0.694-4.662-1.954c-1.416-1.414-2.113-3.354-1.924-5.279L5.55,17.618l0.09-0.501  L5.634,17.11l0.032-0.128c0.023-0.113,0.049-0.226,0.079-0.338L0,10.899l2.238-2.238c0.623-0.625,1.393-1.296,2.627-1.358  C4.924,7.3,4.988,7.298,5.054,7.298c0.11,0,0.226,0.005,0.346,0.015L5.58,7.334c0.188,0.025,0.352,0.054,0.521,0.092  c0,0,0.277,0.066,0.313,0.076l4.098-4.098C12.707,1.209,15.636,0,18.76,0c2.05,0,4.037,0.526,5.792,1.527  c0.53-0.355,1.14-0.541,1.763-0.541c0.834,0,1.616,0.323,2.203,0.91c1.08,1.08,1.205,2.759,0.375,3.979  c2.574,4.525,1.834,10.311-1.883,14.027l-4.096,4.096c0,0.002,0.068,0.29,0.068,0.29c0.044,0.201,0.072,0.357,0.092,0.505  c0.011,0.083,0.021,0.159,0.026,0.23c0.015,0.178,0.019,0.354,0.011,0.519c-0.062,1.237-0.732,2.009-1.357,2.634l-2.24,2.238  L13.769,24.668z" fill-opacity="0.35" stroke-opacity="0.35"/>
<linearGradient gradientTransform="matrix(0.7071 0.7071 -0.7071 0.7071 -924.0166 637.3657)" gradientUnits="userSpaceOnUse" id="SVGID_1__" x1="218.7148" x2="229.6865" y1="-1096.7686" y2="-1096.7686">
<stop offset="0" style="stop-color:#696A6B"/>
<stop offset="0.297" style="stop-color:#A2A4A4"/>
<stop offset="0.7091" style="stop-color:#494A4B"/>
<stop offset="1" style="stop-color:#727475"/>
</linearGradient>
<path d="M8,14.656L8,14.656c-2.029,2.029-1.943,5.411,0.201,7.555c2.143,2.143,5.527,2.232,7.557,0.203l0,0  L8,14.656z" fill="url(#SVGID_1__)"/>
<linearGradient gradientTransform="matrix(1 0 0 1 0 9.765625e-004)" gradientUnits="userSpaceOnUse" id="SVGID_2__" x1="3.21" x2="21.4822" y1="8.9229" y2="27.1951">
<stop offset="0" style="stop-color:#C2A770"/>
<stop offset="0.2" style="stop-color:#DED7B3"/>
<stop offset="0.3879" style="stop-color:#D2C49B"/>
<stop offset="0.4182" style="stop-color:#C6B285"/>
<stop offset="0.6667" style="stop-color:#AA8250"/>
<stop offset="0.8545" style="stop-color:#CDBE93"/>
<stop offset="1" style="stop-color:#BCA162"/>
</linearGradient>
<path d="M21.777,23.721L6.693,8.637c-2.041-0.73-2.813-0.205-3.748,0.731l-1.531,1.531L19.514,29l1.533-1.531  C21.982,26.532,22.508,25.761,21.777,23.721z" fill="url(#SVGID_2__)"/>
<linearGradient gradientTransform="matrix(0.7071 0.7071 -0.7071 0.7071 -924.0166 637.3657)" gradientUnits="userSpaceOnUse" id="SVGID_3__" x1="221.9707" x2="226.2741" y1="-1120.2998" y2="-1120.2998">
<stop offset="0" style="stop-color:#C2A770"/>
<stop offset="0.1939" style="stop-color:#DED7B3"/>
<stop offset="0.703" style="stop-color:#AA8250"/>
<stop offset="0.8848" style="stop-color:#CDBE93"/>
<stop offset="1" style="stop-color:#BCA162"/>
</linearGradient>
<path d="M27.057,6.375l0.754-0.755c0.83-0.829,0.83-2.188,0-3.017c-0.83-0.83-2.188-0.83-3.018,0  l-0.754,0.754L27.057,6.375z" fill="url(#SVGID_3__)"/>
<path d="M27.057,6.375l0.754-0.755c0.045-0.045,0.08-0.098,0.119-0.146  c-0.385-0.581-0.832-1.134-1.344-1.645c-0.512-0.512-1.064-0.96-1.646-1.346c-0.047,0.041-0.1,0.074-0.146,0.12l-0.754,0.754  L27.057,6.375z" fill="#5E2D29" fill-opacity="0.2" stroke-opacity="0.2"/>
<path d="M26.869,3.546c-0.492-0.492-1.023-0.924-1.58-1.299c-0.178,0.095-0.346,0.207-0.494,0.355  l-0.473,0.473l3.018,3.017l0.471-0.472c0.148-0.148,0.262-0.318,0.357-0.495C27.791,4.568,27.359,4.038,26.869,3.546z" fill="#5E2D29" fill-opacity="0.1" stroke-opacity="0.1"/>
<linearGradient gradientUnits="userSpaceOnUse" id="SVGID_4__" x1="26.3223" x2="14.1095" y1="4.0923" y2="16.3051">
<stop offset="0" style="stop-color:#E6E0C8"/>
<stop offset="1" style="stop-color:#AF8C5A"/>
</linearGradient>
<path d="M21.777,23.721l4.525-4.525c4.148-4.147,4.148-10.936,0-15.084s-10.936-4.148-15.084,0L6.693,8.637  L21.777,23.721z" fill="url(#SVGID_4__)"/>
<linearGradient gradientUnits="userSpaceOnUse" id="SVGID_5__" x1="13.1172" x2="27.4319" y1="2.9941" y2="17.3088">
<stop offset="0" style="stop-color:#C2A770"/>
<stop offset="0.2545" style="stop-color:#DED7B3"/>
<stop offset="0.503" style="stop-color:#C9B78A"/>
<stop offset="0.5152" style="stop-color:#C4AE80"/>
<stop offset="0.6667" style="stop-color:#AA8250"/>
<stop offset="0.8545" style="stop-color:#CDBE93"/>
<stop offset="1" style="stop-color:#BCA162"/>
</linearGradient>
<path d="M7.258,8.637l4.244-4.242C13.432,2.464,16.01,1.4,18.76,1.4c2.752,0,5.33,1.063,7.26,2.994  c1.932,1.931,2.994,4.509,2.994,7.259c0,2.751-1.063,5.329-2.994,7.26l-4.242,4.242L7.258,8.637z" fill="url(#SVGID_5__)"/>
<rect fill="#5E2D29" fill-opacity="0.2" height="0.401" stroke-opacity="0.2" transform="matrix(0.7071 0.7071 -0.7071 0.7071 15.546 -5.4806)" width="21.332" x="3.723" y="15.825"/>
<path d="M13.619,23.671c0.143-0.041,0.285-0.087,0.426-0.141l-7.162-7.161c-0.053,0.14-0.1,0.281-0.141,0.425  L13.619,23.671z" fill-opacity="0.2" stroke-opacity="0.2"/>
<rect fill="#5E2D29" fill-opacity="0.1" height="0.4" stroke-opacity="0.1" transform="matrix(0.7071 0.7071 -0.7071 0.7071 15.429 -5.7637)" width="21.332" x="4.006" y="15.543"/>
<path d="M13.133,23.786c0.156-0.029,0.309-0.063,0.461-0.106L6.734,16.82c-0.043,0.151-0.078,0.305-0.107,0.459  L13.133,23.786z" fill-opacity="0.1" stroke-opacity="0.1"/>
<path d="M4.85,8.302l17.262,17.263c0.037-0.485-0.059-1.074-0.334-1.844L6.693,8.637  C5.924,8.36,5.336,8.266,4.85,8.302z" fill="#EFEDD9" fill-opacity="0.5" stroke-opacity="0.5"/>
<path d="M6.693,8.637c-0.195-0.07-0.379-0.128-0.553-0.176l15.813,15.813  c-0.047-0.173-0.105-0.357-0.176-0.553L6.693,8.637z" fill="#EFEDD9" fill-opacity="0.5" stroke-opacity="0.5"/>
<rect fill="#522523" fill-opacity="0.2" height="0.401" stroke-opacity="0.2" transform="matrix(0.7071 0.7071 -0.7071 0.7071 17.1142 -1.697)" width="25.598" x="-2.194" y="19.608"/>
<rect fill="#522523" fill-opacity="0.1" height="0.398" stroke-opacity="0.1" transform="matrix(0.7071 0.7071 -0.7071 0.7071 16.9952 -1.9808)" width="25.599" x="-1.911" y="19.326"/>
<linearGradient gradientUnits="userSpaceOnUse" id="SVGID_6__" x1="21.6523" x2="21.6523" y1="1.7822" y2="16.0367">
<stop offset="0" style="stop-color:#FFFFFF"/>
<stop offset="1" style="stop-color:#CDBD92"/>
</linearGradient>
<path d="M27.348,15.49c-2.314-1.359-4.715-3.255-6.941-5.482  c-2.229-2.228-4.123-4.628-5.482-6.942l-0.236-0.403l0.436-0.172c1.156-0.455,2.375-0.686,3.627-0.686  c2.615,0,5.162,1.047,6.986,2.873c2.775,2.774,3.635,6.941,2.188,10.614l-0.172,0.435L27.348,15.49z" fill="url(#SVGID_6__)" fill-opacity="0.5" stroke-opacity="0.5"/>
<rect fill="none" height="30" width="30" x="0.414"/>
</g>
</svg>
