<?xml version="1.0" encoding="UTF-8"?>
<!DOCTYPE svg PUBLIC "-//W3C//DTD SVG 1.1 Tiny//EN" "http://www.w3.org/Graphics/SVG/1.1/DTD/svg11-tiny.dtd">
<svg baseProfile="tiny" height="15px" version="1.1" viewBox="0 0 15 15" width="15px" x="0px" xmlns="http://www.w3.org/2000/svg" xmlns:xlink="http://www.w3.org/1999/xlink" y="0px">
<rect fill="none" height="15" width="15"/>
<rect fill="none" height="15" width="15"/>
<path d="M9,0C4.038,0,0,4.037,0,9v6h15V0H9z" fill="#14141E" fill-opacity="0.1" fill-rule="evenodd" stroke-opacity="0.1"/>
<linearGradient gradientUnits="userSpaceOnUse" id="SVGID_1_" x1="9" x2="9" y1="50.001" y2="3.495">
<stop offset="0" style="stop-color:#E6E6E6"/>
<stop offset="1" style="stop-color:#FFFFFF"/>
</linearGradient>
<path d="M9,3C5.691,3,3,5.691,3,9v6h12V3H9z" fill="url(#SVGID_1_)" fill-rule="evenodd"/>
<linearGradient gradientUnits="userSpaceOnUse" id="SVGID_2_" x1="8" x2="8" y1="1" y2="58.7695">
<stop offset="0" style="stop-color:#66CCAD"/>
<stop offset="1" style="stop-color:#3FA990"/>
</linearGradient>
<path d="M9,1C4.589,1,1,4.589,1,9v6h3V9c0-2.757,2.243-5,5-5h6V1H9z  " fill="url(#SVGID_2_)" fill-rule="evenodd"/>
</svg>
