<?xml version="1.0" encoding="UTF-8"?>
<!DOCTYPE svg PUBLIC "-//W3C//DTD SVG 1.1 Tiny//EN" "http://www.w3.org/Graphics/SVG/1.1/DTD/svg11-tiny.dtd">
<svg baseProfile="tiny" height="60" viewBox="0 0 60 60" width="60" xmlns="http://www.w3.org/2000/svg" xmlns:xlink="http://www.w3.org/1999/xlink">
<g>
<rect fill="none" height="60" width="60"/>
<linearGradient gradientUnits="userSpaceOnUse" id="SVGID_1_" x1="30" x2="30" y1="2.2666" y2="58.2666">
<stop offset="0" style="stop-color:#E1E8C9"/>
<stop offset="0.3879" style="stop-color:#4C7F44"/>
<stop offset="0.6788" style="stop-color:#275341"/>
<stop offset="1" style="stop-color:#B4C980"/>
</linearGradient>
<circle cx="30" cy="30" fill="url(#SVGID_1_)" r="28"/>
<radialGradient cx="30.2666" cy="5.2007" gradientUnits="userSpaceOnUse" id="SVGID_2_" r="51.4665">
<stop offset="0" style="stop-color:#98B060"/>
<stop offset="0.8121" style="stop-color:#326644"/>
<stop offset="1" style="stop-color:#4E8146"/>
</radialGradient>
<path d="M30,57.2C15.002,57.2,2.801,44.999,2.801,30S15.002,2.8,30,2.8S57.199,15.001,57.199,30  S44.998,57.2,30,57.2L30,57.2z" fill="url(#SVGID_2_)"/>
<path d="M21.201,19.861v-4.594c2.779-0.641,5.418-0.961,7.916-0.961c3.689,0,6.516,0.714,8.484,2.146  c1.971,1.428,2.955,3.525,2.955,6.292c0,1.609-0.381,2.972-1.137,4.089c-0.76,1.117-5.988,6.37-6.504,7.089s-0.773,1.57-0.773,2.555  v0.984h-7.336v-1.313c0-1.594,0.348-2.94,1.043-4.042c0.695-1.102,1.91-2.465,3.645-4.09c1.359-1.266,3.047-4.203,3.047-4.828  c0-2.827-1.703-4.24-5.109-4.24C25.51,18.947,23.436,19.251,21.201,19.861z M28.439,50c-1.236,0-2.297-0.438-3.188-1.313  c-0.889-0.875-1.334-1.945-1.334-3.211c0-1.25,0.441-2.321,1.322-3.21c0.883-0.891,1.949-1.336,3.199-1.336s2.32,0.445,3.211,1.336  c0.891,0.89,1.336,1.96,1.336,3.21c0,1.266-0.445,2.335-1.336,3.211C30.76,49.563,29.689,50,28.439,50z" fill-opacity="0.35" stroke-opacity="0.35"/>
<path d="M21.201,18.754v-4.593c2.779-0.64,5.418-0.96,7.916-0.96c3.689,0,6.516,0.714,8.484,2.145  c1.971,1.428,2.955,3.525,2.955,6.292c0,1.609-0.381,2.972-1.137,4.089c-0.76,1.117-5.988,6.371-6.504,7.089  c-0.516,0.719-0.773,1.57-0.773,2.554v0.985h-7.336v-1.313c0-1.594,0.348-2.941,1.043-4.042s1.91-2.465,3.645-4.09  c1.359-1.266,3.047-4.204,3.047-4.828c0-2.827-1.703-4.241-5.109-4.241C25.51,17.841,23.436,18.145,21.201,18.754z M28.439,48.894  c-1.236,0-2.297-0.438-3.188-1.313c-0.889-0.875-1.334-1.945-1.334-3.211c0-1.25,0.441-2.32,1.322-3.21  c0.883-0.891,1.949-1.336,3.199-1.336s2.32,0.445,3.211,1.336s1.336,1.96,1.336,3.21c0,1.266-0.445,2.336-1.336,3.211  C30.76,48.456,29.689,48.894,28.439,48.894z" fill-opacity="0.35" stroke-opacity="0.35"/>
<linearGradient gradientUnits="userSpaceOnUse" id="SVGID_3_" x1="30.8789" x2="30.8789" y1="11.7944" y2="47.7757">
<stop offset="0" style="stop-color:#F9FCF9"/>
<stop offset="1" style="stop-color:#AFB3B2"/>
</linearGradient>
<path d="M21.201,17.461v-4.593c2.779-0.641,5.418-0.961,7.916-0.961c3.689,0,6.516,0.714,8.484,2.145  c1.971,1.428,2.955,3.525,2.955,6.292c0,1.61-0.381,2.972-1.137,4.089c-0.76,1.117-5.988,6.371-6.504,7.089  s-0.773,1.571-0.773,2.554v0.985h-7.336v-1.313c0-1.594,0.348-2.941,1.043-4.042c0.695-1.101,1.91-2.465,3.645-4.09  c1.359-1.265,3.047-4.203,3.047-4.828c0-2.826-1.703-4.241-5.109-4.241C25.51,16.546,23.436,16.852,21.201,17.461z M28.439,47.6  c-1.236,0-2.297-0.438-3.188-1.312c-0.889-0.875-1.334-1.945-1.334-3.211c0-1.25,0.441-2.32,1.322-3.21  c0.883-0.891,1.949-1.336,3.199-1.336s2.32,0.445,3.211,1.336s1.336,1.96,1.336,3.21c0,1.266-0.445,2.336-1.336,3.211  C30.76,47.162,29.689,47.6,28.439,47.6z" fill="url(#SVGID_3_)"/>
<rect fill="none" height="60" width="60"/>
</g>
</svg>
