<?xml version="1.0" encoding="UTF-8"?>
<!DOCTYPE svg PUBLIC "-//W3C//DTD SVG 1.1 Tiny//EN" "http://www.w3.org/Graphics/SVG/1.1/DTD/svg11-tiny.dtd">
<svg baseProfile="tiny" height="60" viewBox="0 0 60 60" width="60" xmlns="http://www.w3.org/2000/svg" xmlns:xlink="http://www.w3.org/1999/xlink">
<g>
<rect fill="none" height="60" width="60"/>
<linearGradient gradientUnits="userSpaceOnUse" id="SVGID_1_" x1="30" x2="30" y1="2.001" y2="57.8555">
<stop offset="0" style="stop-color:#D3D7D5"/>
<stop offset="0.0667" style="stop-color:#D3D7D5"/>
<stop offset="0.2606" style="stop-color:#BFC2C1"/>
<stop offset="0.6606" style="stop-color:#989D9D"/>
<stop offset="0.9636" style="stop-color:#AFB3B2"/>
<stop offset="1" style="stop-color:#5B5B5D"/>
</linearGradient>
<path d="M48.027,54.932c0,1.693-1.375,3.069-3.068,3.069h-29.92c-1.693,0-3.066-1.376-3.066-3.069V5.07  c0-1.696,1.373-3.069,3.066-3.069h29.92c1.693,0,3.068,1.373,3.068,3.069V54.932z" fill="url(#SVGID_1_)"/>
<linearGradient gradientUnits="userSpaceOnUse" id="SVGID_2_" x1="30" x2="30" y1="2.001" y2="56.899">
<stop offset="0" style="stop-color:#E7EAE8"/>
<stop offset="0.0667" style="stop-color:#E7EAE8"/>
<stop offset="0.2606" style="stop-color:#D8DCDA"/>
<stop offset="0.6606" style="stop-color:#B7BDBB"/>
<stop offset="1" style="stop-color:#AFB3B2"/>
</linearGradient>
<path d="M44.959,2.001h-29.92c-1.693,0-3.066,1.373-3.066,3.069v49.861c0,0.82,0.324,1.56,0.848,2.11  c-0.047-0.187-0.08-0.377-0.08-0.575v-1.535V6.602V5.07c0-1.271,1.031-2.304,2.299-2.304h29.92c1.268,0,2.301,1.033,2.301,2.304  v1.531v48.33v1.535c0,0.198-0.033,0.389-0.08,0.575c0.521-0.551,0.848-1.29,0.848-2.11V5.07C48.027,3.374,46.652,2.001,44.959,2.001  z" fill="url(#SVGID_2_)"/>
<linearGradient gradientUnits="userSpaceOnUse" id="SVGID_3_" x1="30" x2="30" y1="5.8916" y2="43.4283">
<stop offset="0" style="stop-color:#B8BBBA"/>
<stop offset="1" style="stop-color:#F4FBF6"/>
</linearGradient>
<rect fill="url(#SVGID_3_)" fill-opacity="0.6" height="37.589" stroke-opacity="0.6" width="31.453" x="14.273" y="5.836"/>
<linearGradient gradientUnits="userSpaceOnUse" id="SVGID_4_" x1="29.999" x2="29.999" y1="6.6548" y2="42.6624">
<stop offset="0" style="stop-color:#6E6E6E"/>
<stop offset="1" style="stop-color:#333333"/>
</linearGradient>
<rect fill="url(#SVGID_4_)" height="36.058" width="29.92" x="15.039" y="6.602"/>
<linearGradient gradientUnits="userSpaceOnUse" id="SVGID_5_" x1="30" x2="30" y1="7.4214" y2="41.894">
<stop offset="0" style="stop-color:#70B4B6"/>
<stop offset="0.3879" style="stop-color:#5F8BA1"/>
<stop offset="0.8909" style="stop-color:#455188"/>
<stop offset="1" style="stop-color:#455188"/>
</linearGradient>
<rect fill="url(#SVGID_5_)" height="34.521" width="28.383" x="15.809" y="7.37"/>
<linearGradient gradientUnits="userSpaceOnUse" id="SVGID_6_" x1="30" x2="30" y1="7.9712" y2="21.69">
<stop offset="0" style="stop-color:#AADAC6"/>
<stop offset="1" style="stop-color:#6A99AA"/>
</linearGradient>
<polygon fill="url(#SVGID_6_)" points="44.191,19.644 15.809,22.712 15.809,8.137 44.191,8.137 "/>
<rect fill="#BCE2D2" height="0.767" width="28.383" x="15.809" y="7.37"/>
<linearGradient gradientUnits="userSpaceOnUse" id="SVGID_7_" x1="30.2236" x2="30.2236" y1="5.8726" y2="2.8032">
<stop offset="0" style="stop-color:#FFFFFF"/>
<stop offset="1" style="stop-color:#D3D7D5"/>
</linearGradient>
<path d="M26.832,5.836c-0.861,0-1.535-0.563-1.535-1.279v-0.51c0-0.718,0.674-1.28,1.535-1.28h6.785  c0.859,0,1.533,0.563,1.533,1.28v0.51c0,0.716-0.674,1.279-1.533,1.279H26.832z" fill="url(#SVGID_7_)"/>
<linearGradient gradientUnits="userSpaceOnUse" id="SVGID_8_" x1="30.2236" x2="30.2236" y1="3.2158" y2="5.1992">
<stop offset="0" style="stop-color:#6F7172"/>
<stop offset="1" style="stop-color:#BFC2C1"/>
</linearGradient>
<path d="M34.383,4.557c0,0.283-0.342,0.514-0.766,0.514h-6.785c-0.424,0-0.768-0.23-0.768-0.514v-0.51  c0-0.283,0.344-0.512,0.768-0.512h6.785c0.424,0,0.766,0.229,0.766,0.512V4.557z" fill="url(#SVGID_8_)"/>
<linearGradient gradientUnits="userSpaceOnUse" id="SVGID_9_" x1="29.8818" x2="29.8818" y1="44.2236" y2="55.628">
<stop offset="0" style="stop-color:#B8BBBA"/>
<stop offset="1" style="stop-color:#FFFFFF"/>
</linearGradient>
<path d="M27.109,55.7c-1.645,0-2.98-1.323-2.98-2.951v-5.606c0-1.627,1.336-2.951,2.98-2.951  h5.545c1.645,0,2.98,1.324,2.98,2.951v5.606c0,1.628-1.336,2.951-2.98,2.951H27.109z" fill="url(#SVGID_9_)" fill-opacity="0.6" stroke-opacity="0.6"/>
<path d="M27.105,54.932c-1.219,0-2.211-0.979-2.211-2.183v-5.606c0-1.204,0.992-2.183,2.211-2.183  h5.553c1.219,0,2.209,0.979,2.209,2.183v5.606c0,1.204-0.99,2.183-2.209,2.183H27.105z" fill="#020202" fill-opacity="0.5" stroke-opacity="0.5"/>
<linearGradient gradientUnits="userSpaceOnUse" id="SVGID_10_" x1="29.8818" x2="29.8818" y1="45.6865" y2="54.1806">
<stop offset="0" style="stop-color:#A8A9AA"/>
<stop offset="0.703" style="stop-color:#59595A"/>
<stop offset="1" style="stop-color:#818283"/>
</linearGradient>
<path d="M34.102,52.749c0,0.783-0.645,1.417-1.438,1.417h-5.566c-0.793,0-1.436-0.634-1.436-1.417v-5.606  c0-0.783,0.643-1.417,1.436-1.417h5.566c0.793,0,1.438,0.634,1.438,1.417V52.749z" fill="url(#SVGID_10_)"/>
<path d="M28.73,52.632c-0.846,0-1.533-0.688-1.533-1.534v-2.303c0-0.847,0.688-1.534,1.533-1.534  h2.303c0.846,0,1.533,0.688,1.533,1.534v2.303c0,0.847-0.688,1.534-1.533,1.534H28.73z" fill="#020202" fill-opacity="0.2" stroke-opacity="0.2"/>
<linearGradient gradientUnits="userSpaceOnUse" id="SVGID_11_" x1="29.8809" x2="29.8809" y1="48.0103" y2="51.8696">
<stop offset="0" style="stop-color:#D3D7D5"/>
<stop offset="0.0667" style="stop-color:#D3D7D5"/>
<stop offset="0.2606" style="stop-color:#BFC2C1"/>
<stop offset="0.6606" style="stop-color:#989D9D"/>
<stop offset="0.9636" style="stop-color:#AFB3B2"/>
<stop offset="1" style="stop-color:#5B5B5D"/>
</linearGradient>
<path d="M28.73,51.863c-0.422,0-0.768-0.345-0.768-0.766v-2.303c0-0.422,0.346-0.767,0.768-0.767h2.303  c0.42,0,0.766,0.345,0.766,0.767v2.303c0,0.421-0.346,0.766-0.766,0.766H28.73z" fill="url(#SVGID_11_)"/>
<linearGradient gradientUnits="userSpaceOnUse" id="SVGID_12_" x1="17.667" x2="17.667" y1="44.917" y2="54.1816">
<stop offset="0" style="stop-color:#B8BBBA"/>
<stop offset="1" style="stop-color:#F4FBF6"/>
</linearGradient>
<path d="M17.223,54.166c-1.625,0-2.949-1.323-2.949-2.951v-3.307  c0-1.624,1.324-2.948,2.949-2.948h0.887c1.627,0,2.951,1.324,2.951,2.948v3.307c0,1.628-1.324,2.951-2.951,2.951H17.223z" fill="url(#SVGID_12_)" fill-opacity="0.4" stroke-opacity="0.4"/>
<linearGradient gradientUnits="userSpaceOnUse" id="SVGID_13_" x1="17.665" x2="17.665" y1="45.6899" y2="53.4106">
<stop offset="0" style="stop-color:#222021"/>
<stop offset="1" style="stop-color:#6E6E6F"/>
</linearGradient>
<path d="M17.223,53.397c-1.203,0-2.184-0.979-2.184-2.183v-3.307  c0-1.201,0.98-2.183,2.184-2.183h0.887c1.205,0,2.182,0.981,2.182,2.183v3.307c0,1.204-0.977,2.183-2.182,2.183H17.223z" fill="url(#SVGID_13_)" fill-opacity="0.7" stroke-opacity="0.7"/>
<linearGradient gradientUnits="userSpaceOnUse" id="SVGID_14_" x1="17.667" x2="17.667" y1="46.4658" y2="52.6426">
<stop offset="0" style="stop-color:#B3C77D"/>
<stop offset="0.7273" style="stop-color:#3C743A"/>
<stop offset="1" style="stop-color:#235138"/>
</linearGradient>
<path d="M19.525,51.215c0,0.783-0.635,1.417-1.416,1.417h-0.887c-0.779,0-1.414-0.634-1.414-1.417v-3.307  c0-0.78,0.635-1.414,1.414-1.414h0.887c0.781,0,1.416,0.634,1.416,1.414V51.215z" fill="url(#SVGID_14_)"/>
<linearGradient gradientUnits="userSpaceOnUse" id="SVGID_15_" x1="41.6719" x2="41.6719" y1="44.917" y2="54.1816">
<stop offset="0" style="stop-color:#B8BBBA"/>
<stop offset="1" style="stop-color:#F4FBF6"/>
</linearGradient>
<path d="M41.229,54.166c-1.625,0-2.949-1.323-2.949-2.951v-3.307  c0-1.624,1.324-2.948,2.949-2.948h0.885c1.627,0,2.951,1.324,2.951,2.948v3.307c0,1.628-1.324,2.951-2.951,2.951H41.229z" fill="url(#SVGID_15_)" fill-opacity="0.4" stroke-opacity="0.4"/>
<linearGradient gradientUnits="userSpaceOnUse" id="SVGID_16_" x1="41.6709" x2="41.6709" y1="45.6899" y2="53.4106">
<stop offset="0" style="stop-color:#222021"/>
<stop offset="1" style="stop-color:#6E6E6F"/>
</linearGradient>
<path d="M41.229,53.397c-1.203,0-2.184-0.979-2.184-2.183v-3.307  c0-1.201,0.98-2.183,2.184-2.183h0.885c1.205,0,2.184,0.981,2.184,2.183v3.307c0,1.204-0.979,2.183-2.184,2.183H41.229z" fill="url(#SVGID_16_)" fill-opacity="0.7" stroke-opacity="0.7"/>
<linearGradient gradientUnits="userSpaceOnUse" id="SVGID_17_" x1="41.6719" x2="41.6719" y1="46.4658" y2="52.6426">
<stop offset="0" style="stop-color:#C6B17B"/>
<stop offset="0.7455" style="stop-color:#98604F"/>
<stop offset="1" style="stop-color:#7F3736"/>
</linearGradient>
<path d="M43.531,51.215c0,0.783-0.637,1.417-1.418,1.417h-0.885c-0.781,0-1.416-0.634-1.416-1.417v-3.307  c0-0.78,0.635-1.414,1.416-1.414h0.885c0.781,0,1.418,0.634,1.418,1.414V51.215z" fill="url(#SVGID_17_)"/>
<rect fill="none" height="60" width="60"/>
</g>
<g transform="matrix(-1 0 0 1 60 30)">
<polygon fill="none" points="8.019,0 0,0 0,30 18.231,30 18.84,30.224 18.975,30 30,30 30,0 21.98,0 "/>
<linearGradient gradientUnits="userSpaceOnUse" id="SVGID_1__" x1="6.5635" x2="23.4365" y1="15.1118" y2="15.1118">
<stop offset="0" style="stop-color:#000000"/>
<stop offset="0.2727" style="stop-color:#333333"/>
<stop offset="1" style="stop-color:#000000"/>
</linearGradient>
<path d="M18.064,29.938c-4.937-1.812-6.404-6.104-6.839-8.368h-0.037l-0.033-0.295h-0.363  c-0.829,0-1.512-0.64-1.581-1.452L8.62,17.166H8.15c-0.875,0-1.587-0.712-1.587-1.586V7.359c0-0.83,0.642-1.514,1.455-1.58V0H21.98  v5.779c0.814,0.066,1.456,0.75,1.456,1.58v8.221c0,0.874-0.712,1.586-1.588,1.586H21.38l-0.592,2.657  c-0.069,0.812-0.751,1.452-1.579,1.452c0.416,0.971,1.1,1.979,2.214,2.472l1.037,0.459l-3.62,6.018L18.064,29.938z" fill="url(#SVGID_1__)" fill-opacity="0.35" stroke-opacity="0.35"/>
<radialGradient cx="22.252" cy="19.7871" gradientUnits="userSpaceOnUse" id="SVGID_2__" r="9.5452">
<stop offset="0" style="stop-color:#101010"/>
<stop offset="0.4727" style="stop-color:#858585"/>
<stop offset="0.8" style="stop-color:#000000"/>
<stop offset="1" style="stop-color:#4D4D4D"/>
</radialGradient>
<path d="M18.409,29c-5.74-2.107-6.669-7.99-6.358-10.807l5.544,0.615c-0.033,0.371,0.419,4.525,3.424,5.854  L18.409,29L18.409,29z" fill="url(#SVGID_2__)"/>
<path d="M17.595,18.809l-5.544-0.615c-0.08,0.725-0.077,1.654,0.069,2.67h5.867  C17.657,19.828,17.581,18.969,17.595,18.809z" fill-opacity="0.35" stroke-opacity="0.35"/>
<linearGradient gradientUnits="userSpaceOnUse" id="SVGID_3__" x1="9.0186" x2="20.9805" y1="3.9355" y2="3.9355">
<stop offset="0" style="stop-color:#7F5337"/>
<stop offset="0.05" style="stop-color:#D5D19D"/>
<stop offset="0.35" style="stop-color:#B9A56D"/>
<stop offset="0.65" style="stop-color:#AD9861"/>
<stop offset="0.95" style="stop-color:#CFC893"/>
<stop offset="1" style="stop-color:#7F5337"/>
</linearGradient>
<rect fill="url(#SVGID_3__)" height="5.871" width="11.962" x="9.019" y="1"/>
<path d="M17.595,18.809l-5.544-0.615c-0.072,0.654-0.075,1.477,0.03,2.377h5.818  C17.644,19.67,17.582,18.953,17.595,18.809z" fill-opacity="0.5" stroke-opacity="0.5"/>
<linearGradient gradientUnits="userSpaceOnUse" id="SVGID_4__" x1="9.0313" x2="20.9688" y1="17.0469" y2="17.0469">
<stop offset="0" style="stop-color:#4D4D4D"/>
<stop offset="0.2" style="stop-color:#7A7A7A"/>
<stop offset="0.8" style="stop-color:#1A1A1A"/>
<stop offset="1" style="stop-color:#4D4D4D"/>
</linearGradient>
<path d="M19.794,19.688c0,0.324-0.263,0.588-0.586,0.588h-8.416c-0.324,0-0.587-0.264-0.587-0.588  l-1.174-5.281c0-0.326,0.263-0.588,0.587-0.588h10.764c0.324,0,0.587,0.262,0.587,0.588L19.794,19.688z" fill="url(#SVGID_4__)"/>
<path d="M20.382,14.111H9.618c-0.266,0-0.486,0.178-0.56,0.418l0.495,2.225h10.893l0.494-2.225  C20.868,14.289,20.646,14.111,20.382,14.111z" fill-opacity="0.35" stroke-opacity="0.35"/>
<path d="M9.618,17.047h10.764l0.514-2.316c-0.096-0.189-0.286-0.324-0.514-0.324H9.618  c-0.229,0-0.418,0.135-0.516,0.324L9.618,17.047z" fill-opacity="0.35" stroke-opacity="0.35"/>
<path d="M20.382,13.818H9.618c-0.324,0-0.587,0.262-0.587,0.588l0.456,2.053h11.025l0.456-2.053  C20.969,14.08,20.706,13.818,20.382,13.818z" fill-opacity="0.5" stroke-opacity="0.5"/>
<rect fill-opacity="0.35" height="0.393" stroke-opacity="0.35" width="11.962" x="9.019" y="6.479"/>
<rect fill-opacity="0.15" height="0.391" stroke-opacity="0.15" width="11.962" x="9.019" y="6.088"/>
<linearGradient gradientUnits="userSpaceOnUse" id="SVGID_5__" x1="7.5635" x2="22.4365" y1="11.4697" y2="11.4697">
<stop offset="0" style="stop-color:#4D4D4D"/>
<stop offset="0.2" style="stop-color:#595959"/>
<stop offset="0.8" style="stop-color:#1A1A1A"/>
<stop offset="1" style="stop-color:#4D4D4D"/>
</linearGradient>
<path d="M22.437,15.58c0,0.324-0.264,0.586-0.588,0.586H8.15c-0.324,0-0.587-0.262-0.587-0.586V7.359  c0-0.324,0.263-0.586,0.587-0.586h13.698c0.324,0,0.588,0.262,0.588,0.586V15.58z" fill="url(#SVGID_5__)"/>
<path d="M21.849,15.873H8.15c-0.324,0-0.587-0.264-0.587-0.588v0.295c0,0.324,0.263,0.586,0.587,0.586h13.698  c0.324,0,0.588-0.262,0.588-0.586v-0.295C22.437,15.609,22.173,15.873,21.849,15.873z" fill-opacity="0.35" stroke-opacity="0.35"/>
<path d="M21.849,15.58H8.15c-0.324,0-0.587-0.264-0.587-0.588v0.293c0,0.324,0.263,0.588,0.587,0.588h13.698  c0.324,0,0.588-0.264,0.588-0.588v-0.293C22.437,15.316,22.173,15.58,21.849,15.58z" fill-opacity="0.15" stroke-opacity="0.15"/>
<path d="M21.849,6.773H8.15c-0.324,0-0.587,0.262-0.587,0.586v0.293c0-0.322,0.263-0.586,0.587-0.586  h13.698c0.324,0,0.588,0.264,0.588,0.586V7.359C22.437,7.035,22.173,6.773,21.849,6.773z" fill="#FFFFFF" fill-opacity="0.5" stroke-opacity="0.5"/>
<path d="M21.849,7.066H8.15c-0.324,0-0.587,0.264-0.587,0.586v0.295c0-0.324,0.263-0.588,0.587-0.588  h13.698c0.324,0,0.588,0.264,0.588,0.588V7.652C22.437,7.33,22.173,7.066,21.849,7.066z" fill="#FFFFFF" fill-opacity="0.25" stroke-opacity="0.25"/>
<linearGradient gradientUnits="userSpaceOnUse" id="SVGID_6__" x1="7.5635" x2="22.4365" y1="8.4355" y2="8.4355">
<stop offset="0" style="stop-color:#000000"/>
<stop offset="0.2727" style="stop-color:#333333"/>
<stop offset="1" style="stop-color:#000000"/>
</linearGradient>
<rect fill="url(#SVGID_6__)" height="0.586" width="14.873" x="7.563" y="8.143"/>
<rect fill="#FFFFFF" fill-opacity="0.25" height="0.295" stroke-opacity="0.25" width="14.873" x="7.563" y="8.729"/>
<rect fill="#FFFFFF" fill-opacity="0.25" height="0.293" stroke-opacity="0.25" width="14.873" x="7.563" y="10.197"/>
<rect fill="#FFFFFF" fill-opacity="0.25" height="0.295" stroke-opacity="0.25" width="14.873" x="7.563" y="11.664"/>
<linearGradient gradientUnits="userSpaceOnUse" id="SVGID_7__" x1="7.5635" x2="22.4365" y1="9.9033" y2="9.9033">
<stop offset="0" style="stop-color:#000000"/>
<stop offset="0.2727" style="stop-color:#333333"/>
<stop offset="1" style="stop-color:#000000"/>
</linearGradient>
<rect fill="url(#SVGID_7__)" height="0.588" width="14.873" x="7.563" y="9.609"/>
<linearGradient gradientUnits="userSpaceOnUse" id="SVGID_8__" x1="7.5635" x2="22.4365" y1="11.3711" y2="11.3711">
<stop offset="0" style="stop-color:#000000"/>
<stop offset="0.2727" style="stop-color:#333333"/>
<stop offset="1" style="stop-color:#000000"/>
</linearGradient>
<rect fill="url(#SVGID_8__)" height="0.586" width="14.873" x="7.563" y="11.078"/>
<rect fill="none" height="30" width="30"/>
</g>
</svg>
