<?xml version="1.0" encoding="UTF-8"?>
<!DOCTYPE svg PUBLIC "-//W3C//DTD SVG 1.1 Tiny//EN" "http://www.w3.org/Graphics/SVG/1.1/DTD/svg11-tiny.dtd">
<svg baseProfile="tiny" height="60" viewBox="0 0 60 60" width="60" xmlns="http://www.w3.org/2000/svg" xmlns:xlink="http://www.w3.org/1999/xlink">
<g>
<rect fill="none" height="60" width="60"/>
<path d="M46.69,42.35c-1.665-0.866-9.918-3.756-10.07-3.936l-0.002,0.002c-0.934-1.068-0.896-3.433-0.43-4.46,0.001-0.001,0.002-0.001,0.002-0.002,0.032-0.071,0.065-0.139,0.104-0.197,0.113-0.177,0.219-0.354,0.326-0.533,0.813-1.329,1.494-2.651,2.054-3.892,1.009,0.349,2.307-0.59,2.95-2.18,0.667-1.645,0.379-3.354-0.645-3.815-0.058-0.026-0.119-0.03-0.178-0.048v-0.002c0.133-0.521,0.191-0.826,0.191-0.826,1.77-7.934-2.078-14.22-11.4-14.53-3.832,0-5.617,0.578-7.039,2.398-2.313,0.357-6.039,3.642-3.453,12.93-0.098,0.016-0.195,0.031-0.289,0.071-1.032,0.436-1.355,2.128-0.724,3.782,0.633,1.653,1.983,2.643,3.017,2.208,0.063-0.027,0.117-0.072,0.176-0.11,0.568,1.279,1.266,2.646,2.104,4.02h-0.01c0.022,0.037,0.046,0.073,0.067,0.11,0.023,0.038,0.045,0.076,0.068,0.114,0.002,0.003,0.005,0.005,0.007,0.008,0.061,0.101,0.12,0.201,0.185,0.301,0.532,0.833,0.663,3.229-0.166,4.457-0.208,0.283-8.346,3.135-10.23,4.136-2.161,1.147-5.688,3.782-5.688,9.723h44.76c-0.01-5.95-4.04-8.86-5.7-9.73z" fill="url(#SVGID_1)"/>
<path d="M7.659,51.07c-0.022,0.323-0.037,0.655-0.037,1h44.76c0-0.345-0.017-0.676-0.042-1h-44.68z" fill="#FFFFFF" fill-opacity="0.15"/>
<path d="M22.55,11.33c1.422-1.82,3.207-2.398,7.039-2.398,7.565,0.252,11.52,4.44,11.8,10.25,0.15-6.32-3.81-10.99-11.8-11.25-3.832,0-5.617,0.578-7.039,2.398-1.81,0.279-4.472,2.367-4.311,7.704,0.18-4.6,2.62-6.44,4.31-6.7z" fill="#FFFFFF" fill-opacity="0.5"/>
<path d="M36.62,38.42c-0.441-0.505-0.66-1.3-0.725-2.106-0.086,1.09,0.098,2.389,0.725,3.106l0.002-0.002c0.154,0.18,8.407,3.069,10.07,3.936,1.566,0.816,5.225,3.453,5.645,8.723h0.042c0-5.94-4.024-8.856-5.687-9.723-1.665-0.866-9.918-3.756-10.07-3.936z" fill="#FFFFFF" fill-opacity="0.5"/>
<path d="M13.31,43.35c1.885-1.001,10.02-3.853,10.23-4.136,0.508-0.752,0.652-1.938,0.568-2.938-0.053,0.717-0.225,1.429-0.568,1.938-0.208,0.283-8.346,3.135-10.23,4.136-2.161,1.147-5.688,3.782-5.688,9.723h0.037c0.37-5.24,3.621-7.64,5.651-8.72z" fill="#FFFFFF" fill-opacity="0.5"/>
<defs>
<linearGradient gradientUnits="userSpaceOnUse" id="SVGID_1" x1="30" x2="30" y1="8.6" y2="52.35">
<stop offset="0" stop-color="#8E8E8E"/>
<stop offset="1" stop-color="#444444"/>
</linearGradient>
</defs>
</g>
</svg>
