<?xml version="1.0" encoding="UTF-8"?>
<!DOCTYPE svg PUBLIC "-//W3C//DTD SVG 1.1 Tiny//EN" "http://www.w3.org/Graphics/SVG/1.1/DTD/svg11-tiny.dtd">
<svg baseProfile="tiny" height="30px" version="1.1" viewBox="0 0 30 30" width="30px" x="0px" xmlns="http://www.w3.org/2000/svg" xmlns:xlink="http://www.w3.org/1999/xlink" y="0px">
<rect fill="none" height="30" width="30"/>
<path d="M27.77,1.428l-5.896,2.416c0,0,0.26,0.992-0.418,1.67l-4.406,4.404c-0.734-1.422-1.832-2.07-2.963-2.07  c-0.918,0-1.857,0.428-2.645,1.213c-1.789,1.791-1.242,2.576-2.676,4.008c-1.439,1.436-4.918,0.814-7.484,3.377  c-2.566,2.568,1.432,6.354,3.186,8.105c1.346,1.348,3.896,4.021,6.168,4.021c0.686,0.002,1.344-0.242,1.938-0.836  c2.566-2.566,1.941-6.047,3.381-7.482c1.432-1.434,4.123-3.1,4.9-3.875c0.357-0.357,0.688-0.977,0.09-0.996  c-0.631-0.018-2.012-0.422-2.84-1.25c-0.203-0.205-0.387-0.408-0.555-0.611l6.291-6.293c0.85-0.842,2.049-0.859,2.156-0.859  c0.006,0,0.008,0,0.008,0l3.551-4.117L27.77,1.428z M13,17.502c-1.105,0-2-0.896-2-2s0.895-2,2-2c1.104,0,2,0.896,2,2  S14.104,17.502,13,17.502z"/>
</svg>
