<?xml version="1.0" encoding="UTF-8"?>
<!DOCTYPE svg PUBLIC "-//W3C//DTD SVG 1.1 Tiny//EN" "http://www.w3.org/Graphics/SVG/1.1/DTD/svg11-tiny.dtd">
<svg baseProfile="tiny" height="30px" version="1.1" viewBox="0 0 30 30" width="30px" x="0px" xmlns="http://www.w3.org/2000/svg" xmlns:xlink="http://www.w3.org/1999/xlink" y="0px">
<g fill-opacity="0.5" stroke-opacity="0.5">
<rect fill="none" height="30" width="30"/>
</g>
<g fill-opacity="0.5" stroke-opacity="0.5">
<rect fill="none" height="30" width="30"/>
</g>
<polygon points="8.05,11.372 5.545,12.974 5.708,10.013 4.124,10.013 4.279,12.974 1.773,11.372 1,12.732 3.625,14.084 1,15.444   1.773,16.804 4.279,15.178 4.124,18.155 5.708,18.155 5.545,15.178 8.05,16.804 8.824,15.444 6.199,14.084 8.824,12.732 "/>
<path d="M21.881,14.411l-1.713-0.388c-0.247,1.096-0.565,1.96-0.955,2.591l-2.574-3.332c0.97-0.654,1.642-1.246,2.015-1.777  c0.372-0.53,0.56-1.115,0.56-1.751c0-0.78-0.283-1.397-0.849-1.851c-0.565-0.454-1.35-0.681-2.354-0.681  c-1.079,0-1.92,0.247-2.522,0.741c-0.603,0.493-0.904,1.202-0.904,2.125c0,0.838,0.459,1.856,1.377,3.056  c-0.924,0.529-1.586,1.09-1.988,1.684c-0.401,0.595-0.603,1.296-0.603,2.104c0,1.091,0.351,1.937,1.051,2.535  c0.699,0.6,1.707,0.899,3.021,0.899c1.28,0,2.368-0.358,3.264-1.075l0.723,0.938h2.574l-1.765-2.272  C20.994,17.073,21.542,15.892,21.881,14.411z M15.059,8.936c0.216-0.218,0.539-0.327,0.969-0.327c0.362,0,0.651,0.106,0.869,0.319  c0.218,0.212,0.327,0.482,0.327,0.809c0,0.879-0.505,1.655-1.515,2.333c-0.373-0.488-0.628-0.882-0.766-1.184  c-0.138-0.301-0.207-0.624-0.207-0.969C14.736,9.48,14.844,9.153,15.059,8.936z M15.829,18.887c-0.567,0-1.063-0.188-1.484-0.563  c-0.422-0.376-0.633-0.917-0.633-1.623c0-0.94,0.396-1.728,1.188-2.358l2.927,3.822C17.247,18.646,16.581,18.887,15.829,18.887z"/>
<polygon points="28.629,16.391 28.879,7.395 26.392,7.395 26.649,16.391 "/>
<path d="M28.604,18.034c-0.264-0.264-0.586-0.395-0.965-0.395s-0.699,0.131-0.964,0.395c-0.264,0.265-0.395,0.585-0.395,0.964  s0.132,0.702,0.399,0.97c0.267,0.266,0.587,0.399,0.959,0.399c0.379,0,0.701-0.134,0.965-0.399C28.867,19.7,29,19.377,29,18.998  S28.867,18.299,28.604,18.034z"/>
</svg>
