<?xml version="1.0" encoding="UTF-8"?>
<!DOCTYPE svg PUBLIC "-//W3C//DTD SVG 1.1 Tiny//EN" "http://www.w3.org/Graphics/SVG/1.1/DTD/svg11-tiny.dtd">
<svg baseProfile="tiny" height="30" viewBox="0 0 30 30" width="30" xmlns="http://www.w3.org/2000/svg" xmlns:xlink="http://www.w3.org/1999/xlink">
<g>
<g>
<rect fill="none" height="30" width="30"/>
</g>
<circle cx="15" cy="15" fill-opacity="0.6" r="14" stroke-opacity="0.6"/>
<radialGradient cx="15" cy="3.7026" gradientUnits="userSpaceOnUse" id="SVGID_1_" r="23.0618">
<stop offset="0" style="stop-color:#DDD7B2"/>
<stop offset="0.7818" style="stop-color:#B3964D"/>
<stop offset="1" style="stop-color:#B39C4D"/>
</radialGradient>
<path d="M15,28C7.832,28,2,22.168,2,15C2,7.832,7.832,2,15,2s13,5.832,13,13C28,22.168,22.168,28,15,28L15,28  z" fill="url(#SVGID_1_)"/>
<path d="M15,3c6.999,0,12.709,5.564,12.975,12.5C27.981,15.333,28,15.169,28,15  c0-7.168-5.832-13-13-13S2,7.832,2,15c0,0.169,0.019,0.333,0.025,0.5C2.291,8.564,8.001,3,15,3z" fill="#FFFFFF" fill-opacity="0.3" stroke-opacity="0.3"/>
<ellipse cx="22.92" cy="7.352" fill-opacity="0.2" rx="4.361" ry="1.541" stroke-opacity="0.2" transform="matrix(0.9259 0.3777 -0.3777 0.9259 4.4746 -8.1124)"/>
<ellipse cx="22.922" cy="6.89" fill="#2F2021" rx="4.361" ry="1" transform="matrix(0.9259 0.3777 -0.3777 0.9259 4.3011 -8.1483)"/>
<ellipse cx="6.92" cy="7.173" fill-opacity="0.2" rx="4.361" ry="1.541" stroke-opacity="0.2" transform="matrix(-0.9259 0.3777 -0.3777 -0.9259 16.0374 11.2006)"/>
<ellipse cx="6.918" cy="6.711" fill="#2F2021" rx="4.361" ry="1" transform="matrix(-0.9259 0.3777 -0.3777 -0.9259 15.8594 10.3117)"/>
<path d="M23.501,23c-0.169,0-0.335-0.086-0.429-0.241C21.691,20.476,18.71,20,15.476,20  s-6.216,0.476-7.597,2.759c-0.144,0.235-0.451,0.312-0.688,0.169s-0.312-0.45-0.168-0.687C8.604,19.625,11.844,18,15.476,18  s6.871,1.625,8.452,4.241c0.144,0.236,0.068,0.544-0.168,0.687C23.678,22.977,23.589,23,23.501,23L23.501,23z" fill="#FFFFFF" fill-opacity="0.4" stroke-opacity="0.4"/>
<path d="M23.501,22c-0.169,0-0.335-0.086-0.429-0.241C21.691,19.476,18.71,18,15.476,18s-6.216,1.476-7.597,3.759  c-0.144,0.235-0.451,0.312-0.688,0.169s-0.312-0.45-0.168-0.687C8.604,18.625,11.844,17,15.476,17s6.871,1.625,8.452,4.241  c0.144,0.236,0.068,0.544-0.168,0.687C23.678,21.977,23.589,22,23.501,22L23.501,22z" fill-opacity="0.4" stroke-opacity="0.4"/>
<path d="M6.563,13.688c-0.396,0.724-1.43,1.504-1.656,3.094c-0.167,1.178,0.756,3.182,0.438,4.438  c-0.815,3.219-0.67,4.492,0.438,4.719c1.219,0.25,2.622-2.725,3-4.906C8.998,19.787,8.345,18.11,8.625,17  c0.275-1.088,1.746-2.412,2.438-3.752C12.063,11.311,12,11,12,11l-4.918,0.872C7.082,11.872,7.152,12.612,6.563,13.688z" fill-opacity="0.2" stroke-opacity="0.2"/>
<linearGradient gradientUnits="userSpaceOnUse" id="SVGID_2_" x1="15.4756" x2="15.4756" y1="17.5723" y2="22.6656">
<stop offset="0" style="stop-color:#31151D"/>
<stop offset="1" style="stop-color:#76464D"/>
</linearGradient>
<path d="M23.501,22.5c-0.169,0-0.335-0.086-0.429-0.241c-1.381-2.283-4.362-3.759-7.597-3.759  s-6.216,1.476-7.597,3.759c-0.144,0.235-0.451,0.312-0.688,0.169s-0.312-0.45-0.168-0.687c1.581-2.616,4.82-4.241,8.452-4.241  s6.871,1.625,8.452,4.241c0.144,0.236,0.068,0.544-0.168,0.687C23.678,22.477,23.589,22.5,23.501,22.5L23.501,22.5z" fill="url(#SVGID_2_)"/>
<path d="M23.443,13.688c0.396,0.724,1.43,1.504,1.656,3.094c0.168,1.178-0.756,3.182-0.438,4.438  c0.816,3.219,0.67,4.492-0.438,4.719c-1.219,0.25-2.621-2.725-3-4.906c-0.216-1.244,0.438-2.921,0.156-4.031  c-0.275-1.088-1.746-2.412-2.438-3.752c-1-1.938-0.938-2.248-0.938-2.248l4.919,0.872C22.925,11.872,22.854,12.612,23.443,13.688z" fill-opacity="0.2" stroke-opacity="0.2"/>
<linearGradient gradientUnits="userSpaceOnUse" id="SVGID_3_" x1="7.4126" x2="7.4126" y1="12.042" y2="25.838">
<stop offset="0" style="stop-color:#83CABF"/>
<stop offset="1" style="stop-color:#3E678C"/>
</linearGradient>
<path d="M5.563,13.688c-0.396,0.724-1.43,1.504-1.656,3.094c-0.167,1.178,0.756,3.182,0.438,4.438  c-0.815,3.219-0.67,4.492,0.438,4.719c1.219,0.25,2.622-2.725,3-4.906C7.998,19.787,7.345,18.11,7.625,17  c0.275-1.088,1.746-2.412,2.438-3.752C11.063,11.311,11,11,11,11l-4.918,0.872C6.082,11.872,6.152,12.612,5.563,13.688z" fill="url(#SVGID_3_)"/>
<linearGradient gradientTransform="matrix(-1 0 0 1 -1800.1367 0)" gradientUnits="userSpaceOnUse" id="SVGID_4_" x1="-1822.73" x2="-1822.73" y1="12.042" y2="25.838">
<stop offset="0" style="stop-color:#83CABF"/>
<stop offset="1" style="stop-color:#3E678C"/>
</linearGradient>
<path d="M24.443,13.688c0.396,0.724,1.43,1.504,1.656,3.094c0.168,1.178-0.756,3.182-0.438,4.438  c0.816,3.219,0.67,4.492-0.438,4.719c-1.219,0.25-2.621-2.725-3-4.906c-0.216-1.244,0.438-2.921,0.156-4.031  c-0.275-1.088-1.746-2.412-2.438-3.752c-1-1.938-0.938-2.248-0.938-2.248l4.919,0.872C23.925,11.872,23.854,12.612,24.443,13.688z" fill="url(#SVGID_4_)"/>
<path d="M11.813,9.888c0.119,0.54,0.023,1.019-0.213,1.07l-5.984,1.309  c-0.236,0.052-0.522-0.343-0.641-0.883l0,0c-0.118-0.54-0.022-1.019,0.213-1.07l5.984-1.309C11.408,8.953,11.695,9.348,11.813,9.888  L11.813,9.888z" fill="#FFFFFF" fill-opacity="0.3" stroke-opacity="0.3"/>
<path d="M24.848,12.26c-0.102,0.543-0.376,0.947-0.613,0.902l-6.021-1.128c-0.237-0.045-0.347-0.521-0.245-1.063l0,0  c0.102-0.543,0.377-0.947,0.613-0.902l6.021,1.128C24.84,11.241,24.95,11.717,24.848,12.26L24.848,12.26z" fill-opacity="0.4" stroke-opacity="0.4"/>
<path d="M25.033,11.277c-0.103,0.543-0.377,0.947-0.615,0.902l-6.02-1.128  c-0.238-0.044-0.348-0.521-0.246-1.064l0,0c0.102-0.543,0.377-0.946,0.615-0.902l6.02,1.128  C25.024,10.259,25.135,10.734,25.033,11.277L25.033,11.277z" fill="#FFFFFF" fill-opacity="0.3" stroke-opacity="0.3"/>
<path d="M24.94,11.769c-0.051,0.272-0.284,0.456-0.522,0.411l-6.02-1.128c-0.238-0.044-0.389-0.3-0.338-0.572l0,0  c0.051-0.271,0.285-0.456,0.521-0.411l6.021,1.128C24.84,11.241,24.992,11.497,24.94,11.769L24.94,11.769z" fill="#2F2021"/>
<path d="M12.026,10.865c0.118,0.54,0.022,1.019-0.214,1.07l-5.983,1.309C5.594,13.295,5.307,12.9,5.188,12.36l0,0  c-0.117-0.54-0.021-1.019,0.215-1.07l5.982-1.309C11.621,9.93,11.908,10.325,12.026,10.865L12.026,10.865z" fill-opacity="0.4" stroke-opacity="0.4"/>
<path d="M11.92,10.376c0.059,0.27-0.084,0.53-0.32,0.582l-5.984,1.309c-0.236,0.052-0.475-0.125-0.533-0.395l0,0  c-0.06-0.27,0.084-0.53,0.32-0.582l5.982-1.309C11.621,9.93,11.861,10.106,11.92,10.376L11.92,10.376z" fill="#2F2021"/>
</g>
</svg>
