<?xml version="1.0" encoding="UTF-8"?>
<!DOCTYPE svg PUBLIC "-//W3C//DTD SVG 1.1 Tiny//EN" "http://www.w3.org/Graphics/SVG/1.1/DTD/svg11-tiny.dtd">
<svg baseProfile="tiny" height="30px" version="1.1" viewBox="0 0 30 30" width="30px" x="0px" xmlns="http://www.w3.org/2000/svg" xmlns:xlink="http://www.w3.org/1999/xlink" y="0px">
<g fill-opacity="0.5" stroke-opacity="0.5">
<rect fill="none" height="30" width="30"/>
</g>
<path d="M18.635,11.46h-0.509v6.332h0.532c0.542,0,0.942-0.21,1.224-0.644c0.296-0.455,0.445-1.33,0.445-2.602  c0-1.125-0.147-1.938-0.439-2.416C19.612,11.68,19.202,11.46,18.635,11.46z"/>
<path d="M27,4H3C1.896,4,1,4.896,1,6v18c0,1.104,0.896,2,2,2h24c1.104,0,2-0.896,2-2V6C29,4.896,28.104,4,27,4z M14.786,19.2h-2.018  v-4.248h-2.096V19.2H8.661v-9.137h2.012v3.492h2.096v-3.492h2.018V19.2z M21.463,18.062c-0.629,0.755-1.584,1.139-2.84,1.139h-2.509  v-9.137h2.685c1.197,0,2.108,0.366,2.708,1.086c0.591,0.709,0.891,1.829,0.891,3.327C22.397,16.111,22.083,17.316,21.463,18.062z"/>
</svg>
