<?xml version="1.0" encoding="UTF-8"?>
<!DOCTYPE svg PUBLIC "-//W3C//DTD SVG 1.1 Tiny//EN" "http://www.w3.org/Graphics/SVG/1.1/DTD/svg11-tiny.dtd">
<svg baseProfile="tiny" height="30px" version="1.1" viewBox="0 0 30 30" width="30px" x="0px" xmlns="http://www.w3.org/2000/svg" xmlns:xlink="http://www.w3.org/1999/xlink" y="0px">
<rect fill="none" height="30" width="30"/>
<path d="M9.006,8.3c1.476-1.321,3.387-2.158,5.494-2.274v-5c-3.487,0.124-6.644,1.517-9.03,3.739L9.006,8.3z M24.529,4.764  c-2.386-2.222-5.542-3.615-9.029-3.739v5c2.107,0.116,4.017,0.953,5.493,2.274L24.529,4.764z M6.026,15.5h-5  c0.124,3.487,1.517,6.644,3.739,9.029l3.536-3.536C6.979,19.518,6.142,17.607,6.026,15.5z M8.299,9.007L4.764,5.472  C2.542,7.857,1.149,11.013,1.026,14.5h5C6.142,12.393,6.979,10.483,8.299,9.007z M5.472,25.236c2.385,2.222,5.542,3.615,9.029,3.738  v-5c-2.107-0.116-4.018-0.953-5.493-2.274L5.472,25.236z M21.699,20.993l3.537,3.536c2.222-2.385,3.615-5.542,3.738-9.029h-5  C23.858,17.607,23.021,19.518,21.699,20.993z M15.5,23.975v5c3.487-0.123,6.643-1.517,9.029-3.738L20.992,21.7  C19.517,23.021,17.606,23.858,15.5,23.975z"/>
</svg>
