<?xml version="1.0" encoding="UTF-8"?>
<!DOCTYPE svg PUBLIC "-//W3C//DTD SVG 1.1 Tiny//EN" "http://www.w3.org/Graphics/SVG/1.1/DTD/svg11-tiny.dtd">
<svg baseProfile="tiny" height="30px" version="1.1" viewBox="0 0 30 30" width="30px" x="0px" xmlns="http://www.w3.org/2000/svg" xmlns:xlink="http://www.w3.org/1999/xlink" y="0px">
<g fill-opacity="0.5" stroke-opacity="0.5">
<rect fill="none" height="30" width="30"/>
</g>
<path d="M28,5c0,0.553-0.447,1-1,1H5C4.447,6,4,5.553,4,5l0,0c0-0.553,0.447-1,1-1h22C27.553,4,28,4.447,28,5L28,5z"/>
<path d="M28,9c0,0.553-0.447,1-1,1H11c-0.553,0-1-0.447-1-1l0,0c0-0.553,0.447-1,1-1h16C27.553,8,28,8.447,28,9L28,9z"/>
<path d="M28,13c0,0.553-0.447,1-1,1H5c-0.553,0-1-0.447-1-1l0,0c0-0.553,0.447-1,1-1h22C27.553,12,28,12.447,28,13L28,13z"/>
<path d="M28,17c0,0.553-0.447,1-1,1H11c-0.553,0-1-0.447-1-1l0,0c0-0.553,0.447-1,1-1h16C27.553,16,28,16.447,28,17L28,17z"/>
<path d="M28,21c0,0.553-0.447,1-1,1H5c-0.553,0-1-0.447-1-1l0,0c0-0.553,0.447-1,1-1h22C27.553,20,28,20.447,28,21L28,21z"/>
<path d="M28,25c0,0.553-0.447,1-1,1H11c-0.553,0-1-0.447-1-1l0,0c0-0.553,0.447-1,1-1h16C27.553,24,28,24.447,28,25L28,25z"/>
</svg>
