<?xml version="1.0" encoding="UTF-8"?>
<!DOCTYPE svg PUBLIC "-//W3C//DTD SVG 1.1 Tiny//EN" "http://www.w3.org/Graphics/SVG/1.1/DTD/svg11-tiny.dtd">
<svg baseProfile="tiny" height="205px" version="1.1" viewBox="0 0 640 205" width="640px" x="0px" xmlns="http://www.w3.org/2000/svg" xmlns:xlink="http://www.w3.org/1999/xlink" y="0px">
<rect fill="#FFFFFF" height="205" width="640"/>
<linearGradient gradientUnits="userSpaceOnUse" id="SVGID_1_" x1="610" x2="610" y1="19.6665" y2="59.8465">
<stop offset="0" style="stop-color:#FAFAFF"/>
<stop offset="0.9" style="stop-color:#D7D7DC"/>
<stop offset="0.9" style="stop-color:#CDCDD2"/>
<stop offset="1" style="stop-color:#C3C3C8"/>
</linearGradient>
<rect fill="url(#SVGID_1_)" height="40" width="60" x="580" y="20"/>
<rect fill="#AAAAAF" height="1" width="60" x="580" y="59"/>
<rect fill="#FFFFFF" fill-opacity="0.6" height="39" width="1" x="580" y="20"/>
<polygon fill="#FFFFFF" fill-opacity="0.4" points="639,20 639,58 581,58 581,59 640,59 640,20 " stroke-opacity="0.4"/>
<linearGradient gradientUnits="userSpaceOnUse" id="SVGID_2_" x1="30" x2="30" y1="19.6665" y2="59.8465">
<stop offset="0" style="stop-color:#FAFAFF"/>
<stop offset="0.9" style="stop-color:#D7D7DC"/>
<stop offset="0.9" style="stop-color:#CDCDD2"/>
<stop offset="1" style="stop-color:#C3C3C8"/>
</linearGradient>
<rect fill="url(#SVGID_2_)" height="40" width="60" y="20"/>
<rect fill="#AAAAAF" height="1" width="60" y="59"/>
<polygon fill="#FFFFFF" fill-opacity="0.4" points="1,58 1,20 0,20 0,59 59,59 59,58 " stroke-opacity="0.4"/>
<rect fill-opacity="0.2" height="39" width="1" x="59" y="20"/>
<linearGradient gradientUnits="userSpaceOnUse" id="SVGID_3_" x1="319.9995" x2="319.9995" y1="19.6665" y2="59.8465">
<stop offset="0" style="stop-color:#FAFAFF"/>
<stop offset="0.9" style="stop-color:#D7D7DC"/>
<stop offset="0.9" style="stop-color:#CDCDD2"/>
<stop offset="1" style="stop-color:#C3C3C8"/>
</linearGradient>
<rect fill="url(#SVGID_3_)" height="40" width="520" x="60" y="20"/>
<rect fill="#AAAAAF" height="1" width="520" x="60" y="59"/>
<rect fill="#FFFFFF" fill-opacity="0.6" height="39" width="1" x="60" y="20"/>
<rect fill-opacity="0.2" height="39" width="1" x="579" y="20"/>
<rect fill="#FFFFFF" fill-opacity="0.4" height="1" stroke-opacity="0.4" width="518" x="61" y="58"/>
<rect height="20" width="640"/>
<g>
<path d="M38,32c1.65,0,2.234,1.112,1.301,2.472l-7.602,11.056c-0.934,1.36-2.465,1.36-3.398,0l-7.602-11.056   C19.766,33.112,20.35,32,22,32H38z" fill="#3C3C3C"/>
</g>
<g>
<path d="M568,32c1.65,0,2.234,1.112,1.301,2.472l-7.602,11.056c-0.934,1.36-2.465,1.36-3.398,0l-7.602-11.056   C549.766,33.112,550.35,32,552,32H568z" fill="#3C3C3C"/>
</g>
<linearGradient gradientTransform="matrix(0 -1 1 0 -197.5 -891.5)" gradientUnits="userSpaceOnUse" id="SVGID_4_" x1="-894.5" x2="-909.5" y1="801.499" y2="801.499">
<stop offset="0" style="stop-color:#92DE2F"/>
<stop offset="1" style="stop-color:#19B016"/>
</linearGradient>
<polygon fill="url(#SVGID_4_)" points="592,7 590,7 590,14 592,14 592,18 618,18 618,3 592,3 "/>
<rect fill-opacity="0.2" height="8" stroke-opacity="0.2" width="2" x="611" y="6.5"/>
<polygon fill-opacity="0.2" points="598,6.5 598,9.5 595,9.5 595,11.5 598,11.5 598,14.5 600,14.5 600,11.5 603,11.5 603,9.5 600,9.5   600,6.5 " stroke-opacity="0.2"/>
<rect fill="none" height="15" width="30" x="589" y="3"/>
<rect fill="url(#SVGID_5_)" height="3" width="4" x="24" y="9"/>
<rect fill="url(#SVGID_5_)" height="6" width="4" x="30" y="7.5"/>
<rect fill="url(#SVGID_7_)" height="9" width="4" x="36" y="6"/>
<rect fill="url(#SVGID_5_)" height="12" width="4" x="42" y="4.5"/>
<rect fill="url(#SVGID_7_)" height="15" width="4" x="48" y="3"/>
<rect fill="none" height="15" width="30" x="23" y="3"/>
<path d="M13.53,15h1.942v-4.838L19,5.91V5h-9v0.91l3.53,4.252V15L13.53,15z" fill="#FFFFFF"/>
<path d="M623,16h7V5.176h-2.042V4h-2.992v1.176H623V16z" fill="#FFFFFF"/>
<g>
<path d="M610,41.5c0,1.65-1.09,2.204-2.422,1.23l-8.156-5.96c-1.332-0.974-1.332-2.566,0-3.54l8.156-5.96   C608.91,26.296,610,26.85,610,28.5V41.5z" fill="#3C3C3C"/>
</g>
<path d="M604.5,35h12c3.85,0,7,3.15,7,7l0,0  c0,3.85-3.15,7-7,7h-15" fill="none" stroke="#3C3C3C" stroke-linecap="round" stroke-width="5"/>
<linearGradient gradientUnits="userSpaceOnUse" id="SVGID_10_" x1="106.5" x2="106.5" y1="144" y2="204.27">
<stop offset="0" style="stop-color:#66B8CC"/>
<stop offset="0.9" style="stop-color:#3F89A9"/>
<stop offset="0.9" style="stop-color:#3880A4"/>
<stop offset="1" style="stop-color:#3278A0"/>
</linearGradient>
<rect fill="url(#SVGID_10_)" height="60" width="213" y="144.5"/>
<path d="M0,144.5v60h213v-60H0z M212,203.5H1v-58h211V203.5z" fill-opacity="0.2" stroke-opacity="0.2"/>
<linearGradient gradientUnits="userSpaceOnUse" id="SVGID_11_" x1="319.9995" x2="319.9995" y1="144" y2="204.27">
<stop offset="0" style="stop-color:#FAFAFF"/>
<stop offset="0.9" style="stop-color:#D7D7DC"/>
<stop offset="0.9" style="stop-color:#CDCDD2"/>
<stop offset="1" style="stop-color:#C3C3C8"/>
</linearGradient>
<rect fill="url(#SVGID_11_)" height="60" width="214" x="213" y="144.5"/>
<linearGradient gradientUnits="userSpaceOnUse" id="SVGID_12_" x1="533.5" x2="533.5" y1="144" y2="204.27">
<stop offset="0" style="stop-color:#FAFAFF"/>
<stop offset="0.9" style="stop-color:#D7D7DC"/>
<stop offset="0.9" style="stop-color:#CDCDD2"/>
<stop offset="1" style="stop-color:#C3C3C8"/>
</linearGradient>
<rect fill="url(#SVGID_12_)" height="60" width="213" x="427" y="144.5"/>
<rect fill-opacity="0.1" height="1" stroke-opacity="0.1" width="427" x="213" y="203.5"/>
<rect fill="#FFFFFF" fill-opacity="0.4" height="1" stroke-opacity="0.4" width="427" x="213" y="202.5"/>
<rect fill="#FFFFFF" fill-opacity="0.9" height="58" stroke-opacity="0.9" width="1" x="213" y="145.5"/>
<rect fill="none" height="40" width="40" x="86.5" y="154.5"/>
<g>
<g>
<path d="M87.876,174.5c0.019,10.268,8.353,18.605,18.624,18.624c10.268-0.019,18.607-8.356,18.624-18.624    c-0.017-10.268-8.356-18.607-18.624-18.625C96.229,155.893,87.895,164.232,87.876,174.5z M95.939,177.984l-0.924,1.229    c0,0-0.086,2.324-0.092,2.423c-0.076,0.225-0.693,0.148-0.932,0.148c-0.807,0.761,0.421,1.424,0.217,1.895    c-0.197,0.457-0.454,0.971-0.773,1.432c-2.256-2.883-4.664-8.228-3.11-14.514c0.196,0.094,0.442,0.332,0.75,0.756    c0.337,0.467,0.313,1.104,0.631,1.394c0.378,0.347,0.784,1.573,0.784,1.573l1.043,1.125l2.408,1.56v0.979H95.939z     M118.841,183.507c-0.702,0.229-0.458-0.546-0.458-0.546s0.629-1.391,0.643-1.501c0.033-0.263,0.863-0.524,0.863-0.524    l0.553-0.877C121.262,179.893,120.305,183.027,118.841,183.507z M113.113,159.548c0.264,0.034,0.184,0.284,0.479,0.284    c0.101,0,0.53-0.111,1.054-0.258c4.179,2.173,7.342,6.029,8.584,10.674c-0.055-0.003-0.088-0.008-0.088-0.008    s-0.1-0.065-0.246-0.16l-0.516-1.021l-0.816-0.066l-1.664-1.402c0,0,0.44,1.131,1.172,1.664c0.476,0.033,0.799-0.031,0.822-0.008    c0.521,1.373-0.594,3.061-1.887,3.372c-0.162-0.704-0.306-0.979-0.512-1.58l-2.266-3.081l-0.131,0.324l1.045,1.591    c0,0,0.74,1.241,1.047,1.961c0.588,0.522,0.703,0.739,0.763,1.272c0.207,0.066,0.37,0.078,1.022-0.162    c0.988-0.363,0.424,1.162,0.262,1.588c-0.592,1.445-0.723,1.332-1.655,2.279c-1.44,1.019-0.668,2.793-0.731,4.229    c0,0-1.455,0.979-1.994,1.192c-0.5,0.713-0.01,1.389-0.262,1.406c-0.766,0.25-1.925,1.437-2.123,1.6    c-0.688,0.889-1.113,1.017-1.923,0.945c-2.257-0.638-1.577-2.983-1.678-3.244c-0.276-0.898-1.153-1.029-0.013-2.746    c0.479-0.564,0.045-1.822-0.827-3.043c-0.4-0.563,0.28-1.869,0.229-1.877c-1.462-0.272-1.765-0.93-1.828-1.096    c0,0-2.975,0.594-4.002,0.508c-0.787-0.063-2.488-2.101-2.816-2.854c-0.327-0.755,0.619-3.301,0.654-3.496    c0.033-0.197,2.244-1.732,2.244-1.732l1.504-1.465l-0.9-0.443c0,0,0.186-1.838,1.014-1.373c0.087,0.05,0.555,0.146,1.082,0.1    c0.559-0.352-0.611-0.813-0.484-1.288c0.029-0.112,0.463-0.165,0.026-0.56c-0.696-0.631-0.194-1.09,0.239-1.198    c0.48,0.177,0.785,0.608,0.785,1.198c0,0.592,1.559-0.27,1.654-0.37c-0.695-0.501-1.045-1.294-0.785-1.327    c0.268-0.036,1.422-0.335,1.717-0.633C110.657,158.949,112.848,159.518,113.113,159.548z M104.124,159.23    c0.215-0.104,0.614,0.104,0.89,0.063c0.276-0.041,0.521,0.063,0.521,0.063s-0.491,0.23-0.705,0.271    C104.615,159.669,104.309,159.459,104.124,159.23z M101.986,158.366c1.533-0.454,3.158-0.699,4.836-0.699    c1.305,0,2.576,0.147,3.796,0.427c-1.636,0.352-3.429-0.07-3.429-0.07c-0.164,0.263-0.905,0.125-1.101,0.125    c-0.198,0-1.213,0.838-2.168,0.758c-0.459,0.295-0.864,0.623-1.358,0.46c-0.492-0.164-1.436,0.653-1.795,0.688    c-0.49,0.154-0.725,0.118-0.793-0.025C101.1,159.341,101.559,158.779,101.986,158.366z M98.775,159.691l-0.95,1.119    c0,0-0.196,0.588-0.306,0.74c-0.108,0.152-0.653,0.742-0.653,0.742l-0.457-0.195l-0.066-0.24c0,0-0.502,0.152-0.502,0.457    c0,0.306-1.938,1.574-2.522,2.037C94.781,162.436,96.643,160.842,98.775,159.691z" fill="#FFFFFF"/>
<path d="M111.05,161.109c0.171,0.152,0.739,0.465,0.825-0.047c0.085-0.514-0.452-1.293-0.452-1.293    s-0.54,0.131-0.403,0.48S110.881,160.959,111.05,161.109z" fill="#FFFFFF"/>
<path d="M115.268,164.363c0,0,0.515-0.094,1.015,0.1c1.418,0.286,0.977-0.234,0.304-0.6    c-0.238-0.129-0.583-0.316-0.4-0.559c-0.158-0.255-0.5-0.074-0.742,0.191c-0.243,0.266-0.771-0.121-0.932,0.37    C114.35,164.355,115.152,164.585,115.268,164.363z" fill="#FFFFFF"/>
<path d="M108.725,163.534c-0.348,0.296-1.313,1.204-1.313,1.204l-1.345,0.479l1.213,0.189l1.244-0.368l1.951,0.129    l0.318,0.919c0,0,2.137,1.059,2.342,0.844c0.316-0.326,0.486-0.795,0.963-0.469c0.478,0.328,1.252,0.329,1.812,0.329    c0.231,0.067,1.053,0.61,1.03-0.739c-0.362-0.304-2.353-0.177-2.916-1.48l-0.285,0.041c0,0,0.189,0.92-0.041,0.902    c-0.536-0.039-1.096-1-1.096-1l-0.104-0.408l-1.4-0.793c0,0-0.008,0.233,1.084,1.19c0,0-0.369,0.631-0.857,0.664    c0.123-0.164,0.216-0.655,0.216-0.655l-1.345-1.076C110.193,163.436,109.02,163.284,108.725,163.534z" fill="#FFFFFF"/>
<path d="M118.58,164.814c0.381,0.356,0.218,0.623,0.471,0.848c0.252,0.225,0.842,0.25,0.463-0.262    c-0.459-0.616-0.938-1.096-1.045-1.248c-0.203-0.283,0.115-0.879-0.42-0.625C117.734,164.086,118.034,164.307,118.58,164.814z" fill="#FFFFFF"/>
</g>
</g>
<path d="M336.674,185.854l-5.824-5.83c1.336-2.258,2.119-4.891,2.119-7.705c0-8.369-6.787-15.152-15.152-15.152  c-8.367,0-15.15,6.783-15.15,15.15c0,8.365,6.783,15.152,15.15,15.152c3.111,0,5.998-0.939,8.404-2.549l5.693,5.693  c0.875,0.875,2.297,0.875,3.172,0l1.588-1.588C337.553,188.15,337.553,186.73,336.674,185.854z M317.816,183.682  c-6.273,0-11.361-5.088-11.361-11.363s5.088-11.363,11.361-11.363c6.275,0,11.363,5.088,11.363,11.363  C329.182,178.592,324.092,183.682,317.816,183.682z M319.334,165.834h-2.668v5.332h-5.332v2.668h5.332v5.332h2.668v-5.332h5.332  v-2.668h-5.332V165.834z" fill="#3C3C3C"/>
<rect fill="none" height="40" width="40" x="300" y="154.5"/>
<path d="M550.174,185.854l-5.824-5.83c1.336-2.258,2.119-4.891,2.119-7.705c0-8.369-6.787-15.152-15.152-15.152  c-8.367,0-15.15,6.783-15.15,15.15c0,8.365,6.783,15.152,15.15,15.152c3.111,0,5.998-0.939,8.404-2.549l5.693,5.693  c0.875,0.875,2.297,0.875,3.172,0l1.588-1.588C551.053,188.15,551.053,186.73,550.174,185.854z M531.316,183.682  c-6.273,0-11.361-5.088-11.361-11.363s5.088-11.363,11.361-11.363c6.275,0,11.363,5.088,11.363,11.363  C542.682,178.592,537.592,183.682,531.316,183.682z M530.166,171.166h-5.332v2.668h5.332h2.668h5.332v-2.668h-5.332H530.166z" fill="#3C3C3C"/>
<rect fill="none" height="40" width="40" x="513.5" y="154.5"/>
<rect fill="#FFFFFF" fill-opacity="0.9" height="58" stroke-opacity="0.9" width="1" x="427" y="145.5"/>
<rect fill="#9696A0" fill-opacity="0.5" height="58" stroke-opacity="0.5" width="1" x="426" y="145.5"/>
<path d="M1,145.5v3v55h211v-55v-3H1z M211,202.5H2v-54h209V202.5z" fill="#FFFFFF" fill-opacity="0.2" stroke-opacity="0.2"/>
<rect fill="none" height="71.71" width="71.63" x="171.249" y="66.645"/>
<linearGradient gradientTransform="matrix(1 0 0 -1 872.707 -829.8535)" gradientUnits="userSpaceOnUse" id="SVGID_13_" x1="-678.8013" x2="-678.8013" y1="-905.832" y2="-950.8316">
<stop offset="0" style="stop-color:#D1D7D9"/>
<stop offset="0.07" style="stop-color:#D1D7D9"/>
<stop offset="0.26" style="stop-color:#BDC2C4"/>
<stop offset="0.66" style="stop-color:#949DA1"/>
<stop offset="0.96" style="stop-color:#ADB3B5"/>
<stop offset="1" style="stop-color:#595C5E"/>
</linearGradient>
<path d="M208.521,117.863c0,1.617-1.313,2.928-2.923,2.928H182.21c-1.612,0-2.923-1.314-2.923-2.928V78.348  c0-1.615,1.313-2.927,2.923-2.927h23.39c1.61,0,2.925,1.313,2.925,2.927L208.521,117.863L208.521,117.863z" fill="url(#SVGID_13_)"/>
<linearGradient gradientTransform="matrix(1 0 0 -1 872.707 -829.8535)" gradientUnits="userSpaceOnUse" id="SVGID_14_" x1="-678.8022" x2="-678.8022" y1="-905.2769" y2="-949.6078">
<stop offset="0" style="stop-color:#D5D7DB"/>
<stop offset="0.67" style="stop-color:#85878A"/>
<stop offset="1" style="stop-color:#808184"/>
</linearGradient>
<path d="M205.596,75.423H182.21c-1.612,0-2.923,1.315-2.923,2.927v39.515c0,0.775,0.313,1.484,0.811,2.012  c-0.045-0.176-0.078-0.355-0.078-0.549v-1.463V79.816V78.35c0-1.21,0.98-2.191,2.19-2.191h23.388c1.209,0,2.188,0.981,2.188,2.191  v1.466v38.049v1.463c0,0.189-0.027,0.373-0.076,0.549c0.498-0.521,0.813-1.232,0.813-2.012V78.35  C208.521,76.735,207.212,75.423,205.596,75.423z" fill="url(#SVGID_14_)"/>
<linearGradient gradientTransform="matrix(1 0 0 -1 872.707 -829.8535)" gradientUnits="userSpaceOnUse" id="SVGID_15_" x1="-678.8018" x2="-678.8018" y1="-908.9756" y2="-937.4838">
<stop offset="0" style="stop-color:#878B8C"/>
<stop offset="1" style="stop-color:#B1BABD"/>
</linearGradient>
<rect fill="url(#SVGID_15_)" fill-opacity="0.6" height="28.54" width="24.85" x="181.48" y="79.082"/>
<linearGradient gradientTransform="matrix(1 0 0 -1 872.707 -829.8535)" gradientUnits="userSpaceOnUse" id="SVGID_16_" x1="-678.8022" x2="-678.8022" y1="-909.7046" y2="-936.743">
<stop offset="0" style="stop-color:#3D3D3D"/>
<stop offset="1" style="stop-color:#1A1A1A"/>
</linearGradient>
<rect fill="url(#SVGID_16_)" height="27.075" width="23.39" x="182.21" y="79.812"/>
<linearGradient gradientTransform="matrix(1 0 0 -1 872.707 -829.8535)" gradientUnits="userSpaceOnUse" id="SVGID_17_" x1="-678.8022" x2="-678.8022" y1="-910.436" y2="-936.0117">
<stop offset="0" style="stop-color:#3BC8EB"/>
<stop offset="0.39" style="stop-color:#2D9BD2"/>
<stop offset="0.89" style="stop-color:#1347BA"/>
<stop offset="1" style="stop-color:#1347BA"/>
</linearGradient>
<rect fill="url(#SVGID_17_)" height="25.609" width="21.925" x="182.942" y="80.547"/>
<linearGradient gradientTransform="matrix(1 0 0 -1 872.707 -829.8535)" gradientUnits="userSpaceOnUse" id="SVGID_18_" x1="-678.8022" x2="-678.8022" y1="-911.0093" y2="-921.3372">
<stop offset="0" style="stop-color:#85EFFF"/>
<stop offset="1" style="stop-color:#3BA1D9"/>
</linearGradient>
<polygon fill="url(#SVGID_18_)" points="204.867,89.326 182.942,92.255 182.942,81.277 204.867,81.277 "/>
<rect fill="#9FE4FF" height="0.729" width="21.925" x="182.942" y="80.547"/>
<linearGradient gradientTransform="matrix(1 0 0 -1 872.707 -829.8535)" gradientUnits="userSpaceOnUse" id="SVGID_19_" x1="-678.4209" x2="-678.4209" y1="-908.9771" y2="-906.0483">
<stop offset="0" style="stop-color:#CFCFCF"/>
<stop offset="1" style="stop-color:#808385"/>
</linearGradient>
<path d="M191.678,79.082c-0.818,0-1.461-0.534-1.461-1.219v-0.486c0-0.687,0.643-1.22,1.461-1.22h5.216  c0.815,0,1.462,0.533,1.462,1.22v0.486c0,0.687-0.646,1.223-1.462,1.223h-5.216V79.082z" fill="url(#SVGID_19_)"/>
<linearGradient gradientTransform="matrix(1 0 0 -1 872.707 -829.8535)" gradientUnits="userSpaceOnUse" id="SVGID_20_" x1="-678.4209" x2="-678.4209" y1="-906.4424" y2="-908.3323">
<stop offset="0" style="stop-color:#343838"/>
<stop offset="1" style="stop-color:#7D8182"/>
</linearGradient>
<path d="M197.623,77.863c0,0.272-0.322,0.487-0.728,0.487h-5.218c-0.402,0-0.729-0.219-0.729-0.487v-0.486  c0-0.271,0.326-0.485,0.729-0.485h5.218c0.399,0,0.728,0.222,0.728,0.485V77.863z" fill="url(#SVGID_20_)"/>
<linearGradient gradientTransform="matrix(1 0 0 -1 872.707 -829.8535)" gradientUnits="userSpaceOnUse" id="SVGID_21_" x1="-678.8018" x2="-678.8018" y1="-938.2363" y2="-948.3815">
<stop offset="0" style="stop-color:#878B8C"/>
<stop offset="1" style="stop-color:#B1BABD"/>
</linearGradient>
<path d="M191.629,118.594c-1.564,0-2.84-1.264-2.84-2.814v-4.617  c0-1.549,1.271-2.813,2.84-2.813h4.554c1.563,0,2.839,1.264,2.839,2.813v4.617c0,1.553-1.273,2.814-2.841,2.814H191.629  L191.629,118.594z" fill="url(#SVGID_21_)" fill-opacity="0.6"/>
<path d="M191.623,117.863c-1.16,0-2.104-0.939-2.104-2.082v-4.615c0-1.146,0.941-2.08,2.104-2.08  h4.562c1.159,0,2.104,0.938,2.104,2.08v4.615c0,1.145-0.941,2.082-2.104,2.082H191.623L191.623,117.863z" fill="#020202" fill-opacity="0.5"/>
<linearGradient gradientTransform="matrix(1 0 0 -1 872.707 -829.8535)" gradientUnits="userSpaceOnUse" id="SVGID_22_" x1="-678.8037" x2="-678.8037" y1="-939.6357" y2="-946.9964">
<stop offset="0" style="stop-color:#D1D7D9"/>
<stop offset="0.07" style="stop-color:#D1D7D9"/>
<stop offset="0.26" style="stop-color:#BDC2C4"/>
<stop offset="0.66" style="stop-color:#949DA1"/>
<stop offset="0.96" style="stop-color:#ADB3B5"/>
<stop offset="1" style="stop-color:#595C5E"/>
</linearGradient>
<path d="M197.557,115.781c0,0.744-0.612,1.352-1.366,1.352h-4.571c-0.756,0-1.369-0.607-1.369-1.352v-4.617  c0-0.742,0.613-1.35,1.369-1.35h4.571c0.754,0,1.366,0.604,1.366,1.35V115.781z" fill="url(#SVGID_22_)"/>
<path d="M193.174,115.668c-0.81,0-1.465-0.654-1.465-1.463v-1.465  c0-0.811,0.654-1.463,1.465-1.463h1.46c0.807,0,1.463,0.652,1.463,1.463v1.465c0,0.809-0.654,1.463-1.463,1.463H193.174z" fill="#020202" fill-opacity="0.5"/>
<linearGradient gradientTransform="matrix(1 0 0 -1 872.707 -829.8535)" gradientUnits="userSpaceOnUse" id="SVGID_23_" x1="-678.8042" x2="-678.8042" y1="-941.8574" y2="-944.7953">
<stop offset="0" style="stop-color:#A6A8AB"/>
<stop offset="0.7" style="stop-color:#58595B"/>
<stop offset="1" style="stop-color:#808184"/>
</linearGradient>
<path d="M193.174,114.932c-0.404,0-0.73-0.326-0.73-0.729v-1.465c0-0.398,0.328-0.729,0.73-0.729h1.46  c0.4,0,0.729,0.328,0.729,0.729v1.465c0,0.4-0.328,0.729-0.729,0.729H193.174z" fill="url(#SVGID_23_)"/>
<linearGradient gradientTransform="matrix(1 0 0 -1 872.707 -829.8535)" gradientUnits="userSpaceOnUse" id="SVGID_24_" x1="-688.3027" x2="-688.3027" y1="-938.9053" y2="-946.9969">
<stop offset="0" style="stop-color:#878B8C"/>
<stop offset="1" style="stop-color:#B1BABD"/>
</linearGradient>
<path d="M184.405,117.133c-1.611,0-2.925-1.264-2.925-2.818v-2.42  c0-1.551,1.313-2.814,2.925-2.814l0,0c1.61,0,2.923,1.264,2.923,2.814v2.42C187.328,115.869,186.014,117.133,184.405,117.133  L184.405,117.133z" fill="url(#SVGID_24_)" fill-opacity="0.6"/>
<linearGradient gradientTransform="matrix(1 0 0 -1 872.707 -829.8535)" gradientUnits="userSpaceOnUse" id="SVGID_25_" x1="-688.3008" x2="-688.3008" y1="-939.6338" y2="-946.2672">
<stop offset="0" style="stop-color:#231F20"/>
<stop offset="1" style="stop-color:#6D6E70"/>
</linearGradient>
<path d="M184.405,116.396c-1.193,0-2.162-0.932-2.162-2.082v-2.42  c0-1.148,0.969-2.08,2.162-2.08l0,0c1.192,0,2.163,0.932,2.163,2.084v2.42C186.566,115.467,185.598,116.396,184.405,116.396  L184.405,116.396z" fill="url(#SVGID_25_)" fill-opacity="0.7"/>
<linearGradient gradientTransform="matrix(1 0 0 -1 872.707 -829.8535)" gradientUnits="userSpaceOnUse" id="SVGID_26_" x1="-688.3032" x2="-688.3032" y1="-940.3721" y2="-945.5241">
<stop offset="0" style="stop-color:#C6FF45"/>
<stop offset="0.73" style="stop-color:#66A00E"/>
<stop offset="1" style="stop-color:#387300"/>
</linearGradient>
<path d="M185.805,114.314c0,0.748-0.627,1.354-1.399,1.354l0,0c-0.775,0-1.402-0.605-1.402-1.354v-2.42  c0-0.744,0.627-1.352,1.402-1.352l0,0c0.772,0,1.399,0.605,1.399,1.355V114.314z" fill="url(#SVGID_26_)"/>
<linearGradient gradientTransform="matrix(1 0 0 -1 872.707 -829.8535)" gradientUnits="userSpaceOnUse" id="SVGID_27_" x1="-669.3008" x2="-669.3008" y1="-938.9053" y2="-946.9969">
<stop offset="0" style="stop-color:#878B8C"/>
<stop offset="1" style="stop-color:#B1BABD"/>
</linearGradient>
<path d="M203.457,117.133c-1.641,0-2.977-1.264-2.977-2.818v-2.42  c0-1.551,1.336-2.814,2.977-2.814h-0.104c1.643,0,2.979,1.264,2.979,2.814v2.42c0,1.555-1.336,2.818-2.977,2.818H203.457  L203.457,117.133z" fill="url(#SVGID_27_)" fill-opacity="0.6"/>
<linearGradient gradientTransform="matrix(1 0 0 -1 872.707 -829.8535)" gradientUnits="userSpaceOnUse" id="SVGID_28_" x1="-669.2998" x2="-669.2998" y1="-939.6338" y2="-946.2672">
<stop offset="0" style="stop-color:#231F20"/>
<stop offset="1" style="stop-color:#6D6E70"/>
</linearGradient>
<path d="M203.457,116.396c-1.215,0-2.199-0.932-2.199-2.082v-2.42  c0-1.148,0.984-2.08,2.199-2.08h-0.104c1.217,0,2.203,0.932,2.203,2.08v2.42c0,1.148-0.986,2.082-2.203,2.082H203.457z" fill="url(#SVGID_28_)" fill-opacity="0.7"/>
<linearGradient gradientTransform="matrix(1 0 0 -1 872.707 -829.8535)" gradientUnits="userSpaceOnUse" id="SVGID_29_" x1="-669.3018" x2="-669.3018" y1="-940.373" y2="-945.5237">
<stop offset="0" style="stop-color:#FFC142"/>
<stop offset="0.75" style="stop-color:#CF4E18"/>
<stop offset="1" style="stop-color:#B52100"/>
</linearGradient>
<path d="M204.781,114.314c0,0.748-0.641,1.354-1.43,1.354h0.105c-0.789,0-1.428-0.605-1.428-1.354v-2.42  c0-0.744,0.639-1.352,1.428-1.352h-0.105c0.789,0,1.43,0.605,1.43,1.352V114.314z" fill="url(#SVGID_29_)"/>
<rect fill="#020202" fill-opacity="0.2" height="45.364" width="1.46" x="196.829" y="75.423"/>
<rect fill="#020202" fill-opacity="0.1" height="45.364" width="2.924" x="197.557" y="75.423"/>
<linearGradient gradientTransform="matrix(1 0 0 -1 872.707 -829.8535)" gradientUnits="userSpaceOnUse" id="SVGID_30_" x1="-657.2446" x2="-657.2446" y1="-905.2808" y2="-957.8218">
<stop offset="0" style="stop-color:#D1D7D9"/>
<stop offset="0.07" style="stop-color:#D1D7D9"/>
<stop offset="0.26" style="stop-color:#BDC2C4"/>
<stop offset="0.66" style="stop-color:#949DA1"/>
<stop offset="0.96" style="stop-color:#ADB3B5"/>
<stop offset="1" style="stop-color:#595C5E"/>
</linearGradient>
<path d="M232.636,125.182c0,1.615-1.31,2.928-2.921,2.928h-28.504c-1.611,0-2.924-1.313-2.924-2.928V78.354  c0-1.615,1.313-2.927,2.924-2.927h28.506c1.611,0,2.921,1.315,2.921,2.927L232.636,125.182L232.636,125.182z" fill="url(#SVGID_30_)"/>
<linearGradient gradientTransform="matrix(1 0 0 -1 872.707 -829.8535)" gradientUnits="userSpaceOnUse" id="SVGID_31_" x1="-657.2446" x2="-657.2446" y1="-905.2769" y2="-956.9106">
<stop offset="0" style="stop-color:#E4EBED"/>
<stop offset="0.07" style="stop-color:#E4EBED"/>
<stop offset="0.26" style="stop-color:#D6DCDE"/>
<stop offset="0.66" style="stop-color:#B2BEC2"/>
<stop offset="1" style="stop-color:#ADB3B5"/>
</linearGradient>
<path d="M229.715,75.423h-28.504c-1.611,0-2.924,1.315-2.924,2.927v46.828c0,0.777,0.313,1.482,0.813,2.014  c-0.045-0.178-0.078-0.355-0.078-0.549v-1.465V79.816V78.35c0-1.21,0.98-2.191,2.189-2.191h28.504c1.209,0,2.188,0.981,2.188,2.191  v1.466v45.362v1.465c0,0.188-0.031,0.373-0.076,0.549c0.498-0.523,0.811-1.23,0.811-2.014V78.35  C232.636,76.735,231.328,75.423,229.715,75.423z" fill="url(#SVGID_31_)"/>
<linearGradient gradientTransform="matrix(1 0 0 -1 872.707 -829.8535)" gradientUnits="userSpaceOnUse" id="SVGID_32_" x1="-657.2441" x2="-657.2441" y1="-908.9863" y2="-944.0677">
<stop offset="0" style="stop-color:#B6BBBD"/>
<stop offset="1" style="stop-color:#F0FBFF"/>
</linearGradient>
<rect fill="url(#SVGID_32_)" fill-opacity="0.6" height="35.124" width="29.965" x="200.48" y="79.082"/>
<linearGradient gradientTransform="matrix(1 0 0 -1 872.707 -829.8535)" gradientUnits="userSpaceOnUse" id="SVGID_33_" x1="-657.2432" x2="-657.2432" y1="-909.7163" y2="-943.3259">
<stop offset="0" style="stop-color:#6E6E6E"/>
<stop offset="1" style="stop-color:#333333"/>
</linearGradient>
<rect fill="url(#SVGID_33_)" height="33.659" width="28.506" x="201.211" y="79.812"/>
<linearGradient gradientTransform="matrix(1 0 0 -1 872.707 -829.8535)" gradientUnits="userSpaceOnUse" id="SVGID_34_" x1="-657.2432" x2="-657.2432" y1="-910.4478" y2="-942.5959">
<stop offset="0" style="stop-color:#3BC8EB"/>
<stop offset="0.39" style="stop-color:#2D9BD2"/>
<stop offset="0.89" style="stop-color:#1347BA"/>
<stop offset="1" style="stop-color:#1347BA"/>
</linearGradient>
<rect fill="url(#SVGID_34_)" height="32.193" width="27.041" x="201.943" y="80.547"/>
<linearGradient gradientTransform="matrix(1 0 0 -1 872.707 -829.8535)" gradientUnits="userSpaceOnUse" id="SVGID_35_" x1="-657.2432" x2="-657.2432" y1="-910.9858" y2="-923.3784">
<stop offset="0" style="stop-color:#85EFFF"/>
<stop offset="1" style="stop-color:#3BA1D9"/>
</linearGradient>
<polygon fill="url(#SVGID_35_)" points="228.984,91.522 201.943,94.449 201.943,81.277 228.984,81.277 "/>
<rect fill="#9FE4FF" height="0.729" width="27.041" x="201.943" y="80.547"/>
<linearGradient gradientTransform="matrix(1 0 0 -1 872.707 -829.8535)" gradientUnits="userSpaceOnUse" id="SVGID_36_" x1="-657.3574" x2="-657.3574" y1="-944.8184" y2="-955.6969">
<stop offset="0" style="stop-color:#B6BBBD"/>
<stop offset="1" style="stop-color:#FFFFFF"/>
</linearGradient>
<path d="M212.707,125.91c-1.564,0-2.84-1.264-2.84-2.814v-5.352  c0-1.553,1.271-2.816,2.84-2.816h5.285c1.563,0,2.839,1.268,2.839,2.816v5.352c0,1.551-1.271,2.814-2.839,2.814H212.707  L212.707,125.91z" fill="url(#SVGID_36_)" fill-opacity="0.6"/>
<path d="M212.705,125.182c-1.162,0-2.104-0.936-2.104-2.08v-5.352  c0-1.148,0.941-2.082,2.104-2.082h5.293c1.162,0,2.104,0.938,2.104,2.082v5.352c0,1.146-0.942,2.08-2.104,2.08H212.705z" fill="#020202" fill-opacity="0.5"/>
<linearGradient gradientTransform="matrix(1 0 0 -1 872.707 -829.8535)" gradientUnits="userSpaceOnUse" id="SVGID_37_" x1="-657.3569" x2="-657.3569" y1="-946.2168" y2="-954.3099">
<stop offset="0" style="stop-color:#A6A8AB"/>
<stop offset="0.7" style="stop-color:#58595B"/>
<stop offset="1" style="stop-color:#808184"/>
</linearGradient>
<path d="M219.37,123.098c0,0.74-0.61,1.35-1.364,1.35h-5.307c-0.756,0-1.369-0.604-1.369-1.35v-5.352  c0-0.746,0.613-1.355,1.369-1.355h5.307c0.754,0,1.364,0.607,1.364,1.355V123.098z" fill="url(#SVGID_37_)"/>
<path d="M214.254,122.986c-0.809,0-1.465-0.658-1.465-1.467v-2.193  c0-0.811,0.656-1.465,1.465-1.465h2.189c0.811,0,1.463,0.654,1.463,1.465v2.193c0,0.809-0.652,1.467-1.463,1.467H214.254z" fill="#020202" fill-opacity="0.2"/>
<linearGradient gradientTransform="matrix(1 0 0 -1 872.707 -829.8535)" gradientUnits="userSpaceOnUse" id="SVGID_38_" x1="-657.3574" x2="-657.3574" y1="-948.4297" y2="-952.1101">
<stop offset="0" style="stop-color:#D1D7D9"/>
<stop offset="0.07" style="stop-color:#D1D7D9"/>
<stop offset="0.26" style="stop-color:#BDC2C4"/>
<stop offset="0.66" style="stop-color:#949DA1"/>
<stop offset="0.96" style="stop-color:#ADB3B5"/>
<stop offset="1" style="stop-color:#595C5E"/>
</linearGradient>
<path d="M214.254,122.252c-0.4,0-0.729-0.328-0.729-0.729v-2.193c0-0.398,0.328-0.73,0.729-0.73h2.189  c0.402,0,0.73,0.33,0.73,0.73v2.193c0,0.398-0.328,0.729-0.73,0.729H214.254z" fill="url(#SVGID_38_)"/>
<linearGradient gradientTransform="matrix(1 0 0 -1 872.707 -829.8535)" gradientUnits="userSpaceOnUse" id="SVGID_39_" x1="-668.9922" x2="-668.9922" y1="-945.4766" y2="-954.3237">
<stop offset="0" style="stop-color:#B6BBBD"/>
<stop offset="1" style="stop-color:#F0FBFF"/>
</linearGradient>
<path d="M203.293,124.445c-1.549,0-2.813-1.264-2.813-2.814v-3.15  c0-1.553,1.262-2.814,2.813-2.814h0.846c1.551,0,2.812,1.264,2.812,2.814v3.15c0,1.555-1.263,2.814-2.812,2.814H203.293  L203.293,124.445z" fill="url(#SVGID_39_)" fill-opacity="0.4"/>
<linearGradient gradientTransform="matrix(1 0 0 -1 872.707 -829.8535)" gradientUnits="userSpaceOnUse" id="SVGID_40_" x1="-668.9922" x2="-668.9922" y1="-946.2188" y2="-953.5802">
<stop offset="0" style="stop-color:#231F20"/>
<stop offset="1" style="stop-color:#6D6E70"/>
</linearGradient>
<path d="M203.293,123.717c-1.146,0-2.082-0.934-2.082-2.082v-3.15  c0-1.146,0.936-2.082,2.082-2.082h0.846c1.146,0,2.08,0.936,2.08,2.084v3.15c0,1.148-0.936,2.082-2.08,2.082L203.293,123.717  L203.293,123.717z" fill="url(#SVGID_40_)" fill-opacity="0.7"/>
<linearGradient gradientTransform="matrix(1 0 0 -1 872.707 -829.8535)" gradientUnits="userSpaceOnUse" id="SVGID_41_" x1="-668.9941" x2="-668.9941" y1="-946.959" y2="-952.8542">
<stop offset="0" style="stop-color:#C6FF45"/>
<stop offset="0.73" style="stop-color:#66A00E"/>
<stop offset="1" style="stop-color:#387300"/>
</linearGradient>
<path d="M205.486,121.635c0,0.744-0.604,1.355-1.352,1.355h-0.846c-0.74,0-1.35-0.607-1.35-1.355v-3.15  c0-0.742,0.605-1.354,1.35-1.354h0.846c0.746,0,1.352,0.604,1.352,1.354V121.635z" fill="url(#SVGID_41_)"/>
<linearGradient gradientTransform="matrix(1 0 0 -1 872.707 -829.8535)" gradientUnits="userSpaceOnUse" id="SVGID_42_" x1="-646.123" x2="-646.123" y1="-945.4766" y2="-954.3237">
<stop offset="0" style="stop-color:#B6BBBD"/>
<stop offset="1" style="stop-color:#F0FBFF"/>
</linearGradient>
<path d="M226.162,124.445c-1.551,0-2.814-1.264-2.814-2.814v-3.15  c0-1.553,1.266-2.814,2.814-2.814h0.846c1.549,0,2.813,1.264,2.813,2.814v3.15c0,1.555-1.266,2.814-2.813,2.814H226.162z" fill="url(#SVGID_42_)" fill-opacity="0.4"/>
<linearGradient gradientTransform="matrix(1 0 0 -1 872.707 -829.8535)" gradientUnits="userSpaceOnUse" id="SVGID_43_" x1="-646.123" x2="-646.123" y1="-946.2188" y2="-953.5803">
<stop offset="0" style="stop-color:#231F20"/>
<stop offset="1" style="stop-color:#6D6E70"/>
</linearGradient>
<path d="M226.162,123.717c-1.146,0-2.08-0.934-2.08-2.082v-3.15  c0-1.146,0.934-2.082,2.08-2.082h0.846c1.146,0,2.078,0.936,2.078,2.082v3.15c0,1.148-0.934,2.082-2.078,2.082H226.162z" fill="url(#SVGID_43_)" fill-opacity="0.7"/>
<linearGradient gradientTransform="matrix(1 0 0 -1 872.707 -829.8535)" gradientUnits="userSpaceOnUse" id="SVGID_44_" x1="-646.124" x2="-646.124" y1="-946.96" y2="-952.855">
<stop offset="0" style="stop-color:#FFC142"/>
<stop offset="0.75" style="stop-color:#CF4E18"/>
<stop offset="1" style="stop-color:#B52100"/>
</linearGradient>
<path d="M228.355,121.635c0,0.744-0.604,1.355-1.35,1.355h-0.846c-0.746,0-1.352-0.607-1.352-1.355v-3.15  c0-0.744,0.605-1.354,1.352-1.354h0.846c0.742,0,1.352,0.604,1.352,1.354L228.355,121.635L228.355,121.635z" fill="url(#SVGID_44_)"/>
<rect fill="none" height="71.707" width="71.622" x="171.249" y="66.645"/>
<polygon fill-opacity="0.1" points="200.236,109.592 190.482,109.594 190.486,98.289 200.236,98.289 200.236,90.972   213.938,104.305 200.236,116.773 "/>
<polygon fill-opacity="0.2" points="200.965,108.861 191.215,108.863 191.217,99.024 200.965,99.022 200.965,92.705   212.887,104.301 200.967,115.053 "/>
<linearGradient gradientTransform="matrix(1 0 0 -1 872.707 -829.8535)" gradientUnits="userSpaceOnUse" id="SVGID_45_" x1="-670.8164" x2="-670.8164" y1="-923.6294" y2="-942.5151">
<stop offset="0" style="stop-color:#C6FF45"/>
<stop offset="0.73" style="stop-color:#66A00E"/>
<stop offset="1" style="stop-color:#387300"/>
</linearGradient>
<polygon fill="url(#SVGID_45_)" points="201.697,113.338 211.834,103.568 201.697,93.702 201.697,99.02 191.948,99.022   191.947,108.133 201.697,108.129 "/>
<polygon fill="#FFFFFF" points="211.834,103.568 201.697,93.702 201.697,94.435 211.457,103.932 "/>
<polygon fill="#FFFFFF" points="191.948,99.754 201.697,99.749 201.697,99.02 191.948,99.022 191.947,108.133 191.947,108.133 "/>
<rect fill="none" height="71.71" width="71.627" x="284.188" y="66.645"/>
<linearGradient gradientTransform="matrix(1 0 0 -1 872.707 -829.8535)" gradientUnits="userSpaceOnUse" id="SVGID_46_" x1="-551.9785" x2="-551.9785" y1="-907.2324" y2="-955.5307">
<stop offset="0" style="stop-color:#FFFFFF"/>
<stop offset="1" style="stop-color:#CCCCCC"/>
</linearGradient>
<path d="M341.924,125.182c0,0.074-0.654,0.729-1.467,0.729h-39.463c-0.811,0-1.461-0.654-1.461-1.465V78.348  c0-0.81,0.65-1.463,1.461-1.463h39.467c0.809,0,1.463,0.651,1.463,2.19V125.182L341.924,125.182z" fill="url(#SVGID_46_)"/>
<linearGradient gradientTransform="matrix(1 0 0 -1 872.707 -829.8535)" gradientUnits="userSpaceOnUse" id="SVGID_47_" x1="-533.3447" x2="-529.5009" y1="-919.5034" y2="-919.5034">
<stop offset="0" style="stop-color:#808080"/>
<stop offset="0.9" style="stop-color:#F0F0F0"/>
<stop offset="0.91" style="stop-color:#FFFFFF"/>
<stop offset="1" style="stop-color:#FFFFFF"/>
</linearGradient>
<path d="M342.739,94.648c0.397-0.201,0.646-0.606,0.646-1.054v-8.329c0-0.439-0.248-0.853-0.646-1.054  l-3.062-1.067v13.012L342.739,94.648z" fill="url(#SVGID_47_)"/>
<polygon fill="#231F20" fill-opacity="0.35" points="339.6,93.456 342.578,94.619 340.268,95.749 339.6,95.729 "/>
<linearGradient gradientTransform="matrix(1 0 0 -1 872.707 -829.8535)" gradientUnits="userSpaceOnUse" id="SVGID_48_" x1="-529.644" x2="-533.6714" y1="-931.7222" y2="-931.7222">
<stop offset="0" style="stop-color:#AFE865"/>
<stop offset="0.05" style="stop-color:#AFE865"/>
<stop offset="0.06" style="stop-color:#68B339"/>
<stop offset="1" style="stop-color:#136101"/>
</linearGradient>
<path d="M342.594,107.084c0.395-0.201,0.645-0.609,0.645-1.055v-8.328c0-0.439-0.249-0.854-0.645-1.056  l-3.383-1.282v13.011L342.594,107.084z" fill="url(#SVGID_48_)"/>
<polygon fill="#231F20" fill-opacity="0.35" points="338.58,106.084 342.266,107.357 339.652,108.375 338.572,108.348 "/>
<linearGradient gradientTransform="matrix(1 0 0 -1 872.707 -829.8535)" gradientUnits="userSpaceOnUse" id="SVGID_49_" x1="-529.6938" x2="-533.8968" y1="-944.4565" y2="-944.4565">
<stop offset="0" style="stop-color:#B8D6E9"/>
<stop offset="0.07" style="stop-color:#5CB2E9"/>
<stop offset="1" style="stop-color:#005BCC"/>
</linearGradient>
<path d="M342.684,120.254c0.395-0.197,0.645-0.604,0.645-1.051v-9.205c0-0.438-0.25-0.854-0.645-1.053  l-3.758-1.285v13.887L342.684,120.254z" fill="url(#SVGID_49_)"/>
<rect fill="#404041" fill-opacity="0.2" height="49.025" width="16.811" x="323.65" y="76.887"/>
<rect fill="#404041" fill-opacity="0.2" height="49.025" width="16.811" x="322.92" y="76.887"/>
<linearGradient gradientTransform="matrix(1 0 0 -1 872.707 -829.8535)" gradientUnits="userSpaceOnUse" id="SVGID_50_" x1="-554.9043" x2="-554.9043" y1="-905.9194" y2="-955.7691">
<stop offset="0" style="stop-color:#B2F56E"/>
<stop offset="0.53" style="stop-color:#439020"/>
<stop offset="1" style="stop-color:#0D4D07"/>
</linearGradient>
<path d="M338.996,125.182c0,0.811-0.65,1.467-1.463,1.467h-39.465c-0.807,0-1.461-0.656-1.461-1.467V77.621  c0-0.812,0.654-1.464,1.461-1.464h39.467c0.813,0,1.463,0.652,1.463,1.464L338.996,125.182L338.996,125.182z" fill="url(#SVGID_50_)"/>
<linearGradient gradientTransform="matrix(1 0 0 -1 872.707 -829.8535)" gradientUnits="userSpaceOnUse" id="SVGID_51_" x1="-552.3457" x2="-552.3457" y1="-905.7646" y2="-969.5499">
<stop offset="0" style="stop-color:#CDEDBD"/>
<stop offset="0.99" style="stop-color:#139900"/>
<stop offset="1" style="stop-color:#139900"/>
</linearGradient>
<path d="M337.533,76.887c0.402,0,0.73,0.329,0.73,0.729v47.561c0,0.402-0.328,0.729-0.73,0.729h-35.078  V76.883L337.533,76.887 M337.533,76.157h-35.807v50.49h35.807c0.813,0,1.463-0.654,1.463-1.467V77.621  C338.996,76.809,338.346,76.157,337.533,76.157L337.533,76.157z" fill="url(#SVGID_51_)"/>
<linearGradient gradientTransform="matrix(1 0 0 -1 872.707 -829.8535)" gradientUnits="userSpaceOnUse" id="SVGID_52_" x1="-573.5391" x2="-573.5391" y1="-905.7646" y2="-957.2268">
<stop offset="0" style="stop-color:#F2F2F2"/>
<stop offset="1" style="stop-color:#A0A0A0"/>
</linearGradient>
<path d="M298.07,76.157c-0.807,0-1.461,0.652-1.461,1.464v47.561c0,0.811,0.654,1.465,1.461,1.465h3.656  v-50.49H298.07z" fill="url(#SVGID_52_)"/>
<rect fill="#737373" height="50.49" width="0.729" x="300.996" y="76.157"/>
<linearGradient gradientTransform="matrix(1 0 0 -1 872.707 -829.8535)" gradientUnits="userSpaceOnUse" id="SVGID_53_" x1="-572.0771" x2="-572.0771" y1="-905.7646" y2="-957.2278">
<stop offset="0" style="stop-color:#FFFFFF"/>
<stop offset="1" style="stop-color:#E6E6E6"/>
</linearGradient>
<rect fill="url(#SVGID_53_)" height="50.49" width="0.729" x="300.266" y="76.157"/>
<rect fill="none" height="71.707" width="71.623" x="284.188" y="66.645"/>
<linearGradient gradientTransform="matrix(1 0 0 -1 872.707 -829.8535)" gradientUnits="userSpaceOnUse" id="SVGID_54_" x1="-551.9897" x2="-551.9897" y1="-923.4507" y2="-946.9707">
<stop offset="0" style="stop-color:#FFFFFF"/>
<stop offset="1" style="stop-color:#CFCFCF"/>
</linearGradient>
<path d="M328.385,107.891c-0.969-0.504-3.568-2.188-3.66-2.287l0,0c-0.543-0.625-0.521-2-0.25-2.598l0,0  c0.02-0.042,0.039-0.08,0.063-0.113c0.064-0.105,0.127-0.21,0.189-0.315l0,0c0.475-0.77,0.867-1.542,1.189-2.268  c0.588,0.203,1.344-0.342,1.719-1.271c0.387-0.956,0.221-1.949-0.375-2.22c-0.033-0.018-0.07-0.02-0.105-0.025v-0.002  c0.074-0.305,0.107-0.479,0.107-0.479c1.023-4.612-1.209-8.276-6.626-8.452c-2.228,0-3.3,1.017-4.124,2.068  c-1.346,0.209-3.477,1.441-1.973,6.843c-0.061,0.014-0.111,0.021-0.168,0.043c-0.604,0.257-0.789,1.24-0.422,2.2  c0.367,0.962,1.148,1.538,1.752,1.284c0.037-0.018,0.066-0.043,0.104-0.063c0.33,0.743,0.734,1.537,1.229,2.34h-0.002  c0.016,0.023,0.031,0.055,0.051,0.08c0.012,0.02,0.02,0.029,0.025,0.05c0,0.002,0,0.002,0.002,0.004  c0.035,0.061,0.07,0.117,0.105,0.178c0.309,0.478,0.387,1.875-0.098,2.589c-0.111,0.166-2.959,1.82-4.057,2.406  c-1.256,0.666-3.307,2.201-3.307,5.654h21.927C331.688,110.09,329.352,108.396,328.385,107.891z M317.625,92.878  c0,0-0.018-0.004-0.02-0.004C317.611,92.875,317.617,92.878,317.625,92.878z M317.715,92.898c-0.006-0.002-0.014-0.004-0.018-0.006  C317.701,92.894,317.709,92.896,317.715,92.898z M317.484,92.896c-0.006,0.006-0.014,0.008-0.021,0.01  C317.471,92.9,317.479,92.898,317.484,92.896z M317.547,92.876c0,0-0.016,0-0.021,0.002  C317.531,92.876,317.539,92.876,317.547,92.876z M317.432,92.941c-0.002,0.006-0.012,0.008-0.016,0.016  C317.42,92.949,317.428,92.943,317.432,92.941z M314.555,96.777c0.012-0.014,0.021-0.021,0.035-0.031  c0.002,0.008,0.004,0.016,0.006,0.021C314.578,96.771,314.564,96.777,314.555,96.777z" fill="url(#SVGID_54_)"/>
<rect fill="#DEFEAC" fill-opacity="0.5" height="0.729" width="21.923" x="309.766" y="113.549"/>
<linearGradient gradientTransform="matrix(1 0 0 -1 872.707 -829.8535)" gradientUnits="userSpaceOnUse" id="SVGID_55_" x1="-430.3711" x2="-430.3711" y1="-912.6265" y2="-957.54">
<stop offset="0" style="stop-color:#4FB7EB"/>
<stop offset="1" style="stop-color:#1755B3"/>
</linearGradient>
<polygon fill="url(#SVGID_55_)" points="451.775,82.773 459.246,83.795 459.246,125.564 446.09,127.367 432.935,124.748   425.426,126.162 "/>
<linearGradient gradientTransform="matrix(1 0 0 -1 872.707 -829.8535)" gradientUnits="userSpaceOnUse" id="SVGID_56_" x1="-433.1948" x2="-433.1948" y1="-925.855" y2="-957.5087">
<stop offset="0" style="stop-color:#8EFFF5"/>
<stop offset="1" style="stop-color:#1D9DD8"/>
</linearGradient>
<polygon fill="url(#SVGID_56_)" points="446.09,94.921 446.09,127.367 432.935,124.748 432.935,113.984 "/>
<polygon fill-opacity="0.25" points="452.648,82.902 446.09,96.773 432.935,115.855 426.492,125.98 423.422,126.551 450.332,82.579   "/>
<linearGradient gradientTransform="matrix(1 0 0 -1 872.707 -829.8535)" gradientUnits="userSpaceOnUse" id="SVGID_57_" x1="-445.3931" x2="-445.3931" y1="-912.2295" y2="-957.2112">
<stop offset="0" style="stop-color:#FEEFA7"/>
<stop offset="1" style="stop-color:#FFC501"/>
</linearGradient>
<polygon fill="url(#SVGID_57_)" points="448,84.658 445.99,95.495 432.935,114.447 425.473,126.17 419.05,127.367 406.628,125.025   406.628,82.896 418.685,81.993 432.935,83.973 446.09,81.993 "/>
<linearGradient gradientTransform="matrix(1 0 0 -1 872.707 -829.8535)" gradientUnits="userSpaceOnUse" id="SVGID_58_" x1="-446.7148" x2="-446.7148" y1="-955.374" y2="-913.3823">
<stop offset="0" style="stop-color:#E69400"/>
<stop offset="1" style="stop-color:#F9DE4F"/>
</linearGradient>
<polygon fill="url(#SVGID_58_)" points="432.935,83.973 432.935,114.447 425.473,126.17 419.05,127.367 419.05,82.045 "/>
<linearGradient gradientTransform="matrix(1 0 0 -1 872.707 -829.8535)" gradientUnits="userSpaceOnUse" id="SVGID_59_" x1="-423.7646" x2="-423.7646" y1="-924.9121" y2="-912.5868">
<stop offset="0" style="stop-color:#E69400"/>
<stop offset="1" style="stop-color:#F9DE4F"/>
</linearGradient>
<polygon fill="url(#SVGID_59_)" points="446.09,81.993 446.09,95.344 451.795,82.773 "/>
<path d="M419.78,127.227l11.182-16.789l-4.71-2.346l-7.144,9.893l-6.978,8.066l-2.23-0.412  l9.153-10.789l5.374-7.65l-5.63-2.773l-12.18-2.499v-1.287l12.645,2.616l5.903,2.9l6.655-9.354l-12.977-6.485l-12.229-2.148v-1.99  l12.623,2.115l13.592,6.794l3.896-6.627l-3.804-1.338l-5.647-3.908l2.691,0.373l2.972,2.173l4.427,1.614l2.615-4.447l2.563-0.364  l-3.408,5.76l4.86,2.618l2.128-3.374l2.195-5.256l1.232,0.168l-3.453,7.467c0,0-8.451,13.117-13.153,20.162l-11.388,16.799  L419.78,127.227z M431.802,109.459l-4.769-2.428l6.551-9.228l4.387,2.13L431.802,109.459z M434.633,95.979l4.596,2.294l4.099-6.269  l-4.825-2.6L434.633,95.979L434.633,95.979z" fill="#FFFFFF" fill-opacity="0.25"/>
<linearGradient gradientTransform="matrix(1 0 0 -1 872.707 -829.8535)" gradientUnits="userSpaceOnUse" id="SVGID_60_" x1="-444.7378" x2="-444.7378" y1="-956.7871" y2="-923.8752">
<stop offset="0" style="stop-color:#FCE28D"/>
<stop offset="0.8121" style="stop-color:#FEF7DF"/>
<stop offset="1" style="stop-color:#FEF7DF"/>
</linearGradient>
<path d="M448.527,82.323l-2.408,5.777c0,0-1.302,2.063-2.021,3.193l-5.339-2.875l3.434-5.793l-1.74,0.235  l-2.975,4.868l-4.503-1.654l-3.323-2.565l-2.061-0.281l5.362,3.656l4.149,1.462l-4.163,7.088l-13.754-6.868l-12.564-2.126v1.443  l12.277,2.146l13.311,6.653l-0.156,0.271l-6.79,9.543l-6.192-3.025l-12.447-2.556l0.004,0.727l12.41,2.585l5.806,2.857l-5.767,8.098  l-8.864,10.518l1.646,0.311l7.218-8.367l7.087-9.898l5.269,2.6l-11.268,16.82l1.022-0.191l11.767-17.664l13.185-19.873l3.178-6.996  L448.527,82.323z M432.944,107.883l-1.23,1.898l-5.126-2.627l6.429-9.143l0.505-0.667l5,2.496L432.944,107.883z M439.316,98.623  l-5.063-2.527l4.145-7.047l5.313,2.858L439.316,98.623z" fill="url(#SVGID_60_)"/>
<polygon fill="#FFFFFF" points="440.967,120.436 446.1,109.609 450.711,120.436 446.1,117.641 "/>
<polygon fill-opacity="0.4" points="450.711,120.436 446.1,109.609 446.1,117.641 "/>
<path d="M424.105,80.51c-1.02,0-1.842,0.813-1.842,1.813c0,0.993,0.822,1.809,1.842,1.809  c1.016,0,1.84-0.815,1.84-1.809C425.947,81.32,425.121,80.51,424.105,80.51z" fill="none"/>
<rect fill="none" height="71.71" width="71.628" x="397.123" y="66.645"/>
<path d="M424.217,107.9l5.246-9.09l9.076-5.251l-9.076-5.246l-2.563-5.179l-4.963-0.69l-2.962,5.863  l-9.079,5.246l9.081,5.251L424.217,107.9z M426.553,88.585h2.637v2.635h-2.637V88.585z M426.553,95.901h2.637v2.636h-2.637V95.901z   M419.251,88.585h2.632v2.635h-2.632V88.585z M419.251,95.901h2.632v2.636h-2.632V95.901z" fill-opacity="0.25"/>
<linearGradient gradientTransform="matrix(1 0 0 -1 872.707 -829.8535)" gradientUnits="userSpaceOnUse" id="SVGID_61_" x1="-448.4883" x2="-448.4883" y1="-910.2275" y2="-935.7228">
<stop offset="0" style="stop-color:#DAFF8C"/>
<stop offset="0.1879" style="stop-color:#DAFF8C"/>
<stop offset="1" style="stop-color:#77C949"/>
</linearGradient>
<polygon fill="url(#SVGID_61_)" points="437.082,92.824 429.92,88.687 429.92,91.22 425.822,91.22 425.822,87.121 428.354,87.121   424.217,79.952 420.083,87.121 422.611,87.121 422.611,91.22 418.519,91.22 418.519,88.687 411.355,92.824 418.519,96.968   418.519,94.437 422.611,94.437 422.611,98.533 420.083,98.533 424.217,105.705 428.354,98.533 425.822,98.533 425.822,94.437   429.92,94.437 429.92,96.968 "/>
<linearGradient gradientTransform="matrix(1 0 0 -1 872.707 -829.8535)" gradientUnits="userSpaceOnUse" id="SVGID_62_" x1="-448.4883" x2="-448.4883" y1="-911.4136" y2="-934.3834">
<stop offset="0" style="stop-color:#AEE737"/>
<stop offset="0.7273" style="stop-color:#66A00E"/>
<stop offset="1" style="stop-color:#387300"/>
</linearGradient>
<polygon fill="url(#SVGID_62_)" points="421.348,99.264 423.342,99.264 423.342,93.702 417.791,93.702 417.791,95.7 412.818,92.824   417.791,89.954 417.791,91.95 423.342,91.95 423.342,86.391 421.348,86.391 424.217,81.414 427.088,86.391 425.094,86.391   425.094,91.95 430.647,91.95 430.647,89.954 435.619,92.824 430.647,95.7 430.647,93.702 425.094,93.702 425.094,99.264   427.088,99.264 424.217,104.24 "/>
<path d="M424.217,97.161c-1.979,0-3.597-1.613-3.597-3.605c0-1.984,1.61-3.604,3.597-3.604  s3.604,1.615,3.604,3.604C427.816,95.545,426.203,97.161,424.217,97.161L424.217,97.161z" fill-opacity="0.25"/>
<linearGradient gradientTransform="matrix(1 0 0 -1 872.707 -829.8535)" gradientUnits="userSpaceOnUse" id="SVGID_63_" x1="-448.4893" x2="-448.4893" y1="-919.8521" y2="-925.7917">
<stop offset="0" style="stop-color:#DAFF8C"/>
<stop offset="0.1879" style="stop-color:#DAFF8C"/>
<stop offset="1" style="stop-color:#77C949"/>
</linearGradient>
<circle cx="424.217" cy="92.911" fill="url(#SVGID_63_)" r="2.953"/>
<linearGradient gradientTransform="matrix(1 0 0 -1 872.707 -829.8535)" gradientUnits="userSpaceOnUse" id="SVGID_64_" x1="-448.4873" x2="-448.4873" y1="-920.4897" y2="-925.13">
<stop offset="0" style="stop-color:#AEE737"/>
<stop offset="0.7273" style="stop-color:#66A00E"/>
<stop offset="1" style="stop-color:#387300"/>
</linearGradient>
<path d="M424.217,95.215c-1.27,0-2.299-1.034-2.299-2.308c0-1.272,1.029-2.307,2.299-2.307  c1.271,0,2.305,1.032,2.305,2.307C426.518,94.181,425.488,95.215,424.217,95.215L424.217,95.215z" fill="url(#SVGID_64_)"/>
<rect fill="none" height="35.856" width="35.813" x="432.935" y="102.5"/>
<rect fill="none" height="35.854" width="35.811" x="432.935" y="102.5"/>
<path d="M451.018,115.621c0.584,0,1.055-0.145,1.408-0.434c0.354-0.291,0.529-0.688,0.529-1.197  c0-0.49-0.182-0.889-0.547-1.184c-0.363-0.295-0.826-0.445-1.391-0.445c-0.594,0-1.063,0.146-1.408,0.439  c-0.344,0.293-0.514,0.689-0.514,1.189c0,0.508,0.176,0.906,0.531,1.197C449.973,115.475,450.439,115.621,451.018,115.621z" fill-opacity="0.1"/>
<path d="M451.018,115.254c0.584,0,1.055-0.143,1.408-0.434c0.354-0.289,0.529-0.686,0.529-1.195  c0-0.492-0.182-0.887-0.547-1.184c-0.363-0.297-0.826-0.445-1.391-0.445c-0.594,0-1.063,0.146-1.408,0.438  c-0.344,0.295-0.514,0.691-0.514,1.191c0,0.508,0.176,0.906,0.531,1.195C449.973,115.111,450.439,115.254,451.018,115.254z" fill-opacity="0.2"/>
<linearGradient gradientTransform="matrix(0.0078 0 0 -0.0078 -976.8069 -704.5683)" gradientUnits="userSpaceOnUse" id="SVGID_65_" x1="338.4209" x2="338.4209" y1="-109524.8438" y2="-109576">
<stop offset="0" style="stop-color:#E5FFB2"/>
<stop offset="0.39" style="stop-color:#6AAB18"/>
<stop offset="0.68" style="stop-color:#247307"/>
<stop offset="1" style="stop-color:#C2FF4A"/>
</linearGradient>
<ellipse cx="450.84" cy="120.426" fill="url(#SVGID_65_)" rx="12.791" ry="12.805"/>
<radialGradient cx="450.8408" cy="120.4268" gradientTransform="matrix(0.0078 0 0 -0.0078 -976.8792 -713.227)" gradientUnits="userSpaceOnUse" id="SVGID_66_" r="12.4316">
<stop offset="0" style="stop-color:#AFED23"/>
<stop offset="0.81" style="stop-color:#358C0C"/>
<stop offset="1" style="stop-color:#67AD1A"/>
</radialGradient>
<path d="M450.84,132.865c-6.849,0-12.424-5.578-12.424-12.438s5.573-12.439,12.424-12.439  s12.426,5.578,12.426,12.438C463.264,127.285,457.69,132.865,450.84,132.865L450.84,132.865z" fill="url(#SVGID_66_)"/>
<polygon fill-opacity="0.1" points="448.006,119.137 449.227,119.137 449.227,129.715 452.781,129.715 452.781,117.113   448.006,117.113 "/>
<polygon fill-opacity="0.2" points="448.006,118.768 449.227,118.768 449.227,129.35 452.781,129.35 452.781,116.744   448.006,116.744 "/>
<linearGradient gradientTransform="matrix(0.0078 0 0 -0.0078 -976.8069 -704.5683)" gradientUnits="userSpaceOnUse" id="SVGID_67_" x1="340.6816" x2="340.6816" y1="-16408.0059" y2="-16412.7813">
<stop offset="0" style="stop-color:#F6FDFF"/>
<stop offset="1" style="stop-color:#ADB3B5"/>
</linearGradient>
<polygon fill="url(#SVGID_67_)" points="448.006,118.406 449.227,118.406 449.227,128.984 452.781,128.984 452.781,116.379   448.006,116.379 "/>
<linearGradient gradientTransform="matrix(0.0078 0 0 -0.0078 -976.8069 -704.5683)" gradientUnits="userSpaceOnUse" id="SVGID_68_" x1="331.4443" x2="331.4443" y1="-16409.0781" y2="-16412.9414">
<stop offset="0" style="stop-color:#F6FDFF"/>
<stop offset="1" style="stop-color:#ADB3B5"/>
</linearGradient>
<path d="M451.004,115.074c0.586,0,1.055-0.146,1.408-0.436c0.354-0.291,0.529-0.689,0.529-1.195  c0-0.494-0.18-0.889-0.545-1.186c-0.363-0.295-0.828-0.443-1.393-0.443c-0.592,0-1.061,0.145-1.406,0.438  c-0.348,0.291-0.52,0.689-0.52,1.191c0,0.506,0.176,0.904,0.529,1.195C449.961,114.928,450.426,115.074,451.004,115.074z" fill="url(#SVGID_68_)"/>
<defs>
<linearGradient gradientTransform="matrix(0 1 -1 0 -887.5 81.5005)" gradientUnits="userSpaceOnUse" id="SVGID_5_" x1="-71.001" x2="-71.001" y1="-939.4995" y2="-911.578">
<stop offset="0" style="stop-color:#47DAFA"/>
<stop offset="1" style="stop-color:#0070FA"/>
</linearGradient>
</defs>
<defs>
<linearGradient gradientTransform="matrix(0 1 -1 0 -887.5 81.5005)" gradientUnits="userSpaceOnUse" id="SVGID_7_" x1="-71.001" x2="-71.001" y1="-939.4995" y2="-911.578">
<stop offset="0" style="stop-color:#47DAFA"/>
<stop offset="1" style="stop-color:#0070FA"/>
</linearGradient>
</defs>
</svg>
