<?xml version="1.0" encoding="UTF-8"?>
<!DOCTYPE svg PUBLIC "-//W3C//DTD SVG 1.1 Tiny//EN" "http://www.w3.org/Graphics/SVG/1.1/DTD/svg11-tiny.dtd">
<svg baseProfile="tiny" height="30px" version="1.1" viewBox="0 0 30 30" width="30px" x="0px" xmlns="http://www.w3.org/2000/svg" xmlns:xlink="http://www.w3.org/1999/xlink" y="0px">
<g fill-opacity="0.5" stroke-opacity="0.5">
<rect fill="none" height="30" width="30"/>
</g>
<path d="M27,6H9H3C1.896,6,1,6.896,1,8v16c0,1.104,0.896,2,2,2h24c1.104,0,2-0.896,2-2V8C29,6.896,28.104,6,27,6z M15,24  c-4.418,0-8-3.582-8-8s3.582-8,8-8s8,3.582,8,8S19.418,24,15,24z M27,11h-4V8h4V11z"/>
<path d="M15,10c-3.309,0-6,2.691-6,6s2.691,6,6,6s6-2.691,6-6S18.309,10,15,10z M15,20c-2.205,0-4-1.795-4-4c0-2.206,1.795-4,4-4  s4,1.794,4,4C19,18.205,17.205,20,15,20z"/>
<path d="M9,4c0-0.552-0.447-1-1-1H4C3.447,3,3,3.448,3,4v1h6V4z"/>
</svg>
