<?xml version="1.0" encoding="UTF-8"?>
<!DOCTYPE svg PUBLIC "-//W3C//DTD SVG 1.1 Tiny//EN" "http://www.w3.org/Graphics/SVG/1.1/DTD/svg11-tiny.dtd">
<svg baseProfile="tiny" height="60" viewBox="0 0 60 60" width="60" xmlns="http://www.w3.org/2000/svg" xmlns:xlink="http://www.w3.org/1999/xlink">
<g>
<rect fill="none" height="60" width="60"/>
<linearGradient gradientUnits="userSpaceOnUse" id="SVGID_1_" x1="30" x2="30" y1="9.8965" y2="49.8018">
<stop offset="0" style="stop-color:#E4E0C1"/>
<stop offset="0.5091" style="stop-color:#B39C4D"/>
<stop offset="1" style="stop-color:#AC8A4A"/>
</linearGradient>
<polygon fill="url(#SVGID_1_)" points="58,50.4 2,50.4 2,9.6 30.463,10.4 58,9.6 "/>
<linearGradient gradientUnits="userSpaceOnUse" id="SVGID_2_" x1="30" x2="30" y1="9.7017" y2="50.6398">
<stop offset="0" style="stop-color:#AD8C4A"/>
<stop offset="0.3394" style="stop-color:#F4F3E6"/>
<stop offset="1" style="stop-color:#D1C794"/>
</linearGradient>
<path d="M57.385,10.22v39.56H2.613V10.22H57.385 M58,9.6L29.802,9.936L2,9.6v40.8h56V9.6L58,9.6z" fill="url(#SVGID_2_)"/>
<polygon fill="#B59659" fill-opacity="0.3" points="2,49.71 58,49.71 58,48.916 29.998,24.328 2,48.916 " stroke-opacity="0.3"/>
<polygon fill="#A97B48" fill-opacity="0.3" points="2,50.4 58,50.4 58,49.603 29.998,25.019 2,49.603 " stroke-opacity="0.3"/>
<linearGradient gradientTransform="matrix(-1 0 0 -1 -1801.0049 1240.3164)" gradientUnits="userSpaceOnUse" id="SVGID_3_" x1="-1831.0049" x2="-1831.0049" y1="1214.7607" y2="1190.0703">
<stop offset="0" style="stop-color:#AE804B"/>
<stop offset="0.7273" style="stop-color:#C2AC76"/>
<stop offset="1" style="stop-color:#D2C997"/>
</linearGradient>
<polygon fill="url(#SVGID_3_)" points="58,50.38 29.998,25.689 2,50.38 "/>
<linearGradient gradientUnits="userSpaceOnUse" id="SVGID_4_" x1="30" x2="30" y1="25.4995" y2="51.0736">
<stop offset="0" style="stop-color:#E9E5CB"/>
<stop offset="1" style="stop-color:#D1C794"/>
</linearGradient>
<polygon fill="url(#SVGID_4_)" points="58,50.38 29.998,25.689 2,50.38 29.998,26.563 "/>
<polygon fill="#A97B48" fill-opacity="0.3" points="30.057,10.4 2,9.6 29.998,38.617 58,9.6 " stroke-opacity="0.3"/>
<polygon fill="#88573A" fill-opacity="0.4" points="30.006,10.4 2,9.6 29.998,37.091 58,9.6 " stroke-opacity="0.4"/>
<polygon fill="#784833" fill-opacity="0.4" points="29.904,10.297 2,9.6 29.998,35.802 58,9.6 " stroke-opacity="0.4"/>
<linearGradient gradientUnits="userSpaceOnUse" id="SVGID_5_" x1="30" x2="30" y1="32.9619" y2="8.0088">
<stop offset="0" style="stop-color:#C2B470"/>
<stop offset="0.25" style="stop-color:#DED7B3"/>
<stop offset="1" style="stop-color:#FDFCFA"/>
</linearGradient>
<polygon fill="url(#SVGID_5_)" points="2,9.6 29.998,34.29 58,9.6 "/>
<rect fill="none" height="60" width="60"/>
</g>
<g transform="matrix(1 0 0 1 30 30)">
<rect fill="none" height="30" width="30"/>
<radialGradient cx="669.4" cy="-594.3" gradientTransform="matrix(0.5 0 0 -0.5 -313.5 -276)" gradientUnits="userSpaceOnUse" id="SVGID_1__" r="11.1">
<stop offset="0" stop-color="#DDC4B0"/>
<stop offset="0.2" stop-color="#DDC4B0"/>
<stop offset="0.96" stop-color="#A57665"/>
<stop offset="1" stop-color="#A57665"/>
</radialGradient>
<path d="M23.46,18.68c-0.521-0.226-0.506-1.339-0.291-1.675,0.038-0.059,0.072-0.117,0.107-0.176h-4.365c0.035,0.059,0.069,0.116,0.107,0.176,0.215,0.336,0.23,1.448-0.291,1.675-0.522,0.228,2.428,2.202,2.428,2.202s2.81-1.98,2.29-2.2z" fill="url(#SVGID_1__)"/>
<linearGradient gradientTransform="matrix(0.5 0 0 -0.5 -313.5 -276)" gradientUnits="userSpaceOnUse" id="SVGID_2__" x1="669.2" x2="669.2" y1="-588.9" y2="-598.1">
<stop offset="0" stop-color="#70B4B6"/>
<stop offset="0.39" stop-color="#5F8BA1"/>
<stop offset="0.89" stop-color="#455188"/>
<stop offset="1" stop-color="#455188"/>
</linearGradient>
<path d="M26.59,19.84c-0.549-0.286-3.27-1.238-3.322-1.299l-2.078,1.729-2.233-1.795c-0.063,0.092-2.752,1.035-3.374,1.365-0.713,0.377-1.877,1.246-1.877,3.207h14.76c0-1.97-1.33-2.93-1.88-3.21z" fill="url(#SVGID_2__)"/>
<polygon fill="#020202" fill-opacity="0.3" points="18.45,18.69,21.19,20.88,23.77,18.74,23.27,18.54,21.19,20.27,18.96,18.47" stroke-opacity="0.3" style="enable-background:new;"/>
<linearGradient gradientTransform="matrix(0.5 0 0 -0.5 -313.5 -276)" gradientUnits="userSpaceOnUse" id="SVGID_3__" x1="669.2" x2="669.2" y1="-594.1" y2="-589.1">
<stop offset="0" stop-color="#70B4B6"/>
<stop offset="1" stop-color="#5F8BA1"/>
</linearGradient>
<polygon fill="url(#SVGID_3__)" points="21.19,20.88,18.45,18.69,18.29,18.76,21.19,21.07,23.93,18.8,23.77,18.74"/>
<radialGradient cx="669.9" cy="-573.8" gradientTransform="matrix(0.5 0 0 -0.5 -313.5 -276)" gradientUnits="userSpaceOnUse" id="SVGID_4__" r="14.9">
<stop offset="0" stop-color="#F4EDE4"/>
<stop offset="0.51" stop-color="#E8D9CA"/>
<stop offset="0.76" stop-color="#DDC4B0"/>
<stop offset="1" stop-color="#BF9C89"/>
</radialGradient>
<path d="M24.71,13.56c-0.019-0.008-0.04-0.009-0.06-0.015v-0.001c-0.004-0.001-0.006-0.002-0.006-0.002-0.033-0.008-0.063-0.014-0.094-0.016-3.644-0.635-5.317-2.654-5.442-2.119-0.101,0.425-1.122,1.346-1.657,1.805,0.004,0.021,0.008,0.039,0.012,0.06,0,0,0.02,0.094,0.06,0.254-0.042,0.005-0.084,0.014-0.124,0.03-0.341,0.145-0.447,0.702-0.238,1.248,0.209,0.545,0.652,0.871,0.994,0.728,0.021-0.009,0.039-0.023,0.058-0.036,0.198,0.445,0.44,0.922,0.739,1.4,0.498,0.594,1.262,1.287,2.105,1.287,1.02,0,1.645-0.559,2.072-1.121,0.012-0.023,0.022-0.047,0.034-0.064,0.317-0.497,0.575-0.996,0.785-1.46,0.333,0.115,0.761-0.194,0.974-0.719,0.23-0.53,0.14-1.09-0.2-1.25z" fill="url(#SVGID_4__)"/>
<linearGradient gradientTransform="matrix(0.5 0 0 -0.5 -313.5 -276)" gradientUnits="userSpaceOnUse" id="SVGID_5__" x1="666.5" x2="672.8" y1="-589.1" y2="-582.8">
<stop offset="0" stop-color="#E8D9CA"/>
<stop offset="1" stop-color="#DDC4B0"/>
</linearGradient>
<path d="M20.91,17.9c-0.621,0-1.246-0.289-1.707-0.727,0.486,0.514,1.143,1.012,1.857,1.012,1.02,0,1.645-0.559,2.072-1.121,0.011-0.023,0.021-0.047,0.034-0.064,0.317-0.497,0.575-0.996,0.785-1.46-1.15,2.03-2.01,2.36-3.03,2.36z" fill="url(#SVGID_5__)"/>
<linearGradient gradientTransform="matrix(0.5 0 0 -0.5 -313.5 -276)" gradientUnits="userSpaceOnUse" id="SVGID_6_" x1="669.1" x2="669.1" y1="-569.1" y2="-578.4">
<stop offset="0" stop-color="#725B53"/>
<stop offset="0.38" stop-color="#451F1E"/>
<stop offset="1" stop-color="#261013"/>
</linearGradient>
<path d="M20.95,8.483c-1.265,0-1.872,0.574-2.341,1.175-0.764,0.117-1.974,0.817-1.119,3.882,0.535-0.459,1.514-1.703,1.614-2.128,0.128-0.54,1.828,1.521,5.542,2.137,0.045-0.172,0.063-0.272,0.063-0.272,0.6-2.62-0.67-4.694-3.75-4.797z" fill="url(#SVGID_6_)"/>
<linearGradient gradientTransform="matrix(0.5 0 0 -0.5 -313.5 -276)" gradientUnits="userSpaceOnUse" id="SVGID_7_" x1="672.2" x2="663.8" y1="-578" y2="-573">
<stop offset="0" stop-color="#725B53"/>
<stop offset="0.36" stop-color="#451F1E"/>
<stop offset="1" stop-color="#261013"/>
</linearGradient>
<path d="M19.11,11.16s1.818,2.389,5.512,2.384c0,0-1.73-0.27-5.51-2.38z" fill="url(#SVGID_7_)"/>
<linearGradient gradientTransform="matrix(0.5 0 0 -0.5 -313.5 -276)" gradientUnits="userSpaceOnUse" id="SVGID_8_" x1="663.1" x2="663.1" y1="-572" y2="-577.3">
<stop offset="0" stop-color="#725B53"/>
<stop offset="0.38" stop-color="#451F1E"/>
<stop offset="1" stop-color="#261013"/>
</linearGradient>
<path d="M18.68,9.836s-1.78,0.106-1.12,3.123c0,0-0.22-2.07,1.12-3.124z" fill="url(#SVGID_8_)"/>
<linearGradient gradientTransform="matrix(0.5 0 0 -0.5 -313.5 -276)" gradientUnits="userSpaceOnUse" id="SVGID_9_" x1="670.2" x2="670" y1="-569.9" y2="-572.3">
<stop offset="0" stop-color="#8D7B6A"/>
<stop offset="1" stop-color="#451F1E"/>
</linearGradient>
<path d="M21.82,10.25c-0.828-0.118-2.23-0.853-2.779-0.59,0,0,1.799-2.053,4.971,0.284,0,0.004-0.76,0.516-2.19,0.306z" fill="url(#SVGID_9_)"/>
<radialGradient cx="645" cy="-594.3" gradientTransform="matrix(0.5 0 0 -0.5 -313.5 -276)" gradientUnits="userSpaceOnUse" id="SVGID_10_" r="11.1">
<stop offset="0" stop-color="#DDC4B0"/>
<stop offset="0.2" stop-color="#DDC4B0"/>
<stop offset="0.96" stop-color="#A57665"/>
<stop offset="1" stop-color="#A57665"/>
</radialGradient>
<path d="M11.28,18.68c-0.521-0.226-0.505-1.339-0.29-1.675,0.037-0.059,0.072-0.117,0.108-0.176h-4.371c0.035,0.059,0.069,0.116,0.107,0.176,0.215,0.336,0.23,1.448-0.29,1.675-0.523,0.228,2.427,2.202,2.427,2.202s2.827-1.98,2.307-2.2z" fill="url(#SVGID_10_)"/>
<linearGradient gradientTransform="matrix(0.5 0 0 -0.5 -313.5 -276)" gradientUnits="userSpaceOnUse" id="SVGID_11_" x1="644.8" x2="644.8" y1="-588.9" y2="-598.1">
<stop offset="0" stop-color="#70B4B6"/>
<stop offset="0.39" stop-color="#5F8BA1"/>
<stop offset="0.89" stop-color="#455188"/>
<stop offset="1" stop-color="#455188"/>
</linearGradient>
<path d="M14.42,19.84c-0.549-0.286-3.271-1.238-3.322-1.299l-2.079,1.729-2.233-1.795c-0.063,0.092-2.752,1.035-3.375,1.365-0.712,0.377-1.876,1.246-1.876,3.207h14.76c-0.01-1.97-1.34-2.93-1.88-3.21z" fill="url(#SVGID_11_)"/>
<polygon fill="#020202" fill-opacity="0.3" points="6.272,18.69,9.015,20.88,11.59,18.74,11.09,18.54,9.015,20.27,6.781,18.47" stroke-opacity="0.3" style="enable-background:new;"/>
<linearGradient gradientTransform="matrix(0.5 0 0 -0.5 -313.5 -276)" gradientUnits="userSpaceOnUse" id="SVGID_12_" x1="644.9" x2="644.9" y1="-594.1" y2="-589.1">
<stop offset="0" stop-color="#70B4B6"/>
<stop offset="1" stop-color="#5F8BA1"/>
</linearGradient>
<polygon fill="url(#SVGID_12_)" points="9.015,20.88,6.271,18.69,6.113,18.76,9.015,21.07,11.75,18.8,11.59,18.74"/>
<radialGradient cx="645.6" cy="-573.8" gradientTransform="matrix(0.5 0 0 -0.5 -313.5 -276)" gradientUnits="userSpaceOnUse" id="SVGID_13_" r="14.9">
<stop offset="0" stop-color="#F4EDE4"/>
<stop offset="0.51" stop-color="#E8D9CA"/>
<stop offset="0.76" stop-color="#DDC4B0"/>
<stop offset="1" stop-color="#BF9C89"/>
</radialGradient>
<path d="M12.53,13.56c-0.019-0.008-0.04-0.009-0.059-0.015v-0.001c-0.004-0.001-0.007-0.002-0.012-0.002-0.028-0.008-0.057-0.014-0.087-0.016-3.645-0.635-5.317-2.654-5.443-2.119-0.102,0.425-1.123,1.346-1.658,1.805,0.004,0.021,0.008,0.039,0.012,0.06,0,0,0.02,0.094,0.06,0.254-0.043,0.005-0.085,0.014-0.124,0.03-0.341,0.145-0.447,0.702-0.239,1.248,0.209,0.545,0.653,0.871,0.995,0.728,0.021-0.009,0.039-0.023,0.058-0.036,0.198,0.445,0.44,0.922,0.738,1.4,0.499,0.594,1.263,1.287,2.106,1.287,1.02,0,1.645-0.559,2.073-1.121,0.011-0.023,0.022-0.047,0.034-0.064,0.318-0.497,0.576-0.996,0.785-1.46,0.334,0.115,0.761-0.194,0.973-0.719,0.23-0.53,0.14-1.09-0.2-1.25z" fill="url(#SVGID_13_)"/>
<linearGradient gradientTransform="matrix(0.5 0 0 -0.5 -313.5 -276)" gradientUnits="userSpaceOnUse" id="SVGID_14_" x1="642.2" x2="648.5" y1="-589.1" y2="-582.8">
<stop offset="0" stop-color="#E8D9CA"/>
<stop offset="1" stop-color="#DDC4B0"/>
</linearGradient>
<path d="M8.729,17.9c-0.621,0-1.247-0.289-1.708-0.727,0.487,0.514,1.144,1.012,1.858,1.012,1.02,0,1.645-0.559,2.073-1.121,0.011-0.023,0.022-0.047,0.034-0.064,0.318-0.497,0.576-0.996,0.785-1.46-1.15,2.03-2.011,2.36-3.031,2.36z" fill="url(#SVGID_14_)"/>
<linearGradient gradientTransform="matrix(0.5 0 0 -0.5 -313.5 -276)" gradientUnits="userSpaceOnUse" id="SVGID_15_" x1="644.7" x2="644.7" y1="-569.1" y2="-578.4">
<stop offset="0" stop-color="#725B53"/>
<stop offset="0.38" stop-color="#451F1E"/>
<stop offset="1" stop-color="#261013"/>
</linearGradient>
<path d="M8.776,8.483c-1.265,0-1.872,0.574-2.342,1.175-0.763,0.117-1.973,0.817-1.118,3.882,0.535-0.459,1.514-1.703,1.615-2.128,0.127-0.54,1.828,1.521,5.542,2.137,0.043-0.172,0.063-0.272,0.063-0.272,0.59-2.62-0.68-4.694-3.754-4.797z" fill="url(#SVGID_15_)"/>
<linearGradient gradientTransform="matrix(0.5 0 0 -0.5 -313.5 -276)" gradientUnits="userSpaceOnUse" id="SVGID_16_" x1="647.9" x2="639.5" y1="-578" y2="-573">
<stop offset="0" stop-color="#725B53"/>
<stop offset="0.36" stop-color="#451F1E"/>
<stop offset="1" stop-color="#261013"/>
</linearGradient>
<path d="M6.936,11.16s1.818,2.389,5.513,2.384c0,0-1.74-0.27-5.514-2.38z" fill="url(#SVGID_16_)"/>
<linearGradient gradientTransform="matrix(0.5 0 0 -0.5 -313.5 -276)" gradientUnits="userSpaceOnUse" id="SVGID_17_" x1="638.7" x2="638.8" y1="-572.3" y2="-577.7">
<stop offset="0" stop-color="#725B53"/>
<stop offset="0.38" stop-color="#451F1E"/>
<stop offset="1" stop-color="#261013"/>
</linearGradient>
<path d="M6.498,9.836s-1.779,0.106-1.119,3.123c0,0-0.218-2.07,1.119-3.124z" fill="url(#SVGID_17_)"/>
<linearGradient gradientTransform="matrix(0.5 0 0 -0.5 -313.5 -276)" gradientUnits="userSpaceOnUse" id="SVGID_18_" x1="645.9" x2="645.6" y1="-569.9" y2="-572.3">
<stop offset="0" stop-color="#8D7B6A"/>
<stop offset="1" stop-color="#451F1E"/>
</linearGradient>
<path d="M9.639,10.25c-0.828-0.118-2.23-0.853-2.78-0.59,0,0,1.8-2.053,4.973,0.284,0,0.004-0.76,0.516-2.191,0.306z" fill="url(#SVGID_18_)"/>
<path d="M23.32,20.43c-0.506-0.264-2.081-0.849-3.348-1.317l-0.711-0.265-0.128-0.053-0.166-0.063-0.317-0.128-0.196,0.086c-0.001,0.002-0.003,0.002-0.004,0.003h-0.001c-0.826,0.323-2.406,0.897-2.865,1.143-0.178,0.095-0.385,0.222-0.596,0.388-0.221-0.183-0.426-0.311-0.573-0.388-0.395-0.205-1.904-0.753-2.746-1.067l-0.078-0.031-0.002,0.001-0.349-0.142-0.317,0.139c-0.311,0.122-0.693,0.268-1.103,0.424l-0.038,0.014c-1.21,0.461-2.582,0.982-3.107,1.262-1.177,0.625-2.025,1.51-2.525,2.609h21.66c-0.77-1.62-2.12-2.41-2.48-2.6z" fill="#222021" fill-opacity="0.15" stroke-opacity="0.15" style="enable-background:new;"/>
<path d="M9.052,11.44c-0.561,0.477-0.712,1.432-0.349,2.38,0.342,0.894,1.048,1.494,1.758,1.494h0.002c0.106,0.221,0.217,0.439,0.331,0.654h-0.033l0.271,0.448s0.071,0.115,0.154,0.253c0.226-0.383,0.424-0.765,0.586-1.123,0.334,0.115,0.761-0.194,0.973-0.719,0.22-0.542,0.125-1.106-0.212-1.259-0.019-0.008-0.04-0.009-0.059-0.015v-0.001c-0.004-0.001-0.007-0.002-0.012-0.002-0.028-0.008-0.057-0.014-0.087-0.016-0.007-0.002-0.012-0.003-0.019-0.005-0.015-0.003-0.032-0.007-0.05-0.011,0.057,0.011,0.109,0.023,0.167,0.033,0.043-0.172,0.063-0.272,0.063-0.272,0.583-2.617-0.686-4.69-3.761-4.793-0.006,0-0.01,0.001-0.017,0.001-0.072,0.839,0.021,1.822,0.3,2.962z" fill="#222021" fill-opacity="0.15" stroke-opacity="0.15" style="enable-background:new;"/>
<path d="M18.61,9.658c-0.764,0.117-1.973,0.817-1.119,3.879-0.033,0.006-0.064,0.011-0.096,0.023-0.342,0.145-0.447,0.702-0.238,1.248,0.209,0.545,0.652,0.871,0.994,0.728,0.021-0.009,0.039-0.023,0.058-0.036,0.165,0.371,0.364,0.766,0.599,1.163,0.263-0.441,0.512-0.897,0.736-1.369,0.646-0.077,1.279-0.639,1.605-1.444,0.371-0.919,0.253-1.873-0.272-2.37,0.235-1.062,0.272-2.073,0.117-2.993-0.015-0.001-0.028-0.003-0.043-0.003-1.26-0.001-1.87,0.574-2.34,1.174zm-1.11,3.882c0.007-0.006,0.015-0.013,0.021-0.019,0,0.005,0.002,0.008,0.002,0.013,0,0-0.01,0.01-0.02,0.01zm1.76-2.21c-0.009-0.002-0.021-0.007-0.029-0.008,0.01,0,0.02,0.01,0.03,0.01z" fill="#222021" fill-opacity="0.15" stroke-opacity="0.15" style="enable-background:new;"/>
<path d="M23.19,20.69c-0.49-0.256-2.057-0.836-3.314-1.305l-0.719-0.266-0.123-0.051-0.172-0.065-0.484-0.194c-0.016-0.021-0.027-0.051-0.041-0.073-0.85,0.327-2.31,0.862-2.746,1.097-0.179,0.094-0.386,0.221-0.597,0.387-0.221-0.182-0.426-0.311-0.573-0.387-0.395-0.205-1.904-0.754-2.746-1.068l-0.042-0.018-0.596,0.261c-0.32,0.125-0.719,0.276-1.144,0.438-1.202,0.457-2.565,0.975-3.074,1.244-1.071,0.568-1.857,1.363-2.338,2.35h21.01c-0.76-1.46-1.98-2.18-2.3-2.35z" fill="#222021" fill-opacity="0.3" stroke-opacity="0.3" style="enable-background:new;"/>
<path d="M8.979,13.71c0.298,0.78,0.894,1.304,1.481,1.304,0.062,0,0.122-0.005,0.181-0.017,0.202,0.433,0.419,0.854,0.651,1.261h-0.009l0.068,0.113c0.155-0.283,0.3-0.563,0.419-0.829,0.334,0.115,0.761-0.194,0.973-0.719,0.22-0.542,0.125-1.106-0.212-1.259-0.019-0.008-0.04-0.009-0.059-0.015v-0.001c-0.004-0.001-0.007-0.002-0.012-0.002-0.028-0.008-0.057-0.014-0.087-0.016-0.007-0.002-0.012-0.003-0.019-0.005-0.015-0.003-0.032-0.007-0.05-0.011,0.057,0.011,0.109,0.023,0.167,0.033,0.043-0.172,0.063-0.272,0.063-0.272,0.564-2.535-0.613-4.556-3.483-4.772-0.08,0.847,0.026,1.864,0.336,3.057-0.57,0.33-0.751,1.24-0.404,2.15z" fill="#222021" fill-opacity="0.3" stroke-opacity="0.3" style="enable-background:new;"/>
<path d="M18.61,9.658c-0.764,0.117-1.973,0.817-1.119,3.879-0.033,0.006-0.064,0.011-0.096,0.023-0.342,0.145-0.447,0.702-0.238,1.248,0.209,0.545,0.652,0.871,0.994,0.728,0.021-0.009,0.039-0.023,0.058-0.036,0.124,0.278,0.269,0.569,0.429,0.864,0.256-0.439,0.497-0.891,0.715-1.357,0.014,0.001,0.025,0.001,0.039,0.001,0.58,0,1.177-0.511,1.483-1.27,0.358-0.884,0.21-1.785-0.325-2.144,0.025-0.106,0.036-0.166,0.036-0.166,0.233-1.043,0.267-2.035,0.11-2.931-1.08,0.083-1.64,0.612-2.08,1.169zm-1.11,3.882c0.007-0.006,0.015-0.013,0.021-0.019,0,0.005,0.002,0.008,0.002,0.013,0,0-0.01,0.01-0.02,0.01zm1.76-2.21c-0.009-0.002-0.021-0.007-0.029-0.008,0.01,0,0.02,0.01,0.03,0.01z" fill="#222021" fill-opacity="0.3" stroke-opacity="0.3" style="enable-background:new;"/>
<radialGradient cx="657.3" cy="-597.7" gradientTransform="matrix(0.5 0 0 -0.5 -313.5 -276)" gradientUnits="userSpaceOnUse" id="SVGID_19_" r="16.23">
<stop offset="0" stop-color="#DDC4B0"/>
<stop offset="0.2" stop-color="#DDC4B0"/>
<stop offset="0.96" stop-color="#A57665"/>
<stop offset="1" stop-color="#A57665"/>
</radialGradient>
<path d="M18.46,19.26c-0.764-0.332-0.738-1.957-0.424-2.448,0.055-0.086,0.104-0.172,0.156-0.258h-6.385c0.053,0.086,0.103,0.172,0.157,0.258,0.315,0.491,0.34,2.116-0.424,2.448-0.764,0.331,3.549,3.219,3.549,3.219s4.11-2.89,3.35-3.22z" fill="url(#SVGID_19_)"/>
<linearGradient gradientTransform="matrix(0.5 0 0 -0.5 -313.5 -276)" gradientUnits="userSpaceOnUse" id="SVGID_20_" x1="657" x2="657" y1="-589.9" y2="-603.3">
<stop offset="0" stop-color="#C39072"/>
<stop offset="1" stop-color="#88444B"/>
</linearGradient>
<path d="M23.05,20.96c-0.803-0.418-4.781-1.811-4.857-1.896l-3.04,2.524-3.266-2.623c-0.09,0.134-4.023,1.512-4.934,1.995-1.042,0.553-2.743,1.822-2.743,4.688h21.59c0-2.87-1.94-4.28-2.74-4.69z" fill="url(#SVGID_20_)"/>
<linearGradient gradientTransform="matrix(0.5 0 0 -0.5 -313.5 -276)" gradientUnits="userSpaceOnUse" id="SVGID_21_" x1="657.1" x2="657.1" y1="-589" y2="-596.9">
<stop offset="0" stop-color="#8C4C54"/>
<stop offset="1" stop-color="#53343E"/>
</linearGradient>
<polygon fill="url(#SVGID_21_)" points="11.14,19.28,15.15,22.48,18.92,19.35,18.19,19.06,15.15,21.58,11.89,18.96"/>
<path d="M11.33,19.79s-5.72,1.493-5.72,5.502h-0.823c0-2.46,1.922-4.38,6.543-5.5z" fill="#CCA089"/>
<path d="M18.6,19.7s5.72,1.494,5.72,5.502h0.824c0-2.47-1.92-4.38-6.54-5.5z" fill="#CCA089"/>
<linearGradient gradientTransform="matrix(0.5 0 0 -0.5 -313.5 -276)" gradientUnits="userSpaceOnUse" id="SVGID_22_" x1="657.1" x2="657.1" y1="-597.5" y2="-590.2">
<stop offset="0" stop-color="#DDC4B0"/>
<stop offset="0.96" stop-color="#A57665"/>
<stop offset="1" stop-color="#A57665"/>
</linearGradient>
<polygon fill="url(#SVGID_22_)" points="15.15,22.48,11.14,19.28,10.91,19.39,15.15,22.77,19.15,19.44,18.92,19.35"/>
<radialGradient cx="658.1" cy="-567.8" gradientTransform="matrix(0.5 0 0 -0.5 -313.5 -276)" gradientUnits="userSpaceOnUse" id="SVGID_23_" r="21.78">
<stop offset="0" stop-color="#F4EDE4"/>
<stop offset="0.51" stop-color="#E8D9CA"/>
<stop offset="0.76" stop-color="#DDC4B0"/>
<stop offset="1" stop-color="#BF9C89"/>
</radialGradient>
<path d="M20.29,11.79c-0.026-0.013-0.058-0.015-0.086-0.022v-0.002c-0.005-0.001-0.01-0.002-0.017-0.003-0.041-0.011-0.084-0.021-0.127-0.022-5.331-0.928-7.775-3.88-7.959-3.099-0.147,0.622-1.641,1.968-2.424,2.639,0.007,0.03,0.01,0.057,0.018,0.087,0,0,0.027,0.138,0.086,0.372-0.062,0.007-0.123,0.02-0.182,0.045-0.498,0.21-0.654,1.026-0.349,1.823,0.305,0.798,0.956,1.274,1.454,1.065,0.03-0.014,0.057-0.035,0.085-0.054,0.289,0.65,0.645,1.348,1.079,2.047,0.729,0.866,1.846,1.883,3.079,1.883,1.49,0,2.404-0.815,3.031-1.64,0.017-0.033,0.031-0.066,0.053-0.095,0.465-0.728,0.842-1.455,1.145-2.134,0.488,0.168,1.113-0.284,1.424-1.051,0.35-0.81,0.21-1.63-0.29-1.85z" fill="url(#SVGID_23_)"/>
<linearGradient gradientTransform="matrix(0.5 0 0 -0.5 -313.5 -276)" gradientUnits="userSpaceOnUse" id="SVGID_24_" x1="653.2" x2="662.4" y1="-590.1" y2="-580.9">
<stop offset="0" stop-color="#E8D9CA"/>
<stop offset="1" stop-color="#DDC4B0"/>
</linearGradient>
<path d="M14.73,18.13c-0.908,0-1.822-0.423-2.496-1.06,0.713,0.748,1.672,1.478,2.716,1.478,1.491,0,2.403-0.815,3.032-1.64,0.016-0.033,0.031-0.066,0.051-0.095,0.465-0.728,0.842-1.455,1.146-2.134-1.7,2.95-2.96,3.44-4.45,3.44z" fill="url(#SVGID_24_)"/>
<linearGradient gradientTransform="matrix(0.5 0 0 -0.5 -313.5 -276)" gradientUnits="userSpaceOnUse" id="SVGID_25_" x1="656.8" x2="656.8" y1="-560.9" y2="-574.5">
<stop offset="0" stop-color="#725B53"/>
<stop offset="0.38" stop-color="#451F1E"/>
<stop offset="1" stop-color="#261013"/>
</linearGradient>
<path d="M14.8,4.357c-1.847,0-2.736,0.84-3.423,1.718-1.12,0.172-2.884,1.195-1.636,5.675,0.783-0.67,2.214-2.489,2.361-3.111,0.186-0.788,2.672,2.226,8.103,3.124,0.063-0.251,0.093-0.398,0.093-0.398,0.86-3.821-0.99-6.853-5.49-7.003z" fill="url(#SVGID_25_)"/>
<linearGradient gradientTransform="matrix(0.5 0 0 -0.5 -313.5 -276)" gradientUnits="userSpaceOnUse" id="SVGID_26_" x1="661.5" x2="649.2" y1="-573.9" y2="-566.6">
<stop offset="0" stop-color="#725B53"/>
<stop offset="0.36" stop-color="#451F1E"/>
<stop offset="1" stop-color="#261013"/>
</linearGradient>
<path d="M12.11,8.272s2.658,3.492,8.059,3.485c0,0-2.54-0.4-8.06-3.488z" fill="url(#SVGID_26_)"/>
<linearGradient gradientTransform="matrix(0.5 0 0 -0.5 -313.5 -276)" gradientUnits="userSpaceOnUse" id="SVGID_27_" x1="648.1" x2="648.2" y1="-565.2" y2="-573">
<stop offset="0" stop-color="#725B53"/>
<stop offset="0.38" stop-color="#451F1E"/>
<stop offset="1" stop-color="#261013"/>
</linearGradient>
<path d="M11.47,6.335s-2.603,0.155-1.637,4.566c0.003,0-0.315-3.019,1.637-4.565z" fill="url(#SVGID_27_)"/>
<linearGradient gradientTransform="matrix(0.5 0 0 -0.5 -313.5 -276)" gradientUnits="userSpaceOnUse" id="SVGID_28_" x1="658.5" x2="658.2" y1="-562.1" y2="-565.6">
<stop offset="0" stop-color="#8D7B6A"/>
<stop offset="1" stop-color="#451F1E"/>
</linearGradient>
<path d="M16.06,6.946c-1.212-0.173-3.263-1.247-4.065-0.863,0,0,2.63-3,7.271,0.415,0,0-1.11,0.747-3.21,0.448z" fill="url(#SVGID_28_)"/>
<rect fill="none" height="30" width="30"/>
</g>
</svg>
