<?xml version="1.0" encoding="UTF-8"?>
<!DOCTYPE svg PUBLIC "-//W3C//DTD SVG 1.1 Tiny//EN" "http://www.w3.org/Graphics/SVG/1.1/DTD/svg11-tiny.dtd">
<svg baseProfile="tiny" height="30px" version="1.1" viewBox="-2 -2 30 30" width="30px" x="0px" xmlns="http://www.w3.org/2000/svg" xmlns:xlink="http://www.w3.org/1999/xlink" y="0px">
<path d="M13,0C5.832,0,0,5.832,0,13s5.832,13,13,13s13-5.832,13-13S20.168,0,13,0z M13,4c1.758,0,3.395,0.515,4.782,1.39  L5.39,17.782C4.514,16.395,4,14.758,4,13C4,8.037,8.037,4,13,4z M13,22c-1.758,0-3.395-0.515-4.782-1.39L20.611,8.218  C21.486,9.605,22,11.242,22,13C22,17.963,17.963,22,13,22z"/>
</svg>
