<?xml version="1.0" encoding="UTF-8"?>
<!DOCTYPE svg PUBLIC "-//W3C//DTD SVG 1.1 Tiny//EN" "http://www.w3.org/Graphics/SVG/1.1/DTD/svg11-tiny.dtd">
<svg baseProfile="tiny" height="30px" version="1.1" viewBox="0 0 30 30" width="30px" x="0px" xmlns="http://www.w3.org/2000/svg" xmlns:xlink="http://www.w3.org/1999/xlink" y="0px">
<g fill-opacity="0.5" stroke-opacity="0.5">
<rect fill="none" height="30" width="30"/>
</g>
<path d="M17.479,20.006c-0.683,0-1.26,0.239-1.735,0.726c-0.478,0.483-0.714,1.071-0.714,1.764c0,0.693,0.236,1.286,0.714,1.771  C16.22,24.757,16.797,25,17.479,25c0.674,0,1.249-0.243,1.729-0.733c0.483-0.485,0.721-1.078,0.721-1.771  c0-0.692-0.235-1.28-0.711-1.764C18.74,20.245,18.163,20.006,17.479,20.006z"/>
<path d="M23.146,2.437C21.915,1.479,20.128,1,17.791,1C16.385,1,14.788,1.248,13,1.741V3.34c0.692,0.158,1.332,0.37,1.915,0.641  c0.793-0.152,1.524-0.238,2.178-0.238c1.179,0,2.063,0.265,2.65,0.788c0.591,0.524,0.884,1.313,0.884,2.364  c0,0.504-0.12,1.02-0.363,1.545c-0.189,0.409-0.627,0.974-1.295,1.682C18.979,10.306,19,10.479,19,10.674  c0,1.055-0.233,2.135-0.694,3.209c-0.457,1.045-1.35,2.23-2.795,3.724v0.114h3.938v-1.433c0-0.643,0.168-1.205,0.498-1.696  c0.329-0.487,0.987-1.226,1.97-2.213c1.343-1.368,2.191-2.461,2.552-3.284C24.822,8.268,25,7.46,25,6.674  C25,4.804,24.382,3.393,23.146,2.437z"/>
<path d="M5,8.452V5.741C6.788,5.248,8.385,5,9.791,5c2.337,0,4.124,0.479,5.355,1.437C16.382,7.393,17,8.804,17,10.674  c0,0.786-0.178,1.594-0.532,2.421c-0.36,0.823-1.209,1.916-2.552,3.284c-0.982,0.987-1.641,1.726-1.97,2.213  c-0.33,0.491-0.498,1.054-0.498,1.696v1.433H7.511v-1.653c0-1.062,0.233-1.982,0.698-2.76c0.464-0.776,1.183-1.634,2.155-2.567  c1.024-1.01,1.657-1.778,1.899-2.301c0.243-0.525,0.363-1.041,0.363-1.545c0-1.052-0.293-1.84-0.884-2.364  c-0.588-0.523-1.472-0.788-2.65-0.788C7.944,7.742,6.582,7.979,5,8.452z M9.479,29c-0.683,0-1.26-0.243-1.735-0.733  c-0.478-0.485-0.714-1.078-0.714-1.771c0-0.692,0.236-1.28,0.714-1.764c0.476-0.486,1.053-0.726,1.735-0.726  c0.684,0,1.261,0.239,1.738,0.726c0.476,0.483,0.711,1.071,0.711,1.764c0,0.693-0.237,1.286-0.721,1.771  C10.729,28.757,10.153,29,9.479,29z"/>
</svg>
