<?xml version="1.0" encoding="UTF-8"?>
<!DOCTYPE svg PUBLIC "-//W3C//DTD SVG 1.1 Tiny//EN" "http://www.w3.org/Graphics/SVG/1.1/DTD/svg11-tiny.dtd">
<svg baseProfile="tiny" height="20px" version="1.1" viewBox="0 0 40 20" width="40px" x="0px" xmlns="http://www.w3.org/2000/svg" xmlns:xlink="http://www.w3.org/1999/xlink" y="0px">
<path d="M20,20c-5.513,0-10-4.484-10-10c0-5.513,4.487-10,10-10c5.516,0,10,4.487,10,10  C30,15.516,25.516,20,20,20L20,20z" fill="#E4E4E4"/>
<rect fill="none" height="20" width="40"/>
<circle cx="20" cy="9.999" fill="#969696" r="9.23"/>
<path d="M20,0.769c-5.098,0-9.231,4.133-9.231,9.231c0,5.098,4.134,9.229,9.231,9.229  c5.098,0,9.229-4.131,9.229-9.229C29.229,4.901,25.098,0.769,20,0.769z M20,18.463c-4.665,0-8.462-3.799-8.462-8.463  S15.335,1.538,20,1.538c4.664,0,8.463,3.797,8.463,8.462S24.664,18.463,20,18.463z" fill-opacity="0.2" stroke-opacity="0.2"/>
</svg>
