<?xml version="1.0" encoding="UTF-8"?>
<!DOCTYPE svg PUBLIC "-//W3C//DTD SVG 1.1 Tiny//EN" "http://www.w3.org/Graphics/SVG/1.1/DTD/svg11-tiny.dtd">
<svg baseProfile="tiny" height="30px" version="1.1" viewBox="0 0 30 30" width="30px" x="0px" xmlns="http://www.w3.org/2000/svg" xmlns:xlink="http://www.w3.org/1999/xlink" y="0px">
<g fill-opacity="0.5" stroke-opacity="0.5">
<rect fill="none" height="30" width="30"/>
</g>
<path d="M16,17.303c0-2.155,0.775-4.09,2-5.428V4H6v16h10.406C16.146,19.14,16,18.227,16,17.303z"/>
<path d="M12.769,26.846C12.532,26.944,12.272,27,12,27c-1.104,0-2-0.896-2-2s0.896-2,2-2c1.061,0,1.92,0.828,1.987,1.872  c0.883-1.044,2.104-1.882,3.774-2.157c-0.391-0.512-0.723-1.092-0.992-1.715H5V3h14v7.988c0.607-0.43,1.282-0.73,2-0.878V3  c0-1.104-0.896-2-2-2H5C3.896,1,3,1.896,3,3v24c0,1.104,0.896,2,2,2h7.114C12.232,28.339,12.441,27.592,12.769,26.846z M8,26H5v-2h3  V26z"/>
<path d="M14,30c0.016-0.232,0.448-4.95,4.398-5.354c0.908-0.02,1.999-0.459,1.999-1.633v-0.297c0-0.129-0.06-0.252-0.163-0.33  C18.898,21.393,18,19.352,18,17.303C18,14.377,19.794,12,22,12s4,2.377,4,5.303c0,2.049-0.898,4.09-2.238,5.084  c-0.101,0.078-0.162,0.201-0.162,0.33v0.297c0,1.292,1.31,1.633,1.999,1.633C29.553,25.05,29.982,29.768,30,30H14z"/>
</svg>
