<?xml version="1.0" encoding="UTF-8"?>
<!DOCTYPE svg PUBLIC "-//W3C//DTD SVG 1.1 Tiny//EN" "http://www.w3.org/Graphics/SVG/1.1/DTD/svg11-tiny.dtd">
<svg baseProfile="tiny" height="60" viewBox="0 0 60 60" width="60" xmlns="http://www.w3.org/2000/svg" xmlns:xlink="http://www.w3.org/1999/xlink">
<g>
<rect fill="none" height="60" width="60"/>
<linearGradient gradientUnits="userSpaceOnUse" id="SVGID_1_" x1="29.752" x2="37.7069" y1="18.6255" y2="19.3878">
<stop offset="0" style="stop-color:#333333"/>
<stop offset="1" style="stop-color:#A8A8A8"/>
</linearGradient>
<path d="M27.656,5.649l5.785,0.394l1.092,2.745L32.23,9.758l2.959,1.516l0.109,5.178l-3.068-0.485  l3.068,2.237c0,0-5.514,8.872-1.639,11.192l-4.416,2.117c0,0-5.463-3.121-1.531-9.217C31.645,16.203,27.656,5.649,27.656,5.649z" fill="url(#SVGID_1_)"/>
<polygon fill="#FFFFFF" fill-opacity="0.5" points="32.23,11.271 35.189,12.787 35.268,16.447 35.299,16.452 35.189,11.273 33.85,10.588   " stroke-opacity="0.5"/>
<path d="M33.441,7.556l0.578,1.448l0.514-0.217l-1.092-2.745l-5.785-0.394c0,0,0.219,0.582,0.504,1.547L33.441,7.556  z" fill="#FFFFFF"/>
<path d="M32.23,17.48l2.457,1.791c0.357-0.659,0.611-1.067,0.611-1.067l-0.42-0.306L32.23,17.48z" fill="#FFFFFF"/>
<path d="M32.33,27.233c-0.115,0.987-0.037,1.904,0.348,2.633l0.982-0.471C32.854,28.914,32.457,28.143,32.33,27.233z  " fill="#FFFFFF"/>
<path d="M33.441,6.936l0.787,1.979l0.305-0.128l-1.092-2.745l-5.785-0.394  c0,0,0.125,0.335,0.309,0.913L33.441,6.936z" fill="#FFFFFF" fill-opacity="0.5" stroke-opacity="0.5"/>
<polygon fill="#FFFFFF" fill-opacity="0.5" points="32.23,10.651 35.189,12.167 35.279,16.449 35.299,16.452 35.189,11.273   33.186,10.248 " stroke-opacity="0.5"/>
<path d="M32.299,26.955c-0.076,1.082,0.098,2.057,0.691,2.762l0.67-0.321C32.773,28.864,32.381,27.989,32.299,26.955  z" fill="#FFFFFF"/>
<path d="M32.23,16.86l2.701,1.97c0.223-0.394,0.367-0.625,0.367-0.625l-1.504-1.098L32.23,16.86z" fill="#FFFFFF"/>
<path d="M32.883,12.973c0.137-1.023,0.125-1.99-0.025-2.895L32.23,9.758l0.521-0.22  c-0.266-1.135-0.76-2.168-1.496-3.093c-0.164-0.205-0.342-0.4-0.52-0.587l-3.08-0.209c0,0,3.988,10.554,0.057,16.647  c-3.932,6.096,1.531,9.217,1.531,9.217l0.713-0.34c-2.512-3.189-1.322-6.021,0.35-9.96c0.674-1.581,1.402-3.31,1.939-5.234  l-0.016-0.011l0.02,0.002C32.516,15.021,32.74,14.026,32.883,12.973z" fill="#222021" fill-opacity="0.3" stroke-opacity="0.3"/>
<linearGradient gradientUnits="userSpaceOnUse" id="SVGID_2_" x1="21.6943" x2="27.5643" y1="21.5898" y2="2.1062">
<stop offset="0" style="stop-color:#2F2F2F"/>
<stop offset="0.6545" style="stop-color:#6E6E6E"/>
<stop offset="1" style="stop-color:#4F4F51"/>
</linearGradient>
<path d="M32.131,12.872c1.213-8.979-9.904-10.008-9.904-10.008L17.592,2c0,0-0.477,1.282,2.004,2.599  C15.244,7.53,6.963,13.376,6.555,15.737c-0.271,1.542,4.236,7.189,5.402,3.09c0.777-2.747,5.494-1.03,6.773-1.84  c1.045-0.661,2.186,0.291,2.186,0.291c-9.029,8.198-9.834,16.507-9.834,16.507v11.351h20.432V33.785  C23.324,27.117,30.877,22.202,32.131,12.872z" fill="url(#SVGID_2_)"/>
<path d="M17.922,10.739l3.496-2.382C21.418,8.357,21.248,13.408,17.922,10.739z" fill="#FCFCFC" fill-opacity="0.3" stroke-opacity="0.3"/>
<linearGradient gradientUnits="userSpaceOnUse" id="SVGID_3_" x1="19.6699" x2="19.6699" y1="7.1016" y2="11.1458">
<stop offset="0" style="stop-color:#1A1A1A"/>
<stop offset="1" style="stop-color:#4E4E4E"/>
</linearGradient>
<path d="M17.922,10.385l3.496-2.243C21.418,8.142,20.67,12.024,17.922,10.385z" fill="url(#SVGID_3_)"/>
<linearGradient gradientUnits="userSpaceOnUse" id="SVGID_4_" x1="9.5703" x2="33.0273" y1="46.6494" y2="46.6494">
<stop offset="0" style="stop-color:#363636"/>
<stop offset="0.6545" style="stop-color:#8A8B8B"/>
<stop offset="1" style="stop-color:#58595A"/>
</linearGradient>
<path d="M33.027,46.647c0,0.838-0.672,1.516-1.514,1.516H10.965c-0.842,0-1.395-0.678-1.395-1.516l0,0  c0-0.835,0.553-1.511,1.395-1.511h20.549C32.355,45.136,33.027,45.812,33.027,46.647L33.027,46.647z" fill="url(#SVGID_4_)"/>
<path d="M10.965,45.892h20.549c0.709,0,1.293,0.483,1.461,1.135c0.031-0.121,0.053-0.249,0.053-0.379  c0-0.835-0.672-1.511-1.514-1.511H10.965c-0.842,0-1.395,0.676-1.395,1.511c0,0.13,0.016,0.258,0.043,0.379  C9.756,46.375,10.256,45.892,10.965,45.892z" fill="#FFFFFF" fill-opacity="0.2" stroke-opacity="0.2"/>
<linearGradient gradientUnits="userSpaceOnUse" id="SVGID_5_" x1="17.2041" x2="34.1982" y1="20.5649" y2="5.97">
<stop offset="0" style="stop-color:#2F2F2F"/>
<stop offset="0.6545" style="stop-color:#6E6E6E"/>
<stop offset="1" style="stop-color:#4F4F51"/>
</linearGradient>
<path d="M29.066,5.392l-9.162,11.402c0.576,0.123,1.012,0.483,1.012,0.483  c-0.455,0.413-0.875,0.825-1.289,1.238l0.043,0.192l12.477-5.991C32.576,9.154,31.045,6.858,29.066,5.392z" fill="url(#SVGID_5_)"/>
<linearGradient gradientUnits="userSpaceOnUse" id="SVGID_6_" x1="14.5635" x2="32.4584" y1="20.1465" y2="24.9896">
<stop offset="0" style="stop-color:#2F2F2F"/>
<stop offset="0.6545" style="stop-color:#6E6E6E"/>
<stop offset="1" style="stop-color:#4F4F51"/>
</linearGradient>
<path d="M32.131,12.872c0.129-0.939,0.113-1.786-0.002-2.559c-4.604,1.772-10.771,6.632-11.324,7.071  c-8.918,8.165-9.723,16.401-9.723,16.401v0.008l20.432-0.008C23.324,27.117,30.877,22.202,32.131,12.872z" fill="url(#SVGID_6_)"/>
<linearGradient gradientUnits="userSpaceOnUse" id="SVGID_7_" x1="11.082" x2="31.5137" y1="39.4644" y2="39.4644">
<stop offset="0" style="stop-color:#363636"/>
<stop offset="0.6545" style="stop-color:#8A8B8B"/>
<stop offset="1" style="stop-color:#58595A"/>
</linearGradient>
<rect fill="url(#SVGID_7_)" height="11.343" width="20.432" x="11.082" y="33.792"/>
<linearGradient gradientTransform="matrix(1.0123 0 0 1 -4.0079 0)" gradientUnits="userSpaceOnUse" id="SVGID_8_" x1="13.707" x2="33.2224" y1="33.5234" y2="32.0012">
<stop offset="0" style="stop-color:#2F2F2F"/>
<stop offset="0.0545" style="stop-color:#2F2F2F"/>
<stop offset="0.7333" style="stop-color:#8F8F8F"/>
<stop offset="1" style="stop-color:#4F4F51"/>
</linearGradient>
<path d="M11.082,33.785h20.432c-2.48-2.008-3.729-3.008-9.955-3.008  C13.785,30.777,11.082,33.785,11.082,33.785z" fill="url(#SVGID_8_)"/>
<rect fill="#222021" fill-opacity="0.5" height="0.758" stroke-opacity="0.5" width="20.432" x="11.082" y="44.378"/>
<rect fill="#FFFFFF" fill-opacity="0.3" height="0.756" stroke-opacity="0.3" width="20.432" x="11.082" y="33.785"/>
<rect fill="#FFFFFF" fill-opacity="0.2" height="0.758" stroke-opacity="0.2" width="20.432" x="11.082" y="34.541"/>
<rect fill="#FFFFFF" fill-opacity="0.1" height="0.755" stroke-opacity="0.1" width="20.432" x="11.082" y="35.299"/>
<rect fill="#222021" fill-opacity="0.3" height="0.755" stroke-opacity="0.3" width="20.432" x="11.082" y="43.623"/>
<rect fill="#222021" fill-opacity="0.1" height="0.758" stroke-opacity="0.1" width="20.432" x="11.082" y="42.864"/>
<path d="M27.799,28.044c-0.25,2.393,0.572,4.693,3.715,7.255v-1.514C29.037,31.77,28.006,29.913,27.799,28.044z" fill="#FFFFFF"/>
<path d="M22.227,4.377c0,0,9.34,0.87,9.957,7.938c0.684-8.461-9.957-9.451-9.957-9.451L17.592,2  c0,0-0.266,0.718,0.639,1.633L22.227,4.377z" fill="#FFFFFF" fill-opacity="0.5" stroke-opacity="0.5"/>
<path d="M11.082,33.785v1.514c0,0,0.805-8.31,9.834-16.508c0,0-0.469-0.386-1.078-0.493  C11.826,26.152,11.082,33.785,11.082,33.785z" fill="#FFFFFF" fill-opacity="0.5" stroke-opacity="0.5"/>
<path d="M19.596,6.112c-0.479-0.254-0.846-0.504-1.127-0.748C13.955,8.452,6.932,13.567,6.555,15.737  c-0.043,0.241,0.033,0.586,0.195,0.978C8.086,14.098,15.545,8.84,19.596,6.112z" fill="#FFFFFF" fill-opacity="0.5" stroke-opacity="0.5"/>
<path d="M11.082,33.785v0.756c0,0,0.805-8.309,9.834-16.507c0,0-0.195-0.157-0.49-0.297  C11.863,25.782,11.082,33.785,11.082,33.785z" fill="#FFFFFF" fill-opacity="0.5" stroke-opacity="0.5"/>
<path d="M22.227,3.621c0,0,9.664,0.897,9.984,8.3c0.328-8.1-9.984-9.058-9.984-9.058L17.592,2  c0,0-0.111,0.305,0.061,0.768L22.227,3.621z" fill="#FFFFFF" fill-opacity="0.5" stroke-opacity="0.5"/>
<path d="M27.77,27.689c-0.119,2.25,0.777,4.435,3.744,6.851v-0.756C28.879,31.639,27.881,29.676,27.77,27.689z" fill="#FFFFFF"/>
<path d="M19.596,5.356c-0.225-0.119-0.416-0.237-0.594-0.355C14.533,8.034,6.945,13.48,6.555,15.737  c-0.027,0.152-0.008,0.343,0.051,0.56C7.404,13.822,15.361,8.208,19.596,5.356z" fill="#FFFFFF" fill-opacity="0.5" stroke-opacity="0.5"/>
<linearGradient gradientUnits="userSpaceOnUse" id="SVGID_9_" x1="47.9121" x2="55.8671" y1="28.4629" y2="29.2252">
<stop offset="0" style="stop-color:#8B8E8E"/>
<stop offset="1" style="stop-color:#C9C9C9"/>
</linearGradient>
<path d="M45.816,15.486l5.787,0.393l1.094,2.745l-2.303,0.97l2.957,1.516l0.107,5.178l-3.064-0.485  l3.064,2.238c0,0-5.514,8.872-1.639,11.192l-4.416,2.117c0,0-5.461-3.122-1.529-9.217C49.805,26.041,45.816,15.486,45.816,15.486z" fill="url(#SVGID_9_)"/>
<polygon fill="#FFFFFF" fill-opacity="0.5" points="50.395,21.109 53.352,22.625 53.428,26.284 53.459,26.289 53.352,21.111   52.014,20.425 " stroke-opacity="0.5"/>
<path d="M51.604,17.393l0.576,1.449l0.518-0.217l-1.094-2.745l-5.787-0.393  c0,0,0.221,0.584,0.506,1.547L51.604,17.393z" fill="#FFFFFF" fill-opacity="0.5" stroke-opacity="0.5"/>
<path d="M50.395,27.317l2.455,1.792c0.355-0.659,0.609-1.067,0.609-1.067l-0.42-0.307L50.395,27.317z" fill="#FFFFFF" fill-opacity="0.5" stroke-opacity="0.5"/>
<path d="M50.492,37.07c-0.115,0.988-0.037,1.905,0.346,2.634l0.982-0.47C51.014,38.75,50.619,37.98,50.492,37.07z" fill="#FFFFFF"/>
<path d="M51.604,16.773l0.789,1.979l0.305-0.127l-1.094-2.745l-5.787-0.393  c0,0,0.125,0.335,0.313,0.912L51.604,16.773z" fill="#FFFFFF" fill-opacity="0.5" stroke-opacity="0.5"/>
<polygon fill="#FFFFFF" fill-opacity="0.5" points="50.395,20.488 53.352,22.003 53.441,26.287 53.459,26.289 53.352,21.111   51.35,20.085 " stroke-opacity="0.5"/>
<path d="M50.461,36.793c-0.076,1.082,0.1,2.057,0.691,2.762l0.668-0.321C50.934,38.703,50.543,37.826,50.461,36.793z  " fill="#FFFFFF"/>
<path d="M50.395,26.697l2.697,1.97c0.227-0.394,0.367-0.625,0.367-0.625l-1.504-1.099L50.395,26.697z" fill="#FFFFFF" fill-opacity="0.5" stroke-opacity="0.5"/>
<path d="M51.795,22.912c0.119-0.9,0.127-1.758,0.043-2.579l-1.443-0.739l1.232-0.519  c-0.297-1.192-0.838-2.284-1.617-3.264c-0.012-0.015-0.025-0.029-0.039-0.043l-4.154-0.282c0,0,3.988,10.554,0.059,16.647  c-3.932,6.095,1.529,9.217,1.529,9.217l1.41-0.676c-2.369-2.885-1.332-5.364,0.352-9.328c0.65-1.533,1.355-3.199,1.898-5.053  l-0.67-0.49l0.77,0.121C51.428,24.971,51.652,23.974,51.795,22.912z" fill="#222021" fill-opacity="0.1" stroke-opacity="0.1"/>
<path d="M51.043,22.811c0.141-1.024,0.125-1.987-0.023-2.895l-0.625-0.321l0.521-0.22  c-0.27-1.134-0.764-2.168-1.5-3.092c-0.164-0.205-0.338-0.4-0.52-0.586l-3.08-0.21c0,0,3.988,10.554,0.059,16.647  c-3.932,6.095,1.529,9.217,1.529,9.217l0.713-0.341c-2.51-3.188-1.32-6.021,0.354-9.958c0.672-1.584,1.398-3.312,1.939-5.237  l-0.016-0.012l0.018,0.002C50.68,24.857,50.9,23.863,51.043,22.811z" fill="#222021" fill-opacity="0.2" stroke-opacity="0.2"/>
<path d="M28.693,31.644c0.158,0,0.375-0.017,0.619-0.072c-0.018-0.021-0.037-0.043-0.055-0.065  l1.316-0.63c0.396-0.384,0.758-0.951,1-1.798c0.039-0.138,0.135-0.432,1.217-0.519c-1.998-3.107,2.508-10.354,2.508-10.354  l-2.74-1.999c-7.863,5.659-9.123,7.896-9.336,9.108c-0.271,1.575,1.242,3.525,1.709,4.085  C25.795,30.422,27.146,31.644,28.693,31.644z" fill="#222021" fill-opacity="0.1" stroke-opacity="0.1"/>
<path d="M34.332,11.312c-0.064,0.176-0.518,1.574,0.83,3.061c-0.857,0.591-1.65,1.149-2.391,1.678  l2.527,0.4l-0.109-5.178l-0.707-0.362L34.332,11.312z" fill="#222021" fill-opacity="0.1" stroke-opacity="0.1"/>
<path d="M33.027,46.647c0-0.835-0.672-1.511-1.514-1.511V33.785c0,0-0.002-0.004-0.006-0.007  c-3.328,5.372-3.754,9.555-3.777,9.845v4.541h3.783C32.355,48.163,33.027,47.485,33.027,46.647z" fill="#222021" fill-opacity="0.1" stroke-opacity="0.1"/>
<path d="M35.229,13.167l-0.039-1.893l-0.027-0.015l-0.119,0.317  C35.002,11.689,34.799,12.333,35.229,13.167z" fill="#222021" fill-opacity="0.5" stroke-opacity="0.5"/>
<path d="M28.693,30.888c0.59,0,1.654-0.263,2.152-2.015c0.168-0.599,0.658-0.923,1.613-1.043  c-1.039-3.379,2.84-9.625,2.84-9.625l-2.096-1.528c-5.842,4.191-8.951,7.136-9.234,8.768c-0.174,0.997,0.725,2.489,1.543,3.467  C26.133,29.65,27.371,30.888,28.693,30.888z" fill="#222021" fill-opacity="0.3" stroke-opacity="0.3"/>
<path d="M33.027,46.647c0-0.835-0.672-1.511-1.514-1.511v-9.898c-2.627,4.633-3.004,8.114-3.027,8.385  v4.541h3.027C32.355,48.163,33.027,47.485,33.027,46.647z" fill="#222021" fill-opacity="0.3" stroke-opacity="0.3"/>
<path d="M35.299,16.452l-0.027-1.233c-0.492,0.34-0.971,0.676-1.432,1.001L35.299,16.452z" fill="#222021" fill-opacity="0.3" stroke-opacity="0.3"/>
<linearGradient gradientUnits="userSpaceOnUse" id="SVGID_10_" x1="39.8555" x2="45.7253" y1="31.4277" y2="11.9445">
<stop offset="0" style="stop-color:#8C8E8E"/>
<stop offset="0.6545" style="stop-color:#C2C2C2"/>
<stop offset="1" style="stop-color:#A3A8A7"/>
</linearGradient>
<path d="M50.295,22.709c1.209-8.98-9.908-10.006-9.908-10.006l-4.635-0.864c0,0-0.475,1.282,2.004,2.598  c-4.35,2.931-12.631,8.778-13.041,11.138c-0.27,1.543,4.24,7.189,5.402,3.091c0.779-2.748,5.498-1.031,6.777-1.84  c1.043-0.661,2.184,0.289,2.184,0.289c-9.029,8.199-9.834,16.508-9.834,16.508v11.351h20.432V43.623  C41.486,36.955,49.037,32.04,50.295,22.709z" fill="url(#SVGID_10_)"/>
<path d="M36.086,20.578l3.492-2.383C39.578,18.195,39.412,23.245,36.086,20.578z" fill="#FCFCFC" fill-opacity="0.5" stroke-opacity="0.5"/>
<linearGradient gradientUnits="userSpaceOnUse" id="SVGID_11_" x1="37.832" x2="37.832" y1="16.939" y2="20.9847">
<stop offset="0" style="stop-color:#292929"/>
<stop offset="1" style="stop-color:#868686"/>
</linearGradient>
<path d="M36.086,20.223l3.492-2.243C39.578,17.98,38.832,21.864,36.086,20.223z" fill="url(#SVGID_11_)"/>
<linearGradient gradientUnits="userSpaceOnUse" id="SVGID_12_" x1="27.7305" x2="51.1914" y1="56.4868" y2="56.4868">
<stop offset="0" style="stop-color:#8D8E8E"/>
<stop offset="0.6545" style="stop-color:#D9D9D9"/>
<stop offset="1" style="stop-color:#B0B2B1"/>
</linearGradient>
<path d="M51.191,56.484c0,0.84-0.674,1.516-1.516,1.516H29.129c-0.846,0-1.398-0.676-1.398-1.516l0,0  c0-0.835,0.553-1.511,1.398-1.511h20.547C50.518,54.973,51.191,55.649,51.191,56.484L51.191,56.484z" fill="url(#SVGID_12_)"/>
<path d="M29.129,55.729h20.547c0.711,0,1.293,0.482,1.461,1.134c0.029-0.121,0.055-0.246,0.055-0.379  c0-0.835-0.674-1.511-1.516-1.511H29.129c-0.846,0-1.398,0.676-1.398,1.511c0,0.133,0.02,0.258,0.043,0.379  C27.916,56.211,28.416,55.729,29.129,55.729z" fill="#FFFFFF" fill-opacity="0.3" stroke-opacity="0.3"/>
<linearGradient gradientUnits="userSpaceOnUse" id="SVGID_13_" x1="35.3633" x2="52.3587" y1="30.4033" y2="15.8073">
<stop offset="0" style="stop-color:#8C8E8E"/>
<stop offset="0.6545" style="stop-color:#C2C2C2"/>
<stop offset="1" style="stop-color:#A3A8A7"/>
</linearGradient>
<path d="M47.227,15.23l-9.158,11.404c0.576,0.121,1.01,0.48,1.01,0.48c-0.455,0.413-0.875,0.826-1.287,1.241  l0.039,0.191l12.477-5.992C50.736,18.991,49.209,16.696,47.227,15.23z" fill="url(#SVGID_13_)"/>
<linearGradient gradientUnits="userSpaceOnUse" id="SVGID_14_" x1="32.9014" x2="50.7963" y1="30.0332" y2="34.8763">
<stop offset="0" style="stop-color:#8C8E8E"/>
<stop offset="0.6545" style="stop-color:#C2C2C2"/>
<stop offset="1" style="stop-color:#A3A8A7"/>
</linearGradient>
<path d="M50.295,22.709c0.125-0.939,0.111-1.787-0.006-2.556c-4.604,1.769-10.771,6.629-11.32,7.068  c-8.92,8.164-9.725,16.401-9.725,16.401v0.007l20.432-0.007C41.486,36.955,49.037,32.04,50.295,22.709z" fill="url(#SVGID_14_)"/>
<linearGradient gradientUnits="userSpaceOnUse" id="SVGID_15_" x1="29.2441" x2="49.6758" y1="49.3013" y2="49.3013">
<stop offset="0" style="stop-color:#8D8E8E"/>
<stop offset="0.6545" style="stop-color:#D9D9D9"/>
<stop offset="1" style="stop-color:#B0B2B1"/>
</linearGradient>
<rect fill="url(#SVGID_15_)" height="11.344" width="20.432" x="29.244" y="43.629"/>
<rect fill="#222021" fill-opacity="0.3" height="0.758" stroke-opacity="0.3" width="20.432" x="29.244" y="54.215"/>
<rect fill="#FFFFFF" fill-opacity="0.5" height="0.755" stroke-opacity="0.5" width="20.432" x="29.244" y="43.623"/>
<rect fill="#FFFFFF" fill-opacity="0.3" height="0.758" stroke-opacity="0.3" width="20.432" x="29.244" y="44.378"/>
<rect fill="#FFFFFF" fill-opacity="0.1" height="0.756" stroke-opacity="0.1" width="20.432" x="29.244" y="45.136"/>
<rect fill="#222021" fill-opacity="0.2" height="0.755" stroke-opacity="0.2" width="20.432" x="29.244" y="53.459"/>
<rect fill="#222021" fill-opacity="0.1" height="0.758" stroke-opacity="0.1" width="20.432" x="29.244" y="52.702"/>
<path d="M45.961,37.882c-0.248,2.392,0.57,4.695,3.715,7.254v-1.513C47.199,41.606,46.166,39.75,45.961,37.882z" fill="#FFFFFF"/>
<path d="M40.387,14.214c0,0,9.34,0.869,9.961,7.937c0.682-8.461-9.961-9.449-9.961-9.449l-4.635-0.864  c0,0-0.266,0.719,0.643,1.634L40.387,14.214z" fill="#FFFFFF" fill-opacity="0.5" stroke-opacity="0.5"/>
<path d="M29.244,43.623v1.513c0,0,0.805-8.31,9.834-16.507c0,0-0.467-0.386-1.078-0.492  C29.988,35.989,29.244,43.623,29.244,43.623z" fill="#FFFFFF" fill-opacity="0.5" stroke-opacity="0.5"/>
<path d="M37.756,15.949c-0.479-0.253-0.842-0.504-1.127-0.748  c-4.512,3.087-11.537,8.203-11.914,10.373c-0.041,0.241,0.035,0.587,0.195,0.978C26.248,23.936,33.705,18.678,37.756,15.949z" fill="#FFFFFF" fill-opacity="0.5" stroke-opacity="0.5"/>
<path d="M29.244,43.623v0.755c0,0,0.805-8.31,9.834-16.508c0,0-0.195-0.157-0.488-0.296  C30.025,35.62,29.244,43.623,29.244,43.623z" fill="#FFFFFF" fill-opacity="0.5" stroke-opacity="0.5"/>
<path d="M40.387,13.458c0,0,9.664,0.898,9.988,8.3c0.328-8.099-9.988-9.055-9.988-9.055l-4.635-0.864  c0,0-0.111,0.304,0.061,0.768L40.387,13.458z" fill="#FFFFFF" fill-opacity="0.5" stroke-opacity="0.5"/>
<path d="M45.93,37.527c-0.115,2.25,0.777,4.435,3.746,6.851v-0.755C47.041,41.477,46.041,39.514,45.93,37.527z" fill="#FFFFFF"/>
<path d="M37.756,15.194c-0.225-0.118-0.414-0.236-0.594-0.355  c-4.467,3.032-12.057,8.479-12.447,10.735c-0.025,0.153-0.004,0.343,0.051,0.56C25.564,23.66,33.521,18.045,37.756,15.194z" fill="#FFFFFF" fill-opacity="0.5" stroke-opacity="0.5"/>
<linearGradient gradientTransform="matrix(1.0123 0 0 1 -4.0079 0)" gradientUnits="userSpaceOnUse" id="SVGID_16_" x1="33.5625" x2="53.7416" y1="42.9795" y2="41.7184">
<stop offset="0" style="stop-color:#8C8E8E"/>
<stop offset="0.6545" style="stop-color:#DEDEDE"/>
<stop offset="1" style="stop-color:#A3A8A7"/>
</linearGradient>
<path d="M29.244,43.601h20.432c-2.48-2.009-3.729-3.006-9.957-3.006  C31.945,40.595,29.244,43.601,29.244,43.601z" fill="url(#SVGID_16_)"/>
<rect fill="none" height="60" width="60"/>
</g>
</svg>
