<?xml version="1.0" encoding="UTF-8"?>
<!DOCTYPE svg PUBLIC "-//W3C//DTD SVG 1.1 Tiny//EN" "http://www.w3.org/Graphics/SVG/1.1/DTD/svg11-tiny.dtd">
<svg baseProfile="tiny" height="30px" version="1.1" viewBox="0 0 30 30" width="30px" x="0px" xmlns="http://www.w3.org/2000/svg" xmlns:xlink="http://www.w3.org/1999/xlink" y="0px">
<rect fill="none" height="30" width="30"/>
<polygon points="20.471,13.062 18.42,14.344 20.276,17.324 17.245,17.324 14.584,13.062 12.532,14.344 14.389,17.324 5.341,17.325   5.341,19.742 24.642,19.74 "/>
<polygon points="9.512,28.893 11.563,27.611 9.71,24.629 12.737,24.629 15.397,28.893 17.448,27.611 15.592,24.629 24.642,24.629   24.642,22.213 5.341,22.213 "/>
<path d="M22.182,7.645v1.318h1.179v1.291c-0.159,0.044-0.368,0.083-0.699,0.083c-1.218,0-1.943-0.822-1.943-2.201  c0-0.674,0.262-2.843,3.2-1.953l0.32,0.164l0.374-1.299c0,0-0.691-0.447-1.841-0.447c-2.076,0-3.559,1.437-3.474,3.574  c0.13,3.161,2.3,3.5,3.311,3.5c1.373,0,2.112-0.449,2.112-0.449V7.645H22.182z"/>
<path d="M13.393,1.271h4.371v1.917h-2.691V4.85c0,0,3.421-0.518,3.215,3.622c0,0,0.107,2.898-2.588,3.166  c-0.778,0.077-2.327-0.174-2.327-0.174l0.021-1.945c0,0,3.291,0.862,3.291-1.246c0-2.251-3.291-1.487-3.291-1.487V1.271z"/>
<rect height="1.487" width="1.486" x="10.765" y="10.092"/>
<path d="M9.353,5.917c0.506-0.523,0.79-1.248,0.79-2.108c0-0.729-0.288-2.7-2.343-2.7c-1.413,0-2.264,1.029-2.264,1.029l0.529,1.884  c0,0,0.786-0.897,1.554-0.897c0.38,0,0.83,0.153,0.83,0.88c0,0.865-0.837,1.052-1.158,1.052H6.394v1.945h0.897  c0.232,0,1.52,0.224,1.402,1.342c-0.231,2.167-2.28,0.964-2.51,0.777L5.79,8.808L5.278,10.71c0,0,0.761,0.924,2.245,0.924  c1.977,0,2.884-1.693,2.884-3.265C10.407,7.318,10.006,6.428,9.353,5.917z"/>
</svg>
