<?xml version="1.0" encoding="UTF-8"?>
<!DOCTYPE svg PUBLIC "-//W3C//DTD SVG 1.1 Tiny//EN" "http://www.w3.org/Graphics/SVG/1.1/DTD/svg11-tiny.dtd">
<svg baseProfile="tiny" height="30px" version="1.1" viewBox="0 0 30 30" width="30px" x="0px" xmlns="http://www.w3.org/2000/svg" xmlns:xlink="http://www.w3.org/1999/xlink" y="0px">
<path d="M28,8H8c-1.104,0-2,0.896-2,2v14c0,1.104,0.896,2,2,2h20c1.104,0,2-0.896,2-2V10C30,8.896,29.104,8,28,8z M8,22  c0.502-0.589,1.209-1.061,2.217-1.164c0.701-0.016,1.544-0.357,1.544-1.27v-0.23c0-0.101-0.046-0.196-0.126-0.258  c-1.032-0.773-1.727-2.36-1.727-3.953C9.908,12.849,11.294,11,13,11c1.705,0,3.092,1.849,3.092,4.125c0,1.593-0.695,3.18-1.73,3.953  c-0.077,0.062-0.125,0.157-0.125,0.258v0.23c0,1.005,1.012,1.27,1.545,1.27C16.791,20.939,17.498,21.411,18,22H8z M27,20h-8v-2h8V20  z M27,16h-8v-2h8V16z"/>
<polygon points="1.538,20 2,23 5,23 5,20 "/>
<polygon points="0.77,15 1.23,18 5,18 5,15 "/>
<polygon points="0,10 0.462,13 5,13 5,10 "/>
<g>
<rect fill="none" height="30" width="30"/>
</g>
</svg>
