<?xml version="1.0" encoding="UTF-8"?>
<!DOCTYPE svg PUBLIC "-//W3C//DTD SVG 1.1 Tiny//EN" "http://www.w3.org/Graphics/SVG/1.1/DTD/svg11-tiny.dtd">
<svg baseProfile="tiny" height="60" viewBox="0 0 60 60" width="60" xmlns="http://www.w3.org/2000/svg" xmlns:xlink="http://www.w3.org/1999/xlink">
<g>
<rect fill="none" height="60" width="60"/>
<linearGradient gradientUnits="userSpaceOnUse" id="SVGID_1" x1="30" x2="30" y1="50.17" y2="7.62">
<stop offset="0" stop-color="#2A3662"/>
<stop offset="1" stop-color="#546F9F"/>
</linearGradient>
<circle cx="30" cy="28.98" fill="url(#SVGID_1)" r="21.43"/>
<radialGradient cx="29.68" cy="21.59" gradientUnits="userSpaceOnUse" id="SVGID_2" r="25.79">
<stop offset="0" stop-color="#B4DFC6"/>
<stop offset="0.5" stop-color="#72B9C3"/>
<stop offset="1" stop-color="#546F9F"/>
</radialGradient>
<path d="M50.88,28.98c0,11.53-9.346,20.88-20.88,20.88s-20.88-9.345-20.88-20.88c0-11.53,9.349-20.88,20.88-20.88s20.88,9.36,20.88,20.88z" fill="url(#SVGID_2)"/>
<linearGradient gradientUnits="userSpaceOnUse" id="SVGID_3" x1="30" x2="30" y1="7.92" y2="49.97">
<stop offset="0" stop-color="#6DACBC"/>
<stop offset="0.5" stop-color="#5778A3"/>
<stop offset="1" stop-color="#A6CDC2"/>
</linearGradient>
<path d="M30,8.107c-11.53,0-20.88,9.349-20.88,20.88s9.349,20.88,20.88,20.88,20.88-9.345,20.88-20.88c0-11.53-9.35-20.88-20.88-20.88zm0,39.92c-10.84,0-19.66-8.817-19.66-19.66s8.82-19.66,19.66-19.66,19.66,8.819,19.66,19.66c0,10.85-8.82,19.66-19.66,19.66z" fill="url(#SVGID_3)" fill-opacity="0.3" stroke-opacity="0.3"/>
<linearGradient gradientUnits="userSpaceOnUse" id="SVGID_4" x1="9.46" x2="12.78" y1="31.83" y2="31.83">
<stop offset="0" stop-color="#59595A"/>
<stop offset="1" stop-color="#000000"/>
</linearGradient>
<path d="M11.08,28.64c-0.222-0.295-0.725-0.295-0.946-0.295-0.437,0-0.669,0.311-0.673,0.616v0.021,0.031c0,0.537,0.03,1.14,0.094,1.871,0.013,0.139,0.03,0.276,0.047,0.414l0.024,0.201c0.055,0.434,0.121,0.861,0.195,1.274l0.035,0.183c0.032,0.162,0.063,0.323,0.097,0.483,0.089,0.405,0.198,0.827,0.332,1.29,0.019,0.066,0.037,0.135,0.054,0.199,0.029,0.109,0.058,0.217,0.091,0.322l0.005,0.014,0.012,0.033c-0.003-0.01-0.008-0.023-0.01-0.037l1.197-0.081c0.019-0.187,0.025-0.382,0.019-0.575-0.01-0.303-0.021-0.676-0.108-0.991l1.112-1.493,0.121-0.162v-1.595l-0.16-0.18-1.52-1.53z" fill="url(#SVGID_4)" fill-opacity="0.3" stroke-opacity="0.3"/>
<linearGradient gradientUnits="userSpaceOnUse" id="SVGID_5" x1="15.86" x2="50.59" y1="25.75" y2="25.75">
<stop offset="0" stop-color="#59595A"/>
<stop offset="1" stop-color="#000000"/>
</linearGradient>
<path d="M50.58,24.89c-0.015-0.079-0.029-0.135-0.043-0.191-0.012-0.042-0.021-0.084-0.029-0.125-0.105-0.495-0.236-1.006-0.391-1.525l-0.02-0.07c-0.033-0.117-0.067-0.234-0.105-0.349-0.188-0.587-0.393-1.148-0.607-1.666-0.028-0.065-0.057-0.125-0.085-0.188l-0.045-0.101c-0.206-0.473-0.435-0.947-0.677-1.402l-0.03-0.059c-0.046-0.089-0.092-0.181-0.141-0.269-0.295-0.532-0.603-1.04-0.918-1.511-0.032-0.049-0.069-0.102-0.106-0.154-0.023-0.031-0.045-0.062-0.066-0.092-0.301-0.437-0.617-0.862-0.946-1.268l-0.063-0.081c-0.045-0.055-0.089-0.112-0.135-0.167-0.381-0.456-0.783-0.898-1.199-1.316-0.055-0.057-0.114-0.115-0.176-0.172l-0.049-0.046c-0.375-0.369-0.774-0.731-1.183-1.074l-0.081-0.069c-0.041-0.037-0.082-0.073-0.125-0.106-0.446-0.367-0.93-0.728-1.435-1.075-0.063-0.042-0.126-0.083-0.19-0.124l-0.076-0.05c-0.455-0.301-0.93-0.589-1.404-0.853l-0.074-0.042c-0.039-0.022-0.078-0.045-0.118-0.068-0.528-0.283-1.081-0.55-1.643-0.792l-0.12-0.056-0.153-0.063c-0.148-0.062-0.297-0.114-0.444-0.166-0.076-0.026-0.152-0.053-0.228-0.08l-0.282-0.105-0.254,0.162c-0.171,0.108-0.841,0.491-1.236,0.715-0.438-0.059-1.499-0.192-2.569-0.295,0.33-0.032,0.786-0.069,1.429-0.111l0.091-1.204-0.048-0.012c-0.038-0.011-0.077-0.02-0.116-0.029l-0.091-0.018-0.075-0.014c-0.654-0.132-1.271-0.227-1.882-0.291l-0.004-0.001h-0.09c-0.698-0.07-1.409-0.106-2.113-0.106-0.62,0-1.262,0.032-1.963,0.101-0.109,0.01-0.214,0.021-0.321,0.032-0.693,0.078-1.299,0.169-1.873,0.286l-0.02,0.003-0.014,0.002c-0.603,0.125-1.211,0.281-1.856,0.477-0.058,0.018-0.115,0.037-0.173,0.055l-0.13,0.043c-0.547,0.175-1.083,0.37-1.596,0.582-0.042,0.018-0.071,0.029-0.099,0.039l-0.078,0.031c-0.564,0.241-1.128,0.512-1.688,0.812-0.061,0.031-0.119,0.066-0.177,0.1l-0.072,0.042c-0.157,0.087-0.316,0.186-0.472,0.283l-0.204,0.127-1.118,0.684,1.242,0.416c0.186,0.062,0.385,0.093,0.592,0.093,0.669,0,1.317-0.329,1.837-0.593,0.209-0.105,0.521-0.264,0.648-0.288,0.152,0.045,0.306,0.068,0.458,0.068,0.569,0,1.035-0.306,1.447-0.578l0.111-0.071c0.133-0.043,0.362-0.128,0.818-0.299,0.465-0.174,1.314-0.493,1.541-0.547,0.44-0.005,0.966-0.068,1.339-0.3,0.352,0.058,0.976,0.157,1.619,0.241-0.046,0.029-0.092,0.059-0.132,0.097-0.209,0.192-1.335,0.533-1.679,0.577-0.648,0.082-0.908,0.408-1.012,0.666-0.135,0.336-0.053,0.672,0.078,0.946-0.245,0.162-0.545,0.342-0.804,0.478,0.001-0.006,0.002-0.012,0.003-0.019,0.093-0.517,0.161-0.89-0.09-1.189-0.128-0.153-0.318-0.241-0.519-0.241-0.295,0-0.525,0.183-0.711,0.362-0.519,0.502-0.833,1.129-0.953,1.365l-0.022,0.044-0.018,0.035c-0.225,0.431-0.318,0.737-0.192,1.688-0.056,0.04-0.219,0.102-0.446,0.102-0.03,0-0.058-0.003-0.079-0.004-0.146-0.158-0.348-0.247-0.575-0.247-0.523,0-1.237,0.589-2.124,1.754l-0.284,0.374,0.29,0.37,0.269,0.344c-4.215,3.258-4.247,3.443-4.292,3.716-0.007,0.024-0.044,0.138-0.094,0.293-0.628,1.952-0.977,3.412-0.637,4.195,0.785,1.813,1.669,3.504,2.816,3.598,0.101,0.009,0.212,0.012,0.332,0.012,1.05,0,2.753-0.318,3.571-0.485,0.152,0.283,0.335,0.615,0.437,0.795l0.182,0.322,0.37-0.012c0.004,0,0.2-0.006,0.447-0.006,0.287,0,0.479,0.008,0.602,0.016,0.446,1.307,1.3,4.318,1.141,4.943l-0.002,0.002c-1.441,2.16,0.305,4.975,1.144,6.328,0.066,0.107,0.126,0.203,0.177,0.287,0.324,0.922,0.716,1.531,1.545,1.531,0.062,0,0.124-0.004,0.188-0.007,0.046-0.003,0.095-0.005,0.146-0.005,0.092,0,0.158,0.011,0.226,0.035l0.076,0.027,0.08,0.008c0.155,0.012,0.306,0.034,0.453,0.055,0.255,0.035,0.519,0.071,0.789,0.071,0.721,0,1.293-0.272,1.787-0.856,0.018-0.002,0.036-0.003,0.054-0.006,0.519-0.071,0.712-0.331,0.778-0.564,0.039-0.038,0.09-0.086,0.131-0.124,0.205-0.188,0.447-0.411,0.615-0.675,0.076-0.044,0.162-0.096,0.258-0.152,0.167-0.104,0.355-0.217,0.504-0.293,0.131-0.04,0.246-0.116,0.334-0.225,0.209-0.257,0.166-0.548,0.131-0.783-0.035-0.242-0.07-0.49,0.061-0.758,0.737-0.354,2.051-1.23,2.262-1.373l-0.001,0.017c-0.013,0.116-0.048,0.431-0.101,0.628-0.278,0.28-0.512,0.703-0.586,0.846l-0.048,0.094-0.015,0.104c-0.018,0.138-0.094,0.851,0.307,1.311,0.201,0.23,0.49,0.359,0.813,0.359,0.102,0,0.209-0.014,0.318-0.039,1.027-0.232,2.85-2.702,2.998-4.065,0.072-0.656-0.186-1.173-0.704-1.417l-0.387-0.183-0.304,0.302-1.125,1.126c-0.381,0.034-0.678,0.147-0.879,0.325,0.012-0.479-0.036-0.973-0.087-1.451-0.155-1.445-0.185-2.369,0.703-2.996l0.045-0.032,0.038-0.04c0.32-0.326,0.676-0.61,1.052-0.912,0.88-0.707,1.79-1.438,2.332-2.759l0.022-0.056c0.174-0.451,0.437-1.131,0.082-1.651-0.09-0.128-0.275-0.326-0.625-0.396,0.461-0.186,0.816-0.333,0.852-0.345l0.106-0.044,0.083-0.08,1.899-1.822,0.278-0.269-0.122-0.366c-0.017-0.047-0.12-0.335-0.411-0.748,0.554,0.075,1.029,0.208,1.185,0.326,0.057,0.125,0.171,0.397,0.292,0.683,2.088,4.924,2.383,5.177,2.926,5.186,0.021,0,0.037,0.002,0.051,0.003,0.043,0.003,0.083,0.005,0.119,0.005,0.309,0,0.486-0.158,0.564-0.252,0.227-0.273,0.163-0.608,0.139-0.734l-0.008-0.043c-0.025-0.294-0.009-1.618,0.034-2.706,0.003,0.002,0.004,0.006,0.007,0.01l1.119-0.445-0.04-0.09zm-16.46-6.02c-0.086,0.003-0.181,0.008-0.281,0.012-0.322,0.014-0.689,0.031-1.054,0.031-0.956,0-1.173-0.118-1.195-0.132-0.114-0.082-0.23-0.143-0.351-0.188,0.217-0.048,0.465-0.214,0.72-0.708,0.25,0.487,0.592,0.917,1.114,0.917,0.141,0,0.277-0.034,0.406-0.101,0.17,0.01,0.46,0.11,0.63,0.17zm-0.37-2.66c-0.072,0-0.131-0.003-0.176-0.007,0.049-0.128,0.108-0.202,0.154-0.244,0.061,0.093,0.141,0.175,0.232,0.245-0.07,0-0.14,0.01-0.2,0.01zm-3.8,1.27c0.327,0.641,0.569,0.917,0.762,1.037-0.475,0.039-0.833,0.34-1.126,0.625-0.206-0.068-0.565-0.286-0.672-0.438-0.063-0.089-0.138-0.166-0.22-0.232,0.52-0.14,0.97-0.62,1.26-0.99zm-1.81-0.47l-0.678-0.034-2.279-0.111c0.278-0.228,0.542-0.444,0.697-0.57,0.042-0.014,0.205-0.06,0.606-0.06,0.242,0,0.473,0.017,0.62,0.029l1.03,0.74z" fill="url(#SVGID_5)" fill-opacity="0.3" stroke-opacity="0.3"/>
<radialGradient cx="30.34" cy="14.28" gradientUnits="userSpaceOnUse" id="SVGID_6" r="23.56">
<stop offset="0" stop-color="#71A949"/>
<stop offset="0.32" stop-color="#71A949"/>
<stop offset="0.73" stop-color="#3E7E53"/>
<stop offset="1" stop-color="#254F55"/>
</radialGradient>
<path d="M10.07,28.97v0.018c0,0.622,0.039,1.237,0.093,1.843,0.017,0.199,0.046,0.398,0.069,0.599,0.053,0.417,0.116,0.829,0.19,1.237,0.042,0.217,0.082,0.434,0.127,0.646,0.093,0.422,0.203,0.838,0.321,1.248,0.05,0.17,0.089,0.343,0.14,0.508,0.007,0.018,0.014,0.034,0.018,0.053,0.017-0.162,0.021-0.327,0.017-0.497-0.04-1.199-0.233-1.045-0.233-1.045l1.357-1.823v-1.162l-1.589-1.59c-0.01,0-0.52-0.08-0.52-0.04z" fill="url(#SVGID_6)"/>
<path d="M22.83,10.95c0.587,0.192,1.066-0.2,1.613-0.548,0.193-0.04,2.338-0.896,2.57-0.896,0.231,0,1.01-0.03,1.204-0.34,0,0,3.357,0.583,3.862,0.389,0.277-0.108,1.434-0.2,2.426-0.265-0.057-0.012-0.107-0.029-0.162-0.041-0.055-0.011-0.106-0.019-0.162-0.03-0.623-0.125-1.252-0.226-1.894-0.29-0.005,0-0.01,0-0.015-0.002-0.674-0.068-1.359-0.104-2.053-0.104-0.643,0-1.277,0.039-1.906,0.098-0.11,0.011-0.22,0.023-0.331,0.035-0.608,0.066-1.21,0.155-1.8,0.273-0.01,0.004-0.021,0.005-0.031,0.006-0.613,0.126-1.213,0.283-1.802,0.464-0.102,0.03-0.199,0.064-0.301,0.096-0.523,0.168-1.038,0.356-1.544,0.564-0.06,0.026-0.12,0.047-0.18,0.071-0.556,0.238-1.099,0.501-1.629,0.784-0.08,0.043-0.157,0.089-0.235,0.134-0.227,0.125-0.44,0.267-0.66,0.401,1.07,0.38,2.43-0.99,3.01-0.79z" fill="url(#SVGID_6)"/>
<path d="M49.98,25c-0.021-0.102-0.049-0.197-0.07-0.296-0.105-0.499-0.233-0.99-0.377-1.473-0.039-0.13-0.076-0.265-0.117-0.395-0.176-0.548-0.372-1.09-0.592-1.617-0.039-0.093-0.084-0.184-0.123-0.275-0.203-0.464-0.422-0.918-0.658-1.363-0.055-0.106-0.109-0.215-0.166-0.319-0.279-0.502-0.574-0.993-0.892-1.468-0.054-0.083-0.115-0.162-0.171-0.242-0.291-0.422-0.596-0.831-0.916-1.228-0.063-0.079-0.126-0.161-0.193-0.241-0.368-0.443-0.756-0.868-1.16-1.277-0.07-0.071-0.143-0.141-0.215-0.208-0.371-0.364-0.756-0.714-1.153-1.047-0.067-0.056-0.132-0.116-0.198-0.171-0.448-0.366-0.915-0.714-1.395-1.042-0.084-0.058-0.17-0.113-0.256-0.167-0.442-0.294-0.898-0.572-1.365-0.83-0.064-0.035-0.124-0.073-0.188-0.108-0.52-0.278-1.049-0.533-1.594-0.768-0.097-0.041-0.195-0.079-0.29-0.12-0.212-0.087-0.432-0.156-0.646-0.235-0.255,0.163-1.438,0.832-1.438,0.832s-5.141-0.702-5.492-0.353c-0.351,0.353-1.721,0.71-2.033,0.751-0.31,0.039-0.956,0.206-0.181,1.161-0.116,0.118-2.325,1.657-2.325,0.957,0-0.701,0.494-1.953-0.2-1.282-0.498,0.482-0.796,1.135-0.86,1.257-0.163,0.313-0.263,0.462-0.145,1.357s-1.43,0.891-1.534,0.659c-0.277-0.622-1.809,1.394-1.809,1.394l0.647,0.828s-4.509,3.474-4.548,3.707c-0.039,0.234-1.164,3.25-0.775,4.146,0.389,0.898,1.375,3.158,2.307,3.233,1.221,0.1,4.185-0.559,4.185-0.559,0.08,0.196,0.637,1.189,0.637,1.189s1.453-0.047,1.534,0.11c0.027,0.053,1.75,5.121,1.182,5.793-1.357,2.032,0.775,5.011,1.369,6.018,0.595,1.731,0.977,0.957,1.758,1.239,0.961,0.084,1.773,0.439,2.589-0.611,0.237-0.195,0.641-0.041,0.641-0.313,0-0.152,0.697-0.598,0.877-1.018,0.189-0.089,0.675-0.415,1.004-0.572,0.299-0.02-0.283-0.82,0.309-1.666,0.639-0.252,2.364-1.415,2.364-1.415,0.077-1.704-0.839-3.812,0.873-5.02,1.104-1.125,2.552-1.765,3.253-3.478,0.195-0.505,0.629-1.542-0.619-1.231-1.172,0.295-2.479,0.362-1.861-0.154-0.07-0.634-0.85-0.931-1.549-1.551-0.361-0.854-0.93-2.378-0.93-2.378l-1.24-1.884,0.156-0.389,1.473,2.17,1.475,1.782c0.541,1.783,1.006,1.939,1.006,1.939,0.816-0.289,2.752-1.085,2.752-1.085l1.899-1.823s-0.195-0.581-0.967-1.316l-0.584-0.349c-0.126,0.357-0.802,0.492-0.802,0.492l-1.641-1.963,0.61-0.123,0.471,0.896,1.128,0.39s0.313-0.229,0.893,0.371c0.473-0.04,2.318,0.089,2.749,0.636,0.085,0.109,2.286,5.606,2.72,5.614,0.191,0.001,0.329,0.077,0.268-0.256-0.078-0.157,0-3.609,0.115-4.349,0.295-0.627,0.344-0.002,1.039,1.188-0.01-0.04-0.02-0.07-0.02-0.09zm-19.37-13.33c0.153-0.459,1.046-0.615,1.046-0.615s-0.256,0.472-0.196,0.716c0.06,0.246-0.407,0.401-0.46,0.982-0.051,0.577-1.117,0.239-1.205,0.036-0.09-0.21,0.65-0.67,0.81-1.13zm3.82,7.8c-0.661,0-2.644,0.196-3.189-0.193-0.547-0.389-0.97,0.039-1.363,0.429-0.258,0.253-1.193-0.259-1.467-0.649-0.272-0.39-1.188-0.361-1.188-0.361l0.208-1.11-2.637-0.128-1.499,0.439-1.411,0.041,0.79-0.376,0.984-0.232s1.431-1.175,1.858-1.525c0.364-0.296,1.81-0.129,1.81-0.129l1.589,1.146s-0.353,0.898-0.508,1.09c0.583-0.039,1.269-1.099,1.269-1.099-1.239-1.138-1.189-1.524-1.189-1.524l1.633,1.146,0.015,0.01s0.662,1.558,0.937,1.558c0.271,0,0.619-1.073,0.619-1.073l0.466-0.117c0.207,0.492,0.594,1.602,1.059,1.343,0.268-0.147,0.709-0.013,1.213,0.18,0.51,0.195,0.854-0.104,1.268,0.258-0.04,1.6-0.99,0.95-1.26,0.87zm1.04-2.68c-0.682-0.259-2.984,0.586-2.469-0.796,0.274-0.746,0.98-0.902,1.221-0.405,0.063,0.203,0.83,0.519,0.825,0.089-0.006-0.43,0.771-0.659,0.883-0.338-0.41,0.31,1.63,1.86-0.45,1.46zm4.34,1.31c-0.377-0.304,0.169-0.564-0.387-1.04-0.799-0.684-1.421-0.979-0.334-1.532,1.34-0.168,0.217,0.428,0.439,0.785,0.119,0.19,0.797,0.828,1.326,1.61,0.43,0.64-0.68,0.47-1.05,0.17z" fill="url(#SVGID_6)"/>
<path d="M40.35,35.86l-1.293,1.291-0.814,0.311c-0.018,0.133-0.063,0.709-0.192,1.008-0.259,0.18-0.569,0.775-0.569,0.775s-0.159,1.149,0.699,0.953c0.85-0.19,3.48-3.71,2.16-4.33z" fill="url(#SVGID_6)"/>
<rect fill="none" height="60" width="60"/>
<rect fill-opacity="0.4" height="25" stroke-opacity="0.4" transform="matrix(0.8133 -0.5819 0.5819 0.8133 -15.5607 18.7982)" width="3.674" x="19.67" y="21.14"/>
<linearGradient gradientUnits="userSpaceOnUse" id="SVGID_10" x1="22.2" x2="20.47" y1="32.54" y2="33.77">
<stop offset="0" stop-color="#999999"/>
<stop offset="0.27" stop-color="#FFFFFF"/>
<stop offset="0.67" stop-color="#999999"/>
<stop offset="0.82" stop-color="#666666"/>
<stop offset="1" stop-color="#B3B3B3"/>
</linearGradient>
<polygon fill="url(#SVGID_10)" points="27.43,43.41,13.6,24.08,15.59,22.65,29.42,41.98"/>
<rect fill-opacity="0.4" height="3.673" stroke-opacity="0.4" transform="matrix(0.5821 -0.8131 0.8131 0.5821 -11.1119 45.664)" width="25" x="26.37" y="31.81"/>
<linearGradient gradientUnits="userSpaceOnUse" id="SVGID_11" x1="38.02" x2="39.86" y1="32.42" y2="33.75">
<stop offset="0" stop-color="#999999"/>
<stop offset="0.27" stop-color="#FFFFFF"/>
<stop offset="0.67" stop-color="#999999"/>
<stop offset="0.82" stop-color="#666666"/>
<stop offset="1" stop-color="#B3B3B3"/>
</linearGradient>
<polygon fill="url(#SVGID_11)" points="32.94,43.41,46.78,24.08,44.79,22.65,30.95,41.98"/>
<rect fill-opacity="0.4" height="3.673" stroke-opacity="0.4" width="33.13" x="12.89" y="17.7"/>
<linearGradient gradientUnits="userSpaceOnUse" id="SVGID_12" x1="29.46" x2="29.46" y1="17.65" y2="20.41">
<stop offset="0" stop-color="#999999"/>
<stop offset="0.27" stop-color="#FFFFFF"/>
<stop offset="0.67" stop-color="#999999"/>
<stop offset="0.82" stop-color="#666666"/>
<stop offset="1" stop-color="#B3B3B3"/>
</linearGradient>
<polygon fill="url(#SVGID_12)" points="45.41,20.15,13.5,20.15,13.5,17.7,45.41,17.7"/>
<linearGradient gradientUnits="userSpaceOnUse" id="SVGID_13" x1="30.11" x2="30.11" y1="29.69" y2="50.46">
<stop offset="0" stop-color="#A8A9AA"/>
<stop offset="1" stop-color="#222021"/>
</linearGradient>
<path d="M35.36,45.61l-0.757-0.28-0.134-0.055-0.16-0.062-0.428-0.172c-0.199-0.361-0.211-1.13-0.064-1.471l-0.262-0.146,0.283,0.101c0.043-0.067,0.084-0.136,0.126-0.208l0.043-0.069c0.319-0.522,0.617-1.071,0.885-1.634,0.669-0.076,1.322-0.654,1.659-1.489,0.387-0.95,0.262-1.936-0.283-2.444,0.493-2.213,0.152-4.221-0.959-5.652-1.123-1.449-2.96-2.258-5.325-2.335-2.061,0-3.124,0.913-3.877,1.834-0.559,0.129-1.289,0.453-1.808,1.257-0.7,1.084-0.787,2.715-0.259,4.851-0.583,0.487-0.74,1.474-0.365,2.456,0.353,0.922,1.079,1.539,1.808,1.539h0.013c0.114,0.242,0.234,0.479,0.357,0.711h-0.039l0.277,0.453s0.419,0.688,0.447,0.73c0.111,0.174,0.204,0.962-0.004,1.44l-0.567,0.249c-0.331,0.129-0.744,0.285-1.191,0.455-1.251,0.477-2.672,1.017-3.214,1.305-0.548,0.291-1.022,0.639-1.431,1.033,2.953,1.533,6.304,2.406,9.861,2.406,3.646,0,7.078-0.914,10.08-2.52-0.555-0.522-1.066-0.816-1.269-0.923-0.53-0.28-2.15-0.88-3.46-1.37z" fill="url(#SVGID_13)" fill-opacity="0.2" stroke-opacity="0.2"/>
<linearGradient gradientUnits="userSpaceOnUse" id="SVGID_14" x1="30.11" x2="30.11" y1="29.99" y2="50.46">
<stop offset="0" stop-color="#AAABAC"/>
<stop offset="1" stop-color="#000000"/>
</linearGradient>
<path d="M35.26,45.89l-0.766-0.284-0.129-0.052-0.164-0.063-0.518-0.207c-0.324-0.445-0.318-1.407-0.137-1.838l0.012-0.021c0.01-0.023,0.019-0.043,0.031-0.063,0.041-0.066,0.084-0.134,0.121-0.201l0.045-0.069c0.344-0.563,0.662-1.157,0.947-1.769,0.016,0.001,0.029,0.001,0.045,0.001,0.599,0,1.213-0.526,1.531-1.312,0.37-0.914,0.217-1.848-0.339-2.216,0.026-0.114,0.039-0.177,0.039-0.177,0.474-2.127,0.153-4.049-0.903-5.41-1.066-1.377-2.824-2.144-5.089-2.219-1.961,0-2.952,0.856-3.712,1.805-0.537,0.104-1.234,0.394-1.722,1.15-0.675,1.044-0.731,2.663-0.171,4.814-0.597,0.337-0.785,1.283-0.425,2.224,0.309,0.804,0.923,1.347,1.529,1.347,0.064,0,0.13-0.007,0.191-0.02,0.213,0.455,0.441,0.9,0.684,1.326h-0.01l0.362,0.592s0.055,0.092,0.082,0.134c0.185,0.288,0.271,1.284-0.036,1.83l-0.676,0.296c-0.334,0.129-0.747,0.287-1.187,0.454-1.246,0.474-2.66,1.012-3.187,1.292-0.489,0.259-0.921,0.564-1.293,0.912,2.885,1.445,6.138,2.264,9.584,2.264,3.533,0,6.863-0.86,9.801-2.376-0.495-0.449-0.942-0.707-1.126-0.802-0.48-0.25-2.09-0.85-3.39-1.33z" fill="url(#SVGID_14)" fill-opacity="0.4" stroke-opacity="0.4"/>
<radialGradient cx="30.36" cy="49.25" gradientUnits="userSpaceOnUse" id="SVGID_15" r="8.41">
<stop offset="0" stop-color="#DDC4B0"/>
<stop offset="0.2" stop-color="#DDC4B0"/>
<stop offset="0.96" stop-color="#A57665"/>
<stop offset="1" stop-color="#A57665"/>
</radialGradient>
<path d="M33.78,45.44c-0.79-0.343-0.766-2.028-0.439-2.538,0.057-0.089,0.109-0.178,0.164-0.268h-6.62c0.054,0.09,0.106,0.179,0.163,0.268,0.327,0.51,0.352,2.195-0.439,2.538-0.792,0.345,3.68,3.339,3.68,3.339s4.29-2.99,3.5-3.34z" fill="url(#SVGID_15)"/>
<linearGradient gradientUnits="userSpaceOnUse" id="SVGID_16" x1="30.19" x2="30.19" y1="45.13" y2="52.06">
<stop offset="0" stop-color="#70B4B6"/>
<stop offset="0.39" stop-color="#5F8BA1"/>
<stop offset="0.89" stop-color="#455188"/>
<stop offset="1" stop-color="#455188"/>
</linearGradient>
<path d="M38.54,47.2c-0.832-0.434-4.959-1.878-5.036-1.968l-3.151,2.619-3.386-2.721c-0.094,0.139-4.171,1.568-5.116,2.069-1.08,0.573-2.844,1.892-2.844,4.86h22.38c0-2.97-2.01-4.43-2.84-4.86z" fill="url(#SVGID_16)"/>
<linearGradient gradientUnits="userSpaceOnUse" id="SVGID_17" x1="30.22" x2="30.22" y1="44.68" y2="48.73">
<stop offset="0" stop-color="#FAFAFA"/>
<stop offset="0.78" stop-color="#CCCCCC"/>
<stop offset="1" stop-color="#D1D1D1"/>
</linearGradient>
<polygon fill="url(#SVGID_17)" points="26.19,45.47,30.35,48.78,34.25,45.54,33.5,45.23,30.35,47.85,26.96,45.13"/>
<linearGradient gradientUnits="userSpaceOnUse" id="SVGID_18" x1="19.6" x2="26.39" y1="48.84" y2="48.84">
<stop offset="0" stop-color="#AADAC6"/>
<stop offset="1" stop-color="#6A99AA"/>
</linearGradient>
<path d="M26.39,45.99s-5.931,1.549-5.931,5.703h-0.854c-0.01-2.55,1.99-4.54,6.78-5.7z" fill="url(#SVGID_18)"/>
<linearGradient gradientUnits="userSpaceOnUse" id="SVGID_19" x1="33.92" x2="40.7" y1="48.75" y2="48.75">
<stop offset="0" stop-color="#AADAC6"/>
<stop offset="1" stop-color="#6A99AA"/>
</linearGradient>
<path d="M33.92,45.9s5.932,1.549,5.932,5.704h0.854c0-2.56-1.99-4.54-6.78-5.7z" fill="url(#SVGID_19)"/>
<polygon fill="#020202" fill-opacity="0.3" points="30.35,48.78,26.19,45.47,25.95,45.57,30.35,49.08,34.5,45.63,34.25,45.53" stroke-opacity="0.3"/>
<radialGradient cx="30.12" cy="33.65" gradientUnits="userSpaceOnUse" id="SVGID_20" r="11.29">
<stop offset="0" stop-color="#F4EDE4"/>
<stop offset="0.51" stop-color="#E8D9CA"/>
<stop offset="0.76" stop-color="#DDC4B0"/>
<stop offset="1" stop-color="#BF9C89"/>
</radialGradient>
<path d="M35.68,37.69c-0.028-0.014-0.062-0.016-0.089-0.024-0.006-0.002-0.011-0.004-0.016-0.004-0.045-0.013-0.088-0.021-0.133-0.025-5.527-0.961-8.062-4.021-8.253-3.211-0.152,0.645-1.702,2.039-2.513,2.736,0.006,0.031,0.01,0.059,0.017,0.09,0,0,0.03,0.143,0.089,0.385-0.063,0.008-0.126,0.021-0.188,0.047-0.517,0.217-0.679,1.063-0.362,1.891,0.316,0.827,0.991,1.322,1.508,1.104,0.032-0.014,0.059-0.036,0.089-0.056,0.3,0.676,0.668,1.397,1.119,2.123,0.755,0.898,1.914,1.951,3.192,1.951,1.547,0,2.493-0.846,3.144-1.698,0.016-0.036,0.033-0.069,0.053-0.099,0.482-0.753,0.873-1.51,1.188-2.213,0.505,0.175,1.153-0.294,1.476-1.089,0.33-0.81,0.18-1.67-0.33-1.9z" fill="url(#SVGID_20)"/>
<linearGradient gradientUnits="userSpaceOnUse" id="SVGID_21" x1="28.2" x2="32.97" y1="45.22" y2="40.48">
<stop offset="0" stop-color="#E8D9CA"/>
<stop offset="1" stop-color="#DDC4B0"/>
</linearGradient>
<path d="M29.92,44.27c-0.942,0-1.892-0.439-2.589-1.1,0.74,0.776,1.733,1.531,2.817,1.531,1.546,0,2.493-0.846,3.144-1.698,0.015-0.036,0.031-0.069,0.053-0.099,0.48-0.753,0.873-1.51,1.188-2.213-1.76,3.08-3.07,3.58-4.61,3.58z" fill="url(#SVGID_21)"/>
<linearGradient gradientUnits="userSpaceOnUse" id="SVGID_22" x1="30.1" x2="30.1" y1="30.09" y2="37.12">
<stop offset="0" stop-color="#725B53"/>
<stop offset="0.38" stop-color="#451F1E"/>
<stop offset="1" stop-color="#261013"/>
</linearGradient>
<path d="M29.99,29.99c-1.917,0-2.837,0.872-3.549,1.782-1.158,0.178-2.991,1.238-1.696,5.884,0.812-0.695,2.295-2.581,2.447-3.226,0.192-0.819,2.771,2.307,8.402,3.238,0.064-0.26,0.095-0.413,0.095-0.413,0.89-3.96-1.03-7.1-5.69-7.26z" fill="url(#SVGID_22)"/>
<linearGradient gradientUnits="userSpaceOnUse" id="SVGID_23" x1="32.5" x2="26.13" y1="36.82" y2="33.04">
<stop offset="0" stop-color="#725B53"/>
<stop offset="0.36" stop-color="#451F1E"/>
<stop offset="1" stop-color="#261013"/>
</linearGradient>
<path d="M27.2,34.05s2.756,3.62,8.355,3.614c-0.01,0-2.64-0.41-8.36-3.61z" fill="url(#SVGID_23)"/>
<linearGradient gradientUnits="userSpaceOnUse" id="SVGID_24" x1="25.56" x2="25.61" y1="32.3" y2="36.35">
<stop offset="0" stop-color="#725B53"/>
<stop offset="0.38" stop-color="#451F1E"/>
<stop offset="1" stop-color="#261013"/>
</linearGradient>
<path d="M26.53,32.04s-2.699,0.161-1.697,4.734c0.01,0.01-0.32-3.13,1.7-4.73z" fill="url(#SVGID_24)"/>
<linearGradient gradientUnits="userSpaceOnUse" id="SVGID_25" x1="30.99" x2="30.79" y1="30.7" y2="32.53">
<stop offset="0" stop-color="#8D7B6A"/>
<stop offset="1" stop-color="#451F1E"/>
</linearGradient>
<path d="M31.3,32.67c-1.257-0.179-3.381-1.292-4.215-0.895,0,0,2.726-3.11,7.539,0.432,0,0-1.15,0.77-3.32,0.46z" fill="url(#SVGID_25)"/>
<rect fill="none" height="30" width="30" x="15.19" y="26.32"/>
<linearGradient gradientUnits="userSpaceOnUse" id="SVGID_26" x1="15.32" x2="15.32" y1="26.12" y2="11.07">
<stop offset="0" stop-color="#A8A9AA"/>
<stop offset="1" stop-color="#222021"/>
</linearGradient>
<path d="M8.773,26.07h13.09v-0.487c0-2.907-2.152-4.174-2.584-4.4-0.426-0.222-1.75-0.714-2.816-1.11l-0.617-0.229-0.11-0.044-0.131-0.05-0.35-0.14c-0.162-0.295-0.171-0.922-0.052-1.201l-0.213-0.119,0.23,0.082c0.035-0.056,0.067-0.111,0.103-0.169l0.036-0.057c0.261-0.427,0.503-0.875,0.723-1.334,0.545-0.062,1.08-0.534,1.355-1.215,0.315-0.775,0.213-1.58-0.231-1.996,0.149-0.672,0.204-1.319,0.168-1.928-4.6,3.36-7.803,8.5-8.607,14.4z" fill="url(#SVGID_26)" fill-opacity="0.2" stroke-opacity="0.2"/>
<linearGradient gradientUnits="userSpaceOnUse" id="SVGID_27" x1="15.21" x2="15.21" y1="11.48" y2="26.12">
<stop offset="0" stop-color="#AAABAC"/>
<stop offset="1" stop-color="#000000"/>
</linearGradient>
<path d="M8.804,25.83h12.82v-0.243c0-2.767-2.043-3.971-2.453-4.184-0.413-0.214-1.73-0.704-2.788-1.097l-0.625-0.232-0.104-0.042-0.135-0.051-0.422-0.169c-0.264-0.363-0.259-1.148-0.111-1.5l0.01-0.018c0.007-0.019,0.016-0.036,0.025-0.05,0.034-0.055,0.068-0.109,0.099-0.165l0.036-0.057c0.281-0.459,0.542-0.944,0.773-1.443h0.038c0.488,0,0.99-0.43,1.25-1.071,0.302-0.746,0.177-1.508-0.277-1.809,0.021-0.092,0.033-0.144,0.033-0.144,0.132-0.592,0.182-1.162,0.166-1.704-4.41,3.3-7.494,8.27-8.336,13.97z" fill="url(#SVGID_27)" fill-opacity="0.4" stroke-opacity="0.4"/>
<radialGradient cx="12.38" cy="23.06" gradientUnits="userSpaceOnUse" id="SVGID_28" r="6.87">
<stop offset="0" stop-color="#DDC4B0"/>
<stop offset="0.2" stop-color="#DDC4B0"/>
<stop offset="0.96" stop-color="#A57665"/>
<stop offset="1" stop-color="#A57665"/>
</radialGradient>
<path d="M15.17,19.94c-0.646-0.281-0.625-1.656-0.359-2.073,0.047-0.072,0.089-0.145,0.134-0.218h-5.398c0.043,0.073,0.087,0.146,0.133,0.218,0.266,0.417,0.287,1.792-0.359,2.073s3.003,2.725,3.003,2.725,3.5-2.44,2.85-2.72z" fill="url(#SVGID_28)"/>
<linearGradient gradientUnits="userSpaceOnUse" id="SVGID_29" x1="12.24" x2="12.24" y1="19.68" y2="25.34">
<stop offset="0" stop-color="#C39072"/>
<stop offset="1" stop-color="#88444B"/>
</linearGradient>
<path d="M19.06,21.37c-0.68-0.354-4.047-1.533-4.111-1.606l-2.573,2.138-2.764-2.221c-0.077,0.113-3.406,1.28-4.176,1.689-0.881,0.469-2.321,1.543-2.321,3.967h18.27c0-2.42-1.65-3.61-2.32-3.97z" fill="url(#SVGID_29)"/>
<linearGradient gradientUnits="userSpaceOnUse" id="SVGID_30" x1="12.27" x2="12.27" y1="19.31" y2="22.62">
<stop offset="0" stop-color="#8C4C54"/>
<stop offset="1" stop-color="#53343E"/>
</linearGradient>
<polygon fill="url(#SVGID_30)" points="8.978,19.96,12.37,22.66,15.56,20.02,14.94,19.77,12.37,21.9,9.608,19.68"/>
<path d="M9.138,20.39s-4.842,1.264-4.842,4.655h-0.697c0-2.08,1.628-3.7,5.539-4.65z" fill="#CCA089"/>
<path d="M15.29,20.31s4.842,1.265,4.842,4.657h0.697c0-2.09-1.63-3.71-5.54-4.66z" fill="#CCA089"/>
<linearGradient gradientUnits="userSpaceOnUse" id="SVGID_31" x1="12.27" x2="12.27" y1="22.91" y2="19.78">
<stop offset="0" stop-color="#DDC4B0"/>
<stop offset="0.96" stop-color="#A57665"/>
<stop offset="1" stop-color="#A57665"/>
</linearGradient>
<polygon fill="url(#SVGID_31)" points="12.37,22.66,8.978,19.96,8.78,20.04,12.37,22.91,15.76,20.09,15.56,20.01"/>
<radialGradient cx="12.19" cy="10.32" gradientUnits="userSpaceOnUse" id="SVGID_32" r="9.22">
<stop offset="0" stop-color="#F4EDE4"/>
<stop offset="0.51" stop-color="#E8D9CA"/>
<stop offset="0.76" stop-color="#DDC4B0"/>
<stop offset="1" stop-color="#BF9C89"/>
</radialGradient>
<path d="M16.72,13.61c-0.023-0.012-0.049-0.013-0.072-0.021-0.005-0.001-0.009-0.002-0.013-0.003-0.036-0.01-0.071-0.018-0.108-0.02-4.511-0.784-6.582-3.283-6.737-2.621-0.124,0.526-1.39,1.665-2.051,2.232,0.005,0.026,0.008,0.048,0.013,0.074,0,0,0.024,0.116,0.074,0.315-0.052,0.006-0.104,0.016-0.154,0.038-0.422,0.178-0.553,0.869-0.295,1.543,0.258,0.675,0.809,1.08,1.231,0.902,0.026-0.012,0.048-0.03,0.072-0.045,0.244,0.551,0.546,1.141,0.914,1.733,0.617,0.733,1.563,1.593,2.605,1.593,1.263,0,2.035-0.69,2.567-1.387,0.012-0.029,0.026-0.056,0.042-0.08,0.394-0.615,0.713-1.232,0.971-1.807,0.413,0.143,0.941-0.241,1.204-0.889,0.28-0.65,0.16-1.35-0.26-1.54z" fill="url(#SVGID_32)"/>
<linearGradient gradientUnits="userSpaceOnUse" id="SVGID_33" x1="10.61" x2="14.51" y1="19.76" y2="15.89">
<stop offset="0" stop-color="#E8D9CA"/>
<stop offset="1" stop-color="#DDC4B0"/>
</linearGradient>
<path d="M12.02,18.98c-0.769,0-1.543-0.358-2.114-0.898,0.604,0.634,1.416,1.251,2.299,1.251,1.263,0,2.035-0.69,2.567-1.387,0.012-0.029,0.026-0.057,0.042-0.081,0.394-0.615,0.713-1.232,0.971-1.806-1.43,2.52-2.5,2.93-3.76,2.93z" fill="url(#SVGID_33)"/>
<linearGradient gradientUnits="userSpaceOnUse" id="SVGID_34" x1="12.17" x2="12.17" y1="7.41" y2="13.15">
<stop offset="0" stop-color="#725B53"/>
<stop offset="0.38" stop-color="#451F1E"/>
<stop offset="1" stop-color="#261013"/>
</linearGradient>
<path d="M12.08,7.325c-1.564,0-2.316,0.71-2.897,1.455-0.944,0.145-2.44,1.011-1.383,4.803,0.663-0.568,1.874-2.107,1.998-2.633,0.158-0.669,2.262,1.883,6.859,2.644,0.053-0.213,0.078-0.338,0.078-0.338,0.71-3.23-0.86-5.798-4.66-5.925z" fill="url(#SVGID_34)"/>
<linearGradient gradientUnits="userSpaceOnUse" id="SVGID_35" x1="14.13" x2="8.93" y1="12.9" y2="9.81">
<stop offset="0" stop-color="#725B53"/>
<stop offset="0.36" stop-color="#451F1E"/>
<stop offset="1" stop-color="#261013"/>
</linearGradient>
<path d="M9.799,10.64s2.25,2.954,6.821,2.949c0,0-2.15-0.34-6.821-2.95z" fill="url(#SVGID_35)"/>
<linearGradient gradientUnits="userSpaceOnUse" id="SVGID_36" x1="8.46" x2="8.51" y1="9.21" y2="12.51">
<stop offset="0" stop-color="#725B53"/>
<stop offset="0.38" stop-color="#451F1E"/>
<stop offset="1" stop-color="#261013"/>
</linearGradient>
<path d="M9.258,8.999s-2.203,0.132-1.386,3.865c0,0-0.268-2.55,1.386-3.861z" fill="url(#SVGID_36)"/>
<linearGradient gradientUnits="userSpaceOnUse" id="SVGID_37" x1="12.9" x2="12.73" y1="7.9" y2="9.4">
<stop offset="0" stop-color="#8D7B6A"/>
<stop offset="1" stop-color="#451F1E"/>
</linearGradient>
<path d="M13.14,9.516c-1.025-0.146-2.76-1.055-3.44-0.73,0,0,2.225-2.539,6.154,0.352,0.01,0-0.93,0.632-2.71,0.378z" fill="url(#SVGID_37)"/>
<rect fill="none" height="24.49" width="24.49" y="4.333"/>
<path d="M51.07,26.07h-13.09v-0.487c0-2.907,2.152-4.174,2.584-4.4,0.425-0.222,1.75-0.714,2.815-1.11l0.617-0.229,0.109-0.044,0.132-0.05,0.35-0.14c0.162-0.295,0.171-0.922,0.051-1.201l0.214-0.119-0.23,0.082c-0.034-0.056-0.067-0.111-0.103-0.169l-0.035-0.057c-0.262-0.427-0.504-0.875-0.724-1.334-0.545-0.062-1.079-0.534-1.354-1.215-0.315-0.775-0.213-1.58,0.23-1.996-0.148-0.672-0.203-1.319-0.167-1.928,4.59,3.36,7.8,8.5,8.6,14.4z" fill="url(#SVGID_26)" fill-opacity="0.2" stroke-opacity="0.2"/>
<path d="M51.04,25.83h-12.82v-0.243c0-2.767,2.042-3.971,2.453-4.184,0.413-0.214,1.729-0.704,2.788-1.097l0.625-0.232,0.104-0.042,0.136-0.051,0.421-0.169c0.266-0.363,0.26-1.148,0.112-1.5l-0.01-0.018c-0.007-0.019-0.016-0.036-0.025-0.05-0.034-0.055-0.067-0.109-0.099-0.165l-0.037-0.057c-0.28-0.459-0.541-0.944-0.773-1.443h-0.037c-0.488,0-0.99-0.43-1.25-1.071-0.302-0.746-0.176-1.508,0.277-1.809-0.021-0.092-0.033-0.144-0.033-0.144-0.132-0.592-0.182-1.162-0.166-1.704,4.39,3.3,7.48,8.27,8.32,13.97z" fill="url(#SVGID_27)" fill-opacity="0.4" stroke-opacity="0.4"/>
<radialGradient cx="47.89" cy="23.06" gradientUnits="userSpaceOnUse" id="SVGID_40" r="6.87">
<stop offset="0" stop-color="#DDC4B0"/>
<stop offset="0.2" stop-color="#DDC4B0"/>
<stop offset="0.96" stop-color="#A57665"/>
<stop offset="1" stop-color="#A57665"/>
</radialGradient>
<path d="M50.68,19.94c-0.646-0.281-0.624-1.656-0.358-2.073,0.046-0.072,0.089-0.145,0.133-0.218h-5.4c0.044,0.073,0.087,0.146,0.133,0.218,0.267,0.417,0.287,1.792-0.358,2.073-0.646,0.281,3.003,2.725,3.003,2.725s3.51-2.44,2.86-2.72z" fill="url(#SVGID_40)"/>
<path d="M54.56,21.37c-0.68-0.354-4.048-1.533-4.11-1.606l-2.574,2.138-2.764-2.221c-0.076,0.113-3.405,1.28-4.176,1.689-0.881,0.469-2.32,1.543-2.32,3.967h18.27c-0.01-2.42-1.65-3.61-2.33-3.97z" fill="url(#SVGID_29)"/>
<polygon fill="url(#SVGID_30)" points="44.48,19.96,47.88,22.66,51.07,20.02,50.45,19.77,47.88,21.9,45.12,19.68"/>
<path d="M44.65,20.39s-4.842,1.264-4.842,4.655h-0.697c0-2.08,1.62-3.7,5.54-4.65z" fill="#CCA089"/>
<path d="M50.8,20.31s4.842,1.265,4.842,4.657h0.697c-0.01-2.09-1.64-3.71-5.54-4.66z" fill="#CCA089"/>
<polygon fill="url(#SVGID_31)" points="47.88,22.66,44.48,19.96,44.29,20.04,47.88,22.91,51.27,20.09,51.07,20.01"/>
<radialGradient cx="47.7" cy="10.32" gradientUnits="userSpaceOnUse" id="SVGID_44" r="9.22">
<stop offset="0" stop-color="#F4EDE4"/>
<stop offset="0.51" stop-color="#E8D9CA"/>
<stop offset="0.76" stop-color="#DDC4B0"/>
<stop offset="1" stop-color="#BF9C89"/>
</radialGradient>
<path d="M52.23,13.61c-0.022-0.012-0.049-0.013-0.071-0.021-0.005-0.001-0.01-0.002-0.014-0.003-0.035-0.01-0.07-0.018-0.108-0.02-4.511-0.784-6.581-3.283-6.736-2.621-0.124,0.526-1.39,1.665-2.052,2.232,0.006,0.026,0.009,0.048,0.014,0.074,0,0,0.023,0.116,0.073,0.315-0.052,0.006-0.104,0.016-0.153,0.038-0.422,0.178-0.554,0.869-0.295,1.543,0.258,0.675,0.809,1.08,1.23,0.902,0.025-0.012,0.048-0.03,0.072-0.045,0.244,0.551,0.546,1.141,0.914,1.733,0.617,0.733,1.563,1.593,2.605,1.593,1.263,0,2.035-0.69,2.566-1.387,0.012-0.029,0.026-0.056,0.042-0.08,0.394-0.615,0.712-1.232,0.971-1.807,0.413,0.143,0.94-0.241,1.204-0.889,0.29-0.65,0.17-1.35-0.25-1.54z" fill="url(#SVGID_44)"/>
<linearGradient gradientUnits="userSpaceOnUse" id="SVGID_45" x1="46.12" x2="50.02" y1="19.76" y2="15.89">
<stop offset="0" stop-color="#E8D9CA"/>
<stop offset="1" stop-color="#DDC4B0"/>
</linearGradient>
<path d="M47.52,18.98c-0.769,0-1.543-0.358-2.113-0.898,0.604,0.634,1.416,1.251,2.299,1.251,1.264,0,2.035-0.69,2.567-1.387,0.013-0.029,0.026-0.057,0.042-0.081,0.393-0.615,0.712-1.232,0.971-1.806-1.43,2.52-2.5,2.93-3.77,2.93z" fill="url(#SVGID_45)"/>
<path d="M47.58,7.325c-1.563,0-2.315,0.71-2.896,1.455-0.944,0.145-2.441,1.011-1.383,4.803,0.662-0.568,1.873-2.107,1.998-2.633,0.156-0.669,2.261,1.883,6.857,2.644,0.054-0.213,0.078-0.338,0.078-0.338,0.72-3.23-0.85-5.798-4.66-5.925z" fill="url(#SVGID_34)"/>
<linearGradient gradientUnits="userSpaceOnUse" id="SVGID_47" x1="49.64" x2="44.44" y1="12.9" y2="9.81">
<stop offset="0" stop-color="#725B53"/>
<stop offset="0.36" stop-color="#451F1E"/>
<stop offset="1" stop-color="#261013"/>
</linearGradient>
<path d="M45.31,10.64s2.25,2.954,6.822,2.949c0,0-2.15-0.34-6.82-2.95z" fill="url(#SVGID_47)"/>
<linearGradient gradientUnits="userSpaceOnUse" id="SVGID_48" x1="43.97" x2="44.01" y1="9.21" y2="12.51">
<stop offset="0" stop-color="#725B53"/>
<stop offset="0.38" stop-color="#451F1E"/>
<stop offset="1" stop-color="#261013"/>
</linearGradient>
<path d="M44.77,8.999s-2.203,0.132-1.386,3.865c0,0-0.27-2.55,1.39-3.861z" fill="url(#SVGID_48)"/>
<linearGradient gradientUnits="userSpaceOnUse" id="SVGID_49" x1="48.4" x2="48.24" y1="7.9" y2="9.4">
<stop offset="0" stop-color="#8D7B6A"/>
<stop offset="1" stop-color="#451F1E"/>
</linearGradient>
<path d="M48.65,9.516c-1.025-0.146-2.761-1.055-3.439-0.73,0,0,2.225-2.539,6.153,0.352,0,0-0.93,0.632-2.71,0.378z" fill="url(#SVGID_49)"/>
<rect fill="none" height="24.49" width="24.49" x="35.51" y="4.333"/>
</g>
</svg>
