<?xml version="1.0" encoding="UTF-8"?>
<!DOCTYPE svg PUBLIC "-//W3C//DTD SVG 1.1 Tiny//EN" "http://www.w3.org/Graphics/SVG/1.1/DTD/svg11-tiny.dtd">
<svg baseProfile="tiny" height="30px" version="1.1" viewBox="0 0 30 30" width="30px" x="0px" xmlns="http://www.w3.org/2000/svg" xmlns:xlink="http://www.w3.org/1999/xlink" y="0px">
<path d="M15,2C8.475,2,3.09,6.814,2.16,13.082c-0.039,0.133-0.066,0.271-0.066,0.418c0,0.828,0.671,1.5,1.5,1.5  c0.803,0,1.454-0.633,1.493-1.427l0.027,0.004C5.808,8.736,9.971,5,15,5c5.514,0,10,4.486,10,10c0,5.515-4.486,10-10,10  c-2.759,0-5.244-1.136-7.048-2.951l3.634-3.635C12.364,17.637,12.1,17,11,17H4c-1.1,0-2,0.9-2,2v7c0,1.1,0.636,1.363,1.414,0.586  l2.408-2.408C8.17,26.534,11.409,28,15,28c7.18,0,13-5.82,13-13S22.18,2,15,2z"/>
<g fill-opacity="0.5" stroke-opacity="0.5">
<rect fill="none" height="30" width="30"/>
</g>
</svg>
