<?xml version="1.0" encoding="UTF-8"?>
<!DOCTYPE svg PUBLIC "-//W3C//DTD SVG 1.1 Tiny//EN" "http://www.w3.org/Graphics/SVG/1.1/DTD/svg11-tiny.dtd">
<svg baseProfile="tiny" height="30px" version="1.1" viewBox="0 0 30 30" width="30px" x="0px" xmlns="http://www.w3.org/2000/svg" xmlns:xlink="http://www.w3.org/1999/xlink" y="0px">
<rect fill="none" height="30" width="30"/>
<polygon points="5.278,7.206 7.277,7.206 7.396,11.042 9.236,7.206 10.834,7.206 10.834,11.042 12.551,7.206 14.671,7.206   11.473,13.2 9.597,13.2 9.556,9.473 7.878,13.2 5.96,13.2 "/>
<path d="M17.795,6.38c0-0.637-0.695-1.15-1.557-1.15c-0.859,0-1.558,0.514-1.558,1.15c0,0.34,0.201,0.645,0.52,0.855V13.2h2.075  V7.235C17.596,7.024,17.795,6.72,17.795,6.38z"/>
<path d="M12.213,6.987c0,0,1.099-2.258,4.035-2.258c2.936,0,4.018,2.217,4.018,2.217s-0.541-2.877-4.076-2.877  C12.65,4.069,12.213,6.987,12.213,6.987z"/>
<path d="M11.014,6.348c0,0,1.279-3.077,5.234-3.077s4.975,3.036,4.975,3.036s-0.92-3.835-5.033-3.835  C12.073,2.472,11.014,6.348,11.014,6.348z"/>
<polygon points="20.52,11.583 18.451,12.87 20.324,15.875 5.278,15.878 5.278,18.312 24.721,18.31 "/>
<polygon points="9.479,27.528 11.543,26.237 9.679,23.233 12.725,23.233 15.408,27.528 17.473,26.237 15.604,23.233 24.721,23.233   24.721,20.8 5.278,20.8 "/>
</svg>
