<?xml version="1.0" encoding="UTF-8"?>
<!DOCTYPE svg PUBLIC "-//W3C//DTD SVG 1.1 Tiny//EN" "http://www.w3.org/Graphics/SVG/1.1/DTD/svg11-tiny.dtd">
<svg baseProfile="tiny" height="30px" version="1.1" viewBox="-1 -1 30 30" width="30px" x="0px" xmlns="http://www.w3.org/2000/svg" xmlns:xlink="http://www.w3.org/1999/xlink" y="0px">
<path d="M26.576,14.242h-2.566l-1.287-4.637l-5.859-5.121l-5.59,0.156c-0.391,0.014-0.736,0.18-0.984,0.438  c-0.082,0.068-0.159,0.145-0.227,0.233l-2.27,3.019C7.306,8.974,7.439,9.882,8.091,10.36c0.264,0.195,0.574,0.289,0.881,0.289  c0.449,0,0.893-0.201,1.182-0.58l1.992-2.652l2.905-0.076l-0.026,0.026c-1.021,1.027-2.887,2.859-3.533,3.408  c-1.171,0.995-1.966,1.974-2.407,2.93c-0.018,0.027-0.039,0.05-0.055,0.078l-0.053,0.163c-0.067,0.168-0.119,0.335-0.163,0.5  L7.72,17.813l-6.988,5.725c-0.854,0.699-0.979,1.959-0.279,2.814c0.396,0.482,0.971,0.732,1.549,0.732  c0.445,0,0.895-0.148,1.266-0.453c0,0,7.646-6.326,7.77-6.549l0.882-2.573l2.349,2.819l-4.965,4.135  c-0.848,0.707-0.963,1.969-0.256,2.818C9.443,27.756,10.011,28,10.583,28c0.451,0,0.906-0.152,1.279-0.463l6.5-5.416  c0.85-0.707,0.963-1.969,0.256-2.818l-2.9-3.481c0.041-0.035,0.069-0.063,0.115-0.103c1.066-0.906,3.646-3.488,3.938-3.777  l0.507-0.508l1.558,5.609h4.74c0.785,0,1.424-0.627,1.424-1.4S27.361,14.242,26.576,14.242z"/>
<circle cx="24" cy="4" r="4"/>
</svg>
