<?xml version="1.0" encoding="UTF-8"?>
<!DOCTYPE svg PUBLIC "-//W3C//DTD SVG 1.1 Tiny//EN" "http://www.w3.org/Graphics/SVG/1.1/DTD/svg11-tiny.dtd">
<svg baseProfile="tiny" height="30px" version="1.1" viewBox="0 0 30 30" width="30px" x="0px" xmlns="http://www.w3.org/2000/svg" xmlns:xlink="http://www.w3.org/1999/xlink" y="0px">
<g fill-opacity="0.5" stroke-opacity="0.5">
<rect fill="none" height="30" width="30"/>
</g>
<path d="M27,4H3C1.896,4,1,4.896,1,6v18c0,1.104,0.896,2,2,2h24c1.104,0,2-0.896,2-2V6C29,4.896,28.104,4,27,4z M8.235,19.2H2.661  v-1.338h1.84v-6.088l-1.84,0.422v-1.335l2.724-0.859l1.11-0.009v7.869h1.74V19.2z M10.904,18.963  c-0.22,0.22-0.489,0.331-0.801,0.331S9.521,19.181,9.3,18.96c-0.221-0.222-0.334-0.49-0.334-0.798c0-0.312,0.112-0.581,0.332-0.798  c0.22-0.218,0.491-0.328,0.806-0.328c0.311,0,0.58,0.11,0.8,0.328c0.22,0.217,0.332,0.486,0.332,0.798S11.124,18.743,10.904,18.963z   M16.611,18.575c-0.557,0.477-1.389,0.719-2.477,0.719c-0.64,0-1.305-0.096-1.976-0.283l-0.146-0.041v-1.371h0.2  c0.807,0.193,1.399,0.287,1.822,0.287c0.474,0,0.83-0.115,1.057-0.343c0.228-0.228,0.343-0.585,0.343-1.063  c0-0.514-0.132-0.867-0.403-1.079c-0.194-0.152-0.716-0.333-2.098-0.333h-0.2V13.69h0.2c1.365,0,1.854-0.166,2.023-0.306  c0.239-0.196,0.354-0.499,0.354-0.924c0-0.372-0.091-0.638-0.28-0.815c-0.189-0.178-0.487-0.268-0.885-0.268  c-0.378,0-0.927,0.098-1.628,0.292h-0.2l-0.065-0.193v-1.188l0.152-0.038c0.747-0.187,1.433-0.282,2.041-0.282  c0.937,0,1.657,0.196,2.141,0.583c0.497,0.397,0.749,0.994,0.749,1.773c0,0.538-0.149,1.009-0.444,1.401  c-0.188,0.247-0.426,0.45-0.714,0.606c0.327,0.136,0.597,0.335,0.806,0.595c0.319,0.396,0.481,0.895,0.481,1.482  C17.464,17.361,17.178,18.09,16.611,18.575z M26.429,19.2h-1.994v-5.435l-1.325,2.529h-0.916l-1.331-2.531V19.2h-2v-9.137h1.669  l2.123,4.042l2.123-4.042h1.651V19.2z"/>
</svg>
