<?xml version="1.0" encoding="UTF-8"?>
<!DOCTYPE svg PUBLIC "-//W3C//DTD SVG 1.1 Tiny//EN" "http://www.w3.org/Graphics/SVG/1.1/DTD/svg11-tiny.dtd">
<svg baseProfile="tiny" height="30px" version="1.1" viewBox="-1 -1 30 30" width="30px" x="0px" xmlns="http://www.w3.org/2000/svg" xmlns:xlink="http://www.w3.org/1999/xlink" y="0px">
<path d="M22.357,27c-0.208,0-0.416-0.064-0.592-0.193L14,21.103l-7.765,5.704C6.059,26.936,5.852,27,5.643,27  s-0.418-0.065-0.595-0.196c-0.353-0.261-0.493-0.721-0.349-1.135l3.174-9.044l-7.471-5.563c-0.346-0.258-0.487-0.708-0.352-1.117  C0.187,9.536,0.568,9.259,1,9.259h9.217l2.826-8.571C13.176,0.281,13.553,0.005,13.98,0c0.004,0,0.008,0,0.012,0  c0.177,0,0.345,0.047,0.492,0.13c0.219,0.115,0.392,0.311,0.473,0.558l2.826,8.571H27c0.432,0,0.813,0.277,0.949,0.686  c0.136,0.409-0.006,0.859-0.352,1.116l-7.471,5.564l3.174,9.044c0.146,0.414,0.004,0.874-0.349,1.135  C22.775,26.935,22.566,27,22.357,27L22.357,27z"/>
</svg>
