<?xml version="1.0" encoding="UTF-8"?>
<!DOCTYPE svg PUBLIC "-//W3C//DTD SVG 1.1 Tiny//EN" "http://www.w3.org/Graphics/SVG/1.1/DTD/svg11-tiny.dtd">
<svg baseProfile="tiny" height="30" viewBox="0 0 30 30" width="30" xmlns="http://www.w3.org/2000/svg" xmlns:xlink="http://www.w3.org/1999/xlink">
<g>
<rect fill="none" height="30" width="30"/>
<path d="M15,29C7.279,29,1,22.719,1,15C1,7.279,7.279,1,15,1c7.719,0,14,6.279,14,14  C29,22.719,22.719,29,15,29L15,29z" fill-opacity="0.6" stroke-opacity="0.6"/>
<circle cx="15" cy="15" fill="url(#SVGID_1_)" r="13"/>
<path d="M15,3c7.012,0,12.71,5.555,12.975,12.5  C27.98,15.332,28,15.169,28,15c0-7.18-5.82-13-13-13C7.82,2,2,7.82,2,15c0,0.169,0.019,0.332,0.025,0.5C2.29,8.555,7.989,3,15,3z" fill="#FFFFFF" fill-opacity="0.4" stroke-opacity="0.4"/>
<path d="M13,16c0,0.553-0.447,1-1,1H6c-0.553,0-1-0.447-1-1l0,0c0-0.553,0.447-1,1-1h6  C12.553,15,13,15.447,13,16L13,16z" fill-opacity="0.2" stroke-opacity="0.2"/>
<path d="M27,16c0,0.553-0.447,1-1,1h-6c-0.553,0-1-0.447-1-1l0,0c0-0.553,0.447-1,1-1h6  C26.553,15,27,15.447,27,16L27,16z" fill-opacity="0.2" stroke-opacity="0.2"/>
<path d="M13,13h6c0.736,0,1.375,0.405,1.723,1h2.135c-0.445-1.721-1.998-3-3.855-3h-6  c-1.858,0-3.41,1.279-3.857,3h2.136C11.625,13.405,12.263,13,13,13z" fill-opacity="0.2" stroke-opacity="0.2"/>
<path d="M20.723,18c-0.348,0.596-0.984,1-1.723,1h-6c-0.737,0-1.375-0.404-1.722-1H9.143  c0.447,1.721,1.999,3,3.857,3h6c1.857,0,3.41-1.279,3.857-3H20.723z" fill-opacity="0.2" stroke-opacity="0.2"/>
<path d="M12,15c0,0.553-0.447,1-1,1H5c-0.553,0-1-0.447-1-1l0,0c0-0.553,0.447-1,1-1h6C11.553,14,12,14.447,12,15  L12,15z" fill="#FFFFFF"/>
<path d="M26,15c0,0.553-0.447,1-1,1h-6c-0.553,0-1-0.447-1-1l0,0c0-0.553,0.447-1,1-1h6C25.553,14,26,14.447,26,15  L26,15z" fill="#FFFFFF"/>
<path d="M12,12h6c0.736,0,1.375,0.405,1.723,1h2.135c-0.445-1.721-1.998-3-3.855-3h-6c-1.858,0-3.41,1.279-3.857,3  h2.136C10.625,12.405,11.263,12,12,12z" fill="#FFFFFF"/>
<path d="M19.723,17c-0.348,0.596-0.984,1-1.723,1h-6c-0.737,0-1.375-0.404-1.722-1H8.143  c0.447,1.721,1.999,3,3.857,3h6c1.857,0,3.41-1.279,3.857-3H19.723z" fill="#FFFFFF"/>
<rect fill="none" height="30" width="30"/>
<defs>
<linearGradient gradientTransform="matrix(1 0 0 1 -578.9609 -812.0391)" gradientUnits="userSpaceOnUse" id="SVGID_1_" x1="593.9609" x2="593.9609" y1="814.3145" y2="844.0474">
<stop offset="0" style="stop-color:#6DADC1"/>
<stop offset="1" style="stop-color:#3B518A"/>
</linearGradient>
</defs>
</g>
</svg>
