<?xml version="1.0" encoding="UTF-8"?>
<!DOCTYPE svg PUBLIC "-//W3C//DTD SVG 1.1 Tiny//EN" "http://www.w3.org/Graphics/SVG/1.1/DTD/svg11-tiny.dtd">
<svg baseProfile="tiny" height="30" viewBox="0 0 30 30" width="30" xmlns="http://www.w3.org/2000/svg" xmlns:xlink="http://www.w3.org/1999/xlink">
<g>
<g>
<rect fill="none" height="30" width="30"/>
</g>
<circle cx="15" cy="15" fill-opacity="0.6" r="14" stroke-opacity="0.6"/>
<radialGradient cx="15" cy="3.7026" gradientUnits="userSpaceOnUse" id="SVGID_1_" r="23.0618">
<stop offset="0" style="stop-color:#DDD7B2"/>
<stop offset="0.7818" style="stop-color:#B3964D"/>
<stop offset="1" style="stop-color:#B39C4D"/>
</radialGradient>
<path d="M15,28C7.832,28,2,22.168,2,15C2,7.832,7.832,2,15,2c7.168,0,13,5.832,13,13  C28,22.168,22.168,28,15,28L15,28z" fill="url(#SVGID_1_)"/>
<path d="M15,3c7,0,12.709,5.564,12.975,12.5C27.98,15.333,28,15.169,28,15c0-7.168-5.832-13-13-13  C7.832,2,2,7.832,2,15c0,0.169,0.019,0.333,0.025,0.5C2.291,8.564,8,3,15,3z" fill="#FFFFFF" fill-opacity="0.3" stroke-opacity="0.3"/>
<radialGradient cx="6" cy="-65.7227" gradientTransform="matrix(1 0 0 1.1014 0 84.2272)" gradientUnits="userSpaceOnUse" id="SVGID_2_" r="5.1913">
<stop offset="0" style="stop-color:#B67F64"/>
<stop offset="1" style="stop-color:#B3964D"/>
</radialGradient>
<ellipse cx="6" cy="14.746" fill="url(#SVGID_2_)" rx="4" ry="2.746"/>
<radialGradient cx="24" cy="-65.7227" gradientTransform="matrix(1 0 0 1.1014 0 84.2272)" gradientUnits="userSpaceOnUse" id="SVGID_3_" r="5.1913">
<stop offset="0" style="stop-color:#B67F64"/>
<stop offset="1" style="stop-color:#B3964D"/>
</radialGradient>
<ellipse cx="24" cy="14.746" fill="url(#SVGID_3_)" rx="4" ry="2.746"/>
<path d="M17.387,16c-1.181,0-1.919,0.746-2.386,1.25C14.534,16.746,13.794,16,12.613,16  C10,16,10,18.5,6.25,19.75C8.75,19.75,7.5,26,15,26s6.25-6.25,8.75-6.25C20,18.5,20.568,16,17.387,16z" fill="#2F2021" fill-opacity="0.4" stroke-opacity="0.4"/>
<radialGradient cx="15.1372" cy="19.4775" gradientUnits="userSpaceOnUse" id="SVGID_4_" r="7.6943">
<stop offset="0" style="stop-color:#CC9A88"/>
<stop offset="1" style="stop-color:#914145"/>
</radialGradient>
<path d="M17.387,16c-1.181,0-1.919,0.746-2.386,1.25C14.534,16.746,13.794,16,12.613,16  C10,16,10,18.5,6.25,19.75c2.5,0,2.5,5,8.75,5s6.25-5,8.75-5C20,18.5,20.568,16,17.387,16z" fill="url(#SVGID_4_)"/>
<ellipse cx="14.941" cy="19.75" fill="#60323D" fill-opacity="0.9" rx="2.441" ry="0.625" stroke-opacity="0.9"/>
<ellipse cx="11.754" cy="21.625" fill="#FFFFFF" fill-opacity="0.5" rx="1.754" ry="0.625" stroke-opacity="0.5"/>
<ellipse cx="18.629" cy="21.625" fill="#FFFFFF" fill-opacity="0.5" rx="1.129" ry="0.625" stroke-opacity="0.5"/>
<path d="M9.016,11.611c-1.108,0-2.177-0.421-3.002-1.17l-0.675,0.675  c-0.195,0.195-0.512,0.195-0.707,0s-0.195-0.512,0-0.707L6.04,9l0.352,0.402c0.672,0.769,1.628,1.209,2.624,1.209  s1.952-0.44,2.624-1.209c0.182-0.209,0.498-0.23,0.706-0.047c0.208,0.182,0.229,0.498,0.047,0.706  C11.53,11.046,10.3,11.611,9.016,11.611L9.016,11.611z" fill="#FFFFFF" fill-opacity="0.3" stroke-opacity="0.3"/>
<path d="M20.984,11.611c1.108,0,2.177-0.421,3.002-1.17l0.676,0.675c0.195,0.195,0.512,0.195,0.707,0  s0.195-0.512,0-0.707L23.96,9l-0.353,0.402c-0.672,0.769-1.627,1.209-2.623,1.209s-1.951-0.44-2.623-1.209  c-0.183-0.209-0.498-0.23-0.706-0.047c-0.208,0.182-0.229,0.498-0.048,0.706C18.47,11.046,19.7,11.611,20.984,11.611L20.984,11.611z  " fill="#FFFFFF" fill-opacity="0.3" stroke-opacity="0.3"/>
<path d="M9.016,13.125c-1.108,0-2.177-0.421-3.002-1.17L5.338,12.63c-0.195,0.195-0.512,0.195-0.707,0  s-0.195-0.512,0-0.707l1.409-1.409l0.352,0.402c0.672,0.769,1.628,1.209,2.624,1.209s1.952-0.44,2.624-1.209  c0.182-0.209,0.498-0.23,0.706-0.047c0.208,0.182,0.229,0.498,0.047,0.706C11.53,12.56,10.3,13.125,9.016,13.125L9.016,13.125z" fill-opacity="0.4" stroke-opacity="0.4"/>
<path d="M20.984,13.125c1.108,0,2.177-0.421,3.002-1.17l0.676,0.675c0.195,0.195,0.512,0.195,0.707,0  s0.195-0.512,0-0.707l-1.409-1.409l-0.353,0.402c-0.672,0.769-1.627,1.209-2.623,1.209s-1.951-0.44-2.623-1.209  c-0.183-0.209-0.498-0.23-0.706-0.047c-0.208,0.182-0.229,0.498-0.048,0.706C18.47,12.56,19.7,13.125,20.984,13.125L20.984,13.125z" fill-opacity="0.4" stroke-opacity="0.4"/>
<path d="M9.016,12.313c-1.108,0-2.177-0.421-3.002-1.17l-0.675,0.675c-0.195,0.195-0.512,0.195-0.707,0  s-0.195-0.512,0-0.707L6.04,9.701l0.352,0.402c0.672,0.769,1.628,1.209,2.624,1.209s1.952-0.44,2.624-1.209  c0.182-0.209,0.498-0.23,0.706-0.047c0.208,0.182,0.229,0.498,0.047,0.706C11.53,11.747,10.3,12.313,9.016,12.313L9.016,12.313z" fill="#2F2021"/>
<path d="M20.984,12.313c1.108,0,2.177-0.421,3.002-1.17l0.676,0.675c0.195,0.195,0.512,0.195,0.707,0  s0.195-0.512,0-0.707L23.96,9.701l-0.353,0.402c-0.672,0.769-1.627,1.209-2.623,1.209s-1.951-0.44-2.623-1.209  c-0.183-0.209-0.498-0.23-0.706-0.047c-0.208,0.182-0.229,0.498-0.048,0.706C18.47,11.747,19.7,12.313,20.984,12.313L20.984,12.313z  " fill="#2F2021"/>
</g>
</svg>
