<?xml version="1.0" encoding="UTF-8"?>
<!DOCTYPE svg PUBLIC "-//W3C//DTD SVG 1.1 Tiny//EN" "http://www.w3.org/Graphics/SVG/1.1/DTD/svg11-tiny.dtd">
<svg baseProfile="tiny" height="10px" version="1.1" viewBox="0 0 10 10" width="10px" x="0px" xmlns="http://www.w3.org/2000/svg" xmlns:xlink="http://www.w3.org/1999/xlink" y="0px">
<rect fill="none" height="10" width="10"/>
<rect fill="none" height="10" width="10"/>
<path d="M5,10c-1.654,0-3-1.346-3-3V0h6v7C8,8.654,6.654,10,5,10L5,10z" fill-opacity="0.35" stroke-opacity="0.35"/>
<path d="M5,10c1.656,0,3-1.343,3-3s0-7,0-7H7v7c0,1.104-0.896,2-2,2S3,8.104,3,7V0H2c0,0,0,5.855,0,7  C2,8.657,3.343,10,5,10z" fill-opacity="0.1" stroke-opacity="0.1"/>
</svg>
