<?xml version="1.0" encoding="UTF-8"?>
<!DOCTYPE svg PUBLIC "-//W3C//DTD SVG 1.1 Tiny//EN" "http://www.w3.org/Graphics/SVG/1.1/DTD/svg11-tiny.dtd">
<svg baseProfile="tiny" height="60px" version="1.1" viewBox="0 0 20 60" width="20px" x="0px" xmlns="http://www.w3.org/2000/svg" xmlns:xlink="http://www.w3.org/1999/xlink" y="0px">
<path d="M20,60H4c-2.209,0-4-1.791-4-4V4c0-2.209,1.791-4,4-4h16V60z" fill="url(#SVGID_1_)"/>
<path d="M4,1C2.346,1,1,2.346,1,4v52c0,1.654,1.346,3,3,3h15V1H4z M18,58H4c-1.103,0-2-0.897-2-2V4  c0-1.103,0.897-2,2-2h14V58z" fill="#FFFFFF" fill-opacity="0.4" stroke-opacity="0.4"/>
<path d="M4,0C1.791,0,0,1.791,0,4v52c0,2.209,1.791,4,4,4h16V0H4z M19,59H4c-1.652,0-2.998-1.346-2.998-3.001V4  c0-1.654,1.346-3,2.998-3h15V59z" fill-opacity="0.1" stroke-opacity="0.1"/>
<rect fill="#FFFFFF" fill-opacity="0.7" fill-rule="evenodd" height="1" stroke-opacity="0.7" width="8" x="6" y="21"/>
<rect fill-opacity="0.1" fill-rule="evenodd" height="1" stroke-opacity="0.1" width="8" x="6" y="20"/>
<rect fill="#FFFFFF" fill-opacity="0.7" fill-rule="evenodd" height="1" stroke-opacity="0.7" width="8" x="6" y="31"/>
<rect fill-opacity="0.1" fill-rule="evenodd" height="1" stroke-opacity="0.1" width="8" x="6" y="30"/>
<rect fill="#FFFFFF" fill-opacity="0.7" fill-rule="evenodd" height="1" stroke-opacity="0.7" width="8" x="6" y="41"/>
<rect fill-opacity="0.1" fill-rule="evenodd" height="1" stroke-opacity="0.1" width="8" x="6" y="40"/>
<defs>
<linearGradient gradientUnits="userSpaceOnUse" id="SVGID_1_" x1="9.9995" x2="9.9995" y1="0" y2="59.3335">
<stop offset="0" style="stop-color:#FAFAFF"/>
<stop offset="0.9" style="stop-color:#D2D2DC"/>
<stop offset="0.9" style="stop-color:#C8C8D2"/>
<stop offset="1" style="stop-color:#BEBEC8"/>
</linearGradient>
</defs>
</svg>
