<?xml version="1.0" encoding="UTF-8"?>
<!DOCTYPE svg PUBLIC "-//W3C//DTD SVG 1.1 Tiny//EN" "http://www.w3.org/Graphics/SVG/1.1/DTD/svg11-tiny.dtd">
<svg baseProfile="tiny" height="30" viewBox="0 0 30 30" width="30" xmlns="http://www.w3.org/2000/svg" xmlns:xlink="http://www.w3.org/1999/xlink">
<g>
<rect fill="none" height="30" width="30"/>
<polygon fill-opacity="0.6" points="3,29 3,1 19.414,1 27,8.586 27,29 "/>
<linearGradient gradientUnits="userSpaceOnUse" id="SVGID_1_" x1="14.9995" x2="14.9995" y1="2" y2="28.0005">
<stop offset="0" style="stop-color:#FFFFFF"/>
<stop offset="1" style="stop-color:#B1B1B1"/>
</linearGradient>
<polygon fill="url(#SVGID_1_)" points="26,9 26,28 4,28 4,2 19,2 "/>
<polygon fill="#FFFFFF" points="19,2 4,2 4,3 18.586,3 26,10.484 26,9 "/>
<linearGradient gradientUnits="userSpaceOnUse" id="SVGID_2_" x1="15.0005" x2="15.0005" y1="25" y2="12.0005">
<stop offset="0" style="stop-color:#666666"/>
<stop offset="1" style="stop-color:#282828"/>
</linearGradient>
<rect fill="url(#SVGID_2_)" height="13" width="16" x="7" y="12"/>
<linearGradient gradientUnits="userSpaceOnUse" id="SVGID_3_" x1="14.9995" x2="14.9995" y1="13" y2="23.9727">
<stop offset="0" style="stop-color:#D2C896"/>
<stop offset="1" style="stop-color:#B3964D"/>
</linearGradient>
<polygon fill="url(#SVGID_3_)" points="18,13 18,16 17,16 17,13 13,13 13,16 12,16 12,13 8,13 8,18 22,18 22,13 "/>
<linearGradient gradientUnits="userSpaceOnUse" id="SVGID_4_" x1="10" x2="10" y1="13.0005" y2="23.9721">
<stop offset="0" style="stop-color:#D2C896"/>
<stop offset="1" style="stop-color:#B3964D"/>
</linearGradient>
<rect fill="url(#SVGID_4_)" height="5" width="4" x="8" y="19"/>
<linearGradient gradientUnits="userSpaceOnUse" id="SVGID_5_" x1="14.9995" x2="14.9995" y1="13.0005" y2="23.9721">
<stop offset="0" style="stop-color:#D2C896"/>
<stop offset="1" style="stop-color:#B3964D"/>
</linearGradient>
<rect fill="url(#SVGID_5_)" height="5" width="4" x="13" y="19"/>
<linearGradient gradientUnits="userSpaceOnUse" id="SVGID_6_" x1="20" x2="20" y1="13.0005" y2="23.9721">
<stop offset="0" style="stop-color:#D2C896"/>
<stop offset="1" style="stop-color:#B3964D"/>
</linearGradient>
<rect fill="url(#SVGID_6_)" height="5" width="4" x="18" y="19"/>
<rect fill="#FFFFFF" fill-opacity="0.3" height="1" stroke-opacity="0.3" width="14" x="8" y="13"/>
<rect fill="none" height="30" width="30"/>
</g>
</svg>
