<?xml version="1.0" encoding="UTF-8"?>
<!DOCTYPE svg PUBLIC "-//W3C//DTD SVG 1.1 Tiny//EN" "http://www.w3.org/Graphics/SVG/1.1/DTD/svg11-tiny.dtd">
<svg baseProfile="tiny" height="30px" version="1.1" viewBox="0 0 30 30" width="30px" x="0px" xmlns="http://www.w3.org/2000/svg" xmlns:xlink="http://www.w3.org/1999/xlink" y="0px">
<path d="M25,20.748c1.023,0.381,2.02,0.894,2.969,1.558C27.984,22.205,28,22.104,28,22V2c0-1.104-0.896-2-2-2H8C6.896,0,6,0.896,6,2  v1h19V20.748z"/>
<path d="M10.428,28.235c-0.57-0.725-0.57-1.746,0-2.471c0.839-1.068,1.753-1.981,2.714-2.765H8v-2h8.381c1.487-0.647,3.04-1,4.619-1  c0.673,0,1.339,0.083,2,0.203V7c0-1.104-0.896-2-2-2H3C1.896,5,1,5.896,1,7v20c0,1.104,0.896,2,2,2h8.086  C10.866,28.748,10.64,28.506,10.428,28.235z M8,11h11v2H8V11z M8,16h11v2H8V16z M7,23H5v-2h2V23z M7,18H5v-2h2V18z M7,13H5v-2h2V13z  "/>
<path d="M30,27c-2.454-3.123-5.586-5-9-5s-6.546,1.877-9,5h2.654  c0.695-0.709,1.521-1.386,2.463-1.922C17.047,25.376,17,25.682,17,26c0,2.21,1.792,4,4,4s4-1.79,4-4  c0-0.318-0.047-0.624-0.117-0.922c0.941,0.536,1.768,1.213,2.463,1.922H30z M21,28c-1.104,0-2-0.447-2-1s0.896-1,2-1s2,0.447,2,1  S22.104,28,21,28z" fill-rule="evenodd"/>
<g fill-opacity="0.5" stroke-opacity="0.5">
<rect fill="none" height="30" width="30"/>
</g>
</svg>
