<?xml version="1.0" encoding="UTF-8"?>
<!DOCTYPE svg PUBLIC "-//W3C//DTD SVG 1.1 Tiny//EN" "http://www.w3.org/Graphics/SVG/1.1/DTD/svg11-tiny.dtd">
<svg baseProfile="tiny" height="30px" version="1.1" viewBox="0 0 30 30" width="30px" x="0px" xmlns="http://www.w3.org/2000/svg" xmlns:xlink="http://www.w3.org/1999/xlink" y="0px">
<path d="M10,24c0,1.104-0.896,2-2,2l0,0c-1.104,0-2-0.896-2-2V6c0-1.104,0.896-2,2-2l0,0c1.104,0,2,0.896,2,2V24z"/>
<path d="M22,26c-0.484,0-0.963-0.176-1.338-0.514l-10-9C10.24,16.107,10,15.566,10,15s0.24-1.107,0.662-1.486l10-9  C21.037,4.176,21.516,4,22,4c0.275,0,0.553,0.057,0.813,0.173C23.535,4.494,24,5.21,24,6v18c0,0.79-0.465,1.506-1.187,1.827  C22.553,25.943,22.275,26,22,26L22,26z"/>
<g>
<rect fill="none" height="30" width="30"/>
</g>
</svg>
