<?xml version="1.0" encoding="UTF-8"?>
<!DOCTYPE svg PUBLIC "-//W3C//DTD SVG 1.1 Tiny//EN" "http://www.w3.org/Graphics/SVG/1.1/DTD/svg11-tiny.dtd">
<svg baseProfile="tiny" height="60" viewBox="0 0 60 60" width="60" xmlns="http://www.w3.org/2000/svg" xmlns:xlink="http://www.w3.org/1999/xlink">
<g>
<linearGradient gradientUnits="userSpaceOnUse" id="SVGID_1_" x1="30" x2="30" y1="0" y2="62.1923">
<stop offset="0" style="stop-color:#754B50"/>
<stop offset="1" style="stop-color:#2F1F24"/>
</linearGradient>
<rect fill="url(#SVGID_1_)" height="60" width="60"/>
<linearGradient gradientUnits="userSpaceOnUse" id="SVGID_2_" x1="30" x2="30" y1="4.5098" y2="55.5135">
<stop offset="0" style="stop-color:#A7A8A9"/>
<stop offset="1" style="stop-color:#000000"/>
</linearGradient>
<path d="M29.999,55.926c-14.294,0-25.925-11.631-25.925-25.925  c0-14.296,11.631-25.928,25.925-25.928c14.296,0,25.927,11.632,25.927,25.928C55.926,44.295,44.295,55.926,29.999,55.926  L29.999,55.926z" fill="url(#SVGID_2_)" fill-opacity="0.2" stroke-opacity="0.2"/>
<linearGradient gradientUnits="userSpaceOnUse" id="SVGID_3_" x1="30.0005" x2="30.0005" y1="5.1992" y2="54.8236">
<stop offset="0" style="stop-color:#717172"/>
<stop offset="1" style="stop-color:#000000"/>
</linearGradient>
<path d="M29.999,55.225c-13.908,0-25.224-11.315-25.224-25.224  c0-13.909,11.315-25.227,25.224-25.227c13.91,0,25.227,11.317,25.227,25.227C55.226,43.909,43.909,55.225,29.999,55.225  L29.999,55.225z" fill="url(#SVGID_3_)" fill-opacity="0.4" stroke-opacity="0.4"/>
<linearGradient gradientUnits="userSpaceOnUse" id="SVGID_4_" x1="30.0005" x2="30.0005" y1="4.3555" y2="54.244">
<stop offset="0" style="stop-color:#FFFFFF"/>
<stop offset="1" style="stop-color:#D8D8D7"/>
</linearGradient>
<circle cx="30" cy="29.3" fill="url(#SVGID_4_)" r="24.525"/>
<linearGradient gradientUnits="userSpaceOnUse" id="SVGID_5_" x1="29.9995" x2="29.9995" y1="5.1943" y2="52.5953">
<stop offset="0" style="stop-color:#F4F5F4"/>
<stop offset="0.7818" style="stop-color:#CCCBCB"/>
<stop offset="1" style="stop-color:#D0D1D1"/>
</linearGradient>
<circle cx="30" cy="29.3" fill="url(#SVGID_5_)" r="23.477"/>
<linearGradient gradientUnits="userSpaceOnUse" id="SVGID_6_" x1="29.9995" x2="29.9995" y1="48.4443" y2="9.628">
<stop offset="0" style="stop-color:#FFFFFF"/>
<stop offset="1" style="stop-color:#A8A7A7"/>
</linearGradient>
<circle cx="30" cy="29.3" fill="url(#SVGID_6_)" r="19.495"/>
<radialGradient cx="36.7554" cy="71.5244" gradientTransform="matrix(0.9587 0 0 0.9587 -5.2375 -39.2709)" gradientUnits="userSpaceOnUse" id="SVGID_7_" r="19.2764">
<stop offset="0" style="stop-color:#636363"/>
<stop offset="0.3333" style="stop-color:#808080"/>
<stop offset="1" style="stop-color:#1B1B1C"/>
</radialGradient>
<circle cx="30" cy="29.3" fill="url(#SVGID_7_)" r="18.48"/>
<linearGradient gradientUnits="userSpaceOnUse" id="SVGID_8_" x1="29.9995" x2="29.9995" y1="42.2959" y2="14.7661">
<stop offset="0" style="stop-color:#808080"/>
<stop offset="1" style="stop-color:#1B1B1C"/>
</linearGradient>
<circle cx="30" cy="29.3" fill="url(#SVGID_8_)" r="14.393"/>
<radialGradient cx="36.6816" cy="72.1777" gradientTransform="matrix(0.9587 0 0 0.9587 -5.2375 -39.2709)" gradientUnits="userSpaceOnUse" id="SVGID_9_" r="14.4318">
<stop offset="0" style="stop-color:#B3B4B4"/>
<stop offset="1" style="stop-color:#696969"/>
</radialGradient>
<path d="M41.586,37.812l-4.756-4.216H24.035l-5.45,4.448c2.632,3.429,6.759,5.649,11.414,5.649  C34.758,43.693,38.967,41.372,41.586,37.812z" fill="url(#SVGID_9_)" fill-opacity="0.5" stroke-opacity="0.5"/>
<circle cx="30" cy="31.604" fill-opacity="0.15" r="9.327" stroke-opacity="0.15"/>
<radialGradient cx="36.792" cy="68.9736" gradientTransform="matrix(0.9587 0 0 0.9587 -5.2375 -39.2709)" gradientUnits="userSpaceOnUse" id="SVGID_10_" r="10.9541">
<stop offset="0" style="stop-color:#4D4E4E"/>
<stop offset="1" style="stop-color:#000000"/>
</radialGradient>
<circle cx="30" cy="29.3" fill="url(#SVGID_10_)" r="9.327"/>
<circle cx="30" cy="29.3" fill="none" fill-opacity="0.15" r="8.106" stroke="#EBEBEB" stroke-opacity="0.15"/>
<linearGradient gradientUnits="userSpaceOnUse" id="SVGID_11_" x1="30" x2="30" y1="20.1299" y2="38.4788">
<stop offset="0" style="stop-color:#DEDEDD"/>
<stop offset="1" style="stop-color:#A8A7A7"/>
</linearGradient>
<path d="M29.999,19.973c-5.151,0-9.326,4.176-9.326,9.327s4.175,9.327,9.326,9.327  c5.15,0,9.328-4.176,9.328-9.327S35.149,19.973,29.999,19.973z M29.999,36.636c-4.052,0-7.335-3.284-7.335-7.336  c0-4.053,3.283-7.337,7.335-7.337s7.339,3.284,7.339,7.337C37.338,33.352,34.051,36.636,29.999,36.636z" fill="url(#SVGID_11_)" fill-opacity="0.15" stroke-opacity="0.15"/>
<path d="M50.342,18.256c-11.463,0-20.624,6.636-24.617,8.388c-3.667,1.609-6.428,3.301-14.676,3.301  C2.8,29.944,0,26.088,0,26.088v2.616v1.69v4.475v0.902v3.607v3.049v4.244v0.342v1.838v4.188c0,0,10.143-18.252,19.182-22.08  c7.153-3.028,10.977-2.932,18.569-0.451C45.344,32.989,60,55.234,60,55.234v-9.348v-0.644v-0.376v-4.318v-4.553v-4.68v-1.063v-0.497  v-6.088v-3.901C60,19.768,58.35,18.186,50.342,18.256z" fill-opacity="0.2" stroke-opacity="0.2"/>
<linearGradient gradientUnits="userSpaceOnUse" id="SVGID_12_" x1="2.6997" x2="56.2554" y1="35.752" y2="35.752">
<stop offset="0" style="stop-color:#965359"/>
<stop offset="0.2" style="stop-color:#965359"/>
<stop offset="1" style="stop-color:#60353F"/>
</linearGradient>
<path d="M0,27.707v20.148c0,0,11.618-14.605,15.436-16.507s9.159-3.792,9.159-3.792s6.39-1.127,11.126-0.15  C40.457,28.384,60,43.871,60,43.871V28.76c0,0-7.363-5.111-13.228-5.111S30.27,25.04,27.076,25.903  c-3.194,0.862-2.255,0.285-10.149,3.383S0,27.707,0,27.707z" fill="url(#SVGID_12_)"/>
<linearGradient gradientUnits="userSpaceOnUse" id="SVGID_13_" x1="4.0327" x2="64.4873" y1="24.0771" y2="24.0771">
<stop offset="0" style="stop-color:#BF8A7E"/>
<stop offset="0.0848" style="stop-color:#BF8A7E"/>
<stop offset="1" style="stop-color:#995459"/>
</linearGradient>
<path d="M0,25.091c0,0,2.8,3.855,11.049,3.855c8.248,0,11.009-1.69,14.676-3.3  c3.993-1.752,13.154-8.388,24.617-8.388C58.35,17.188,60,18.77,60,18.77v3.902c0,0-5.202-2.476-9.635-2.476  c-11.072,0-20.996,4.109-24.212,5.843c-3.284,1.77-12.304,4.858-16.176,4.858c-4.036,0-9.978-1.5-9.978-1.5V25.091z" fill="url(#SVGID_13_)"/>
<linearGradient gradientUnits="userSpaceOnUse" id="SVGID_14_" x1="2.6997" x2="56.2554" y1="39.9023" y2="39.9023">
<stop offset="0" style="stop-color:#965359"/>
<stop offset="0.2" style="stop-color:#965359"/>
<stop offset="1" style="stop-color:#60353F"/>
</linearGradient>
<path d="M0,50.711c0,0,10.143-16.921,19.182-20.748c7.153-3.029,10.977-2.933,18.569-0.451  C45.344,31.992,60,52.908,60,52.908v-8.662c0,0-8.652-9.266-13.979-12.78c-5.95-3.925-14.173-4.938-19.245-4.46  c-3.7,0.349-11.979,3.563-17.667,8.82C4.345,40.229,0,45.675,0,45.675V50.711z" fill="url(#SVGID_14_)"/>
<linearGradient gradientUnits="userSpaceOnUse" id="SVGID_15_" x1="4.0327" x2="64.4873" y1="36.2725" y2="36.2725">
<stop offset="0" style="stop-color:#BF8A7E"/>
<stop offset="0.0848" style="stop-color:#BF8A7E"/>
<stop offset="1" style="stop-color:#995459"/>
</linearGradient>
<path d="M0,46.017c0,0,10.175-12.62,19.182-16.521c6.297-2.728,10.858-3.021,18.569-1.347  C44.894,29.699,60,44.889,60,44.889v-5.338c0,0-8.594-6.087-13.979-9.514c-5.601-3.563-14.173-3.803-19.245-3.326  c-3.7,0.349-12.708,4.342-17.667,7.988C3.883,38.54,0,41.431,0,41.431V46.017z" fill="url(#SVGID_15_)"/>
<linearGradient gradientUnits="userSpaceOnUse" id="SVGID_16_" x1="2.6997" x2="56.2554" y1="27.4854" y2="27.4854">
<stop offset="0" style="stop-color:#965359"/>
<stop offset="0.2" style="stop-color:#965359"/>
<stop offset="0.3968" style="stop-color:#60353F"/>
<stop offset="1" style="stop-color:#60353F"/>
</linearGradient>
<path d="M26.153,26.039c-3.284,1.77-12.304,4.858-16.176,4.858c-4.036,0-9.978-1.5-9.978-1.5v5.376  c0,0,2.909-0.733,8.338-1.645c4.005-0.672,14.265-5.91,18.889-7.038c4.623-1.127,17.041-1.691,23.625,0.384  C57.504,28.571,60,30.319,60,30.319v-7.647c0,0-5.202-2.476-9.635-2.476C39.293,20.196,29.369,24.306,26.153,26.039z" fill="url(#SVGID_16_)"/>
<linearGradient gradientUnits="userSpaceOnUse" id="SVGID_17_" x1="4.0327" x2="64.4873" y1="31.3799" y2="31.3799">
<stop offset="0" style="stop-color:#BF8A7E"/>
<stop offset="0.0848" style="stop-color:#BF8A7E"/>
<stop offset="1" style="stop-color:#995459"/>
</linearGradient>
<path d="M50.852,25.195c-6.664-1.803-19.002-0.231-23.625,0.896c-4.624,1.128-15.61,6.444-18.889,7.038  C2.922,34.109,0,33.871,0,33.871v4.512c0,0,13.228-7.357,24.221-11.104c3.269-1.113,6.47-1.525,9.133-1.525  c5.98,0,8.374,0.453,13.908,2.104C54.816,30.113,60,34.999,60,34.999v-5.742C59.371,28.858,57.523,26.999,50.852,25.195z" fill="url(#SVGID_17_)"/>
<path d="M42.354,41.455c0,0.924-0.567,1.772-1.367,2.389c-0.78,0.615-1.807,0.984-2.71,0.984  c-0.574,0-1.108-0.184-1.478-0.492c-0.39-0.308-0.616-0.76-0.616-1.293c0-0.842,0.574-1.684,1.355-2.299  c0.779-0.637,1.765-1.047,2.586-1.047c0.719,0,1.305,0.078,1.675,0.426V24.313h0.555c0.042,0.739,0.151,1.776,1.034,2.576  c1.006,0.883,1.93,1.766,2.566,2.565c0.841,1.048,1.437,2.36,1.437,3.694c0,0.678-0.103,1.376-0.288,2.033  c0.35,0.697,0.534,1.437,0.534,2.278c0,1.437-0.416,2.622-1.011,3.606h-0.334c0.432-0.656,0.934-2.211,0.893-3.196  c-0.041-1.088-0.123-1.724-0.82-2.587c-0.801-0.984-2.861-2.016-4.011-2.815V41.455z M46.857,33.354  c-0.041-1.088-0.574-1.929-1.272-2.792c-0.8-0.984-2.081-1.82-3.23-2.478c0.042,1.478,0.993,2.991,1.876,3.792  c1.006,0.883,1.498,1.354,2.094,2.094c0.185,0.225,0.325,0.49,0.469,0.717C46.834,34.256,46.878,33.703,46.857,33.354z" fill-opacity="0.3" stroke-opacity="0.3"/>
<path d="M10.249,25.854c0.273-0.042,0.547-0.063,0.82-0.063c2.673-0.021,4.546,2.377,4.524,5.092  c0,2.252-1.347,3.914-3.346,4.882l0.842,4.272c0.063,0.357,0.063,0.673,0.063,0.967c0,2.146-1.348,3.536-3.578,3.768  c-1.746,0.189-3.745-1.01-3.935-2.904c-0.126-1.263,0.736-2.566,1.957-2.715c1.115-0.126,2.125,0.863,2.167,2.021  c0.063,1.62-1.536,2.146-2.146,1.999c0.063,0.716,1.305,0.989,1.895,0.926c1.957-0.23,2.883-1.43,2.946-3.135  c0-0.463-0.043-1.011-0.169-1.537l-0.716-3.366c-0.673,0.189-1.325,0.273-1.957,0.273c-3.619,0-6.565-3.073-6.859-7.05  c-0.316-4.103,2.987-7.154,5.534-9.764c-0.379-1.557-0.61-3.072-0.61-4.671c0-1.915,0.884-5.829,2.883-6.566  c0.863-0.336,2.462,3.894,2.42,6.229c-0.042,2.946-1.389,5.766-3.451,7.807L10.249,25.854z M10.06,28.357  c-1.179,0.358-2.188,1.578-2.167,2.883c0,1.115,0.736,1.831,1.662,2.273c0.104,0.041,0.147,0.126,0.147,0.209  c0,0.127-0.147,0.232-0.295,0.211c-1.6-0.547-2.735-2.104-2.715-3.871c0-1.726,1.368-3.473,2.904-4.04l-0.632-3.178  c-2.23,1.979-4.692,4.335-4.713,7.597c0,3.281,2.777,5.303,5.786,5.176c0.484-0.021,0.947-0.105,1.41-0.252L10.06,28.357z   M12.122,12.744c-0.021-0.674-0.421-1.347-1.158-1.347c-1.768,0.357-2.398,3.388-2.44,4.902c0,0.884,0.147,1.789,0.357,2.652  C10.564,17.5,12.206,15.122,12.122,12.744z M12.122,35.154c1.263-0.674,2.125-2.041,2.063-3.556  c-0.147-1.937-1.579-3.346-3.452-3.325L12.122,35.154z" fill-opacity="0.3" stroke-opacity="0.3"/>
<path d="M25.243,17.415h0.327V27.66c-0.024,1.054-1.352,1.964-2.356,1.964c-0.303,0-0.609-0.039-0.852-0.196  c-0.387-0.255-0.471-0.665-0.458-1.113c0.036-1.077,1.315-1.927,2.356-1.963c0.303-0.013,0.606,0.019,0.982,0.261V17.415z" fill-opacity="0.3" stroke-opacity="0.3"/>
<path d="M33.052,16.219h0.327v10.244c-0.023,1.054-1.352,1.965-2.357,1.965c-0.302,0-0.608-0.039-0.851-0.197  c-0.388-0.254-0.471-0.664-0.458-1.112c0.036-1.078,1.314-1.928,2.357-1.964c0.302-0.012,0.605,0.02,0.981,0.262V16.219z" fill-opacity="0.3" stroke-opacity="0.3"/>
<path d="M40.191,13.56h0.328v10.245c-0.025,1.054-1.352,1.964-2.357,1.964c-0.303,0-0.609-0.039-0.851-0.196  c-0.388-0.255-0.471-0.665-0.458-1.113c0.035-1.078,1.314-1.928,2.355-1.964c0.303-0.012,0.607,0.02,0.982,0.262V13.56z" fill-opacity="0.3" stroke-opacity="0.3"/>
<path d="M46.692,9.718h0.327v10.245c-0.024,1.054-1.352,1.964-2.357,1.964c-0.303,0-0.608-0.039-0.85-0.196  c-0.389-0.254-0.471-0.665-0.459-1.112c0.036-1.078,1.314-1.928,2.356-1.964c0.303-0.013,0.606,0.02,0.982,0.262V9.718z" fill-opacity="0.3" stroke-opacity="0.3"/>
<path d="M52.896,9.718h0.328v10.245c-0.024,1.054-1.352,1.964-2.357,1.964c-0.303,0-0.609-0.039-0.851-0.196  c-0.388-0.254-0.471-0.665-0.458-1.112c0.036-1.078,1.314-1.928,2.356-1.964c0.303-0.013,0.606,0.02,0.981,0.262V9.718z" fill-opacity="0.3" stroke-opacity="0.3"/>
<path d="M57.045,16.525h0.327V26.77c-0.024,1.054-1.351,1.965-2.356,1.965c-0.303,0-0.609-0.039-0.852-0.197  c-0.387-0.254-0.471-0.664-0.458-1.112c0.036-1.078,1.315-1.928,2.356-1.964c0.303-0.012,0.607,0.02,0.982,0.262V16.525z" fill-opacity="0.3" stroke-opacity="0.3"/>
<path d="M52.126,52.258c1.521-1.018,2.489-1.58,3.339-3.062c0.365-0.642,0.632-1.562,0.632-2.232  c0-0.544-0.029-0.948-0.237-1.344c-0.236-0.454-0.74-0.81-1.393-0.751c-0.434,0.04-0.958,0.198-1.176,0.436  c-0.118,0.128-0.227,0.306-0.296,0.454c-0.06,0.128,0,0.325,0.237,0.336c0.089,0,0.286-0.079,0.395-0.089  c0.514-0.059,0.939,0.355,0.939,0.8c0,0.435-0.386,0.889-0.998,0.889c-0.633,0-1.166-0.435-1.186-1.057  c-0.02-0.661,0.415-1.333,1.027-1.669c0.326-0.207,1.037-0.395,1.383-0.395c0.633,0,1.195,0.107,1.787,0.602  c0.594,0.494,0.791,0.898,0.88,1.729c0.128,1.176-0.85,2.717-1.798,3.496c-0.889,0.732-2.252,1.473-3.477,2.065L52.126,52.258z   M58.418,45.334c0.326,0,0.533,0.267,0.533,0.533c0,0.277-0.207,0.543-0.533,0.543c-0.346,0-0.543-0.266-0.543-0.543  C57.875,45.601,58.072,45.334,58.418,45.334z M58.418,47.497c0.326,0,0.533,0.267,0.533,0.534c0,0.275-0.207,0.543-0.533,0.543  c-0.346,0-0.543-0.268-0.543-0.543C57.875,47.764,58.072,47.497,58.418,47.497z" fill-opacity="0.3" stroke-opacity="0.3"/>
<path d="M42.021,40.791c0,0.923-0.566,1.771-1.367,2.389c-0.779,0.615-1.807,0.984-2.709,0.984  c-0.575,0-1.108-0.185-1.479-0.493c-0.39-0.308-0.615-0.759-0.615-1.293c0-0.841,0.574-1.683,1.354-2.299  c0.78-0.637,1.765-1.047,2.587-1.047c0.719,0,1.305,0.077,1.674,0.427V23.648h0.555c0.042,0.738,0.152,1.775,1.035,2.576  c1.006,0.882,1.93,1.765,2.565,2.565c0.842,1.047,1.437,2.36,1.437,3.694c0,0.678-0.102,1.375-0.287,2.031  c0.35,0.698,0.533,1.438,0.533,2.279c0,1.438-0.416,2.621-1.011,3.607h-0.333c0.432-0.657,0.934-2.211,0.893-3.197  c-0.041-1.088-0.123-1.724-0.82-2.586c-0.801-0.985-2.861-2.016-4.012-2.816V40.791z M46.525,32.689  c-0.041-1.088-0.574-1.93-1.272-2.791c-0.801-0.985-2.081-1.821-3.231-2.479c0.042,1.479,0.994,2.991,1.877,3.791  c1.006,0.883,1.498,1.355,2.094,2.094c0.184,0.227,0.324,0.491,0.469,0.717C46.502,33.591,46.546,33.039,46.525,32.689z" fill="#FFFFFF"/>
<path d="M9.916,25.189c0.274-0.042,0.548-0.063,0.821-0.063c2.673-0.021,4.546,2.378,4.524,5.093  c0,2.251-1.347,3.913-3.346,4.881l0.842,4.271c0.063,0.358,0.063,0.674,0.063,0.969c0,2.146-1.347,3.535-3.577,3.768  c-1.747,0.189-3.746-1.011-3.936-2.904c-0.126-1.264,0.736-2.567,1.957-2.715c1.115-0.127,2.126,0.863,2.168,2.02  c0.063,1.621-1.536,2.146-2.146,2c0.063,0.715,1.305,0.988,1.894,0.926c1.957-0.232,2.883-1.432,2.946-3.137  c0-0.463-0.042-1.01-0.168-1.535l-0.716-3.367c-0.673,0.189-1.326,0.273-1.957,0.273c-3.62,0-6.565-3.072-6.86-7.049  c-0.315-4.104,2.988-7.154,5.534-9.764c-0.378-1.558-0.609-3.073-0.609-4.672c0-1.915,0.884-5.829,2.883-6.565  c0.862-0.337,2.462,3.893,2.42,6.229c-0.043,2.946-1.389,5.766-3.451,7.808L9.916,25.189z M9.728,27.693  c-1.179,0.357-2.188,1.578-2.168,2.883c0,1.115,0.736,1.83,1.662,2.271c0.105,0.043,0.147,0.127,0.147,0.211  c0,0.127-0.147,0.232-0.295,0.211c-1.599-0.547-2.735-2.105-2.714-3.872c0-1.726,1.367-3.472,2.904-4.04L8.633,22.18  c-2.23,1.979-4.692,4.335-4.714,7.597c0,3.282,2.778,5.303,5.787,5.177c0.484-0.021,0.947-0.105,1.41-0.253L9.728,27.693z   M11.789,12.079c-0.021-0.674-0.421-1.347-1.157-1.347c-1.768,0.357-2.398,3.388-2.44,4.903c0,0.884,0.146,1.788,0.357,2.651  C10.232,16.835,11.874,14.457,11.789,12.079z M11.789,34.49c1.263-0.674,2.126-2.042,2.063-3.557  c-0.147-1.936-1.578-3.346-3.451-3.325L11.789,34.49z" fill="#FFFFFF"/>
<path d="M24.911,16.751h0.327v10.244c-0.024,1.054-1.352,1.964-2.357,1.964c-0.303,0-0.608-0.039-0.851-0.196  c-0.388-0.254-0.471-0.665-0.458-1.112c0.036-1.078,1.314-1.928,2.356-1.964c0.303-0.012,0.606,0.02,0.982,0.262V16.751z" fill="#FFFFFF"/>
<path d="M32.719,15.554h0.328v10.245c-0.024,1.054-1.352,1.964-2.357,1.964c-0.303,0-0.609-0.039-0.851-0.196  c-0.388-0.255-0.471-0.665-0.458-1.113c0.036-1.077,1.314-1.927,2.356-1.963c0.302-0.013,0.606,0.019,0.981,0.261V15.554z" fill="#FFFFFF"/>
<path d="M39.859,12.895h0.327V23.14c-0.024,1.054-1.352,1.964-2.356,1.964c-0.303,0-0.609-0.039-0.852-0.196  c-0.387-0.255-0.471-0.665-0.458-1.113c0.036-1.077,1.315-1.928,2.356-1.964c0.303-0.012,0.606,0.02,0.982,0.262V12.895z" fill="#FFFFFF"/>
<path d="M46.359,9.053h0.328v10.245c-0.024,1.054-1.352,1.965-2.357,1.965c-0.303,0-0.609-0.039-0.851-0.197  c-0.388-0.254-0.471-0.664-0.458-1.112c0.036-1.078,1.314-1.928,2.356-1.964c0.302-0.013,0.606,0.02,0.981,0.262V9.053z" fill="#FFFFFF"/>
<path d="M52.564,9.053h0.327v10.245c-0.024,1.054-1.351,1.965-2.356,1.965c-0.303,0-0.609-0.039-0.852-0.197  c-0.387-0.254-0.471-0.664-0.458-1.112c0.036-1.078,1.315-1.928,2.356-1.964c0.303-0.013,0.607,0.02,0.982,0.262V9.053z" fill="#FFFFFF"/>
<path d="M56.713,15.86h0.327v10.245c-0.024,1.054-1.352,1.964-2.356,1.964c-0.303,0-0.609-0.039-0.852-0.196  c-0.387-0.255-0.471-0.665-0.458-1.113c0.036-1.077,1.315-1.927,2.356-1.963c0.303-0.013,0.606,0.019,0.982,0.261V15.86z" fill="#FFFFFF"/>
<path d="M51.793,51.594c1.521-1.018,2.49-1.581,3.339-3.063c0.366-0.643,0.632-1.561,0.632-2.232  c0-0.543-0.029-0.948-0.236-1.344c-0.236-0.453-0.74-0.81-1.393-0.75c-0.435,0.039-0.959,0.197-1.176,0.435  c-0.119,0.128-0.227,0.306-0.297,0.454c-0.059,0.129,0,0.326,0.238,0.336c0.088,0,0.285-0.079,0.395-0.089  c0.514-0.06,0.938,0.355,0.938,0.8c0,0.436-0.386,0.889-0.998,0.889c-0.632,0-1.165-0.434-1.185-1.057  c-0.02-0.662,0.414-1.333,1.027-1.67c0.326-0.207,1.037-0.395,1.383-0.395c0.632,0,1.195,0.109,1.787,0.604  c0.593,0.493,0.791,0.898,0.879,1.728c0.129,1.176-0.85,2.717-1.797,3.497c-0.889,0.73-2.252,1.472-3.477,2.064L51.793,51.594z   M58.086,44.669c0.326,0,0.533,0.267,0.533,0.534c0,0.275-0.207,0.543-0.533,0.543c-0.346,0-0.543-0.268-0.543-0.543  C57.543,44.936,57.74,44.669,58.086,44.669z M58.086,46.832c0.326,0,0.533,0.268,0.533,0.533c0,0.277-0.207,0.544-0.533,0.544  c-0.346,0-0.543-0.267-0.543-0.544C57.543,47.1,57.74,46.832,58.086,46.832z" fill="#FFFFFF"/>
</g>
</svg>
