<?xml version="1.0" encoding="UTF-8"?>
<!DOCTYPE svg PUBLIC "-//W3C//DTD SVG 1.1 Tiny//EN" "http://www.w3.org/Graphics/SVG/1.1/DTD/svg11-tiny.dtd">
<svg baseProfile="tiny" height="60" viewBox="0 0 60 60" width="60" xmlns="http://www.w3.org/2000/svg" xmlns:xlink="http://www.w3.org/1999/xlink">
<g>
<rect fill="none" height="60" width="60"/>
<linearGradient gradientTransform="matrix(1 0 0 -1 2194 3656.9473)" gradientUnits="userSpaceOnUse" id="SVGID_1_" x1="-2164" x2="-2164" y1="3649.3477" y2="3604.5469">
<stop offset="0" style="stop-color:#757575"/>
<stop offset="0.2424" style="stop-color:#000000"/>
<stop offset="0.8606" style="stop-color:#000000"/>
<stop offset="1" style="stop-color:#363636"/>
</linearGradient>
<path d="M56.506,7.6H3.493C2.666,7.6,2,8.27,2,9.094v41.813C2,51.732,2.666,52.4,3.493,52.4h53.013  C57.33,52.4,58,51.732,58,50.906V9.094C58,8.27,57.33,7.6,56.506,7.6z M8.719,49.413c0,0.412-0.336,0.748-0.745,0.748H4.986  c-0.412,0-0.748-0.336-0.748-0.748V47.92c0-0.41,0.336-0.746,0.748-0.746h2.987c0.409,0,0.745,0.336,0.745,0.746V49.413z   M8.719,12.08c0,0.41-0.336,0.746-0.745,0.746H4.986c-0.412,0-0.748-0.336-0.748-0.746v-1.493c0-0.409,0.336-0.748,0.748-0.748  h2.987c0.409,0,0.745,0.339,0.745,0.748V12.08z M15.438,49.413c0,0.412-0.335,0.748-0.745,0.748h-2.987  c-0.412,0-0.747-0.336-0.747-0.748V47.92c0-0.41,0.335-0.746,0.747-0.746h2.987c0.41,0,0.745,0.336,0.745,0.746V49.413z   M15.438,12.08c0,0.41-0.335,0.746-0.745,0.746h-2.987c-0.412,0-0.747-0.336-0.747-0.746v-1.493c0-0.409,0.335-0.748,0.747-0.748  h2.987c0.41,0,0.745,0.339,0.745,0.748V12.08z M22.159,49.413c0,0.412-0.337,0.748-0.747,0.748h-2.986  c-0.41,0-0.746-0.336-0.746-0.748V47.92c0-0.41,0.335-0.746,0.746-0.746h2.986c0.41,0,0.747,0.336,0.747,0.746V49.413z   M22.159,12.08c0,0.41-0.337,0.746-0.747,0.746h-2.986c-0.41,0-0.746-0.336-0.746-0.746v-1.493c0-0.409,0.335-0.748,0.746-0.748  h2.986c0.41,0,0.747,0.339,0.747,0.748V12.08z M28.88,49.413c0,0.412-0.337,0.748-0.747,0.748h-2.986  c-0.411,0-0.746-0.336-0.746-0.748V47.92c0-0.41,0.335-0.746,0.746-0.746h2.986c0.41,0,0.747,0.336,0.747,0.746V49.413z   M28.88,12.08c0,0.41-0.337,0.746-0.747,0.746h-2.986c-0.411,0-0.746-0.336-0.746-0.746v-1.493c0-0.409,0.335-0.748,0.746-0.748  h2.986c0.41,0,0.747,0.339,0.747,0.748V12.08z M35.6,49.413c0,0.412-0.338,0.748-0.747,0.748h-2.985  c-0.412,0-0.748-0.336-0.748-0.748V47.92c0-0.41,0.336-0.746,0.748-0.746h2.985c0.409,0,0.747,0.336,0.747,0.746V49.413z   M35.6,12.08c0,0.41-0.338,0.746-0.747,0.746h-2.985c-0.412,0-0.748-0.336-0.748-0.746v-1.493c0-0.409,0.336-0.748,0.748-0.748  h2.985c0.409,0,0.747,0.339,0.747,0.748V12.08z M42.318,49.413c0,0.412-0.335,0.748-0.745,0.748h-2.987  c-0.412,0-0.746-0.336-0.746-0.748V47.92c0-0.41,0.334-0.746,0.746-0.746h2.987c0.41,0,0.745,0.336,0.745,0.746V49.413z   M42.318,12.08c0,0.41-0.335,0.746-0.745,0.746h-2.987c-0.412,0-0.746-0.336-0.746-0.746v-1.493c0-0.409,0.334-0.748,0.746-0.748  h2.987c0.41,0,0.745,0.339,0.745,0.748V12.08z M49.039,49.413c0,0.412-0.336,0.748-0.746,0.748h-2.987  c-0.41,0-0.745-0.336-0.745-0.748V47.92c0-0.41,0.335-0.746,0.745-0.746h2.987c0.41,0,0.746,0.336,0.746,0.746V49.413z   M49.039,12.08c0,0.41-0.336,0.746-0.746,0.746h-2.987c-0.41,0-0.745-0.336-0.745-0.746v-1.493c0-0.409,0.335-0.748,0.745-0.748  h2.987c0.41,0,0.746,0.339,0.746,0.748V12.08z M55.761,49.413c0,0.412-0.339,0.748-0.748,0.748h-2.987  c-0.41,0-0.745-0.336-0.745-0.748V47.92c0-0.41,0.335-0.746,0.745-0.746h2.987c0.409,0,0.748,0.336,0.748,0.746V49.413z   M55.761,12.08c0,0.41-0.339,0.746-0.748,0.746h-2.987c-0.41,0-0.745-0.336-0.745-0.746v-1.493c0-0.409,0.335-0.748,0.745-0.748  h2.987c0.409,0,0.748,0.339,0.748,0.748V12.08z" fill="url(#SVGID_1_)"/>
<path d="M56.506,7.6H3.493C2.666,7.6,2,8.27,2,9.094v0.745  c0-0.824,0.666-1.493,1.493-1.493h53.013C57.33,8.346,58,9.015,58,9.839V9.094C58,8.27,57.33,7.6,56.506,7.6z" fill="#FFFFFF" fill-opacity="0.55" stroke-opacity="0.55"/>
<path d="M3.493,52.4h53.013C57.33,52.4,58,51.732,58,50.906v-0.745  c0,0.824-0.67,1.493-1.494,1.493H3.493C2.666,51.654,2,50.985,2,50.161v0.745C2,51.732,2.666,52.4,3.493,52.4z" fill="#FFFFFF" fill-opacity="0.1" stroke-opacity="0.1"/>
<linearGradient gradientTransform="matrix(1 0 0 -1 2194 3656.9473)" gradientUnits="userSpaceOnUse" id="SVGID_2_" x1="-2164" x2="-2164" y1="3641.7637" y2="3611.8926">
<stop offset="0" style="stop-color:#000000"/>
<stop offset="0.5" style="stop-color:#666666"/>
<stop offset="1" style="stop-color:#000000"/>
</linearGradient>
<rect fill="url(#SVGID_2_)" height="29.871" width="56" x="2" y="15.064"/>
<linearGradient gradientTransform="matrix(1 0 0 -1 2194 3656.9473)" gradientUnits="userSpaceOnUse" id="SVGID_3_" x1="-2164.0005" x2="-2164.0005" y1="3612.0117" y2="3641.8828">
<stop offset="0" style="stop-color:#72B9C3"/>
<stop offset="1" style="stop-color:#546F9F"/>
</linearGradient>
<path d="M55.761,43.441c0,0.821-0.673,1.494-1.493,1.494H5.732c-0.82,0-1.494-0.673-1.494-1.494V16.559  c0-0.819,0.674-1.494,1.494-1.494h48.535c0.82,0,1.493,0.675,1.493,1.494V43.441z" fill="url(#SVGID_3_)"/>
<path d="M54.268,43.441H5.732c-0.82,0-1.494,0.074-1.494-0.748l0,0  c0,0.822,0.674,1.493,1.494,1.493h48.535c0.82,0,1.493-0.671,1.493-1.493l0,0C55.761,43.516,55.088,43.441,54.268,43.441z" fill="#FFFFFF" fill-opacity="0.5" stroke-opacity="0.5"/>
<linearGradient gradientTransform="matrix(1 0 0 -1 2194 3656.9473)" gradientUnits="userSpaceOnUse" id="SVGID_4_" x1="-2164.0005" x2="-2164.0005" y1="3641.8828" y2="3611.8926">
<stop offset="0" style="stop-color:#000000"/>
<stop offset="1" style="stop-color:#404040"/>
</linearGradient>
<path d="M54.268,15.813c0.41,0,0.745,0.336,0.745,0.745v26.883c0,0.412-0.335,0.745-0.745,0.745H5.732  c-0.411,0-0.746-0.333-0.746-0.745V16.559c0-0.409,0.335-0.745,0.746-0.745H54.268 M54.268,15.064H5.732  c-0.82,0-1.494,0.675-1.494,1.494v26.883c0,0.821,0.674,1.494,1.494,1.494h48.535c0.82,0,1.493-0.673,1.493-1.494V16.559  C55.761,15.739,55.088,15.064,54.268,15.064L54.268,15.064z" fill="url(#SVGID_4_)"/>
<path d="M54.268,24.025v-5.974c0-0.824-0.67-1.493-1.494-1.493H7.226  c-0.824,0-1.493,0.669-1.493,1.493v9.709L54.268,24.025z" fill="#FFFFFF" fill-opacity="0.2" stroke-opacity="0.2"/>
<rect fill="none" height="60" width="60"/>
</g>
<g transform="matrix(1 0 0 1 30 30)">
<polygon fill="none" points="0,4.111 0,24.333 0,30 30,30 30,24.333 30,4.111 30,0 0,0 "/>
<path d="M8.389,27.667c-0.893,0-1.633-0.681-1.74-1.557H1.777C0.797,26.11,0,25.313,0,24.333V4.111  c0-0.98,0.797-1.777,1.777-1.777h26.444c0.98,0,1.778,0.797,1.778,1.777v20.222c0,0.98-0.798,1.777-1.778,1.777h-4.87  c-0.108,0.876-0.848,1.557-1.74,1.557H8.389z" fill-opacity="0.35" stroke-opacity="0.35"/>
<linearGradient gradientUnits="userSpaceOnUse" id="SVGID_1__" x1="15" x2="15" y1="26.5859" y2="24.8039">
<stop offset="0" style="stop-color:#404040"/>
<stop offset="1" style="stop-color:#000000"/>
</linearGradient>
<path d="M22.365,25.889c0,0.431-0.338,0.778-0.754,0.778H8.389c-0.416,0-0.754-0.348-0.754-0.778l0,0  c0-0.43-0.023-1.166-0.023-1.166h14.777C22.389,24.723,22.365,25.459,22.365,25.889L22.365,25.889z" fill="url(#SVGID_1__)"/>
<linearGradient gradientUnits="userSpaceOnUse" id="SVGID_2__" x1="15" x2="15" y1="3.2046" y2="25.112">
<stop offset="0" style="stop-color:#F2F2F2"/>
<stop offset="0.1212" style="stop-color:#F2F2F2"/>
<stop offset="0.5515" style="stop-color:#AFB3B2"/>
<stop offset="1" style="stop-color:#E7E8E7"/>
</linearGradient>
<path d="M29,24.333c0,0.431-0.35,0.777-0.778,0.777H1.777C1.348,25.11,1,24.764,1,24.333V4.111  c0-0.429,0.348-0.777,0.777-0.777h26.444C28.65,3.334,29,3.683,29,4.111V24.333z" fill="url(#SVGID_2__)"/>
<path d="M28.222,24.723H1.777C1.348,24.723,1,24.374,1,23.944v0.389c0,0.431,0.348,0.777,0.777,0.777  h26.444c0.429,0,0.778-0.347,0.778-0.777v-0.389C29,24.374,28.65,24.723,28.222,24.723z" fill="#222021" fill-opacity="0.3" stroke-opacity="0.3"/>
<linearGradient gradientUnits="userSpaceOnUse" id="SVGID_3__" x1="14.999" x2="14.999" y1="20.7036" y2="5.2349">
<stop offset="0" style="stop-color:#72B9C3"/>
<stop offset="1" style="stop-color:#546F9F"/>
</linearGradient>
<rect fill="url(#SVGID_3__)" height="15.943" width="24.889" x="2.555" y="4.89"/>
<rect fill="#FFFFFF" height="0.39" width="24.889" x="2.555" y="20.443"/>
<polygon fill="#FFFFFF" fill-opacity="0.2" points="2.95,13.056 27.055,9.876 27.055,5.277 2.943,5.277 " stroke-opacity="0.2"/>
<linearGradient gradientUnits="userSpaceOnUse" id="SVGID_4__" x1="14.999" x2="14.999" y1="24.2773" y2="21.3131">
<stop offset="0" style="stop-color:#83BEB9"/>
<stop offset="1" style="stop-color:#5473A3"/>
</linearGradient>
<path d="M15,21.806c0.537,0,0.971,0.436,0.971,0.972S15.537,23.75,15,23.75c-0.535,0-0.973-0.437-0.973-0.973  S14.465,21.806,15,21.806 M15,21.222c-0.859,0-1.557,0.697-1.557,1.556c0,0.859,0.697,1.556,1.557,1.556s1.555-0.696,1.555-1.556  C16.555,21.919,15.859,21.222,15,21.222L15,21.222z" fill="url(#SVGID_4__)"/>
<linearGradient gradientUnits="userSpaceOnUse" id="SVGID_5_" x1="15" x2="15" y1="3.7866" y2="24.3979">
<stop offset="0" style="stop-color:#E7E8E7"/>
<stop offset="1" style="stop-color:#AFB3B2"/>
</linearGradient>
<path d="M27.832,3.722H2.166c-0.43,0-0.777,0.349-0.777,0.778v19.055c0,0.431,0.348,0.778,0.777,0.778h11.369  c-0.414-0.39-0.674-0.941-0.674-1.556c0-0.613,0.26-1.165,0.674-1.556H2.166V4.5h25.666v16.722H16.465  c0.414,0.391,0.674,0.942,0.674,1.556c0,0.614-0.26,1.166-0.674,1.556h11.367c0.43,0,0.779-0.348,0.779-0.778V4.5  C28.611,4.07,28.262,3.722,27.832,3.722z" fill="url(#SVGID_5_)"/>
<path d="M21.611,26.277H8.389c-0.35,0-0.643-0.248-0.727-0.583c-0.016,0.063-0.027,0.127-0.027,0.194  c0,0.431,0.338,0.778,0.754,0.778h13.223c0.416,0,0.754-0.348,0.754-0.778c0-0.067-0.012-0.132-0.027-0.194  C22.254,26.029,21.963,26.277,21.611,26.277z" fill="#FFFFFF" fill-opacity="0.35" stroke-opacity="0.35"/>
<rect fill="none" height="30" width="30"/>
</g>
</svg>
