<?xml version="1.0" encoding="UTF-8"?>
<!DOCTYPE svg PUBLIC "-//W3C//DTD SVG 1.1 Tiny//EN" "http://www.w3.org/Graphics/SVG/1.1/DTD/svg11-tiny.dtd">
<svg baseProfile="tiny" height="10px" version="1.1" viewBox="0 0 10 10" width="10px" x="0px" xmlns="http://www.w3.org/2000/svg" xmlns:xlink="http://www.w3.org/1999/xlink" y="0px">
<rect fill="none" height="10" width="10"/>
<path d="M4,0C1.8,0,0,1.8,0,4v6h10V0H4z" fill="url(#SVGID_1_)"/>
<path d="M4,1C2.346,1,1,2.346,1,4v6h1V4c0-1.103,0.897-2,2-2h6V1H4z" fill="#FFFFFF" fill-opacity="0.2" stroke-opacity="0.2"/>
<path d="M4,0C1.8,0,0,1.8,0,4v6h1V4c0-1.654,1.346-3,3-3h6V0H4z" fill-opacity="0.2" stroke-opacity="0.2"/>
<defs>
<linearGradient gradientUnits="userSpaceOnUse" id="SVGID_1_" x1="5.0005" x2="5.0005" y1="50" y2="0.2494">
<stop offset="0" style="stop-color:#65B8CC"/>
<stop offset="1" style="stop-color:#306D8C"/>
</linearGradient>
</defs>
</svg>
