<?xml version="1.0" encoding="UTF-8"?>
<!DOCTYPE svg PUBLIC "-//W3C//DTD SVG 1.1 Tiny//EN" "http://www.w3.org/Graphics/SVG/1.1/DTD/svg11-tiny.dtd">
<svg baseProfile="tiny" height="30px" version="1.1" viewBox="0 0 30 30" width="30px" x="0px" xmlns="http://www.w3.org/2000/svg" xmlns:xlink="http://www.w3.org/1999/xlink" y="0px">
<g fill-opacity="0.5" stroke-opacity="0.5">
<rect fill="none" height="30" width="30"/>
</g>
<path d="M26,2H4C2.896,2,2,2.896,2,4v22c0,1.104,0.896,2,2,2h22c1.104,0,2-0.896,2-2V4C28,2.896,27.104,2,26,2z M25,21  c0,0.553-0.447,1-1,1h-7c-0.553,0-1-0.447-1-1v-1c0-0.553,0.447-1,1-1h7c0.553,0,1,0.447,1,1V21z M5,25V5h20L5,25z"/>
<path d="M7,12h2v2c0,0.553,0.447,1,1,1h1c0.553,0,1-0.447,1-1v-2h2c0.553,0,1-0.448,1-1v-1c0-0.552-0.447-1-1-1h-2V7  c0-0.552-0.447-1-1-1h-1C9.447,6,9,6.448,9,7v2H7c-0.553,0-1,0.448-1,1v1C6,11.552,6.447,12,7,12z"/>
</svg>
