<?xml version="1.0" encoding="UTF-8"?>
<!DOCTYPE svg PUBLIC "-//W3C//DTD SVG 1.1 Tiny//EN" "http://www.w3.org/Graphics/SVG/1.1/DTD/svg11-tiny.dtd">
<svg baseProfile="tiny" height="60" viewBox="0 0 60 60" width="60" xmlns="http://www.w3.org/2000/svg" xmlns:xlink="http://www.w3.org/1999/xlink">
<g>
<rect fill="none" height="60" width="60"/>
<linearGradient gradientTransform="matrix(1 0 0 -1 2194 3656.9473)" gradientUnits="userSpaceOnUse" id="SVGID_1_" x1="-2164" x2="-2164" y1="3649.3477" y2="3604.5469">
<stop offset="0" style="stop-color:#757575"/>
<stop offset="0.2424" style="stop-color:#000000"/>
<stop offset="0.8606" style="stop-color:#000000"/>
<stop offset="1" style="stop-color:#363636"/>
</linearGradient>
<path d="M56.506,7.6H3.493C2.666,7.6,2,8.27,2,9.094v41.813C2,51.732,2.666,52.4,3.493,52.4h53.013  C57.33,52.4,58,51.732,58,50.906V9.094C58,8.27,57.33,7.6,56.506,7.6z M8.719,49.413c0,0.412-0.336,0.748-0.745,0.748H4.986  c-0.412,0-0.748-0.336-0.748-0.748V47.92c0-0.41,0.336-0.746,0.748-0.746h2.987c0.409,0,0.745,0.336,0.745,0.746V49.413z   M8.719,12.08c0,0.41-0.336,0.746-0.745,0.746H4.986c-0.412,0-0.748-0.336-0.748-0.746v-1.493c0-0.409,0.336-0.748,0.748-0.748  h2.987c0.409,0,0.745,0.339,0.745,0.748V12.08z M15.438,49.413c0,0.412-0.335,0.748-0.745,0.748h-2.987  c-0.412,0-0.747-0.336-0.747-0.748V47.92c0-0.41,0.335-0.746,0.747-0.746h2.987c0.41,0,0.745,0.336,0.745,0.746V49.413z   M15.438,12.08c0,0.41-0.335,0.746-0.745,0.746h-2.987c-0.412,0-0.747-0.336-0.747-0.746v-1.493c0-0.409,0.335-0.748,0.747-0.748  h2.987c0.41,0,0.745,0.339,0.745,0.748V12.08z M22.159,49.413c0,0.412-0.337,0.748-0.747,0.748h-2.986  c-0.41,0-0.746-0.336-0.746-0.748V47.92c0-0.41,0.335-0.746,0.746-0.746h2.986c0.41,0,0.747,0.336,0.747,0.746V49.413z   M22.159,12.08c0,0.41-0.337,0.746-0.747,0.746h-2.986c-0.41,0-0.746-0.336-0.746-0.746v-1.493c0-0.409,0.335-0.748,0.746-0.748  h2.986c0.41,0,0.747,0.339,0.747,0.748V12.08z M28.88,49.413c0,0.412-0.337,0.748-0.747,0.748h-2.986  c-0.411,0-0.746-0.336-0.746-0.748V47.92c0-0.41,0.335-0.746,0.746-0.746h2.986c0.41,0,0.747,0.336,0.747,0.746V49.413z   M28.88,12.08c0,0.41-0.337,0.746-0.747,0.746h-2.986c-0.411,0-0.746-0.336-0.746-0.746v-1.493c0-0.409,0.335-0.748,0.746-0.748  h2.986c0.41,0,0.747,0.339,0.747,0.748V12.08z M35.6,49.413c0,0.412-0.338,0.748-0.747,0.748h-2.985  c-0.412,0-0.748-0.336-0.748-0.748V47.92c0-0.41,0.336-0.746,0.748-0.746h2.985c0.409,0,0.747,0.336,0.747,0.746V49.413z   M35.6,12.08c0,0.41-0.338,0.746-0.747,0.746h-2.985c-0.412,0-0.748-0.336-0.748-0.746v-1.493c0-0.409,0.336-0.748,0.748-0.748  h2.985c0.409,0,0.747,0.339,0.747,0.748V12.08z M42.318,49.413c0,0.412-0.335,0.748-0.745,0.748h-2.987  c-0.412,0-0.746-0.336-0.746-0.748V47.92c0-0.41,0.334-0.746,0.746-0.746h2.987c0.41,0,0.745,0.336,0.745,0.746V49.413z   M42.318,12.08c0,0.41-0.335,0.746-0.745,0.746h-2.987c-0.412,0-0.746-0.336-0.746-0.746v-1.493c0-0.409,0.334-0.748,0.746-0.748  h2.987c0.41,0,0.745,0.339,0.745,0.748V12.08z M49.039,49.413c0,0.412-0.336,0.748-0.746,0.748h-2.987  c-0.41,0-0.745-0.336-0.745-0.748V47.92c0-0.41,0.335-0.746,0.745-0.746h2.987c0.41,0,0.746,0.336,0.746,0.746V49.413z   M49.039,12.08c0,0.41-0.336,0.746-0.746,0.746h-2.987c-0.41,0-0.745-0.336-0.745-0.746v-1.493c0-0.409,0.335-0.748,0.745-0.748  h2.987c0.41,0,0.746,0.339,0.746,0.748V12.08z M55.761,49.413c0,0.412-0.339,0.748-0.748,0.748h-2.987  c-0.41,0-0.745-0.336-0.745-0.748V47.92c0-0.41,0.335-0.746,0.745-0.746h2.987c0.409,0,0.748,0.336,0.748,0.746V49.413z   M55.761,12.08c0,0.41-0.339,0.746-0.748,0.746h-2.987c-0.41,0-0.745-0.336-0.745-0.746v-1.493c0-0.409,0.335-0.748,0.745-0.748  h2.987c0.409,0,0.748,0.339,0.748,0.748V12.08z" fill="url(#SVGID_1_)"/>
<path d="M56.506,7.6H3.493C2.666,7.6,2,8.27,2,9.094v0.745  c0-0.824,0.666-1.493,1.493-1.493h53.013C57.33,8.346,58,9.015,58,9.839V9.094C58,8.27,57.33,7.6,56.506,7.6z" fill="#FFFFFF" fill-opacity="0.55" stroke-opacity="0.55"/>
<path d="M3.493,52.4h53.013C57.33,52.4,58,51.732,58,50.906v-0.745  c0,0.824-0.67,1.493-1.494,1.493H3.493C2.666,51.654,2,50.985,2,50.161v0.745C2,51.732,2.666,52.4,3.493,52.4z" fill="#FFFFFF" fill-opacity="0.1" stroke-opacity="0.1"/>
<linearGradient gradientTransform="matrix(1 0 0 -1 2194 3656.9473)" gradientUnits="userSpaceOnUse" id="SVGID_2_" x1="-2164" x2="-2164" y1="3641.7637" y2="3611.8926">
<stop offset="0" style="stop-color:#000000"/>
<stop offset="0.5" style="stop-color:#666666"/>
<stop offset="1" style="stop-color:#000000"/>
</linearGradient>
<rect fill="url(#SVGID_2_)" height="29.871" width="56" x="2" y="15.064"/>
<linearGradient gradientTransform="matrix(1 0 0 -1 2194 3656.9473)" gradientUnits="userSpaceOnUse" id="SVGID_3_" x1="-2164.0005" x2="-2164.0005" y1="3612.0117" y2="3641.8828">
<stop offset="0" style="stop-color:#72B9C3"/>
<stop offset="1" style="stop-color:#546F9F"/>
</linearGradient>
<path d="M55.761,43.441c0,0.821-0.673,1.494-1.493,1.494H5.732c-0.82,0-1.494-0.673-1.494-1.494V16.559  c0-0.819,0.674-1.494,1.494-1.494h48.535c0.82,0,1.493,0.675,1.493,1.494V43.441z" fill="url(#SVGID_3_)"/>
<path d="M54.268,43.441H5.732c-0.82,0-1.494,0.074-1.494-0.748l0,0  c0,0.822,0.674,1.493,1.494,1.493h48.535c0.82,0,1.493-0.671,1.493-1.493l0,0C55.761,43.516,55.088,43.441,54.268,43.441z" fill="#FFFFFF" fill-opacity="0.5" stroke-opacity="0.5"/>
<linearGradient gradientTransform="matrix(1 0 0 -1 2194 3656.9473)" gradientUnits="userSpaceOnUse" id="SVGID_4_" x1="-2164.0005" x2="-2164.0005" y1="3641.8828" y2="3611.8926">
<stop offset="0" style="stop-color:#000000"/>
<stop offset="1" style="stop-color:#404040"/>
</linearGradient>
<path d="M54.268,15.813c0.41,0,0.745,0.336,0.745,0.745v26.883c0,0.412-0.335,0.745-0.745,0.745H5.732  c-0.411,0-0.746-0.333-0.746-0.745V16.559c0-0.409,0.335-0.745,0.746-0.745H54.268 M54.268,15.064H5.732  c-0.82,0-1.494,0.675-1.494,1.494v26.883c0,0.821,0.674,1.494,1.494,1.494h48.535c0.82,0,1.493-0.673,1.493-1.494V16.559  C55.761,15.739,55.088,15.064,54.268,15.064L54.268,15.064z" fill="url(#SVGID_4_)"/>
<path d="M54.268,24.025v-5.974c0-0.824-0.67-1.493-1.494-1.493H7.226  c-0.824,0-1.493,0.669-1.493,1.493v9.709L54.268,24.025z" fill="#FFFFFF" fill-opacity="0.2" stroke-opacity="0.2"/>
<rect fill="none" height="60" width="60"/>
</g>
<g transform="matrix(1 0 0 1 30 30)">
<rect fill="none" height="30" width="30"/>
<path d="M14.999,30C6.729,30,0,23.271,0,15S6.729,0,14.999,0C23.271,0,30,6.729,30,15S23.271,30,14.999,30L14.999,30  z" fill-opacity="0.35" stroke-opacity="0.35"/>
<linearGradient gradientUnits="userSpaceOnUse" id="SVGID_1__" x1="15" x2="15" y1="1.1948" y2="28.8709">
<stop offset="0" style="stop-color:#BFC2C1"/>
<stop offset="1" style="stop-color:#47494B"/>
</linearGradient>
<path d="M14.999,29C7.281,29,1,22.72,1,15S7.281,1,14.999,1C22.72,1,29,7.28,29,15S22.72,29,14.999,29  L14.999,29z" fill="url(#SVGID_1__)"/>
<linearGradient gradientUnits="userSpaceOnUse" id="SVGID_2__" x1="15" x2="15" y1="1.5835" y2="28.5506">
<stop offset="0" style="stop-color:#D3D7D5"/>
<stop offset="0.2364" style="stop-color:#BFC2C1"/>
<stop offset="1" style="stop-color:#6C6F70"/>
</linearGradient>
<circle cx="15" cy="15" fill="url(#SVGID_2__)" r="13.611"/>
<path d="M15.474,15.476c4.559,0,8.961-0.286,13.127-0.81C28.425,7.305,22.406,1.389,14.999,1.389  c-7.36,0-13.357,5.847-13.6,13.151C5.846,15.143,10.568,15.476,15.474,15.476z" fill="#F1F2F2" fill-opacity="0.35" stroke-opacity="0.35"/>
<linearGradient gradientUnits="userSpaceOnUse" id="SVGID_3__" x1="1.5186" x2="28.6768" y1="8.2915" y2="8.2915">
<stop offset="0" style="stop-color:#C2C5C4"/>
<stop offset="0.2" style="stop-color:#F9FDFA"/>
<stop offset="0.8" style="stop-color:#F9FDFA"/>
<stop offset="1" style="stop-color:#CFD3D1"/>
</linearGradient>
<path d="M14.999,1.778c7.453,0,13.503,5.99,13.605,13.416c0.002-0.063,0.007-0.129,0.007-0.194  c0-7.517-6.095-13.611-13.612-13.611C7.482,1.389,1.389,7.483,1.389,15c0,0.065,0.003,0.131,0.005,0.194  C1.498,7.769,7.548,1.778,14.999,1.778z" fill="url(#SVGID_3__)"/>
<linearGradient gradientUnits="userSpaceOnUse" id="SVGID_4__" x1="14.999" x2="14.999" y1="27.249" y2="2.9914">
<stop offset="0" style="stop-color:#BFC2C1"/>
<stop offset="1" style="stop-color:#47494B"/>
</linearGradient>
<path d="M14.999,27.055C8.352,27.055,2.944,21.648,2.944,15S8.352,2.945,14.999,2.945  c6.648,0,12.056,5.406,12.056,12.055S21.647,27.055,14.999,27.055L14.999,27.055z" fill="url(#SVGID_4__)"/>
<linearGradient gradientUnits="userSpaceOnUse" id="SVGID_5_" x1="15.001" x2="15.001" y1="26.3296" y2="3.0368">
<stop offset="0" style="stop-color:#FAF9F9"/>
<stop offset="0.4" style="stop-color:#FAF9F9"/>
<stop offset="1" style="stop-color:#818283"/>
</linearGradient>
<path d="M14.999,26.666C8.566,26.666,3.333,21.432,3.333,15S8.566,3.334,14.999,3.334S26.668,8.568,26.668,15  S21.432,26.666,14.999,26.666L14.999,26.666z" fill="url(#SVGID_5_)"/>
<path d="M14.999,15.832c3.849,0,7.521-0.322,10.89-0.905C25.848,8.956,20.98,4.111,14.999,4.111  c-5.979,0-10.846,4.845-10.886,10.815C7.479,15.51,11.15,15.832,14.999,15.832z" fill="#FFFFFF" fill-opacity="0.7" stroke-opacity="0.7"/>
<rect fill="#404041" height="2.335" width="0.777" x="14.611" y="4.396"/>
<rect fill="#404041" height="2.333" width="0.777" x="14.611" y="23.842"/>
<rect fill="#404041" height="0.779" width="2.333" x="23.556" y="14.896"/>
<rect fill="#404041" height="0.779" width="2.332" x="4.111" y="14.896"/>
<rect fill="#404041" height="1.88" transform="matrix(0.4993 0.8664 -0.8664 0.4993 20.7592 -15.0708)" width="0.628" x="23.106" y="9.486"/>
<rect fill="#404041" height="1.88" transform="matrix(0.4968 0.8679 -0.8679 0.4968 20.7962 4.4286)" width="0.629" x="6.265" y="19.208"/>
<rect fill="#404041" height="1.882" transform="matrix(0.8671 0.4981 -0.4981 0.8671 6.0604 -8.9813)" width="0.627" x="19.548" y="5.926"/>
<rect fill="#404041" height="1.884" transform="matrix(0.8674 0.4977 -0.4977 0.8674 13.1416 -1.9014)" width="0.626" x="9.825" y="22.763"/>
<rect fill="#404041" height="1.882" transform="matrix(0.8675 -0.4975 0.4975 0.8675 -2.0724 5.954)" width="0.628" x="9.825" y="5.926"/>
<rect fill="#404041" height="1.882" transform="matrix(0.8678 -0.497 0.497 0.8678 -9.1555 13.0056)" width="0.627" x="19.548" y="22.766"/>
<rect fill="#404041" height="1.884" transform="matrix(0.497 -0.8678 0.8678 0.497 -5.7368 10.9541)" width="0.627" x="6.267" y="9.483"/>
<rect fill="#404041" height="1.882" transform="matrix(0.4991 -0.8665 0.8665 0.4991 -5.7273 30.3844)" width="0.63" x="23.105" y="19.206"/>
<path d="M15.953,15.552c-0.04-0.188-0.133-0.352-0.261-0.482l1.34-4.418l-1.117-0.34l-1.392,4.587  c-0.24,0.138-0.42,0.372-0.475,0.653h-2.55v0.389h2.55c0.009,0.05,0.024,0.101,0.043,0.148L8.091,22.09l0.505,0.506l5.978-5.979  c0.129,0.063,0.273,0.102,0.427,0.102c0.471,0,0.862-0.333,0.953-0.777h9.158v-0.389H15.953z" fill="#222021" fill-opacity="0.2" stroke-opacity="0.2"/>
<linearGradient gradientTransform="matrix(0.9569 0.2903 -0.2903 0.9569 409.6663 189.0642)" gradientUnits="userSpaceOnUse" id="SVGID_6_" x1="-428.2788" x2="-428.2788" y1="-57.4336" y2="-51.435">
<stop offset="0" style="stop-color:#59595A"/>
<stop offset="1" style="stop-color:#222021"/>
</linearGradient>
<polygon fill="url(#SVGID_6_)" points="17.032,10.101 15.915,9.763 14.22,15.344 15.339,15.684 "/>
<linearGradient gradientUnits="userSpaceOnUse" id="SVGID_7_" x1="8.3799" x2="15.2201" y1="21.7544" y2="14.9142">
<stop offset="0" style="stop-color:#59595A"/>
<stop offset="1" style="stop-color:#222021"/>
</linearGradient>
<polygon fill="url(#SVGID_7_)" points="15.479,15.16 14.974,14.655 8.091,21.539 8.596,22.044 "/>
<linearGradient gradientUnits="userSpaceOnUse" id="SVGID_8_" x1="18.3057" x2="18.3057" y1="14.9443" y2="15.5124">
<stop offset="0" style="stop-color:#B34D4D"/>
<stop offset="1" style="stop-color:#763242"/>
</linearGradient>
<path d="M25.111,15h-9.158c-0.091-0.442-0.482-0.778-0.953-0.778S14.138,14.558,14.049,15h-2.55v0.389h2.55  c0.089,0.443,0.48,0.778,0.951,0.778s0.862-0.335,0.953-0.778h9.158V15z" fill="url(#SVGID_8_)"/>
<circle cx="15" cy="15.194" fill="#DABEB1" r="0.583"/>
<rect fill="none" height="30" width="30"/>
</g>
</svg>
