<?xml version="1.0" encoding="UTF-8"?>
<!DOCTYPE svg PUBLIC "-//W3C//DTD SVG 1.1 Tiny//EN" "http://www.w3.org/Graphics/SVG/1.1/DTD/svg11-tiny.dtd">
<svg baseProfile="tiny" height="30" viewBox="0 0 30 30" width="30" xmlns="http://www.w3.org/2000/svg" xmlns:xlink="http://www.w3.org/1999/xlink">
<g>
<rect fill="none" height="30" width="30"/>
<path d="M23,10V1h-5v9h-6V1H7v9H4v7c0,3.52,2.613,6.433,6,6.92V26h2v3h6v-3h2v-2.08c3.387-0.487,6-3.4,6-6.92v-7H23z" fill-opacity="0.6" stroke-opacity="0.6"/>
<linearGradient gradientUnits="userSpaceOnUse" id="SVGID_1_" x1="8" x2="11" y1="7" y2="7">
<stop offset="0" style="stop-color:#ABB0AF"/>
<stop offset="0.4" style="stop-color:#FFFFFF"/>
<stop offset="1" style="stop-color:#6A6C6E"/>
</linearGradient>
<rect fill="url(#SVGID_1_)" height="10" width="3" x="8" y="2"/>
<linearGradient gradientUnits="userSpaceOnUse" id="SVGID_2_" x1="8" x2="11" y1="9.5" y2="9.5">
<stop offset="0" style="stop-color:#4D4D4D"/>
<stop offset="0.4" style="stop-color:#7A7A7A"/>
<stop offset="1" style="stop-color:#1A1A1A"/>
</linearGradient>
<rect fill="url(#SVGID_2_)" height="5" width="3" x="8" y="7"/>
<linearGradient gradientUnits="userSpaceOnUse" id="SVGID_3_" x1="19" x2="22" y1="10" y2="10">
<stop offset="0" style="stop-color:#323232"/>
<stop offset="0.4" style="stop-color:#787878"/>
<stop offset="1" style="stop-color:#323232"/>
</linearGradient>
<rect fill="url(#SVGID_3_)" height="4" width="3" x="19" y="8"/>
<linearGradient gradientUnits="userSpaceOnUse" id="SVGID_4_" x1="19" x2="22" y1="7" y2="7">
<stop offset="0" style="stop-color:#ABB0AF"/>
<stop offset="0.4" style="stop-color:#FFFFFF"/>
<stop offset="1" style="stop-color:#6A6C6E"/>
</linearGradient>
<rect fill="url(#SVGID_4_)" height="10" width="3" x="19" y="2"/>
<linearGradient gradientUnits="userSpaceOnUse" id="SVGID_5_" x1="19" x2="22" y1="9.5" y2="9.5">
<stop offset="0" style="stop-color:#4D4D4D"/>
<stop offset="0.4" style="stop-color:#7A7A7A"/>
<stop offset="1" style="stop-color:#1A1A1A"/>
</linearGradient>
<rect fill="url(#SVGID_5_)" height="5" width="3" x="19" y="7"/>
<linearGradient gradientUnits="userSpaceOnUse" id="SVGID_6_" x1="13" x2="17" y1="24.5" y2="24.5">
<stop offset="0" style="stop-color:#4D4D4D"/>
<stop offset="0.4" style="stop-color:#7A7A7A"/>
<stop offset="1" style="stop-color:#1A1A1A"/>
</linearGradient>
<rect fill="url(#SVGID_6_)" height="7" width="4" x="13" y="21"/>
<linearGradient gradientUnits="userSpaceOnUse" id="SVGID_7_" x1="11" x2="19" y1="23.5" y2="23.5">
<stop offset="0" style="stop-color:#4D4D4D"/>
<stop offset="0.4" style="stop-color:#7A7A7A"/>
<stop offset="1" style="stop-color:#1A1A1A"/>
</linearGradient>
<rect fill="url(#SVGID_7_)" height="3" width="8" x="11" y="22"/>
<linearGradient gradientUnits="userSpaceOnUse" id="SVGID_8_" x1="14.9995" x2="14.9995" y1="11" y2="23.0005">
<stop offset="0" style="stop-color:#C8C8C8"/>
<stop offset="0.8" style="stop-color:#383838"/>
<stop offset="1" style="stop-color:#121212"/>
</linearGradient>
<path d="M5,11v6c0,3.3,2.7,6,6,6h8c3.3,0,6-2.7,6-6v-6H5z" fill="url(#SVGID_8_)"/>
<linearGradient gradientUnits="userSpaceOnUse" id="SVGID_9_" x1="14.9995" x2="14.9995" y1="12" y2="22.0005">
<stop offset="0" style="stop-color:#8C8C8C"/>
<stop offset="0.5" style="stop-color:#636363"/>
<stop offset="1" style="stop-color:#1C1C1C"/>
</linearGradient>
<path d="M11,22c-2.757,0-5-2.243-5-5v-5h18v5c0,2.757-2.243,5-5,5H11z" fill="url(#SVGID_9_)"/>
<rect fill="none" height="30" width="30"/>
</g>
</svg>
