<?xml version="1.0" encoding="UTF-8"?>
<!DOCTYPE svg PUBLIC "-//W3C//DTD SVG 1.1 Tiny//EN" "http://www.w3.org/Graphics/SVG/1.1/DTD/svg11-tiny.dtd">
<svg baseProfile="tiny" height="30px" version="1.1" viewBox="0 0 30 30" width="30px" x="0px" xmlns="http://www.w3.org/2000/svg" xmlns:xlink="http://www.w3.org/1999/xlink" y="0px">
<g>
<rect fill="none" height="30" width="30"/>
</g>
<path d="M25,3H12c-1.104,0-2,0.896-2,2v15.439C9.249,20.16,8.401,20,7.5,20C4.463,20,2,21.791,2,24s2.463,4,5.5,4s5.5-1.791,5.5-4V9  h11v9.439C23.249,18.16,22.401,18,21.5,18c-3.037,0-5.5,1.791-5.5,4s2.463,4,5.5,4s5.5-1.791,5.5-4V5C27,3.896,26.104,3,25,3z"/>
</svg>
