<?xml version="1.0" encoding="UTF-8"?>
<!DOCTYPE svg PUBLIC "-//W3C//DTD SVG 1.1 Tiny//EN" "http://www.w3.org/Graphics/SVG/1.1/DTD/svg11-tiny.dtd">
<svg baseProfile="tiny" height="60px" version="1.1" viewBox="0 0 30 60" width="30px" x="0px" xmlns="http://www.w3.org/2000/svg" xmlns:xlink="http://www.w3.org/1999/xlink" y="0px">
<rect fill="none" height="60" width="30"/>
<path d="M6,0C2.7,0,0,2.7,0,6v48c0,3.3,2.7,6,6,6h24V0H6z" fill="#14141E" fill-opacity="0.2" stroke-opacity="0.2"/>
<path d="M6,1C3.243,1,1,3.243,1,6v48c0,2.757,2.243,5,5,5h24V1H6z" fill="url(#SVGID_1_)"/>
<path d="M6,58c-2.206,0-4-1.795-4-4V6c0-2.205,1.794-4,4-4h24V1H6  C3.243,1,1,3.243,1,6v48c0,2.757,2.243,5,5,5h24v-1H6z" fill="#FFFFFF" fill-opacity="0.4" stroke-opacity="0.4"/>
<defs>
<linearGradient gradientTransform="matrix(1 0 0 -1 -57.48 -41.0195)" gradientUnits="userSpaceOnUse" id="SVGID_1_" x1="72.9795" x2="72.9795" y1="-42.0195" y2="-100.0195">
<stop offset="0" style="stop-color:#C8C8D2"/>
<stop offset="0.9" style="stop-color:#9696A0"/>
<stop offset="0.9" style="stop-color:#8C8C96"/>
<stop offset="1" style="stop-color:#82828C"/>
</linearGradient>
</defs>
</svg>
