<?xml version="1.0" encoding="UTF-8"?>
<!DOCTYPE svg PUBLIC "-//W3C//DTD SVG 1.1 Tiny//EN" "http://www.w3.org/Graphics/SVG/1.1/DTD/svg11-tiny.dtd">
<svg baseProfile="tiny" height="30px" version="1.1" viewBox="0 0 30 30" width="30px" x="0px" xmlns="http://www.w3.org/2000/svg" xmlns:xlink="http://www.w3.org/1999/xlink" y="0px">
<g>
<rect fill="none" height="30" width="30"/>
</g>
<path d="M10,7H4V4c0-1.104,0.896-2,2-2h4V7z"/>
<path d="M20,7h6V4c0-1.104-0.896-2-2-2h-4V7z"/>
<rect height="5" width="6" x="12" y="2"/>
<rect height="5" width="6" x="12" y="9"/>
<rect height="5" width="6" x="4" y="9"/>
<rect height="5" width="6" x="20" y="9"/>
<path d="M10,16H4v3c0,1.104,0.896,2,2,2h4V16z"/>
<path d="M20,16h6v3c0,1.104-0.896,2-2,2h-4V16z"/>
<rect height="5" width="6" x="12" y="16"/>
<path d="M18,26c0,1.104-0.896,2-2,2h-2c-1.104,0-2-0.896-2-2v-3c0,0,0.896,0,2,0h2c1.104,0,2,0,2,0V26z"/>
</svg>
