<?xml version="1.0" encoding="UTF-8"?>
<!DOCTYPE svg PUBLIC "-//W3C//DTD SVG 1.1 Tiny//EN" "http://www.w3.org/Graphics/SVG/1.1/DTD/svg11-tiny.dtd">
<svg baseProfile="tiny" height="220px" version="1.1" viewBox="0 0 220 220" width="220px" x="0px" xmlns="http://www.w3.org/2000/svg" xmlns:xlink="http://www.w3.org/1999/xlink" y="0px">
<circle cx="110" cy="110" fill="url(#SVGID_1_)" r="48"/>
<path d="M110,62c-26.51,0-48,21.49-48,48s21.49,48,48,48s48-21.49,48-48S136.51,62,110,62z M110,157  c-25.916,0-47-21.084-47-47s21.084-47,47-47c25.916,0,47,21.084,47,47S135.916,157,110,157z" fill="#FFFFFF" fill-opacity="0.2" stroke-opacity="0.2"/>
<path d="M110,124c-7.72,0-14-6.28-14-14c0-7.721,6.28-14,14-14c7.719,0,14,6.279,14,14  C124,117.72,117.719,124,110,124L110,124z" fill="#FFFFFF"/>
<rect fill="none" height="220" width="220"/>
<defs>
<linearGradient gradientUnits="userSpaceOnUse" id="SVGID_1_" x1="110.0005" x2="110.0005" y1="158" y2="62.0005">
<stop offset="0" style="stop-color:#65B8CC"/>
<stop offset="1" style="stop-color:#306D8C"/>
</linearGradient>
</defs>
</svg>
