<?xml version="1.0" encoding="UTF-8"?>
<!DOCTYPE svg PUBLIC "-//W3C//DTD SVG 1.1 Tiny//EN" "http://www.w3.org/Graphics/SVG/1.1/DTD/svg11-tiny.dtd">
<svg baseProfile="tiny" height="30px" version="1.1" viewBox="0 0 30 30" width="30px" x="0px" xmlns="http://www.w3.org/2000/svg" xmlns:xlink="http://www.w3.org/1999/xlink" y="0px">
<path d="M13.542,9.395C13.976,9.15,14.468,9,15,9c1.654,0,3,1.346,3,3c0,0.531-0.15,1.023-0.395,1.457l1.447,1.447  C19.643,14.084,20,13.086,20,12c0-2.757-2.242-5-5-5c-1.085,0-2.084,0.357-2.905,0.947L13.542,9.395z"/>
<path d="M10.662,6.514C11.855,5.568,13.36,5,15,5c3.867,0,7,3.135,7,7c0,1.64-0.568,3.145-1.514,4.338l4.648,4.648  C26.176,20.915,27,20.059,27,19V5c0-1.104-0.895-2-2-2H11H7.148L10.662,6.514z M22,5h3v2h-3V5z"/>
<path d="M14.844,18.992c-3.741-0.082-6.754-3.096-6.836-6.837L3,7.147V19c0,1.104,0.896,2,2,2h11.852L14.844,18.992z"/>
<path d="M11,1c0-0.553-0.448-1-1-1H7C6.448,0,6,0.447,6,1v1h5V1z"/>
<polygon points="3,22 1,22 1,29 11,29 11,27.086 3,27.086 "/>
<polygon points="29,24.851 29,22 27,22 27,22.851 "/>
<polygon points="22.938,27.086 19,27.086 19,29 24.852,29 "/>
<path d="M27.693,26.373c0.389,0.389,0.41,1.004,0.049,1.367c-0.363,0.363-0.979,0.344-1.367-0.045L2.306,3.625  c-0.389-0.389-0.41-1.004-0.047-1.366s0.979-0.341,1.367,0.048L27.693,26.373z"/>
<g fill-opacity="0.5" stroke-opacity="0.5">
<rect fill="none" height="30" width="30"/>
</g>
</svg>
