<?xml version="1.0" encoding="UTF-8"?>
<!DOCTYPE svg PUBLIC "-//W3C//DTD SVG 1.1 Tiny//EN" "http://www.w3.org/Graphics/SVG/1.1/DTD/svg11-tiny.dtd">
<svg baseProfile="tiny" height="36px" version="1.1" viewBox="0 0 36 36" width="36px" x="0px" xmlns="http://www.w3.org/2000/svg" xmlns:xlink="http://www.w3.org/1999/xlink" y="0px">
<linearGradient gradientTransform="matrix(0 1 -1 0 3145.9492 5878.6792)" gradientUnits="userSpaceOnUse" id="SVGID_1_" x1="-5843.6792" x2="-5877.6792" y1="3127.9502" y2="3127.9502">
<stop offset="0" style="stop-color:#FAFAFA"/>
<stop offset="1" style="stop-color:#DCDCE6"/>
</linearGradient>
<circle cx="18" cy="18" fill="url(#SVGID_1_)" r="17"/>
<path d="M18,1.5C8.888,1.5,1.5,8.888,1.5,18S8.888,34.5,18,34.5S34.5,27.112,34.5,18  S27.112,1.5,18,1.5z M18,33C9.717,33,3,26.283,3,18S9.717,3,18,3s15,6.717,15,15S26.283,33,18,33z" fill="#14141E" fill-opacity="0.2" stroke-opacity="0.2"/>
<path d="M18,0C8.059,0,0,8.059,0,18s8.059,18,18,18s18-8.059,18-18S27.941,0,18,0z M18,34C9.164,34,2,26.836,2,18  S9.164,2,18,2s16,7.164,16,16S26.836,34,18,34z" fill="#FFFFFF"/>
<linearGradient gradientUnits="userSpaceOnUse" id="SVGID_2_" x1="17.9995" x2="17.9995" y1="6" y2="30.0005">
<stop offset="0" style="stop-color:#66CCAD"/>
<stop offset="1" style="stop-color:#3FA990"/>
</linearGradient>
<path d="M18,30c-6.616,0-12-5.383-12-12S11.384,6,18,6s12,5.383,12,12S24.616,30,18,30L18,30z" fill="url(#SVGID_2_)"/>
<path d="M18,6C11.384,6,6,11.383,6,18s5.384,12,12,12s12-5.383,12-12S24.616,6,18,6z M18,29  c-6.065,0-11-4.935-11-11S11.935,7,18,7s11,4.935,11,11S24.065,29,18,29z" fill="#14141E" fill-opacity="0.2" stroke-opacity="0.2"/>
</svg>
