<?xml version="1.0" encoding="UTF-8"?>
<!DOCTYPE svg PUBLIC "-//W3C//DTD SVG 1.1 Tiny//EN" "http://www.w3.org/Graphics/SVG/1.1/DTD/svg11-tiny.dtd">
<svg baseProfile="tiny" height="10px" version="1.1" viewBox="0 0 10 10" width="10px" x="0px" xmlns="http://www.w3.org/2000/svg" xmlns:xlink="http://www.w3.org/1999/xlink" y="0px">
<rect fill="none" height="10" width="10"/>
<path d="M10,7c0-3.859-3.141-7-7-7H0v10h10V7z" fill="#141414" fill-opacity="0.2" stroke-opacity="0.2"/>
<path d="M9,8c0-3.3-2.7-6-6-6H0v8h9V8z" fill="#141414" fill-opacity="0.2" stroke-opacity="0.2"/>
<linearGradient gradientUnits="userSpaceOnUse" id="SVGID_1_" x1="-327.333" x2="9.3366" y1="5.5" y2="5.5">
<stop offset="0" style="stop-color:#282828"/>
<stop offset="0.5" style="stop-color:#78787D"/>
<stop offset="1" style="stop-color:#282828"/>
</linearGradient>
<path d="M9,7c0-3.3-2.7-6-6-6H0v9h9V7z" fill="url(#SVGID_1_)"/>
<linearGradient gradientUnits="userSpaceOnUse" id="SVGID_2_" x1="4" x2="4" y1="111" y2="2.5838">
<stop offset="0" style="stop-color:#DCDCDC"/>
<stop offset="1" style="stop-color:#141414"/>
</linearGradient>
<path d="M8,7c0-2.757-2.243-5-5-5H0v8h8V7z" fill="url(#SVGID_2_)" fill-opacity="0.3"/>
<path d="M3,2H0v1h3c2.205,0,4,1.794,4,4v3h1V7C8,4.243,5.757,2,3,2z" fill="#FFFFFF" fill-opacity="0.5" stroke-opacity="0.5"/>
<path d="M3,1H0v1h3c2.757,0,5,2.243,5,5v3h1V7C9,3.7,6.3,1,3,1z" fill-opacity="0.3"/>
<linearGradient gradientUnits="userSpaceOnUse" id="SVGID_3_" x1="-324.333" x2="6.0545" y1="4" y2="4">
<stop offset="0" style="stop-color:#282828"/>
<stop offset="0.5" style="stop-color:#FAFAFA"/>
<stop offset="1" style="stop-color:#282828"/>
</linearGradient>
<path d="M6.443,5C5.75,3.811,4.475,3,3,3H0v2H6.443z" fill="url(#SVGID_3_)" fill-opacity="0.7"/>
</svg>
