<?xml version="1.0" encoding="UTF-8"?>
<!DOCTYPE svg PUBLIC "-//W3C//DTD SVG 1.1 Tiny//EN" "http://www.w3.org/Graphics/SVG/1.1/DTD/svg11-tiny.dtd">
<svg baseProfile="tiny" height="30px" version="1.1" viewBox="0 0 30 30" width="30px" x="0px" xmlns="http://www.w3.org/2000/svg" xmlns:xlink="http://www.w3.org/1999/xlink" y="0px">
<g>
<rect fill="none" height="30" width="30"/>
</g>
<path d="M14,23c0-1.917,0.607-3.692,1.633-5.154c-0.676-0.348-1.234-0.944-1.234-1.938V15.48c0-0.187,0.093-0.365,0.245-0.478  C16.652,13.566,18,10.619,18,7.66C18,3.434,15.309,0,12,0S6,3.434,6,7.66c0,2.959,1.348,5.907,3.352,7.343  c0.157,0.113,0.245,0.291,0.245,0.478v0.428c0,1.695-1.636,2.33-2.999,2.359C0.673,18.85,0.024,25.664,0,26h14.525  C14.191,25.061,14,24.053,14,23z"/>
<path d="M23,16c-3.865,0-7,3.135-7,7c0,3.867,3.135,7,7,7s7-3.133,7-7C30,19.135,26.865,16,23,16z M24,24v4h-2v-4h-4v-2h4v-4h2v4h4  v2H24z"/>
</svg>
