<?xml version="1.0" encoding="UTF-8"?>
<!DOCTYPE svg PUBLIC "-//W3C//DTD SVG 1.1 Tiny//EN" "http://www.w3.org/Graphics/SVG/1.1/DTD/svg11-tiny.dtd">
<svg baseProfile="tiny" height="38px" version="1.1" viewBox="0 0 38 38" width="38px" x="0px" xmlns="http://www.w3.org/2000/svg" xmlns:xlink="http://www.w3.org/1999/xlink" y="0px">
<rect fill="none" height="38" width="38"/>
<path d="M34,0H0v38h34c2.201,0,4-1.8,4-4V4C38,1.8,36.201,0,34,0z" fill="url(#SVGID_1_)"/>
<path d="M19,27c-0.411,0-0.795-0.217-0.996-0.576L9.156,14.871c-0.209-0.361-0.207-0.799,0-1.154  c0.203-0.355,0.586-0.576,0.997-0.576h17.692c0.412,0,0.795,0.223,0.999,0.576c0.208,0.355,0.208,0.793,0,1.154l-8.848,11.553  C19.787,26.783,19.41,27,19,27z" fill="#FFFFFF"/>
<path d="M34,0H0v38h34c2.201,0,4-1.8,4-4V4C38,1.8,36.201,0,34,0z M37,34c0,1.654-1.346,3-3,3H1V1h33  c1.654,0,3,1.346,3,3V34z" fill="#FFFFFF" fill-opacity="0.2" stroke-opacity="0.2"/>
<defs>
<linearGradient gradientUnits="userSpaceOnUse" id="SVGID_1_" x1="19" x2="19" y1="0" y2="38.5298">
<stop offset="0" style="stop-color:#66B8CC"/>
<stop offset="1" style="stop-color:#3F89A9"/>
</linearGradient>
</defs>
</svg>
