<?xml version="1.0" encoding="UTF-8"?>
<!DOCTYPE svg PUBLIC "-//W3C//DTD SVG 1.1 Tiny//EN" "http://www.w3.org/Graphics/SVG/1.1/DTD/svg11-tiny.dtd">
<svg baseProfile="tiny" height="30px" version="1.1" viewBox="0 0 30 30" width="30px" x="0px" xmlns="http://www.w3.org/2000/svg" xmlns:xlink="http://www.w3.org/1999/xlink" y="0px">
<g>
<rect fill="none" height="30" width="30"/>
</g>
<path d="M24,16.08v2.021c2.282,0.464,4,2.48,4,4.899s-1.718,4.436-4,4.899v2.021c3.391-0.486,6-3.395,6-6.92S27.391,16.566,24,16.08  z"/>
<path d="M18.581,17.581C17.007,18.862,16,20.812,16,23c0,3.525,2.609,6.434,6,6.92v-2.021c-2.282-0.464-4-2.48-4-4.899  c0-1.637,0.797-3.075,2.013-3.987L22,21v-2.899V16.08V16h-5L18.581,17.581z"/>
<path d="M14,23c0-1.897,0.613-3.676,1.649-5.146c-0.684-0.348-1.251-0.944-1.251-1.945V15.48c0-0.188,0.093-0.365,0.245-0.479  C16.652,13.566,18,10.619,18,7.66C18,3.434,15.309,0,12,0S6,3.434,6,7.66c0,2.959,1.348,5.906,3.352,7.342  c0.157,0.113,0.245,0.291,0.245,0.479v0.428c0,1.695-1.636,2.33-2.999,2.359C0.673,18.85,0.024,25.664,0,26h14.528  C14.189,25.056,14,24.046,14,23z"/>
<polygon points="24,25 29,30 24,30 "/>
</svg>
