<?xml version="1.0" encoding="UTF-8"?>
<!DOCTYPE svg PUBLIC "-//W3C//DTD SVG 1.1 Tiny//EN" "http://www.w3.org/Graphics/SVG/1.1/DTD/svg11-tiny.dtd">
<svg baseProfile="tiny" height="30px" version="1.1" viewBox="-2 -2 30 30" width="30px" x="0px" xmlns="http://www.w3.org/2000/svg" xmlns:xlink="http://www.w3.org/1999/xlink" y="0px">
<path d="M13,0C5.82,0,0,5.82,0,13s5.82,13,13,13s13-5.82,13-13S20.18,0,13,0z M3.84,19.422c-0.775-1.102-1.351-2.348-1.689-3.689  l1.637-0.324l1.4,2.801L3.84,19.422z M20.115,21.643l-0.703-0.635l1.4-2.799l1.884,0.371C22.021,19.748,21.151,20.789,20.115,21.643  z M21.215,8.52L19.609,7.9l0.913,1.238l0.656-0.291c0,0,0.802,0.768,0.766,1.021c-0.036,0.258-1.239,1.424-1.239,1.424L19.65,11.67  l-1.393-1.145L17.2,9.652l0.657,1.566l0.876,0.914c0,0,1.533-0.219,1.752-0.037c0.22,0.182-0.291,1.572-0.291,1.572l-2.557,2.627  l-0.255,2.627c-1.424,0.732-1.57,1.859-1.57,1.859s-0.365-0.068-1.314,0.99c-0.948,1.059-1.972,0.781-1.972,0.781  c-1.204,0-1.423-0.781-1.423-1.039c0-0.254-1.205-2.225-1.205-2.885c0-0.656,0.365-1.459,0.365-1.459  c0.072-0.949-0.949-3.502-0.949-3.502H8.256l-0.365-0.805c-3.432,0.73-3.577-0.146-4.089-1.096  c-0.511-0.949,0.073-3.504,0.401-3.906c0.211-0.256,1.328-1.063,2.109-1.613l7.998,2.551L15.711,6L10.11,4.6L6.988,5.775  c0.058-0.039,0.1-0.068,0.1-0.068L6.759,5.232C6.539,4.76,7.964,4.102,7.964,4.102c0.548,0.365,0.912,0,0.912,0l0.146-0.365  L8.876,3.189l0.677-0.842C10.641,1.996,11.797,1.799,13,1.799c1.26,0,2.465,0.219,3.596,0.605l-0.797,0.795l1.4,1.4l1.326-1.326  c2.934,1.678,5.043,4.641,5.546,8.119c-0.585-1.176-1.067-2.545-1.067-2.545L21.215,8.52z"/>
</svg>
