<?xml version="1.0" encoding="UTF-8"?>
<!DOCTYPE svg PUBLIC "-//W3C//DTD SVG 1.1 Tiny//EN" "http://www.w3.org/Graphics/SVG/1.1/DTD/svg11-tiny.dtd">
<svg baseProfile="tiny" height="30px" version="1.1" viewBox="0 0 30 30" width="30px" x="0px" xmlns="http://www.w3.org/2000/svg" xmlns:xlink="http://www.w3.org/1999/xlink" y="0px">
<g>
<rect fill="none" height="30" width="30"/>
</g>
<path d="M27,9h-7c-0.404,0-0.77,0.244-0.924,0.617c-0.154,0.374-0.069,0.804,0.217,1.09l2.045,2.045L17.088,17H4  c-1.104,0-2,0.896-2,2s0.896,2,2,2h14.75v-0.005l5.416-5.415l2.127,2.127C26.484,17.898,26.74,18,27,18  c0.129,0,0.259-0.025,0.383-0.076C27.756,17.77,28,17.404,28,17v-7C28,9.447,27.553,9,27,9z"/>
</svg>
