<?xml version="1.0" encoding="UTF-8"?>
<!DOCTYPE svg PUBLIC "-//W3C//DTD SVG 1.1 Tiny//EN" "http://www.w3.org/Graphics/SVG/1.1/DTD/svg11-tiny.dtd">
<svg baseProfile="tiny" height="30px" version="1.1" viewBox="0 0 30 30" width="30px" x="0px" xmlns="http://www.w3.org/2000/svg" xmlns:xlink="http://www.w3.org/1999/xlink" y="0px">
<path d="M8.212,23.309C9.686,24.436,11.971,25,15.065,25c2.909,0,5.126-0.576,6.65-1.729C23.239,22.119,24,20.236,24,18V3.924  h-0.008C23.951,2.854,23.078,2,22,2h-1c-1.078,0-1.951,0.854-1.992,1.924H19V18c0,1.494-0.356,2.91-0.971,3.551  c-0.614,0.639-1.612,0.959-3,0.959c-1.389,0-2.397-0.324-3.022-0.975C11.38,20.887,11,19.475,11,18V3.924h-0.008  C10.951,2.854,10.079,2,9,2H8C6.921,2,6.049,2.854,6.008,3.924H6V18C6,20.344,6.737,22.18,8.212,23.309z"/>
<path d="M24,26H6c-0.553,0-1,0.447-1,1s0.447,1,1,1h18c0.553,0,1-0.447,1-1S24.553,26,24,26z"/>
<g fill-opacity="0.5" stroke-opacity="0.5">
<rect fill="none" height="30" width="30"/>
</g>
</svg>
