<?xml version="1.0" encoding="UTF-8"?>
<!DOCTYPE svg PUBLIC "-//W3C//DTD SVG 1.1 Tiny//EN" "http://www.w3.org/Graphics/SVG/1.1/DTD/svg11-tiny.dtd">
<svg baseProfile="tiny" height="30px" version="1.1" viewBox="0 0 30 30" width="30px" x="0px" xmlns="http://www.w3.org/2000/svg" xmlns:xlink="http://www.w3.org/1999/xlink" y="0px">
<g fill-opacity="0.5" stroke-opacity="0.5">
<rect fill="none" height="30" width="30"/>
</g>
<path d="M9,12c0-0.552-0.448-1-1-1H5c-0.553,0-1,0.448-1,1v1h5V12z"/>
<path d="M10,14H9H4H3c-1.104,0-2,0.896-2,2v11c0,1.104,0.896,2,2,2h7c1.104,0,2-0.896,2-2V16C12,14.896,11.104,14,10,14z M9,20H4v-3  h5V20z"/>
<path d="M27,21h-2.869L28,10h-8.639l3.179-9h-5.302L13,13h8.639l-2.811,8H16c-0.396,0-0.756,0.234-0.916,0.598  c-0.159,0.363-0.089,0.785,0.179,1.078l5.5,6C20.952,28.883,21.22,29,21.5,29s0.548-0.117,0.737-0.324l5.5-6  c0.268-0.293,0.338-0.715,0.179-1.078C27.756,21.234,27.396,21,27,21z"/>
</svg>
