<?xml version="1.0" encoding="UTF-8"?>
<!DOCTYPE svg PUBLIC "-//W3C//DTD SVG 1.1 Tiny//EN" "http://www.w3.org/Graphics/SVG/1.1/DTD/svg11-tiny.dtd">
<svg baseProfile="tiny" height="30px" version="1.1" viewBox="0 0 30 30" width="30px" x="0px" xmlns="http://www.w3.org/2000/svg" xmlns:xlink="http://www.w3.org/1999/xlink" y="0px">
<rect fill="none" height="30" width="30"/>
<polygon points="1,13.894 4.511,13.894 4.719,20.632 7.95,13.894 10.757,13.894 10.757,20.632 13.771,13.894 17.492,13.894   11.878,24.421 8.582,24.421 8.512,17.875 5.564,24.421 2.194,24.421 "/>
<path d="M22.984,12.442c0-1.117-1.227-2.021-2.736-2.021s-2.738,0.904-2.738,2.021c0,0.598,0.355,1.133,0.912,1.504v10.475h3.65  V13.946C22.633,13.575,22.984,13.04,22.984,12.442z"/>
<path d="M13.177,13.509c0,0,1.931-3.965,7.089-3.965c5.156,0,7.053,3.895,7.053,3.895s-0.947-5.053-7.158-5.053  C13.946,8.386,13.177,13.509,13.177,13.509z"/>
<path d="M11.072,12.387c0,0,2.246-5.403,9.193-5.403c6.945,0,8.734,5.332,8.734,5.332s-1.611-6.736-8.84-6.736  S11.072,12.387,11.072,12.387z"/>
</svg>
