<?xml version="1.0" encoding="UTF-8"?>
<!DOCTYPE svg PUBLIC "-//W3C//DTD SVG 1.1 Tiny//EN" "http://www.w3.org/Graphics/SVG/1.1/DTD/svg11-tiny.dtd">
<svg baseProfile="tiny" height="60" viewBox="0 0 60 60" width="60" xmlns="http://www.w3.org/2000/svg" xmlns:xlink="http://www.w3.org/1999/xlink">
<g>
<radialGradient cx="-1627.3687" cy="-2479.0078" gradientTransform="matrix(0.7071 0.7071 -0.7071 0.7071 -564.6201 2940.3716)" gradientUnits="userSpaceOnUse" id="SVGID_1_" r="45.6647">
<stop offset="0" style="stop-color:#93AC5D"/>
<stop offset="0.297" style="stop-color:#93AC5D"/>
<stop offset="0.6667" style="stop-color:#356742"/>
<stop offset="0.7939" style="stop-color:#447B42"/>
<stop offset="1" style="stop-color:#447B42"/>
</radialGradient>
<path d="M20.37,41.951c0.299-0.437,0.233-0.799-0.258-1.332c-0.617-0.666-2.567-3.084-2.968-3.737  c-0.353-0.575-0.411-1.02-0.034-1.71c0.473-0.865,1.915-3.764,8.107-9.956c6.192-6.192,9.084-7.646,9.956-8.108  c0.76-0.399,1.037-0.344,1.711,0.036c0.666,0.376,3.068,2.352,3.734,2.967c0.535,0.492,0.873,0.588,1.301,0.274  c0.752-0.551,13.828-9.843,15.229-10.774c0.85-0.565,1.141-1.062,0.523-1.779c-2.477-2.889-8.594-5.015-10.752-5.399  c-1.922-0.345-3.875-0.873-6.564,0.236c-2.561,1.053-13.076,8.534-21.113,16.571C11.203,27.277,3.722,37.795,2.668,40.352  c-1.108,2.691-0.581,4.645-0.236,6.567c0.387,2.158,2.511,8.275,5.4,10.752c0.718,0.616,1.213,0.323,1.777-0.525  C10.542,55.745,19.852,42.705,20.37,41.951z" fill="url(#SVGID_1_)"/>
<linearGradient gradientTransform="matrix(0.7071 0.7071 -0.7071 0.7071 -564.6201 2940.3716)" gradientUnits="userSpaceOnUse" id="SVGID_2_" x1="-1639.3428" x2="-1638.9111" y1="-2494.9824" y2="-2491.4067">
<stop offset="0" style="stop-color:#3C7440"/>
<stop offset="1" style="stop-color:#1E3A31"/>
</linearGradient>
<path d="M35.172,17.107c0.76-0.399,1.037-0.344,1.711,0.036c0.666,0.376,3.068,2.352,3.734,2.967  c0.535,0.492,0.873,0.588,1.301,0.274c0.047-0.034,0.063-0.046,0.064-0.046c0.252-0.184,1.031-0.739,2.119-1.514  c-0.252-0.205-3.469-2.809-4.801-2.956C36.855,15.598,35.172,17.107,35.172,17.107z" fill="url(#SVGID_2_)"/>
<linearGradient gradientTransform="matrix(0.7071 0.7071 0.7071 -0.7071 -1696.8304 4072.5859)" gradientUnits="userSpaceOnUse" id="SVGID_3_" x1="-1639.3467" x2="-1638.9149" y1="4063.0557" y2="4066.6318">
<stop offset="0" style="stop-color:#3C7440"/>
<stop offset="1" style="stop-color:#1E3A31"/>
</linearGradient>
<path d="M17.092,35.188c-0.401,0.763-0.346,1.039,0.035,1.714c0.376,0.665,2.351,3.067,2.967,3.737  c0.492,0.53,0.587,0.869,0.274,1.297c-0.035,0.049-0.046,0.063-0.046,0.063c-0.183,0.253-0.738,1.032-1.515,2.12  c-0.203-0.252-2.807-3.469-2.956-4.8C15.579,36.875,17.092,35.188,17.092,35.188z" fill="url(#SVGID_3_)"/>
<path d="M2.979,47.466c-0.344-1.923-0.873-3.877,0.235-6.567c1.054-2.557,8.535-13.074,16.573-21.112  C27.825,11.749,38.34,4.268,40.9,3.215c2.689-1.108,4.643-0.581,6.566-0.236c1.98,0.354,7.297,2.178,10.07,4.711  c-2.553-2.815-8.496-4.879-10.619-5.258c-1.922-0.345-3.875-0.873-6.564,0.236c-2.561,1.053-13.076,8.534-21.113,16.571  C11.203,27.277,3.722,37.795,2.668,40.352c-1.108,2.691-0.581,4.645-0.236,6.567c0.378,2.122,2.441,8.065,5.258,10.617  C5.156,54.763,3.333,49.448,2.979,47.466z" fill="#B1BE95" fill-opacity="0.5" stroke-opacity="0.5"/>
<path d="M20.37,41.951c0.299-0.437,0.233-0.799-0.258-1.332c-0.617-0.666-2.567-3.084-2.968-3.737  c-0.353-0.575-0.411-1.02-0.034-1.71c0.473-0.865,1.915-3.764,8.107-9.956c6.192-6.192,9.084-7.646,9.956-8.108  c0.76-0.399,1.037-0.344,1.711,0.036c0.666,0.376,3.068,2.352,3.734,2.967c0.535,0.492,0.873,0.588,1.301,0.274  c0.752-0.551,13.828-9.843,15.229-10.774c0.85-0.565,1.141-1.062,0.523-1.779c-0.291-0.339-0.635-0.665-1.012-0.982  c0.488,0.658,0.197,1.134-0.607,1.667c-1.4,0.932-14.475,10.224-15.227,10.775c-0.43,0.313-0.768,0.218-1.299-0.273  c-0.668-0.618-3.07-2.592-3.738-2.969c-0.672-0.38-0.949-0.436-1.711-0.035c-0.869,0.462-3.763,1.915-9.955,8.107  c-6.192,6.192-7.635,9.092-8.107,9.956c-0.378,0.69-0.32,1.135,0.035,1.711c0.4,0.651,2.351,3.069,2.967,3.736  c0.493,0.533,0.558,0.896,0.259,1.332c-0.518,0.755-9.828,13.794-10.76,15.195c-0.534,0.803-1.009,1.098-1.666,0.606  c0.314,0.378,0.643,0.723,0.982,1.013c0.718,0.616,1.213,0.323,1.777-0.525C10.542,55.745,19.852,42.705,20.37,41.951z" fill="#B1BE95" fill-opacity="0.6" stroke-opacity="0.6"/>
<linearGradient gradientTransform="matrix(0.7071 0.7071 -0.7071 0.7071 -608.1406 2931.3247)" gradientUnits="userSpaceOnUse" id="SVGID_4_" x1="-1610.522" x2="-1610.522" y1="-2533.3467" y2="-2471.428">
<stop offset="0" style="stop-color:#315D3E"/>
<stop offset="0.5" style="stop-color:#1E3A31"/>
<stop offset="1" style="stop-color:#2E593D"/>
</linearGradient>
<path d="M2.899,45.012c1.275-2.776,10.299-14.805,18.804-23.31  c8.505-8.506,20.531-17.529,23.309-18.803c0.527-0.241,1.02-0.411,1.492-0.545c-0.512-0.096-1.031-0.19-1.566-0.26  c-0.086,0.036-0.162,0.063-0.248,0.102c-2.818,1.293-14.972,10.397-23.534,18.958c-8.562,8.562-17.667,20.715-18.96,23.535  c-0.038,0.086-0.063,0.165-0.101,0.25c0.071,0.534,0.165,1.054,0.259,1.564C2.489,46.03,2.658,45.539,2.899,45.012z" fill="url(#SVGID_4_)" fill-opacity="0.5" stroke-opacity="0.5"/>
<rect fill="none" height="60" width="60"/>
</g>
<g transform="matrix(1 0 0 1 30 30)">
<path d="M27.61,11.99l-1.636-5.233c-0.38-1.531-2.51-3.757-4.97-3.757h-12c-2.461,0-4.588,2.226-4.955,3.701l-1.652,5.291c-0.846,0.74-1.393,1.81-1.393,3.01v6c0,0.883,0.391,1.67,1,2.22v1.78c0,1.103,1.01,2,2.25,2h2.5c1.24,0,2.25-0.9,2.25-2v-1h12v1c0,1.103,1.01,2,2.25,2h2.5c1.24,0,2.25-0.897,2.25-2v-1.78c0.609-0.55,1-1.337,1-2.22v-6c0-1.2-0.55-2.28-1.39-3.01z" fill-opacity="0.6" stroke-opacity="0.6"/>
<linearGradient gradientUnits="userSpaceOnUse" id="SVGID_1__" x1="5.5" x2="5.5" y1="22" y2="26">
<stop offset="0" stop-color="#000000"/>
<stop offset="0.6848" stop-color="#000000"/>
<stop offset="1" stop-color="#646464"/>
</linearGradient>
<path d="M3,22v3c0,0.55,0.563,1,1.25,1h2.5c0.688,0,1.25-0.45,1.25-1v-3h-5z" fill="url(#SVGID_1__)"/>
<linearGradient gradientUnits="userSpaceOnUse" id="SVGID_2__" x1="24.5" x2="24.5" y1="22" y2="26">
<stop offset="0" stop-color="#000000"/>
<stop offset="0.6848" stop-color="#000000"/>
<stop offset="1" stop-color="#646464"/>
</linearGradient>
<path d="M22,22v3c0,0.55,0.563,1,1.25,1h2.5c0.688,0,1.25-0.45,1.25-1v-3h-5z" fill="url(#SVGID_2__)"/>
<linearGradient gradientUnits="userSpaceOnUse" id="SVGID_3__" x1="15" x2="15" y1="4.062" y2="14.94">
<stop offset="0" stop-color="#AD9A4B"/>
<stop offset="1" stop-color="#B3914D"/>
</linearGradient>
<path d="M27.5,15l-2.5-8c-0.267-1.067-2-3-4-3h-12c-2,0-3.733,1.933-4,3l-2.5,8h25z" fill="url(#SVGID_3__)"/>
<linearGradient gradientUnits="userSpaceOnUse" id="SVGID_4__" x1="15" x2="15" y1="5.545" y2="13.46">
<stop offset="0" stop-color="#4D4D4D"/>
<stop offset="1" stop-color="#000000"/>
</linearGradient>
<path d="M4.541,13.5l1.891-6.053c0.14-0.549,1.33-1.947,2.568-1.947h12c1.238,0,2.428,1.398,2.545,1.863l1.916,6.137h-20.92z" fill="url(#SVGID_4__)"/>
<linearGradient gradientUnits="userSpaceOnUse" id="SVGID_5_" x1="2" x2="28" y1="17.5" y2="17.5">
<stop offset="0" stop-color="#B39C4D"/>
<stop offset="1" stop-color="#B3964D"/>
</linearGradient>
<path d="M25,12h-20c-1.65,0-3,1.35-3,3v6c0,1.1,0.9,2,2,2h22c1.1,0,2-0.9,2-2v-6c0-1.65-1.35-3-3-3z" fill="url(#SVGID_5_)"/>
<path d="M7.416,12l1.04,3.383c0.452,1.47,2.004,2.62,3.544,2.62h6c1.535,0,3.092-1.15,3.544-2.617l1.04-3.38h-15.16z" fill="#FFFFFF" fill-opacity="0.35" stroke-opacity="0.35"/>
<linearGradient gradientUnits="userSpaceOnUse" id="SVGID_6_" x1="6" x2="6" y1="18" y2="13">
<stop offset="0" stop-color="#A88E49"/>
<stop offset="1" stop-color="#A67447"/>
</linearGradient>
<path d="M6,18c-1.654,0-3-1.121-3-2.5s1.346-2.5,3-2.5,3,1.121,3,2.5-1.346,2.5-3,2.5z" fill="url(#SVGID_6_)"/>
<linearGradient gradientUnits="userSpaceOnUse" id="SVGID_7_" x1="6" x2="6" y1="13.83" y2="17.17">
<stop offset="0" stop-color="#FAFAFA"/>
<stop offset="1" stop-color="#CBCFCF"/>
</linearGradient>
<ellipse cx="6" cy="15.5" fill="url(#SVGID_7_)" rx="2" ry="1.666"/>
<linearGradient gradientUnits="userSpaceOnUse" id="SVGID_8_" x1="24" x2="24" y1="18" y2="13">
<stop offset="0" stop-color="#A88E49"/>
<stop offset="1" stop-color="#A67447"/>
</linearGradient>
<path d="M24,18c-1.654,0-3-1.121-3-2.5s1.346-2.5,3-2.5,3,1.121,3,2.5-1.35,2.5-3,2.5z" fill="url(#SVGID_8_)"/>
<linearGradient gradientUnits="userSpaceOnUse" id="SVGID_9_" x1="24" x2="24" y1="13.83" y2="17.17">
<stop offset="0" stop-color="#FAFAFA"/>
<stop offset="1" stop-color="#CBCFCF"/>
</linearGradient>
<ellipse cx="24" cy="15.5" fill="url(#SVGID_9_)" rx="2" ry="1.666"/>
<linearGradient gradientUnits="userSpaceOnUse" id="SVGID_10_" x1="2" x2="28" y1="19.5" y2="19.5">
<stop offset="0" stop-color="#B3864D"/>
<stop offset="0.511" stop-color="#B39C4D"/>
<stop offset="1" stop-color="#B3834D"/>
</linearGradient>
<rect fill="url(#SVGID_10_)" height="1" width="26" x="2" y="19"/>
<linearGradient gradientUnits="userSpaceOnUse" id="SVGID_11_" x1="15" x2="15" y1="17" y2="12">
<stop offset="0" stop-color="#966640"/>
<stop offset="1" stop-color="#B39C4D"/>
</linearGradient>
<path d="M8.461,12l0.951,3.088c0.323,1.05,1.488,1.91,2.588,1.91h6c1.1,0,2.265-0.86,2.588-1.912l0.95-3.09h-13.08z" fill="url(#SVGID_11_)"/>
<linearGradient gradientUnits="userSpaceOnUse" id="SVGID_12_" x1="15" x2="15" y1="12.06" y2="16.44">
<stop offset="0" stop-color="#E0D9B5"/>
<stop offset="1" stop-color="#B3964D"/>
</linearGradient>
<path d="M8.984,12l0.905,2.941c0.261,0.85,1.231,1.56,2.111,1.56h6c0.884,0,1.85-0.714,2.11-1.559l0.91-2.94h-12.04z" fill="url(#SVGID_12_)"/>
<path d="M23.22,8.01l-0.164-0.523c-0.08-0.288-1.08-1.487-2.06-1.487h-12c-0.965,0-1.99,1.203-2.092,1.596l-0.625,2.003,16.94-1.589z" fill="#FFFFFF" fill-opacity="0.25" stroke-opacity="0.25"/>
<linearGradient gradientUnits="userSpaceOnUse" id="SVGID_13_" x1="15" x2="15" y1="23" y2="21">
<stop offset="0" stop-color="#565656"/>
<stop offset="1" stop-color="#212121"/>
</linearGradient>
<path d="M22,21h-14c-1.1,0-2,0.9-2,2h18c0-1.1-0.9-2-2-2z" fill="url(#SVGID_13_)"/>
<rect fill="none" height="30" width="30"/>
</g>
</svg>
