<?xml version="1.0" encoding="UTF-8"?>
<!DOCTYPE svg PUBLIC "-//W3C//DTD SVG 1.1 Tiny//EN" "http://www.w3.org/Graphics/SVG/1.1/DTD/svg11-tiny.dtd">
<svg baseProfile="tiny" height="30px" version="1.1" viewBox="0 0 30 30" width="30px" x="0px" xmlns="http://www.w3.org/2000/svg" xmlns:xlink="http://www.w3.org/1999/xlink" y="0px">
<g fill-opacity="0.5" stroke-opacity="0.5">
<rect fill="none" height="30" width="30"/>
</g>
<polygon fill-rule="evenodd" points="13.146,10.283 13.146,13.327 14.734,11.805 "/>
<polygon fill-rule="evenodd" points="13.146,16.57 13.146,19.614 14.734,18.092 "/>
<path d="M25,20.748c1.022,0.381,2.02,0.894,2.969,1.558C27.984,22.205,28,22.104,28,22V2  c0-1.1-0.9-2-2-2H10C8.9,0,8,0.9,8,2v1h17V20.748z" fill-rule="evenodd"/>
<path d="M21,20c0.673,0,1.339,0.083,2,0.203V7c0-1.1-0.9-2-2-2H5C3.9,5,3,5.9,3,7v20  c0,1.1,0.9,2,2,2h6.086c-0.221-0.252-0.445-0.494-0.658-0.765c-0.57-0.725-0.57-1.746,0-2.471C13.348,22.047,17.104,20,21,20z   M9.004,19.214L8,18.253l3.563-3.324L8,11.645l1.004-0.962L12,13.327V7l5,5l-3.561,2.929L17,18l-5,5v-6.43L9.004,19.214z" fill-rule="evenodd"/>
<path d="M30,27c-2.454-3.123-5.586-5-9-5s-6.546,1.877-9,5h2.654  c0.695-0.709,1.521-1.386,2.463-1.922C17.047,25.376,17,25.682,17,26c0,2.21,1.792,4,4,4s4-1.79,4-4  c0-0.318-0.047-0.624-0.117-0.922c0.941,0.536,1.768,1.213,2.463,1.922H30z M21,28c-1.104,0-2-0.447-2-1s0.896-1,2-1s2,0.447,2,1  S22.104,28,21,28z" fill-rule="evenodd"/>
</svg>
