<?xml version="1.0" encoding="UTF-8"?>
<!DOCTYPE svg PUBLIC "-//W3C//DTD SVG 1.1 Tiny//EN" "http://www.w3.org/Graphics/SVG/1.1/DTD/svg11-tiny.dtd">
<svg baseProfile="tiny" height="30px" version="1.1" viewBox="0 0 30 30" width="30px" x="0px" xmlns="http://www.w3.org/2000/svg" xmlns:xlink="http://www.w3.org/1999/xlink" y="0px">
<g fill-opacity="0.5" stroke-opacity="0.5">
<rect fill="none" height="30" width="30"/>
</g>
<rect height="16" width="12" x="9" y="4"/>
<path d="M22,1H8C6.896,1,6,1.896,6,3v24c0,1.104,0.896,2,2,2h14c1.105,0,2-0.896,2-2V3C24,1.896,23.105,1,22,1z M11,26H8v-2h3V26z   M15,27c-1.104,0-2-0.896-2-2s0.896-2,2-2c1.105,0,2,0.896,2,2S16.105,27,15,27z M22,26h-3v-2h3V26z M22,21H8V3h14V21z"/>
</svg>
