<?xml version="1.0" encoding="UTF-8"?>
<!DOCTYPE svg PUBLIC "-//W3C//DTD SVG 1.1 Tiny//EN" "http://www.w3.org/Graphics/SVG/1.1/DTD/svg11-tiny.dtd">
<svg baseProfile="tiny" height="30" viewBox="0 0 30 30" width="30" xmlns="http://www.w3.org/2000/svg" xmlns:xlink="http://www.w3.org/1999/xlink">
<g>
<rect fill="none" height="30" width="30"/>
<path d="M22,4c0-1.104-0.896-2-2-2c-1.103,0-2,0.896-2,2h-6c0-1.104-0.896-2-2-2C8.897,2,8,2.896,8,4H3v24h24V4H22z" fill-opacity="0.6" stroke-opacity="0.6"/>
<linearGradient gradientTransform="matrix(-1 0 0 1 -620 0)" gradientUnits="userSpaceOnUse" id="SVGID_1_" x1="-635" x2="-635" y1="10.3691" y2="27.0025">
<stop offset="0" style="stop-color:#F9F9F9"/>
<stop offset="1" style="stop-color:#B5B5B5"/>
</linearGradient>
<rect fill="url(#SVGID_1_)" height="22" width="22" x="4" y="5"/>
<polygon fill="#FFFFFF" points="9,22 9,27 4,22 "/>
<linearGradient gradientUnits="userSpaceOnUse" id="SVGID_2_" x1="14.9995" x2="14.9995" y1="5" y2="11">
<stop offset="0" style="stop-color:#C6957B"/>
<stop offset="1" style="stop-color:#73414B"/>
</linearGradient>
<rect fill="url(#SVGID_2_)" height="6" width="22" x="4" y="5"/>
<linearGradient gradientUnits="userSpaceOnUse" id="SVGID_3_" x1="10" x2="10" y1="6" y2="10">
<stop offset="0" style="stop-color:#351A25"/>
<stop offset="1" style="stop-color:#803F4F"/>
</linearGradient>
<circle cx="10" cy="8" fill="url(#SVGID_3_)" r="2"/>
<linearGradient gradientUnits="userSpaceOnUse" id="SVGID_4_" x1="20" x2="20" y1="6" y2="10">
<stop offset="0" style="stop-color:#351A25"/>
<stop offset="1" style="stop-color:#803F4F"/>
</linearGradient>
<circle cx="20" cy="8" fill="url(#SVGID_4_)" r="2"/>
<rect fill="#FFFFFF" fill-opacity="0.4" height="1" stroke-opacity="0.4" width="22" x="4" y="5"/>
<linearGradient gradientUnits="userSpaceOnUse" id="SVGID_5_" x1="10" x2="10" y1="3" y2="9">
<stop offset="0" style="stop-color:#FEFDFD"/>
<stop offset="1" style="stop-color:#8C8C8C"/>
</linearGradient>
<path d="M11,8c0,0.55-0.45,1-1,1l0,0C9.45,9,9,8.55,9,8V4c0-0.55,0.45-1,1-1l0,0c0.55,0,1,0.45,1,1V8z" fill="url(#SVGID_5_)"/>
<linearGradient gradientUnits="userSpaceOnUse" id="SVGID_6_" x1="20" x2="20" y1="3" y2="9">
<stop offset="0" style="stop-color:#FEFDFD"/>
<stop offset="1" style="stop-color:#8C8C8C"/>
</linearGradient>
<path d="M21,8c0,0.55-0.45,1-1,1l0,0c-0.55,0-1-0.45-1-1V4c0-0.55,0.45-1,1-1l0,0c0.55,0,1,0.45,1,1V8z" fill="url(#SVGID_6_)"/>
<rect fill-opacity="0.2" height="1" stroke-opacity="0.2" width="22" x="4" y="11"/>
<linearGradient gradientUnits="userSpaceOnUse" id="SVGID_7_" x1="15.0005" x2="15.0005" y1="23.834" y2="13.7479">
<stop offset="0" style="stop-color:#303030"/>
<stop offset="1" style="stop-color:#000000"/>
</linearGradient>
<path d="M18.019,22.906V24h-6.036v-1.094h2.146v-7.629l-2.146,0.492v-1.094l3.015-0.95h0.991v9.181H18.019z" fill="url(#SVGID_7_)"/>
</g>
</svg>
