<?xml version="1.0" encoding="UTF-8"?>
<!DOCTYPE svg PUBLIC "-//W3C//DTD SVG 1.1 Tiny//EN" "http://www.w3.org/Graphics/SVG/1.1/DTD/svg11-tiny.dtd">
<svg baseProfile="tiny" height="30px" version="1.1" viewBox="0 0 30 30" width="30px" x="0px" xmlns="http://www.w3.org/2000/svg" xmlns:xlink="http://www.w3.org/1999/xlink" y="0px">
<rect fill="none" height="30" width="30"/>
<polygon points="5.279,7.184 7.278,7.184 7.396,11.021 9.237,7.184 10.835,7.184 10.835,11.021 12.552,7.184 14.672,7.184   11.474,13.178 9.598,13.178 9.557,9.45 7.879,13.178 5.961,13.178 "/>
<path d="M17.797,6.356c0-0.637-0.697-1.15-1.557-1.15c-0.86,0-1.559,0.514-1.559,1.15c0,0.341,0.201,0.646,0.52,0.856v5.965h2.076  V7.213C17.596,7.003,17.797,6.697,17.797,6.356z"/>
<path d="M12.214,6.965c0,0,1.099-2.259,4.036-2.259c2.934,0,4.016,2.219,4.016,2.219s-0.539-2.879-4.076-2.879  C12.651,4.046,12.214,6.965,12.214,6.965z"/>
<path d="M11.015,6.325c0,0,1.279-3.077,5.235-3.077c3.953,0,4.973,3.036,4.973,3.036s-0.918-3.836-5.033-3.836  S11.015,6.325,11.015,6.325z"/>
<polygon points="24.721,20.823 5.279,20.825 9.48,27.552 11.544,26.263 9.672,23.259 9.684,23.259 9.684,23.259 24.721,23.259 "/>
<polygon points="20.52,11.516 18.451,12.803 20.326,15.808 5.279,15.808 5.279,18.242 24.721,18.241 "/>
</svg>
