<?xml version="1.0" encoding="UTF-8"?>
<!DOCTYPE svg PUBLIC "-//W3C//DTD SVG 1.1 Tiny//EN" "http://www.w3.org/Graphics/SVG/1.1/DTD/svg11-tiny.dtd">
<svg baseProfile="tiny" height="60" viewBox="0 0 60 60" width="60" xmlns="http://www.w3.org/2000/svg" xmlns:xlink="http://www.w3.org/1999/xlink">
<g>
<radialGradient cx="-1627.3687" cy="-2479.0078" gradientTransform="matrix(0.7071 0.7071 -0.7071 0.7071 -564.6201 2940.3716)" gradientUnits="userSpaceOnUse" id="SVGID_1_" r="45.6647">
<stop offset="0" style="stop-color:#93AC5D"/>
<stop offset="0.297" style="stop-color:#93AC5D"/>
<stop offset="0.6667" style="stop-color:#356742"/>
<stop offset="0.7939" style="stop-color:#447B42"/>
<stop offset="1" style="stop-color:#447B42"/>
</radialGradient>
<path d="M20.37,41.951c0.299-0.437,0.233-0.799-0.258-1.332c-0.617-0.666-2.567-3.084-2.968-3.737  c-0.353-0.575-0.411-1.02-0.034-1.71c0.473-0.865,1.915-3.764,8.107-9.956c6.192-6.192,9.084-7.646,9.956-8.108  c0.76-0.399,1.037-0.344,1.711,0.036c0.666,0.376,3.068,2.352,3.734,2.967c0.535,0.492,0.873,0.588,1.301,0.274  c0.752-0.551,13.828-9.843,15.229-10.774c0.85-0.565,1.141-1.062,0.523-1.779c-2.477-2.889-8.594-5.015-10.752-5.399  c-1.922-0.345-3.875-0.873-6.564,0.236c-2.561,1.053-13.076,8.534-21.113,16.571C11.203,27.277,3.722,37.795,2.668,40.352  c-1.108,2.691-0.581,4.645-0.236,6.567c0.387,2.158,2.511,8.275,5.4,10.752c0.718,0.616,1.213,0.323,1.777-0.525  C10.542,55.745,19.852,42.705,20.37,41.951z" fill="url(#SVGID_1_)"/>
<linearGradient gradientTransform="matrix(0.7071 0.7071 -0.7071 0.7071 -564.6201 2940.3716)" gradientUnits="userSpaceOnUse" id="SVGID_2_" x1="-1639.3428" x2="-1638.9111" y1="-2494.9824" y2="-2491.4067">
<stop offset="0" style="stop-color:#3C7440"/>
<stop offset="1" style="stop-color:#1E3A31"/>
</linearGradient>
<path d="M35.172,17.107c0.76-0.399,1.037-0.344,1.711,0.036c0.666,0.376,3.068,2.352,3.734,2.967  c0.535,0.492,0.873,0.588,1.301,0.274c0.047-0.034,0.063-0.046,0.064-0.046c0.252-0.184,1.031-0.739,2.119-1.514  c-0.252-0.205-3.469-2.809-4.801-2.956C36.855,15.598,35.172,17.107,35.172,17.107z" fill="url(#SVGID_2_)"/>
<linearGradient gradientTransform="matrix(0.7071 0.7071 0.7071 -0.7071 -1696.8304 4072.5859)" gradientUnits="userSpaceOnUse" id="SVGID_3_" x1="-1639.3467" x2="-1638.9149" y1="4063.0557" y2="4066.6318">
<stop offset="0" style="stop-color:#3C7440"/>
<stop offset="1" style="stop-color:#1E3A31"/>
</linearGradient>
<path d="M17.092,35.188c-0.401,0.763-0.346,1.039,0.035,1.714c0.376,0.665,2.351,3.067,2.967,3.737  c0.492,0.53,0.587,0.869,0.274,1.297c-0.035,0.049-0.046,0.063-0.046,0.063c-0.183,0.253-0.738,1.032-1.515,2.12  c-0.203-0.252-2.807-3.469-2.956-4.8C15.579,36.875,17.092,35.188,17.092,35.188z" fill="url(#SVGID_3_)"/>
<path d="M2.979,47.466c-0.344-1.923-0.873-3.877,0.235-6.567c1.054-2.557,8.535-13.074,16.573-21.112  C27.825,11.749,38.34,4.268,40.9,3.215c2.689-1.108,4.643-0.581,6.566-0.236c1.98,0.354,7.297,2.178,10.07,4.711  c-2.553-2.815-8.496-4.879-10.619-5.258c-1.922-0.345-3.875-0.873-6.564,0.236c-2.561,1.053-13.076,8.534-21.113,16.571  C11.203,27.277,3.722,37.795,2.668,40.352c-1.108,2.691-0.581,4.645-0.236,6.567c0.378,2.122,2.441,8.065,5.258,10.617  C5.156,54.763,3.333,49.448,2.979,47.466z" fill="#B1BE95" fill-opacity="0.5" stroke-opacity="0.5"/>
<path d="M20.37,41.951c0.299-0.437,0.233-0.799-0.258-1.332c-0.617-0.666-2.567-3.084-2.968-3.737  c-0.353-0.575-0.411-1.02-0.034-1.71c0.473-0.865,1.915-3.764,8.107-9.956c6.192-6.192,9.084-7.646,9.956-8.108  c0.76-0.399,1.037-0.344,1.711,0.036c0.666,0.376,3.068,2.352,3.734,2.967c0.535,0.492,0.873,0.588,1.301,0.274  c0.752-0.551,13.828-9.843,15.229-10.774c0.85-0.565,1.141-1.062,0.523-1.779c-0.291-0.339-0.635-0.665-1.012-0.982  c0.488,0.658,0.197,1.134-0.607,1.667c-1.4,0.932-14.475,10.224-15.227,10.775c-0.43,0.313-0.768,0.218-1.299-0.273  c-0.668-0.618-3.07-2.592-3.738-2.969c-0.672-0.38-0.949-0.436-1.711-0.035c-0.869,0.462-3.763,1.915-9.955,8.107  c-6.192,6.192-7.635,9.092-8.107,9.956c-0.378,0.69-0.32,1.135,0.035,1.711c0.4,0.651,2.351,3.069,2.967,3.736  c0.493,0.533,0.558,0.896,0.259,1.332c-0.518,0.755-9.828,13.794-10.76,15.195c-0.534,0.803-1.009,1.098-1.666,0.606  c0.314,0.378,0.643,0.723,0.982,1.013c0.718,0.616,1.213,0.323,1.777-0.525C10.542,55.745,19.852,42.705,20.37,41.951z" fill="#B1BE95" fill-opacity="0.6" stroke-opacity="0.6"/>
<linearGradient gradientTransform="matrix(0.7071 0.7071 -0.7071 0.7071 -608.1406 2931.3247)" gradientUnits="userSpaceOnUse" id="SVGID_4_" x1="-1610.522" x2="-1610.522" y1="-2533.3467" y2="-2471.428">
<stop offset="0" style="stop-color:#315D3E"/>
<stop offset="0.5" style="stop-color:#1E3A31"/>
<stop offset="1" style="stop-color:#2E593D"/>
</linearGradient>
<path d="M2.899,45.012c1.275-2.776,10.299-14.805,18.804-23.31  c8.505-8.506,20.531-17.529,23.309-18.803c0.527-0.241,1.02-0.411,1.492-0.545c-0.512-0.096-1.031-0.19-1.566-0.26  c-0.086,0.036-0.162,0.063-0.248,0.102c-2.818,1.293-14.972,10.397-23.534,18.958c-8.562,8.562-17.667,20.715-18.96,23.535  c-0.038,0.086-0.063,0.165-0.101,0.25c0.071,0.534,0.165,1.054,0.259,1.564C2.489,46.03,2.658,45.539,2.899,45.012z" fill="url(#SVGID_4_)" fill-opacity="0.5" stroke-opacity="0.5"/>
<rect fill="none" height="60" width="60"/>
</g>
<g transform="matrix(1 0 0 1 30 30)">
<rect fill="none" height="30" width="30"/>
<path d="M15,29.5C7.004,29.5,0.5,22.996,0.5,15C0.5,7.004,7.004,0.5,15,0.5  c7.995,0,14.5,6.505,14.5,14.5S22.995,29.5,15,29.5L15,29.5z" fill-opacity="0.35" stroke-opacity="0.35"/>
<radialGradient cx="435.2295" cy="910.6348" gradientTransform="matrix(0.618 0 0 0.618 -253.9715 -552.4329)" gradientUnits="userSpaceOnUse" id="SVGID_1__" r="28.704">
<stop offset="0" style="stop-color:#B4DFC6"/>
<stop offset="0.5" style="stop-color:#72B9C3"/>
<stop offset="1" style="stop-color:#546F9F"/>
</radialGradient>
<circle cx="15" cy="15" fill="url(#SVGID_1__)" r="13.464"/>
<path d="M27.983,14.263c-0.299-5.259-3.704-9.788-8.679-11.54l-0.605,0.1L15.18,2.15  l-4.386,2.615l-0.165,1.102H8.083l1.006,1.71L6.365,9.8l-0.635,2.744l2.25,3.987l2.297-0.469l0.839,0.723l0.655,0.064l0.433,1.691  l-0.571,1.484l2.084,5.332h2.126l2.107-1.701v-0.695l0.557-0.863l0.459-0.236c-0.116,0.18-0.3,0.586-0.3,0.586  c-0.02,0.139,0.299,2.855,1.234,2.643c0.711-0.16,3.248-4.873,3.296-5.322c0.096-0.887-0.387-1.252-0.683-1.391l-0.329-0.156  l-1.515,1.52c-0.162,0.012-0.309,0.039-0.44,0.078v-1.26l1.645-1.605l0.837-2.698l1.275-1.038l-0.28-0.508l0.962-0.926l-0.538-0.979  l0.41,0.049l2.396,5.362l0.49-0.39c-0.015-0.262-0.043-0.521-0.073-0.779L27.983,14.263z M15.161,8.231l-0.2-0.535h1.202  l0.586,1.316h-0.871V8.23L15.161,8.231L15.161,8.231z M19.129,10.882l0.961,1.402l0.064,0.168l-0.984-0.595l-0.234-0.848  L19.129,10.882z M20.573,13.331l0.29,0.29l-0.375,0.084l-0.085-0.104L20.573,13.331z M13.06,3.903l0.611,0.946l-0.694,0.212  l-0.271-0.154L13.06,3.903z" fill-opacity="0.3" stroke-opacity="0.3"/>
<linearGradient gradientTransform="matrix(1.7647 0 0 1.7647 -572.9794 -733.5799)" gradientUnits="userSpaceOnUse" id="SVGID_2__" x1="333.1904" x2="333.1904" y1="416.6045" y2="431.9054">
<stop offset="0" style="stop-color:#6DACBC"/>
<stop offset="0.497" style="stop-color:#5778A3"/>
<stop offset="1" style="stop-color:#D3E0D8"/>
</linearGradient>
<path d="M15,1.536C7.564,1.536,1.536,7.565,1.536,15  c0,7.439,6.029,13.464,13.464,13.464c7.438,0,13.465-6.027,13.465-13.464C28.465,7.565,22.438,1.536,15,1.536z M15,27.428  C8.146,27.428,2.571,21.854,2.571,15C2.571,8.147,8.146,2.571,15,2.571S27.428,8.147,27.428,15  C27.428,21.854,21.854,27.428,15,27.428z" fill="url(#SVGID_2__)" fill-opacity="0.3" stroke-opacity="0.3"/>
<radialGradient cx="333.6309" cy="418.627" gradientTransform="matrix(1.7647 0 0 1.7647 -572.9794 -733.5799)" gradientUnits="userSpaceOnUse" id="SVGID_3__" r="9.0429">
<stop offset="0" style="stop-color:#96BE67"/>
<stop offset="0.3152" style="stop-color:#96BE67"/>
<stop offset="0.7273" style="stop-color:#468D53"/>
<stop offset="1" style="stop-color:#387463"/>
</radialGradient>
<path d="M22.296,18.848l-1.401,1.402c0,0-0.848,0-0.887,0.336c-0.02,0.145-0.065,0.771-0.208,1.094  c-0.282,0.195-0.619,0.842-0.619,0.842s-0.175,1.25,0.761,1.037C20.871,23.35,23.734,19.523,22.296,18.848z" fill="url(#SVGID_3__)"/>
<radialGradient cx="333.6299" cy="418.6211" gradientTransform="matrix(1.7647 0 0 1.7647 -572.9794 -733.5799)" gradientUnits="userSpaceOnUse" id="SVGID_4__" r="10.4663">
<stop offset="0" style="stop-color:#96BE67"/>
<stop offset="0.3152" style="stop-color:#96BE67"/>
<stop offset="0.7273" style="stop-color:#468D53"/>
<stop offset="1" style="stop-color:#387463"/>
</radialGradient>
<path d="M19.132,3.213c-0.23,0.087-0.387,0.146-0.387,0.146l-3.463-0.663L13.583,3.76l0.894,1.383  l-1.563,0.48l-0.842-0.48l0.296-0.84l-1.098,0.76l-0.196,1.324H8.988L9.759,7.7l-2.932,2.39l-0.552,2.387l1.088,2.107L8.018,15  l2.297-0.469l0.839,0.721l0.763,0.074l0.83,3.246l-0.552,1.436l1.22,2.697l0.343,1.119h2.126l1.202-0.65l0.905-1.053V20.85  l1.724-0.881v-1.885l0.681-1.297l1.521-1.366l0.363-1.585l-1.988,0.443l-0.522-0.637l0.371-0.594l-1.411-0.854l-0.601-2.164  l1.042-0.68l0.96,1.402l0.359,0.922l0.722,0.721l0.842,0.44l0.936-0.151l1.039-1l-0.731-1.334l-0.921,0.24l-0.833-0.991l0.791-0.552  l2.482,0.301v0.883l2.161,4.452l0.491-0.393C27.176,9.158,23.783,4.849,19.132,3.213z M18.004,9.23l-1.134,0.3h-1.511V8.749h-1.443  L12.774,9.05l-1.741-0.482l-0.482-0.901l2.404-0.541h2.406L15,6.164h1.202l0.67,1.503l1.134,0.398V9.23H18.004z M20.589,7.247  l-2.044-0.361V6.165l1.022-0.24l0.3-0.36l0.722,0.6V7.247L20.589,7.247z" fill="url(#SVGID_4__)"/>
</g>
</svg>
