<?xml version="1.0" encoding="UTF-8"?>
<!DOCTYPE svg PUBLIC "-//W3C//DTD SVG 1.1 Tiny//EN" "http://www.w3.org/Graphics/SVG/1.1/DTD/svg11-tiny.dtd">
<svg baseProfile="tiny" height="30px" version="1.1" viewBox="0 0 30 30" width="30px" x="0px" xmlns="http://www.w3.org/2000/svg" xmlns:xlink="http://www.w3.org/1999/xlink" y="0px">
<path d="M8,9H3c-1.104,0-2,0.896-2,2v8c0,1.104,0.896,2,2,2h5V9z"/>
<path d="M14,23c0-4.274,2.998-7.855,7-8.769V4c0-0.354-0.188-0.682-0.492-0.861C20.351,3.046,20.176,3,20,3  c-0.167,0-0.334,0.042-0.486,0.126l-9,5C10.197,8.303,10,8.637,10,9v12c0,0.363,0.197,0.697,0.514,0.874l3.528,1.96  C14.017,23.559,14,23.281,14,23z"/>
<path d="M23.936,14.049c0.711,0.074,1.395,0.239,2.047,0.47c-0.084-2.138-0.713-4.362-1.731-6.038  c-0.286-0.471-0.901-0.621-1.374-0.335c-0.472,0.287-0.622,0.901-0.335,1.374C23.307,10.777,23.791,12.416,23.936,14.049z"/>
<path d="M28,15c0,0.172-0.012,0.34-0.019,0.511c0.696,0.465,1.323,1.026,1.864,1.661C29.947,16.458,30,15.734,30,15  c0-3.035-0.866-5.909-2.575-8.544c-0.301-0.464-0.921-0.597-1.383-0.295c-0.464,0.3-0.596,0.919-0.295,1.383  C27.242,9.85,28,12.357,28,15z"/>
<path d="M23,16c-3.866,0-7,3.134-7,7s3.134,7,7,7s7-3.134,7-7S26.866,16,23,16z M24,24v4h-2v-4h-4v-2h4v-4h2v4h4v2H24z"/>
<g fill-opacity="0.5" stroke-opacity="0.5">
<rect fill="none" height="30" width="30"/>
</g>
</svg>
