<?xml version="1.0" encoding="UTF-8"?>
<!DOCTYPE svg PUBLIC "-//W3C//DTD SVG 1.1 Tiny//EN" "http://www.w3.org/Graphics/SVG/1.1/DTD/svg11-tiny.dtd">
<svg baseProfile="tiny" height="30px" version="1.1" viewBox="0 0 30 30" width="30px" x="0px" xmlns="http://www.w3.org/2000/svg" xmlns:xlink="http://www.w3.org/1999/xlink" y="0px">
<g fill-opacity="0.5" stroke-opacity="0.5">
<rect fill="none" height="30" width="30"/>
</g>
<path d="M8.74,6.406C8.351,5.373,7.197,4.85,6.163,5.239L4.291,5.943c-1.033,0.39-1.556,1.543-1.166,2.577  c0.389,1.034,1.543,1.556,2.576,1.167l0,0l6.695,17.781c0.389,1.033,1.543,1.557,2.576,1.168c1.033-0.391,1.557-1.543,1.166-2.577  L8.74,6.406z"/>
<path d="M25.938,1c0,0-3.622,4.569-5.846,4.338c-3.146-0.326-3.652-4.104-9.832-0.572l4.932,13.102c0,0,2.104-2.928,3.975-3.633  C21.039,13.529,26.654,11.416,25.938,1z"/>
</svg>
