<?xml version="1.0" encoding="UTF-8"?>
<!DOCTYPE svg PUBLIC "-//W3C//DTD SVG 1.1 Tiny//EN" "http://www.w3.org/Graphics/SVG/1.1/DTD/svg11-tiny.dtd">
<svg baseProfile="tiny" height="30" viewBox="0 0 30 30" width="30" xmlns="http://www.w3.org/2000/svg" xmlns:xlink="http://www.w3.org/1999/xlink">
<g>
<rect fill="none" height="30" width="30"/>
<path d="M13,29v-2.173c-0.742-0.125-1.47-0.321-2.18-0.587l-1.088,1.885l-3.465-2l1.088-1.885  c-0.581-0.481-1.115-1.015-1.596-1.596l-1.885,1.088l-2-3.465L3.76,19.18C3.495,18.47,3.298,17.741,3.172,17H1v-4h2.172  c0.126-0.741,0.322-1.47,0.587-2.18L1.876,9.732l2-3.465L5.76,7.355C6.241,6.774,6.775,6.241,7.356,5.76L6.268,3.875l3.465-2  L10.82,3.76C11.53,3.494,12.258,3.298,13,3.173V1h4v2.173c0.742,0.125,1.471,0.321,2.18,0.587l1.088-1.885l3.465,2L22.645,5.76  c0.58,0.481,1.114,1.015,1.596,1.596l1.885-1.088l1.999,3.465L26.24,10.82c0.266,0.71,0.461,1.438,0.588,2.18H29v4h-2.172  c-0.127,0.741-0.322,1.47-0.588,2.18l1.884,1.088l-1.999,3.465l-1.885-1.088c-0.481,0.581-1.016,1.114-1.596,1.596l1.088,1.885  l-3.465,2L19.18,26.24c-0.709,0.266-1.438,0.462-2.18,0.587V29H13z" fill-opacity="0.6"/>
<path d="M28,16v-2h-2.051c-0.115-1.279-0.455-2.491-0.971-3.606l1.779-1.027l-1-1.732L23.98,8.66  c-0.725-1.023-1.617-1.916-2.641-2.641l1.026-1.778l-1.732-1l-1.027,1.779C18.491,4.505,17.279,4.166,16,4.051V2h-2v2.051  c-1.279,0.115-2.491,0.454-3.606,0.97L9.366,3.241l-1.732,1L8.661,6.02C7.637,6.744,6.744,7.637,6.02,8.66L4.242,7.634l-1,1.732  l1.779,1.027C4.505,11.509,4.166,12.721,4.05,14H2v2h2.05c0.116,1.279,0.455,2.491,0.971,3.606l-1.779,1.027l1,1.732L6.02,21.34  c0.724,1.023,1.617,1.916,2.641,2.641l-1.027,1.778l1.732,1l1.027-1.779c1.115,0.516,2.327,0.854,3.606,0.97V28h2v-2.051  c1.279-0.115,2.491-0.454,3.606-0.97l1.027,1.779l1.732-1L21.34,23.98c1.023-0.725,1.916-1.617,2.641-2.641l1.777,1.026l1-1.732  l-1.779-1.027c0.516-1.115,0.855-2.327,0.971-3.606H28z" fill="#FFFFFF"/>
<radialGradient cx="-453.8818" cy="-296.3535" gradientTransform="matrix(0.3502 0 0 0.3502 173.9495 115.3211)" gradientUnits="userSpaceOnUse" id="SVGID_1_" r="37.62">
<stop offset="0" style="stop-color:#B4DFC6"/>
<stop offset="0.5" style="stop-color:#72B9C3"/>
<stop offset="1" style="stop-color:#546F9F"/>
</radialGradient>
<circle cx="15" cy="15" fill="url(#SVGID_1_)" r="10"/>
<path d="M24.643,14.452c-0.221-3.906-2.75-7.27-6.445-8.568l-0.451,0.072l-2.612-0.501l-3.258,1.942l-0.123,0.82  h-1.89l0.747,1.27l-2.023,1.65l-0.472,2.039l1.672,2.961l1.706-0.349l0.623,0.535l0.486,0.048l0.321,1.259l-0.424,1.101l1.55,3.96  h1.579l1.566-1.263v-0.516l0.412-0.643l0.342-0.174c-0.087,0.133-0.223,0.436-0.223,0.436c-0.014,0.104,0.223,2.119,0.917,1.963  c0.527-0.12,2.411-3.621,2.448-3.954c0.07-0.656-0.287-0.929-0.508-1.032l-0.244-0.115l-1.125,1.127  c-0.121,0.01-0.229,0.029-0.328,0.059v-0.937l1.222-1.192l0.622-2.002l0.947-0.771l-0.209-0.378l0.715-0.687l-0.398-0.729  l0.305,0.036l1.778,3.983l0.364-0.292c-0.011-0.195-0.032-0.386-0.055-0.577L24.643,14.452z M15.12,9.973l-0.148-0.397h0.893  l0.435,0.977h-0.647V9.973H15.12z M18.067,11.941l0.713,1.042l0.049,0.124l-0.731-0.442l-0.176-0.629L18.067,11.941z M19.139,13.76  l0.216,0.216l-0.278,0.063l-0.063-0.078L19.139,13.76z M13.559,6.759l0.454,0.702l-0.515,0.158l-0.202-0.114L13.559,6.759z" fill-opacity="0.3" stroke-opacity="0.3"/>
<path d="M15,5C9.478,5,5,9.478,5,15c0,5.523,4.478,10,10,10c5.525,0,10-4.477,10-10  C25,9.478,20.525,5,15,5z M15,24.231c-5.09,0-9.231-4.141-9.231-9.231S9.91,5.769,15,5.769c5.09,0,9.23,4.141,9.23,9.231  S20.09,24.231,15,24.231z" fill="url(#SVGID_2_)" fill-opacity="0.3" stroke-opacity="0.3"/>
<radialGradient cx="15.5771" cy="7.6904" gradientUnits="userSpaceOnUse" id="SVGID_3_" r="11.8606">
<stop offset="0" style="stop-color:#96BE67"/>
<stop offset="0.3152" style="stop-color:#96BE67"/>
<stop offset="0.7273" style="stop-color:#468D53"/>
<stop offset="1" style="stop-color:#387463"/>
</radialGradient>
<path d="M20.418,17.856L19.377,18.9c0,0-0.629,0-0.658,0.248c-0.014,0.107-0.049,0.573-0.154,0.813  c-0.209,0.145-0.459,0.625-0.459,0.625s-0.129,0.928,0.564,0.77C19.361,21.199,21.486,18.359,20.418,17.856z" fill="url(#SVGID_3_)"/>
<radialGradient cx="15.5776" cy="7.6934" gradientUnits="userSpaceOnUse" id="SVGID_4_" r="13.7178">
<stop offset="0" style="stop-color:#96BE67"/>
<stop offset="0.3152" style="stop-color:#96BE67"/>
<stop offset="0.7273" style="stop-color:#468D53"/>
<stop offset="1" style="stop-color:#387463"/>
</radialGradient>
<path d="M18.068,6.245c-0.17,0.065-0.287,0.108-0.287,0.108l-2.572-0.49l-1.262,0.789l0.664,1.027  l-1.16,0.355L12.827,7.68l0.22-0.624l-0.815,0.565l-0.147,0.98h-1.549l0.574,0.975l-2.178,1.776l-0.41,1.772l0.808,1.566L9.814,15  l1.707-0.348l0.622,0.535l0.566,0.055l0.616,2.41l-0.41,1.066l0.905,2.004l0.256,0.832h1.58l0.893-0.484l0.672-0.781v-0.945  l1.279-0.652V17.29l0.506-0.962l1.129-1.016l0.27-1.177l-1.477,0.329l-0.387-0.475l0.275-0.44l-1.049-0.635l-0.445-1.606  l0.773-0.504l0.713,1.039l0.268,0.688l0.535,0.535l0.625,0.327l0.695-0.112l0.771-0.742l-0.543-0.991l-0.684,0.179l-0.617-0.735  l0.588-0.41l1.844,0.224v0.655l1.604,3.306l0.365-0.291C24.043,10.66,21.523,7.461,18.068,6.245z M17.232,10.715l-0.844,0.223  h-1.121v-0.581h-1.071l-0.849,0.225l-1.294-0.358l-0.356-0.668l1.785-0.402h1.786L15,8.438h0.893l0.496,1.117l0.844,0.294V10.715z   M19.152,9.242l-1.518-0.27V8.438l0.758-0.18l0.223-0.266l0.537,0.445V9.242z" fill="url(#SVGID_4_)"/>
<rect fill="none" height="30" width="30"/>
<defs>
<linearGradient gradientUnits="userSpaceOnUse" id="SVGID_2_" x1="14.9995" x2="14.9995" y1="5.0479" y2="25.1011">
<stop offset="0" style="stop-color:#6DACBC"/>
<stop offset="0.497" style="stop-color:#5778A3"/>
<stop offset="1" style="stop-color:#D3E0D8"/>
</linearGradient>
</defs>
</g>
</svg>
