<?xml version="1.0" encoding="UTF-8"?>
<!DOCTYPE svg PUBLIC "-//W3C//DTD SVG 1.1 Tiny//EN" "http://www.w3.org/Graphics/SVG/1.1/DTD/svg11-tiny.dtd">
<svg baseProfile="tiny" height="30px" version="1.1" viewBox="0 0 30 30" width="30px" x="0px" xmlns="http://www.w3.org/2000/svg" xmlns:xlink="http://www.w3.org/1999/xlink" y="0px">
<rect fill="none" height="30" width="30"/>
<path d="M25.343,17.212v2.331h1.691v2.277c-0.228,0.082-0.528,0.149-1.005,0.149c-1.754,0-2.802-1.454-2.802-3.889  c0-1.19,0.382-5.022,4.613-3.446l0.46,0.288l0.536-2.296c0,0-0.991-0.788-2.648-0.788c-2.989,0-5.13,2.537-5.005,6.311  c0.188,5.581,3.314,6.182,4.773,6.182c1.977,0,3.043-0.788,3.043-0.788v-6.331H25.343z"/>
<path d="M12.681,5.949h6.298v3.392h-3.878v2.937c0,0,4.93-0.916,4.631,6.4c0,0,0.152,5.113-3.726,5.585  c-1.121,0.138-3.352-0.306-3.352-0.306l0.026-3.436c0,0,4.743,1.521,4.743-2.199c0-3.982-4.743-2.626-4.743-2.626V5.949z"/>
<rect height="2.625" width="2.144" x="8.896" y="21.537"/>
<path d="M6.864,14.156c0.727-0.923,1.144-2.202,1.144-3.721c0-1.288-0.417-4.766-3.377-4.766c-2.039,0-3.266,1.814-3.266,1.814  l0.755,3.327c0,0,1.138-1.578,2.245-1.578c0.545,0,1.199,0.266,1.199,1.552c0,1.524-1.21,1.86-1.67,1.86H2.603v3.436h1.295  c0.33,0,2.188,0.399,2.015,2.368c-0.331,3.823-3.281,1.695-3.613,1.373l-0.562-0.558L1,22.627c0,0,1.095,1.631,3.228,1.631  c2.848,0,4.159-2.992,4.159-5.771C8.387,16.635,7.807,15.061,6.864,14.156z"/>
</svg>
