<?xml version="1.0" encoding="UTF-8"?>
<!DOCTYPE svg PUBLIC "-//W3C//DTD SVG 1.1 Tiny//EN" "http://www.w3.org/Graphics/SVG/1.1/DTD/svg11-tiny.dtd">
<svg baseProfile="tiny" height="30px" version="1.1" viewBox="0 0 30 30" width="30px" x="0px" xmlns="http://www.w3.org/2000/svg" xmlns:xlink="http://www.w3.org/1999/xlink" y="0px">
<polygon points="9.648,24.737 9.653,24.737 8.139,22.303 5.279,22.303 9.48,29.029 11.525,27.748 10.818,26.609 "/>
<polygon points="10.491,22.301 12.008,24.737 16.132,24.737 14.617,22.301 "/>
<polygon points="16.97,22.301 18.488,24.737 22.631,24.737 21.117,22.301 "/>
<polygon points="23.469,22.301 24.721,24.32 24.721,22.301 "/>
<polygon points="20.303,17.284 21.814,19.719 24.721,19.719 20.52,12.992 18.453,14.283 20.325,17.284 "/>
<polygon points="19.462,19.719 17.95,17.284 13.861,17.287 15.376,19.719 "/>
<polygon points="13.023,19.719 11.514,17.287 7.378,17.287 8.893,19.721 "/>
<polygon points="5.279,17.688 5.279,19.721 6.54,19.721 "/>
<path d="M11.949,5.938c0.667-0.515,1.049-1.233,1.049-2.079c0-0.721-0.281-1.381-0.789-1.862c-0.56-0.528-1.357-0.806-2.313-0.806  c-1.163,0-2.172,0.43-2.685,0.793L6.903,2.205l0.697,1.863l0.526-0.377c0.333-0.234,0.93-0.506,1.531-0.506  c0.501,0,1.095,0.15,1.095,0.871c0,0.852-1.106,1.039-1.532,1.039H8.038v1.92h1.187c0.305,0,1.838,0.064,1.852,1.326  c0.002,0.154-0.025,0.539-0.323,0.842c-0.271,0.27-0.686,0.41-1.235,0.41c-0.744,0-1.456-0.309-1.756-0.487L7.24,8.791l-0.674,1.883  l0.33,0.215c0.486,0.322,1.475,0.699,2.635,0.699c2.619,0,3.813-1.674,3.813-3.227C13.344,7.322,12.806,6.44,11.949,5.938z"/>
<path d="M19.336,5.539v1.979h1.9v1.939c-0.251,0.066-0.59,0.125-1.121,0.125c-1.964,0-3.137-1.236-3.137-3.305  c0-1.014,0.307-1.854,0.888-2.426c0.573-0.564,1.404-0.863,2.401-0.863c0.76,0,1.354,0.113,1.874,0.355l0.518,0.246l0.604-1.949  l-0.391-0.188c-0.456-0.225-1.411-0.483-2.577-0.483c-3.352,0-5.603,2.157-5.603,5.363c0,1.56,0.536,2.97,1.468,3.868  c0.976,0.931,2.239,1.387,3.868,1.387c1.538,0,2.753-0.422,3.087-0.551l0.318-0.125V5.539H19.336z"/>
<rect fill="none" height="30" width="30"/>
</svg>
