<?xml version="1.0" encoding="UTF-8"?>
<!DOCTYPE svg PUBLIC "-//W3C//DTD SVG 1.1 Tiny//EN" "http://www.w3.org/Graphics/SVG/1.1/DTD/svg11-tiny.dtd">
<svg baseProfile="tiny" height="30" viewBox="0 0 30 30" width="30" xmlns="http://www.w3.org/2000/svg" xmlns:xlink="http://www.w3.org/1999/xlink">
<g>
<g>
<rect fill="none" height="30" width="30"/>
</g>
<circle cx="15" cy="15" fill-opacity="0.6" r="14" stroke-opacity="0.6"/>
<radialGradient cx="15" cy="3.7026" gradientUnits="userSpaceOnUse" id="SVGID_1_" r="23.0618">
<stop offset="0" style="stop-color:#DDD7B2"/>
<stop offset="0.7818" style="stop-color:#B3964D"/>
<stop offset="1" style="stop-color:#B39C4D"/>
</radialGradient>
<path d="M15,28C7.832,28,2,22.168,2,15C2,7.832,7.832,2,15,2s13,5.832,13,13C28,22.168,22.168,28,15,28L15,28  z" fill="url(#SVGID_1_)"/>
<path d="M15,3c6.999,0,12.709,5.564,12.975,12.5C27.981,15.333,28,15.169,28,15  c0-7.168-5.832-13-13-13S2,7.832,2,15c0,0.169,0.019,0.333,0.025,0.5C2.291,8.564,8.001,3,15,3z" fill="#FFFFFF" fill-opacity="0.3" stroke-opacity="0.3"/>
<linearGradient gradientUnits="userSpaceOnUse" id="SVGID_2_" x1="8.5" x2="8.5" y1="7.5415" y2="19.6124">
<stop offset="0" style="stop-color:#997642"/>
<stop offset="1" style="stop-color:#E5E1C3"/>
</linearGradient>
<path d="M8.5,19C5.468,19,3,16.533,3,13.5C3,10.467,5.468,8,8.5,8c3.033,0,5.5,2.467,5.5,5.5  C14,16.533,11.533,19,8.5,19L8.5,19z" fill="url(#SVGID_2_)"/>
<linearGradient gradientUnits="userSpaceOnUse" id="SVGID_3_" x1="8.5" x2="8.5" y1="8.625" y2="18.5013">
<stop offset="0" style="stop-color:#CCCCCC"/>
<stop offset="0.2" style="stop-color:#EEEEEE"/>
<stop offset="1" style="stop-color:#FCFCFC"/>
</linearGradient>
<circle cx="8.5" cy="13.5" fill="url(#SVGID_3_)" r="4.5"/>
<path d="M8.5,10c2.314,0,4.198,1.753,4.45,4c0.019-0.166,0.05-0.329,0.05-0.5C13,11.015,10.986,9,8.5,9  C6.016,9,4,11.015,4,13.5c0,0.171,0.032,0.334,0.051,0.5C4.303,11.753,6.187,10,8.5,10z" fill-opacity="0.2" stroke-opacity="0.2"/>
<path d="M8.5,15.5c-1.102,0-2-0.897-2-2s0.898-2,2-2c1.104,0,2,0.897,2,2S9.604,15.5,8.5,15.5L8.5,15.5z" fill="#22243E"/>
<linearGradient gradientUnits="userSpaceOnUse" id="SVGID_4_" x1="8.5" x2="8.5" y1="13.0034" y2="15.1348">
<stop offset="0" style="stop-color:#22243E"/>
<stop offset="1" style="stop-color:#B9E1D5"/>
</linearGradient>
<circle cx="8.5" cy="14" fill="url(#SVGID_4_)" r="1"/>
<linearGradient gradientUnits="userSpaceOnUse" id="SVGID_5_" x1="21.5" x2="21.5" y1="7.5415" y2="19.6124">
<stop offset="0" style="stop-color:#997642"/>
<stop offset="1" style="stop-color:#E5E1C3"/>
</linearGradient>
<path d="M21.5,19c-3.032,0-5.5-2.467-5.5-5.5c0-3.033,2.468-5.5,5.5-5.5c3.033,0,5.5,2.467,5.5,5.5  C27,16.533,24.533,19,21.5,19L21.5,19z" fill="url(#SVGID_5_)"/>
<linearGradient gradientUnits="userSpaceOnUse" id="SVGID_6_" x1="21.5" x2="21.5" y1="8.625" y2="18.5013">
<stop offset="0" style="stop-color:#CCCCCC"/>
<stop offset="0.2" style="stop-color:#EEEEEE"/>
<stop offset="1" style="stop-color:#FCFCFC"/>
</linearGradient>
<circle cx="21.5" cy="13.5" fill="url(#SVGID_6_)" r="4.5"/>
<path d="M21.5,10c2.314,0,4.198,1.753,4.45,4c0.019-0.166,0.05-0.329,0.05-0.5c0-2.485-2.014-4.5-4.5-4.5  c-2.484,0-4.5,2.015-4.5,4.5c0,0.171,0.032,0.334,0.051,0.5C17.303,11.753,19.187,10,21.5,10z" fill-opacity="0.2" stroke-opacity="0.2"/>
<path d="M21.5,15.5c-1.102,0-2-0.897-2-2s0.898-2,2-2c1.104,0,2,0.897,2,2S22.604,15.5,21.5,15.5L21.5,15.5z" fill="#22243E"/>
<linearGradient gradientUnits="userSpaceOnUse" id="SVGID_7_" x1="21.5" x2="21.5" y1="13.0039" y2="15.1352">
<stop offset="0" style="stop-color:#22243E"/>
<stop offset="1" style="stop-color:#B9E1D5"/>
</linearGradient>
<circle cx="21.5" cy="14" fill="url(#SVGID_7_)" r="1"/>
<linearGradient gradientUnits="userSpaceOnUse" id="SVGID_8_" x1="14.9995" x2="14.9995" y1="17.3955" y2="28.2055">
<stop offset="0" style="stop-color:#946C40"/>
<stop offset="1" style="stop-color:#EAE6CD"/>
</linearGradient>
<ellipse cx="15" cy="22.5" fill="url(#SVGID_8_)" rx="4.5" ry="5"/>
<linearGradient gradientUnits="userSpaceOnUse" id="SVGID_9_" x1="14.9995" x2="14.9995" y1="18.5303" y2="26.9376">
<stop offset="0" style="stop-color:#31151D"/>
<stop offset="1" style="stop-color:#76464D"/>
</linearGradient>
<ellipse cx="15" cy="22.5" fill="url(#SVGID_9_)" rx="4.5" ry="3.889"/>
<path d="M15,19.723c2.266,0,4.121,1.451,4.436,3.333C19.467,22.873,19.5,22.69,19.5,22.5  c0-2.147-2.014-3.889-4.5-3.889c-2.484,0-4.5,1.741-4.5,3.889c0,0.19,0.035,0.373,0.064,0.556C10.88,21.174,12.736,19.723,15,19.723  z" fill-opacity="0.4" stroke-opacity="0.4"/>
</g>
</svg>
