<?xml version="1.0" encoding="UTF-8"?>
<!DOCTYPE svg PUBLIC "-//W3C//DTD SVG 1.1 Tiny//EN" "http://www.w3.org/Graphics/SVG/1.1/DTD/svg11-tiny.dtd">
<svg baseProfile="tiny" height="30px" version="1.1" viewBox="0 0 30 30" width="30px" x="0px" xmlns="http://www.w3.org/2000/svg" xmlns:xlink="http://www.w3.org/1999/xlink" y="0px">
<g>
<rect fill="none" height="30" width="30"/>
</g>
<path d="M24,6V5c0-1.104-0.896-2-2-2H3C1.896,3,1,3.896,1,5v20c0,1.104,0.896,2,2,2h19c1.104,0,2-0.896,2-2v-1h-2V6H24z M18,11.615  c0,0.176-0.08,0.341-0.217,0.45c-0.104,0.083-0.362,0.127-0.362,0.127c-0.042,0-0.083-0.005-0.126-0.014l-3.348-0.741  c0,2.301,0,7.889,0,7.966c0,1.434-1.779,2.597-3.618,2.597S7,20.837,7,19.403c0-1.433,1.49-2.596,3.329-2.596  c0.462,0,0.903,0.074,1.303,0.206v-6.552V8.153V7.577c0-0.175,0.079-0.341,0.216-0.451C11.952,7.044,12.08,7,12.211,7  c0.041,0,0.084,0.005,0.125,0.014l5.211,1.153C17.812,8.227,18,8.46,18,8.73V11.615z"/>
<path d="M25.799,6.859C25.477,7.532,24.795,8,24,8v14c0.795,0,1.477,0.468,1.799,1.141C27.779,21,29,18.146,29,15  S27.779,9,25.799,6.859z"/>
</svg>
