<?xml version="1.0" encoding="utf-8"?>
<!-- Generator: Adobe Illustrator 12.0.0, SVG Export Plug-In . SVG Version: 6.00 Build 51448)  -->
<!DOCTYPE svg PUBLIC "-//W3C//DTD SVG 1.0//EN" "http://www.w3.org/TR/2001/REC-SVG-20010904/DTD/svg10.dtd" [
	<!ENTITY ns_svg "http://www.w3.org/2000/svg">
	<!ENTITY ns_xlink "http://www.w3.org/1999/xlink">
]>
<svg  version="1.0" id="Layer_1" xmlns="&ns_svg;" xmlns:xlink="&ns_xlink;" width="84" height="72" viewBox="0 0 84 72"
	 overflow="visible" enable-background="new 0 0 84 72" xml:space="preserve">
<g>
	<g>
		<g>
			<g>
				<path fill="#FFFFFF" d="M57.74,56.746l0.645-34.06l-21.85-2.27l-3.855-7.495c0,0-8.696-0.366-10.517,0.194
					c-1.225,0.83-1.473,4.87-1.717,6.99c-1.589,0.593-1.705,1.126-1.705,1.126c-0.796,1.262-0.09,26.922,0.647,28.021
					c0.723,1.081,34.157,8.7,36.027,8.749C56.017,58.054,56.82,57.54,57.74,56.746z"/>
				
					<linearGradient id="XMLID_6_" gradientUnits="userSpaceOnUse" x1="-58.6812" y1="-583.0503" x2="-47.4028" y2="-623.4877" gradientTransform="matrix(1.1364 0 0 -1.1364 105.6695 -653.5159)">
					<stop  offset="0" style="stop-color:#D7D9D9"/>
					<stop  offset="0.0337" style="stop-color:#D7D9D9"/>
					<stop  offset="0.0787" style="stop-color:#FDFFFF"/>
					<stop  offset="0.2191" style="stop-color:#5E5F5F"/>
					<stop  offset="0.3764" style="stop-color:#FFFFFF"/>
					<stop  offset="0.4101" style="stop-color:#FFFFFF"/>
					<stop  offset="1" style="stop-color:#0D0D0D"/>
				</linearGradient>
				<path fill="url(#XMLID_6_)" d="M55.705,57.96c1.018-0.092,4.537-2.326,4.833-3.316c0.791-2.655,1.114-26.49,1.099-27.973
					c-0.021-1.979-0.422-4.504-3.494-5.097c-5.492-1.062-17.83-1.872-17.83-1.872s-3.236-7.035-3.797-7.174
					c-0.565-0.144-9.571-0.846-10.343-0.846c-0.776,0-4.204,1.175-4.204,1.175c3.17-0.504,9.718,0.289,10.496,0.601
					c0.779,0.313,3.584,7.018,3.584,7.018s20.063,1.882,20.975,2.652c0.854,0.72,0.854,2.383,0.938,4.93
					c0.107,3.286-0.334,24.082-0.475,25.847C57.325,55.902,56.711,57.563,55.705,57.96z"/>
				<path fill="#8C5400" d="M52.492,55.633c0,0,2.062,0.713,3.012-1.091c0.547-1.034,0.668-9.96,0.668-15.164
					c0.06-3.456,0.365-14.293-0.398-15.086c-0.691-0.716-20.784-2.763-20.784-2.763l-3.334-7.022c0,0-7.138-0.76-8.135-0.703
					c-0.856,0.051-1.17,1.15-1.17,1.15L52.492,55.633z"/>
				
					<radialGradient id="XMLID_7_" cx="-17.0771" cy="-679.0889" r="52.6128" gradientTransform="matrix(1 0 0 -1 36.9365 -664.1426)" gradientUnits="userSpaceOnUse">
					<stop  offset="0" style="stop-color:#FEFB77"/>
					<stop  offset="0.2022" style="stop-color:#FEFB77"/>
					<stop  offset="1" style="stop-color:#D37700"/>
				</radialGradient>
				<path fill="url(#XMLID_7_)" d="M31.137,15.306c0,0-7.667-1.03-8.434-0.805c-0.775,0.225-1.688,6.327-1.688,6.327
					c-1.399,0-1.52,0.754-1.52,1.051c0,0.296-0.182,25.2,1.098,26.566c0.486,0.521,0.716,0.569,1.245,0.704
					c10.822,2.749,19.116,4.618,31.245,6.667c0.779,0.133,1.13,0.273,1.789-0.399c0.438-0.447,1.379-29.82,0.408-30.647
					c-0.471-0.402-16.687-2.162-20.845-2.542L31.137,15.306z"/>
				<path fill="#8C5400" d="M34.25,21.902l-13.197-1.374c-0.002,0.016-0.018,0.008-0.018,0.008s-0.428,0.143-0.783,0.261
					c0.914-0.021,4.939,0.472,7.393,0.78c1.07,0.133,3.873,0.392,6.955,0.675L34.25,21.902z"/>
			</g>
		</g>
		<g>
			
				<linearGradient id="XMLID_8_" gradientUnits="userSpaceOnUse" x1="63.8154" y1="47.8506" x2="63.8154" y2="60.3929" gradientTransform="matrix(0.9862 0.0103 0.0142 1.0142 -3.6791 -2.8585)">
				<stop  offset="0.0056" style="stop-color:#FBFBFB"/>
				<stop  offset="0.1601" style="stop-color:#F7F7F7"/>
				<stop  offset="0.3124" style="stop-color:#EBEBEB"/>
				<stop  offset="0.4639" style="stop-color:#D7D8D8"/>
				<stop  offset="0.615" style="stop-color:#BCBCBC"/>
				<stop  offset="0.7657" style="stop-color:#989898"/>
				<stop  offset="0.9142" style="stop-color:#6D6D6D"/>
				<stop  offset="1" style="stop-color:#505151"/>
			</linearGradient>
			<path fill="url(#XMLID_8_)" d="M59.845,49.486c0,0-0.196-0.167-0.239-0.205c0.051,3.534,0.143,10.231,0.143,10.231
				c0.012,0.848-0.615,1.32-1.004,1.389c0,0,2.023-0.594,2.313-0.864c0.292-0.272,0.456-0.675,0.45-1.103
				c0,0-0.082-5.759-0.131-9.294l-0.539,0.134C60.488,49.838,60.127,49.732,59.845,49.486z"/>
			
				<linearGradient id="XMLID_9_" gradientUnits="userSpaceOnUse" x1="53.4473" y1="38.2559" x2="67.4477" y2="49.5667" gradientTransform="matrix(0.9862 0.0103 0.0142 1.0142 -3.6791 -2.8585)">
				<stop  offset="0.0056" style="stop-color:#FBFBFB"/>
				<stop  offset="0.1346" style="stop-color:#F4F4F4"/>
				<stop  offset="0.3214" style="stop-color:#E1E1E1"/>
				<stop  offset="0.5434" style="stop-color:#C1C2C2"/>
				<stop  offset="0.7904" style="stop-color:#969797"/>
				<stop  offset="0.9101" style="stop-color:#7E7F7F"/>
				<stop  offset="0.9247" style="stop-color:#6E6F6F"/>
				<stop  offset="0.9465" style="stop-color:#5D5E5E"/>
				<stop  offset="0.9703" style="stop-color:#535454"/>
				<stop  offset="1" style="stop-color:#505151"/>
			</linearGradient>
			<path fill="url(#XMLID_9_)" d="M63.678,45.584L52.422,35.158c-0.553-0.485-1.191-0.339-1.447-0.261l-1.393,0.435
				c0.432-0.203,0.945-0.125,1.322,0.227L62.16,45.978c0.51,0.475,0.631,1.299,0.275,1.907l-0.75,1.28
				c-0.156,0.269-0.389,0.459-0.66,0.556c0,0,1.031-0.21,1.33-0.342c0.326-0.144,0.656-0.282,0.849-0.612l0.747-1.278
				C64.307,46.882,64.188,46.059,63.678,45.584z"/>
			<path fill="#FFFFFF" d="M50.904,35.559L62.16,45.978c0.51,0.475,0.631,1.299,0.275,1.907l-0.75,1.28
				c-0.191,0.329-0.498,0.55-0.848,0.609c-0.35,0.063-0.711-0.042-0.993-0.288c0,0-0.196-0.167-0.239-0.205
				c0.051,3.534,0.143,10.231,0.143,10.231c0.006,0.427-0.158,0.832-0.449,1.101c-0.291,0.271-0.678,0.378-1.053,0.295
				l-16.137-3.605c-0.609-0.134-1.053-0.731-1.064-1.419c0,0-0.102-7.228-0.143-10.347c-0.002,0-0.05,0.028-0.05,0.028
				c-0.332,0.186-0.721,0.199-1.069,0.038c-0.347-0.159-0.618-0.482-0.743-0.882l-0.401-1.294c-0.204-0.654,0.035-1.372,0.57-1.699
				l10.254-6.336C49.922,35.11,50.492,35.173,50.904,35.559z"/>
			<path fill="#9E0A00" d="M50.104,36.653l-10.254,6.336l0.399,1.292L42.15,43.2l0.175,12.693l15.401,4.075l0.74-0.471l-0.184-13.15
				l1.585,2.48l0.741-0.471l0.748-1.281L50.104,36.653z M52.688,57.289l-5.378-1.114l-0.123-8.814l5.376,0.914L52.688,57.289z"/>
			
				<linearGradient id="XMLID_10_" gradientUnits="userSpaceOnUse" x1="37.9404" y1="39.0107" x2="65.8306" y2="62.4134" gradientTransform="matrix(0.9862 0.0103 0.0142 1.0142 -3.6791 -2.8585)">
				<stop  offset="0.0056" style="stop-color:#FF0000"/>
				<stop  offset="0.356" style="stop-color:#FD0000"/>
				<stop  offset="0.539" style="stop-color:#F50000"/>
				<stop  offset="0.6834" style="stop-color:#E70000"/>
				<stop  offset="0.8076" style="stop-color:#D40000"/>
				<stop  offset="0.9176" style="stop-color:#BC0000"/>
				<stop  offset="1" style="stop-color:#A40000"/>
			</linearGradient>
			<path fill="url(#XMLID_10_)" d="M49.363,37.126l-10.255,6.336l0.4,1.289l1.9-1.083l0.177,12.698l16.141,3.603l-0.184-13.151
				l2.325,2.011l0.75-1.279L49.363,37.126z M51.949,57.763l-5.381-1.117l-0.122-8.815l5.376,0.915L51.949,57.763z"/>
		</g>
	</g>
	<rect fill="none" width="84" height="72"/>
</g>
</svg>
